<?xml version="1.0" encoding="UTF-8"?>
<svg width="210px" height="300px" viewBox="0 0 210 300" version="1.1" xmlns="http://www.w3.org/2000/svg" xmlns:xlink="http://www.w3.org/1999/xlink">
    <title>about-left-heart-hover</title>
    <defs>
        <polygon id="path-1" points="0 0.196080193 192.108252 0.196080193 192.108252 167.816023 0 167.816023"></polygon>
        <polygon id="path-3" points="0.0913570116 0.577741067 30.8226774 0.577741067 30.8226774 28.1045601 0.0913570116 28.1045601"></polygon>
    </defs>
    <g id="R4" stroke="none" stroke-width="1" fill="none" fill-rule="evenodd">
        <g id="D---Homepage---Hover-Full-Layout---1440" transform="translate(-100.000000, -3074.000000)">
            <g id="ABOUT-NEW" transform="translate(100.000000, 2382.000000)">
                <g id="about-left-heart-hover" transform="translate(0.000000, 692.000000)">
                    <path d="M85.9051926,277.709691 C88.0102621,277.783124 90.0745356,278.064616 91.951148,278.505212 C96.5447686,279.586304 100.640679,283.437438 101.003763,288.292153 C101.248538,291.580304 99.7635666,294.884774 96.8711359,296.573725 C92.750748,298.976604 86.9373294,299.364166 82.2661966,299.298892 C78.6353597,299.245857 74.812782,298.646157 71.9733859,296.377904 C70.0559777,294.843978 68.9708062,292.408461 68.8973736,289.972945 C68.6158817,280.455257 77.5501882,277.428199 85.9051926,277.709691" id="Fill-1" fill="#AC0015"></path>
                    <path d="M84.9293542,289.068091 L70.5406332,285.168001 C72.9312741,276.352003 73.392268,265.806258 73.6819191,254.872951 L88.5846686,255.268672 C88.2786992,266.671131 87.7442727,278.669211 84.9293542,289.068091" id="Fill-3" fill="#AC0015"></path>
                    <path d="M128.820869,275.052245 C130.925938,275.125678 132.990212,275.40309 134.866824,275.847765 C139.460445,276.928857 143.556355,280.779992 143.919439,285.634707 C144.164214,288.922858 142.679243,292.227327 139.786812,293.916278 C135.666424,296.319158 129.853005,296.706719 125.181873,296.641446 C121.551036,296.588411 117.728458,295.988711 114.889062,293.720458 C112.971654,292.186531 111.886482,289.751015 111.81305,287.315499 C111.531558,277.79781 120.465864,274.766674 128.820869,275.052245" id="Fill-5" fill="#AC0015"></path>
                    <path d="M127.844622,286.408605 L113.455901,282.508515 C115.854701,273.668039 116.323854,262.698017 116.597187,252.217545 L131.499937,252.609186 C131.198047,263.991247 130.6677,275.977089 127.844622,286.408605" id="Fill-7" fill="#AC0015"></path>
                    <path d="M143.952075,217.778853 C141.585912,203.949036 139.150396,190.135538 136.657765,176.326119 C135.40941,169.419369 134.148816,162.520779 132.863744,155.622189 C132.251805,152.297322 132.651606,142.628689 129.751016,140.621529 C127.870324,139.32014 125.340977,139.238548 122.978893,139.209991 L100.031188,138.908101 L100.027108,138.830589 C99.7782532,138.855066 99.5212389,138.879544 99.2723838,138.904021 C99.0194491,138.899942 98.7665144,138.895862 98.5095001,138.891782 L98.5135797,138.969295 C90.8969814,139.666905 83.2763035,140.360436 75.6597053,141.058046 C73.3139399,141.274264 70.792752,141.551676 69.0262887,142.995852 C66.2848029,145.223309 67.4393274,154.834828 67.0844029,158.196412 C66.3500763,165.172514 65.6320681,172.148616 64.9262987,179.128798 C63.5147599,193.093242 62.1725741,207.057685 60.8915822,221.026208 C60.0430271,230.242006 59.5004414,240.387952 65.5341579,247.727138 C72.2654847,255.90672 84.691922,257.628308 95.8373673,258.10154 C98.2524858,258.20353 100.71248,258.256565 103.180633,258.232087 L103.184712,258.268804 C103.433568,258.252485 103.686502,258.236167 103.939437,258.219848 C104.192372,258.215769 104.445306,258.215769 104.698241,258.20761 L104.698241,258.170893 C107.154156,258.00363 109.60599,257.758855 112.00887,257.469203 C123.084962,256.127018 135.340057,253.438567 141.40641,244.761274 C146.852665,236.973333 145.518639,226.896741 143.952075,217.778853" id="Fill-9" fill="#AC0015"></path>
                    <path d="M101.924934,217.470028 C92.8315239,217.270128 83.2200052,216.038091 78.5488723,214.479687 L78.2347437,214.373617 C73.2658007,212.709144 61.6267247,208.825372 62.9607513,197.802315 L70.683419,134.050531 C70.9608312,130.917404 72.4784394,127.894426 74.9384334,125.720004 C77.0965376,123.814834 79.8502622,122.705185 82.6978174,122.595036 C83.2077664,122.574638 83.7177154,122.586877 84.2195052,122.627673 C84.4398032,122.623593 85.1782093,122.595036 85.2761195,122.590957 C87.7197951,122.497126 92.0482423,122.26051 97.7963874,121.917824 C98.000367,121.897426 98.5266344,121.86071 98.579669,121.86071 C98.6163854,121.86071 99.2120058,121.85255 99.4119058,121.85255 C105.176369,121.750561 109.508896,121.644491 111.952572,121.546581 C112.050482,121.542502 112.788888,121.513944 113.005106,121.505785 C113.502817,121.424193 114.012766,121.371159 114.518635,121.350761 C117.37027,121.240612 120.201507,122.129963 122.494237,123.85563 C125.125574,125.838312 126.875719,128.730743 127.426464,132.002575 C127.426464,132.002575 140.073199,194.779337 140.073199,194.783417 C142.26394,205.667768 130.96347,210.45313 126.141393,212.497005 L125.835423,212.627552 C121.356031,214.528642 112.038243,216.482767 103.087618,217.404754 C102.86732,217.441471 102.651102,217.465948 102.426724,217.474107 C102.316575,217.478187 101.96981,217.470028 101.924934,217.470028" id="Fill-11" fill="#D6002A"></path>
                    <g id="Group-15" transform="translate(0.000000, 0.135747)">
                        <mask id="mask-2" fill="white">
                            <use xlink:href="#path-1"></use>
                        </mask>
                        <g id="Clip-14"></g>
                        <path d="M100.502789,167.811297 C100.172342,167.823536 99.8378152,167.811297 99.4992091,167.78274 C99.4992091,167.78274 99.2462744,167.758262 99.1279662,167.741944 C89.8224169,166.848513 81.6877104,162.540464 73.4795713,157.824456 C42.8051191,140.1843 21.4239774,119.810818 9.91952795,97.2792311 C3.64511545,84.9915 0.312088788,72.0020791 0.01019898,58.6658928 C-0.552784716,33.466253 17.7768221,5.47209274 45.9627233,3.9585641 L46.6644131,3.92592737 C56.704289,3.53428654 67.0256568,6.41855808 76.5147878,12.2768522 C80.2802512,14.59814 84.0824309,17.4212177 88.4720719,21.1540444 L88.9534638,21.5660832 C90.7525638,23.1040894 93.2125578,25.2091588 94.5751415,25.1561241 C94.6281762,25.1520445 95.0442946,25.1357262 95.0442946,25.1357262 C96.4435947,25.0826915 98.7322458,22.7899608 100.408958,21.1173281 L100.849554,20.6726525 C104.945464,16.5971401 108.515107,13.488491 112.080671,10.8857113 C121.08433,4.30532942 131.148684,0.621457848 141.18856,0.229817016 L141.894329,0.209419056 C170.108787,-0.484111584 190.567941,25.9883609 191.971321,51.155364 C192.717886,64.4711522 190.408837,77.6849507 185.113527,90.4295961 C175.404098,113.78934 155.675191,135.766102 126.477551,155.752023 C118.795679,161.002458 111.154603,165.857173 102.159103,167.558362 C101.620597,167.705228 101.065772,167.790899 100.502789,167.811297" id="Fill-13" fill="#D6002A" mask="url(#mask-2)"></path>
                    </g>
                    <path d="M99.9210389,153.646443 C99.6681042,153.654602 99.4070103,153.646443 99.149996,153.626045 C99.1459164,153.626045 98.9541756,153.605647 98.8562654,153.593408 C91.6721039,152.903957 85.3854526,149.57501 79.0457666,145.931934 C55.3514963,132.306097 38.8291487,116.567031 29.9437973,99.159412 C25.0931624,89.6662015 22.5189399,79.6263255 22.2904827,69.3253557 C21.8498868,49.8616223 36.0101506,28.2316255 57.7870127,27.0648622 L58.3295985,27.0403847 C66.0849028,26.7344153 74.0564256,28.9659521 81.391532,33.48614 C84.3002811,35.2852401 87.2375874,37.4637422 90.6277283,40.3480138 L90.9989712,40.6662219 C92.3860325,41.8533832 94.2912019,43.4811404 95.3437367,43.4403445 C95.3845326,43.4362649 95.7068204,43.4240261 95.7068204,43.4240261 C96.7838326,43.3832302 98.5543756,41.6126873 99.8435266,40.3194566 L100.190292,39.9767709 C103.356055,36.8273259 106.11386,34.4244462 108.863505,32.4132073 C115.819209,27.3300357 123.598991,24.4865601 131.354295,24.1846703 L131.896881,24.1642723 C153.694141,23.6298457 169.50256,44.08492 170.583652,63.5241759 C171.158874,73.8129069 169.376093,84.0200461 165.284262,93.8641016 C157.790051,111.912217 142.544616,128.891479 119.988552,144.328655 C114.056825,148.387849 108.153656,152.136994 101.197951,153.450622 C100.785912,153.560771 100.353476,153.630124 99.9210389,153.646443" id="Fill-16" fill="#AC0015"></path>
                    <path d="M149.979673,79.5945047 C147.821568,69.7912451 141.171833,62.2562387 133.551156,58.1480896 C123.866204,52.9302914 115.503041,54.6396405 105.785452,58.1562488 C104.088342,58.7722672 102.460585,59.0986345 100.853226,59.2658978 C99.2377072,59.2251019 97.5895521,59.0252019 95.8516459,58.54381 C85.8892822,55.7982446 77.4241288,54.7497894 68.1716142,60.7059938 C60.893622,65.393445 54.8558259,73.4261616 53.4687646,83.3681273 C52.2693645,92.0046236 54.774234,100.74311 59.1924322,107.678416 C61.6279486,111.500994 65.1119202,114.785065 69.2445469,117.432721 C78.0931819,123.103353 90.6379273,125.742849 103.268344,125.559268 L103.268344,125.575586 C103.325458,125.571507 103.386652,125.563347 103.447846,125.559268 C103.50496,125.559268 103.566154,125.563347 103.627348,125.563347 L103.627348,125.542949 C116.237367,124.73927 128.533257,121.128831 136.912739,114.785065 C140.825068,111.823282 144.043866,108.274036 146.169334,104.276036 C150.036787,97.0184422 151.848126,88.1045336 149.979673,79.5945047" id="Fill-18" fill="#F09488"></path>
                    <path d="M110.534505,92.1359864 C110.416197,89.1701231 107.099489,86.8937107 103.121887,87.0487352 C99.1442846,87.2078393 96.0111579,89.7331068 96.1294661,92.6989701 C96.2436947,95.6648335 99.5644826,97.9412459 103.542085,97.7862214 C107.519687,97.6311969 110.648734,95.1018498 110.534505,92.1359864" id="Fill-20" fill="#D6002A"></path>
                    <path d="M90.5069724,90.1100611 C90.3478683,85.9978323 87.3289702,82.7749546 83.7674864,82.9136608 C80.201923,83.0564465 77.4441188,86.5037017 77.6073025,90.6159305 C77.7664066,94.7281592 80.7853047,97.9469573 84.3467885,97.8082512 C87.9082723,97.669545 90.6660765,94.2222898 90.5069724,90.1100611" id="Fill-22" fill="#231916"></path>
                    <path d="M127.533757,88.540642 C127.374653,84.4284133 124.355755,81.2096152 120.794271,81.3483213 C117.232788,81.4870275 114.470904,84.9342827 114.634087,89.0465114 C114.793192,93.1587402 117.81209,96.3775383 121.373573,96.2388321 C124.935057,96.100126 127.692861,92.6528708 127.533757,88.540642" id="Fill-24" fill="#231916"></path>
                    <path d="M128.011886,167.293902 C145.182888,174.1109 164.524234,176.00791 182.829363,174.082343 C188.087957,173.531598 193.228243,169.81509 192.967149,163.944557 C192.738692,158.930738 188.475519,153.21523 182.829363,153.806771 C174.184708,154.71652 165.470699,154.745077 156.826044,153.778214 C156.36913,153.729259 155.912215,153.676224 155.451221,153.61503 C156.617985,153.778214 156.601666,153.778214 155.398187,153.602791 C154.337493,153.431448 153.272719,153.268265 152.212025,153.080603 C150.102876,152.697122 148.001886,152.256526 145.921294,151.746577 C141.654041,150.702201 137.480619,149.364095 133.401027,147.744497 C128.460641,145.782213 122.055681,149.886283 120.933793,154.822589 C119.599767,160.668644 122.720655,165.192912 128.011886,167.293902" id="Fill-26" fill="#D6002A"></path>
                    <g id="Group-30" transform="translate(178.142184, 149.720787)">
                        <mask id="mask-4" fill="white">
                            <use xlink:href="#path-3"></use>
                        </mask>
                        <g id="Clip-29"></g>
                        <path d="M21.577506,4.27650031 C21.4959142,4.88435952 21.9936244,5.48813913 22.5892448,5.74923302 C23.7437694,6.25510243 24.9839654,5.69619832 26.1262511,6.2673412 C32.1640473,9.29031888 31.796884,18.118556 28.3210716,22.4959582 C26.1017736,25.2904787 22.6504387,27.0324645 19.0318406,27.7423135 C12.9369302,28.9417135 6.59724421,26.9427135 0.853178674,24.9600317 C0.583925602,24.8662011 0.277956202,24.747893 0.15148885,24.4990379 C0.0413398656,24.2705807 0.102533746,24.0013276 0.175966402,23.7647113 C2.02810117,17.4658212 2.57884609,11.1669312 3.20710326,4.6355044 C3.21934203,4.51311664 3.23158081,4.38664929 3.30501347,4.28873908 C3.38660531,4.1785901 3.52531143,4.1255554 3.65585838,4.0766003 C8.35146877,2.38764921 12.4473791,0.923075683 17.53871,0.613026691 C18.5790059,0.547753219 19.668257,0.527355259 20.6147223,0.972030787 C21.5530285,1.41670632 22.2669571,2.48963901 21.9201918,3.42386558 C21.8263611,3.68087988 21.6590979,3.90933703 21.5938244,4.17451051 C21.5856652,4.20714724 21.5815856,4.24386357 21.577506,4.27650031" id="Fill-28" fill="#EE847D" mask="url(#mask-4)"></path>
                    </g>
                    <path d="M108.743186,103 L95.2549741,103 C94.5612421,103 94,103.414031 94,103.923749 C94,106.954457 97.5882691,109.420242 101.99908,109.420242 C106.409891,109.420242 110,106.954457 110,103.923749 C110,103.414031 109.436918,103 108.743186,103" id="Fill-1" fill="#231916"></path>
                    <path d="M53.2166458,146.509197 C51.7479927,152.97127 51.8866988,159.400707 52.825005,165.915816 C53.7633111,172.426845 56.1417133,178.888918 60.5150359,183.886418 C64.863881,188.851282 71.3381935,191.658041 77.3637509,193.963011 C82.6794592,195.998727 88.1787492,197.434744 93.6494821,198.980909 C98.2757394,200.286378 103.86478,197.377629 104.962191,192.555551 C106.075919,187.6682 103.493538,182.642143 98.5368333,181.242843 C93.7473923,179.892498 88.9253146,178.619665 84.2297042,176.955192 C83.4709001,176.685939 82.7202551,176.412606 81.9736898,176.122955 C81.6962776,176.016886 81.4188653,175.906737 81.1455326,175.792508 C80.4968775,175.531414 80.7702102,175.653802 81.9736898,176.155592 C81.4800592,175.498777 79.1098162,174.837883 78.3346937,174.429924 C77.2209651,173.838383 76.17251,173.157092 75.1077365,172.483959 C73.7002772,171.590528 76.6539018,173.8751 75.3688304,172.700177 C74.952712,172.324855 74.532514,171.96993 74.1449528,171.566051 C73.9817691,171.402867 73.8267446,171.235604 73.6757997,171.060181 C73.0720201,170.342173 73.2596813,170.591028 74.2265446,171.810826 C74.0552017,171.411026 73.6513221,170.966351 73.422865,170.591028 C73.1209752,170.085159 72.8639609,169.554812 72.5783894,169.040783 C71.5095363,167.127455 73.1576915,170.766451 72.5661507,169.085659 C71.7339139,166.703177 71.1546118,164.345173 70.6854587,161.864781 C70.5753098,161.146773 70.6201853,161.493538 70.8119261,162.909156 C70.7670506,162.533834 70.7262547,162.158511 70.6854587,161.787269 C70.6324241,161.224285 70.5834689,160.665381 70.5467526,160.102397 C70.4610812,158.821405 70.4284445,157.536334 70.452922,156.251262 C70.4692404,155.035544 70.5753098,153.836144 70.6691404,152.628585 C70.8160057,150.764211 70.253022,154.929474 70.5997873,153.158932 C70.7140159,152.57147 70.8160057,151.984009 70.9547118,151.396548 C72.0154057,146.717256 69.522775,141.222045 64.5252748,140.087919 C59.854142,139.023145 54.354852,141.491298 53.2166458,146.509197" id="Fill-33" fill="#D6002A"></path>
                    <path d="M113.681503,187.500529 C113.41225,187.986 113.616229,188.663213 114.032348,189.08749 C114.831948,189.903409 116.063984,189.854454 116.826868,190.723407 C120.877903,195.321107 117.561195,202.619497 113.147076,205.116207 C110.332158,206.711328 106.831868,206.996899 103.551876,206.364562 C98.0158694,205.295709 93.3692141,201.456813 89.2121099,197.834136 C89.0162895,197.662793 88.8000711,197.458813 88.7796731,197.205878 C88.7674344,196.973342 88.9102201,196.773442 89.0530058,196.59394 C92.7531958,191.930966 95.3641346,186.823317 98.1178592,181.544325 C98.1668143,181.446415 98.219849,181.344425 98.3136796,181.28731 C98.4238286,181.222037 98.5584552,181.222037 98.6849225,181.230196 C103.20919,181.405619 107.145996,181.572882 111.535637,183.045615 C112.429068,183.343425 113.359215,183.69427 113.999711,184.39188 C114.636127,185.08949 114.872744,186.231776 114.264884,186.900829 C114.097621,187.080331 113.877323,187.219037 113.734537,187.418937 C113.718219,187.447494 113.697821,187.471972 113.681503,187.500529" id="Fill-35" fill="#EE847D"></path>
                </g>
            </g>
        </g>
    </g>
</svg>