<?xml version="1.0" encoding="utf-8"?>
<!-- Generator: Adobe Illustrator 22.0.0, SVG Export Plug-In . SVG Version: 6.00 Build 0)  -->
<svg version="1.1" id="圖層_1" xmlns="http://www.w3.org/2000/svg" xmlns:xlink="http://www.w3.org/1999/xlink" x="0px" y="0px"
	 viewBox="0 0 34 24.6" style="enable-background:new 0 0 34 24.6;" xml:space="preserve">
<path d="M33,11.3H3.4L13,1.7c0.1,0,0.1-0.1,0.2-0.2c0.3-0.4,0.3-1.1-0.1-1.4c-0.4-0.3-1.1-0.3-1.4,0.1L0.4,11.5
	C0.1,11.7,0,12,0,12.3c0,0.3,0.1,0.6,0.3,0.8l11.2,11.3c0,0,0,0,0,0c0.4,0.4,1,0.4,1.4,0c0.4-0.4,0.4-1,0-1.4l-9.6-9.6H33
	c0.6,0,1-0.4,1-1S33.6,11.3,33,11.3z"/>
</svg>
