<svg xmlns="http://www.w3.org/2000/svg" id="圖層_1" x="0" y="0" enable-background="new 0 0 624 479" version="1.1" viewBox="0 0 624 479" xml:space="preserve"><style>.st0{fill:#fefefe}</style><path id="Fill-1" d="M45.5 318.4l-2.8 21.5h48.6l2.9-21.5H80.4c1.1-10.2 2.7-24 4.8-40h18.1l3.4-21.5H88.1c.5-3.6 1-7.2 1.6-10.9 1-7.1 4.1-17 12.6-24 6.2-5 23-7 38.3-6.7l4.7-22.3c-13.5-.6-42.3-.4-57.1 11.6-11.1 9-18.4 22.5-20.7 38.1-.7 4.8-1.4 9.5-2 14.1H48.8l-3.4 21.5h17.2c-2.1 16.2-3.7 30.1-4.7 40H45.5z" class="st0"/><path id="Fill-3" d="M165.5 297.8c-.5 3.5-1.6 6.9-3.5 9.8-1.8 3-4.1 5.4-6.9 7.1-2.7 1.7-5.5 2.6-8.4 2.6-2.8 0-5.2-.8-7.4-2.4-2.1-1.6-3.7-3.7-4.6-6.5-1-2.9-1.3-6-.8-9.4.5-3.5 1.6-6.7 3.5-9.8 1.9-3 4.2-5.5 7-7.2 2.7-1.7 5.5-2.6 8.4-2.6 2.8 0 5.3.8 7.3 2.4 2.1 1.6 3.6 3.9 4.6 6.6 1 2.9 1.3 6 .8 9.4m7.4-34.5c-5.2-3.8-11.3-5.7-18.2-5.7-7 0-13.5 1.8-19.5 5.2-5.9 3.4-10.9 8.3-14.8 14.3-3.9 6-6.3 13-7.3 20.6-1 7.4-.3 14.4 2 20.6 2.3 6.4 6.2 11.5 11.5 15.2 5.2 3.7 11.4 5.6 18.4 5.6 6.7 0 13.1-1.8 19.1-5.4 5.9-3.5 10.9-8.4 14.9-14.5s6.5-12.9 7.5-20.3c1-7.3.3-14.2-2.1-20.5-2.5-6.2-6.3-11.3-11.5-15.1" class="st0"/><path id="Fill-5" d="M240.9 319.1h-14.4l1.6-12.4c1-7.4 2.3-13.2 3.8-17 1.4-3.4 3.5-5.8 6.5-7.5 3.2-1.8 8.2-2.7 14.7-2.7h5.7l2.9-21.9h-6.8c-7.8 0-14.2 1.5-18.9 4.3-1.7 1.1-3.4 2.4-5 4l1-7.4h-30.2l-2.7 20.2h13.3l-5.3 40.2h-13.3l-2.7 20.2h47.2l2.6-20z" class="st0"/><path id="Fill-7" d="M169.5 154.6h-9.2l7.3-56h-27.4l-2.5 18.8h9.5l-4.9 37.2h-9.5l-2.4 18.7H167z" class="st0"/><path id="Fill-9" d="M159.6 90.6c2.7 0 5.2-1.1 7.4-3.2s3.5-4.7 3.9-7.7c.4-3.3-.2-6.1-2-8.4-1.8-2.3-4.2-3.5-7.1-3.5-2.7 0-5.2 1.1-7.3 3.3-2.1 2.1-3.4 4.7-3.8 7.7-.4 3.2.3 6 2 8.3 1.6 2.3 4 3.5 6.9 3.5" class="st0"/><path id="Fill-11" d="M99.1 64.6c3.4 2.7 4.7 6.8 3.9 12.4-1.8 12.4-10.4 18.4-26.1 18.4H65.6l5.2-35.1h11.6c7.5 0 13.1 1.4 16.7 4.3zm-3 55.2c4.2 3.2 5.7 8 4.7 14.7-.9 6.1-3 10.7-6.4 13.6-3.4 3-7.6 5-12.5 5.9-5.1.9-11.5 1.4-19.2 1.4h-6l6-40.6H74c10.3 0 17.8 1.7 22.1 5zm-34 55.2c18.4 0 33-3.4 43.3-10 10.5-6.8 16.7-16.7 18.6-29.6 1.2-7.9.1-14.9-3.2-20.7-2.8-4.9-7-8.8-12.7-11.6 4.4-2.5 8.1-5.7 11-9.7 3.6-4.9 5.8-10.6 6.8-17 1.8-12-1.1-21.1-8.5-27-7.2-5.8-19.1-8.7-35.4-8.7H34.5l-2.9 19.6h16.2L34.1 154h-1c-10.3.2-20.1.4-30-.3l-1.6-.1L0 174.7l1.6.1c5.2.4 10.6.5 17.2.5 4.9 0 9.9-.1 14.8-.2 3.7-.1 7.6-.1 11.3-.2h17.2z" class="st0"/><path id="Fill-13" d="M320.5 37.3c7.1-10.9 19.7-15.7 29.8-15.7 4.7 0 8.8 1 11.7 2.9 1.6 1.1 6.6 4.3-1.2 16.4-10.9 16.7-32.3 24.9-51.3 28.8 1.6-11.7 4.1-21.9 11-32.4m-39.2 57.5c.9 0 1.7-.1 2.7-.1-1 6.1-1.9 12.2-2.8 18.3-1.6 10.2-3.2 20.7-4.9 31.1l-2.1 12.5 12.7.1c11.1.1 26.5.2 42.4.2 13.7.1 27.6.1 39.4.2l3.1-21.6c-12.3-.1-27.5-.2-42.4-.2-10.5 0-20.7-.1-29.7-.1 1-6.3 2-12.7 2.9-18.9 1.2-8 2.5-16 3.7-24 25.8-4.2 56.4-14.7 72.6-39.7 3.9-6.1 6.2-11.7 7.1-16.8l.5-3.2c1.1-12.2-5.1-21.3-12.7-26.3-19.1-12.5-54.5-6.8-71.4 19.1-10.6 16.3-13.1 31.5-15.2 47.3-2.5.2-4.8.3-6.8.4-11.3.5-23.6.3-35.5.2-2.9 0-5.7-.1-8.6-.1l-3.1 21.6c3.8 0 7.5.1 11.4.1 12.2.3 24.8.5 36.7-.1" class="st0"/><path id="Fill-15" d="M407.3 117.7c.5-3.5 1.7-6.9 3.6-10s4.3-5.6 7.1-7.4c2.7-1.7 5.6-2.6 8.5-2.6 2.8 0 5.3.8 7.3 2.4 2.1 1.7 3.6 3.9 4.6 6.6 1 2.9 1.3 6.1.8 9.5-.5 3.6-1.7 7-3.5 10s-4.2 5.5-7 7.3c-2.7 1.7-5.6 2.6-8.5 2.6-2.8 0-5.2-.8-7.3-2.4-2.1-1.6-3.7-3.8-4.6-6.5-1.2-2.9-1.4-6.1-1-9.5M386.6 138c2.5 6.8 6.6 12.2 12.2 16.1 5.5 3.9 12.1 5.9 19.5 5.9 7.1 0 13.9-1.9 20.2-5.7 6.2-3.7 11.5-8.9 15.7-15.3 4.2-6.4 6.8-13.6 7.9-21.4 1-7.7.3-15-2.2-21.6-2.5-6.7-6.6-12.2-12.1-16.2s-12-6-19.3-6c-7.3 0-14.3 1.9-20.6 5.5-6.2 3.6-11.5 8.7-15.6 15.1s-6.7 13.7-7.7 21.7c-1.1 8-.4 15.3 2 21.9" class="st0"/><path id="Fill-17" d="M565.6 108c1.7-4.5 4.5-7.9 8.3-10.1 3.9-2.3 7.8-3 11.8-1.9 3.1.8 5.7 2.4 8 4.8L564 118.3c-.2-3.7.3-7.1 1.6-10.3m-5.8 47.6c5.4 4.1 11.5 6.2 18.3 6.3 6.7.1 13.5-2 20.4-6 6.5-3.8 12-9 16.4-15.3 3-4.4 6.2-9.3 6.8-14.4.8-6 .3-9.7-.5-15.4l-16.5 9.5c-.7 4.5-2.3 7-4.7 10.4-2.4 3.4-5.3 6.1-8.8 8.2-4.6 2.7-8.9 3.4-13.2 2.2-3.5-1-6.4-3.3-8.9-6.8l49.2-29.1-1.1-2.7c-3.5-8.1-7.9-14.5-13.2-18.9-5.4-4.6-11.5-7.1-18-7.5-6.4-.4-13.1 1.5-19.9 5.4-6.1 3.6-11.2 8.6-15 14.8-3.8 6.2-6.1 13.1-6.7 20.5-.7 7.4.4 14.8 3.2 21.8 2.8 7.2 6.9 12.9 12.2 17" class="st0"/><path id="Fill-19" d="M305.9 413.7c1.7-4.5 4.5-7.9 8.3-10.1 3.9-2.3 7.8-3 11.8-1.9 3.1.8 5.7 2.4 8 4.8L304.3 424c-.2-3.6.4-7.1 1.6-10.3zM345 426c-.7 4.5-2.3 7-4.7 10.4-2.4 3.4-5.3 6.1-8.8 8.2-4.6 2.7-8.9 3.4-13.2 2.2-3.5-1-6.4-3.3-8.9-6.8l49.2-29.1-1.1-2.7c-3.5-8.1-7.9-14.5-13.2-18.9-5.4-4.6-11.5-7.1-18-7.5-6.4-.4-13.1 1.5-19.9 5.4-6.1 3.6-11.2 8.6-15 14.8-3.8 6.2-6.1 13.1-6.7 20.5-.7 7.4.4 14.8 3.2 21.8 2.8 7.2 6.9 12.9 12.3 16.9 5.4 4.1 11.5 6.2 18.3 6.3 6.7.1 13.5-2 20.4-6 6.5-3.9 12-9 16.4-15.3 3-4.4 6.2-9.3 6.8-14.4.8-6 .4-9.7-.5-15.4L345 426z" class="st0"/><path id="Fill-21" d="M504.9 160.1l38.3-83h-20.8l-21.5 46.7-9.1-46.7h-21.6l16.6 83z" class="st0"/><path id="Fill-23" d="M186.3 206.9l.6-1c.6-.8 1.1-1.4 1.6-1.9 3.3-3.5 7.3-5.1 12.8-5.1 1.3 0 2.8.1 4.4.3 1.1.1 2.1.2 3.2.4 0 .1-.1.2-.2.3-1.8 3.5-3.9 6.4-6.3 8.6-1.2 1.1-2.5 2-3.9 2.8-1.3.7-2.7 1.2-4.1 1.5-2.6.6-5.4.3-7.3-.8-.9-.5-1.2-.9-1.2-1-.1-.1-.3-.8-.2-1.6.1-.8.3-1.8.6-2.5m29.2-50.4c-2.2 1.4-4.6 2.1-7.1 2.1-2.4 0-4.4-.6-5.9-1.9-1.6-1.3-2.8-3-3.4-5.2-.7-2.4-.9-5-.5-7.9.4-2.9 1.3-5.6 2.8-8.1 1.5-2.5 3.3-4.5 5.6-5.9 2.1-1.4 4.4-2.1 6.8-2.1 2.3 0 4.3.7 6 2 1.7 1.4 3 3.3 3.8 5.5.8 2.4 1 4.9.7 7.5-.4 2.9-1.3 5.6-2.8 8.1-1.8 2.5-3.7 4.5-6 5.9m-47.9 53.1c.1 4.6 1.2 8.8 3.3 12.4 2.1 3.5 5.1 6.2 8.9 8.1 3.6 1.7 7.5 2.6 11.5 2.6 7.9 0 16-3.5 22.3-9.6 4-3.8 7.4-8.6 10.1-14.3 1.2-2.5 2.2-5.2 2.9-7.2 2.3.1 4.6 0 6.9-.1 11.3-.7 28.4-5.2 38.4-10.5l-8.6-16.9c-7.5 4.4-16.1 5.3-28.6 6.9.6-1.9.9-5.7 1.4-7.7l.6-2.9c.2-1.1.4-2.3.6-3.5l5.1-39.1h12.3l2.3-17.1h-28.7l-.6 4.3c-1.2-1-2.4-1.8-3.7-2.5-3.1-1.7-6.6-2.6-10.4-2.6-5.2 0-10.2 1.5-14.8 4.6-4.5 3-8.4 7-11.4 12s-5 10.5-5.7 16.3c-.8 5.8-.3 11.2 1.4 16.2s4.6 9.1 8.5 12.2c3.9 3.1 8.6 4.6 13.9 4.6 3.7 0 7.6-.9 11.5-2.8 1-.5 2-1 3-1.6-.7 2.3-1.2 7.2-2.3 10 .2-.6-10.6-2.3-11.5-2.4-11.5-1.6-22.2 1.5-30.2 10.2-.9 1-1.9 2.2-2.9 3.5-.4.6-1.2 1.6-1.6 2.5-.6 1-1 1.9-1.4 2.8-1.8 3.6-2.5 7.5-2.5 11.6" class="st0"/><path id="Fill-25" d="M253.6 384.5c-6.1 0-12.5 2.2-19.3 6.4l.7-5.5h-29.8l-2.6 19.9h10.8l-5.2 39.6h-11.5l-2.6 19.8H236l2.6-19.8h-11.3l4.3-32.7c8.9-6.5 13.9-7.9 16.5-7.9 1.6 0 2.6.4 2.9 1.1.3.6.9 2.5.2 7.7l-6.7 51.5h29.9l2.6-19.8h-10.8c1.9-14.9 13.6-60.3-12.6-60.3" class="st0"/><defs><filter id="Adobe_OpacityMaskFilter" width="110.5" height="121.9" x="77" y="356.5" filterUnits="userSpaceOnUse"><feColorMatrix values="1 0 0 0 0 0 1 0 0 0 0 0 1 0 0 0 0 0 1 0"/></filter></defs><mask id="mask-3_1_" width="110.5" height="121.9" x="77" y="356.5" maskUnits="userSpaceOnUse"><g filter="url(#Adobe_OpacityMaskFilter)"><path id="path-2_1_" fill="#fff" d="M77 356.5h110.6v121.8H77z"/></g></mask><path id="Fill-27" fill="#fefefe" d="M161.3 417.8c-.8 5.9-2.8 11.3-5.9 16.2-3.1 4.8-7.1 8.7-11.8 11.5-4.7 2.8-9.8 4.3-15.1 4.3-5.5 0-10.4-1.5-14.5-4.4-4.2-2.9-7.2-7-9.1-12-1.8-5-2.4-10.5-1.6-16.4.8-6.1 2.8-11.6 5.8-16.5 3.1-4.8 7-8.7 11.7-11.4 4.7-2.7 9.9-4.1 15.4-4.1 5.4 0 10.3 1.5 14.4 4.5s7.1 7 9 12.1c1.9 4.9 2.5 10.4 1.7 16.2m5.5-52.9c-7.7-5.6-16.8-8.4-27-8.4-10.4 0-20.1 2.6-29 7.8-8.9 5.2-16.3 12.4-22.1 21.4-5.8 9.1-9.5 19.5-11 31-1.5 11.1-.5 21.5 3 30.8 3.5 9.5 9.2 17.1 17 22.6 7.7 5.5 16.9 8.3 27.3 8.3 10 0 19.6-2.7 28.5-8.1 8.9-5.3 16.3-12.6 22.3-21.7s9.7-19.4 11.2-30.4c1.4-10.9.4-21.2-3.2-30.6-3.6-9.5-9.3-17.1-17-22.7" mask="url(#mask-3_1_)"/><path id="Fill-30" d="M529.5 333l17.1-134.3-31.7-.5-3.2 23.4 11.7.4-14.2 110.7z" class="st0"/><path id="Fill-32" d="M361.7 275.6l8.5-64.9h-31.8l-2.8 21.7h10.9l-5.7 43.2h-10.9l-2.8 21.7h42.4l2.8-21.7z" class="st0"/><path id="Fill-34" d="M363.3 174.9c-3.1 0-6 1.3-8.5 3.8s-3.9 5.5-4.4 8.9c-.5 3.7.3 6.9 2.3 9.7 2 2.7 4.8 4.2 8.1 4.2 3.1 0 6-1.3 8.5-3.7 2.5-2.5 4-5.5 4.5-9 .5-3.8-.3-7.1-2.3-9.8-2-2.7-4.8-4.1-8.2-4.1" class="st0"/><path id="Fill-36" d="M572.7 279.5c1.5-3.4 3.6-6.3 6.1-8.6 3.5-3.2 7.3-4.9 11.4-4.9 4.3 0 7.7 1.5 10.5 4.6 2.1 2.4 3.5 5.3 4.3 8.8h-32.3zm48.6-10.2c-2.3-7.2-6.1-12.8-11.2-16.7-5.1-3.9-11.4-5.8-18.7-5.8-6.7 0-13.1 1.8-19 5.5-6 3.6-11 8.8-15 15.2-4 6.5-6.5 13.8-7.5 21.9-1 8.2-.3 15.7 2.1 22.3 2.5 6.7 6.5 12 12 15.8 5.4 3.7 11.9 5.5 19.3 5.5 7.1 0 14-1.8 20.4-5.2 4.5-2.4 9.3-5.2 12.2-9.5 3.4-5.2 4.8-8.8 6.7-14.5l-17.8-.3c-2.7 3.8-5.2 5.2-8.6 7-3.5 1.8-7.2 2.8-11 2.8-5 0-8.8-1.7-11.8-5.2-2.4-2.8-3.7-6.5-4.1-11.1H623l.3-3.1c.9-9.3.3-17.6-2-24.6z" class="st0"/><path id="Fill-38" d="M419.9 259.7h16.8l2.8-19.5h-16.8l4.2-29.1h-21.1l-4.2 29.1h-13.1l-2.9 19.5h13.2l-6.7 47c-1.4 9.4-.6 16 2.4 20.1 3 4.1 8.4 6.3 16.2 6.3 3.5 0 8.1-.2 13.8-1.8l1.3-.4 2.7-20.7-3.1 1c-2.9 1-5.8 1.5-8.6 1.5-1.7 0-2.8-.4-3.2-1.1-.2-.4-.8-2 .1-7.9l6.2-44z" class="st0"/><path id="Fill-40" d="M447.8 259.7H461l-6.7 47c-1.3 9.4-.6 16 2.4 20.1 3 4.1 8.4 6.3 16.2 6.3 3.5 0 8.1-.2 13.8-1.8l1.3-.4 2.7-20.7-3.1 1c-2.9 1-5.8 1.5-8.6 1.5-1.7 0-2.8-.4-3.2-1.1-.2-.4-.8-2 .1-7.9l6.3-43.8H499l2.8-19.5H485l4.2-29.1H468l-4.2 29.1h-13.1l-2.9 19.3z" class="st0"/><path id="Fill-42" d="M318.6 197.3h-24.5l-19.5 135.2-.7 6.4h5.5v.1h84.3l3.1-25.2h-64.9z" class="st0"/><path id="Fill-44" d="M564.7 358.8c-2.6 2.5-5 5.5-7.7 7.8-6.9 5.7-15 9.9-23.7 12-28.2 6.6-52.4 4.4-80.1-3.4-13.2-3.7-26.9-7.1-40.5-5.3-15.7 2-30.4 12.4-34.3 28.3-.2.7-.3 1.3-.4 2.1l-.3 1.7c-.3 2.4-.8 5.6.3 9.7 1.8 6.2 6.7 9.9 11.7 12.9 3.4 2.1 7.3 3.5 10.9 4.8 2 .7 4.2 1.5 6.2 2.4 3.7 1.6 6.1 2.9 5.6 6.3-.4 2.9-1.5 5-3.2 6.5-1.7 1.4-4 2.2-6.9 2.2-4.7 0-8.1-2.7-10.5-8.5l1.5-8.4h-18.1l-5.1 33.8h18.1l.3-2.3c4.1 2.3 8.6 3.5 13.5 3.5 8 0 14.8-2.4 20.3-7s8.8-10.9 9.9-18.7c.5-3.8.5-7.3 0-10.4-.7-3.6-2.6-7-5.8-10.1-3.1-2.9-7.6-5.3-13.5-7-8.3-2.4-14.8-9.4-6.3-16.8 15.8-13.7 41.3 2 58.4 5.4 31.7 6.3 66.8 3.9 96.1-10.3 15.6-7.6 32.7-22.6 36.1-40.7h-26.3c-1.4 3.5-3.3 6.7-6.2 9.5" class="st0"/></svg>