<?xml version="1.0" encoding="utf-8"?>
<!-- Generator: Adobe Illustrator 22.0.0, SVG Export Plug-In . SVG Version: 6.00 Build 0)  -->
<svg version="1.1" id="圖層_1" xmlns="http://www.w3.org/2000/svg" xmlns:xlink="http://www.w3.org/1999/xlink" x="0px" y="0px"
	 viewBox="0 0 624 479" style="enable-background:new 0 0 624 479;" xml:space="preserve">
<style type="text/css">
	.st0{fill:#D6002A;}
	.st1{filter:url(#Adobe_OpacityMaskFilter);}
	.st2{fill:#FFFFFF;}
	.st3{mask:url(#mask-3_1_);fill:#D6002A;}
</style>
<title>big-love</title>
<path id="Fill-1" class="st0" d="M45.5,318.4l-2.8,21.5h48.6l2.9-21.5H80.4c1.1-10.2,2.7-24,4.8-40h18.1l3.4-21.5H88.1
	c0.5-3.6,1-7.2,1.6-10.9c1-7.1,4.1-17,12.6-24c6.2-5,23-7,38.3-6.7l4.7-22.3c-13.5-0.6-42.3-0.4-57.1,11.6
	c-11.1,9-18.4,22.5-20.7,38.1c-0.7,4.8-1.4,9.5-2,14.1H48.8l-3.4,21.5h17.2c-2.1,16.2-3.7,30.1-4.7,40H45.5z"/>
<path id="Fill-3" class="st0" d="M165.5,297.8c-0.5,3.5-1.6,6.9-3.5,9.8c-1.8,3-4.1,5.4-6.9,7.1c-2.7,1.7-5.5,2.6-8.4,2.6
	c-2.8,0-5.2-0.8-7.4-2.4c-2.1-1.6-3.7-3.7-4.6-6.5c-1-2.9-1.3-6-0.8-9.4c0.5-3.5,1.6-6.7,3.5-9.8c1.9-3,4.2-5.5,7-7.2
	c2.7-1.7,5.5-2.6,8.4-2.6c2.8,0,5.3,0.8,7.3,2.4c2.1,1.6,3.6,3.9,4.6,6.6C165.7,291.3,166,294.4,165.5,297.8 M172.9,263.3
	c-5.2-3.8-11.3-5.7-18.2-5.7c-7,0-13.5,1.8-19.5,5.2c-5.9,3.4-10.9,8.3-14.8,14.3c-3.9,6-6.3,13-7.3,20.6c-1,7.4-0.3,14.4,2,20.6
	c2.3,6.4,6.2,11.5,11.5,15.2c5.2,3.7,11.4,5.6,18.4,5.6c6.7,0,13.1-1.8,19.1-5.4c5.9-3.5,10.9-8.4,14.9-14.5
	c4-6.1,6.5-12.9,7.5-20.3c1-7.3,0.3-14.2-2.1-20.5C181.9,272.2,178.1,267.1,172.9,263.3"/>
<path id="Fill-5" class="st0" d="M240.9,319.1h-14.4l1.6-12.4c1-7.4,2.3-13.2,3.8-17c1.4-3.4,3.5-5.8,6.5-7.5
	c3.2-1.8,8.2-2.7,14.7-2.7h5.7l2.9-21.9h-6.8c-7.8,0-14.2,1.5-18.9,4.3c-1.7,1.1-3.4,2.4-5,4l1-7.4h-30.2l-2.7,20.2h13.3l-5.3,40.2
	h-13.3l-2.7,20.2h47.2L240.9,319.1z"/>
<polygon id="Fill-7" class="st0" points="169.5,154.6 160.3,154.6 167.6,98.6 140.2,98.6 137.7,117.4 147.2,117.4 142.3,154.6 
	132.8,154.6 130.4,173.3 167,173.3 "/>
<path id="Fill-9" class="st0" d="M159.6,90.6c2.7,0,5.2-1.1,7.4-3.2c2.2-2.1,3.5-4.7,3.9-7.7c0.4-3.3-0.2-6.1-2-8.4
	c-1.8-2.3-4.2-3.5-7.1-3.5c-2.7,0-5.2,1.1-7.3,3.3c-2.1,2.1-3.4,4.7-3.8,7.7c-0.4,3.2,0.3,6,2,8.3C154.3,89.4,156.7,90.6,159.6,90.6
	"/>
<path id="Fill-11" class="st0" d="M99.1,64.6c3.4,2.7,4.7,6.8,3.9,12.4c-1.8,12.4-10.4,18.4-26.1,18.4H65.6l5.2-35.1h11.6
	C89.9,60.3,95.5,61.7,99.1,64.6L99.1,64.6z M96.1,119.8c4.2,3.2,5.7,8,4.7,14.7c-0.9,6.1-3,10.7-6.4,13.6c-3.4,3-7.6,5-12.5,5.9
	c-5.1,0.9-11.5,1.4-19.2,1.4h-6l6-40.6H74C84.3,114.8,91.8,116.5,96.1,119.8L96.1,119.8z M62.1,175c18.4,0,33-3.4,43.3-10
	c10.5-6.8,16.7-16.7,18.6-29.6c1.2-7.9,0.1-14.9-3.2-20.7c-2.8-4.9-7-8.8-12.7-11.6c4.4-2.5,8.1-5.7,11-9.7c3.6-4.9,5.8-10.6,6.8-17
	c1.8-12-1.1-21.1-8.5-27c-7.2-5.8-19.1-8.7-35.4-8.7H34.5l-2.9,19.6h16.2L34.1,154c-0.2,0-0.5,0-0.7,0l-0.3,0
	c-10.3,0.2-20.1,0.4-30-0.3l-1.6-0.1L0,174.7l1.6,0.1c5.2,0.4,10.6,0.5,17.2,0.5c4.9,0,9.9-0.1,14.8-0.2c3.7-0.1,7.6-0.1,11.3-0.2
	H62.1z"/>
<path id="Fill-13" class="st0" d="M320.5,37.3c7.1-10.9,19.7-15.7,29.8-15.7c4.7,0,8.8,1,11.7,2.9c1.6,1.1,6.6,4.3-1.2,16.4
	c-10.9,16.7-32.3,24.9-51.3,28.8C311.1,58,313.6,47.8,320.5,37.3 M281.3,94.8c0.9,0,1.7-0.1,2.7-0.1c-1,6.1-1.9,12.2-2.8,18.3
	c-1.6,10.2-3.2,20.7-4.9,31.1l-2.1,12.5l12.7,0.1c11.1,0.1,26.5,0.2,42.4,0.2c13.7,0.1,27.6,0.1,39.4,0.2l3.1-21.6
	c-12.3-0.1-27.5-0.2-42.4-0.2c-10.5,0-20.7-0.1-29.7-0.1c1-6.3,2-12.7,2.9-18.9c1.2-8,2.5-16,3.7-24c25.8-4.2,56.4-14.7,72.6-39.7
	c3.9-6.1,6.2-11.7,7.1-16.8l0.5-3.2c1.1-12.2-5.1-21.3-12.7-26.3c-19.1-12.5-54.5-6.8-71.4,19.1c-10.6,16.3-13.1,31.5-15.2,47.3
	c-2.5,0.2-4.8,0.3-6.8,0.4c-11.3,0.5-23.6,0.3-35.5,0.2c-2.9,0-5.7-0.1-8.6-0.1l-3.1,21.6c3.8,0,7.5,0.1,11.4,0.1
	C256.8,95.2,269.4,95.4,281.3,94.8"/>
<path id="Fill-15" class="st0" d="M407.3,117.7c0.5-3.5,1.7-6.9,3.6-10s4.3-5.6,7.1-7.4c2.7-1.7,5.6-2.6,8.5-2.6
	c2.8,0,5.3,0.8,7.3,2.4c2.1,1.7,3.6,3.9,4.6,6.6c1,2.9,1.3,6.1,0.8,9.5c-0.5,3.6-1.7,7-3.5,10c-1.8,3-4.2,5.5-7,7.3
	c-2.7,1.7-5.6,2.6-8.5,2.6c-2.8,0-5.2-0.8-7.3-2.4c-2.1-1.6-3.7-3.8-4.6-6.5C407.1,124.3,406.9,121.1,407.3,117.7 M386.6,138
	c2.5,6.8,6.6,12.2,12.2,16.1c5.5,3.9,12.1,5.9,19.5,5.9c7.1,0,13.9-1.9,20.2-5.7c6.2-3.7,11.5-8.9,15.7-15.3
	c4.2-6.4,6.8-13.6,7.9-21.4c1-7.7,0.3-15-2.2-21.6c-2.5-6.7-6.6-12.2-12.1-16.2c-5.5-4-12-6-19.3-6c-7.3,0-14.3,1.9-20.6,5.5
	c-6.2,3.6-11.5,8.7-15.6,15.1c-4.1,6.4-6.7,13.7-7.7,21.7C383.5,124.1,384.2,131.4,386.6,138"/>
<path id="Fill-17" class="st0" d="M565.6,108c1.7-4.5,4.5-7.9,8.3-10.1c3.9-2.3,7.8-3,11.8-1.9c3.1,0.8,5.7,2.4,8,4.8l-29.7,17.5
	C563.8,114.6,564.3,111.2,565.6,108 M559.8,155.6c5.4,4.1,11.5,6.2,18.3,6.3c6.7,0.1,13.5-2,20.4-6c6.5-3.8,12-9,16.4-15.3
	c3-4.4,6.2-9.3,6.8-14.4c0.8-6,0.3-9.7-0.5-15.4l-16.5,9.5c-0.7,4.5-2.3,7-4.7,10.4c-2.4,3.4-5.3,6.1-8.8,8.2
	c-4.6,2.7-8.9,3.4-13.2,2.2c-3.5-1-6.4-3.3-8.9-6.8l49.2-29.1l-1.1-2.7c-3.5-8.1-7.9-14.5-13.2-18.9c-5.4-4.6-11.5-7.1-18-7.5
	c-6.4-0.4-13.1,1.5-19.9,5.4c-6.1,3.6-11.2,8.6-15,14.8c-3.8,6.2-6.1,13.1-6.7,20.5c-0.7,7.4,0.4,14.8,3.2,21.8
	C550.4,145.8,554.5,151.5,559.8,155.6"/>
<path id="Fill-19" class="st0" d="M305.9,413.7c1.7-4.5,4.5-7.9,8.3-10.1c3.9-2.3,7.8-3,11.8-1.9c3.1,0.8,5.7,2.4,8,4.8L304.3,424
	C304.1,420.4,304.7,416.9,305.9,413.7L305.9,413.7z M345,426c-0.7,4.5-2.3,7-4.7,10.4c-2.4,3.4-5.3,6.1-8.8,8.2
	c-4.6,2.7-8.9,3.4-13.2,2.2c-3.5-1-6.4-3.3-8.9-6.8l49.2-29.1l-1.1-2.7c-3.5-8.1-7.9-14.5-13.2-18.9c-5.4-4.6-11.5-7.1-18-7.5
	c-6.4-0.4-13.1,1.5-19.9,5.4c-6.1,3.6-11.2,8.6-15,14.8c-3.8,6.2-6.1,13.1-6.7,20.5c-0.7,7.4,0.4,14.8,3.2,21.8
	c2.8,7.2,6.9,12.9,12.3,16.9c5.4,4.1,11.5,6.2,18.3,6.3c6.7,0.1,13.5-2,20.4-6c6.5-3.9,12-9,16.4-15.3c3-4.4,6.2-9.3,6.8-14.4
	c0.8-6,0.4-9.7-0.5-15.4L345,426z"/>
<polygon id="Fill-21" class="st0" points="504.9,160.1 543.2,77.1 522.4,77.1 500.9,123.8 491.8,77.1 470.2,77.1 486.8,160.1 "/>
<path id="Fill-23" class="st0" d="M186.3,206.9l0.6-1c0.6-0.8,1.1-1.4,1.6-1.9c3.3-3.5,7.3-5.1,12.8-5.1c1.3,0,2.8,0.1,4.4,0.3
	c1.1,0.1,2.1,0.2,3.2,0.4c0,0.1-0.1,0.2-0.2,0.3c-1.8,3.5-3.9,6.4-6.3,8.6c-1.2,1.1-2.5,2-3.9,2.8c-1.3,0.7-2.7,1.2-4.1,1.5
	c-2.6,0.6-5.4,0.3-7.3-0.8c-0.9-0.5-1.2-0.9-1.2-1c-0.1-0.1-0.3-0.8-0.2-1.6C185.8,208.6,186,207.6,186.3,206.9 M215.5,156.5
	L215.5,156.5c-2.2,1.4-4.6,2.1-7.1,2.1c-2.4,0-4.4-0.6-5.9-1.9c-1.6-1.3-2.8-3-3.4-5.2c-0.7-2.4-0.9-5-0.5-7.9
	c0.4-2.9,1.3-5.6,2.8-8.1c1.5-2.5,3.3-4.5,5.6-5.9c2.1-1.4,4.4-2.1,6.8-2.1c2.3,0,4.3,0.7,6,2c1.7,1.4,3,3.3,3.8,5.5
	c0.8,2.4,1,4.9,0.7,7.5c-0.4,2.9-1.3,5.6-2.8,8.1C219.7,153.1,217.8,155.1,215.5,156.5 M167.6,209.6c0.1,4.6,1.2,8.8,3.3,12.4
	c2.1,3.5,5.1,6.2,8.9,8.1c3.6,1.7,7.5,2.6,11.5,2.6c7.9,0,16-3.5,22.3-9.6c4-3.8,7.4-8.6,10.1-14.3c1.2-2.5,2.2-5.2,2.9-7.2
	c2.3,0.1,4.6,0,6.9-0.1c11.3-0.7,28.4-5.2,38.4-10.5l-8.6-16.9c-7.5,4.4-16.1,5.3-28.6,6.9c0.6-1.9,0.9-5.7,1.4-7.7l0.6-2.9
	c0.2-1.1,0.4-2.3,0.6-3.5l5.1-39.1h12.3l2.3-17.1h-28.7l-0.6,4.3c-1.2-1-2.4-1.8-3.7-2.5c-3.1-1.7-6.6-2.6-10.4-2.6
	c-5.2,0-10.2,1.5-14.8,4.6c-4.5,3-8.4,7-11.4,12c-3,5-5,10.5-5.7,16.3c-0.8,5.8-0.3,11.2,1.4,16.2c1.7,5,4.6,9.1,8.5,12.2
	c3.9,3.1,8.6,4.6,13.9,4.6c3.7,0,7.6-0.9,11.5-2.8c1-0.5,2-1,3-1.6c-0.7,2.3-1.2,7.2-2.3,10c0.2-0.6-10.6-2.3-11.5-2.4
	c-11.5-1.6-22.2,1.5-30.2,10.2c-0.9,1-1.9,2.2-2.9,3.5c-0.4,0.6-1.2,1.6-1.6,2.5c-0.6,1-1,1.9-1.4,2.8
	C168.3,201.6,167.6,205.5,167.6,209.6"/>
<path id="Fill-25" class="st0" d="M253.6,384.5c-6.1,0-12.5,2.2-19.3,6.4l0.7-5.5h-29.8l-2.6,19.9h10.8l-5.2,39.6h-11.5l-2.6,19.8
	H236l2.6-19.8h-11.3l4.3-32.7c8.9-6.5,13.9-7.9,16.5-7.9c1.6,0,2.6,0.4,2.9,1.1c0.3,0.6,0.9,2.5,0.2,7.7l-6.7,51.5h29.9l2.6-19.8
	h-10.8C268.1,429.9,279.8,384.5,253.6,384.5"/>
<defs>
	<filter id="Adobe_OpacityMaskFilter" filterUnits="userSpaceOnUse" x="77" y="356.5" width="110.5" height="121.9">
		<feColorMatrix  type="matrix" values="1 0 0 0 0  0 1 0 0 0  0 0 1 0 0  0 0 0 1 0"/>
	</filter>
</defs>
<mask maskUnits="userSpaceOnUse" x="77" y="356.5" width="110.5" height="121.9" id="mask-3_1_">
	<g class="st1">
		<polygon id="path-2_1_" class="st2" points="77,356.5 187.6,356.5 187.6,478.3 77,478.3 		"/>
	</g>
</mask>
<path id="Fill-27" class="st3" d="M161.3,417.8c-0.8,5.9-2.8,11.3-5.9,16.2c-3.1,4.8-7.1,8.7-11.8,11.5c-4.7,2.8-9.8,4.3-15.1,4.3
	c-5.5,0-10.4-1.5-14.5-4.4c-4.2-2.9-7.2-7-9.1-12c-1.8-5-2.4-10.5-1.6-16.4c0.8-6.1,2.8-11.6,5.8-16.5c3.1-4.8,7-8.7,11.7-11.4
	c4.7-2.7,9.9-4.1,15.4-4.1c5.4,0,10.3,1.5,14.4,4.5c4.1,3,7.1,7,9,12.1C161.5,406.5,162.1,412,161.3,417.8 M166.8,364.9
	c-7.7-5.6-16.8-8.4-27-8.4c-10.4,0-20.1,2.6-29,7.8c-8.9,5.2-16.3,12.4-22.1,21.4c-5.8,9.1-9.5,19.5-11,31
	c-1.5,11.1-0.5,21.5,3,30.8c3.5,9.5,9.2,17.1,17,22.6c7.7,5.5,16.9,8.3,27.3,8.3c10,0,19.6-2.7,28.5-8.1
	c8.9-5.3,16.3-12.6,22.3-21.7c6-9.1,9.7-19.4,11.2-30.4c1.4-10.9,0.4-21.2-3.2-30.6C180.2,378.1,174.5,370.5,166.8,364.9"/>
<polygon id="Fill-30" class="st0" points="529.5,333 546.6,198.7 514.9,198.2 511.7,221.6 523.4,222 509.2,332.7 "/>
<polygon id="Fill-32" class="st0" points="361.7,275.6 370.2,210.7 338.4,210.7 335.6,232.4 346.5,232.4 340.8,275.6 329.9,275.6 
	327.1,297.3 369.5,297.3 372.3,275.6 "/>
<path id="Fill-34" class="st0" d="M363.3,174.9c-3.1,0-6,1.3-8.5,3.8c-2.5,2.5-3.9,5.5-4.4,8.9c-0.5,3.7,0.3,6.9,2.3,9.7
	c2,2.7,4.8,4.2,8.1,4.2c3.1,0,6-1.3,8.5-3.7c2.5-2.5,4-5.5,4.5-9c0.5-3.8-0.3-7.1-2.3-9.8C369.5,176.3,366.7,174.9,363.3,174.9"/>
<path id="Fill-36" class="st0" d="M572.7,279.5c1.5-3.4,3.6-6.3,6.1-8.6c3.5-3.2,7.3-4.9,11.4-4.9c4.3,0,7.7,1.5,10.5,4.6
	c2.1,2.4,3.5,5.3,4.3,8.8H572.7z M621.3,269.3c-2.3-7.2-6.1-12.8-11.2-16.7c-5.1-3.9-11.4-5.8-18.7-5.8c-6.7,0-13.1,1.8-19,5.5
	c-6,3.6-11,8.8-15,15.2c-4,6.5-6.5,13.8-7.5,21.9c-1,8.2-0.3,15.7,2.1,22.3c2.5,6.7,6.5,12,12,15.8c5.4,3.7,11.9,5.5,19.3,5.5
	c7.1,0,14-1.8,20.4-5.2c4.5-2.4,9.3-5.2,12.2-9.5c3.4-5.2,4.8-8.8,6.7-14.5l-17.8-0.3c-2.7,3.8-5.2,5.2-8.6,7
	c-3.5,1.8-7.2,2.8-11,2.8c-5,0-8.8-1.7-11.8-5.2c-2.4-2.8-3.7-6.5-4.1-11.1H623l0.3-3.1C624.2,284.6,623.6,276.3,621.3,269.3
	L621.3,269.3z"/>
<path id="Fill-38" class="st0" d="M419.9,259.7h16.8l2.8-19.5h-16.8l4.2-29.1h-21.1l-4.2,29.1h-13.1l-2.9,19.5h13.2l-6.7,47
	c-1.4,9.4-0.6,16,2.4,20.1c3,4.1,8.4,6.3,16.2,6.3c3.5,0,8.1-0.2,13.8-1.8l1.3-0.4l2.7-20.7l-3.1,1c-2.9,1-5.8,1.5-8.6,1.5
	c-1.7,0-2.8-0.4-3.2-1.1c-0.2-0.4-0.8-2,0.1-7.9L419.9,259.7z"/>
<path id="Fill-40" class="st0" d="M447.8,259.7H461l-6.7,47c-1.3,9.4-0.6,16,2.4,20.1c3,4.1,8.4,6.3,16.2,6.3
	c3.5,0,8.1-0.2,13.8-1.8l1.3-0.4l2.7-20.7l-3.1,1c-2.9,1-5.8,1.5-8.6,1.5c-1.7,0-2.8-0.4-3.2-1.1c-0.2-0.4-0.8-2,0.1-7.9l6.3-43.8
	h16.8l2.8-19.5h-16.8l4.2-29.1H468l-4.2,29.1h-13.1L447.8,259.7z"/>
<polygon id="Fill-42" class="st0" points="318.6,197.3 294.1,197.3 274.6,332.5 273.9,338.9 279.4,338.9 279.4,339 363.7,339 
	366.8,313.8 301.9,313.8 "/>
<path id="Fill-44" class="st0" d="M564.7,358.8c-2.6,2.5-5,5.5-7.7,7.8c-6.9,5.7-15,9.9-23.7,12c-28.2,6.6-52.4,4.4-80.1-3.4
	c-13.2-3.7-26.9-7.1-40.5-5.3c-15.7,2-30.4,12.4-34.3,28.3c-0.2,0.7-0.3,1.3-0.4,2.1l-0.3,1.7c-0.3,2.4-0.8,5.6,0.3,9.7
	c1.8,6.2,6.7,9.9,11.7,12.9c3.4,2.1,7.3,3.5,10.9,4.8c2,0.7,4.2,1.5,6.2,2.4c3.7,1.6,6.1,2.9,5.6,6.3c-0.4,2.9-1.5,5-3.2,6.5
	c-1.7,1.4-4,2.2-6.9,2.2c-4.7,0-8.1-2.7-10.5-8.5l1.5-8.4h-18.1l-5.1,33.8h18.1l0.3-2.3c4.1,2.3,8.6,3.5,13.5,3.5
	c8,0,14.8-2.4,20.3-7c5.5-4.6,8.8-10.9,9.9-18.7c0.5-3.8,0.5-7.3,0-10.4c-0.7-3.6-2.6-7-5.8-10.1c-3.1-2.9-7.6-5.3-13.5-7
	c-8.3-2.4-14.8-9.4-6.3-16.8c15.8-13.7,41.3,2,58.4,5.4c31.7,6.3,66.8,3.9,96.1-10.3c15.6-7.6,32.7-22.6,36.1-40.7h-26.3
	C569.5,352.8,567.6,356,564.7,358.8"/>
</svg>
