<?xml version="1.0" encoding="UTF-8"?>
<svg width="624px" height="479px" viewBox="0 0 624 479" version="1.1" xmlns="http://www.w3.org/2000/svg" xmlns:xlink="http://www.w3.org/1999/xlink">
    <title>big-love</title>
    <defs>
        <filter id="filter-1">
            <feColorMatrix in="SourceGraphic" type="matrix" values="0 0 0 0 0.996078 0 0 0 0 0.996078 0 0 0 0 0.996078 0 0 0 1.000000 0"></feColorMatrix>
        </filter>
        <polygon id="path-2" points="2.8569516 2.72413839 113.386221 2.72413839 113.386221 124.606635 2.8569516 124.606635"></polygon>
    </defs>
    <g id="R4" stroke="none" stroke-width="1" fill="none" fill-rule="evenodd" opacity="0.45">
        <g id="D---Homepage---1440" transform="translate(-407.000000, -5703.000000)">
            <g id="big-love" transform="translate(-593.000000, 5044.000000)" filter="url(#filter-1)">
                <g transform="translate(1000.000000, 659.000000)">
                    <path d="M45.50931,318.391907 L42.6611583,339.922154 L91.2963147,339.922154 L94.1504,318.391907 L80.4496038,318.391907 C81.5710635,308.212732 83.1761156,294.399196 85.2439924,278.422845 L103.326789,278.422845 L106.732703,256.928201 L88.1336796,256.928201 C88.635073,253.359111 89.1513005,249.733651 89.6882957,246.051822 C90.7148171,238.970011 93.7469118,229.066751 102.309168,222.094713 C108.459395,217.08968 125.313926,215.075206 140.578239,215.40749 L145.233187,193.094002 C131.737101,192.444267 102.908466,192.646011 88.1307128,204.679452 C77.0763242,213.677831 69.7334332,227.221386 67.4638123,242.809082 C66.7666085,247.612372 66.0961062,252.323689 65.4612057,256.928201 L48.8440209,256.928201 L45.4470066,278.422845 L62.6011867,278.422845 C60.5273763,294.639509 58.9371583,308.479746 57.8602009,318.391907 L45.50931,318.391907 Z" id="Fill-1" fill="#D6002A"></path>
                    <path d="M165.514993,297.805408 C165.049202,301.344829 163.88324,304.658773 162.058643,307.646365 C160.242946,310.616156 157.913989,313.013351 155.140008,314.769711 C152.463932,316.469701 149.633581,317.333047 146.73796,317.333047 C143.91651,317.333047 141.507448,316.549806 139.371335,314.94772 C137.235221,313.342668 135.716207,311.215455 134.743088,308.43554 C133.731401,305.563654 133.443619,302.406953 133.894576,299.04554 C134.354434,295.58919 135.532264,292.307882 137.392463,289.278754 C139.255628,286.252592 141.614254,283.816829 144.403069,282.039701 C147.082112,280.32191 149.906529,279.449664 152.796216,279.449664 C155.620633,279.449664 158.089031,280.26554 160.139107,281.876526 C162.227752,283.523114 163.7616,285.739332 164.708017,288.45991 C165.687069,291.290261 165.95705,294.438062 165.514993,297.805408 M172.869752,263.319038 C167.677809,259.545237 161.548349,257.628668 154.653448,257.628668 C147.699211,257.628668 141.151429,259.379095 135.199979,262.838412 C129.278197,266.282896 124.308766,271.103986 120.448927,277.168175 C116.597989,283.217531 114.129591,290.156934 113.11197,297.805408 C112.126984,305.246204 112.791553,312.18264 115.096775,318.424839 C117.443534,324.809445 121.306339,329.936118 126.569486,333.656517 C131.794064,337.350213 137.988794,339.22228 144.987534,339.22228 C151.692557,339.22228 158.1187,337.403616 164.093884,333.819692 C170.006766,330.274336 175.002899,325.399844 178.957676,319.323787 C182.927287,313.221028 185.440188,306.397332 186.413306,299.04554 C187.380491,291.723417 186.668453,284.83445 184.294993,278.57445 C181.894832,272.231379 178.052794,267.098773 172.869752,263.319038" id="Fill-3" fill="#D6002A"></path>
                    <path d="M240.916842,319.072793 L226.521809,319.072793 L228.165429,306.665533 C229.153382,299.22177 230.429117,293.510632 231.954064,289.695296 C233.306936,286.32795 235.43415,283.880319 238.463278,282.20703 C241.697117,280.426936 246.625012,279.522054 253.119391,279.522054 L258.797894,279.522054 L261.699448,257.629855 L254.923221,257.629855 C247.108605,257.629855 240.741799,259.080632 236.009714,261.946585 C234.283022,262.996841 232.597865,264.337845 230.983913,265.957732 L231.957031,258.60594 L201.710254,258.60594 L199.034178,278.82485 L212.298851,278.82485 L206.967467,319.072793 L193.696861,319.072793 L191.032652,339.223466 L238.249666,339.223466 L240.916842,319.072793 Z" id="Fill-5" fill="#D6002A"></path>
                    <polygon id="Fill-7" fill="#D6002A" points="169.478374 154.637131 160.278251 154.637131 167.606308 98.6264483 140.175047 98.6264483 137.727417 117.356012 147.158953 117.356012 142.278526 154.637131 132.846991 154.637131 130.405294 173.304391 167.036678 173.304391"></polygon>
                    <path d="M159.552269,90.6100882 C162.249113,90.6100882 164.723445,89.5271972 166.907027,87.3851498 C169.087644,85.2549697 170.39008,82.6471308 170.7817,79.6387706 C171.214857,76.3574626 170.535454,73.5152445 168.77316,71.1951877 C167.001966,68.8632635 164.610705,67.6824673 161.664648,67.6824673 C158.958904,67.6824673 156.49644,68.7772256 154.345492,70.9341071 C152.218279,73.0642872 150.945511,75.6602588 150.55389,78.6567517 C150.138535,81.831254 150.80607,84.6349033 152.538696,86.9875953 C154.280222,89.3580882 156.704118,90.6100882 159.552269,90.6100882" id="Fill-9" fill="#D6002A"></path>
                    <path d="M99.0877896,64.572345 C102.526339,67.313691 103.802074,71.3634066 102.98323,76.9558711 C101.1616,89.3126957 92.6290123,95.3205156 76.8781403,95.3205156 L65.6071735,95.3205156 L70.7635147,60.2704493 L82.3341308,60.2704493 C89.8639318,60.2704493 95.5008986,61.7152929 99.0877896,64.572345 L99.0877896,64.572345 Z M96.0705289,119.820554 C100.224083,123.033625 101.760899,127.845814 100.781846,134.536004 C99.8858654,140.617994 97.7467848,145.192838 94.4239412,148.132961 C91.026927,151.141321 86.8377706,153.120193 81.9721782,154.016174 C76.9048417,154.953691 70.4341972,155.425416 62.738254,155.425416 L56.7749365,155.425416 L62.7471545,114.809587 L73.9676853,114.809587 C84.3397043,114.809587 91.7716,116.494743 96.0705289,119.820554 L96.0705289,119.820554 Z M62.0736853,175.003492 C80.5125005,175.003492 95.0914768,171.621312 105.404159,164.957824 C115.856282,158.199397 122.116282,148.2368 124.00615,135.351881 C125.172112,127.430459 124.109989,120.458421 120.843515,114.62861 C118.081401,109.688847 113.81214,105.805274 108.142538,103.072828 C112.536406,100.598497 116.227136,97.3349896 119.11979,93.3564777 C122.677012,88.4671507 124.955534,82.7530464 125.89305,76.3773403 C127.655344,64.4002692 124.798292,55.3247526 117.396064,49.397037 C110.186681,43.6235962 98.2926806,40.6953403 82.0404152,40.6953403 L34.5474863,40.6953403 L31.6726332,60.2704493 L47.8536948,60.2704493 L34.078728,153.983539 C33.8502825,153.986506 33.6099697,153.99244 33.384491,153.995407 L33.096709,154.00134 C22.7573251,154.214952 12.9935052,154.416696 3.12881327,153.704658 L1.52376114,153.591918 L0.00178009479,174.71571 L1.61276588,174.834383 C6.79284171,175.205236 12.2458654,175.377312 18.7817801,175.377312 C23.7304436,175.377312 28.6672398,175.27644 33.621837,175.175568 C37.3541024,175.09843 41.1724057,175.030193 44.9610408,175.003492 L62.0736853,175.003492 Z" id="Fill-11" fill="#D6002A"></path>
                    <path d="M320.473431,37.266581 C327.59381,26.3367991 340.131611,21.5750455 350.263318,21.5750455 C354.918265,21.5750455 359.068853,22.5807991 361.946673,24.4558322 C363.587327,25.5238891 368.589393,28.7814626 360.748076,40.8327043 C349.883564,57.5388938 328.448256,65.6887611 309.398275,69.6554057 C311.148701,57.9542493 313.581498,47.8462777 320.473431,37.266581 M281.314313,94.8229791 C282.177659,94.7873773 283.061773,94.7428749 283.966654,94.6924389 C283.002436,100.795197 282.067886,106.906856 281.133336,113.012581 C279.575754,123.212524 277.961801,133.756619 276.229175,144.069301 L274.13163,156.556666 L286.797005,156.663472 C297.878095,156.75841 313.320417,156.826647 329.175128,156.897851 C342.858123,156.957188 356.808133,157.022458 368.544891,157.102562 L371.654123,135.507045 C359.329934,135.418041 344.139791,135.349804 329.270066,135.281567 C318.812009,135.234098 308.540863,135.189595 299.584019,135.139159 C300.589773,128.799055 301.551024,122.476752 302.500408,116.279055 C303.722739,108.274562 304.951005,100.267102 306.24454,92.2685431 C332.014379,88.0289507 362.617175,77.6035289 378.869441,52.6169318 C382.815318,46.555709 385.028569,40.9335763 386.001687,35.7831687 L386.455611,32.6294341 C387.574104,20.4535858 381.400142,11.3306 373.739801,6.34336777 C354.618616,-6.11136209 319.2689,-0.474395261 302.363934,25.4645526 C291.763469,41.7316521 289.244635,56.9188275 287.135223,72.8061735 C284.613422,73.0079175 282.331934,73.1414246 280.353062,73.2333962 C269.022758,73.7377564 256.754938,73.5597469 244.89654,73.3936047 C242.01872,73.3520692 239.152768,73.3105336 236.31055,73.2808654 L233.204284,94.8734152 C236.963251,94.9030834 240.751886,94.9505526 244.587991,95.0039555 C256.763839,95.1819649 269.358009,95.3659081 281.314313,94.8229791" id="Fill-13" fill="#D6002A"></path>
                    <path d="M407.305268,117.6969 C407.774027,114.169346 408.975591,110.813867 410.877325,107.72837 C412.77906,104.642872 415.179221,102.15964 418.009572,100.34691 C420.718282,98.6172512 423.563467,97.7390711 426.465022,97.7390711 C429.286472,97.7390711 431.748936,98.551981 433.781211,100.148133 C435.878756,101.800654 437.418538,104.025773 438.367922,106.758218 C439.364775,109.641972 439.64069,112.837242 439.186766,116.257991 C438.709107,119.868616 437.51941,123.247829 435.656245,126.303659 C433.816813,129.326853 431.44632,131.765583 428.621903,133.557545 C425.910226,135.269403 423.062074,136.138682 420.151619,136.138682 C417.327202,136.138682 414.921107,135.361374 412.805761,133.76819 C410.65778,132.154237 409.138766,130.018123 408.162681,127.232275 C407.133192,124.315886 406.851344,121.105782 407.305268,117.6969 M386.638368,138.025583 C389.124567,144.786976 393.215818,150.216265 398.802349,154.162142 C404.34141,158.081318 410.90996,160.06909 418.324055,160.06909 C425.414766,160.06909 432.214728,158.146588 438.528131,154.354986 C444.764396,150.619754 450.042377,145.47528 454.2167,139.066938 C458.396955,132.640796 461.040396,125.449213 462.072851,117.693934 C463.090472,109.965355 462.336899,102.690701 459.832899,96.0835829 C457.29033,89.3637251 453.21688,83.9255355 447.725287,79.9232891 C442.215894,75.915109 435.712614,73.8798673 428.402358,73.8798673 C421.053534,73.8798673 414.134899,75.7341327 407.842264,79.3892607 C401.594131,83.020654 396.351752,88.1087583 392.269401,94.5141327 C388.216718,100.872038 385.61778,108.185261 384.537856,116.257991 C383.499467,124.093374 384.205572,131.418464 386.638368,138.025583" id="Fill-15" fill="#D6002A"></path>
                    <path d="M565.593077,107.956222 C567.328669,103.437748 570.105617,100.0259 573.843816,97.818582 C577.762991,95.5044588 581.625797,94.8665915 585.654745,95.872345 C588.713541,96.6407526 591.339181,98.2309706 593.626603,100.714203 L563.940555,118.248136 C563.798148,114.646411 564.349977,111.195994 565.593077,107.956222 M559.849304,155.588591 C565.228157,159.685776 571.396186,161.792222 578.187247,161.851558 C584.853702,161.901994 591.7041,159.87862 598.542631,155.837805 C605.060745,151.989833 610.576072,146.830525 614.937304,140.508222 C617.972366,136.105454 621.111266,131.198326 621.749134,126.136923 C622.511608,120.087568 622.096252,116.408705 621.250707,110.748004 L604.713627,120.224042 C604.007522,124.754383 602.375769,127.273217 600.034944,130.625729 C597.682252,134.001975 594.715427,136.758155 591.220508,138.823065 C586.62193,141.53771 582.299266,142.252715 578.012205,141.000715 C574.517285,139.980127 571.600897,137.746108 569.135465,134.191852 L618.346186,105.125871 L617.203958,102.452762 C613.73574,94.3562976 609.294404,87.9865251 604.016423,83.5244209 C598.593067,78.9406768 592.543712,76.4277763 586.037465,76.0480227 C579.593522,75.671236 572.909266,77.4988 566.15974,81.4832455 C560.042148,85.0998047 555.00448,90.0811033 551.183209,96.2936341 C547.37974,102.491331 545.110119,109.389198 544.43665,116.794392 C543.757247,124.211454 544.819371,131.560279 547.596318,138.642089 C550.420736,145.845539 554.544622,151.547776 559.849304,155.588591" id="Fill-17" fill="#D6002A"></path>
                    <path d="M305.906026,413.704116 C307.641618,409.185642 310.418566,405.773793 314.156765,403.566476 C318.07594,401.252353 321.938746,400.614485 325.970661,401.623206 C329.029457,402.388646 331.65213,403.978864 333.942518,406.462097 L304.253504,423.998997 C304.10813,420.397272 304.662926,416.943888 305.906026,413.704116 L305.906026,413.704116 Z M345.029542,425.971936 C344.320471,430.505244 342.688718,433.021111 340.347893,436.373623 C337.995201,439.749869 335.028376,442.509016 331.533457,444.573926 C326.934879,447.288571 322.615182,448.000609 318.325154,446.748609 C314.830234,445.728021 311.913845,443.494002 309.448414,439.939746 L358.662101,410.873765 L357.516907,408.200656 C354.048689,400.104191 349.610319,393.737386 344.332338,389.272315 C338.906016,384.691537 332.856661,382.17567 326.353381,381.795917 C319.909438,381.41913 313.222215,383.246694 306.475656,387.231139 C300.355097,390.847699 295.317428,395.831964 291.499125,402.044495 C287.695656,408.239225 285.423068,415.137092 284.749599,422.542286 C284.070196,429.959348 285.132319,437.311139 287.909267,444.389983 C290.733684,451.5964 294.857571,457.298637 300.162253,461.336485 C305.541106,465.436637 311.709135,467.543082 318.500196,467.599452 C325.166651,467.649888 332.020016,465.626514 338.85558,461.588665 C345.376661,457.737727 350.891988,452.578419 355.250253,446.256116 C358.285315,441.853348 361.424215,436.949187 362.062082,431.887784 C362.824556,425.838428 362.412168,422.159566 361.563656,416.495898 L345.029542,425.971936 Z" id="Fill-19" fill="#D6002A"></path>
                    <polygon id="Fill-21" fill="#D6002A" points="504.917953 160.0682 543.240427 77.1217166 522.442986 77.1217166 500.85637 123.819536 491.766019 77.1217166 470.185336 77.1217166 486.766919 160.0682"></polygon>
                    <path d="M186.334982,206.879649 L186.952082,205.882796 C187.566214,205.105488 188.082442,204.509156 188.601636,203.978095 C191.918546,200.471308 195.87629,198.907791 201.427219,198.907791 C202.765257,198.907791 204.198233,198.996796 205.812186,199.180739 C206.865409,199.284578 207.951266,199.424019 209.040091,199.581261 C208.992622,199.682133 208.936252,199.785972 208.885816,199.886844 C207.114622,203.399564 204.984442,206.286284 202.560546,208.475801 C201.347115,209.576493 200.029845,210.516976 198.650271,211.273517 C197.3152,211.997422 195.950461,212.510682 194.582755,212.801431 C191.98975,213.388863 189.230603,213.098114 187.24283,212.038957 C186.385418,211.585033 186.0561,211.122209 186.029399,211.086607 C185.955228,210.944199 185.759418,210.291498 185.780186,209.440019 C185.789086,208.609308 186.017532,207.567953 186.334982,206.879649 M215.4781,156.517801 L215.4781,156.517801 C213.270783,157.927043 210.885456,158.645014 208.378489,158.645014 C206.019864,158.645014 204.017257,158.010114 202.430006,156.761081 C200.810119,155.482379 199.679759,153.779422 198.982555,151.55727 C198.240849,149.192711 198.056906,146.519602 198.43666,143.615081 C198.813446,140.734294 199.756897,137.998882 201.240309,135.491915 C202.711854,133.014616 204.580954,131.017943 206.803105,129.561232 C208.948119,128.163858 211.235541,127.454787 213.594167,127.454787 C215.934991,127.454787 217.884195,128.113422 219.551551,129.469261 C221.260442,130.860701 222.524309,132.7209 223.301617,135.002389 C224.108593,137.381782 224.348906,139.897649 224.007721,142.48472 C223.633901,145.350673 222.681551,148.077185 221.174404,150.584152 C219.676157,153.067384 217.762555,155.064057 215.4781,156.517801 M167.614318,209.555725 C167.694423,214.183972 168.809949,218.361261 170.937162,221.97782 C173.019873,225.443071 176.016366,228.17255 179.85247,230.089118 C183.48683,231.821744 187.346669,232.699924 191.322214,232.699924 C199.190233,232.699924 207.304499,229.193137 213.585266,223.090379 C217.587513,219.272076 220.978593,214.47472 223.654669,208.828853 C224.879968,206.286284 225.882755,203.589441 226.559191,201.607602 C228.864413,201.672872 231.196337,201.634303 233.43629,201.491896 C244.707257,200.770957 261.85847,196.31182 271.788432,190.956701 L263.217276,174.022066 C255.731977,178.46637 247.110385,179.273346 234.608186,180.925867 C235.174849,178.985564 235.530868,175.229564 235.964025,173.209156 L236.584091,170.334303 C236.803636,169.195043 237.008347,168.043915 237.168555,166.836417 L242.277427,127.775204 L254.527446,127.775204 L256.817835,110.653659 L228.078205,110.653659 L227.514508,114.982256 C226.315911,114.000237 225.078745,113.160626 223.823778,112.475289 C220.690811,110.769365 217.175124,109.903052 213.374622,109.903052 C208.185645,109.903052 203.207314,111.445801 198.570167,114.486796 C194.033892,117.465488 190.191854,121.503336 187.159759,126.499469 C184.127664,131.501536 182.205162,136.987194 181.442688,142.802171 C180.686148,148.596379 181.16084,154.031602 182.857864,158.959498 C184.593456,163.985299 187.438641,168.07655 191.310347,171.126445 C195.223589,174.206009 199.902271,175.766559 205.221788,175.766559 C208.954053,175.766559 212.840593,174.843877 216.768669,173.016313 C217.798157,172.538654 218.800944,172.007592 219.774063,171.426095 C219.109494,173.725384 218.539864,178.623611 217.489608,181.427261 C217.715086,180.824995 206.850574,179.119071 205.954593,178.994464 C194.50265,177.41018 183.724176,180.525346 175.752318,189.158806 C174.805901,190.185327 173.865418,191.330521 172.871532,192.668559 C172.459143,193.226322 171.696669,194.291412 171.242745,195.145858 C170.682015,196.098209 170.251826,197.038692 169.863172,197.925773 C168.329323,201.607602 167.57575,205.520844 167.614318,209.555725" id="Fill-23" fill="#D6002A"></path>
                    <path d="M253.635916,384.454488 C247.565792,384.454488 241.101082,386.61137 234.37529,390.865796 L235.084361,385.412773 L205.279641,385.412773 L202.680702,405.281597 L213.471044,405.281597 L208.296901,444.835303 L196.776721,444.835303 L194.18965,464.632924 L236.004077,464.632924 L238.594115,444.835303 L227.317214,444.835303 L231.595375,412.102327 C240.534418,405.628716 245.489015,404.252109 248.087954,404.252109 C249.660371,404.252109 250.645356,404.640763 251.013243,405.397303 C251.301025,405.987701 251.891423,407.919104 251.214987,413.087313 L244.477328,464.632924 L274.409622,464.632924 L276.996693,444.835303 L266.147015,444.835303 C268.099186,429.87954 279.785508,384.451521 253.635916,384.454488" id="Fill-25" fill="#D6002A"></path>
                    <g id="Group-29" transform="translate(74.170616, 353.740436)">
                        <mask id="mask-3" fill="white">
                            <use xlink:href="#path-2"></use>
                        </mask>
                        <g id="Clip-28"></g>
                        <path d="M87.1519573,64.0721384 C86.3746493,69.9316171 84.3750095,75.3668398 81.2123744,80.2264986 C78.0675403,85.0624227 74.0890284,88.9430294 69.3836445,91.7615128 C64.6515592,94.6037308 59.5604882,96.0456076 54.2558057,96.0456076 C48.7286114,96.0456076 43.8392844,94.5710957 39.7302322,91.6606408 C35.5796445,88.729418 32.5327156,84.685636 30.6784502,79.6450009 C28.8538531,74.6904038 28.3257583,69.1780436 29.109,63.2592284 C29.9189431,57.1564701 31.8859479,51.6233422 34.9536445,46.8081858 C38.0243081,41.9841289 41.9701848,38.1509915 46.6785355,35.4126123 C51.3957867,32.6742332 56.584763,31.2857592 62.0971232,31.2857592 C67.5382796,31.2857592 72.3682701,32.7929062 76.4535877,35.7656645 C80.5389052,38.7473232 83.5769336,42.8000057 85.4757014,47.8169062 C87.3566682,52.7833706 87.9203649,58.2541953 87.1519573,64.0721384 M92.6257488,11.155854 C84.9327725,5.56042275 75.8424218,2.72413839 65.6068768,2.72413839 C55.2289242,2.72413839 45.4651043,5.3379109 36.5853981,10.4942521 C27.7264597,15.6446597 20.3034645,22.8570104 14.5181564,31.9354938 C8.74471564,41.00211 5.04508531,51.4186313 3.52013744,62.8972758 C2.04265877,74.0406692 3.03654502,84.415655 6.47509479,93.7403848 C9.96111374,103.225323 15.6959858,110.838195 23.5106019,116.356489 C31.2451137,121.830281 40.4422701,124.607228 50.8469242,124.607228 C60.8332559,124.607228 70.4101659,121.895551 79.3165735,116.546366 C88.172545,111.238717 95.6637773,103.937361 101.579626,94.8351431 C107.537009,85.6854559 111.298943,75.4588114 112.758621,64.4311242 C114.206431,53.4835412 113.147275,43.1886597 109.601919,33.8342616 C106.029863,24.3967924 100.315758,16.7661194 92.6257488,11.155854" id="Fill-27" fill="#D6002A" mask="url(#mask-3)"></path>
                    </g>
                    <polygon id="Fill-30" fill="#D6002A" points="529.539037 333.017463 546.550809 198.688543 514.862155 198.225718 511.678753 221.598363 523.448146 221.97515 509.207388 332.741548"></polygon>
                    <polygon id="Fill-32" fill="#D6002A" points="361.681736 275.631064 370.169821 210.749575 338.392162 210.749575 335.558845 232.445964 346.482693 232.445964 340.830892 275.631064 329.907044 275.631064 327.076693 297.253282 369.508219 297.253282 372.33857 275.631064"></polygon>
                    <path d="M363.286788,174.903807 C360.150854,174.903807 357.293802,176.170641 354.81057,178.668707 C352.345138,181.137105 350.86766,184.145465 350.413736,187.613683 C349.936077,191.292546 350.707451,194.541219 352.715991,197.267731 C354.730465,200.012044 357.540048,201.462821 360.842124,201.462821 C363.966191,201.462821 366.832143,200.204887 369.359878,197.724622 C371.884645,195.259191 373.391792,192.238963 373.848683,188.752944 C374.34711,184.952442 373.560901,181.659266 371.519726,178.971323 C369.466683,176.271513 366.698636,174.903807 363.286788,174.903807" id="Fill-34" fill="#D6002A"></path>
                    <path d="M572.685568,279.488826 C574.231283,276.088845 576.278392,273.202124 578.788326,270.893935 C582.289179,267.671963 586.125283,266.037243 590.186866,266.037243 C594.44426,266.037243 597.882809,267.556257 600.695359,270.677356 C602.83444,273.053783 604.231814,275.949404 604.949786,279.488826 L572.685568,279.488826 Z M621.347426,269.291849 C619.051103,262.109167 615.28917,256.492968 610.174364,252.597527 C605.107027,248.740655 598.820326,246.785518 591.489302,246.785518 C584.837682,246.785518 578.432307,248.633849 572.454155,252.28601 C566.496772,255.932238 561.459103,261.055944 557.486525,267.517688 C553.505046,273.9913 550.974345,281.349025 549.959691,289.392086 C548.927236,297.580522 549.645208,305.086589 552.098772,311.702608 C554.57607,318.416532 558.622819,323.721214 564.120345,327.471281 C569.5259,331.15311 576.032146,333.016276 583.464042,333.016276 C590.548819,333.016276 597.422952,331.265849 603.890629,327.809499 C608.397236,325.400437 613.215359,322.58492 616.075378,318.262257 C619.490193,313.099982 620.854933,309.480456 622.783369,303.793053 L604.949786,303.526039 C602.279644,307.320608 599.787511,308.756551 596.334127,310.572247 C592.859975,312.405745 589.172212,313.331394 585.368743,313.331394 C580.375577,313.331394 576.527606,311.634371 573.617151,308.142418 C571.246658,305.297233 569.905653,301.648039 569.5437,297.028693 L623.023682,297.028693 L623.326298,293.940228 C624.246013,284.57693 623.578478,276.284655 621.347426,269.291849 L621.347426,269.291849 Z" id="Fill-36" fill="#D6002A"></path>
                    <path d="M419.882528,259.701589 L436.680689,259.701589 L439.475438,240.215484 L422.671343,240.215484 L426.854566,211.099067 L405.739675,211.099067 L401.559419,240.215484 L388.43122,240.215484 L385.574168,259.701589 L398.770604,259.701589 L392.024045,306.675323 C390.671173,316.106859 391.442547,322.675409 394.385637,326.76666 C397.355428,330.914281 402.793618,333.017759 410.548898,333.017759 C414.011182,333.017759 418.657229,332.818982 424.362433,331.202063 L425.709372,330.822309 L428.400282,310.128707 L425.329618,311.149295 C422.398395,312.128347 419.502774,312.62084 416.73176,312.62084 C415.037703,312.62084 413.960746,312.241086 413.530556,311.487513 C413.328812,311.137427 412.729514,309.508641 413.586926,303.54829 L419.882528,259.701589 Z" id="Fill-38" fill="#D6002A"></path>
                    <path d="M447.835653,259.701589 L461.029122,259.701589 L454.28553,306.675323 C452.935625,316.106859 453.706999,322.675409 456.647122,326.76666 C459.619881,330.914281 465.05807,333.017759 472.810383,333.017759 C476.2697,333.017759 480.918715,332.818982 486.623918,331.202063 L487.96789,330.822309 L490.661767,310.128707 L487.591103,311.149295 C484.656914,312.128347 481.767227,312.62084 478.990279,312.62084 C477.302155,312.62084 476.222231,312.241086 475.792042,311.487513 C475.587331,311.137427 474.990999,309.508641 475.848411,303.54829 L482.144013,259.701589 L498.945141,259.701589 L501.736923,240.215484 L484.935795,240.215484 L489.116051,211.099067 L468.004127,211.099067 L463.823871,240.215484 L450.695672,240.215484 L447.835653,259.701589 Z" id="Fill-40" fill="#D6002A"></path>
                    <polygon id="Fill-42" fill="#D6002A" points="318.633703 197.347538 294.056528 197.347538 274.600092 332.548704 273.893988 338.853207 279.436016 338.853207 279.415248 338.951112 363.720537 338.951112 366.811969 313.845842 301.871144 313.845842"></polygon>
                    <path d="M564.674548,358.752886 C562.069676,361.245019 559.699183,364.208877 556.937069,366.520033 C550.071837,372.257872 541.913069,376.452962 533.196538,378.494137 C504.993903,385.092355 480.820216,382.923607 453.098207,375.132725 C439.907704,371.424194 426.227676,368.047948 412.642586,369.801341 C396.983685,371.821749 382.286036,382.223436 378.387628,398.069246 C378.224453,398.730848 378.079079,399.416185 377.951505,400.125256 L377.672624,401.83118 C377.331439,404.186839 376.862681,407.414744 377.97524,411.511929 C379.779069,417.748194 384.67433,421.412223 389.694197,424.435417 C393.138681,426.518128 396.954017,427.906602 400.64178,429.24464 C402.679989,429.989313 404.792368,430.75772 406.794974,431.627 C410.518339,433.246886 412.924434,434.558223 412.440842,437.887 C412.025486,440.749986 410.948529,442.936536 409.239638,444.384346 C407.551515,445.814355 405.213657,446.541227 402.300235,446.541227 C397.580017,446.541227 394.224538,443.844384 391.759107,438.067976 L393.269221,429.621427 L375.130055,429.621427 L370.015249,463.395758 L388.133647,463.395758 L388.457031,461.138005 C392.515647,463.458062 397.048955,464.632924 401.947183,464.632924 C409.933875,464.632924 416.766472,462.277265 422.252131,457.622318 C427.725922,452.991104 431.057666,446.70737 432.161325,438.946156 C432.707221,435.169389 432.695354,431.659635 432.12869,428.514801 C431.475989,424.901209 429.523818,421.516062 426.325581,418.454299 C423.248984,415.520109 418.703809,413.182251 412.808728,411.503028 C404.537221,409.144403 397.977572,402.133796 406.459723,394.752336 C422.216529,381.039673 447.805391,396.751976 464.831998,400.14009 C496.493951,406.438659 531.647856,404.083 560.933382,389.842242 C576.544813,382.247171 593.624823,367.291408 597.027771,349.18191 L570.715003,349.18191 C569.477837,352.756934 567.579069,355.972972 564.674548,358.752886" id="Fill-44" fill="#D6002A"></path>
                </g>
            </g>
        </g>
    </g>
</svg>