<svg xmlns="http://www.w3.org/2000/svg" id="圖層_1" data-name="圖層 1" viewBox="0 0 80 43"><defs><style>.cls-1,.cls-2{fill:none}.cls-2{clip-rule:evenodd}.cls-3{clip-path:url(#clip-path)}</style><clipPath id="clip-path"><path d="M-458-186.92h375v300h-375z" class="cls-1"/></clipPath><clipPath id="clip-path-2"><path d="M-458-665.92h375v5598h-375z" class="cls-1"/></clipPath><clipPath id="clip-path-3"><path d="M-459-574.92H75v688h-534z" class="cls-1"/></clipPath><clipPath id="clip-path-4"><path d="M-458.23 112.75v-679.13l15.36-.46 15.09-.44 14.8-.42 14.53-.41q331-9.07 369.57 1.73c19.76 5.54 38.6 79.16 53.32 144.38l1.48 6.6 1.46 6.53 1.42 6.43 4.74 21.51 1.28 5.79c5.48 24.68 10 43.94 13.29 51.26a319.21 319.21 0 0 1 21 66.1 7.78 7.78 0 0 0-.21 2.82c5.15 39.83-12.75 132.12-55.27 194.84C-36.15 13.34-83.57 48.17-261 48.86h-5.42q-119.4.01-191.81 63.89z" class="cls-2"/></clipPath><clipPath id="clip-path-6"><path d="M40 0a40 40 0 0 1 40 40c0 1 0 2-.11 3H.11C0 42 0 41 0 40A40 40 0 0 1 40 0z" class="cls-2"/></clipPath><clipPath id="clip-path-7"><path d="M40.75 19v.05L53.47 31.7a1 1 0 0 1 .09 1.3l-.09.1a1 1 0 0 1-1.41 0l-12-12-12 12a1 1 0 0 1-1.41 0 1 1 0 0 1 0-1.42L39.28 19v-.06a1 1 0 0 1 .65-.29h.12a1 1 0 0 1 .7.35z" class="cls-2"/></clipPath></defs><g clip-path="url(#clip-path-2)"><g clip-path="url(#clip-path-3)"><g clip-path="url(#clip-path-4)"><path fill="#eb6851" d="M-463.23-577.25h538v695h-538z"/></g></g></g><g clip-path="url(#clip-path-6)"><path fill="#db0032" d="M-5-5h90v53H-5z"/></g><g clip-path="url(#clip-path-7)"><path fill="#fefefe" d="M21.32 13.68h37.45v24.73H21.32z"/></g></svg>