<svg xmlns="http://www.w3.org/2000/svg" data-name="圖層 1" viewBox="0 0 66 57"><path fill="#ffdb00" fill-rule="evenodd" d="M66 18.16C65.85 9.51 59.19.14 49.49 0h-.24a18.24 18.24 0 0 0-10.14 3.27 32 32 0 0 0-4 3.21l-.11.14c-.6.55-1.41 1.31-1.9 1.31h-.16c-.46 0-1.28-.76-1.88-1.31l-.16-.15a32 32 0 0 0-4-3.2A18.24 18.24 0 0 0 16.75 0h-.24C6.82.14.15 9.51 0 18.16a30.56 30.56 0 0 0 2.89 13.39c3.64 7.89 10.71 15.17 21 21.64 2.75 1.72 5.49 3.31 8.67 3.75h.13A2 2 0 0 0 33 57a2.62 2.62 0 0 0 .57-.07c3.12-.46 5.8-2 8.51-3.72 10.29-6.47 17.36-13.75 21-21.64A30.56 30.56 0 0 0 66 18.16"/></svg>