<svg id="圖層_1" data-name="圖層 1" xmlns="http://www.w3.org/2000/svg" xmlns:xlink="http://www.w3.org/1999/xlink" viewBox="0 0 80 43"><defs><style>.cls-1,.cls-2{fill:none;}.cls-2{clip-rule:evenodd;}.cls-3{clip-path:url(#clip-path);}.cls-4{clip-path:url(#clip-path-2);}.cls-5{isolation:isolate;}.cls-6{clip-path:url(#clip-path-3);}.cls-7{clip-path:url(#clip-path-4);}.cls-8{fill:#eb6851;}.cls-9{clip-path:url(#clip-path-6);}.cls-10{fill:#db0032;}.cls-11{clip-path:url(#clip-path-7);}.cls-12{fill:#fefefe;}</style><clipPath id="clip-path"><rect class="cls-1" x="-458" y="-186.92" width="375" height="300"/></clipPath><clipPath id="clip-path-2"><rect class="cls-1" x="-458" y="-665.92" width="375" height="5598"/></clipPath><clipPath id="clip-path-3"><rect class="cls-1" x="-459" y="-574.92" width="534" height="688"/></clipPath><clipPath id="clip-path-4"><path class="cls-2" d="M-458.23,112.75V-566.38l15.36-.46,15.09-.44,14.8-.42,14.53-.41q331-9.07,369.57,1.73C-9.12-560.84,9.72-487.22,24.44-422l1.48,6.6,1.46,6.53,1.42,6.43,4.74,21.51,1.28,5.79c5.48,24.68,10,43.94,13.29,51.26a319.21,319.21,0,0,1,21,66.1h0a7.78,7.78,0,0,0-.21,2.82c5.15,39.83-12.75,132.12-55.27,194.84C-36.15,13.34-83.57,48.17-261,48.86h-5.42Q-385.82,48.87-458.23,112.75Z"/></clipPath><clipPath id="clip-path-6"><path class="cls-2" d="M40,0A40,40,0,0,1,80,40c0,1,0,2-.11,3H.11C0,42,0,41,0,40A40,40,0,0,1,40,0Z"/></clipPath><clipPath id="clip-path-7"><path class="cls-2" d="M40.75,19l0,.05L53.47,31.7A1,1,0,0,1,53.56,33l-.09.1a1,1,0,0,1-1.41,0l-12-12-12,12a1,1,0,0,1-1.41,0,1,1,0,0,1,0-1.42L39.28,19l0-.06a1,1,0,0,1,.65-.29h.12A1,1,0,0,1,40.75,19Z"/></clipPath></defs><g class="cls-3"><g class="cls-4"><g class="cls-5"><g class="cls-6"><g class="cls-7"><g class="cls-3"><rect class="cls-8" x="-463.23" y="-577.25" width="538" height="695"/></g></g></g></g></g></g><g class="cls-9"><rect class="cls-10" x="-5" y="-5" width="90" height="53"/></g><g class="cls-11"><rect class="cls-12" x="21.32" y="13.68" width="37.45" height="24.73"/></g></svg>