<?xml version="1.0" encoding="UTF-8"?>
<svg width="525px" height="477px" viewBox="0 0 525 477" version="1.1" xmlns="http://www.w3.org/2000/svg" xmlns:xlink="http://www.w3.org/1999/xlink">
    <title>bulbs-left-hover</title>
    <g id="R4" stroke="none" stroke-width="1" fill="none" fill-rule="evenodd">
        <g id="D---Homepage---Hover-Full-Layout---1440" transform="translate(101.000000, -4025.000000)">
            <g id="ABOUT" transform="translate(-100.000000, 4013.000000)">
                <g id="bulbs-left-hover" transform="translate(0.000000, 13.000000)">
                    <path d="M522.966364,474.502993 C426.285107,423.261351 399.696151,261.676048 347,190 C294.303849,118.323952 245.5,80.4228525 179,48.7248236 C134.666667,27.5928043 75,11.5746809 0,0.670453404" id="Path" stroke="#000000" stroke-width="2.5"></path>
                    <path d="M340.066499,183.032973 C340.670605,194.682903 340.645745,206.320031 340.001862,217.967828 C339.922309,219.34619 342.418288,219.341923 342.497841,217.967828 C343.14421,206.320031 343.166584,194.682903 342.564964,183.032973 C342.495355,181.658878 339.99689,181.652477 340.066499,183.032973" id="Fill-75-Copy" fill="#160403"></path>
                    <path d="M361.998616,217.771637 C362.123956,228.264681 353.721907,236.873268 343.227312,236.998616 C332.736966,237.123963 324.128849,228.721454 324.001384,218.22841 C323.876044,207.735366 332.280217,199.126778 342.770563,199.001431 C353.265158,198.873959 361.871151,207.278592 361.998616,217.771637" id="Fill-77-Copy" fill="#A2DAE8"></path>
                    <path d="M406.068817,315.032973 C406.672446,326.682903 406.647605,338.317898 406.001747,349.967828 C405.924741,351.34619 408.418747,351.341923 408.498238,349.967828 C409.144096,338.317898 409.166453,326.682903 408.565307,315.032973 C408.493269,313.658878 405.999263,313.652477 406.068817,315.032973" id="Fill-63" fill="#160403"></path>
                    <path d="M426.998616,353.771637 C427.123956,364.264681 418.721907,372.873268 408.227312,372.998616 C397.736966,373.123963 389.128849,364.721454 389.001384,354.22841 C388.876044,343.735366 397.280217,335.126778 407.770563,335.001431 C418.265158,334.873959 426.871151,343.278592 426.998616,353.771637" id="Fill-65" fill="#C6A3E5"></path>
                    <path d="M378.068817,249.032973 C378.669962,260.682903 378.647605,272.320031 378.001747,283.967828 C377.924741,285.34619 380.418747,285.341923 380.498238,283.967828 C381.144096,272.320031 381.166453,260.682903 380.565307,249.032973 C380.493269,247.658878 377.999263,247.652477 378.068817,249.032973" id="Fill-71" fill="#160403"></path>
                    <path d="M379.227312,301.998616 C368.736966,302.123963 360.126725,293.721454 360.001384,283.22841 C359.876044,272.735366 368.278093,264.126778 378.770564,264.001431 C389.265158,263.873959 397.871151,272.278592 397.998616,282.771637 C398.123956,293.264681 389.721907,301.873268 379.227312,301.998616 Z" id="Fill-73" fill="#97E2BE"></path>
                    <path d="M292.068845,127.032973 C292.670239,138.682903 292.647873,150.317898 292.001748,161.967828 C291.92471,163.34619 294.419749,163.341923 294.499272,161.967828 C295.142913,150.317898 295.167764,138.682903 294.563885,127.032973 C294.494302,125.658878 291.999263,125.652477 292.068845,127.032973" id="Fill-67" fill="#160403"></path>
                    <path d="M311.998569,165.771637 C312.126034,176.264681 303.72186,184.873268 293.22939,184.998616 C282.73692,185.123963 274.128803,176.721454 274.001338,166.22841 C273.878122,155.735366 282.280171,147.126778 292.772641,147.001431 C303.265112,146.873959 311.873229,155.278592 311.998569,165.771637" id="Fill-69" fill="#C6A3E5"></path>
                    <path d="M107.068845,24.0329726 C107.670239,35.6829031 107.647873,47.3178978 107.001748,58.9678283 C106.92471,60.3461901 109.419749,60.3419227 109.499272,58.9678283 C110.142913,47.3178978 110.167764,35.6829031 109.563885,24.0329726 C109.494302,22.6588782 106.999263,22.6524771 107.068845,24.0329726" id="Fill-67" fill="#160403"></path>
                    <path d="M126.998569,62.7716366 C127.126034,73.2646807 118.72186,81.8732685 108.22939,81.9986156 C97.7369197,82.1239628 89.1288028,73.7214542 89.0013381,63.2284101 C88.8781222,52.7353659 97.2801712,44.1267782 107.772641,44.001431 C118.265112,43.8739594 126.873229,52.2785924 126.998569,62.7716366" id="Fill-69" fill="#C6A3E5"></path>
                    <path d="M171.066499,47.0329726 C171.670605,58.6829031 171.645745,70.3200315 171.001862,81.9678283 C170.922309,83.3461901 173.418288,83.3419227 173.497841,81.9678283 C174.14421,70.3200315 174.166584,58.6829031 173.564964,47.0329726 C173.495355,45.6588782 170.99689,45.6524771 171.066499,47.0329726" id="Fill-75" fill="#160403"></path>
                    <path d="M436.066499,379.032973 C436.670605,390.682903 436.645745,402.320031 436.001862,413.967828 C435.922309,415.34619 438.418288,415.341923 438.497841,413.967828 C439.14421,402.320031 439.166584,390.682903 438.564964,379.032973 C438.495355,377.658878 435.99689,377.652477 436.066499,379.032973" id="Fill-75-Copy" fill="#160403"></path>
                    <path d="M192.998616,80.7716366 C193.123956,91.2646807 184.721907,99.8732685 174.227312,99.9986156 C163.736966,100.123963 155.128849,91.7214542 155.001384,81.2284101 C154.876044,70.7353659 163.280217,62.1267782 173.770563,62.001431 C184.265158,61.8739594 192.871151,70.2785924 192.998616,80.7716366" id="Fill-77" fill="#A2DAE8"></path>
                    <path d="M457.998616,413.771637 C458.123956,424.264681 449.721907,432.873268 439.227312,432.998616 C428.736966,433.123963 420.128849,424.721454 420.001384,414.22841 C419.876044,403.735366 428.280217,395.126778 438.770563,395.001431 C449.265158,394.873959 457.871151,403.278592 457.998616,413.771637" id="Fill-77-Copy" fill="#A2DAE8"></path>
                    <path d="M237.068817,82.0329875 C237.669962,93.6830859 237.647605,105.318248 237.001747,116.966213 C236.924741,118.346729 239.418747,118.342461 239.498238,116.966213 C240.144096,105.318248 240.166453,93.6830859 239.565307,82.0329875 C239.493269,80.6588733 236.999263,80.6524721 237.068817,82.0329875" id="Fill-87" fill="#160403"></path>
                    <path d="M256.998616,116.771614 C257.123956,127.264645 248.721907,135.873222 238.227312,135.998569 C227.736966,136.12604 219.126725,127.721418 219.001384,117.228386 C218.876044,106.735355 227.278093,98.126778 237.770564,98.001431 C248.265158,97.8739595 256.871151,106.278582 256.998616,116.771614" id="Fill-89" fill="#97E2BE"></path>
                </g>
            </g>
        </g>
    </g>
</svg>