<?xml version="1.0" encoding="UTF-8"?>
<svg width="367px" height="138px" viewBox="0 0 367 138" version="1.1" xmlns="http://www.w3.org/2000/svg" xmlns:xlink="http://www.w3.org/1999/xlink">
    <title>bulbs-top-hover</title>
    <g id="R4" stroke="none" stroke-width="1" fill="none" fill-rule="evenodd">
        <g id="D---Homepage---Hover-Full-Layout---1440" transform="translate(-1075.000000, -4012.000000)">
            <g id="ABOUT" transform="translate(-100.000000, 4013.000000)">
                <g id="bulbs-top-hover" transform="translate(1176.357206, 0.000000)">
                    <path d="M-1.13686838e-13,23 C2.08148323,11.9507588 34.4224211,6.50649285 43.6427944,5 C52.2572306,3.59250964 78.4967617,-0.538911086 117.68006,1.08004812 C149.55065,2.3968639 204.700368,14.2568851 253.142794,36.0800481 C307.055921,60.3677445 339.171374,93.2308418 364.018317,116.43606" id="Path-3" stroke="#000000" stroke-width="2.5" stroke-linecap="round"></path>
                    <path d="M165.711611,9.03297257 C166.31524,20.6829031 166.2904,32.3178978 165.644541,43.9678283 C165.567535,45.3461901 168.061542,45.3419227 168.141032,43.9678283 C168.78689,32.3178978 168.809247,20.6829031 168.208102,9.03297257 C168.136064,7.6588782 165.642057,7.65247714 165.711611,9.03297257" id="Fill-63" fill="#160403"></path>
                    <path d="M186.64141,47.7716366 C186.76675,58.2646807 178.364701,66.8732685 167.870106,66.9986156 C157.37976,67.1239628 148.771643,58.7214542 148.644178,48.2284101 C148.518838,37.7353659 156.923012,29.1267782 167.413358,29.001431 C177.907953,28.8739594 186.513945,37.2785924 186.64141,47.7716366" id="Fill-65" fill="#C6A3E5"></path>
                    <path d="M102.711611,1.03297257 C103.312756,12.6829031 103.2904,24.3200315 102.644541,35.9678283 C102.567535,37.3461901 105.061542,37.3419227 105.141032,35.9678283 C105.78689,24.3200315 105.809247,12.6829031 105.208102,1.03297257 C105.136064,-0.3411218 102.642057,-0.347522861 102.711611,1.03297257" id="Fill-71" fill="#160403"></path>
                    <path d="M103.870106,53.9986156 C93.3797605,54.1239628 84.769519,45.7214542 84.6441787,35.2284101 C84.5188384,24.7353659 92.9208875,16.1267782 103.413358,16.001431 C113.907953,15.8739594 122.513945,24.2785924 122.64141,34.7716366 C122.76675,45.2646807 114.364701,53.8732685 103.870106,53.9986156 Z" id="Fill-73" fill="#97E2BE"></path>
                    <path d="M40.709293,6.03297257 C41.3133995,17.6829031 41.2885392,29.3200315 40.6446561,40.9678283 C40.565103,42.3461901 43.061082,42.3419227 43.1406352,40.9678283 C43.7870042,29.3200315 43.8093785,17.6829031 43.2077581,6.03297257 C43.1381491,4.6588782 40.6396841,4.65247714 40.709293,6.03297257" id="Fill-75" fill="#160403"></path>
                    <path d="M61.6414101,39.7716366 C61.7667504,50.2646807 53.3647012,58.8732685 42.8701063,58.9986156 C32.3797602,59.1239628 23.7716431,50.7214542 23.6441784,40.2284101 C23.5188381,29.7353659 31.9230116,21.1267782 42.4133577,21.001431 C52.9079527,20.8739594 61.5139454,29.2785924 61.6414101,39.7716366" id="Fill-77" fill="#A2DAE8"></path>
                    <path d="M224.711777,26.0329726 C225.313398,37.6829031 225.291024,49.3178978 224.644654,60.9678283 C224.565101,62.3461901 227.063568,62.3419227 227.140635,60.9678283 C227.787004,49.3178978 227.809379,37.6829031 227.207758,26.0329726 C227.138149,24.6588782 224.639682,24.6524771 224.711777,26.0329726" id="Fill-79" fill="#160403"></path>
                    <path d="M246.641363,59.7716135 C246.768828,70.2646448 238.364665,78.873222 227.872207,78.998569 C217.379749,79.1260405 208.771643,70.7214178 208.644178,60.2283865 C208.518838,49.7353552 216.923001,41.126778 227.413335,41.001431 C237.907917,40.8739595 246.513899,49.2785822 246.641363,59.7716135" id="Fill-81" fill="#A2DAE8"></path>
                    <path d="M279.711777,52.0329726 C280.313398,63.6829031 280.291024,75.3200315 279.644654,86.9678283 C279.565101,88.3461901 282.063568,88.3419227 282.140635,86.9678283 C282.787004,75.3178978 282.809379,63.6829031 282.207758,52.0329726 C282.138149,50.6588782 279.639682,50.6524771 279.711777,52.0329726" id="Fill-83" fill="#160403"></path>
                    <path d="M300.641363,85.7716366 C300.768828,96.2646807 292.364665,104.873268 281.872207,104.998616 C271.379749,105.123963 262.771643,96.7214542 262.644178,86.2284101 C262.518838,75.7353659 270.923001,67.1267782 281.415459,67.001431 C291.907917,66.8739594 300.513899,75.2785924 300.641363,85.7716366" id="Fill-85" fill="#97E2BE"></path>
                    <path d="M326.645374,84.0307516 C327.401898,95.6720274 327.601567,107.306901 327.242163,118.965249 C327.197792,120.345984 329.42743,120.34385 329.467364,118.965249 C329.828987,107.306901 329.631537,95.6720274 328.875013,84.0307516 C328.786271,82.6606876 326.556632,82.6521513 326.645374,84.0307516" id="Fill-91" fill="#160403"></path>
                    <path d="M347.634093,117.428556 C347.948508,127.917398 339.703614,136.676866 329.213203,136.991298 C318.724916,137.305729 309.968035,129.060399 309.651496,118.571558 C309.337081,108.082716 317.581975,99.3232477 328.072386,99.0088161 C338.560673,98.69226 347.319678,106.939715 347.634093,117.428556" id="Fill-93" fill="#C6A3E5"></path>
                </g>
            </g>
        </g>
    </g>
</svg>