<?xml version="1.0" encoding="utf-8"?>
<!-- Generator: Adobe Illustrator 22.0.0, SVG Export Plug-In . SVG Version: 6.00 Build 0)  -->
<svg version="1.1" id="圖層_1" xmlns="http://www.w3.org/2000/svg" xmlns:xlink="http://www.w3.org/1999/xlink" x="0px" y="0px"
	 viewBox="0 0 1440 510" style="enable-background:new 0 0 1440 510;" xml:space="preserve">
<style type="text/css">
	.st0{fill:#F5F5F5;}
</style>
<title>character-bg-top</title>
<g id="R4">
	<g id="D---Homepage---1440" transform="translate(0.000000, -5044.000000)">
		<g id="Characters" transform="translate(-593.000000, 5044.000000)">
			<path id="character-bg-top" class="st0" d="M1838.2,0c11,17.5,16.1,38.3,23.9,57.1c9,21.8,15.2,45.1,22.5,67.7
				c9.5,29,20.3,57.8,28.5,87.2c28.8,103.9,70.6,196.4,119.8,285.5v12.6H593v-1c67.4-31.6,137-55,206.3-68.2
				c91.8-17.5,185-23.7,278.1-29.9l14.7-1c65.4-4.4,130.7-9,195.6-17.9c184.4-25.3,357.4-94.5,466.3-253.9
				c16.4-24,29.3-50.2,45.1-74.7C1812.6,42.4,1827,22.7,1838.2,0z"/>
		</g>
	</g>
</g>
</svg>
