<svg xmlns="http://www.w3.org/2000/svg" xmlns:xlink="http://www.w3.org/1999/xlink" viewBox="0 0 1440 375"><defs><path id="a" d="M0 0h1440v375H0z"/><path id="c" d="M.263.574H215.62V191H.263z"/><path id="e" d="M0 .822h213.084v195.779H0z"/></defs><g fill="none" fill-rule="evenodd"><mask id="b" fill="#fff"><use xlink:href="#a"/></mask><g mask="url(#b)"><path fill="#F7C8C8" d="M226.802 209.952c-4.205-3.526-8.674-6.72-13.393-9.508a96.5 96.5 0 0 0-21.786-9.428c-14.862-4.345-28.617-8.757-41.783-17.576-2.149-1.44-4.426-2.677-6.63-4.012-1.714-1.034-3.39-2.185-5.166-3.09-1.536-.775-3.005-1.821-4.677-2.338.54 2.08.71 4.142.998 6.24.343 2.437.967 4.837 1.243 7.287 1.824 16.259-5.4 30.29-15.78 42.142-9.121 10.413-19.9 19.3-28.483 30.204-17.843 22.647-22.979 60.544-10.412 87.006 10.228 21.54 29.706 38.722 52.814 44.094 18.976 4.412 38.503 1.366 55.55-6.665 6.348-2.997 12.371-6.646 17.99-10.819 4.616-3.421 9.195-7.15 13.614-11.046.019-.019.037-.037.055-.05l.055-.042a209.481 209.481 0 0 0 12.849-11.94c4.921-4.99 9.39-10.449 13.252-16.326 10.388-15.791 16.215-34.77 14.63-54.29-1.102-13.527-6.488-26.402-14.342-37.393-5.87-8.215-12.769-15.896-20.598-22.45M759.803 99.952c-4.206-3.52-8.68-6.72-13.4-9.502a95.904 95.904 0 0 0-21.779-9.428c-14.868-4.35-28.623-8.763-41.79-17.582-2.142-1.434-4.425-2.677-6.622-4.012-1.714-1.034-3.392-2.185-5.167-3.083-1.536-.782-3.005-1.828-4.676-2.345.538 2.086.704 4.148.991 6.24.343 2.443.968 4.837 1.243 7.287 1.83 16.265-5.399 30.29-15.78 42.142-9.121 10.413-19.894 19.3-28.482 30.204-17.837 22.647-22.973 60.544-10.412 87.006 10.234 21.54 29.706 38.722 52.82 44.094 18.975 4.412 38.502 1.366 55.549-6.665 6.348-2.99 12.365-6.646 17.99-10.819 4.616-3.421 9.194-7.15 13.614-11.046l.055-.05c.018-.012.037-.024.055-.042a207.452 207.452 0 0 0 12.842-11.94c4.928-4.99 9.396-10.443 13.259-16.326 10.381-15.791 16.215-34.77 14.63-54.29-1.103-13.527-6.495-26.402-14.343-37.393-5.87-8.215-12.775-15.896-20.597-22.45"/><path fill="#F7C8C8" d="M126.802 70.952c-4.205-3.52-8.674-6.72-13.393-9.502a95.832 95.832 0 0 0-21.786-9.428C76.761 47.672 63.006 43.26 49.84 34.44c-2.143-1.434-4.426-2.677-6.623-4.006-1.72-1.04-3.398-2.19-5.173-3.09-1.536-.78-3.005-1.827-4.677-2.344.54 2.08.71 4.148.998 6.24.343 2.443.967 4.837 1.243 7.287 1.83 16.265-5.4 30.29-15.78 42.142-9.121 10.413-19.895 19.3-28.483 30.204-17.843 22.647-22.979 60.544-10.412 87.006 10.228 21.54 29.706 38.722 52.814 44.094 18.976 4.412 38.503 1.366 55.55-6.665 6.348-2.99 12.371-6.646 17.99-10.819 4.616-3.421 9.195-7.15 13.614-11.046l.055-.05a.337.337 0 0 0 .055-.042 207.573 207.573 0 0 0 12.849-11.94c4.921-4.99 9.396-10.443 13.252-16.326 10.388-15.791 16.215-34.77 14.63-54.29-1.102-13.527-6.488-26.402-14.336-37.393-5.876-8.215-12.775-15.896-20.604-22.45"/><path fill="#F8E4DE" d="M849.53 232.969a8.597 8.597 0 0 1-1.116-.172c-.006 0-.277-.062-.413-.092-10.26-2.287-18.748-8.201-27.255-14.595-31.79-23.87-52.832-49.5-62.549-76.16-5.293-14.54-7.211-29.454-5.694-44.337 2.875-28.112 27.237-56.716 58.91-54.491l.783.055c11.264.96 22.393 5.6 32.171 13.426 3.88 3.105 7.73 6.775 12.117 11.533l.48.529c1.796 1.96 4.251 4.641 5.781 4.77.05.006.525.043.525.043 1.566.136 4.441-2.102 6.545-3.731l.555-.43c5.139-3.966 9.556-6.929 13.9-9.339 10.968-6.067 22.714-8.772 33.985-7.82l.783.075c31.598 3.135 50.76 35.428 48.829 63.62-1.018 14.914-5.43 29.299-13.11 42.744-14.096 24.645-39.174 46.364-74.547 64.554-9.31 4.777-18.514 9.117-28.791 9.763a8.07 8.07 0 0 1-1.888.055"/><g transform="translate(475 274)"><mask id="d" fill="#fff"><use xlink:href="#c"/></mask><path fill="#F8E4DE" d="M97.498 190.97a7.73 7.73 0 0 1-1.113-.173s-.277-.056-.406-.093c-10.235-2.292-18.692-8.219-27.174-14.62C37.11 152.154 16.13 126.473 6.436 99.75 1.16 85.18-.748 70.226.766 55.316 3.625 27.14 27.914-1.534 59.498.696l.781.062c11.231.955 22.321 5.607 32.076 13.45 3.869 3.111 7.707 6.79 12.074 11.565l.486.523c1.784 1.966 4.238 4.652 5.757 4.782l.53.049c1.555.13 4.428-2.107 6.519-3.74l.56-.438c5.123-3.974 9.527-6.943 13.857-9.352 10.93-6.088 22.641-8.793 33.879-7.844l.787.074c31.504 3.149 50.602 35.508 48.683 63.763-1.015 14.954-5.419 29.365-13.076 42.84-14.049 24.7-39.058 46.468-74.326 64.7-9.275 4.787-18.452 9.137-28.706 9.784a8.004 8.004 0 0 1-1.882.055" mask="url(#d)"/></g><path fill="#F8E4DE" d="M863.531 415.973a8.856 8.856 0 0 1-1.123-.172s-.277-.061-.407-.092c-10.265-2.287-18.748-8.207-27.255-14.594-31.79-23.87-52.832-49.5-62.555-76.161-5.287-14.539-7.205-29.452-5.688-44.335 2.875-28.113 27.23-56.717 58.91-54.498l.783.062c11.264.959 22.387 5.6 32.171 13.426 3.88 3.104 7.73 6.768 12.117 11.539l.48.522c1.79 1.955 4.251 4.641 5.775 4.77.056 0 .53.044.53.044 1.561.135 4.442-2.103 6.54-3.732l.561-.43c5.139-3.965 9.556-6.935 13.9-9.338 10.962-6.068 22.714-8.773 33.979-7.82l.79.074c31.597 3.135 50.759 35.428 48.828 63.62-1.018 14.914-5.435 29.299-13.116 42.743-14.09 24.645-39.168 46.358-74.547 64.549-9.303 4.782-18.508 9.122-28.791 9.768a8.75 8.75 0 0 1-1.882.055M210.846 88.42c.282-.242.59-.464.903-.667l.356-.229c8.848-5.634 19.005-7.436 29.512-8.917 39.257-5.541 72.19-2.24 97.874 9.818 14.01 6.572 25.9 15.81 35.343 27.443 17.85 21.987 20.916 59.52-2.968 80.347l-.602.512c-8.602 7.294-19.717 11.867-32.135 13.23-4.934.538-10.23.661-16.688.377l-.713-.03c-2.648-.124-6.274-.285-7.435.703-.05.037-.4.34-.4.34-1.204 1.011-1.652 4.634-1.978 7.275l-.086.697c-.817 6.455-1.83 11.682-3.189 16.464-3.434 12.065-9.8 22.296-18.408 29.584l-.603.506c-24.473 20.124-60.786 10.757-79.355-10.62-9.825-11.311-16.878-24.64-20.97-39.618-7.503-27.455-5.186-60.612 6.875-98.545 3.177-9.979 6.593-19.569 13.376-27.3.375-.5.805-.964 1.29-1.37"/><path fill="#F1AFAD" d="M561.293 313.05a7.512 7.512 0 0 1-.153-1.117c0-.006-.025-.283-.031-.425-.75-10.486 2.48-20.319 6.153-30.311 13.73-37.33 32.22-64.884 54.947-81.877 12.391-9.271 26.116-15.415 40.786-18.252 27.713-5.367 62.051 9.696 69.003 40.673l.165.771c2.31 11.06 1.057 23.057-3.629 34.678-1.86 4.614-4.261 9.357-7.565 14.933l-.368.611c-1.358 2.282-3.218 5.41-2.905 6.908l.104.519c.326 1.542 3.28 3.651 5.447 5.193l.571.407c5.263 3.775 9.365 7.15 12.914 10.616 8.947 8.747 14.897 19.22 17.212 30.28l.154.77c6.055 31.17-19.35 58.84-46.872 65.131-14.565 3.331-29.592 3.251-44.649-.222-27.614-6.371-55.573-24.124-83.107-52.744-7.234-7.532-14.02-15.094-17.581-24.754a8.159 8.159 0 0 1-.596-1.788"/><path fill="#F2B9B2" d="M518.52 246.224a9.077 9.077 0 0 1-1.057-.393s-.258-.117-.38-.178c-9.54-4.317-16.605-11.833-23.59-19.804-26.112-29.813-41.395-59.147-45.425-87.197-2.187-15.29-1.014-30.267 3.507-44.507 8.533-26.902 38.117-49.923 68.542-41.308l.75.215c10.786 3.224 20.682 10.021 28.619 19.668 3.15 3.826 6.155 8.192 9.453 13.743l.363.614c1.345 2.278 3.194 5.398 4.656 5.84.055.012.504.147.504.147 1.505.448 4.76-1.148 7.144-2.315l.626-.307c5.818-2.837 10.732-4.839 15.456-6.306 11.93-3.71 23.932-3.961 34.719-.737l.75.227c30.16 9.493 42.25 44.968 34.614 72.14-4.042 14.381-11.278 27.547-21.512 39.128-18.76 21.234-47.638 37.372-85.84 47.965-10.037 2.781-19.902 5.158-30.05 3.696a8.592 8.592 0 0 1-1.85-.331"/><path fill="#F1AFAD" d="M266.516 464.224a9.417 9.417 0 0 1-1.43-.571c-9.54-4.317-16.611-11.833-23.59-19.804-26.119-29.813-41.402-59.147-45.425-87.197-2.193-15.29-1.014-30.267 3.507-44.507 8.533-26.902 38.116-49.923 68.542-41.308l.75.215c10.786 3.224 20.682 10.021 28.619 19.668 3.145 3.826 6.149 8.192 9.447 13.743l.369.614c1.345 2.278 3.188 5.398 4.65 5.84.055.012.504.147.504.147 1.51.448 4.766-1.148 7.15-2.315l.626-.307c5.818-2.837 10.726-4.839 15.456-6.306 11.923-3.71 23.932-3.961 34.713-.737l.755.227c30.162 9.493 42.25 44.968 34.61 72.14-4.037 14.381-11.273 27.547-21.507 39.128-18.766 21.234-47.644 37.372-85.846 47.965-10.037 2.781-19.896 5.158-30.05 3.696a8.66 8.66 0 0 1-1.85-.331"/><path fill="#F5C9BA" d="M183.923 266.346a8.15 8.15 0 0 1-1.104.222s-.276.043-.41.055c-10.365 1.385-20.325-1.268-30.45-4.346-37.881-11.512-66.318-28.367-84.55-50.092-9.942-11.845-16.854-25.21-20.558-39.72-6.979-27.419 5.918-62.68 36.25-71.484l.749-.215c10.836-2.974 22.813-2.438 34.637 1.557 4.692 1.588 9.543 3.706 15.264 6.68l.638.332c2.349 1.219 5.556 2.9 7.028 2.493.055-.012.503-.135.503-.135 1.509-.419 3.428-3.503 4.827-5.762l.374-.591c3.434-5.498 6.531-9.807 9.763-13.556 8.144-9.48 18.183-16.061 29.02-19.041l.76-.197c30.572-7.923 59.549 15.846 67.435 43.013 4.177 14.38 5.004 29.413 2.46 44.693-4.68 28.01-20.625 57.055-47.388 86.32-7.034 7.69-14.136 14.935-23.506 19.078a8.237 8.237 0 0 1-1.742.696"/><path fill="#E9BFAF" d="M180.616 251.493c-.276.08-.565.136-.854.173 0 0-.216.031-.314.043-8.037 1.07-15.743-.982-23.59-3.368-29.345-8.93-51.384-22-65.503-38.845-7.7-9.19-13.056-19.553-15.921-30.806-5.406-21.264 4.587-48.61 28.078-55.438l.584-.167c8.4-2.305 17.674-1.891 26.83 1.211 3.635 1.23 7.392 2.874 11.832 5.179l.486.253c1.82.952 4.304 2.25 5.448 1.934.037-.012.388-.105.388-.105 1.168-.321 2.656-2.719 3.738-4.461l.29-.47c2.662-4.258 5.06-7.601 7.563-10.512 6.31-7.347 14.089-12.452 22.483-14.757l.59-.16c23.675-6.137 46.127 12.29 52.24 33.364 3.228 11.148 3.874 22.809 1.894 34.655-3.616 21.728-15.964 44.247-36.7 66.94-5.455 5.962-10.959 11.586-18.209 14.8-.43.228-.885.407-1.353.537"/><path fill="#FBE5DF" d="M211.41 157.638c-4.83-10.272-13.987-16.89-23.34-19.47-11.875-3.28-20.56.746-30.268 7.116-1.694 1.112-3.388 1.89-5.094 2.486-1.774.373-3.621.571-5.634.484-11.563-.478-21.057.535-29.643 9.477-6.744 7.035-11.298 17.456-10.292 28.785.872 9.837 5.812 18.848 12.385 25.373 3.621 3.598 8.255 6.332 13.428 8.196 11.078 3.99 25.42 3.698 39.15.255l.005.019c.062-.019.123-.044.19-.062.068-.013.13-.025.197-.044l-.006-.018c13.545-4.114 26.04-11.254 33.577-20.402 3.51-4.27 6.124-9.01 7.438-13.97 2.375-9.004 2.099-19.307-2.093-28.225"/><path fill="#F5C9BA" d="M170.837 182.934c-.89-3.111-5.105-4.708-9.431-3.564-4.333 1.138-7.127 4.588-6.243 7.699.878 3.11 5.105 4.701 9.432 3.563 4.326-1.144 7.126-4.588 6.242-7.698"/><path fill="#C0BEBD" d="M147.653 185.155c-1.247-4.298-5.46-6.958-9.408-5.937-3.954 1.015-6.145 5.325-4.892 9.63 1.246 4.292 5.459 6.951 9.407 5.936 3.948-1.021 6.133-5.331 4.893-9.63M188.65 173.155c-1.247-4.298-5.459-6.958-9.406-5.937-3.948 1.015-6.145 5.325-4.892 9.623 1.247 4.299 5.459 6.958 9.406 5.943 3.954-1.021 6.138-5.331 4.892-9.63M178.341 193.1l-21.688 5.906c-1.116.3-1.837 1.211-1.612 2.029 1.336 4.85 8.191 7.223 15.285 5.294 7.093-1.93 11.778-7.448 10.448-12.305-.225-.811-1.31-1.23-2.433-.924"/><path fill="#F5C9BA" d="M1339.263 208.99a8.26 8.26 0 0 1-1.15-.142s-.277-.05-.419-.08c-10.514-2.015-19.33-7.801-28.19-14.056-33.112-23.415-55.334-48.957-66.057-75.915-5.851-14.703-8.275-29.898-7.198-45.162 2.03-28.844 25.907-58.871 58.213-57.596l.8.031c11.492.622 22.954 5.016 33.154 12.712 4.049 3.057 8.085 6.68 12.693 11.418l.51.518c1.883 1.947 4.467 4.615 6.023 4.702.062 0 .536.024.536.024 1.605.087 4.46-2.286 6.546-4.017l.56-.463c5.1-4.22 9.493-7.388 13.842-9.988 10.964-6.556 22.832-9.693 34.33-9.07l.794.043c32.256 2.212 52.78 34.63 51.71 63.524-.566 15.287-4.602 30.138-11.99 44.126-13.56 25.652-38.391 48.655-73.81 68.38-9.315 5.181-18.543 9.908-28.984 10.893a8.64 8.64 0 0 1-1.913.118"/><path fill="#E9BFAF" d="M1340.796 192.991a6.264 6.264 0 0 1-.886-.11l-.32-.061c-8.13-1.541-14.948-5.976-21.785-10.783-25.587-17.952-42.763-37.536-51.052-58.21-4.523-11.272-6.388-22.924-5.563-34.63 1.569-22.117 20.018-45.145 44.985-44.167l.621.025c8.88.477 17.736 3.847 25.625 9.75 3.12 2.342 6.24 5.125 9.803 8.752l.394.397c1.458 1.493 3.452 3.542 4.658 3.603.05.006.413.024.413.024 1.236.067 3.446-1.755 5.052-3.082l.437-.355c3.938-3.236 7.341-5.67 10.695-7.658 8.474-5.028 17.643-7.431 26.53-6.96l.615.036c24.923 1.7 40.782 26.558 39.95 48.711-.43 11.725-3.55 23.108-9.26 33.836-10.475 19.676-29.662 37.31-57.035 52.435-7.2 3.976-14.332 7.603-22.4 8.355-.486.092-.978.117-1.477.092"/><path fill="#FBE5DF" d="M1400.725 113.67c-1.419-11.368-8.223-20.633-16.5-26.1-10.524-6.949-20.258-5.895-31.75-2.929-1.999.521-3.899.717-5.756.742-1.844-.22-3.7-.62-5.638-1.348-11.103-4.18-20.677-6.263-31.885-.472-8.82 4.553-16.58 13.034-19.221 24.187-2.295 9.676-.364 19.873 3.96 28.219 2.369 4.596 6.008 8.695 10.45 12.14 9.512 7.377 23.576 11.697 38.041 12.825v.024c.068 0 .13-.006.204 0l.203.019v-.019c14.503.423 28.955-2.377 39.208-8.701 4.786-2.948 8.845-6.637 11.701-10.957 5.194-7.838 8.217-17.765 6.983-27.63"/><path fill="#F5C9BA" d="M1350.993 124.434c.18-3.308-3.257-6.179-7.671-6.419-4.408-.233-8.13 2.248-8.316 5.556-.173 3.302 3.263 6.18 7.672 6.413 4.42.24 8.142-2.247 8.315-5.55"/><path fill="#C0BEBD" d="M1329.985 118.896c.256-4.689-2.888-8.672-7.023-8.886-4.136-.221-7.692 3.4-7.947 8.095-.256 4.688 2.888 8.665 7.023 8.886 4.13.214 7.692-3.407 7.947-8.095M1372.985 121.895c.256-4.688-2.888-8.665-7.023-8.886-4.13-.214-7.692 3.407-7.947 8.096-.256 4.688 2.888 8.665 7.023 8.886 4.13.214 7.692-3.407 7.947-8.096"/><path stroke="#C0BEBD" stroke-linecap="round" stroke-linejoin="round" stroke-width=".595" d="M1333 135.939c3.379 2.75 7.741 3.192 11.868 3.115 2.456-.05 5.008-.273 7.132-1.701"/><path fill="#F7C8C8" d="M1028.45 268.238c.97-5.63 1.51-11.326 1.548-17.04a99.947 99.947 0 0 0-2.898-24.56c-3.849-15.683-7.054-30.397-6.004-46.872.166-2.677.092-5.384.141-8.06.037-2.081.197-4.199.08-6.274-.104-1.792.074-3.658-.337-5.432-1.59 1.565-3.358 2.78-5.09 4.137-2.013 1.572-3.843 3.376-5.9 4.899-13.646 10.097-30.025 10.846-46.09 7.624-14.12-2.83-27.725-7.95-42.004-10.049-29.657-4.358-66.387 10.668-83.607 35.75-14.015 20.422-19.289 46.934-12.05 70.591 5.936 19.434 18.864 35.48 34.973 46.707 5.998 4.186 12.425 7.728 19.105 10.638a217.954 217.954 0 0 0 17.035 6.568l.068.018c.024.012.049.018.074.025a217.177 217.177 0 0 0 17.428 5.414c7.048 1.853 14.286 3.057 21.585 3.499 19.608 1.178 39.7-3.407 56.411-14.966 11.585-8.016 20.333-19.563 26.116-32.361 4.315-9.564 7.612-19.784 9.417-30.256"/><path fill="#F1AFAD" d="M1145.506 234.944a8.598 8.598 0 0 1-1.111-.21c-.006 0-.278-.068-.408-.105-10.193-2.628-18.485-8.842-26.783-15.524-31.02-24.982-51.24-51.377-60.082-78.433-4.822-14.759-6.248-29.782-4.241-44.665 3.784-28.104 29.086-56.005 60.698-52.747l.785.086c11.237 1.32 22.214 6.343 31.747 14.512 3.773 3.24 7.502 7.04 11.738 11.964l.463.543c1.728 2.024 4.1 4.794 5.618 4.973.062.006.525.062.525.062 1.568.185 4.52-1.962 6.674-3.53l.568-.413c5.273-3.813 9.787-6.639 14.213-8.91 11.17-5.738 23.012-8.07 34.243-6.743l.784.098c31.507 4.178 49.622 37.193 46.77 65.409-1.507 14.931-6.39 29.215-14.522 42.45-14.892 24.266-40.688 45.232-76.678 62.329-9.459 4.491-18.807 8.545-29.111 8.86-.63.068-1.26.068-1.89-.006M1412.835 308.87a7.596 7.596 0 0 1-1.121.104s-.282.013-.417.013c-10.44.264-20.045-3.428-29.786-7.564-36.409-15.483-62.88-35.262-78.693-58.8-8.62-12.838-14.078-26.857-16.216-41.675-4.044-27.995 12.497-61.675 43.552-67.195l.766-.13c11.082-1.809 22.924.007 34.24 5.237 4.49 2.074 9.085 4.702 14.464 8.265l.594.394c2.2 1.47 5.214 3.477 6.715 3.237.055-.012.514-.092.514-.092 1.55-.246 3.78-3.114 5.41-5.207l.435-.553c3.988-5.096 7.523-9.047 11.125-12.431 9.092-8.554 19.758-14.025 30.84-15.828l.772-.123c31.202-4.61 57.477 22.098 62.446 49.945 2.628 14.733 1.856 29.767-2.291 44.684-7.603 27.348-26.503 54.512-56.179 80.752-7.805 6.893-15.622 13.342-25.369 16.456a8.019 8.019 0 0 1-1.801.51"/><path fill="#F7C8C8" d="M479.45 288.238c.97-5.63 1.511-11.326 1.548-17.034a100.26 100.26 0 0 0-2.898-24.566c-3.849-15.683-7.06-30.397-6.01-46.866.172-2.677.092-5.384.141-8.066.043-2.081.197-4.199.086-6.267-.104-1.793.074-3.665-.343-5.439-1.59 1.565-3.352 2.787-5.083 4.143-2.014 1.572-3.843 3.376-5.9 4.893-13.653 10.097-30.031 10.846-46.097 7.63-14.113-2.836-27.723-7.956-41.996-10.055-29.663-4.358-66.386 10.675-83.606 35.756-14.021 20.416-19.288 46.928-12.057 70.585 5.937 19.434 18.865 35.486 34.98 46.713 5.997 4.18 12.419 7.722 19.104 10.638 5.488 2.394 11.222 4.591 17.03 6.562.018.006.042.018.067.024.024.006.049.018.074.025a215.408 215.408 0 0 0 17.428 5.408c7.053 1.86 14.285 3.056 21.584 3.498 19.608 1.179 39.7-3.4 56.41-14.965 11.585-8.01 20.333-19.563 26.116-32.355 4.321-9.57 7.618-19.79 9.423-30.262M1320.671 178.086c-1.822-5.437-4.063-10.726-6.753-15.793a100.827 100.827 0 0 0-14.257-20.325c-10.865-12.027-20.708-23.493-27.628-38.553-1.126-2.447-2.48-4.802-3.712-7.194-.96-1.862-1.828-3.804-2.924-5.58-.942-1.534-1.674-3.266-2.88-4.641-.66 2.14-1.638 4.062-2.519 6.084-1.028 2.35-1.785 4.821-2.874 7.145-7.234 15.43-21.33 23.906-37.04 28.72-13.808 4.236-28.256 6.202-41.855 11.159-28.25 10.295-53.488 41.093-56.733 71.472-2.647 24.732 5.331 50.678 22.987 68.13 14.49 14.34 33.55 22.36 53.12 24.597 7.282.832 14.638.9 21.92.284a214.524 214.524 0 0 0 18.228-2.337c.025 0 .05-.006.074-.012 6.076-.937 12.127-2.115 17.957-3.532 7.104-1.727 14.066-4.106 20.714-7.207 17.865-8.304 33.415-21.94 42.649-40.131 6.402-12.607 8.624-26.989 7.627-41.05-.745-10.517-2.703-21.12-6.1-31.236"/><path fill="#FEFEFE" d="M1448.49 280.598c-.897-5.456-2.204-10.837-3.972-16.07a97.63 97.63 0 0 0-10.385-21.54c-8.446-13.117-16.001-25.555-20.249-40.946-.687-2.502-1.608-4.955-2.412-7.42-.626-1.916-1.148-3.9-1.909-5.76-.656-1.606-1.092-3.373-2.019-4.862-.951 1.934-2.167 3.615-3.314 5.4-1.338 2.082-2.425 4.307-3.812 6.358-9.219 13.562-23.858 19.45-39.46 21.607-13.718 1.897-27.687 1.539-41.32 4.152-28.313 5.438-56.928 30.844-64.649 59.248-6.291 23.127-2.713 49.04 11.318 68.374 11.527 15.885 28.338 26.457 46.512 31.604 6.77 1.915 13.725 3.114 20.715 3.658 5.733.445 11.638.636 17.536.593.025 0 .05-.006.074-.006.024 0 .043.006.067 0 5.893.05 11.797-.142 17.542-.587 6.985-.544 13.933-1.743 20.71-3.658 18.18-5.147 34.978-15.719 46.511-31.604 7.986-11.004 12.294-24.344 13.504-37.882.902-10.12.675-20.513-.989-30.659"/><path fill="#FDF5F1" d="M1406.938 290.696c-3.075-5.418-7.596-10.153-13.019-14.04-4.792-3.437-10.289-6.205-16.113-8.197-7.72-2.633-16.638-4.22-25.617-4.453h-.019c-.006 0-.012 0-.012-.006-.223.006-.439.018-.661.03a22.255 22.255 0 0 0-.655-.03c-.006.006-.012.006-.018.006h-.019c-8.973.234-17.891 1.82-25.618 4.453-5.823 1.992-11.314 4.76-16.113 8.197-5.422 3.887-9.937 8.622-13.012 14.04-9.042 15.934-10.407 37.95 1.859 52.846 7.448 9.052 18.305 15.085 30.064 18.018a76.601 76.601 0 0 0 13.39 2.085c6.978.48 14.34.492 21.319-.08 6.157-.504 12.265-1.703 18.07-3.708 9.518-3.284 18.12-8.788 24.315-16.315 12.266-14.895 10.9-36.912 1.86-52.846"/><path fill="#C0BEBD" d="M1344.474 259.74c-1.964.956-3.903 1.992-5.898 2.888-5.087 2.266-12.157 3.71-16.778.225-3.491-2.632-4.344.914-3.491 3.62 1.024 3.246 3.43 6.33 6.05 8.529 7.671 6.445 17.803 10.765 28.383 10.99 10.058.214 27.4-4.07 27.26-16.23-.038-2.997-1.523-5.824-3.695-7.95-3.523-3.443-8.905-5.636-14.072-5.788-4.553-.14-9.192.329-13.507 1.87-1.46.524-2.86 1.164-4.252 1.846"/><path fill="#FBE7DB" d="M1358 319.5c0-3.04-3.138-5.5-6.997-5.5-3.871 0-7.003 2.46-7.003 5.5s3.132 5.5 7.003 5.5c3.859 0 6.997-2.46 6.997-5.5"/><path fill="#C0BEBD" d="M1336 315c0-4.973-3.137-9-6.997-9-3.866 0-7.003 4.027-7.003 9 0 4.966 3.137 9 7.003 9 3.86 0 6.997-4.034 6.997-9M1380 315c0-4.973-3.13-9-6.997-9-3.866 0-7.003 4.027-7.003 9 0 4.966 3.137 9 7.003 9s6.997-4.034 6.997-9M1362.958 328h-21.916c-1.131 0-2.042.709-2.042 1.585 0 5.188 5.832 9.415 13.003 9.415s12.997-4.227 12.997-9.415c0-.876-.91-1.585-2.042-1.585"/><path fill="#FEFEFE" d="M468.487 102.598c-.896-5.456-2.198-10.837-3.972-16.07a97.49 97.49 0 0 0-10.385-21.54c-8.445-13.117-16-25.549-20.248-40.946-.688-2.502-1.608-4.955-2.406-7.42-.626-1.916-1.148-3.9-1.909-5.76-.657-1.606-1.093-3.367-2.026-4.862-.945 1.94-2.166 3.615-3.314 5.4-1.332 2.082-2.418 4.313-3.811 6.358-9.213 13.562-23.858 19.45-39.46 21.607-13.718 1.897-27.682 1.539-41.32 4.152-28.313 5.438-56.928 30.844-64.643 59.248-6.297 23.127-2.719 49.04 11.318 68.374 11.527 15.885 28.338 26.457 46.506 31.604 6.776 1.922 13.724 3.114 20.715 3.658 5.739.445 11.643.636 17.536.593h.073c.025 0 .043 0 .068-.006 5.898.05 11.803-.142 17.542-.587 6.99-.544 13.939-1.736 20.709-3.658 18.18-5.147 34.985-15.719 46.512-31.604 7.991-11.004 12.3-24.344 13.503-37.882.908-10.12.675-20.507-.988-30.659"/><path fill="#FDF5F1" d="M425.938 113.692c-3.07-5.419-7.59-10.154-13.013-14.041-4.799-3.438-10.29-6.206-16.113-8.192-7.726-2.639-16.644-4.225-25.618-4.459h-.037a25.63 25.63 0 0 0-.66.025c-.217-.013-.433-.019-.649-.025h-.037c-8.98.234-17.898 1.82-25.618 4.459-5.823 1.986-11.314 4.754-16.113 8.192-5.422 3.887-9.943 8.622-13.018 14.04-9.042 15.936-10.407 37.954 1.859 52.855 7.454 9.053 18.311 15.08 30.064 18.014 4.379 1.095 8.868 1.778 13.39 2.085 6.978.48 14.346.492 21.325-.08 6.157-.504 12.265-1.703 18.07-3.708 9.517-3.285 18.114-8.789 24.315-16.31 12.259-14.902 10.894-36.92 1.853-52.855"/><path fill="#C0BEBD" d="M362.473 81.74c-1.964.956-3.897 1.992-5.897 2.888-5.088 2.266-12.151 3.71-16.772.225-3.492-2.632-4.351.914-3.498 3.625 1.03 3.241 3.436 6.324 6.057 8.524 7.665 6.445 17.803 10.771 28.383 10.99 10.058.214 27.394-4.07 27.253-16.23-.037-2.991-1.522-5.824-3.694-7.95-3.523-3.443-8.905-5.63-14.072-5.788-4.553-.14-9.193.328-13.5 1.876-1.461.524-2.867 1.164-4.26 1.84"/><path fill="#FBE7DB" d="M378 141.5c0-3.04-3.137-5.5-7-5.5s-7 2.46-7 5.5 3.137 5.5 7 5.5 7-2.46 7-5.5"/><path fill="#C0BEBD" d="M356 137c0-4.973-3.137-9-6.997-9-3.866 0-7.003 4.027-7.003 9 0 4.966 3.137 9 7.003 9 3.86 0 6.997-4.034 6.997-9M399 137c0-4.973-3.137-9-6.997-9-3.866 0-7.003 4.027-7.003 9 0 4.966 3.137 9 7.003 9 3.86 0 6.997-4.034 6.997-9M380.958 152h-21.916c-1.131 0-2.042.709-2.042 1.585 0 5.188 5.832 9.415 12.997 9.415 7.17 0 13.003-4.227 13.003-9.415 0-.876-.91-1.585-2.042-1.585"/><path fill="#FEFEFE" d="M1078.917 88.287c-1.748-5.212-3.901-10.288-6.492-15.143a96.903 96.903 0 0 0-13.695-19.487c-10.448-11.523-19.91-22.524-26.561-36.953-1.077-2.348-2.382-4.61-3.57-6.902-.922-1.782-1.753-3.65-2.805-5.353-.904-1.468-1.612-3.128-2.775-4.449-.633 2.053-1.568 3.896-2.424 5.832-.984 2.256-1.71 4.622-2.756 6.852-6.959 14.793-20.507 22.923-35.6 27.538-13.277 4.057-27.157 5.937-40.226 10.694-27.158 9.87-51.418 39.399-54.537 68.522-2.541 23.71 5.131 48.587 22.094 65.321 13.936 13.748 32.246 21.436 51.055 23.574 7.002.805 14.077.86 21.073.277 5.753-.48 11.622-1.241 17.45-2.23a.31.31 0 0 0 .073-.013.31.31 0 0 0 .074-.012 207.266 207.266 0 0 0 17.252-3.387c6.835-1.647 13.523-3.939 19.916-6.901 17.166-7.97 32.11-21.042 40.99-38.483 6.152-12.082 8.287-25.873 7.327-39.35-.714-10.085-2.596-20.25-5.863-29.947"/><path fill="#FDF5F1" d="M1039.123 104.397c-3.92-4.847-9.158-8.792-15.145-11.762-5.295-2.62-11.183-4.473-17.258-5.504-8.074-1.374-17.158-1.515-26.08-.319h-.032l-.65.13c-.217.03-.433.054-.65.079-.006 0-.012 0-.019.006h-.012c-8.848 1.663-17.425 4.639-24.644 8.461-5.437 2.884-10.434 6.486-14.626 10.633-4.737 4.688-8.446 10.069-10.62 15.898-6.384 17.13-4.18 39.03 10.347 51.749 8.837 7.737 20.558 11.946 32.664 12.97 4.501.38 9.059.338 13.579-.073 6.99-.638 14.279-1.798 21.09-3.467 6.019-1.479 11.87-3.632 17.288-6.528 8.892-4.743 16.52-11.53 21.443-19.93 9.734-16.615 4.836-38.083-6.675-52.343"/><path fill="#C0BEBD" d="M971.715 83.522c-1.806 1.235-3.562 2.535-5.418 3.704-4.71 2.983-11.525 5.482-16.707 2.828-3.91-1.999-4.195 1.557-2.892 4.044 1.552 2.977 4.456 5.578 7.423 7.302 8.707 5.04 19.53 7.641 30.13 6.21 10.079-1.36 26.686-8.197 24.564-19.925-.522-2.887-2.47-5.392-4.99-7.11-4.065-2.78-9.8-4.062-14.988-3.406-4.567.572-9.122 1.754-13.169 3.907-1.371.734-2.675 1.575-3.953 2.446"/><path fill="#FBE7DB" d="M995.95 140.334c-.463-2.97-3.948-4.852-7.787-4.208-3.84.651-6.575 3.576-6.112 6.546.463 2.963 3.949 4.846 7.787 4.202 3.84-.645 6.57-3.576 6.112-6.54"/><path fill="#C0BEBD" d="M1004.79 140.576c4.352.943 8.557.338 12.372-2.063 4.254-2.68.358-9.595-3.92-6.901-2.035 1.28-4.032 1.77-6.388 1.254-4.872-1.057-6.956 6.647-2.065 7.71M970.225 138.586c-2.053 1.26-4.063 1.655-6.394 1.086-4.853-1.17-6.918 6.652-2.06 7.828 4.323 1.054 8.522.453 12.363-1.907 4.297-2.637.4-9.651-3.91-7.007M980.905 158.984c7.231.17 14.27-1.045 21.058-3.684 3.594-1.404 2.037-7.505-1.6-6.088-6.316 2.463-12.725 3.619-19.458 3.462-3.873-.085-3.873 6.219 0 6.31"/><path fill="#F1AFAD" d="M1122.908 348.07c-.16-.338-.3-.682-.417-1.044 0 0-.093-.265-.136-.4-3.273-9.947-2.524-20.239-1.381-30.783 4.262-39.415 15.512-70.542 33.433-92.502 9.77-11.975 21.592-21.253 35.134-27.575 25.578-11.939 62.543-5.757 76.79 22.476l.35.7c4.932 10.126 6.62 22.015 4.895 34.39-.681 4.909-1.867 10.082-3.71 16.27l-.214.682c-.762 2.537-1.812 6.009-1.142 7.385.03.05.233.473.233.473.682 1.413 4.066 2.722 6.534 3.687l.657.258c6.025 2.365 10.821 4.62 15.102 7.103 10.802 6.267 19.112 14.936 24.043 25.062l.338.707c13.425 28.632-4.502 61.56-29.675 74.345-13.314 6.765-27.9 10.36-43.357 10.673-28.324.578-59.755-9.757-93.403-30.703-8.85-5.505-17.27-11.158-23.067-19.619a8.662 8.662 0 0 1-1.007-1.585"/><path fill="#F2B9B2" d="M969.914 399.07a7.745 7.745 0 0 1-.423-1.044s-.093-.265-.136-.4c-3.273-9.947-2.524-20.239-1.381-30.783 4.268-39.415 15.519-70.542 33.433-92.502 9.777-11.975 21.592-21.253 35.134-27.575 25.585-11.939 62.543-5.757 76.797 22.476l.35.7c4.925 10.126 6.614 22.015 4.894 34.39-.687 4.909-1.873 10.082-3.715 16.27l-.209.682c-.768 2.537-1.818 6.009-1.142 7.385l.227.473c.688 1.413 4.066 2.722 6.534 3.687l.657.258c6.025 2.365 10.821 4.62 15.102 7.103 10.802 6.267 19.112 14.936 24.043 25.062l.338.707c13.425 28.632-4.502 61.56-29.675 74.345-13.314 6.765-27.9 10.36-43.357 10.673-28.324.578-59.755-9.757-93.403-30.703-8.843-5.505-17.27-11.158-23.067-19.619a8.633 8.633 0 0 1-1-1.585"/><path fill="#F8E4DE" d="M1077.515 307.226a9.416 9.416 0 0 1-1.05-.393c-.006-.006-.258-.117-.38-.178-9.54-4.317-16.605-11.833-23.589-19.804-26.113-29.813-41.402-59.153-45.425-87.198-2.193-15.29-1.014-30.267 3.507-44.508 8.532-26.902 38.116-49.924 68.54-41.308l.75.215c10.787 3.224 20.683 10.021 28.619 19.668 3.145 3.826 6.149 8.192 9.448 13.743l.368.614c1.345 2.279 3.194 5.398 4.65 5.834.055.018.504.154.504.154 1.511.448 4.767-1.149 7.15-2.315l.627-.314c5.817-2.83 10.725-4.832 15.455-6.3 11.923-3.709 23.932-3.96 34.712-.737l.756.227c30.16 9.494 42.25 44.969 34.614 72.141-4.042 14.382-11.278 27.541-21.512 39.129-18.76 21.234-47.643 37.372-85.838 47.965-10.044 2.782-19.903 5.152-30.057 3.697a8.66 8.66 0 0 1-1.849-.332"/><path fill="#F5C9BA" d="M464.808 349.67a8.761 8.761 0 0 1-1.102-.33c-.006 0-.271-.098-.4-.153-10.048-3.725-17.786-10.874-25.474-18.49-28.75-28.48-46.4-57.225-52.468-85.442-3.308-15.39-3.141-30.687.48-45.463 6.845-27.93 35.454-53.366 67.124-46.725l.783.171c11.236 2.53 21.82 8.755 30.598 18 3.48 3.675 6.857 7.902 10.615 13.311l.412.595c1.534 2.224 3.641 5.268 5.163 5.611l.523.117c1.571.355 4.787-1.501 7.134-2.849l.628-.355c5.742-3.284 10.615-5.655 15.34-7.474 11.92-4.595 24.173-5.686 35.41-3.155l.782.183c31.46 7.554 46.277 42.756 40.369 70.894-3.117 14.893-9.592 28.769-19.239 41.248-17.68 22.875-46.049 41.272-84.33 54.677-10.065 3.522-19.965 6.616-30.438 5.838-.64 0-1.275-.067-1.91-.208"/><path fill="#E9BFAF" d="M468.131 334.744a6.184 6.184 0 0 1-.855-.259s-.21-.074-.308-.117c-7.747-2.899-13.722-8.456-19.66-14.377-22.177-22.155-35.8-44.514-40.483-66.46-2.554-11.965-2.424-23.869.37-35.366 5.279-21.717 27.357-41.503 51.798-36.335l.603.13c8.67 1.968 16.842 6.81 23.611 14.001 2.689 2.856 5.298 6.143 8.19 10.35l.32.462c1.182 1.733 2.806 4.102 3.981 4.367.043.013.407.093.407.093 1.212.277 3.692-1.166 5.5-2.215l.487-.277c4.43-2.554 8.196-4.398 11.839-5.816 9.2-3.572 18.65-4.417 27.327-2.455l.597.142c24.287 5.878 35.72 33.263 31.16 55.146-2.411 11.584-7.402 22.371-14.847 32.08-13.642 17.794-35.542 32.103-65.073 42.533-7.765 2.732-15.408 5.144-23.493 4.533a6.59 6.59 0 0 1-1.47-.16"/><path fill="#FBE5DF" d="M539.964 265.902c.513-11.536-4.57-21.885-11.73-28.712-9.099-8.681-18.778-9.268-30.477-8.248a22.97 22.97 0 0 1-5.73-.241 22.698 22.698 0 0 1-5.28-2.287c-10.13-6.011-19.12-9.694-31.02-5.826-9.362 3.046-18.351 10.17-22.788 20.81-3.857 9.23-3.674 19.69-.867 28.712 1.55 4.967 4.413 9.657 8.172 13.827 8.05 8.928 21.037 15.595 34.957 19.148l-.006.018c.061.013.134.019.201.031.068.019.129.044.196.062l.006-.025c14.073 2.861 28.634 2.503 39.693-2.051 5.163-2.132 9.74-5.11 13.243-8.922 6.377-6.92 10.985-16.28 11.43-26.296"/><path fill="#F5C9BA" d="M490.887 268.385c.736-3.436-2.2-7.063-6.559-8.102-4.358-1.046-8.481.899-9.217 4.328-.729 3.436 2.2 7.063 6.559 8.109 4.358 1.039 8.488-.9 9.217-4.335"/><path fill="#C0BEBD" d="M470.755 259.134c1.046-4.61-1.356-9.073-5.36-9.973-4.012-.906-8.104 2.102-9.15 6.706-1.046 4.605 1.356 9.073 5.36 9.973 4.012.9 8.104-2.095 9.15-6.706M512.755 269.136c1.046-4.61-1.355-9.07-5.358-9.977-4.01-.9-8.106 2.102-9.152 6.711-1.046 4.603 1.355 9.065 5.358 9.97 4.01.9 8.106-2.1 9.152-6.704"/><path stroke="#C0BEBD" stroke-linecap="round" stroke-linejoin="round" stroke-width=".595" d="M471 276.612c2.843 3.374 6.963 4.655 10.925 5.383 2.363.434 4.836.707 7.075-.28"/><path fill="#F5C9BA" d="M1079.105 354c-.376 0-.746-.025-1.128-.08 0 0-.278-.03-.413-.055-10.412-1.408-19.37-6.592-28.382-12.237-33.672-21.115-56.801-44.881-68.742-70.633-6.51-14.044-9.679-28.746-9.426-43.7.469-28.267 22.291-58.828 54.02-59.289l.784-.006c11.3 0 22.772 3.69 33.172 10.662 4.13 2.773 8.273 6.1 13.044 10.472l.524.486c1.954 1.801 4.623 4.267 6.158 4.267h.524c1.579 0 4.254-2.466 6.202-4.267l.518-.48c4.784-4.384 8.932-7.71 13.05-10.478 10.4-6.973 21.866-10.662 33.166-10.662l.79.006c31.729.461 53.552 31.022 54.02 59.288.253 14.955-2.922 29.657-9.426 43.701-11.934 25.752-35.064 49.518-68.748 70.633-8.852 5.547-17.655 10.65-27.833 12.157-.61.141-1.24.215-1.874.215"/><path fill="#E9BFAF" d="M1079.58 338a5.9 5.9 0 0 1-.87-.062c-.006 0-.216-.024-.32-.043-8.052-1.09-14.974-5.102-21.939-9.477-26.047-16.348-43.925-34.741-53.148-54.675-5.035-10.876-7.484-22.264-7.293-33.842.364-21.875 17.231-45.544 41.767-45.895l.604-.006c8.736 0 17.607 2.853 25.646 8.257 3.196 2.138 6.404 4.72 10.087 8.11l.407.375c1.505 1.393 3.578 3.297 4.757 3.297h.413c1.215 0 3.282-1.91 4.787-3.303l.401-.37c3.696-3.395 6.904-5.97 10.087-8.109 8.045-5.404 16.91-8.257 25.646-8.257l.61.006c24.536.351 41.403 24.02 41.767 45.895.197 11.578-2.264 22.966-7.292 33.842-9.223 19.934-27.108 38.327-53.143 54.675-6.854 4.295-13.652 8.245-21.53 9.416-.47.11-.957.166-1.444.166"/><path fill="#FBE5DF" d="M1133.446 256.84c-1.978-11.01-9.071-19.692-17.402-24.592-10.584-6.232-19.986-4.692-30.994-1.203-1.917.61-3.754.904-5.55 1.02-1.8-.116-3.631-.41-5.549-1.02-11.007-3.49-20.41-5.029-30.994 1.203-8.33 4.9-15.423 13.582-17.402 24.592-1.72 9.556.699 19.399 5.33 27.317 2.547 4.363 6.29 8.17 10.792 11.297 9.63 6.697 23.51 10.18 37.622 10.528V306c.067 0 .135-.006.202-.012.067.006.135.012.202.012v-.018c14.107-.349 27.993-3.831 37.622-10.528 4.496-3.128 8.244-6.934 10.792-11.297 4.637-7.918 7.045-17.76 5.33-27.317"/><path fill="#F5C9BA" d="M1087 270.003c0-3.32-3.58-6.003-7.994-6.003-4.426 0-8.006 2.683-8.006 6.003 0 3.314 3.58 5.997 8.006 5.997 4.414 0 7.994-2.683 7.994-5.997"/><path fill="#C0BEBD" d="M1088.391 286.017c-2.884 5.332-14.936 5.302-17.79-.036-1.645-3.074.09-5.483 5.152-5.87 1.203-.09 2.43-.12 3.646-.108h.224a43.04 43.04 0 0 1 3.64.126c5.056.411 6.785 2.826 5.128 5.888M1053.387 270.403c1.839-3.699 5.388-3.43 7.208.137 1.705 3.316 6.76.394 5.06-2.916-3.737-7.296-13.597-7.654-17.328-.131-1.65 3.322 3.404 6.25 5.06 2.91M1110.673 267.492c-3.725-7.513-13.585-7.172-17.329.131-1.699 3.311 3.356 6.234 5.06 2.917 1.82-3.562 5.37-3.837 7.209-.138 1.656 3.341 6.71.419 5.06-2.91"/><path fill="#FEFEFE" d="M851.294 233.413c-.953-5.458-2.319-10.835-4.145-16.07a97.31 97.31 0 0 0-10.642-21.484c-8.611-13.063-16.331-25.454-20.735-40.844-.726-2.5-1.673-4.946-2.504-7.409-.64-1.914-1.187-3.901-1.968-5.754-.677-1.605-1.132-3.364-2.08-4.852-.934 1.95-2.14 3.636-3.278 5.445-1.322 2.093-2.399 4.34-3.77 6.402-9.14 13.687-23.793 19.725-39.46 22.034-13.778 2.03-27.82 1.809-41.495 4.556-28.418 5.723-56.928 31.46-64.426 59.995-6.096 23.237-2.258 49.172 12.031 68.415 11.736 15.811 28.732 26.244 47.05 31.226 6.828 1.859 13.821 2.995 20.852 3.47 5.776.389 11.712.525 17.635.426.025 0 .05-.006.074-.006h.074c5.923-.006 11.853-.26 17.623-.76 7.018-.61 13.987-1.876 20.778-3.858 18.226-5.34 35.012-16.095 46.46-32.121 7.922-11.107 12.123-24.516 13.212-38.091.812-10.15.48-20.564-1.286-30.72"/><path fill="#FDF5F1" d="M808.688 245.435c-3.128-5.443-7.696-10.187-13.158-14.057-4.821-3.424-10.344-6.167-16.187-8.124-7.74-2.588-16.68-4.1-25.664-4.254h-.024c-.228.006-.444.019-.66.031-.22-.006-.436-.019-.652-.019h-.037c-8.977.329-17.886 2.013-25.583 4.75-5.8 2.062-11.268 4.91-16.027 8.427-5.388 3.976-9.864 8.8-12.887 14.304-8.885 16.18-10.043 38.43 2.364 53.359 7.536 9.065 18.46 15.053 30.238 17.908a76.187 76.187 0 0 0 13.404 1.975c6.989.415 14.353.36 21.323-.285 6.157-.57 12.253-1.839 18.034-3.92 9.483-3.405 18.035-9.046 24.161-16.706 12.118-15.159 10.542-37.383 1.355-53.39"/><path fill="#C0BEBD" d="M745.83 213.887c-1.981.976-3.938 2.024-5.957 2.932-5.143 2.309-12.3 3.823-17.033.388-3.56-2.593-4.405.951-3.51 3.647 1.075 3.223 3.547 6.276 6.224 8.445 7.852 6.355 18.183 10.578 28.93 10.699 10.212.115 27.78-4.326 27.513-16.448-.062-2.987-1.603-5.792-3.827-7.894-3.609-3.404-9.094-5.537-14.343-5.646-4.622-.09-9.324.424-13.692 2-1.472.532-2.894 1.187-4.304 1.877"/><path fill="#FBE7DB" d="M760 274.43c-.024-3.036-3.178-5.468-7.051-5.43-3.867.039-6.979 2.534-6.949 5.57.024 3.036 3.178 5.468 7.051 5.43 3.861-.039 6.979-2.534 6.949-5.57"/><path fill="#C0BEBD" d="M764.289 291.715c-3.43 6.97-18.01 7.069-21.537.16-2.028-3.971.05-7.117 6.17-7.684a47.696 47.696 0 0 1 4.404-.185h.274a47.788 47.788 0 0 1 4.41.123c6.126.469 8.246 3.583 6.279 7.586M727.691 277.31c1.677-3.783 4.815-3.635 6.575.024 1.807 3.765 7.174.453 5.367-3.311-3.749-7.833-13.684-8.217-17.31-.025-1.683 3.802 3.679 7.132 5.368 3.312M784.65 273.812c-3.75-7.97-13.672-7.609-17.31.257-1.732 3.743 3.632 7.027 5.37 3.272 1.66-3.59 4.798-4.019 6.57-.258 1.76 3.744 7.13.46 5.37-3.27"/><g transform="translate(-61 176)"><mask id="f" fill="#fff"><use xlink:href="#e"/></mask><path fill="#F1AFAD" d="M71.543 195.825a9.43 9.43 0 0 1-1.432-.57c-9.543-4.312-16.61-11.82-23.597-19.782-26.123-29.779-41.418-59.08-45.444-87.098C-1.123 73.102.057 58.142 4.58 43.918 13.114 17.046 42.71-5.95 73.146 2.657l.75.214c10.79 3.22 20.69 10.017 28.63 19.646 3.153 3.822 6.158 8.189 9.458 13.728l.362.613c1.346 2.276 3.196 5.392 4.652 5.833.061.012.504.147.504.147 1.512.448 4.769-1.147 7.153-2.312l.627-.307c5.82-2.833 10.735-4.833 15.461-6.299 11.934-3.705 23.942-3.956 34.732-.736l.75.227c30.173 9.483 42.267 44.917 34.628 72.059-4.043 14.365-11.282 27.515-21.52 39.084-18.768 21.21-47.662 37.33-85.873 47.91-10.047 2.778-19.91 5.152-30.068 3.692a8.675 8.675 0 0 1-1.85-.33" mask="url(#f)"/></g></g></g></svg>