<svg xmlns="http://www.w3.org/2000/svg" xmlns:xlink="http://www.w3.org/1999/xlink" viewBox="0 0 1440 375"><defs><path id="a" d="M0 0h1440v375H0z"/><path id="c" d="M.263.574H215.62V191H.263z"/></defs><g fill="none" fill-rule="evenodd"><mask id="b" fill="#fff"><use xlink:href="#a"/></mask><g mask="url(#b)"><path fill="#F7C8C8" d="M226.802 209.952c-4.205-3.526-8.674-6.72-13.393-9.508a96.5 96.5 0 0 0-21.786-9.428c-14.862-4.345-28.617-8.757-41.783-17.576-2.149-1.44-4.426-2.677-6.63-4.012-1.714-1.034-3.39-2.185-5.166-3.09-1.536-.775-3.005-1.821-4.677-2.338.54 2.08.71 4.142.998 6.24.343 2.437.967 4.837 1.243 7.287 1.824 16.259-5.4 30.29-15.78 42.142-9.121 10.413-19.9 19.3-28.483 30.204-17.843 22.647-22.979 60.544-10.412 87.006 10.228 21.54 29.706 38.722 52.814 44.094 18.976 4.412 38.503 1.366 55.55-6.665 6.348-2.997 12.371-6.646 17.99-10.819 4.616-3.421 9.195-7.15 13.614-11.046.019-.019.037-.037.055-.05l.055-.042a209.481 209.481 0 0 0 12.849-11.94c4.921-4.99 9.39-10.449 13.252-16.326 10.388-15.791 16.215-34.77 14.63-54.29-1.102-13.527-6.488-26.402-14.342-37.393-5.87-8.215-12.769-15.896-20.598-22.45M759.803 99.952c-4.206-3.52-8.68-6.72-13.4-9.502a95.904 95.904 0 0 0-21.779-9.428c-14.868-4.35-28.623-8.763-41.79-17.582-2.142-1.434-4.425-2.677-6.622-4.012-1.714-1.034-3.392-2.185-5.167-3.083-1.536-.782-3.005-1.828-4.676-2.345.538 2.086.704 4.148.991 6.24.343 2.443.968 4.837 1.243 7.287 1.83 16.265-5.399 30.29-15.78 42.142-9.121 10.413-19.894 19.3-28.482 30.204-17.837 22.647-22.973 60.544-10.412 87.006 10.234 21.54 29.706 38.722 52.82 44.094 18.975 4.412 38.502 1.366 55.549-6.665 6.348-2.99 12.365-6.646 17.99-10.819 4.616-3.421 9.194-7.15 13.614-11.046l.055-.05c.018-.012.037-.024.055-.042a207.452 207.452 0 0 0 12.842-11.94c4.928-4.99 9.396-10.443 13.259-16.326 10.381-15.791 16.215-34.77 14.63-54.29-1.103-13.527-6.495-26.402-14.343-37.393-5.87-8.215-12.775-15.896-20.597-22.45"/><path fill="#F7C8C8" d="M126.802 70.952c-4.205-3.52-8.674-6.72-13.393-9.502a95.832 95.832 0 0 0-21.786-9.428C76.761 47.672 63.006 43.26 49.84 34.44c-2.143-1.434-4.426-2.677-6.623-4.006-1.72-1.04-3.398-2.19-5.173-3.09-1.536-.78-3.005-1.827-4.677-2.344.54 2.08.71 4.148.998 6.24.343 2.443.967 4.837 1.243 7.287 1.83 16.265-5.4 30.29-15.78 42.142-9.121 10.413-19.895 19.3-28.483 30.204-17.843 22.647-22.979 60.544-10.412 87.006 10.228 21.54 29.706 38.722 52.814 44.094 18.976 4.412 38.503 1.366 55.55-6.665 6.348-2.99 12.371-6.646 17.99-10.819 4.616-3.421 9.195-7.15 13.614-11.046l.055-.05a.337.337 0 0 0 .055-.042 207.573 207.573 0 0 0 12.849-11.94c4.921-4.99 9.396-10.443 13.252-16.326 10.388-15.791 16.215-34.77 14.63-54.29-1.102-13.527-6.488-26.402-14.336-37.393-5.876-8.215-12.775-15.896-20.604-22.45"/><path fill="#F8E4DE" d="M849.53 232.969a8.597 8.597 0 0 1-1.116-.172c-.006 0-.277-.062-.413-.092-10.26-2.287-18.748-8.201-27.255-14.595-31.79-23.87-52.832-49.5-62.549-76.16-5.293-14.54-7.211-29.454-5.694-44.337 2.875-28.112 27.237-56.716 58.91-54.491l.783.055c11.264.96 22.393 5.6 32.171 13.426 3.88 3.105 7.73 6.775 12.117 11.533l.48.529c1.796 1.96 4.251 4.641 5.781 4.77.05.006.525.043.525.043 1.566.136 4.441-2.102 6.545-3.731l.555-.43c5.139-3.966 9.556-6.929 13.9-9.339 10.968-6.067 22.714-8.772 33.985-7.82l.783.075c31.598 3.135 50.76 35.428 48.829 63.62-1.018 14.914-5.43 29.299-13.11 42.744-14.096 24.645-39.174 46.364-74.547 64.554-9.31 4.777-18.514 9.117-28.791 9.763a8.07 8.07 0 0 1-1.888.055"/><g transform="translate(475 274)"><mask id="d" fill="#fff"><use xlink:href="#c"/></mask><path fill="#F8E4DE" d="M97.498 190.97a7.73 7.73 0 0 1-1.113-.173s-.277-.056-.406-.093c-10.235-2.292-18.692-8.219-27.174-14.62C37.11 152.154 16.13 126.473 6.436 99.75 1.16 85.18-.748 70.226.766 55.316 3.625 27.14 27.914-1.534 59.498.696l.781.062c11.231.955 22.321 5.607 32.076 13.45 3.869 3.111 7.707 6.79 12.074 11.565l.486.523c1.784 1.966 4.238 4.652 5.757 4.782l.53.049c1.555.13 4.428-2.107 6.519-3.74l.56-.438c5.123-3.974 9.527-6.943 13.857-9.352 10.93-6.088 22.641-8.793 33.879-7.844l.787.074c31.504 3.149 50.602 35.508 48.683 63.763-1.015 14.954-5.419 29.365-13.076 42.84-14.049 24.7-39.058 46.468-74.326 64.7-9.275 4.787-18.452 9.137-28.706 9.784a8.004 8.004 0 0 1-1.882.055" mask="url(#d)"/></g><path fill="#F8E4DE" d="M863.531 415.973a8.856 8.856 0 0 1-1.123-.172s-.277-.061-.407-.092c-10.265-2.287-18.748-8.207-27.255-14.594-31.79-23.87-52.832-49.5-62.555-76.161-5.287-14.539-7.205-29.452-5.688-44.335 2.875-28.113 27.23-56.717 58.91-54.498l.783.062c11.264.959 22.387 5.6 32.171 13.426 3.88 3.104 7.73 6.768 12.117 11.539l.48.522c1.79 1.955 4.251 4.641 5.775 4.77.056 0 .53.044.53.044 1.561.135 4.442-2.103 6.54-3.732l.561-.43c5.139-3.965 9.556-6.935 13.9-9.338 10.962-6.068 22.714-8.773 33.979-7.82l.79.074c31.597 3.135 50.759 35.428 48.828 63.62-1.018 14.914-5.435 29.299-13.116 42.743-14.09 24.645-39.168 46.358-74.547 64.549-9.303 4.782-18.508 9.122-28.791 9.768a8.75 8.75 0 0 1-1.882.055M210.846 88.42c.282-.242.59-.464.903-.667l.356-.229c8.848-5.634 19.005-7.436 29.512-8.917 39.257-5.541 72.19-2.24 97.874 9.818 14.01 6.572 25.9 15.81 35.343 27.443 17.85 21.987 20.916 59.52-2.968 80.347l-.602.512c-8.602 7.294-19.717 11.867-32.135 13.23-4.934.538-10.23.661-16.688.377l-.713-.03c-2.648-.124-6.274-.285-7.435.703-.05.037-.4.34-.4.34-1.204 1.011-1.652 4.634-1.978 7.275l-.086.697c-.817 6.455-1.83 11.682-3.189 16.464-3.434 12.065-9.8 22.296-18.408 29.584l-.603.506c-24.473 20.124-60.786 10.757-79.355-10.62-9.825-11.311-16.878-24.64-20.97-39.618-7.503-27.455-5.186-60.612 6.875-98.545 3.177-9.979 6.593-19.569 13.376-27.3.375-.5.805-.964 1.29-1.37"/><path fill="#F1AFAD" d="M561.293 313.05a7.512 7.512 0 0 1-.153-1.117c0-.006-.025-.283-.031-.425-.75-10.486 2.48-20.319 6.153-30.311 13.73-37.33 32.22-64.884 54.947-81.877 12.391-9.271 26.116-15.415 40.786-18.252 27.713-5.367 62.051 9.696 69.003 40.673l.165.771c2.31 11.06 1.057 23.057-3.629 34.678-1.86 4.614-4.261 9.357-7.565 14.933l-.368.611c-1.358 2.282-3.218 5.41-2.905 6.908l.104.519c.326 1.542 3.28 3.651 5.447 5.193l.571.407c5.263 3.775 9.365 7.15 12.914 10.616 8.947 8.747 14.897 19.22 17.212 30.28l.154.77c6.055 31.17-19.35 58.84-46.872 65.131-14.565 3.331-29.592 3.251-44.649-.222-27.614-6.371-55.573-24.124-83.107-52.744-7.234-7.532-14.02-15.094-17.581-24.754a8.159 8.159 0 0 1-.596-1.788"/><path fill="#F2B9B2" d="M518.52 246.224a9.077 9.077 0 0 1-1.057-.393s-.258-.117-.38-.178c-9.54-4.317-16.605-11.833-23.59-19.804-26.112-29.813-41.395-59.147-45.425-87.197-2.187-15.29-1.014-30.267 3.507-44.507 8.533-26.902 38.117-49.923 68.542-41.308l.75.215c10.786 3.224 20.682 10.021 28.619 19.668 3.15 3.826 6.155 8.192 9.453 13.743l.363.614c1.345 2.278 3.194 5.398 4.656 5.84.055.012.504.147.504.147 1.505.448 4.76-1.148 7.144-2.315l.626-.307c5.818-2.837 10.732-4.839 15.456-6.306 11.93-3.71 23.932-3.961 34.719-.737l.75.227c30.16 9.493 42.25 44.968 34.614 72.14-4.042 14.381-11.278 27.547-21.512 39.128-18.76 21.234-47.638 37.372-85.84 47.965-10.037 2.781-19.902 5.158-30.05 3.696a8.592 8.592 0 0 1-1.85-.331M266.516 464.224a9.417 9.417 0 0 1-1.43-.571c-9.54-4.317-16.611-11.833-23.59-19.804-26.119-29.813-41.402-59.147-45.425-87.197-2.193-15.29-1.014-30.267 3.507-44.507 8.533-26.902 38.116-49.923 68.542-41.308l.75.215c10.786 3.224 20.682 10.021 28.619 19.668 3.145 3.826 6.149 8.192 9.447 13.743l.369.614c1.345 2.278 3.188 5.398 4.65 5.84.055.012.504.147.504.147 1.51.448 4.766-1.148 7.15-2.315l.626-.307c5.818-2.837 10.726-4.839 15.456-6.306 11.923-3.71 23.932-3.961 34.713-.737l.755.227c30.162 9.493 42.25 44.968 34.61 72.14-4.037 14.381-11.273 27.547-21.507 39.128-18.766 21.234-47.644 37.372-85.846 47.965-10.037 2.781-19.896 5.158-30.05 3.696a8.66 8.66 0 0 1-1.85-.331"/><path fill="#F5C9BA" d="M183.923 266.346a8.15 8.15 0 0 1-1.104.222s-.276.043-.41.055c-10.365 1.385-20.325-1.268-30.45-4.346-37.881-11.512-66.318-28.367-84.55-50.092-9.942-11.845-16.854-25.21-20.558-39.72-6.979-27.419 5.918-62.68 36.25-71.484l.749-.215c10.836-2.974 22.813-2.438 34.637 1.557 4.692 1.588 9.543 3.706 15.264 6.68l.638.332c2.349 1.219 5.556 2.9 7.028 2.493.055-.012.503-.135.503-.135 1.509-.419 3.428-3.503 4.827-5.762l.374-.591c3.434-5.498 6.531-9.807 9.763-13.556 8.144-9.48 18.183-16.061 29.02-19.041l.76-.197c30.572-7.923 59.549 15.846 67.435 43.013 4.177 14.38 5.004 29.413 2.46 44.693-4.68 28.01-20.625 57.055-47.388 86.32-7.034 7.69-14.136 14.935-23.506 19.078a8.237 8.237 0 0 1-1.742.696M1339.263 208.99a8.26 8.26 0 0 1-1.15-.142s-.277-.05-.419-.08c-10.514-2.015-19.33-7.801-28.19-14.056-33.112-23.415-55.334-48.957-66.057-75.915-5.851-14.703-8.275-29.898-7.198-45.162 2.03-28.844 25.907-58.871 58.213-57.596l.8.031c11.492.622 22.954 5.016 33.154 12.712 4.049 3.057 8.085 6.68 12.693 11.418l.51.518c1.883 1.947 4.467 4.615 6.023 4.702.062 0 .536.024.536.024 1.605.087 4.46-2.286 6.546-4.017l.56-.463c5.1-4.22 9.493-7.388 13.842-9.988 10.964-6.556 22.832-9.693 34.33-9.07l.794.043c32.256 2.212 52.78 34.63 51.71 63.524-.566 15.287-4.602 30.138-11.99 44.126-13.56 25.652-38.391 48.655-73.81 68.38-9.315 5.181-18.543 9.908-28.984 10.893a8.64 8.64 0 0 1-1.913.118"/><path stroke="#C0BEBD" stroke-linecap="round" stroke-linejoin="round" stroke-width=".595" d="M1333 135.939c3.379 2.75 7.741 3.192 11.868 3.115 2.456-.05 5.008-.273 7.132-1.701"/><path fill="#F7C8C8" d="M1028.45 268.238c.97-5.63 1.51-11.326 1.548-17.04a99.947 99.947 0 0 0-2.898-24.56c-3.849-15.683-7.054-30.397-6.004-46.872.166-2.677.092-5.384.141-8.06.037-2.081.197-4.199.08-6.274-.104-1.792.074-3.658-.337-5.432-1.59 1.565-3.358 2.78-5.09 4.137-2.013 1.572-3.843 3.376-5.9 4.899-13.646 10.097-30.025 10.846-46.09 7.624-14.12-2.83-27.725-7.95-42.004-10.049-29.657-4.358-66.387 10.668-83.607 35.75-14.015 20.422-19.289 46.934-12.05 70.591 5.936 19.434 18.864 35.48 34.973 46.707 5.998 4.186 12.425 7.728 19.105 10.638a217.954 217.954 0 0 0 17.035 6.568l.068.018c.024.012.049.018.074.025a217.177 217.177 0 0 0 17.428 5.414c7.048 1.853 14.286 3.057 21.585 3.499 19.608 1.178 39.7-3.407 56.411-14.966 11.585-8.016 20.333-19.563 26.116-32.361 4.315-9.564 7.612-19.784 9.417-30.256"/><path fill="#F1AFAD" d="M1145.506 234.944a8.598 8.598 0 0 1-1.111-.21c-.006 0-.278-.068-.408-.105-10.193-2.628-18.485-8.842-26.783-15.524-31.02-24.982-51.24-51.377-60.082-78.433-4.822-14.759-6.248-29.782-4.241-44.665 3.784-28.104 29.086-56.005 60.698-52.747l.785.086c11.237 1.32 22.214 6.343 31.747 14.512 3.773 3.24 7.502 7.04 11.738 11.964l.463.543c1.728 2.024 4.1 4.794 5.618 4.973.062.006.525.062.525.062 1.568.185 4.52-1.962 6.674-3.53l.568-.413c5.273-3.813 9.787-6.639 14.213-8.91 11.17-5.738 23.012-8.07 34.243-6.743l.784.098c31.507 4.178 49.622 37.193 46.77 65.409-1.507 14.931-6.39 29.215-14.522 42.45-14.892 24.266-40.688 45.232-76.678 62.329-9.459 4.491-18.807 8.545-29.111 8.86-.63.068-1.26.068-1.89-.006M1412.835 308.87a7.596 7.596 0 0 1-1.121.104s-.282.013-.417.013c-10.44.264-20.045-3.428-29.786-7.564-36.409-15.483-62.88-35.262-78.693-58.8-8.62-12.838-14.078-26.857-16.216-41.675-4.044-27.995 12.497-61.675 43.552-67.195l.766-.13c11.082-1.809 22.924.007 34.24 5.237 4.49 2.074 9.085 4.702 14.464 8.265l.594.394c2.2 1.47 5.214 3.477 6.715 3.237.055-.012.514-.092.514-.092 1.55-.246 3.78-3.114 5.41-5.207l.435-.553c3.988-5.096 7.523-9.047 11.125-12.431 9.092-8.554 19.758-14.025 30.84-15.828l.772-.123c31.202-4.61 57.477 22.098 62.446 49.945 2.628 14.733 1.856 29.767-2.291 44.684-7.603 27.348-26.503 54.512-56.179 80.752-7.805 6.893-15.622 13.342-25.369 16.456a8.019 8.019 0 0 1-1.801.51"/><path fill="#F7C8C8" d="M479.45 288.238c.97-5.63 1.511-11.326 1.548-17.034a100.26 100.26 0 0 0-2.898-24.566c-3.849-15.683-7.06-30.397-6.01-46.866.172-2.677.092-5.384.141-8.066.043-2.081.197-4.199.086-6.267-.104-1.793.074-3.665-.343-5.439-1.59 1.565-3.352 2.787-5.083 4.143-2.014 1.572-3.843 3.376-5.9 4.893-13.653 10.097-30.031 10.846-46.097 7.63-14.113-2.836-27.723-7.956-41.996-10.055-29.663-4.358-66.386 10.675-83.606 35.756-14.021 20.416-19.288 46.928-12.057 70.585 5.937 19.434 18.865 35.486 34.98 46.713 5.997 4.18 12.419 7.722 19.104 10.638 5.488 2.394 11.222 4.591 17.03 6.562.018.006.042.018.067.024.024.006.049.018.074.025a215.408 215.408 0 0 0 17.428 5.408c7.053 1.86 14.285 3.056 21.584 3.498 19.608 1.179 39.7-3.4 56.41-14.965 11.585-8.01 20.333-19.563 26.116-32.355 4.321-9.57 7.618-19.79 9.423-30.262M1320.671 178.086c-1.822-5.437-4.063-10.726-6.753-15.793a100.827 100.827 0 0 0-14.257-20.325c-10.865-12.027-20.708-23.493-27.628-38.553-1.126-2.447-2.48-4.802-3.712-7.194-.96-1.862-1.828-3.804-2.924-5.58-.942-1.534-1.674-3.266-2.88-4.641-.66 2.14-1.638 4.062-2.519 6.084-1.028 2.35-1.785 4.821-2.874 7.145-7.234 15.43-21.33 23.906-37.04 28.72-13.808 4.236-28.256 6.202-41.855 11.159-28.25 10.295-53.488 41.093-56.733 71.472-2.647 24.732 5.331 50.678 22.987 68.13 14.49 14.34 33.55 22.36 53.12 24.597 7.282.832 14.638.9 21.92.284a214.524 214.524 0 0 0 18.228-2.337c.025 0 .05-.006.074-.012 6.076-.937 12.127-2.115 17.957-3.532 7.104-1.727 14.066-4.106 20.714-7.207 17.865-8.304 33.415-21.94 42.649-40.131 6.402-12.607 8.624-26.989 7.627-41.05-.745-10.517-2.703-21.12-6.1-31.236"/><path fill="#F8E4DE" d="M1448.49 280.598c-.897-5.456-2.204-10.837-3.972-16.07a97.63 97.63 0 0 0-10.385-21.54c-8.446-13.117-16.001-25.555-20.249-40.946-.687-2.502-1.608-4.955-2.412-7.42-.626-1.916-1.148-3.9-1.909-5.76-.656-1.606-1.092-3.373-2.019-4.862-.951 1.934-2.167 3.615-3.314 5.4-1.338 2.082-2.425 4.307-3.812 6.358-9.219 13.562-23.858 19.45-39.46 21.607-13.718 1.897-27.687 1.539-41.32 4.152-28.313 5.438-56.928 30.844-64.649 59.248-6.291 23.127-2.713 49.04 11.318 68.374 11.527 15.885 28.338 26.457 46.512 31.604 6.77 1.915 13.725 3.114 20.715 3.658 5.733.445 11.638.636 17.536.593.025 0 .05-.006.074-.006.024 0 .043.006.067 0 5.893.05 11.797-.142 17.542-.587 6.985-.544 13.933-1.743 20.71-3.658 18.18-5.147 34.978-15.719 46.511-31.604 7.986-11.004 12.294-24.344 13.504-37.882.902-10.12.675-20.513-.989-30.659"/><path fill="#F1AFAD" d="M468.487 102.598c-.896-5.456-2.198-10.837-3.972-16.07a97.49 97.49 0 0 0-10.385-21.54c-8.445-13.117-16-25.549-20.248-40.946-.688-2.502-1.608-4.955-2.406-7.42-.626-1.916-1.148-3.9-1.909-5.76-.657-1.606-1.093-3.367-2.026-4.862-.945 1.94-2.166 3.615-3.314 5.4-1.332 2.082-2.418 4.313-3.811 6.358-9.213 13.562-23.858 19.45-39.46 21.607-13.718 1.897-27.682 1.539-41.32 4.152-28.313 5.438-56.928 30.844-64.643 59.248-6.297 23.127-2.719 49.04 11.318 68.374 11.527 15.885 28.338 26.457 46.506 31.604 6.776 1.922 13.724 3.114 20.715 3.658 5.739.445 11.643.636 17.536.593h.073c.025 0 .043 0 .068-.006 5.898.05 11.803-.142 17.542-.587 6.99-.544 13.939-1.736 20.709-3.658 18.18-5.147 34.985-15.719 46.512-31.604 7.991-11.004 12.3-24.344 13.503-37.882.908-10.12.675-20.507-.988-30.659M1078.917 88.287c-1.748-5.212-3.901-10.288-6.492-15.143a96.903 96.903 0 0 0-13.695-19.487c-10.448-11.523-19.91-22.524-26.561-36.953-1.077-2.348-2.382-4.61-3.57-6.902-.922-1.782-1.753-3.65-2.805-5.353-.904-1.468-1.612-3.128-2.775-4.449-.633 2.053-1.568 3.896-2.424 5.832-.984 2.256-1.71 4.622-2.756 6.852-6.959 14.793-20.507 22.923-35.6 27.538-13.277 4.057-27.157 5.937-40.226 10.694-27.158 9.87-51.418 39.399-54.537 68.522-2.541 23.71 5.131 48.587 22.094 65.321 13.936 13.748 32.246 21.436 51.055 23.574 7.002.805 14.077.86 21.073.277 5.753-.48 11.622-1.241 17.45-2.23a.31.31 0 0 0 .073-.013.31.31 0 0 0 .074-.012 207.266 207.266 0 0 0 17.252-3.387c6.835-1.647 13.523-3.939 19.916-6.901 17.166-7.97 32.11-21.042 40.99-38.483 6.152-12.082 8.287-25.873 7.327-39.35-.714-10.085-2.596-20.25-5.863-29.947M1122.908 348.07c-.16-.338-.3-.682-.417-1.044 0 0-.093-.265-.136-.4-3.273-9.947-2.524-20.239-1.381-30.783 4.262-39.415 15.512-70.542 33.433-92.502 9.77-11.975 21.592-21.253 35.134-27.575 25.578-11.939 62.543-5.757 76.79 22.476l.35.7c4.932 10.126 6.62 22.015 4.895 34.39-.681 4.909-1.867 10.082-3.71 16.27l-.214.682c-.762 2.537-1.812 6.009-1.142 7.385.03.05.233.473.233.473.682 1.413 4.066 2.722 6.534 3.687l.657.258c6.025 2.365 10.821 4.62 15.102 7.103 10.802 6.267 19.112 14.936 24.043 25.062l.338.707c13.425 28.632-4.502 61.56-29.675 74.345-13.314 6.765-27.9 10.36-43.357 10.673-28.324.578-59.755-9.757-93.403-30.703-8.85-5.505-17.27-11.158-23.067-19.619a8.662 8.662 0 0 1-1.007-1.585"/><path fill="#F2B9B2" d="M969.914 399.07a7.745 7.745 0 0 1-.423-1.044s-.093-.265-.136-.4c-3.273-9.947-2.524-20.239-1.381-30.783 4.268-39.415 15.519-70.542 33.433-92.502 9.777-11.975 21.592-21.253 35.134-27.575 25.585-11.939 62.543-5.757 76.797 22.476l.35.7c4.925 10.126 6.614 22.015 4.894 34.39-.687 4.909-1.873 10.082-3.715 16.27l-.209.682c-.768 2.537-1.818 6.009-1.142 7.385l.227.473c.688 1.413 4.066 2.722 6.534 3.687l.657.258c6.025 2.365 10.821 4.62 15.102 7.103 10.802 6.267 19.112 14.936 24.043 25.062l.338.707c13.425 28.632-4.502 61.56-29.675 74.345-13.314 6.765-27.9 10.36-43.357 10.673-28.324.578-59.755-9.757-93.403-30.703-8.843-5.505-17.27-11.158-23.067-19.619a8.633 8.633 0 0 1-1-1.585"/><path fill="#F8E4DE" d="M1077.515 307.226a9.416 9.416 0 0 1-1.05-.393c-.006-.006-.258-.117-.38-.178-9.54-4.317-16.605-11.833-23.589-19.804-26.113-29.813-41.402-59.153-45.425-87.198-2.193-15.29-1.014-30.267 3.507-44.508 8.532-26.902 38.116-49.924 68.54-41.308l.75.215c10.787 3.224 20.683 10.021 28.619 19.668 3.145 3.826 6.149 8.192 9.448 13.743l.368.614c1.345 2.279 3.194 5.398 4.65 5.834.055.018.504.154.504.154 1.511.448 4.767-1.149 7.15-2.315l.627-.314c5.817-2.83 10.725-4.832 15.455-6.3 11.923-3.709 23.932-3.96 34.712-.737l.756.227c30.16 9.494 42.25 44.969 34.614 72.141-4.042 14.382-11.278 27.541-21.512 39.129-18.76 21.234-47.643 37.372-85.838 47.965-10.044 2.782-19.903 5.152-30.057 3.697a8.66 8.66 0 0 1-1.849-.332"/><path fill="#F5C9BA" d="M464.808 349.67a8.761 8.761 0 0 1-1.102-.33c-.006 0-.271-.098-.4-.153-10.048-3.725-17.786-10.874-25.474-18.49-28.75-28.48-46.4-57.225-52.468-85.442-3.308-15.39-3.141-30.687.48-45.463 6.845-27.93 35.454-53.366 67.124-46.725l.783.171c11.236 2.53 21.82 8.755 30.598 18 3.48 3.675 6.857 7.902 10.615 13.311l.412.595c1.534 2.224 3.641 5.268 5.163 5.611l.523.117c1.571.355 4.787-1.501 7.134-2.849l.628-.355c5.742-3.284 10.615-5.655 15.34-7.474 11.92-4.595 24.173-5.686 35.41-3.155l.782.183c31.46 7.554 46.277 42.756 40.369 70.894-3.117 14.893-9.592 28.769-19.239 41.248-17.68 22.875-46.049 41.272-84.33 54.677-10.065 3.522-19.965 6.616-30.438 5.838-.64 0-1.275-.067-1.91-.208M1077.977 353.92s-.278-.03-.413-.055c-10.412-1.408-19.37-6.592-28.382-12.237-33.672-21.115-56.801-44.881-68.742-70.633-6.51-14.044-9.679-28.746-9.426-43.7.469-28.267 22.291-58.828 54.02-59.289l.784-.006c11.3 0 22.772 3.69 33.172 10.662 4.13 2.773 8.273 6.1 13.044 10.472l.524.486c1.954 1.801 4.623 4.267 6.158 4.267h.524c1.579 0 4.254-2.466 6.202-4.267l.518-.48c4.784-4.384 8.932-7.71 13.05-10.478 10.4-6.973 21.866-10.662 33.166-10.662l.79.006c31.729.461 53.552 31.022 54.02 59.288.253 14.955-2.922 29.657-9.426 43.701-11.934 25.752-35.064 49.518-68.748 70.633-8.852 5.547-17.655 10.65-27.833 12.157-.61.141-1.24.215-1.874.215-.376 0-.746-.025-1.128-.08z"/><path fill="#F5C9BA" d="M1074 267.003c0-3.32-3.58-6.003-7.994-6.003-4.426 0-8.006 2.683-8.006 6.003 0 3.314 3.58 5.997 8.006 5.997 4.414 0 7.994-2.683 7.994-5.997M851.294 233.413c-.953-5.458-2.319-10.835-4.145-16.07a97.31 97.31 0 0 0-10.642-21.484c-8.611-13.063-16.331-25.454-20.735-40.844-.726-2.5-1.673-4.946-2.504-7.409-.64-1.914-1.187-3.901-1.968-5.754-.677-1.605-1.132-3.364-2.08-4.852-.934 1.95-2.14 3.636-3.278 5.445-1.322 2.093-2.399 4.34-3.77 6.402-9.14 13.687-23.793 19.725-39.46 22.034-13.778 2.03-27.82 1.809-41.495 4.556-28.418 5.723-56.928 31.46-64.426 59.995-6.096 23.237-2.258 49.172 12.031 68.415 11.736 15.811 28.732 26.244 47.05 31.226 6.828 1.859 13.821 2.995 20.852 3.47 5.776.389 11.712.525 17.635.426.025 0 .05-.006.074-.006h.074c5.923-.006 11.853-.26 17.623-.76 7.018-.61 13.987-1.876 20.778-3.858 18.226-5.34 35.012-16.095 46.46-32.121 7.922-11.107 12.123-24.516 13.212-38.091.812-10.15.48-20.564-1.286-30.72"/><path fill="#F2B9B2" d="M10.543 371.825a9.43 9.43 0 0 1-1.432-.57c-9.543-4.312-16.61-11.82-23.597-19.782-26.123-29.779-41.418-59.08-45.444-87.098-2.193-15.273-1.013-30.233 3.51-44.457 8.535-26.872 38.13-49.867 68.567-41.261l.75.214c10.79 3.22 20.69 10.017 28.63 19.646 3.153 3.822 6.158 8.189 9.458 13.728l.362.613c1.346 2.276 3.196 5.392 4.652 5.833.061.012.504.147.504.147 1.512.448 4.769-1.147 7.153-2.312l.627-.307c5.82-2.833 10.735-4.833 15.461-6.299 11.934-3.705 23.942-3.956 34.732-.736l.75.227c30.173 9.483 42.267 44.917 34.628 72.059-4.043 14.365-11.282 27.515-21.52 39.084-18.768 21.21-47.662 37.33-85.873 47.91-10.047 2.778-19.91 5.152-30.068 3.692a8.675 8.675 0 0 1-1.85-.33"/></g></g></svg>