<svg xmlns="http://www.w3.org/2000/svg" viewBox="0 0 297 689"><g fill="none" fill-rule="evenodd"><path fill="#FEFEFE" d="M89 643h40V495H89z"/><path fill="#160403" d="M78.906 650.661c-8.355 6.75-16.625 17.803-8.843 29.691 3.771 5.76 11.812 7.687 19.096 8.184 11.57.79 28.67 1.504 37.824-6.293 6.52-6.004 7.125-15.142 6.981-23.174-.176-9.793-1.448-18.983-1.048-28.84.052-1.28.083-2.636-.594-3.756-1.158-1.92-3.87-2.41-6.244-2.645a165.9 165.9 0 0 0-34.882.266c-1.97.223-3.954.486-5.797 1.166-.632.232-1.27.533-1.645 1.053-.433.603-.436 1.374-.422 2.095.14 7.115 2.196 16.9-4.426 22.253"/><path fill="#FEFEFE" d="M165.655 643.195h40.379V494.837h-40.379z"/><path fill="#160403" d="M215.44 650.661c8.356 6.75 16.623 17.803 8.841 29.691-3.769 5.76-11.81 7.687-19.094 8.184-11.57.79-28.668 1.504-37.826-6.293-6.518-6.004-7.122-15.142-6.979-23.174.174-9.793 1.45-18.983 1.049-28.84-.052-1.28-.086-2.636.59-3.756 1.162-1.92 3.874-2.41 6.245-2.645a165.925 165.925 0 0 1 34.885.266c1.967.223 3.954.486 5.797 1.166.632.232 1.27.533 1.645 1.053.433.603.433 1.374.422 2.095-.144 7.115-2.196 16.9 4.426 22.253"/><path fill="#FEFEFE" d="M244.81 436.871c-.782-5.583-1.596-11.164-2.388-16.744a9834.976 9834.976 0 0 0-10.427-71.621c-.11-.722-.21-1.446-.317-2.167-.546-3.66-1.11-7.316-1.67-10.976-.4.08-.802.15-1.2.23-1.17-8.677-2.34-17.35-3.529-26.024-.165-1.207-.323-2.413-.491-3.618-1.123-8.156.679-31.68-5.855-36.85-4.23-3.347-10.071-3.789-15.521-4.087l-53.052-2.91v-.194c-.585.03-1.173.063-1.758.094-.585-.03-1.173-.064-1.758-.094v.193l-53.052 2.91c-5.447.3-11.29.741-15.52 4.089-6.537 5.168-4.733 28.693-5.859 36.85-.165 1.204-.325 2.41-.488 3.617-1.19 8.674-2.36 17.347-3.532 26.023-.394-.08-.8-.149-1.195-.229-.562 3.66-1.125 7.316-1.674 10.976-.11.721-.207 1.445-.318 2.167a9834.926 9834.926 0 0 0-10.424 71.62c-.792 5.581-1.606 11.162-2.387 16.745-2.792 19.912-4.967 41.88 8.333 58.307 14.82 18.311 43.406 23.101 69.144 25.069 5.58.426 11.27.752 16.972.904v.08c.588-.006 1.173-.028 1.758-.039.585.011 1.173.033 1.758.039v-.08c5.703-.152 11.39-.478 16.972-.904 25.738-1.968 54.322-6.758 69.144-25.07 13.3-16.426 11.126-38.394 8.333-58.306"/><path fill="#FEFEFE" d="M64.385 441.546c-4.476 11.161-12.006 18.826-25.33 18.356-5.695-.202-11.526-2.142-15.427-7.28-10.932-14.401-1.962-42.898 2.364-60.14 7.197-28.668 14.293-58.912 23.769-86.552 5.767-16.819 17.974-48.068 35.178-38.682 12.582 6.866 1.752 30.863-1.043 42.698-6.83 28.956-9.735 58.987-12.183 88.65-1.189 14.475-2.45 30.788-7.328 42.95"/><path fill="#D6002A" d="M70.006 459.752c-1.419-.262-2.884 1.062-3.549 2.706-1.28 3.173-.071 6.664-1.512 9.79-7.615 16.554-28.332 14.848-38.32 4.84-6.371-6.385-10.165-16.125-11.529-26.233-2.3-17.054 2.94-34.525 8.082-50.338.249-.755.552-1.581 1.154-1.913.546-.298 1.164-.094 1.721.12 14.633 5.638 29.392 7.666 44.684 9.916.281.042.582.092.806.302.248.235.361.627.463 1 3.573 13.184 6.658 24.683 6.954 38.868.063 2.89.027 5.934-1.101 8.52-1.129 2.585-3.712 4.481-5.872 3.445-.593-.285-1.12-.766-1.736-.962a2.45 2.45 0 0 0-.245-.06"/><path fill="#FEFEFE" d="M232.818 441.546c4.479 11.161 12.006 18.826 25.33 18.356 5.695-.202 11.526-2.142 15.427-7.28 10.935-14.401 1.965-42.898-2.364-60.14-7.197-28.668-14.293-58.912-23.769-86.552-5.764-16.819-17.973-48.068-35.177-38.682-12.583 6.866-1.753 30.863 1.043 42.698 6.831 28.956 9.734 58.987 12.182 88.65 1.192 14.475 2.45 30.788 7.328 42.95"/><path fill="#D6002A" d="M227.197 459.752c1.421-.262 2.884 1.062 3.549 2.706 1.283 3.173.072 6.664 1.512 9.79 7.615 16.554 28.332 14.848 38.32 4.84 6.374-6.385 10.166-16.125 11.529-26.233 2.3-17.054-2.936-34.525-8.082-50.338-.246-.755-.552-1.581-1.15-1.913-.55-.298-1.168-.094-1.725.12-14.633 5.638-29.392 7.666-44.684 9.916-.281.042-.582.092-.805.302-.249.235-.362.627-.464 1-3.573 13.184-6.658 24.683-6.953 38.868-.064 2.89-.028 5.934 1.103 8.52 1.129 2.585 3.712 4.481 5.872 3.445.593-.285 1.118-.766 1.733-.962.08-.025.165-.044.245-.06"/><path fill="#FEFEFE" d="M294.514 144.49c-1.339-8.134-3.3-16.164-5.952-23.97a145.14 145.14 0 0 0-15.565-32.125c-12.657-19.567-23.986-38.11-30.35-61.074-1.034-3.731-2.413-7.388-3.614-11.067-.932-2.858-1.716-5.818-2.858-8.587-.988-2.397-1.634-5.028-3.03-7.253-1.424 2.885-3.253 5.384-4.97 8.054-1.997 3.099-3.633 6.426-5.714 9.475-13.813 20.238-35.757 29.02-59.142 32.234-20.565 2.827-41.507 2.291-61.937 6.194-42.443 8.11-85.327 46.007-96.902 88.368-9.429 34.492-4.065 73.15 16.97 101.983 17.28 23.69 42.467 39.459 69.717 47.137 10.146 2.861 20.562 4.647 31.04 5.457 8.6.663 17.452.948 26.29.878h.212c8.835.07 17.687-.215 26.29-.878 10.474-.81 20.893-2.596 31.039-5.457 27.25-7.678 52.434-23.447 69.715-47.137 11.978-16.418 18.432-36.31 20.245-56.499 1.355-15.097 1.01-30.595-1.484-45.733"/><path fill="#FAD9CB" d="M231.185 160.325c-4.577-8.12-11.315-15.219-19.389-21.042-7.14-5.147-15.33-9.298-24.003-12.278-11.5-3.95-24.789-6.324-38.166-6.678-.008-.003-.014-.003-.022-.003h-.025c-.328.009-.654.025-.98.04-.325-.015-.648-.031-.976-.04h-.025c-.008 0-.016 0-.025.003-13.374.354-26.662 2.728-38.166 6.678-8.67 2.98-16.859 7.131-23.997 12.278-8.08 5.823-14.812 12.921-19.392 21.042-13.468 23.881-15.499 56.875 2.765 79.197 11.1 13.568 27.283 22.601 44.788 26.999 6.52 1.639 13.211 2.659 19.944 3.123 10.397.719 21.37.735 31.762-.119 9.177-.754 18.277-2.557 26.922-5.556 14.174-4.92 26.99-13.167 36.22-24.447 18.264-22.322 16.233-55.316 2.765-79.197"/><path fill="#160403" d="M137.899 113.378c-2.947 1.45-5.842 3.018-8.841 4.364-7.63 3.43-18.225 5.622-25.15.346-5.23-3.98-6.52 1.379-5.232 5.483 1.54 4.904 5.14 9.561 9.067 12.894 11.498 9.752 26.693 16.291 42.55 16.626 15.085.318 41.083-6.161 40.868-24.55-.056-4.53-2.285-8.814-5.546-12.032-5.273-5.204-13.341-8.518-21.095-8.756-6.815-.207-13.78.503-20.236 2.839-2.188.79-4.3 1.757-6.385 2.786"/><path fill="#F2A078" d="M159.232 203.442c0-4.38-4.76-7.938-10.632-7.938-5.869 0-10.628 3.557-10.628 7.938 0 4.384 4.76 7.939 10.628 7.939 5.872 0 10.632-3.555 10.632-7.939"/><path fill="#160403" d="M166.574 231.973c-5.468 10.672-28.291 10.607-33.707-.075-3.115-6.141.182-10.956 9.765-11.729 2.292-.186 4.598-.237 6.904-.223.07 0 .14.004.21.004.07 0 .14-.004.21 0 2.306-.009 4.617.056 6.908.252 9.579.815 12.853 5.643 9.71 11.771M109.916 209.205c2.721-5.73 7.897-5.291 10.599.215 2.804 5.712 11.465.718 8.665-4.98-2.58-5.263-7.878-9.469-14.037-9.496-6.098-.028-11.385 4.009-13.892 9.286-2.716 5.712 5.935 10.723 8.665 4.975M198.209 204.226c-2.51-5.277-7.794-9.314-13.891-9.282-6.159.027-11.455 4.229-14.04 9.497-2.791 5.69 5.86 10.697 8.668 4.975 2.698-5.501 7.873-5.945 10.598-.215 2.73 5.744 11.38.746 8.665-4.975"/></g></svg>