<svg xmlns="http://www.w3.org/2000/svg" xmlns:xlink="http://www.w3.org/1999/xlink" viewBox="0 0 322 500"><defs><path id="a" d="M0 .568h321.532v278.84H0z"/></defs><g fill="none" fill-rule="evenodd"><path fill="#AC0015" d="M123.798 463.77a2.538 2.538 0 0 1-.429.801c-1.712 2.013-6.816 1.558-9.228 2.404-7.35 2.576-13.388 9.599-13.133 17.616.173 5.433 3.184 10.583 8.23 12.843 7.176 3.216 16.776 2.84 24.425 1.913 5.948-.718 12.113-2.368 16.369-6.584 2.875-2.848 4.234-7.028 3.925-11.028-.369-4.811-3.996-7.545-5.154-11.975-.876-3.35-.87-6.896-.862-10.334.021-9.315.046-18.63.068-27.945 0-5.825-8.52-9.207-13.582-9.461-2.343-.117-4.678.306-6.984.723-1.918.35-3.76.997-5.571 1.65.157 9.13 1.768 18.297 1.869 27.504.027 2.267 1.03 9.079.057 11.872M198.205 463.77c.114.327.255.598.428.801 1.712 2.013 6.814 1.558 9.228 2.404 7.35 2.576 13.389 9.599 13.131 17.616-.17 5.433-3.182 10.583-8.227 12.843-7.18 3.216-16.776 2.84-24.425 1.913-5.951-.718-12.114-2.368-16.37-6.584-2.875-2.848-4.234-7.028-3.928-11.028.372-4.811 3.996-7.545 5.154-11.975.879-3.35.873-6.896.865-10.334l-.07-27.945c0-5.825 8.522-9.207 13.584-9.461 2.343-.117 4.676.306 6.984.723 1.915.35 3.757.997 5.569 1.65-.157 9.13-1.769 18.297-1.869 27.504-.024 2.267-1.028 9.079-.054 11.872"/><path fill="#AC0015" d="M228.48 365.938a7867.387 7867.387 0 0 0-14.46-104.706c-.81-5.597.493-21.747-4.227-25.296-3.054-2.299-7.274-2.601-11.208-2.805l-38.316-1.999V231l-1.268.066-1.27-.066v.132l-38.316 1.999c-3.931.204-8.156.506-11.208 2.805-4.72 3.55-3.417 19.699-4.228 25.296a7766.815 7766.815 0 0 0-14.46 104.706c-2.015 15.357-3.587 32.3 6.018 44.97 10.705 14.12 31.347 17.815 49.936 19.332 4.03.33 8.137.578 12.258.697V431c.424-.006.844-.02 1.27-.03.421.01.844.024 1.268.03v-.063c4.12-.119 8.228-.366 12.258-.697 18.586-1.517 39.231-5.212 49.936-19.332 9.605-12.67 8.033-29.613 6.018-44.97"/><path fill="#D6002A" d="M158.803 361.962c-15.107-.921-31.007-3.588-38.676-6.49l-.51-.191c-8.153-3.08-27.249-10.291-24.313-28.507l16.975-105.346c.67-5.189 3.39-10.105 7.623-13.556 3.71-3.022 8.362-4.683 13.104-4.683.848 0 1.694.054 2.528.155.361.003 1.59.003 1.76.003 4.063 0 11.275-.104 20.863-.306a48.84 48.84 0 0 1 1.297-.041c.07 0 1.056.022 1.384.041 9.593.202 16.806.306 20.87.306.169 0 1.395 0 1.756-.003a21.037 21.037 0 0 1 2.528-.155c4.744 0 9.396 1.66 13.098 4.675 4.238 3.462 6.964 8.38 7.667 13.849 0 0 16.937 105.05 16.94 105.061 2.933 18.216-16.16 25.427-24.317 28.507l-.506.19c-7.582 2.867-23.195 5.507-38.137 6.458-.361.046-.73.071-1.1.071-.191 0-.763-.033-.834-.038"/><path fill="#D6002A" d="M204.284 258.411c10.403 25.311 13.707 51.756 11.78 78.969-1.479 20.874 30.902 20.78 32.372 0 2.106-29.715-1.575-59.974-12.936-87.61-7.84-19.066-39.175-10.71-31.216 8.641"/><path fill="#EE847D" d="M218.061 363.494c.97-.15 1.96.62 2.402 1.576.854 1.846.008 3.87.97 5.685 5.086 9.624 19.224 8.674 26.1 2.884 4.387-3.695 7.038-9.34 8.03-15.206 1.678-9.894-1.783-20.044-5.193-29.231-.16-.44-.362-.919-.772-1.114-.37-.175-.793-.055-1.177.067-10.011 3.243-20.089 4.393-30.531 5.671-.194.025-.398.05-.553.173-.171.136-.252.364-.323.579-2.518 7.647-4.696 14.314-4.992 22.547-.058 1.678-.053 3.443.7 4.947.754 1.503 2.503 2.608 3.982 2.01.406-.162.766-.44 1.189-.554.055-.014.11-.026.168-.034"/><path fill="#D6002A" d="M85.502 249.773C74.14 277.405 70.46 307.67 72.562 337.38c1.47 20.746 33.856 20.91 32.375 0-1.927-27.217 1.38-53.66 11.783-78.965 7.943-19.316-23.366-27.736-31.218-8.64"/><path fill="#EE847D" d="M103.941 363.494c-.97-.15-1.96.62-2.402 1.576-.857 1.846-.008 3.87-.97 5.685-5.089 9.624-19.227 8.674-26.101 2.884-4.387-3.695-7.038-9.34-8.03-15.206-1.68-9.894 1.783-20.044 5.19-29.231.164-.44.363-.919.775-1.114.37-.175.793-.055 1.174.067 10.015 3.243 20.09 4.393 30.535 5.671.194.025.396.05.55.173.172.136.255.364.324.579 2.52 7.647 4.699 14.314 4.992 22.547.058 1.678.055 3.443-.7 4.947-.754 1.503-2.501 2.608-3.983 2.01-.403-.162-.765-.44-1.185-.554a1.804 1.804 0 0 0-.169-.034"/><g><mask id="b" fill="#fff"><use xlink:href="#a"/></mask><path fill="#D6002A" d="M160.925 279.408c-.556 0-1.115-.039-1.676-.116-.003 0-.419-.053-.622-.086-15.503-2.115-28.826-9.886-42.24-18.35-50.133-31.65-84.562-67.275-102.327-105.882C4.372 133.921-.35 111.875.018 89.451.723 47.084 33.206 1.265 80.438.576l1.173-.008c16.816 0 33.887 5.524 49.373 15.983 6.146 4.152 12.316 9.14 19.414 15.706l.782.722c2.906 2.7 6.883 6.397 9.161 6.397h.785c2.347 0 6.324-3.702 9.233-6.4l.77-.716c7.118-6.577 13.285-11.565 19.42-15.71C206.035 6.093 223.109.569 239.922.569l1.175.008c47.233.689 79.713 46.508 80.415 88.875.372 22.421-4.348 44.464-14.036 65.523-17.765 38.607-52.194 74.227-102.33 105.883-13.185 8.316-26.28 15.966-41.436 18.233-.908.21-1.844.318-2.785.318" mask="url(#b)"/></g><path fill="#AC0015" d="M159.625 256c-.433 0-.863-.03-1.3-.088-.002 0-.322-.042-.482-.07-12.004-1.627-22.321-7.62-32.708-14.146-38.828-24.404-65.489-51.873-79.247-81.641-7.501-16.233-11.157-33.231-10.873-50.521.544-32.665 25.699-67.996 62.278-68.528L98.2 41c13.022 0 26.245 4.26 38.237 12.323 4.757 3.204 9.538 7.05 15.033 12.111l.607.557c2.249 2.084 5.33 4.931 7.096 4.931h.61c1.815 0 4.896-2.85 7.145-4.933l.598-.552c5.51-5.072 10.29-8.916 15.039-12.114C194.557 45.26 207.78 41 220.802 41l.91.006c36.577.532 61.731 35.863 62.272 68.528.29 17.287-3.368 34.285-10.867 50.52-13.76 29.769-40.422 57.235-79.247 81.642-10.21 6.412-20.354 12.312-32.09 14.058a9.556 9.556 0 0 1-2.155.246"/><path fill="#F09488" d="M241.171 133.26c-2.958-16.515-13.568-29.535-26.024-36.888-15.824-9.345-29.893-7.042-46.349-1.803-2.865.913-5.607 1.358-8.297 1.531-2.695-.173-5.434-.618-8.302-1.53-16.453-5.24-30.519-7.543-46.348 1.802-12.454 7.353-23.064 20.373-26.022 36.889-2.569 14.34 1.04 29.1 7.967 40.973 3.813 6.539 9.417 12.253 16.137 16.942 14.401 10.05 35.17 15.277 56.266 15.794v.03c.102-.003.2-.014.302-.014.1 0 .198.011.3.014v-.03c21.096-.517 41.862-5.745 56.266-15.794 6.72-4.689 12.327-10.403 16.14-16.942 6.923-11.874 10.533-26.634 7.964-40.973"/><path fill="#D6002A" d="M172 153.001c0-4.97-5.596-9.001-12.499-9.001-6.905 0-12.501 4.03-12.501 9.001 0 4.97 5.596 8.999 12.501 8.999 6.903 0 12.499-4.028 12.499-8.999"/><path fill="#160403" d="M139 148.5c0-6.9-4.926-12.5-11-12.5s-11 5.6-11 12.5c0 6.904 4.926 12.5 11 12.5s11-5.596 11-12.5M205 148.5c0-6.9-4.926-12.5-11.001-12.5-6.076 0-10.999 5.6-10.999 12.5 0 6.904 4.923 12.5 10.999 12.5 6.075 0 11.001-5.596 11.001-12.5M142.234 178.05c9.574 5.063 23.884 5.367 33.527.285 5.121-2.696.542-10.169-4.584-7.468-6.693 3.525-17.763 3.201-24.355-.285-5.115-2.707-9.706 4.76-4.588 7.467"/></g></svg>