<?xml version="1.0" encoding="UTF-8"?>
<svg width="156px" height="156px" viewBox="0 0 156 156" version="1.1" xmlns="http://www.w3.org/2000/svg" xmlns:xlink="http://www.w3.org/1999/xlink">
    <title>character-info-puff</title>
    <g id="R4" stroke="none" stroke-width="1" fill="none" fill-rule="evenodd" opacity="0.15">
        <g id="D---Homepage---1440" transform="translate(-806.000000, -5917.000000)" fill="#FEFEFE">
            <g id="Characters" transform="translate(-593.000000, 5044.000000)">
                <g id="Puff-intro" transform="translate(1327.000000, 806.000000)">
                    <path d="M226.005,142.349 C224.32638,131.992399 220.510452,122.098573 214.8,113.297 C208.185,103.199 202.272,93.587 198.924,81.707 C198.384,79.763 197.682,77.873 197.034,75.983 C196.548,74.498 196.143,72.959 195.549,71.528 C195.125033,70.2342225 194.592124,68.978725 193.956,67.775 C193.14039,69.2140077 192.238754,70.6025273 191.256,71.933 C190.203,73.553 189.366,75.281 188.286,76.847 C181.05,87.323 169.575,91.859 157.344,93.533 C146.544,94.991 135.744,94.721 124.944,96.746 C102.831,100.931 80.421,120.56 74.4,142.484 C69.2137147,160.503898 72.4700981,179.903206 83.256,195.242 C92.3665714,207.169057 105.192343,215.719571 119.706,219.542 C125.003946,220.973123 130.430282,221.877512 135.906,222.242 C140.415,222.593 145.032,222.755 149.649,222.701 L149.784,222.701 C154.401,222.701 159.018,222.701 163.527,222.242 C169.002718,221.877512 174.429054,220.973123 179.727,219.542 C194.23682,215.727485 207.05637,207.174782 216.15,195.242 C222.279021,186.642808 225.939096,176.530916 226.734,166.001 C227.494159,158.1171 227.240087,150.168262 225.978,142.349" id="character-info-puff"></path>
                </g>
            </g>
        </g>
    </g>
</svg>