<?xml version="1.0" encoding="UTF-8"?>
<svg width="156px" height="135px" viewBox="0 0 156 135" version="1.1" xmlns="http://www.w3.org/2000/svg" xmlns:xlink="http://www.w3.org/1999/xlink">
    <title>character-info-heart</title>
    <g id="R4" stroke="none" stroke-width="1" fill="none" fill-rule="evenodd" opacity="0.15">
        <g id="D---Homepage---1440" transform="translate(-493.000000, -6031.000000)" fill="#FEFEFE">
            <g id="Characters" transform="translate(-593.000000, 5044.000000)">
                <g id="heart-intro" transform="translate(1014.000000, 900.000000)">
                    <path d="M149.666966,221.574831 C149.39866,221.574831 149.129026,221.556151 148.858063,221.51879 C148.856735,221.51879 148.65617,221.493438 148.55788,221.477426 C141.075864,220.456677 134.64582,216.705922 128.171943,212.621589 C103.976594,197.346371 87.3602234,180.152411 78.7863885,161.520061 C74.1109587,151.359265 71.8316867,140.719451 72.0096718,129.896837 C72.3497031,109.44982 88.0270034,87.3362469 110.82238,87.0040029 L111.388213,87 C119.503803,87 127.74292,89.6659579 135.216966,94.7136649 C138.182942,96.7178034 141.160872,99.1249045 144.586421,102.293898 L144.963643,102.642154 C146.366272,103.945778 148.285589,105.729755 149.385378,105.729755 L149.763928,105.729755 C150.896923,105.729755 152.81624,103.94311 154.220197,102.64082 L154.592106,102.295233 C158.026953,99.1209015 161.003555,96.7138004 163.964218,94.7136649 C171.438264,89.6659579 179.678709,87 187.79297,87 L188.360132,87.0040029 C211.155508,87.3362469 226.83148,109.44982 227.170183,129.896837 C227.349497,140.718117 225.071553,151.356597 220.396123,161.520061 C211.822288,180.152411 195.205917,197.343703 171.00924,212.621589 C164.645608,216.635204 158.325809,220.327248 151.011152,221.421385 C150.57283,221.522793 150.121226,221.574831 149.666966,221.574831" id="character-info-heart"></path>
                </g>
            </g>
        </g>
    </g>
</svg>