<?xml version="1.0" encoding="UTF-8"?>
<svg width="1440px" height="510px" viewBox="0 0 1440 510" version="1.1" xmlns="http://www.w3.org/2000/svg" xmlns:xlink="http://www.w3.org/1999/xlink">
    <title>character-bg-top</title>
    <g id="R4" stroke="none" stroke-width="1" fill="none" fill-rule="evenodd">
        <g id="D---Homepage---1440" transform="translate(0.000000, -5044.000000)" fill="#F5F5F5">
            <g id="Characters" transform="translate(-593.000000, 5044.000000)">
                <path d="M1838.24539,0 C1849.25817,17.5208707 1854.36381,38.2566381 1862.14534,57.1228388 C1871.1449,78.9449759 1877.32973,102.270346 1884.68211,124.780938 C1894.155,153.75922 1905.02894,182.554336 1913.18282,211.955797 C1941.99727,315.892055 1983.75527,408.342462 2033.00218,497.426021 L2033.00361,510 L593.003613,510 L593,509.003503 C660.444272,477.368559 729.969452,454.041815 799.345174,440.800854 C891.173449,423.267982 984.301716,417.101704 1077.44317,410.917347 L1092.14963,409.939059 C1157.51053,405.575693 1222.84456,400.908345 1287.70704,392.002639 C1472.09706,366.687697 1645.12087,297.507417 1754.01177,138.082652 C1770.41419,114.075143 1783.3203,87.8569978 1799.07268,63.42631 C1812.6162,42.4189502 1827.04327,22.7379721 1838.24539,0 Z" id="character-bg-top"></path>
            </g>
        </g>
    </g>
</svg>