<svg id="圖層_1" data-name="圖層 1" xmlns="http://www.w3.org/2000/svg" xmlns:xlink="http://www.w3.org/1999/xlink" viewBox="0 0 614.51 614.96"><defs><style>.cls-1,.cls-2,.cls-46{fill:none;}.cls-2{clip-rule:evenodd;}.cls-3{fill:#ffdb00;}.cls-4{clip-path:url(#clip-path);}.cls-5{clip-path:url(#clip-path-2);}.cls-6{clip-path:url(#clip-path-3);}.cls-7{clip-path:url(#clip-path-4);}.cls-8{clip-path:url(#clip-path-5);}.cls-9{fill:#fefefe;}.cls-10{clip-path:url(#clip-path-6);}.cls-11{clip-path:url(#clip-path-8);}.cls-12{clip-path:url(#clip-path-9);}.cls-13{clip-path:url(#clip-path-11);}.cls-14{clip-path:url(#clip-path-12);}.cls-15{clip-path:url(#clip-path-14);}.cls-16{clip-path:url(#clip-path-15);}.cls-17{clip-path:url(#clip-path-16);}.cls-18{clip-path:url(#clip-path-17);}.cls-19{fill:#fad9cb;}.cls-20{clip-path:url(#clip-path-19);}.cls-21{fill:#231916;}.cls-22{clip-path:url(#clip-path-21);}.cls-23{fill:#f2a078;}.cls-24{clip-path:url(#clip-path-23);}.cls-25{clip-path:url(#clip-path-25);}.cls-26{clip-path:url(#clip-path-27);}.cls-27{clip-path:url(#clip-path-29);}.cls-28{clip-path:url(#clip-path-31);}.cls-29{fill:#d6002a;}.cls-30{clip-path:url(#clip-path-33);}.cls-31{clip-path:url(#clip-path-35);}.cls-32{clip-path:url(#clip-path-37);}.cls-33{clip-path:url(#clip-path-39);}.cls-34{clip-path:url(#clip-path-40);}.cls-35{clip-path:url(#clip-path-41);}.cls-36{clip-path:url(#clip-path-42);}.cls-37{fill:#ac0015;}.cls-38{clip-path:url(#clip-path-44);}.cls-39{clip-path:url(#clip-path-46);}.cls-40{clip-path:url(#clip-path-48);}.cls-41{clip-path:url(#clip-path-50);}.cls-42{fill:#f09488;}.cls-43{clip-path:url(#clip-path-52);}.cls-44{clip-path:url(#clip-path-54);}.cls-45{clip-path:url(#clip-path-56);}.cls-46{stroke:#160403;stroke-linecap:round;stroke-linejoin:round;stroke-width:1.61px;}.cls-47{clip-path:url(#clip-path-59);}.cls-48{clip-path:url(#clip-path-61);}.cls-49{fill:#ed827a;}</style><clipPath id="clip-path"><circle class="cls-1" cx="307.26" cy="307.48" r="307.5"/></clipPath><clipPath id="clip-path-2"><rect class="cls-1" x="-198.24" y="166.98" width="1285" height="1085"/></clipPath><clipPath id="clip-path-3"><rect class="cls-1" x="-5.24" y="-5.02" width="625" height="703"/></clipPath><clipPath id="clip-path-4"><path class="cls-2" d="M432.29,562.35c-.63-2.31-1.27-4.62-1.9-6.93-3.47-12.67-6.8-25.36-10.95-37.8a97.94,97.94,0,0,1-3.5-14.63c-.48-2.83-.74-8.33-3.53-10-2-1.18-4.42-1.05-6.71-.88l-22.36,1.67v-.08l-.73.14-.74.05V494l-22.05,4.12c-2.26.43-4.68.93-6.27,2.58-2.24,2.31-1.16,7.64-.91,10.46a105,105,0,0,1,.18,14.84l-.12,2.63c-.57,12.35-.68,24.71-.84,37.07,0,2.4-.07,4.8-.09,7.2-.1,8.55.18,17.94,6.63,24.15,7.19,6.92,19.41,7.38,30.29,6.8,2.36-.12,4.76-.29,7.15-.54v0l.73-.11.73-.08v0c2.38-.38,4.74-.83,7.06-1.31,10.66-2.23,22.36-5.82,27.58-14.35,4.68-7.66,2.58-16.81.34-25.06"/></clipPath><clipPath id="clip-path-5"><rect class="cls-1" x="-0.24" y="166.98" width="615" height="448"/></clipPath><clipPath id="clip-path-6"><path class="cls-2" d="M388.4,664c-4-11.15-9.75-21.23-15.84-31.91l-.66-1.15a47.64,47.64,0,0,1-5-11c-1.72-6.25-1.1-12.43-.61-17.4L367.91,586l19.35,1.8-1.63,16.53c-.38,3.82-.77,7.76,0,10.73a32.4,32.4,0,0,0,3.24,6.74l.65,1.14c6.51,11.4,12.65,22.17,17.2,34.85Z"/></clipPath><clipPath id="clip-path-8"><path class="cls-2" d="M385.17,666.56c-2.41,3.88-4.18,9.46.59,13.14,2.31,1.78,5.8,1.43,8.78.61,4.74-1.3,11.69-3.41,14.26-7.82,1.78-3.32.75-7.06-.43-10.26-1.43-3.9-3.22-7.41-4.44-11.41a2.73,2.73,0,0,0-.76-1.43c-.73-.61-1.88-.42-2.86-.18a69.7,69.7,0,0,0-13.93,5,10.65,10.65,0,0,0-2.16,1.27,1.43,1.43,0,0,0-.51.66,1.45,1.45,0,0,0,.13.89c1,2.84,3.23,6.47,1.33,9.54"/></clipPath><clipPath id="clip-path-9"><polygon class="cls-2" points="427.4 656.98 404.76 594.21 423.12 587.98 445.76 650.75 427.4 656.98"/></clipPath><clipPath id="clip-path-11"><path class="cls-2" d="M424.16,656.57c-2.4,3.88-4.17,9.47.61,13.14,2.31,1.77,5.8,1.42,8.78.59,4.74-1.3,11.69-3.42,14.26-7.83,1.77-3.32.73-7.06-.45-10.26-1.44-3.89-3.23-7.4-4.45-11.4a2.78,2.78,0,0,0-.76-1.42c-.73-.61-1.89-.42-2.87-.18a70.5,70.5,0,0,0-13.92,5,11.18,11.18,0,0,0-2.16,1.28,1.43,1.43,0,0,0-.51.66,1.38,1.38,0,0,0,.13.89c1.05,2.83,3.24,6.46,1.34,9.53"/></clipPath><clipPath id="clip-path-12"><rect class="cls-1" x="308.87" y="377.39" width="126.84" height="131.98"/></clipPath><clipPath id="clip-path-14"><rect class="cls-1" x="306.76" y="376.98" width="130" height="133"/></clipPath><clipPath id="clip-path-15"><path class="cls-2" d="M432.56,434.75a63.58,63.58,0,0,0-3.83-9.78,61.43,61.43,0,0,0-8.36-12.68c-6.44-7.56-12.26-14.75-16.21-24.08-.64-1.52-1.43-3-2.14-4.47-.55-1.15-1-2.35-1.68-3.46a20.33,20.33,0,0,0-1.68-2.89,35.64,35.64,0,0,1-1.67,3.66c-.68,1.42-1.2,2.9-1.91,4.3-4.77,9.27-13.61,14.16-23.37,16.78-8.58,2.3-17.5,3.21-26,6-17.59,5.71-33.74,24-36.35,42.46-2.13,15,2.25,31,12.75,42,8.63,9,20.18,14.32,32.17,16.08a69.93,69.93,0,0,0,13.48.62c3.7-.19,7.47-.55,11.22-1.06h.09c3.75-.45,7.5-1,11.12-1.79a69.52,69.52,0,0,0,12.88-4c11.15-4.71,21-12.71,27.05-23.62a47.61,47.61,0,0,0,5.52-24.89,77.09,77.09,0,0,0-3.12-19.18"/></clipPath><clipPath id="clip-path-16"><rect class="cls-1" x="308.76" y="376.98" width="127" height="133"/></clipPath><clipPath id="clip-path-17"><path class="cls-2" d="M405.84,442.68a28.66,28.66,0,0,0-9.42-7.8A40.15,40.15,0,0,0,385.5,431a57,57,0,0,0-16.66-.75h0l-.41.07-.42,0h0A57.08,57.08,0,0,0,352,435.25a39.73,39.73,0,0,0-9.57,6.46,28.31,28.31,0,0,0-7.13,9.89c-4.44,10.76-3.5,24.74,5.51,33.13,5.48,5.1,12.88,8,20.6,8.93a50.3,50.3,0,0,0,8.68.23,93.56,93.56,0,0,0,13.55-1.76,47.94,47.94,0,0,0,11.19-3.79A34.53,34.53,0,0,0,409,476.11c6.58-10.37,3.91-24.12-3.15-33.43"/></clipPath><clipPath id="clip-path-19"><path class="cls-2" d="M363.83,428.84c-1.14.77-2.26,1.58-3.43,2.31-3,1.85-7.25,3.34-10.39,1.5-2.38-1.39-2.63.93-1.88,2.58a12.45,12.45,0,0,0,4.44,4.92,28.51,28.51,0,0,0,18.5,4.68c6.26-.68,16.68-4.8,15.61-12.5a7.41,7.41,0,0,0-2.93-4.75,13.4,13.4,0,0,0-9.2-2.54,22.77,22.77,0,0,0-8.23,2.28,27.6,27.6,0,0,0-2.49,1.52"/></clipPath><clipPath id="clip-path-21"><path class="cls-2" d="M376.73,465.3c-.26-2.17-2.7-3.63-5.45-3.26s-4.76,2.44-4.5,4.62,2.7,3.64,5.45,3.26,4.77-2.44,4.5-4.62"/></clipPath><clipPath id="clip-path-23"><path class="cls-2" d="M363.69,464.93c-.44-3-3-5.23-5.73-4.92s-4.58,3-4.14,6a5.48,5.48,0,0,0,5.74,4.91c2.72-.3,4.57-3,4.13-6"/></clipPath><clipPath id="clip-path-25"><path class="cls-2" d="M391.69,459.93c-.44-3-3-5.23-5.73-4.92s-4.58,3-4.14,6,3,5.22,5.74,4.91,4.57-3,4.13-6"/></clipPath><clipPath id="clip-path-27"><path class="cls-2" d="M369.69,477.91a35.7,35.7,0,0,0,12.69-1.48,1.76,1.76,0,1,0-1.07-3.34,32.74,32.74,0,0,1-11.62,1.36c-2.58-.16-2.57,3.31,0,3.46"/></clipPath><clipPath id="clip-path-29"><path class="cls-2" d="M350.37,527c-26.47-10.57-41.31-28.08-49.61-58.55L320.18,463c6.59,24.2,17.13,36.81,37.58,45Z"/></clipPath><clipPath id="clip-path-31"><path class="cls-2" d="M314.69,445a1.58,1.58,0,0,1-1.75-.75c-.86-1.17-.73-2.73-1.65-3.87-4.87-6-13.25-3.16-16.34,2-2,3.3-2.52,7.71-2,12,.82,7.27,4.81,13.93,8.59,19.91.18.28.39.59.67.67a.89.89,0,0,0,.7-.24c5.46-3.85,11.34-6.22,17.43-8.75a.63.63,0,0,0,.3-.21.85.85,0,0,0,.09-.46c.1-5.8.17-10.87-1.18-16.74a8.68,8.68,0,0,0-1.35-3.4c-.74-.95-2-1.46-2.78-.81a6.76,6.76,0,0,1-.62.58l-.09.05"/></clipPath><clipPath id="clip-path-33"><path class="cls-2" d="M436.31,560c-5.51-20.27-23.2-41.46-37.42-58.49l-.13-.17L414.12,488l.14.17c15.51,18.57,34.81,41.69,41.5,66.34Z"/></clipPath><clipPath id="clip-path-35"><path class="cls-2" d="M441.83,577a1.57,1.57,0,0,1,1.75.74c.86,1.17.73,2.74,1.65,3.88,4.87,6,13.25,3.15,16.33-2,2-3.3,2.52-7.71,2-12-.83-7.27-4.82-13.92-8.6-19.9-.18-.29-.39-.6-.68-.67a.83.83,0,0,0-.69.23c-5.46,3.85-11.34,6.23-17.43,8.76a.61.61,0,0,0-.3.2,1,1,0,0,0-.09.47c-.1,5.8-.17,10.86,1.19,16.74a8.68,8.68,0,0,0,1.35,3.4c.73,1,2,1.46,2.78.8a6.64,6.64,0,0,1,.62-.57l.09,0"/></clipPath><clipPath id="clip-path-37"><path class="cls-2" d="M323.19,598.42c9.45,8.17,16.18,18.4,21,29.94,1.56,3.74,6.93,4.49,10.06,2.68,3.82-2.2,4.19-6.52,2.65-10.21a88.54,88.54,0,0,0-23.31-33c-7.17-6.2-17.63,4.31-10.41,10.55"/></clipPath><clipPath id="clip-path-39"><path class="cls-2" d="M351.39,639.84a1.29,1.29,0,0,1,1.35.14c.75.54.83,1.48,1.62,2,4.2,2.7,10-.47,11.62-4.05a10.06,10.06,0,0,0,.13-7.44c-1.4-4.14-5-7.36-8.43-10.22a.91.91,0,0,0-.56-.28.79.79,0,0,0-.48.26A75.42,75.42,0,0,1,345,628.46a.42.42,0,0,0-.19.18.48.48,0,0,0,0,.29,31.09,31.09,0,0,0,2.72,9.66,4.32,4.32,0,0,0,1.35,1.76,1.72,1.72,0,0,0,2.1,0c.14-.14.24-.32.39-.45l.06,0"/></clipPath><clipPath id="clip-path-40"><path class="cls-2" d="M297,681.89a1,1,0,0,1-.2.32c-.79.77-2.88.39-3.91.64-3.13.79-5.9,3.46-6.09,6.78a6,6,0,0,0,2.91,5.62c2.85,1.6,6.83,1.81,10,1.71,2.49-.07,5.1-.52,7-2.1a5.9,5.9,0,0,0,2-4.41c0-2-1.37-3.26-1.68-5.14a16.3,16.3,0,0,1,0-4.3l1.08-11.54c.22-2.4-3.17-4.12-5.25-4.42a12.87,12.87,0,0,0-2.91,0,14.41,14.41,0,0,0-2.37.47c-.28,3.78,0,7.62-.27,11.43-.07.94.08,3.79-.43,4.9"/></clipPath><clipPath id="clip-path-41"><path class="cls-2" d="M338.36,681.72a1.06,1.06,0,0,0,.22.3c.81.73,2.83.24,3.85.45a7.81,7.81,0,0,1,6.29,6.49,6.08,6.08,0,0,1-2.57,5.79c-2.7,1.75-6.58,2.16-9.7,2.23a11,11,0,0,1-7-1.75,6,6,0,0,1-2.21-4.32c-.13-2,1.17-3.35,1.38-5.24a16.91,16.91,0,0,0-.25-4.32q-.81-5.76-1.63-11.52c-.34-2.41,2.89-4.3,4.91-4.7a11.8,11.8,0,0,1,2.85-.12,14.09,14.09,0,0,1,2.33.35c.46,3.78.34,7.66.83,11.46.12.93.11,3.8.66,4.9"/></clipPath><clipPath id="clip-path-42"><path class="cls-2" d="M344.15,638.14q-4.65-13.67-9.43-27.28-2.39-6.79-4.8-13.6c-.78-2.18-1.55-8.77-3.73-9.82a8.31,8.31,0,0,0-4.73-.24l-15.54,2.23v0l-.5.13-.51.07v0l-15.22,3.84a8.25,8.25,0,0,0-4.27,2c-1.61,1.8.21,8.18.33,10.49q.39,7.2.81,14.39.84,14.4,1.81,28.77c.43,6.33,1.16,13.25,6,17.57,5.43,4.82,14,4.67,21.59,3.81,1.65-.19,3.32-.41,5-.69v0l.51-.12.51-.08v0c1.64-.37,3.27-.8,4.86-1.25,7.34-2.08,15.33-5.2,18.49-11.71,2.83-5.85.84-12.52-1.2-18.52"/></clipPath><clipPath id="clip-path-44"><path class="cls-2" d="M314.83,644.19c-6.17.84-12.8,1-16.13.48l-.22,0c-3.54-.59-11.82-2-12.09-9.53l-1.61-43.73a8.62,8.62,0,0,1,6.89-9c.34-.06.69-.11,1-.14l.71-.14c1.64-.32,4.54-.94,8.39-1.78l.53-.12.56-.1c3.88-.68,6.8-1.22,8.44-1.54l.71-.14a8.17,8.17,0,0,1,1-.27,8.55,8.55,0,0,1,5.66.84,8.75,8.75,0,0,1,4.21,5l15.27,40.91c2.64,7.09-4.48,11.52-7.52,13.41l-.19.12c-2.83,1.76-8.92,4.07-14.87,5.64a3.45,3.45,0,0,1-.43.12l-.34.05"/></clipPath><clipPath id="clip-path-46"><path class="cls-2" d="M310,610.83l-.69.09h-.25c-6.39.4-12.36-1.65-18.42-4-22.64-8.68-39.3-20.22-49.5-34.3a61.27,61.27,0,0,1-10.84-25.17c-3.08-17.07,6.32-38.06,25.23-42.12l.47-.1a36.24,36.24,0,0,1,21.09,2.45,67.44,67.44,0,0,1,9,4.75l.38.23c1.38.85,3.27,2,4.18,1.83l.32-.06c.94-.19,2.24-2,3.19-3.31l.26-.35a65.3,65.3,0,0,1,6.55-7.86,36.31,36.31,0,0,1,18.55-10.38l.47-.08c19-3.52,35.7,12.27,39.35,29.22a61.43,61.43,0,0,1-.43,27.43c-4.07,16.92-15.06,34-32.67,50.71-4.63,4.39-9.29,8.51-15.19,10.64a6,6,0,0,1-1.09.35"/></clipPath><clipPath id="clip-path-48"><path class="cls-2" d="M307.65,600.87a4.78,4.78,0,0,1-.53.06h-.2c-4.93.31-9.53-1.26-14.2-3-17.46-6.64-30.3-15.47-38.16-26.23a46.57,46.57,0,0,1-8.36-19.25c-2.38-13,4.87-29.11,19.45-32.21l.36-.08A28.13,28.13,0,0,1,282.27,522a50.75,50.75,0,0,1,7,3.63l.29.18c1.07.65,2.52,1.54,3.23,1.4l.24-.05c.73-.14,1.73-1.52,2.47-2.53l.19-.27a52.21,52.21,0,0,1,5-6A28.07,28.07,0,0,1,315,510.43l.36-.07c14.66-2.69,27.52,9.39,30.34,22.35a46.65,46.65,0,0,1-.33,21c-3.14,12.93-11.61,26-25.19,38.77-3.58,3.36-7.16,6.51-11.71,8.14a4.12,4.12,0,0,1-.84.27"/></clipPath><clipPath id="clip-path-50"><path class="cls-2" d="M330.22,547.62a22.07,22.07,0,0,0-13.32-12.55c-7.07-2.46-12.5-.44-18.66,2.93a9.58,9.58,0,0,1-6.63,1.31c-7-.78-12.8-.59-18.38,4.36a21.91,21.91,0,0,0-7.47,16.65,24.53,24.53,0,0,0,6.44,15.59,22.19,22.19,0,0,0,7.79,5.44c6.55,2.84,15.27,3.27,23.73,1.82h0l.12,0,.12,0h0c8.39-1.86,16.28-5.57,21.23-10.68a22,22,0,0,0,5.1-8,24.39,24.39,0,0,0-.07-16.84"/></clipPath><clipPath id="clip-path-52"><path class="cls-2" d="M304.7,559c-.4-2.13-2.94-3.4-5.68-2.83s-4.61,2.76-4.21,4.89,2.95,3.4,5.68,2.84,4.61-2.76,4.21-4.9"/></clipPath><clipPath id="clip-path-54"><path class="cls-2" d="M291.63,559.13a5.33,5.33,0,0,0-6-4.08,4.72,4.72,0,0,0-3.76,5.78,5.32,5.32,0,0,0,6,4.08,4.71,4.71,0,0,0,3.75-5.78"/></clipPath><clipPath id="clip-path-56"><path class="cls-2" d="M317.63,554.13a5.33,5.33,0,0,0-6-4.08,4.72,4.72,0,0,0-3.76,5.78,5.32,5.32,0,0,0,6,4.08,4.71,4.71,0,0,0,3.75-5.78"/></clipPath><clipPath id="clip-path-59"><path class="cls-2" d="M290.53,603.78c-11.38-3.62-21.32-10.21-29.9-18.62-7-6.84-17.57,4-10.59,10.86,10.45,10.25,22.66,18.18,36.51,22.58,9.23,2.93,13.17-11.9,4-14.82"/></clipPath><clipPath id="clip-path-61"><path class="cls-2" d="M250.54,576.5a1.07,1.07,0,0,1-1.21.39c-.87-.23-1.32-1.12-2.21-1.31-4.7-1-8.38,4.28-8.36,8.39a11.71,11.71,0,0,0,2.88,7.26c2.88,3.47,7.31,5.19,11.39,6.66a.79.79,0,0,0,.6.05.76.76,0,0,0,.31-.44,74.56,74.56,0,0,1,6.72-12.43.6.6,0,0,0,.1-.25.57.57,0,0,0-.11-.28,35,35,0,0,0-6.24-8.32,4.4,4.4,0,0,0-1.87-1.19,1.49,1.49,0,0,0-1.81.82,5.47,5.47,0,0,1-.15.58.16.16,0,0,1,0,.07"/></clipPath></defs><circle class="cls-3" cx="307.26" cy="307.48" r="307.5"/><g class="cls-4"><g class="cls-5"><g class="cls-6"><g class="cls-7"><g class="cls-8"><rect class="cls-9" x="346.76" y="486.98" width="93" height="122"/></g></g><g class="cls-10"><g class="cls-8"><rect class="cls-9" x="360.76" y="580.98" width="51" height="88"/></g></g><g class="cls-12"><g class="cls-8"><rect class="cls-9" x="399.76" y="582.98" width="51" height="79"/></g></g><g class="cls-14"><g class="cls-8"><g class="cls-15"><g class="cls-16"><g class="cls-17"><rect class="cls-9" x="303.87" y="372.39" width="136.84" height="141.98"/></g></g></g></g></g><g class="cls-18"><g class="cls-8"><rect class="cls-19" x="327.76" y="424.98" width="90" height="74"/></g></g><g class="cls-20"><g class="cls-8"><rect class="cls-21" x="342.76" y="419.98" width="49" height="30"/></g></g><g class="cls-22"><g class="cls-8"><rect class="cls-23" x="361.76" y="456.98" width="20" height="18"/></g></g><g class="cls-24"><g class="cls-8"><rect class="cls-21" x="348.76" y="454.98" width="20" height="21"/></g></g><g class="cls-25"><g class="cls-8"><rect class="cls-21" x="376.76" y="449.98" width="20" height="21"/></g></g><g class="cls-26"><g class="cls-8"><rect class="cls-21" x="362.76" y="467.98" width="26" height="15"/></g></g><g class="cls-27"><g class="cls-8"><rect class="cls-9" x="295.76" y="457.98" width="67" height="74"/></g></g><g class="cls-28"><g class="cls-8"><rect class="cls-29" x="287.76" y="431.98" width="38" height="48"/></g></g><g class="cls-30"><g class="cls-8"><rect class="cls-9" x="393.76" y="482.98" width="67" height="82"/></g></g><g class="cls-31"><g class="cls-8"><rect class="cls-29" x="430.76" y="541.98" width="38" height="48"/></g></g><g class="cls-32"><g class="cls-8"><rect class="cls-29" x="315.76" y="580.98" width="47" height="56"/></g></g><g class="cls-36"><g class="cls-8"><rect class="cls-37" x="279.76" y="581.98" width="72" height="94"/></g></g><g class="cls-38"><g class="cls-8"><rect class="cls-29" x="279.76" y="572.98" width="64" height="77"/></g></g><g class="cls-39"><g class="cls-8"><rect class="cls-29" x="224.76" y="486.98" width="141" height="129"/></g></g><g class="cls-40"><g class="cls-8"><rect class="cls-37" x="240.76" y="504.98" width="111" height="101"/></g></g><g class="cls-41"><g class="cls-8"><rect class="cls-42" x="260.76" y="528.98" width="76" height="60"/></g></g><g class="cls-43"><g class="cls-8"><rect class="cls-29" x="289.76" y="550.98" width="20" height="18"/></g></g><g class="cls-44"><g class="cls-8"><rect class="cls-21" x="276.76" y="549.98" width="20" height="20"/></g></g><g class="cls-45"><g class="cls-8"><rect class="cls-21" x="302.76" y="544.98" width="20" height="20"/></g></g><g class="cls-8"><path class="cls-46" d="M296.76,567.41c2.26,1,4.81.52,7.14-.23a8.17,8.17,0,0,0,3.86-2.2"/></g><g class="cls-47"><g class="cls-8"><rect class="cls-29" x="242.76" y="577.98" width="58" height="46"/></g></g><g class="cls-48"><g class="cls-8"><rect class="cls-49" x="233.76" y="569.98" width="32" height="33"/></g></g></g></g></g></svg>