<svg id="圖層_1" data-name="圖層 1" xmlns="http://www.w3.org/2000/svg" xmlns:xlink="http://www.w3.org/1999/xlink" viewBox="0 0 18 18"><defs><style>.cls-1{fill:#fff;}.cls-2{clip-path:url(#clip-path);}.cls-3{clip-path:url(#clip-path-2);}</style><clipPath id="clip-path"><path class="cls-1" d="M1,8H17a1,1,0,0,1,0,2H1A1,1,0,0,1,1,8Z"/></clipPath><clipPath id="clip-path-2"><path class="cls-1" d="M10,1V17a1,1,0,0,1-2,0V1a1,1,0,0,1,2,0Z"/></clipPath></defs><path class="cls-1" d="M1,8H17a1,1,0,0,1,0,2H1A1,1,0,0,1,1,8Z"/><g class="cls-2"><rect class="cls-1" x="-5" y="3" width="28" height="12"/></g><path class="cls-1" d="M10,1V17a1,1,0,0,1-2,0V1a1,1,0,0,1,2,0Z"/><g class="cls-3"><rect class="cls-1" x="3" y="-5" width="12" height="28"/></g></svg>