<?xml version="1.0" encoding="UTF-8"?>
<svg width="1440px" height="180px" viewBox="0 0 1440 180" version="1.1" xmlns="http://www.w3.org/2000/svg" xmlns:xlink="http://www.w3.org/1999/xlink">
    <title>curve-bg-top</title>
    <g id="R4" stroke="none" stroke-width="1" fill="none" fill-rule="evenodd">
        <g id="D---Homepage---1440" transform="translate(0.000000, -3870.000000)" fill="#F9DF8D">
            <path d="M282.516407,3870 C369.957617,3870 471.859045,3883.62507 529.405007,3896.24685 C630.162897,3918.34648 714.790024,3944.58371 767.42578,3963.28671 C827.516407,3984.63863 915.549245,4008.42482 964.006163,4018.47586 C1007.66314,4027.53128 1121.31918,4046.04802 1199.01641,4046.04802 C1261.31288,4046.04802 1333.69781,4036.17714 1384.4246,4024.80219 C1399.33781,4021.45807 1419.09149,4014.35627 1440.01538,4005.71958 L1440.01641,4050 L0.0164074989,4050 L-1.03916875e-13,3892.40954 C6.69901549,3891.41857 13.8307773,3890.36555 21.4246027,3889.24685 C146.461062,3870.82688 193.416612,3870.02994 267.891446,3870.00062 L282.516407,3870 L282.516407,3870 Z" id="curve-bg-top"></path>
        </g>
    </g>
</svg>