<?xml version="1.0" encoding="utf-8"?>
<!-- Generator: Adobe Illustrator 22.0.0, SVG Export Plug-In . SVG Version: 6.00 Build 0)  -->
<svg version="1.1" id="圖層_1" xmlns="http://www.w3.org/2000/svg" xmlns:xlink="http://www.w3.org/1999/xlink" x="0px" y="0px"
	 viewBox="0 0 1440 1430" style="enable-background:new 0 0 1440 1430;" xml:space="preserve">
<style type="text/css">
	.st0{fill:#F2F0EB;}
	.st1{opacity:0.5;fill:#FEFEFE;enable-background:new    ;}
	.st2{opacity:0.25;fill:#FEFEFE;enable-background:new    ;}
	.st3{opacity:0.75;fill:#FEFEFE;enable-background:new    ;}
	.st4{fill:#EB6851;}
</style>
<g>
	<path class="st0" d="M-0.2,506.7c-18.2-48.6-18.2-81.6,0-99.1c52.6-50.6,122.4-75.9,209.4-75.9c198,0,250.2-41,304.9-128.6
		c46.3-74,65.8-182.9,60.2-229.9s435.2-365.5,756.1-171.1C1547.3-66.5,1593.8,476.1,1470,1430H-0.2V506.7z"/>
</g>
<g>
	<path class="st1" d="M1500-220c1.9,49.2,3.4,94.2,4.4,135l0.3,11.6l0.2,5.7l0.3,11.2l0.3,11c2.8,130.4,1,211.6-5.4,243.5
		c-8.2,40.6-65.1,48.5-128,54.3l-6.2,0.6l-15.6,1.4c-33.4,3-67.1,6.5-94.9,14.8c-86.8,26-138.3,53-192.3,138
		c-32.4,51-51.5,103.8-67.1,153l-1.5,5l-1.5,4.9l-1.5,4.9l-2.3,7.2l-4.4,14.3l-1.5,4.7l-1.5,4.7l-1.4,4.6l-1.4,4.6l-1.5,4.5
		c-3.6,11.3-7.3,22.2-11.2,32.7C940.5,721.5,798.8,992,440,992c-236.8,0-382.9,77.6-438.4,232.9l-1.6,4.7l-75-127.1l15-277.8
		C4.8,718.5,117.2,661.1,277.2,652.6l4.9-0.2c264.4-12.3,335.7-86.4,423.5-229.9l7.8-12.7l5.1-8.3c79.4-129.4,125.2-195.1,291.8-273
		c134.8-63.1,288.2-186.5,357.9-314L1500-220z"/>
</g>
<g>
	<path class="st2" d="M1.6,1224.9C57.1,1069.6,203.2,992,440,992c358.8,0,500.5-270.5,526.3-340.1c3.6-9.7,7-19.8,10.4-30.2l0.8-2.4
		l1.5-4.5l0.7-2.3l0.7-2.3l1.5-4.6l1.4-4.7l1.5-4.7l4.4-14.3l2.2-7.2l1.5-4.9l1.5-4.9l1.5-4.9l1.4-4.4l1.4-4.5l1.5-4.5l1-3l1-3l1-3
		l1-3l1-3l1-3l1.1-3l0.5-1.5l1.1-3l1.1-3l1.1-3l1.1-3.1l0.6-1.5l1.2-3.1c12.5-33.2,28-67.1,49-100.3c54-84.9,105.5-112,192.3-137.9
		c16.6-5,35.3-8.2,54.7-10.6l3.2-0.4l3.2-0.4l4.8-0.5l3.2-0.4l1.6-0.2l3.2-0.3l3.2-0.3l4.8-0.5l3.2-0.3l4.8-0.4l4.8-0.4l15.6-1.4
		l6.2-0.6l3.8-0.4l3.8-0.4l3.7-0.4l3.7-0.4l3.7-0.4c55.1-5.9,102-15.9,109.4-52.5c20.2-100.3,82.4,439,54,421.2
		c-55.7-34.8-214.9,52.6-216.8,53.7c-81.8,47.4-97,41.9-165.2,166.5c-41,75-109,217.4-306.6,267.7
		c-120.8,30.7-286.3,56.9-410.4,157.1c-57,46-142.7,166.8-172.5,218.3C127.8,1750.3-108,1531.9,1.6,1224.9z"/>
</g>
<g>
	<path class="st3" d="M1330.1-197.7c11.3,6.8,22,14.5,32.1,23l0,0C1289.8-51.3,1141.5,66.8,1010.6,128
		C835.2,210,793.8,278.6,706,422S546.9,639.5,282.5,651.9c-176.3,8.2-295.4,75-357.5,200.4V703.2l6.5-196.4
		c52.9-116.7,145.3-175,277.4-175c198.1,0,250.2-41,305-128.6c46.3-74,65.8-182.9,60.2-229.9S1009.2-392.1,1330.1-197.7z"/>
</g>
<g>
	<path class="st4" d="M0,407.2v-801.3l16.7-0.5l16.4-0.5l16.1-0.5l15.8-0.5c240.3-7.1,374.4-6.5,402.4,2c21.5,6.5,42,93.4,58,170.4
		l1.6,7.8l1.6,7.7l1.5,7.6l5.2,25.4l1.4,6.8c6,29.1,10.9,51.8,14.5,60.5c10.3,25.2,18,51.3,23,78l0,0c-0.3,1.1-0.3,2.2-0.2,3.3
		c5.6,47-13.9,155.9-60.2,229.9C459.6,289.9,408,331,214.8,331.8h-5.9C122.2,331.8,52.6,356.9,0,407.2L0,407.2z"/>
</g>
</svg>
