<svg id="圖層_1" data-name="圖層 1" xmlns="http://www.w3.org/2000/svg" xmlns:xlink="http://www.w3.org/1999/xlink" viewBox="0 0 1440 1700"><defs><style>.cls-1{fill:#fff;}.cls-2{fill:#eb6851;}.cls-3{mask:url(#mask);}.cls-4{fill:#f2f0eb;}.cls-10,.cls-4,.cls-6,.cls-8{fill-rule:evenodd;}.cls-5{mask:url(#mask-2-2);}.cls-10,.cls-6,.cls-8{fill:#fefefe;isolation:isolate;}.cls-6{opacity:0.5;}.cls-7{mask:url(#mask-3);}.cls-8{opacity:0.25;}.cls-9{mask:url(#mask-4);}.cls-10{opacity:0.75;}</style><mask id="mask" x="-13.79" y="-260.13" width="1551.27" height="2077.11" maskUnits="userSpaceOnUse"><g id="mask-2"><rect id="path-1" class="cls-1" width="1440" height="1816.98"/></g></mask><mask id="mask-2-2" x="-75" y="-220" width="1581.7" height="1650" maskUnits="userSpaceOnUse"><g id="mask-2-3" data-name="mask-2"><rect id="path-1-2" data-name="path-1" class="cls-1" width="1440" height="1430"/></g></mask><mask id="mask-3" x="-26.47" y="0" width="1587.76" height="1789.98" maskUnits="userSpaceOnUse"><g id="mask-2-4" data-name="mask-2"><rect id="path-1-3" data-name="path-1" class="cls-1" width="1440" height="1789.98"/></g></mask><mask id="mask-4" x="-75" y="-260" width="1515" height="1690" maskUnits="userSpaceOnUse"><g id="mask-2-5" data-name="mask-2"><rect id="path-1-4" data-name="path-1" class="cls-1" width="1440" height="1430"/></g></mask></defs><path class="cls-2" d="M214.72,331.84c193.2-.81,244.83-41.91,299-128.57C552.72,141,572.69,54,574.7,0H0V407.23q78.84-75.37,208.82-75.37Z"/><g id="R4"><g id="D---Homepage---Hover-Full-Layout---1440"><g id="event-bg-hover"><g class="cls-3"><g id="EVENT-BG"><path id="path-3" class="cls-4" d="M-.15,506.72q-27.27-72.87,0-99.1,78.93-75.89,209.36-75.89c198,0,250.18-41.05,304.94-128.59,46.29-74,65.78-182.89,60.17-229.9s435.21-365.47,756.13-171.09C1547.28-66.52,1593.79,852.57,1470,1806.48H-.15Z"/><path id="path-3-2" data-name="path-3" class="cls-4" d="M-.15,506.72q-27.27-72.87,0-99.1,78.93-75.89,209.36-75.89c198,0,250.18-41.05,304.94-128.59,46.29-74,65.78-182.89,60.17-229.9s435.21-365.47,756.13-171.09C1547.28-66.52,1593.79,842.07,1470,1796H-.15Z"/></g></g><g class="cls-5"><path id="Shape" class="cls-6" d="M1500-220q2.82,73.8,4.45,135l.29,11.55c0,1.91.1,3.81.15,5.69l.26,11.21.25,11q4.24,195.6-5.4,243.51c-8.17,40.6-65.12,48.47-128,54.32l-6.2.57-15.62,1.41c-33.4,3-67.09,6.49-94.87,14.79C1168.5,295,1117,322.08,1063,407c-32.4,50.95-51.48,103.84-67.12,153L994.33,565l-1.53,4.88-1.52,4.86L989,581.92l-4.4,14.25-1.45,4.68-1.44,4.65-1.45,4.61-1.44,4.58-1.45,4.53c-3.62,11.29-7.29,22.21-11.15,32.65C940.53,721.53,798.77,992,440,992Q84.82,992,1.65,1224.87L0,1229.6l-75-127.06,15-277.81q97.13-159.4,337.21-172.16l4.87-.24c264.4-12.34,335.74-86.44,423.5-229.87l7.77-12.71,5.07-8.26c79.4-129.36,125.16-195.13,291.75-273C1145,65.41,1298.39-58,1368.14-185.46Z"/></g><g class="cls-7"><path id="Shape-2" data-name="Shape" class="cls-8" d="M1.65,1224.87Q84.83,992,440,992c358.77,0,500.53-270.47,526.26-340.13,3.59-9.7,7-19.8,10.37-30.23l.78-2.42,1.45-4.53.72-2.29.72-2.29,1.45-4.61,1.44-4.65,1.45-4.68,4.4-14.25,2.24-7.23,1.52-4.86,1.53-4.88,1.55-4.91,1.42-4.44,1.44-4.45,1.46-4.48,1-3,1-3,1-3,1-3,1-3,1-3,1.06-3c.18-.5.36-1,.53-1.51l1.08-3,1.1-3c.36-1,.73-2,1.1-3.06l1.13-3,.56-1.53,1.15-3.07c12.52-33.21,28-67.14,49-100.26,54-84.92,105.5-112,192.31-137.94,16.58-4.95,35.26-8.18,54.73-10.62l3.17-.39,3.17-.38,4.79-.54,3.2-.35,1.61-.17,3.21-.33,3.22-.33,4.84-.47,3.23-.31,4.85-.45,4.85-.45,15.62-1.41,6.2-.57,3.77-.35,3.75-.36,3.73-.37,3.71-.38,3.68-.39c55.14-5.9,102-15.93,109.36-52.47,20.2-100.34,82.36,439,54,421.25-55.73-34.85-214.87,52.57-216.75,53.66C1255.31,720.46,1240.13,715,1172,839.61c-41,75-109,217.39-306.59,267.66C744.61,1138,579.15,1164.21,455,1264.33c-57.05,46-142.7,166.79-172.5,218.34C127.81,1750.29-108,1531.9,1.65,1224.87Z"/></g><g class="cls-9"><path id="Combined-Shape" class="cls-10" d="M1330.07-197.72a258.7,258.7,0,0,1,32.11,23h0C1289.8-51.25,1141.47,66.8,1010.6,128,835.24,210,793.76,278.57,706,422S546.91,639.54,282.5,651.87Q18.1,664.22-75,852.3h0V703.21l6.46-196.37q79.31-175,277.36-175c198.06,0,250.19-41.05,305-128.59,46.29-74,65.77-182.9,60.17-229.9S1009.15-392.1,1330.07-197.72Z"/></g></g></g></g></svg>