<svg id="圖層_1" data-name="圖層 1" xmlns="http://www.w3.org/2000/svg" xmlns:xlink="http://www.w3.org/1999/xlink" viewBox="0 0 1440 1430"><defs><style>.cls-1{fill:#fff;}.cls-1,.cls-11,.cls-3,.cls-5,.cls-7,.cls-9{fill-rule:evenodd;}.cls-2{mask:url(#mask);}.cls-3{fill:#f2f0eb;}.cls-4{mask:url(#mask-2);}.cls-5,.cls-7,.cls-9{fill:#fefefe;isolation:isolate;}.cls-5{opacity:0.5;}.cls-6{mask:url(#mask-3);}.cls-7{opacity:0.25;}.cls-8{mask:url(#mask-4);}.cls-9{opacity:0.75;}.cls-10{mask:url(#mask-5);}.cls-11{fill:#eb6851;}</style><mask id="mask" x="-13.79" y="-260.13" width="1551.27" height="1690.13" maskUnits="userSpaceOnUse"><g id="ncmjwib82b"><path id="vq4t7ohvaa" class="cls-1" d="M0,0H1440V1430H0Z"/></g></mask><mask id="mask-2" x="-75" y="-220" width="1581.7" height="1650" maskUnits="userSpaceOnUse"><g id="ncmjwib82b-2" data-name="ncmjwib82b"><path id="vq4t7ohvaa-2" data-name="vq4t7ohvaa" class="cls-1" d="M0,0H1440V1430H0Z"/></g></mask><mask id="mask-3" x="-26.47" y="0" width="1587.76" height="1603.32" maskUnits="userSpaceOnUse"><g id="ncmjwib82b-3" data-name="ncmjwib82b"><path id="vq4t7ohvaa-3" data-name="vq4t7ohvaa" class="cls-1" d="M0,0H1440V1430H0Z"/></g></mask><mask id="mask-4" x="-75" y="-260" width="1515" height="1690" maskUnits="userSpaceOnUse"><g id="ncmjwib82b-4" data-name="ncmjwib82b"><path id="vq4t7ohvaa-4" data-name="vq4t7ohvaa" class="cls-1" d="M0,0H1440V1430H0Z"/></g></mask><mask id="mask-5" x="0" y="-401.03" width="1440" height="1831.03" maskUnits="userSpaceOnUse"><g id="ncmjwib82b-5" data-name="ncmjwib82b"><path id="vq4t7ohvaa-5" data-name="vq4t7ohvaa" class="cls-1" d="M0,0H1440V1430H0Z"/></g></mask></defs><g class="cls-2"><path class="cls-3" d="M-.15,506.72q-27.27-72.87,0-99.1,78.93-75.89,209.36-75.89c198,0,250.18-41.05,304.94-128.59,46.29-74,65.78-182.89,60.17-229.9s435.21-365.47,756.13-171.09Q1655.69-.86,1470,1430H-.15V506.72Z"/></g><g class="cls-4"><path class="cls-5" d="M1500-220q2.82,73.8,4.44,135l.3,11.55.15,5.69.26,11.2.25,11q4.24,195.6-5.4,243.51c-8.17,40.6-65.12,48.47-128,54.32l-6.2.57-15.62,1.41c-33.4,3-67.09,6.49-94.87,14.79C1168.5,295,1117,322.08,1063,407c-32.4,50.95-51.48,103.84-67.12,153L994.33,565l-1.53,4.88-1.52,4.86L989,581.92l-4.4,14.25-1.45,4.68-1.45,4.65-1.44,4.61-1.44,4.58-1.45,4.53c-3.62,11.29-7.29,22.21-11.15,32.66C940.53,721.53,798.77,992,440,992Q84.82,992,1.65,1224.87L0,1229.6l-75-127.06,15-277.82Q37.16,665.33,277.24,652.57l4.87-.24c264.4-12.34,335.74-86.44,423.5-229.87l7.78-12.71,5.06-8.26c79.4-129.35,125.16-195.13,291.75-273C1145,65.41,1298.39-58,1368.14-185.46L1500-220Z"/></g><g class="cls-6"><path class="cls-7" d="M1.65,1224.87Q84.83,992,440,992c358.78,0,500.53-270.47,526.26-340.12,3.59-9.71,7-19.81,10.37-30.24l.78-2.42,1.45-4.53.72-2.29.72-2.29,1.45-4.61,1.44-4.65,1.45-4.68,4.4-14.25,2.24-7.23,1.52-4.86,1.53-4.88,1.55-4.91,1.42-4.44,1.44-4.45,1.46-4.48,1-3,1-3,1-3,1-3,1-3,1-3,1.06-3,.53-1.51,1.08-3,1.09-3,1.11-3.05,1.13-3.06.56-1.53,1.15-3.07c12.52-33.21,28-67.14,49-100.26,54-84.91,105.5-112,192.31-137.94,16.58-4.95,35.26-8.18,54.73-10.62l3.17-.39,3.17-.38,4.79-.54,3.2-.35,1.61-.17,3.21-.33,3.22-.33,4.84-.47,3.23-.31,4.85-.45,4.85-.45,15.62-1.41,6.2-.57,3.77-.35,3.75-.36,3.73-.37,3.71-.38,3.68-.39c55.14-5.9,102-15.93,109.36-52.47,20.2-100.34,82.36,439,54,421.25-55.73-34.85-214.87,52.57-216.75,53.66C1255.31,720.46,1240.13,715,1172,839.61c-41,75-109,217.39-306.59,267.66C744.61,1138,579.15,1164.21,455,1264.33c-57.05,46-142.7,166.79-172.5,218.34C127.8,1750.29-108,1531.9,1.65,1224.87Z"/></g><g class="cls-8"><path class="cls-9" d="M1330.07-197.72a258,258,0,0,1,32.11,23h0C1289.8-51.25,1141.47,66.8,1010.6,128,835.24,210,793.76,278.57,706,422S546.91,639.54,282.5,651.88Q18.1,664.21-75,852.3V703.21l6.46-196.37q79.31-175,277.36-175c198.06,0,250.19-41.05,305-128.59,46.29-74,65.77-182.9,60.17-229.9S1009.15-392.1,1330.07-197.72Z"/></g><g class="cls-10"><path class="cls-11" d="M0,407.23V-394.1l16.72-.55,16.43-.52,16.12-.5,15.82-.47q360.42-10.71,402.38,2c21.51,6.53,42,93.41,58,170.36l1.62,7.79,1.58,7.7,1.55,7.59,5.16,25.38,1.4,6.83c6,29.12,10.88,51.85,14.46,60.48A400.84,400.84,0,0,1,574.2-30l0,0a10,10,0,0,0-.23,3.33c5.6,47-13.88,155.89-60.17,229.9-54.22,86.66-105.85,127.76-299,128.57l-5.9,0q-130,0-208.82,75.37Z"/></g></svg>