<svg xmlns="http://www.w3.org/2000/svg" id="圖層_1" data-name="圖層 1" viewBox="0 0 1440 1700"><defs><style>.cls-1{fill:#fff}.cls-4{fill:#f2f0eb;fill-rule:evenodd}</style><mask id="mask" width="1551.27" height="2077.11" x="-13.79" y="-260.13" maskUnits="userSpaceOnUse"><g id="mask-2"><path id="path-1" d="M0 0h1440v1816.98H0z" class="cls-1"/></g></mask><mask id="mask-2-2" width="1581.7" height="1650" x="-75" y="-220" maskUnits="userSpaceOnUse"><g id="mask-2-3" data-name="mask-2"><path id="path-1-2" d="M0 0h1440v1430H0z" class="cls-1" data-name="path-1"/></g></mask><mask id="mask-3" width="1587.76" height="1789.98" x="-26.47" y="0" maskUnits="userSpaceOnUse"><g id="mask-2-4" data-name="mask-2"><path id="path-1-3" d="M0 0h1440v1789.98H0z" class="cls-1" data-name="path-1"/></g></mask><mask id="mask-4" width="1515" height="1690" x="-75" y="-260" maskUnits="userSpaceOnUse"><g id="mask-2-5" data-name="mask-2"><path id="path-1-4" d="M0 0h1440v1430H0z" class="cls-1" data-name="path-1"/></g></mask></defs><path fill="#eb6851" d="M214.72 331.84c193.2-.81 244.83-41.91 299-128.57C552.72 141 572.69 54 574.7 0H0v407.23q78.84-75.37 208.82-75.37z"/><g id="R4"><g id="D---Homepage---Hover-Full-Layout---1440"><g id="event-bg-hover"><g mask="url(#mask)"><g id="EVENT-BG"><path id="path-3" d="M-.15 506.72q-27.27-72.87 0-99.1 78.93-75.89 209.36-75.89c198 0 250.18-41.05 304.94-128.59 46.29-74 65.78-182.89 60.17-229.9s435.21-365.47 756.13-171.09C1547.28-66.52 1593.79 852.57 1470 1806.48H-.15z" class="cls-4"/><path id="path-3-2" d="M-.15 506.72q-27.27-72.87 0-99.1 78.93-75.89 209.36-75.89c198 0 250.18-41.05 304.94-128.59 46.29-74 65.78-182.89 60.17-229.9s435.21-365.47 756.13-171.09C1547.28-66.52 1593.79 842.07 1470 1796H-.15z" class="cls-4" data-name="path-3"/></g></g><g mask="url(#mask-2-2)"><path id="Shape" d="M1500-220q2.82 73.8 4.45 135l.29 11.55c0 1.91.1 3.81.15 5.69l.26 11.21.25 11q4.24 195.6-5.4 243.51c-8.17 40.6-65.12 48.47-128 54.32l-6.2.57-15.62 1.41c-33.4 3-67.09 6.49-94.87 14.79C1168.5 295 1117 322.08 1063 407c-32.4 50.95-51.48 103.84-67.12 153l-1.55 5-1.53 4.88-1.52 4.86-2.28 7.18-4.4 14.25-1.45 4.68-1.44 4.65-1.45 4.61-1.44 4.58-1.45 4.53c-3.62 11.29-7.29 22.21-11.15 32.65C940.53 721.53 798.77 992 440 992Q84.82 992 1.65 1224.87L0 1229.6l-75-127.06 15-277.81q97.13-159.4 337.21-172.16l4.87-.24c264.4-12.34 335.74-86.44 423.5-229.87l7.77-12.71 5.07-8.26c79.4-129.36 125.16-195.13 291.75-273C1145 65.41 1298.39-58 1368.14-185.46z" style="isolation:isolate" fill="#fefefe" fill-rule="evenodd" opacity=".5"/></g><g mask="url(#mask-3)"><path id="Shape-2" fill="#fefefe" fill-rule="evenodd" d="M1.65 1224.87Q84.83 992 440 992c358.77 0 500.53-270.47 526.26-340.13 3.59-9.7 7-19.8 10.37-30.23l.78-2.42 1.45-4.53.72-2.29.72-2.29 1.45-4.61 1.44-4.65 1.45-4.68 4.4-14.25 2.24-7.23 1.52-4.86 1.53-4.88 1.55-4.91 1.42-4.44 1.44-4.45 1.46-4.48 1-3 1-3 1-3 1-3 1-3 1-3 1.06-3c.18-.5.36-1 .53-1.51l1.08-3 1.1-3c.36-1 .73-2 1.1-3.06l1.13-3 .56-1.53 1.15-3.07c12.52-33.21 28-67.14 49-100.26 54-84.92 105.5-112 192.31-137.94 16.58-4.95 35.26-8.18 54.73-10.62l3.17-.39 3.17-.38 4.79-.54 3.2-.35 1.61-.17 3.21-.33 3.22-.33 4.84-.47 3.23-.31 4.85-.45 4.85-.45 15.62-1.41 6.2-.57 3.77-.35 3.75-.36 3.73-.37 3.71-.38 3.68-.39c55.14-5.9 102-15.93 109.36-52.47 20.2-100.34 82.36 439 54 421.25-55.73-34.85-214.87 52.57-216.75 53.66-81.85 47.34-97.03 41.88-165.16 166.49-41 75-109 217.39-306.59 267.66-120.8 30.73-286.26 56.94-410.41 157.06-57.05 46-142.7 166.79-172.5 218.34-154.69 267.62-390.5 49.23-280.85-257.8z" data-name="Shape" style="isolation:isolate" opacity=".25"/></g><g mask="url(#mask-4)"><path id="Combined-Shape" d="M1330.07-197.72a258.7 258.7 0 0 1 32.11 23C1289.8-51.25 1141.47 66.8 1010.6 128 835.24 210 793.76 278.57 706 422S546.91 639.54 282.5 651.87Q18.1 664.22-75 852.3V703.21l6.46-196.37q79.31-175 277.36-175c198.06 0 250.19-41.05 305-128.59 46.29-74 65.77-182.9 60.17-229.9s435.16-365.45 756.08-171.07z" style="isolation:isolate" fill="#fefefe" fill-rule="evenodd" opacity=".75"/></g></g></g></g></svg>