<?xml version="1.0" encoding="UTF-8"?>
<svg width="104px" height="288px" viewBox="0 0 104 288" version="1.1" xmlns="http://www.w3.org/2000/svg" xmlns:xlink="http://www.w3.org/1999/xlink">
    <title>event-character-04</title>
    <defs>
        <polygon id="path-1" points="0.19456 0.165127866 37.1196942 0.165127866 37.1196942 58.1985157 0.19456 58.1985157"></polygon>
        <polygon id="path-3" points="0.192 0.7695 86.8436625 0.7695 86.8436625 91.5712262 0.192 91.5712262"></polygon>
        <polygon id="path-5" points="0.19343696 0.528255653 74.8796822 0.528255653 74.8796822 70.3431077 0.19343696 70.3431077"></polygon>
        <polygon id="path-7" points="0.193939394 0.541473501 49.9026071 0.541473501 49.9026071 82.9151738 0.193939394 82.9151738"></polygon>
        <polygon id="path-9" points="0.197818182 0.279 15.9762909 0.279 15.9762909 60.8923171 0.197818182 60.8923171"></polygon>
        <polygon id="path-11" points="0.192 0.87428359 17.0494893 0.87428359 17.0494893 22.9641375 0.192 22.9641375"></polygon>
        <polygon id="path-13" points="0.192 0.40947541 68.9625879 0.40947541 68.9625879 91.921169 0.192 91.921169"></polygon>
        <polygon id="path-15" points="0.192 0.357031266 50.8204434 0.357031266 50.8204434 47.3596148 0.192 47.3596148"></polygon>
        <polygon id="path-17" points="0.274374757 0.1439922 25.5014118 0.1439922 25.5014118 27.3199512 0.274374757 27.3199512"></polygon>
    </defs>
    <g id="R4" stroke="none" stroke-width="1" fill="none" fill-rule="evenodd">
        <g id="D---Homepage---Event---1440-Copy" transform="translate(-1362.000000, -598.000000)">
            <g id="event-character-04" transform="translate(1362.000000, 598.000000)">
                <g id="Group-3" transform="translate(0.000000, 67.000000)">
                    <mask id="mask-2" fill="white">
                        <use xlink:href="#path-1"></use>
                    </mask>
                    <g id="Clip-2"></g>
                    <path d="M3.119192,55.0730205 C-1.633848,52.8204308 -6.415768,49.9022 -8.511848,47.9763795 L-8.651688,47.8477897 C-10.880008,45.8009436 -16.102728,41.0083282 -12.780008,35.5319179 L6.431272,3.85950769 C7.323512,2.27861026 8.841992,1.0502 10.656872,0.48894359 C12.246792,-0.00121025641 13.965912,0.0668666667 15.495032,0.681071795 C15.767112,0.791507692 16.034632,0.918584615 16.289992,1.05927692 C16.405512,1.10768718 16.802232,1.26653333 16.855432,1.28771282 C18.167192,1.81417436 20.507992,2.71430256 23.627032,3.89278974 C23.737992,3.92909744 24.023752,4.03650769 24.051112,4.04709744 C24.073912,4.05617436 24.388552,4.19081538 24.493432,4.24073846 C27.560792,5.54781538 29.875752,6.51602051 31.185992,7.04248205 C31.240712,7.06517436 31.635912,7.22402051 31.752952,7.26940513 C32.034152,7.34353333 32.315352,7.43732821 32.588952,7.54625128 C34.121112,8.16196923 35.403992,9.29809744 36.205032,10.7473795 C37.121592,12.4099692 37.358712,14.3433538 36.873832,16.1935333 C36.873832,16.1935333 28.643032,52.1638667 28.643032,52.1668923 C27.215752,58.4042513 20.114312,58.2484308 17.081912,58.1818667 L16.893432,58.1773282 C14.073832,58.1183282 8.691512,56.9428667 3.748472,55.313559 C3.625352,55.2802769 3.503752,55.2409436 3.383672,55.1940462 C3.322872,55.1683282 3.141992,55.0836103 3.119192,55.0730205" id="Fill-1" fill="#D80029" mask="url(#mask-2)"></path>
                </g>
                <g id="Group-6">
                    <mask id="mask-4" fill="white">
                        <use xlink:href="#path-3"></use>
                    </mask>
                    <g id="Clip-5"></g>
                    <path d="M25.35405,91.47285 C25.18305,91.43835 25.01205,91.39185 24.84555,91.33335 C24.84405,91.33335 24.71955,91.29135 24.65955,91.26885 C20.02155,89.66535 16.40055,86.46735 12.79605,83.04885 C-0.67995,70.26885 -9.08295,57.24135 -12.17745,44.32785 C-13.86495,37.28535 -13.96545,30.24585 -12.47595,23.40285 C-9.66045,10.47585 3.13905,-1.54965 17.70705,1.15035 L18.06855,1.22085 C23.24055,2.25585 28.15155,5.00085 32.27205,9.15735 C33.90705,10.80735 35.50005,12.71385 37.27905,15.16035 L37.47555,15.43035 C38.20305,16.43685 39.19905,17.81385 39.90105,17.95335 C39.92805,17.95935 40.14255,18.00285 40.14255,18.00285 C40.86405,18.14685 42.31455,17.25885 43.37505,16.61085 L43.65555,16.43985 C46.24755,14.86485 48.44955,13.71885 50.59155,12.82785 C55.99605,10.58085 61.58505,9.94185 66.75705,10.97685 L67.11705,11.05185 C81.59955,14.17335 88.77705,30.20385 86.39355,43.21635 C85.13355,50.10285 82.32855,56.56185 78.05805,62.41035 C70.22655,73.13535 57.45255,81.91785 40.09155,88.51935 C35.52705,90.25335 31.03005,91.78635 26.23005,91.54635 C25.93755,91.55535 25.64355,91.53135 25.35405,91.47285" id="Fill-4" fill="#D6002A" mask="url(#mask-4)"></path>
                </g>
                <g id="Group-9" transform="translate(0.000000, 13.000000)">
                    <mask id="mask-6" fill="white">
                        <use xlink:href="#path-5"></use>
                    </mask>
                    <g id="Clip-8"></g>
                    <path d="M27.0196675,70.2671491 C26.8866796,70.2402781 26.7536917,70.2044503 26.6237263,70.1611582 C26.622215,70.1611582 26.5270078,70.128316 26.4801598,70.1118949 C22.8698402,68.8788184 20.0514033,66.4186366 17.2450561,63.7912581 C6.75563472,53.9654595 0.216558722,43.9485788 -2.19233592,34.019775 C-3.50559154,28.6052853 -3.5841753,23.1922884 -2.42355354,17.93156 C-0.232275475,7.9937992 9.72972798,-1.25278186 21.0684585,0.822250056 L21.3495466,0.87599189 C25.3739421,1.67316242 29.1973446,3.7825294 32.4041667,6.97867568 C33.6766192,8.24758009 34.9173359,9.71353788 36.3016192,11.5945021 L36.454253,11.8020053 C37.0209629,12.5752905 37.7962219,13.6337061 38.3417746,13.7411898 C38.3629318,13.7456682 38.5291667,13.7785105 38.5291667,13.7785105 C39.0913428,13.8904726 40.2202288,13.2082499 41.0453584,12.7096451 L41.2644862,12.5782762 C43.2819732,11.3675921 44.997215,10.4853303 46.6625864,9.80161478 C50.868329,8.07291913 55.2191494,7.58177848 59.2435449,8.37745618 L59.524633,8.4356765 C70.7983808,10.8361451 76.3838731,23.160939 74.5295984,33.165877 C73.5473014,38.4594476 71.3650907,43.4260888 68.0419041,47.9224888 C61.9441062,56.1688747 52.0032599,62.920939 38.491386,67.9965566 C34.9369819,69.3296526 31.4384931,70.5089873 27.7012306,70.3238765 C27.4745466,70.3298479 27.2448402,70.3119339 27.0196675,70.2671491" id="Fill-7" fill="#AC0015" mask="url(#mask-6)"></path>
                </g>
                <path d="M58.9966701,51.5877571 C59.1033736,46.3089762 56.6341654,41.6372627 53.2452035,38.5989208 C48.9364878,34.7371312 44.4519369,34.5778512 39.050638,35.1759026 C38.1083413,35.2810875 37.2351763,35.2480294 36.3935716,35.1353313 C35.573007,34.9144429 34.7539453,34.6094066 33.9243634,34.1495982 C29.1692967,31.515467 24.9702903,29.9346878 19.5073738,31.838535 C15.2076754,33.336669 11.1273953,36.6965762 9.19320728,41.6087125 C7.51450641,45.8732101 7.7158904,50.648606 9.11956686,54.7418024 C9.89203978,56.9942626 11.2686647,59.1024692 13.054069,60.9657451 C16.8788619,64.9552592 22.9639647,67.8523528 29.445824,69.3174286 L29.4443211,69.3264445 C29.4743784,69.332455 29.5059386,69.3354603 29.5359959,69.3399682 C29.5675561,69.3474814 29.5976134,69.3564973 29.6291736,69.3640105 L29.6306765,69.3549946 C36.1741532,70.5 42.908494,70.1709292 47.9746539,67.9620456 C50.3386614,66.9312333 52.423136,65.5157447 54.0041506,63.735114 C56.8761268,60.4999261 58.9034924,56.1693122 58.9966701,51.5877571" id="Fill-10" fill="#F09488"></path>
                <path d="M36.9555393,53.7779304 C37.2819028,52.1781804 35.7764712,50.532858 33.5911156,50.1038484 C31.40576,49.6732674 29.3707876,50.62086 29.0444241,52.22061 C28.7180606,53.8203599 30.225092,55.4656824 32.4088478,55.8962634 C34.5942034,56.3268444 36.6307756,55.3776804 36.9555393,53.7779304" id="Fill-12" fill="#D6002A"></path>
                <path d="M26.9091611,49.6842276 C27.3447384,47.5082606 26.1719119,45.4370851 24.2895407,45.0595271 C22.4056304,44.6819691 20.5278766,46.1398054 20.0907601,48.3157724 C19.6551828,50.4917394 20.8295485,52.5629149 22.7103806,52.9404729 C24.5942909,53.3180309 26.4735838,51.8601946 26.9091611,49.6842276" id="Fill-14" fill="#231916"></path>
                <path d="M46.9091621,53.6842276 C47.3447346,51.5082606 46.1719212,49.4370851 44.2895712,49.0595271 C42.405682,48.6819691 40.5264103,50.1398054 40.0908379,52.3157724 C39.6552654,54.4917394 40.8280788,56.5629149 42.7104288,56.9404729 C44.594318,57.3180309 46.4735897,55.8601946 46.9091621,53.6842276" id="Fill-16" fill="#231916"></path>
                <path d="M37.1918619,59.0436531 L27.1321916,57.0250473 C26.6146666,56.9220268 26.1329359,57.1459845 26.0568732,57.5282057 C25.6034796,59.790179 27.9107161,62.1686102 31.2008025,62.828539 C34.4908889,63.4884679 37.5363814,62.1850338 37.989775,59.9215675 C38.0658377,59.5408393 37.7093868,59.1481667 37.1918619,59.0436531" id="Fill-18" fill="#231916"></path>
                <path d="M48.7587752,82.7669637 C53.5894509,89.3537009 61.0630401,93.7750167 69.5849952,92.8866007 C78.1615684,91.992252 85.1435939,87.2490893 90.2443261,80.6193404 C91.8859062,78.4850655 90.6661,74.8438947 88.3782046,73.6618119 C85.6457778,72.2498385 83.0150016,73.2079633 81.262668,75.4861052 C81.9165691,74.6347684 81.0077831,75.7827383 80.9410275,75.8598629 C80.69828,76.1416643 80.4479466,76.4175331 80.1930617,76.6874691 C79.6908778,77.2228918 79.1659363,77.7375502 78.6197544,78.2314442 C78.3512149,78.4746833 78.0766068,78.713473 77.7974471,78.9448467 C77.6700047,79.0501515 76.5336429,79.8466113 77.4894612,79.2058838 C76.9007985,79.6004058 76.3273075,80.0097594 75.7189215,80.3761013 C75.1211557,80.7335441 74.5097354,81.0672563 73.8831434,81.3713052 C73.7132201,81.4543624 72.432727,81.9942346 73.6221898,81.5255544 C73.306618,81.6501403 72.9880119,81.7687935 72.6678886,81.8800309 C72.0337107,82.1010225 71.3904298,82.2923508 70.7365287,82.4510495 C70.4148882,82.5296573 70.0917306,82.6008492 69.7655386,82.6631422 C69.4696901,82.7195025 68.2407808,82.7892112 69.5849952,82.7165361 C68.2620212,82.7877281 67.0073199,82.7995934 65.6858631,82.7224688 C67.1089705,82.805526 65.0137559,82.5548711 64.5828791,82.4421505 C64.2673073,82.3576101 63.9547699,82.2656539 63.6437496,82.1633155 C63.6088547,82.1514501 62.4406322,81.7124332 63.1552203,82.0046168 C63.8637396,82.2923508 62.8229596,81.8385023 62.6864141,81.7702767 C62.3222928,81.5893305 61.9672746,81.3935527 61.6198422,81.1888759 C61.3224765,81.0123792 61.0387653,80.822534 60.7505026,80.6356552 C60.3363147,80.3627528 60.0890157,80.1061652 60.6200259,80.5555643 C60.0647409,80.0854009 59.518559,79.610788 59.0087892,79.0901969 C58.6901831,78.7668669 58.3928174,78.427222 58.089383,78.0890604 C57.3778293,77.2881511 58.4550214,78.6052019 57.7419506,77.6352118 C56.1610574,75.4772062 53.1388508,74.2268979 50.6248968,75.8109184 C48.4371348,77.188779 47.0640941,80.454709 48.7587752,82.7669637" id="Fill-20" fill="#D6002A"></path>
                <path d="M87.5002711,68.2591097 C87.7065894,68.4927298 88.1145722,68.5178662 88.4294791,68.3847914 C89.0329213,68.1319493 89.259406,67.4872759 89.8845659,67.2610488 C93.1980686,66.0678115 96.4727897,69.1965476 96.9242079,71.9585887 C97.2127432,73.7210903 96.6542877,75.5811801 95.6428627,77.149984 C93.9349196,79.7996508 90.9099523,81.4497782 88.1037133,82.8899431 C87.9687533,82.9579591 87.8167293,83.0274537 87.6740129,82.9890099 C87.5452578,82.9535233 87.4676946,82.8381918 87.3994389,82.731732 C85.6309965,79.9164609 83.3971744,77.5758233 81.1013018,75.1316831 C81.0594176,75.0858462 81.0144309,75.0370521 81.0035721,74.9779078 C80.9896107,74.9113704 81.0190847,74.8418758 81.0485587,74.776817 C82.0661888,72.4775804 82.9581663,70.4770228 84.6490455,68.5001229 C84.9949777,68.0979413 85.3750377,67.6868881 85.8807502,67.4917117 C86.3880139,67.2965354 87.0566093,67.3985594 87.2908503,67.8436206 C87.3560035,67.9648665 87.3870288,68.1038557 87.4661433,68.21623 C87.4754509,68.2310161 87.487861,68.2458022 87.5002711,68.2591097" id="Fill-22" fill="#EE847D"></path>
                <g id="Group-26" transform="translate(0.000000, 150.000000)">
                    <mask id="mask-8" fill="white">
                        <use xlink:href="#path-7"></use>
                    </mask>
                    <g id="Clip-25"></g>
                    <path d="M49.7963636,59.0229 C49.7145455,57.2469 49.6236364,55.4709 49.5387879,53.6949 C49.0751515,43.9674 48.7190909,34.2384 47.71,24.5559 C47.3251515,20.8539 47.3509091,17.1174 47.5509091,13.4049 C47.6645455,11.2779 48.3812121,7.2579 46.6069697,5.5764 C45.3615152,4.4004 43.5175758,4.0869 41.7978788,3.8319 C36.2069697,3.0009 30.6190909,2.1714 25.0281818,1.3404 L25.0342424,1.2789 C24.8478788,1.2729 24.6615152,1.2654 24.4736364,1.2579 C24.2887879,1.2309 24.1039394,1.2024 23.9190909,1.1754 L23.9130303,1.2354 C18.2645455,1.0149 12.6175758,0.7929 6.97060606,0.5724 C5.23121212,0.5034 3.3630303,0.4689 1.91606061,1.3944 C-0.114242424,2.6979 -0.205151515,6.7239 -0.479393939,8.8089 C-0.968787879,12.5169 -1.79757576,15.9519 -2.80515152,19.5684 L-3.32939394,21.4449 C-5.79,30.2814 -7.91272727,39.2019 -10.0733333,48.1149 C-10.4930303,49.8429 -10.9172727,51.5709 -11.3354545,53.3019 C-12.8172727,59.4699 -14.1687879,66.3024 -10.4354545,71.8569 C-6.27484848,78.0459 2.6630303,80.3994 10.7812121,81.7824 C12.540303,82.0839 14.3372727,82.3539 16.1448485,82.5729 L16.1433333,82.5984 C16.329697,82.6134 16.5160606,82.6239 16.7024242,82.6374 C16.8872727,82.6584 17.0721212,82.6824 17.2584848,82.7019 L17.2615152,82.6764 C19.079697,82.7979 20.8948485,82.8654 22.6812121,82.8969 C30.9175758,83.0454 40.1418182,82.3914 45.4009091,77.0829 C50.1175758,72.3204 50.0842424,65.3574 49.7963636,59.0229" id="Fill-24" fill="#FEFEFE" mask="url(#mask-8)"></path>
                </g>
                <g id="Group-29" transform="translate(0.000000, 216.000000)">
                    <mask id="mask-10" fill="white">
                        <use xlink:href="#path-9"></use>
                    </mask>
                    <g id="Clip-28"></g>
                    <path d="M1.53247273,60.8923171 C0.510927273,52.0595854 -1.96952727,43.725878 -4.59370909,34.9037317 L-4.87961818,33.9404634 C-5.65543636,31.333439 -6.53634545,28.3770976 -6.66307273,25.0351463 C-6.85161818,20.1689024 -5.35561818,15.724561 -4.15325455,12.1542683 L-0.153618182,0.279 L13.6534727,4.72787805 L9.65383636,16.6046585 C8.72810909,19.3508049 7.77301818,22.1891951 7.86265455,24.4998293 C7.92447273,26.0891463 8.48392727,27.9733415 9.07738182,29.9664146 L9.36174545,30.9281707 C12.1667455,40.3506585 14.8141091,49.251439 15.9762909,59.2909024 L1.53247273,60.8923171 Z" id="Fill-27" fill="#FEFEFE" mask="url(#mask-10)"></path>
                </g>
                <g id="Group-32" transform="translate(0.000000, 265.000000)">
                    <mask id="mask-12" fill="white">
                        <use xlink:href="#path-11"></use>
                    </mask>
                    <g id="Clip-31"></g>
                    <path d="M-0.73185,11.1855133 C-3.11535,13.6511133 -5.31885,17.4921133 -2.45235,21.01878 C-1.06635,22.72538 1.52715,23.05198 3.83115,22.94618 C7.49115,22.7790467 12.88515,22.38498 15.48315,19.5544467 C17.31465,17.3955133 17.17965,14.44538 16.85115,11.87858 C16.44765,8.74751333 15.72315,5.84951333 15.49665,2.67858 C15.46965,2.26611333 15.43065,1.82911333 15.17865,1.49484667 C14.74665,0.922913333 13.87815,0.864646667 13.12365,0.87538 C9.44565,0.932113333 5.76765,1.38751333 2.18265,2.22778 C1.57365,2.37038 0.95865,2.52831333 0.40515,2.81198 C0.21465,2.91011333 0.02565,3.02971333 -0.07485,3.20911333 C-0.18885,3.41918 -0.16185,3.66604667 -0.13185,3.89604667 C0.16665,6.16998 1.15815,9.23051333 -0.73185,11.1855133" id="Fill-30" fill="#231916" mask="url(#mask-12)"></path>
                </g>
                <polygon id="Fill-33" fill="#FEFEFE" points="31.7487039 277 26 227.603406 40.2512961 226 46 275.396594"></polygon>
                <path d="M29.0927416,276.279616 C26.6959193,278.736909 24.4818415,282.563265 27.3695064,286.069105 C28.7710509,287.767842 31.3823337,288.088358 33.7021315,287.981519 C37.3857167,287.810577 42.8167017,287.412221 45.4264742,284.591676 C47.2705322,282.439637 47.131586,279.503096 46.7963027,276.948122 C46.3870154,273.831481 45.6530169,270.948359 45.4234536,267.792035 C45.3932479,267.381469 45.3554908,266.948009 45.1017629,266.615282 C44.6652905,266.044458 43.7893252,265.987986 43.0311621,266.001722 C39.3279432,266.061247 35.6247244,266.519127 32.0181637,267.360101 C31.4034777,267.503571 30.7842609,267.660776 30.2269657,267.944662 C30.0366698,268.040817 29.8448636,268.161393 29.7451848,268.339966 C29.6288928,268.547539 29.6575882,268.794794 29.6893042,269.023734 C29.989851,271.287191 30.9926802,274.332097 29.0927416,276.279616" id="Fill-35" fill="#231916"></path>
                <path d="M25.9808005,78.909485 C25.9853707,78.9564783 25.9884175,79.0034716 25.9914643,79.0504649 C26.1270461,81.4547029 24.637169,84.0893596 22.2545843,84.5077516 C19.2641663,85.0322575 16.4976868,83.4253897 13.3747337,84.2470146 C12.372342,84.5092675 11.3973712,84.9079526 10.366035,84.9867801 C8.48769297,85.1307919 6.56821935,84.0863278 5.67551178,82.4339827 C3.04156743,77.5603224 8.67507015,73.2748364 12.8552571,72.3076839 C17.6706985,71.1919719 25.5283532,73.0474494 25.9808005,78.909485" id="Fill-37" fill="#EE847D"></path>
                <g id="Group-41" transform="translate(0.000000, 67.000000)">
                    <mask id="mask-14" fill="white">
                        <use xlink:href="#path-13"></use>
                    </mask>
                    <g id="Clip-40"></g>
                    <path d="M68.85855,47.318918 C68.69655,44.7383934 68.33505,42.1684262 67.75455,39.6497377 C66.91155,35.9968852 65.61855,32.4586557 63.91455,29.1285574 C60.58605,22.6237049 57.64005,16.4778033 56.37855,9.1087541 C56.17155,7.9112459 55.85655,6.72580328 55.59705,5.54036066 C55.39605,4.61885246 55.24455,3.66868852 54.97605,2.76829508 C54.74355,1.99006557 54.62505,1.14698361 54.26055,0.40947541 C53.72655,1.26613115 53.08005,1.98855738 52.46205,2.76678689 C51.74505,3.67321311 51.13305,4.66108197 50.38905,5.54639344 C45.46305,11.4328852 38.36355,13.485541 30.98955,13.7555082 C24.50355,13.9907869 18.00705,13.1658033 11.52855,13.7434426 C-1.92495,14.9439672 -16.44495,25.430459 -21.36645,38.2923607 C-25.37295,48.7667869 -24.91095,61.0042951 -19.26645,70.6673115 C-14.62845,78.606459 -7.28595,84.3195082 0.95205,87.5726885 C4.01805,88.7852787 7.20255,89.669082 10.43655,90.2497377 C13.09005,90.7278361 15.83505,91.0943279 18.58605,91.3507213 C18.59655,91.3522295 18.60855,91.3522295 18.61905,91.3537377 C18.63105,91.3537377 18.64005,91.3567541 18.65205,91.3567541 C21.39855,91.655377 24.16155,91.8439016 26.85705,91.9072459 C30.14055,91.9826557 33.43755,91.7534098 36.68355,91.1787869 C45.39705,89.6359016 53.72355,85.5034426 59.83755,78.6501967 C64.07505,73.899377 66.70305,67.8907213 67.89405,61.6452787 C68.78655,56.9728852 69.16305,52.1240328 68.85855,47.318918" id="Fill-39" fill="#FEFEFE" mask="url(#mask-14)"></path>
                </g>
                <g id="Group-44" transform="translate(0.000000, 102.000000)">
                    <mask id="mask-16" fill="white">
                        <use xlink:href="#path-15"></use>
                    </mask>
                    <g id="Clip-43"></g>
                    <path d="M48.66705,15.50235 C47.49555,12.83835 45.62205,10.42335 43.29105,8.36235 C41.23005,6.54135 38.81355,4.99635 36.20805,3.80085 C32.75355,2.21535 28.69455,1.06335 24.54405,0.53535 C24.54105,0.53385 24.53955,0.53385 24.53655,0.53385 C24.53355,0.53385 24.53055,0.53385 24.52905,0.53385 C24.42705,0.52635 24.32505,0.52035 24.22305,0.51435 C24.12255,0.50085 24.02205,0.48435 23.92155,0.47235 C23.91855,0.47235 23.91555,0.47085 23.91255,0.47085 C23.91105,0.47085 23.90805,0.47085 23.90505,0.47085 C19.73355,0.16335 15.52605,0.48585 11.82405,1.35435 C9.03555,2.00835 6.35955,3.04185 3.97755,4.41735 C1.28355,5.97285 -1.03245,7.96785 -2.71095,10.34535 C-7.64445,17.34135 -9.30345,27.52335 -4.31745,35.02485 C-1.28895,39.58485 3.46305,42.89385 8.77155,44.80635 C10.75005,45.51885 12.79905,46.04535 14.87955,46.39935 C18.08955,46.94685 21.50355,47.29485 24.76155,47.35335 C27.64005,47.40585 30.52605,47.12985 33.31005,46.46985 C37.87305,45.38385 42.11655,43.22235 45.33855,40.00785 C51.71505,33.64785 52.11255,23.33835 48.66705,15.50235" id="Fill-42" fill="#FAD9CB" mask="url(#mask-16)"></path>
                </g>
                <path d="M21.7178958,100.102347 C20.7461903,100.462276 19.7866122,100.859855 18.8012634,101.186653 C16.2954457,102.016448 12.8967504,102.367342 10.885123,100.50595 C9.36768584,99.0993641 8.79163579,100.730341 9.06601753,102.04958 C9.39648835,103.627847 10.3818371,105.192561 11.5127143,106.355178 C14.8174225,109.755682 19.3894409,112.270669 24.3631783,112.871555 C29.0958843,113.443828 37.4728648,112.239044 37.9822143,106.499752 C38.1095517,105.085636 37.5425972,103.679051 36.6194012,102.573661 C35.1262188,100.786062 32.6931653,99.4999549 30.2646595,99.183699 C28.1287266,98.9050927 25.9169975,98.9096106 23.8128989,99.4336918 C23.0989,99.6113975 22.406124,99.8478364 21.7178958,100.102347" id="Fill-45" fill="#231916"></path>
                <path d="M24.9901008,128.833235 C25.1341694,127.465615 23.6887341,126.206561 21.7620148,126.022603 C19.8337122,125.838646 18.1555508,126.797638 18.009899,128.166765 C17.8658304,129.534385 19.3112657,130.793439 21.2395683,130.977397 C23.1678708,131.161354 24.8460322,130.202362 24.9901008,128.833235" id="Fill-47" fill="#F2A078"></path>
                <path d="M14.9717442,125.316325 C15.2151545,123.114244 13.8590116,121.187602 11.9417605,121.012584 C10.0229289,120.838999 8.27163943,122.481594 8.02822916,124.683675 C7.78481888,126.885756 9.14254241,128.812398 11.0582129,128.987416 C12.9770445,129.161001 14.728334,127.518406 14.9717442,125.316325" id="Fill-49" fill="#231916"></path>
                <path d="M35.9720889,127.316223 C36.2138876,125.114194 34.8579187,123.189033 32.9409138,123.012583 C31.0239088,122.839003 29.2728441,124.481559 29.0278847,126.683588 C28.7860861,128.885616 30.1436353,130.812212 32.0590599,130.987227 C33.9760648,131.162241 35.7287099,129.518251 35.9720889,127.316223" id="Fill-51" fill="#231916"></path>
                <path d="M26.1262388,132.951192 L16.0246848,132.005957 C15.5048388,131.957801 15.0529272,132.206837 15.0145294,132.563192 C14.78562,134.677932 17.2888559,136.649579 20.5925367,136.959154 C23.8962174,137.267353 26.7701391,135.797904 26.9975717,133.684541 C27.0344926,133.328186 26.6460849,132.999348 26.1262388,132.951192" id="Fill-53" fill="#231916"></path>
                <path d="M85.6844469,151.032041 C88.4169942,148.271028 90.5655999,145.81108 92,144.166576 L80.5951713,134 C68.1063073,148.307338 57.2434962,155.240882 48.3316489,154.590342 C45.7608085,154.402745 43.2214112,152.841449 42.8994947,151.249896 L28,154.334665 C29.7158899,162.808324 37.6260528,169.216898 47.2341381,169.918876 C63.0784204,171.076232 77.1963316,159.607063 85.6844469,151.032041" id="Fill-55" fill="#FEFEFE"></path>
                <g id="Group-59" transform="translate(78.000000, 121.000000)">
                    <mask id="mask-18" fill="white">
                        <use xlink:href="#path-17"></use>
                    </mask>
                    <g id="Clip-58"></g>
                    <path d="M11.1919294,2.84478947 C11.4871059,3.20347368 12.1218118,3.18210526 12.6265176,2.91652632 C13.6007529,2.40521053 14.0274588,1.29863158 15.0307529,0.830052632 C20.3362824,-1.65173684 25.0835765,3.06152632 25.4674588,7.58705263 C25.7121647,10.4748421 24.6262824,13.6495789 22.8659294,16.4122105 C19.8942824,21.0705263 14.9818118,24.2696842 10.4348706,27.0811579 C10.2176941,27.2154737 9.97145882,27.3558947 9.75581176,27.3116316 C9.56004706,27.2719474 9.4484,27.0933684 9.35663529,26.9254737 C6.92334118,22.5083158 3.71004706,18.952 0.412635294,15.2293158 C0.351458824,15.1606316 0.288752941,15.0873684 0.276517647,14.9896842 C0.262752941,14.8782632 0.317811765,14.7592105 0.369811765,14.6477895 C2.22498824,10.6732632 3.84922353,7.21310526 6.7184,3.67205263 C7.30263529,2.95010526 7.94345882,2.21136842 8.75710588,1.81147368 C9.57075294,1.41157895 10.6000471,1.48178947 10.9166353,2.18389474 C11.0038118,2.37621053 11.0328706,2.60363158 11.1460471,2.77915789 C11.1598118,2.80205263 11.1751059,2.82494737 11.1919294,2.84478947" id="Fill-57" fill="#D80029" mask="url(#mask-18)"></path>
                </g>
            </g>
        </g>
    </g>
</svg>