<?xml version="1.0" encoding="UTF-8"?>
<svg width="185px" height="176px" viewBox="0 0 185 176" version="1.1" xmlns="http://www.w3.org/2000/svg" xmlns:xlink="http://www.w3.org/1999/xlink">
    <title>event-character-03</title>
    <defs>
        <polygon id="path-1" points="0.133360568 0.730361842 68.1236509 0.730361842 68.1236509 26.6432566 0.133360568 26.6432566"></polygon>
        <polygon id="path-3" points="0.468507228 0.784542723 27.9043753 0.784542723 27.9043753 27.9985263 0.468507228 27.9985263"></polygon>
        <polygon id="path-5" points="0.337491831 0.179443151 27.5967454 0.179443151 27.5967454 29.9985714 0.337491831 29.9985714"></polygon>
        <polygon id="path-7" points="0.124540567 0.118762412 7.94605108 0.118762412 7.94605108 7.99847619 0.124540567 7.99847619"></polygon>
        <polygon id="path-9" points="0.00498879241 0.606431934 47.9603049 0.606431934 47.9603049 33.9985217 0.00498879241 33.9985217"></polygon>
    </defs>
    <g id="R4" stroke="none" stroke-width="1" fill="none" fill-rule="evenodd">
        <g id="D---Homepage---Event---1440-Copy" transform="translate(-1053.000000, -628.000000)">
            <g id="event-character-03" transform="translate(1053.000000, 628.000000)">
                <path d="M117.199275,146.316647 C117.094995,146.32691 116.987776,146.331309 116.880558,146.328376 C116.879089,146.328376 116.801246,146.32691 116.76159,146.323978 C113.791791,146.233071 111.120147,145.036619 108.420597,143.71407 C98.3259241,138.761109 91.1202696,132.752455 87.0033822,125.85526 C84.7591424,122.094353 83.4328672,118.048995 83.0627439,113.832088 C82.3606846,105.864536 87.5952857,96.6198899 96.5046825,95.5583318 L96.7264627,95.5334057 C99.9033544,95.2020353 103.235933,95.9014321 106.368762,97.5597501 C107.611319,98.2180921 108.874438,99.0318556 110.34465,100.124205 L110.506212,100.244437 C111.109866,100.694572 111.932362,101.310393 112.364172,101.26494 C112.380329,101.262007 112.512515,101.248811 112.512515,101.248811 C112.954607,101.201892 113.633167,100.429183 114.129602,99.8646802 L114.261789,99.7151237 C115.476439,98.3397901 116.544216,97.2826307 117.620805,96.3838252 C120.340917,94.1140849 123.45759,92.7387513 126.634482,92.4073809 L126.856262,92.3853873 C135.792097,91.5818875 142.830314,99.5435736 143.796747,107.483266 C144.309339,111.685511 143.851091,115.917082 142.436691,120.062144 C139.839953,127.660202 134.036948,135.028061 125.18777,141.960446 C122.861281,143.781517 120.537729,145.477957 117.71921,146.20228 C117.551774,146.259463 117.376993,146.297585 117.199275,146.316647" id="Fill-1" fill="#F09488"></path>
                <path d="M13.7738646,161.325794 C13.7382863,161.328699 13.6998617,161.330151 13.6642833,161.328699 C13.6642833,161.328699 13.6358207,161.328699 13.6230125,161.327246 C12.6012028,161.295299 11.6804356,160.875627 10.7511296,160.409486 C7.27726138,158.666903 4.79531702,156.552569 3.37787632,154.126023 C2.60511497,152.80166 2.14971233,151.37855 2.02163034,149.894451 C1.77969769,147.091797 3.5828075,143.838975 6.64965962,143.465772 L6.72508569,143.455607 C7.81805201,143.339435 8.96652053,143.586301 10.0452555,144.170066 C10.4736186,144.400958 10.9076743,144.687032 11.4143097,145.071853 L11.4698119,145.113965 C11.6761662,145.27225 11.9607929,145.48862 12.1087987,145.472647 C12.1144912,145.472647 12.1600315,145.46829 12.1600315,145.46829 C12.3123068,145.450864 12.5471238,145.179312 12.7164766,144.980367 L12.7620169,144.92809 C13.180418,144.444523 13.5475864,144.07132 13.9190242,143.75475 C14.8554459,142.957519 15.9284883,142.473952 17.0214546,142.356328 L17.0983038,142.349067 C20.1736948,142.065897 22.5972907,144.868551 22.9303038,147.66104 C23.1067724,149.139331 22.9473814,150.62924 22.4606699,152.087201 C21.5683653,154.760613 19.5702863,157.354158 16.5247811,159.792321 C15.722134,160.434173 14.9237563,161.029555 13.9531794,161.285134 C13.8948309,161.305464 13.8350593,161.319986 13.7738646,161.325794" id="Fill-3" fill="#F09488"></path>
                <path d="M121.795872,166.181067 C121.767118,166.16949 121.74124,166.155019 121.713924,166.140548 C121.713924,166.140548 121.695234,166.128971 121.68517,166.123183 C120.954826,165.69918 120.44876,165.036405 119.954196,164.3389 C118.099581,161.725424 117.107578,159.239294 117.008377,156.945629 C116.953745,155.695329 117.166523,154.497124 117.640959,153.385746 C118.538075,151.284546 121.089968,149.663787 123.457837,150.601512 L123.515345,150.624666 C124.353516,150.970524 125.092486,151.598569 125.651746,152.439338 C125.87315,152.772173 126.078739,153.14842 126.300143,153.623072 L126.323146,153.675167 C126.41372,153.86908 126.537361,154.135347 126.650938,154.183102 C126.655251,154.184549 126.688318,154.19902 126.688318,154.19902 C126.806208,154.246775 127.080806,154.14403 127.279207,154.068781 L127.333839,154.049968 C127.819777,153.867633 128.230955,153.746076 128.620568,153.665038 C129.605383,153.460996 130.568633,153.536245 131.406804,153.882104 L131.464311,153.906705 C133.804864,154.912444 134.490641,157.868884 133.663971,159.999025 C133.225477,161.126322 132.542576,162.130614 131.631083,162.98296 C129.960492,164.544389 127.5193,165.615248 124.376519,166.163702 C123.551287,166.308412 122.741869,166.421287 121.941078,166.221586 C121.890759,166.21435 121.841878,166.199879 121.795872,166.181067" id="Fill-5" fill="#AC0015"></path>
                <path d="M144.048453,154.028305 C143.949053,153.995013 143.849654,153.954483 143.75464,153.908163 C143.75464,153.908163 143.683014,153.873423 143.649393,153.856053 C140.996304,152.557648 139.074094,150.392193 137.178195,148.09791 C130.087213,139.520043 126.04984,131.175223 125.178633,123.296497 C124.703562,118.998878 125.177171,114.824297 126.586305,110.88421 C129.249626,103.441181 137.81406,97.2806339 146.321485,99.9729782 L146.530516,100.042458 C149.54612,101.044126 152.273759,103.035882 154.424003,105.807839 C155.276207,106.906489 156.083097,108.155679 156.961613,109.737793 L157.058089,109.911492 C157.417681,110.562866 157.908832,111.451629 158.318124,111.587694 C158.332741,111.593484 158.458452,111.634014 158.458452,111.634014 C158.879438,111.774421 159.813501,111.357542 160.496141,111.053568 L160.677399,110.973955 C162.346726,110.235732 163.751474,109.72187 165.097752,109.355654 C168.500722,108.430703 171.890536,108.471233 174.903217,109.472901 L175.115172,109.543828 C183.537815,112.479352 186.614813,122.509059 184.204376,130.036043 C182.928262,134.018107 180.761939,137.632507 177.763875,140.775023 C172.269131,146.537508 163.96489,150.780122 153.085034,153.385616 C150.224376,154.068835 147.419264,154.640596 144.565915,154.138315 C144.390504,154.120945 144.216555,154.084757 144.048453,154.028305" id="Fill-7" fill="#D6002A"></path>
                <path d="M143.891782,39.3292683 C143.839772,39.3292683 143.787761,39.3249258 143.735751,39.3176883 C143.735751,39.3176883 143.696743,39.3118983 143.677961,39.3090033 C142.233228,39.1020107 140.993648,38.3695756 139.748288,37.5734505 C135.091913,34.5944949 131.903388,31.2565592 130.27084,27.6522835 C129.380884,25.6865782 128.954688,23.6325753 129.003809,21.5452799 C129.097716,17.6037366 132.159106,13.3625608 136.566986,13.3292683 L136.675341,13.3292683 C138.244321,13.3394008 139.833527,13.8662909 141.272481,14.8491436 C141.841706,15.2399687 142.415265,15.7075113 143.072618,16.3226989 L143.144855,16.3907314 C143.41502,16.6440439 143.783427,16.991444 143.995803,16.9928915 C144.003026,16.9928915 144.068039,16.9928915 144.068039,16.9928915 C144.287639,16.994339 144.66038,16.6527289 144.934879,16.4037589 L145.005671,16.3371739 C145.674582,15.7306713 146.25392,15.2703662 146.828924,14.8882261 C148.280881,13.9256384 149.877311,13.4233558 151.44629,13.4334883 L151.55609,13.4349358 C155.961081,13.5304708 158.963236,17.8165192 158.999354,21.7595099 C159.019581,23.8453578 158.56449,25.8935707 157.647084,27.8476961 C155.96397,31.4288118 152.727769,34.7189799 148.029497,37.632798 C146.79425,38.3970781 145.567672,39.1005632 144.151834,39.3003183 C144.066595,39.3205833 143.979911,39.3292683 143.891782,39.3292683" id="Fill-9" fill="#D6002A"></path>
                <path d="M60.0773069,154.164685 C60.0335638,154.272628 59.9810721,154.361861 59.9183736,154.426626 C59.3045122,155.071405 57.5824925,154.83393 56.7499156,155.077162 C54.2142743,155.818369 52.0489911,158.070775 52.0008737,160.76071 C51.9673374,162.582785 52.9005234,164.358803 54.5729676,165.199318 C56.9511338,166.396764 60.2129105,166.429866 62.8199988,166.247083 C64.8482203,166.104598 66.9668441,165.655556 68.4818132,164.314187 C69.5039435,163.407468 70.034693,162.030117 69.9982404,160.68587 C69.9530392,159.066728 68.7719757,158.090925 68.4526511,156.588361 C68.2120641,155.452803 68.2747626,154.263992 68.3360029,153.112603 C68.4993104,149.992336 68.6655342,146.872069 68.8302999,143.751803 C68.9279928,141.800197 66.0978146,140.526472 64.3860016,140.356642 C63.5927935,140.278923 62.7952111,140.381109 62.0063773,140.483295 C61.3502309,140.56821 60.7144979,140.753871 60.0904298,140.942411 C59.9883626,144.003669 60.3805923,147.102347 60.2595698,150.186633 C60.2289496,150.94655 60.4549556,153.245012 60.0773069,154.164685" id="Fill-11" fill="#AC0015"></path>
                <path d="M94.6775351,149.606737 C94.7414759,149.704793 94.8112295,149.783823 94.8853427,149.83651 C95.6133959,150.358988 97.2496991,149.783823 98.1099935,149.86139 C100.734473,150.101408 103.297918,151.920568 103.877744,154.592963 C104.271562,156.403342 103.710626,158.357147 102.242894,159.525039 C100.154646,161.187603 96.9750443,161.862287 94.3898015,162.194507 C92.3785726,162.452088 90.2205706,162.41989 88.4752774,161.380788 C87.2952789,160.678296 86.5047381,159.410884 86.2736793,158.061515 C85.9961181,156.439931 86.9581365,155.233987 86.9712153,153.672407 C86.9828409,152.491343 86.6863881,151.31906 86.3986545,150.183365 L84.0604557,140.947065 C83.5779933,139.021067 86.0920293,137.193125 87.7326921,136.686746 C88.4898094,136.452582 89.2905226,136.398432 90.0825166,136.344281 C90.739363,136.300376 91.3962094,136.36038 92.0457898,136.426239 C92.7505918,139.457197 92.9816506,142.624263 93.7111571,145.675711 C93.8913539,146.427962 94.1253191,148.763747 94.6775351,149.606737" id="Fill-13" fill="#AC0015"></path>
                <path d="M99.4195775,120.274397 C96.5486589,113.143707 93.6437912,106.024804 90.7049743,98.9176868 C89.2363039,95.3656016 87.7587772,91.8149897 86.2723941,88.2687976 C85.5550335,86.5612626 84.6900678,81.3311081 82.8523847,80.5959399 C81.66564,80.1215428 80.2545355,80.3734742 78.9438025,80.6342453 C74.6927766,81.481383 70.4402746,82.3270474 66.1892487,83.1727118 L66.1774403,83.1314599 C66.0416436,83.1741851 65.9043709,83.215437 65.7670982,83.2581622 C65.6253973,83.2861546 65.4851725,83.314147 65.3449477,83.3421394 L65.35528,83.3833913 C61.2105297,84.6518879 57.0657794,85.9218578 52.9210292,87.1888812 C51.6457214,87.5807744 50.2818506,88.0257059 49.4611664,89.0083856 C48.1947149,90.5243938 49.9187421,95.5365024 50.1002963,97.3795794 C50.4781653,101.205695 50.8648906,105.030338 51.2604721,108.853507 C52.0516353,116.499846 52.8796997,124.141764 53.7431894,131.780737 C54.3099928,136.817891 55.1528178,142.31913 59.325613,145.542673 C63.9766487,149.134537 71.0587398,148.596788 77.2906258,147.538971 C78.6412122,147.309139 80.0124632,147.048368 81.374858,146.744872 L81.3807622,146.764024 C81.519511,146.728666 81.6567837,146.687414 81.7955324,146.650582 C81.9342812,146.618169 82.074506,146.588704 82.2147308,146.554818 L82.2103027,146.535666 C83.5549848,146.155559 84.8834305,145.737146 86.182355,145.298108 C92.1721687,143.278237 98.6594114,140.397969 101.047661,135.033745 C103.187935,130.22053 101.313351,124.977116 99.4195775,120.274397" id="Fill-15" fill="#AC0015"></path>
                <path d="M75.2104996,125.111471 C70.2512798,126.065821 64.8959008,126.532035 62.1864028,126.245584 L62.0056732,126.226584 C59.1255666,125.924057 52.376401,125.213775 51.8848165,119.198298 L49.0408558,84.4090866 C48.8485595,82.7093784 49.3386981,80.927827 50.4346423,79.4838789 C51.3946779,78.2196935 52.7696686,77.3091877 54.3037013,76.9175095 C54.5769644,76.8488197 54.8560109,76.7947447 55.1336115,76.759669 C55.2507243,76.7304393 55.6483294,76.6281353 55.7018253,76.6149819 C57.0175367,76.2788401 59.3409963,75.6504012 62.4264117,74.7954319 C62.5334036,74.7618177 62.8167876,74.6828975 62.8442585,74.67559 C62.8659461,74.6697441 63.1869218,74.5966698 63.2953596,74.5747475 C66.4140293,73.8469275 68.7548389,73.2857169 70.0691044,72.9495751 C70.1240462,72.9349603 70.5216513,72.8341177 70.6373182,72.8034265 C70.9004605,72.702584 71.1693861,72.6163563 71.4440951,72.546205 C72.9781278,72.1545268 74.6148149,72.2962909 76.0505307,72.9466522 C77.6973387,73.6934715 78.9667833,75.0278082 79.6275307,76.7026711 C79.6275307,76.7026711 93.4179209,108.601064 93.4193667,108.603987 C95.8093347,114.13425 90.2023801,117.995495 87.8095204,119.644052 L87.6591534,119.747817 C85.4340107,121.280916 80.5933496,123.405916 75.8351011,124.940477 C75.7223258,124.985783 75.6023214,125.023781 75.4837627,125.054473 C75.4215918,125.070549 75.2350788,125.107086 75.2104996,125.111471" id="Fill-17" fill="#D80029"></path>
                <path d="M48.4748771,84.345866 C47.6748282,84.8603675 46.8629922,85.3510771 46.0231618,85.7986637 C45.650395,85.9964345 45.2746814,86.1867703 44.8945477,86.3681842 C44.5969236,86.510936 43.5729199,86.9287827 44.377389,86.6135389 C42.7080419,87.2678184 40.9915465,87.7882679 39.2382165,88.1615046 C38.7240045,88.2730295 38.2038991,88.3577884 37.6867404,88.4559303 C38.3644982,88.3280484 37.9077483,88.4395733 37.4878332,88.4797223 C36.5433923,88.5734032 35.5989515,88.6358571 34.6500905,88.6537011 C33.7041763,88.6700581 32.7553154,88.6492401 31.8094012,88.5838122 C31.4115868,88.5555592 31.012299,88.5124362 30.6144846,88.4797223 C29.3606326,88.3771194 31.1390103,88.6090912 30.4185242,88.4603913 C29.0733222,88.1838095 27.7841089,87.8551828 26.4654279,87.4745112 C25.3456541,87.1488585 27.1991745,87.8983058 26.5553045,87.5354781 C26.3077756,87.3957002 26.0366724,87.2886363 25.7861967,87.1548065 C25.2204162,86.8544327 24.6944172,86.500527 24.1492642,86.1644653 C23.436145,85.7243137 24.1124295,86.2789642 24.3967931,86.3919761 C24.099169,86.2730163 23.7971248,85.8908576 23.5643297,85.6811908 C23.112,85.2752401 22.6802977,84.8484715 22.2633293,84.4083199 C21.7609045,83.8819224 21.2820538,83.3317329 20.817937,82.7711344 C20.7177468,82.6492005 19.8337148,81.5339515 20.3420332,82.1897179 C20.8547717,82.8514323 19.8351882,81.4938025 19.8484487,81.5146205 C17.8932646,78.8365359 14.2805206,77.2216553 11.2011426,79.2261296 C8.5740943,80.936178 6.83402472,85.0819303 8.93360064,87.9533247 C13.5865556,94.3236271 19.0233521,99.4597205 27.0577293,100.763818 C36.6759971,102.32368 46.5712616,100.69839 54.8561145,95.3630391 C57.6408152,93.5697187 59.0228519,89.6083543 57.1221831,86.6343569 C55.3261249,83.8224424 51.4555382,82.4246637 48.4748771,84.345866" id="Fill-19" fill="#D80029"></path>
                <path d="M11.5338942,75.6858126 C11.3245971,75.9336274 10.9160376,75.9568147 10.6035254,75.8147923 C9.99857062,75.5423409 9.77637159,74.856865 9.15278077,74.6148471 C5.84273199,73.3293987 2.54845217,76.6321462 2.08111743,79.5609978 C1.78294067,81.4304775 2.33055377,83.4071987 3.33403326,85.0781368 C5.02848006,87.8982977 8.04608624,89.667782 10.8472276,91.2097405 C10.980547,91.2836501 11.133936,91.3575598 11.2744231,91.3184312 C11.4034419,91.2807517 11.4837203,91.1604674 11.5525303,91.0459798 C13.3372902,88.0678552 15.5850843,85.5969536 17.8959542,83.014463 C17.9389605,82.9666391 17.9834003,82.9159168 17.9963022,82.8521516 C18.0106376,82.7811404 17.9805332,82.7072307 17.9532959,82.6376687 C16.9469493,80.1928529 16.0638874,78.065414 14.383776,75.958264 C14.0411594,75.5278489 13.6627043,75.0901877 13.1566639,74.8815016 C12.64919,74.6713663 11.9811594,74.7757093 11.7431914,75.2452531 C11.678682,75.3742327 11.6471441,75.522052 11.5668657,75.6408872 C11.5568309,75.6568285 11.5453626,75.6713206 11.5338942,75.6858126" id="Fill-21" fill="#ED827A"></path>
                <path d="M70.470557,100.100185 C70.2822679,100.145259 70.0895658,100.177247 69.8939217,100.196149 C69.8924507,100.196149 69.7497629,100.212143 69.6776835,100.217958 C64.2673149,100.758844 59.1364379,99.2437835 53.9187714,97.5048085 C34.4146721,91.0040081 19.898762,81.9180091 10.7740974,70.505622 C5.79914728,64.2810802 2.42024118,57.3280882 0.734465644,49.8414808 C-2.45173837,35.695588 4.82239776,17.8507382 20.7313527,13.830449 L21.125583,13.7344855 C26.8095591,12.3851804 33.0275113,12.851912 39.1057176,15.0881525 C41.5181713,15.9750879 44.0071173,17.1382819 46.9358949,18.7522135 L47.2595167,18.9296006 C48.4598595,19.5955292 50.1029758,20.5042745 50.8737842,20.3225254 C50.9017333,20.3152555 51.1385657,20.2585498 51.1385657,20.2585498 C51.9299681,20.0709847 52.9758551,18.5210287 53.7407794,17.3898226 L53.9452495,17.0903001 C55.8178431,14.3320764 57.5006767,12.1772595 59.2379375,10.3074252 C63.6274263,5.58631159 68.9510054,2.37880417 74.6335105,1.02949914 L75.0321538,0.937897613 C91.0499634,-2.62292998 105.733568,10.0079027 109.393437,24.0403842 C111.330755,31.4673778 111.517573,39.1779 109.945065,46.9582138 C107.061889,61.22188 98.3049764,75.8315965 83.918515,90.3816993 C80.1336106,94.2056995 76.3251701,97.801423 71.3855242,99.7701288 C71.0957355,99.914074 70.7897658,100.024577 70.470557,100.100185" id="Fill-23" fill="#D6002A"></path>
                <path d="M67.5993774,92.1511018 C67.4533291,92.1863343 67.3043303,92.2112906 67.152381,92.2259708 C67.1509057,92.2259708 67.040263,92.239183 66.9842041,92.2421191 C62.7930588,92.6649091 58.817298,91.4831523 54.7751516,90.126701 C39.66431,85.0561569 28.4171114,77.9700201 21.3477808,69.0664735 C17.4929893,64.2117285 14.8773961,58.7888594 13.5688618,52.9490724 C11.1007921,41.9154275 16.7361933,27.9971216 29.0632647,24.861429 L29.3686385,24.7850919 C33.7722177,23.733989 38.588863,24.0980581 43.2978161,25.8420669 C45.1684152,26.5335048 47.0965486,27.4407417 49.3669367,28.7003036 L49.6162516,28.8382975 C50.5456502,29.3579769 51.820254,30.067031 52.4162493,29.924633 C52.4383779,29.9187609 52.6213071,29.8747203 52.6213071,29.8747203 C53.2364805,29.7279182 54.0449098,28.519737 54.6379546,27.6374565 L54.7943296,27.4040411 C56.247437,25.2519225 57.5500703,23.5710386 58.8969607,22.1132939 C62.2959043,18.4300296 66.4221392,15.928522 70.8257184,14.875951 L71.1340427,14.804018 C83.5452025,12.0265225 94.9192715,21.8784106 97.7546749,32.8254422 C99.2564651,38.6167846 99.4010382,44.6312661 98.1824934,50.7000644 C95.9489862,61.8261946 89.1643762,73.2209726 78.0174935,84.570242 C75.0847245,87.5532604 72.1342527,90.3571803 68.3074907,91.8941981 C68.0832548,92.0057677 67.8457418,92.0923809 67.5993774,92.1511018" id="Fill-25" fill="#AC0015"></path>
                <path d="M86.3991995,44.2622705 C84.0655827,38.9976369 79.4378771,35.5096 74.6462035,34.0573372 C68.5559614,32.2112404 64.0029198,34.1051185 58.881846,37.1674673 C57.9902697,37.7017494 57.1016214,38.0695208 56.2085811,38.3417296 C55.2877248,38.5010007 54.3288045,38.5719487 53.2879001,38.4966569 C47.31917,38.0695208 42.3928083,38.4271568 37.8148788,42.8085598 C34.2134375,46.2531591 31.6909647,51.441053 32.0306128,57.1791561 C32.3248769,62.1614455 34.7360857,66.7889947 38.0300868,70.1901565 C39.8439835,72.0637637 42.1951683,73.5189223 44.8391532,74.5426011 C50.5048351,76.7361984 57.9273177,76.814386 65.0789602,75.2984148 L65.0789602,75.3085502 C65.1140962,75.2998627 65.1463042,75.2882794 65.1799762,75.2795919 C65.2136482,75.2723523 65.2487842,75.2680085 65.2824562,75.2607689 L65.2795282,75.2506335 C72.3477227,73.3886096 78.9240129,69.984552 82.9617263,65.4844196 C84.847359,63.3849371 86.2747595,61.0320686 87.0316477,58.5488875 C88.4034162,54.0386197 88.4253762,48.8333509 86.3991995,44.2622705" id="Fill-27" fill="#F09488"></path>
                <path d="M63.9367059,56.7562947 C63.5474891,54.9166911 61.4692987,53.9057959 59.2945144,54.4991124 C57.1211505,55.0924289 55.6750823,57.0626266 56.0628786,58.9038424 C56.4520954,60.7418337 58.5302858,61.7527289 60.7050701,61.1594124 C62.8798544,60.5677082 64.3259227,58.5958982 63.9367059,56.7562947" id="Fill-29" fill="#D6002A"></path>
                <path d="M65.8968482,64.8787104 C65.0614847,68.0565434 58.7805678,69.5638996 56.6211757,67.1095371 C55.3793384,65.6973347 55.9845659,64.208103 58.5713533,63.3653127 C59.1900303,63.1629222 59.8221569,62.99376 60.4557778,62.8442326 C60.4752049,62.8397015 60.4961263,62.8366808 60.514059,62.8321496 C60.5334861,62.8276185 60.5529131,62.821577 60.5723402,62.8185562 C61.2059611,62.661477 61.8455596,62.5240327 62.4881469,62.4228375 C65.1735639,61.9984216 66.376547,63.0526647 65.8968482,64.8787104" id="Fill-31" fill="#231916"></path>
                <path d="M47.5390961,60.9570113 C47.5719989,60.7595216 47.6153708,60.5635993 47.6736985,60.3708118 C47.6976278,60.2861733 47.718566,60.1654852 47.7664246,60.0918184 C47.7125837,60.1733221 47.582468,60.516578 47.7170704,60.2328825 C47.790354,60.0745772 47.8741066,59.9209741 47.9668327,59.7752079 C48.0520809,59.6419808 48.2494979,59.4554627 47.8980359,59.8520095 C47.9578592,59.7830448 48.0131958,59.709378 48.0730191,59.6404134 C48.134338,59.5730161 48.1971525,59.5071862 48.2629581,59.4444911 C48.3182947,59.3896328 48.5366497,59.2093843 48.2809051,59.4147109 C48.0251604,59.6184701 48.2480023,59.4429237 48.3093212,59.4006045 C48.3811091,59.3504484 48.4543927,59.3018596 48.5306674,59.257973 C48.6069421,59.2140864 48.686208,59.1780367 48.7609871,59.1341501 C48.3093212,59.3927676 48.4932778,59.2485688 48.650314,59.1952779 C48.8163237,59.1388523 48.9868201,59.1012352 49.1603077,59.0745897 C49.0002804,59.096533 48.8387574,59.1200437 48.6787301,59.141987 C48.9763511,59.1043699 49.2694853,59.1075047 49.5671062,59.1482565 C49.4070789,59.1263132 49.2470515,59.1028026 49.0855286,59.0808593 C49.3293086,59.1216111 49.5596283,59.1905758 49.7944348,59.2658099 C50.087569,59.3598526 49.363707,59.0432422 49.7914436,59.2658099 C49.8901521,59.3175334 49.987365,59.373959 50.0815867,59.4335194 C50.1787996,59.4946472 50.2685345,59.5620445 50.3627562,59.626307 C50.5123145,59.742293 50.467447,59.7062433 50.2266582,59.5165905 C50.277508,59.5589097 50.3253667,59.6043637 50.3747209,59.6498177 C50.5706422,59.8379031 50.7486166,60.0432297 50.9101395,60.2626627 C51.1748577,60.6184576 51.7835598,60.819082 52.1888627,60.819082 C52.6330508,60.819082 53.1639827,60.6121881 53.4690816,60.2626627 C53.7861451,59.9005982 54.0209516,59.4256825 53.9985178,58.9209867 C53.9775797,58.3849432 53.7816583,58.0009355 53.4690816,57.580878 C52.1903583,55.858329 49.9305328,54.955519 47.8950448,55.4758887 C45.9283535,55.9805846 44.3968768,57.8927863 44.0499016,59.949187 C43.9616622,60.4617197 43.9721313,60.9460397 44.2323627,61.4099837 C44.4522133,61.8033957 44.8829412,62.1779992 45.313669,62.2814462 C46.1960628,62.4914749 47.3626173,62.0024528 47.5390961,60.9570113" id="Fill-33" fill="#231916"></path>
                <path d="M76.75503,51.886162 C76.418804,51.4295174 76.0945861,51.0129835 75.6562915,50.6581583 C75.1144273,50.2200263 74.6070863,49.9176535 73.9646545,49.6569341 C73.0220209,49.2774254 71.9187793,49.2311439 70.9431235,49.4995769 C68.9527857,50.0472419 67.4322637,51.9386145 67.0510074,53.9858016 C66.9579449,54.4856423 66.977458,54.9715986 67.2341305,55.423615 C67.4547788,55.8108373 67.8870694,56.1810897 68.3193599,56.2813664 C69.2169633,56.4911761 70.3622331,56.0036771 70.5543622,54.9777695 C70.5903864,54.783387 70.6339157,54.5920899 70.693956,54.405421 C70.7209742,54.3128579 70.7600004,54.2233802 70.7885196,54.1308171 C70.6294127,54.6429996 70.690954,54.3653103 70.7584994,54.2264657 C70.8410549,54.0567667 70.9341175,53.8932385 71.0376871,53.737424 C71.1262466,53.6032075 71.3213778,53.4365939 70.9701417,53.8161026 C71.0316831,53.7497657 71.0872204,53.6757152 71.1487617,53.6093784 C71.2493293,53.4967599 71.3979292,53.3039201 71.536022,53.239126 L71.3078687,53.4227094 C71.352899,53.3887696 71.4024323,53.3548298 71.4504645,53.3224328 C71.522513,53.2746085 71.5960624,53.2298697 71.6711128,53.1866735 C71.7341552,53.1527337 71.8347228,53.0740551 71.9022682,53.0709697 C71.8452299,53.0740551 71.4444605,53.2314124 71.7461633,53.1496483 C71.9307874,53.1002813 72.1064054,53.0478289 72.2970336,53.02006 C72.1364256,53.0432007 71.9743166,53.0647988 71.8137087,53.0879396 C72.0808883,53.0570852 72.3435648,53.0570852 72.6092434,53.0879396 C72.4486355,53.0663415 72.2865265,53.0432007 72.1259185,53.0216027 C72.364579,53.0570852 72.5987364,53.1095376 72.8268897,53.1913017 C73.0235219,53.2622667 73.0745562,53.3841415 72.7338272,53.1434774 C72.8328937,53.2144425 72.9589785,53.2576386 73.0625481,53.32089 C73.1541097,53.3748852 73.3147176,53.4458502 73.37776,53.5322424 L73.1616147,53.3579153 C73.212649,53.3980259 73.2606813,53.4412221 73.3087136,53.4844182 C73.4062792,53.5708104 73.4993417,53.6633735 73.5879012,53.7605647 C73.6764608,53.857756 73.9691575,54.246521 73.6179214,53.7698211 C73.9151212,54.1740132 74.2093189,54.4887278 74.7046519,54.6275724 C75.1384434,54.7509899 75.7178329,54.695452 76.1020912,54.4393608 C76.4908525,54.1832696 76.8330825,53.8006754 76.9381531,53.3239755 C77.0387207,52.8688736 77.0417227,52.2764698 76.75503,51.886162" id="Fill-35" fill="#231916"></path>
                <path d="M83.4827718,93.3721327 C86.8079175,94.2977739 90.4468649,94.544114 93.8670147,94.145491 C98.3365287,93.6214587 102.558456,92.4688861 106.092323,89.4411435 C109.002905,86.9478841 110.777756,83.2423333 112.217213,79.7039951 C113.589015,76.3313765 114.66285,72.8706727 115.753959,69.3920533 C116.752942,66.204563 114.589438,62.2586441 111.441345,61.5136522 C108.051424,60.7134204 104.914847,62.5751536 103.845331,65.9880824 C102.949988,68.8381616 102.105027,71.7061564 101.031192,74.4920378 C100.393513,76.1507272 101.415527,73.6664256 100.954901,74.6891098 C100.803758,75.025028 100.662691,75.3639321 100.50723,75.6983574 C100.206383,76.3463062 99.8882634,76.9867902 99.5442332,77.6108515 C99.165656,78.2991106 98.6891957,78.920186 98.3034212,79.5965013 C99.1411852,78.1348839 98.879204,78.8395656 98.4991874,79.2770057 C98.2717532,79.5352895 98.0241666,79.7652068 97.7880956,80.0130398 C96.8740404,80.9715264 98.9612531,79.263569 98.0284849,79.8129819 C97.7751405,79.9637718 97.5318723,80.1354633 97.27277,80.2802814 C97.0122283,80.4280854 96.7085029,80.5385651 96.4580373,80.6983129 C97.9608305,79.7383334 97.2079944,80.3773244 96.6149381,80.5863402 C95.9427117,80.8237224 95.2560907,81.0148225 94.560833,81.1700913 C94.2311973,81.2432468 93.9001222,81.3044586 93.5704866,81.3671633 C92.3786162,81.5970807 95.197073,81.188007 93.6971588,81.3537266 C92.2533834,81.5119814 90.7966529,81.5493056 89.3456802,81.4627134 C88.9757398,81.4418118 88.6072388,81.4029946 88.2372983,81.3731352 C87.1389926,81.286543 89.8019881,81.6493346 88.6705749,81.4418118 C88.0300165,81.3223742 87.3966555,81.1954718 86.7661733,81.0207944 C83.6497489,80.151886 79.9143579,82.1061833 79.1701586,85.4937316 C78.4302777,88.8618713 80.1461105,92.4420126 83.4827718,93.3721327" id="Fill-37" fill="#D80029"></path>
                <path d="M108.995436,57.1309349 C109.270906,57.3067901 109.67041,57.196508 109.925688,56.9580603 C110.418938,56.4960679 110.418938,55.7538995 110.942476,55.3157519 C113.710157,52.9908869 117.879708,55.15629 119.23254,57.8701227 C120.093564,59.6003588 120.181542,61.7091305 119.737328,63.6673822 C118.990242,66.9713729 116.649467,69.6747736 114.447148,72.0845856 C114.341864,72.1993385 114.219272,72.3230332 114.072163,72.3289944 C113.936591,72.3349556 113.822653,72.2425572 113.721695,72.1531393 C111.095355,69.8178422 108.182006,68.1278442 105.17491,66.3484284 C105.118663,66.3156418 105.05953,66.2798746 105.027801,66.221753 C104.993187,66.1561799 104.998956,66.0742135 105.003282,65.9982083 C105.210967,63.2843756 105.397017,60.9192725 106.35323,58.3157218 C106.549376,57.7851757 106.774368,57.236746 107.194063,56.8686424 C107.613758,56.4990485 108.285848,56.3857859 108.659391,56.7687925 C108.761791,56.8731133 108.835346,57.0072401 108.949284,57.0981483 C108.965148,57.1100707 108.979571,57.1219931 108.995436,57.1309349" id="Fill-39" fill="#ED827A"></path>
                <path d="M119.672876,112.112646 C119.383555,109.506866 118.896969,106.924629 118.186817,104.399774 C117.159581,100.743443 115.682289,97.2239491 113.798779,93.9369298 C110.122353,87.5114987 106.849224,81.4318372 105.217044,74.0338368 C104.952563,72.8302639 104.575569,71.6472901 104.257023,70.4569595 C104.008616,69.5344165 103.811352,68.5809749 103.495729,67.6819737 C103.222481,66.9050953 103.063208,66.0575917 102.656989,65.3292683 C102.161636,66.2223841 101.54208,66.9845488 100.95467,67.8040966 C100.273742,68.7545955 99.6994834,69.7845478 98.993715,70.7188617 C94.2944369,76.9177033 87.2148343,79.341034 79.7728496,79.9722476 C73.2280529,80.5284219 66.6189626,80.010503 60.0990066,80.9095042 C46.5549743,82.778132 32.3796957,94.1031935 28.0208815,107.364565 C24.4745047,118.164351 25.5309655,130.532607 31.7031516,140.040539 C36.7721178,147.853463 44.4698158,153.27984 52.9536492,156.174006 C56.1128031,157.251042 59.3742423,157.991136 62.672212,158.422245 C65.3798495,158.776843 68.1722376,159.013732 70.9646258,159.140269 C70.9763155,159.140269 70.9880053,159.140269 70.9982338,159.140269 C71.0099235,159.14174 71.0201521,159.143211 71.0318418,159.14174 C73.8227687,159.312418 76.6239242,159.369801 79.35348,159.300647 C82.6777516,159.218251 85.9976395,158.825398 89.2517726,158.085303 C97.9883968,156.098967 106.20775,151.509793 112.058468,144.272171 C116.113348,139.257775 118.481983,133.045691 119.387939,126.664401 C120.064483,121.891307 120.210604,116.96225 119.672876,112.112646" id="Fill-41" fill="#FEFEFE"></path>
                <path d="M99.2943165,117.225124 C97.9799673,114.609602 95.9645343,112.279542 93.5041546,110.324784 C91.3291848,108.597525 88.8058686,107.165872 86.1113064,106.090682 C82.5356326,104.666274 78.3686481,103.707008 74.1416543,103.376626 C74.138727,103.375177 74.1372634,103.375177 74.1343361,103.375177 C74.1314088,103.375177 74.1284815,103.375177 74.1255542,103.375177 C74.0216358,103.372279 73.9191809,103.372279 73.8167261,103.37083 C73.7128076,103.362135 73.6103528,103.350543 73.5078979,103.343298 L73.4991161,103.343298 C73.4961888,103.341849 73.4932615,103.341849 73.4917979,103.343298 C69.253095,103.23462 65.0070738,103.760622 61.3011361,104.806831 C58.5070463,105.596559 55.8461479,106.76014 53.5028594,108.254102 C50.8492792,109.943686 48.5996637,112.053491 47.0160047,114.518312 C42.3601642,121.767871 41.1716881,132.056072 46.5827671,139.33751 C49.873031,143.762885 54.8464814,146.853692 60.3131787,148.517193 C62.3505663,149.135934 64.4508905,149.5663 66.5746328,149.821331 C69.8531876,150.215471 73.3249429,150.400948 76.6298432,150.303862 C79.5468787,150.219818 82.456596,149.803942 85.2419039,149.006969 C89.809926,147.701382 94.003256,145.330749 97.1105648,141.953031 C103.259319,135.270048 103.162718,124.91664 99.2943165,117.225124" id="Fill-43" fill="#FAD9CB"></path>
                <path d="M70.5558534,99.8210501 C69.609724,100.253604 68.6766347,100.724779 67.7145675,101.121802 C65.2702792,102.13367 61.9131862,102.678997 59.8296731,100.797386 C58.2561716,99.3792271 57.7649957,101.14343 58.0996908,102.535327 C58.502484,104.19757 59.5543828,105.813469 60.7308867,106.993723 C64.1734646,110.446432 68.8273199,112.893452 73.7897902,113.281206 C78.5102947,113.651966 86.7632088,111.944922 86.9964811,105.807289 C87.0529881,104.29644 86.424167,102.830391 85.4548553,101.699571 C83.8885983,99.8720297 81.4153321,98.6253471 78.9898795,98.4106149 C76.8571039,98.222145 74.6634747,98.3380077 72.6016951,99.0038319 C71.903327,99.229378 71.2266924,99.5151726 70.5558534,99.8210501" id="Fill-45" fill="#231916"></path>
                <path d="M75.9972385,129.004552 C76.0733007,127.627787 74.568789,126.431487 72.6368072,126.335434 C70.7048255,126.23938 69.0786141,127.277047 69.0025518,128.653812 C68.929532,130.032031 70.4325226,131.226877 72.362983,131.32293 C74.296486,131.420439 75.9211762,130.381316 75.9972385,129.004552" id="Fill-47" fill="#F2A078"></path>
                <path d="M77.5762263,137.211735 C75.7355536,140.294531 68.7647762,139.923743 67.2822567,136.66905 C66.429441,134.796642 67.5156434,133.420038 70.4527935,133.336221 C71.1558893,133.317752 71.8604531,133.337641 72.5664846,133.377419 C72.5870344,133.37884 72.6075842,133.381681 72.6296018,133.381681 C72.6516194,133.383102 72.6721692,133.383102 72.6941868,133.385943 C73.3987505,133.418618 74.1033143,133.472602 74.799071,133.566365 C77.7112677,133.957042 78.6345398,135.440193 77.5762263,137.211735" id="Fill-49" fill="#231916"></path>
                <path d="M61.1282816,130.05515 C61.219017,129.857518 61.3265036,129.679204 61.4367821,129.494945 C61.6070855,129.211128 61.1631798,129.815911 61.3809449,129.573701 C61.4479495,129.497917 61.5093704,129.419161 61.5805628,129.344864 C61.6322122,129.291369 61.7257395,129.160605 61.795536,129.139802 C61.7243436,129.197754 61.6531511,129.255706 61.5805628,129.313658 C61.6238366,129.279481 61.6699023,129.245304 61.714572,129.214099 C61.8695202,129.102653 62.032844,129.010523 62.2045433,128.928796 C62.0691382,128.98972 61.933733,129.050644 61.7997238,129.110083 C62.0412196,129.003094 62.2882991,128.930282 62.549338,128.891647 C62.3985776,128.91245 62.2492131,128.93474 62.0984527,128.955543 C62.3036544,128.933254 62.5046682,128.931768 62.7112658,128.957029 C62.5605054,128.93474 62.4111409,128.91245 62.2617765,128.891647 C62.5158357,128.930282 62.7573315,129.003094 62.9932436,129.110083 C62.8592343,129.049158 62.7252251,128.988234 62.5898199,128.92731 C62.7824582,129.020925 62.9569494,129.135344 63.1342325,129.257192 C63.3882917,129.434021 62.8243361,128.961487 63.0434971,129.187352 C63.123065,129.267594 63.204029,129.341892 63.2808051,129.426591 C63.3506016,129.503861 63.4511085,129.59599 63.4985701,129.691091 C63.4441289,129.618279 63.3896876,129.542496 63.3352463,129.468198 C63.3673527,129.517234 63.3994591,129.566271 63.4301696,129.616793 C63.5571992,129.821855 63.6618939,130.037319 63.7540252,130.261698 C63.698188,130.11756 63.6409549,129.974909 63.5837218,129.832257 C63.6060567,129.888723 63.6269956,129.946676 63.6479346,130.004628 C63.8098624,130.456358 64.0220437,130.830819 64.4254674,131.081946 C64.7884091,131.307811 65.3244461,131.404398 65.7306616,131.263232 C66.534717,130.986845 67.2522249,129.989768 66.9144099,129.046186 C66.5779909,128.113006 66.1061667,127.231835 65.3774914,126.582472 C64.5776237,125.869213 63.680041,125.4368 62.6358856,125.343185 C60.7974463,125.176758 58.9925093,126.52452 58.203809,128.234855 C57.8157406,129.080363 57.9623132,130.224549 58.8124344,130.701541 C59.5746119,131.130982 60.7122946,130.958611 61.1282816,130.05515" id="Fill-51" fill="#231916"></path>
                <path d="M86.9175868,130.0185 C86.5994961,129.082757 86.1321261,128.199668 85.4122368,127.552772 C84.6086395,126.833664 83.6948265,126.398889 82.6442903,126.335704 C80.7943422,126.222873 79.0183363,127.608435 78.2077632,129.333993 C77.8073597,130.185489 77.9733806,131.352912 78.8132515,131.831314 C79.5847608,132.270602 80.7022634,132.08556 81.1305696,131.176896 C81.2226485,130.981322 81.3286787,130.799289 81.4402894,130.614246 C81.5421342,130.463805 81.5058607,130.514955 81.3300738,130.766192 C81.3663473,130.718051 81.4026208,130.672918 81.4402894,130.627786 C81.5058607,130.549557 81.5742223,130.474336 81.643979,130.40062 C81.7137358,130.331417 81.7932584,130.269736 81.8602249,130.19602 C81.5170218,130.570619 81.6760671,130.346461 81.8141854,130.251684 C81.9816015,130.13434 82.1573885,130.038057 82.3401511,129.955315 C82.204823,130.015491 82.069495,130.077172 81.9369572,130.138853 C82.1532031,130.047084 82.3722391,129.98089 82.6024363,129.941775 C82.4531569,129.964341 82.3024824,129.986907 82.1532031,130.007969 C82.38061,129.976376 82.6038314,129.974872 82.8312383,130.003456 C82.681959,129.982394 82.5312845,129.959828 82.3820051,129.938766 C82.6080168,129.974872 82.8242627,130.039562 83.0377182,130.131331 C82.9023902,130.06965 82.7670622,130.009473 82.6331293,129.947793 C82.7977551,130.024518 82.9568004,130.113278 83.1088701,130.220091 C83.4590488,130.468319 82.8730924,129.982394 83.0795722,130.188498 C83.1479338,130.257701 83.2176905,130.322391 83.2832619,130.394603 C83.3488332,130.466814 83.4102191,130.543539 83.4730001,130.61876 C83.6752946,130.863978 83.2204808,130.230622 83.429751,130.569114 C83.5455471,130.75867 83.6432065,130.958756 83.7311,131.166365 C83.6738995,131.020437 83.616699,130.874509 83.5594985,130.730086 C83.5929817,130.815837 83.6250698,130.901589 83.6543676,130.988845 C83.8078324,131.443176 84.0338441,131.828305 84.4328525,132.079542 C84.7955875,132.308212 85.3285288,132.404495 85.735908,132.26308 C86.5492713,131.978746 87.2440482,130.978314 86.9175868,130.0185" id="Fill-53" fill="#231916"></path>
                <g id="Group-57" transform="translate(35.000000, 148.329268)">
                    <mask id="mask-2" fill="white">
                        <use xlink:href="#path-1"></use>
                    </mask>
                    <g id="Clip-56"></g>
                    <path d="M67.8048484,67.8203289 C67.6426701,65.7227961 67.4702643,63.6252632 67.3022418,61.5277303 C66.5921639,52.5514145 65.8557869,43.5780592 65.0828832,34.6076645 C65.0595061,34.3352961 65.0390512,34.0644079 65.0156742,33.7920395 C64.8973279,32.416875 64.7731373,31.0402303 64.6504078,29.6650658 C64.5627439,29.6798684 64.476541,29.6931908 64.388877,29.7065132 C64.3844939,29.6621053 64.3815717,29.6162171 64.3771885,29.5718092 C64.1054303,26.1020724 63.8336721,22.6338158 63.5546086,19.1655592 C63.519543,18.7318421 63.4873996,18.298125 63.452334,17.8658882 C63.2127193,14.9364474 64.2690697,6.57740132 62.1096148,4.61457237 C60.7099139,3.34302632 58.7009488,3.07805921 56.8249406,2.87230263 C50.7366803,2.20174342 44.6484201,1.53266447 38.5601598,0.863585526 L38.564543,0.794013158 L37.9567398,0.796973684 C37.7551127,0.774769737 37.5534857,0.752565789 37.3518586,0.730361842 L37.3474754,0.798453947 C31.2241496,0.822138158 25.0993627,0.844342105 18.9760369,0.866546053 C17.0912623,0.873947368 15.0647643,0.924276316 13.542334,2.04039474 C11.1914795,3.76638158 11.381418,12.1890789 10.8437459,15.0785526 C10.7633873,15.5048684 10.6859508,15.9326645 10.6070533,16.3589803 C9.97148975,19.7798684 9.34469262,23.2007566 8.71789549,26.6216447 C8.7091291,26.6660526 8.7003627,26.7119408 8.69159631,26.7563487 C8.60685451,26.7326645 8.5221127,26.7104605 8.43590984,26.6867763 C8.17291803,28.0412171 7.90846516,29.3971382 7.64693443,30.7530592 C7.5972582,31.0209868 7.54904303,31.2889145 7.49790574,31.5553618 C5.80453074,40.3969737 4.14914344,49.2430263 2.5171332,58.095 C2.13725615,60.1629276 1.7486127,62.2308553 1.37019672,64.3002632 C0.0230942623,71.679375 -1.15014139,79.8385855 3.12347541,86.2140789 C7.88947131,93.3178618 17.6669221,95.6285526 26.5151352,96.8334868 C28.4335143,97.0954934 30.3913422,97.3204934 32.3579365,97.4818421 L32.3550143,97.5129276 C32.5581025,97.5203289 32.7611906,97.5232895 32.9628176,97.5292105 C33.1659057,97.5454934 33.3675328,97.5632566 33.5676988,97.5765789 L33.5706209,97.5469737 C35.5430594,97.5928618 37.5140369,97.5765789 39.4484877,97.5188487 C48.3726762,97.2553618 58.3342213,95.9912171 63.8044508,89.4292105 C68.7121701,83.5407237 68.3834303,75.3015789 67.8048484,67.8203289" id="Fill-55" fill="#FEFEFE" mask="url(#mask-2)"></path>
                </g>
                <g id="Group-60" transform="translate(81.000000, 147.329268)">
                    <mask id="mask-4" fill="white">
                        <use xlink:href="#path-3"></use>
                    </mask>
                    <g id="Clip-59"></g>
                    <path d="M26.76758,14.6180632 C28.06533,20.0633263 29.31813,27.8709053 24.06768,31.6803789 C22.61188,32.7355368 20.83853,33.2542737 19.06808,33.5077474 C17.48323,33.7376421 15.84328,33.7656421 14.29903,33.3279579 C12.90993,32.9344842 11.65133,32.1799579 10.41158,31.4328 C6.38493,29.0085895 0.86188,24.1130105 0.48488,18.9683789 C0.35293,17.1837474 1.04023,15.4506947 1.76523,13.8208 C2.48588,12.1997474 3.52988,10.3944842 5.26698,10.1719579 C6.87213,9.96711579 8.25253,11.2226947 9.46763,12.3102737 C11.38743,14.0285895 13.83213,15.1029053 13.74948,11.9772211 C13.69293,9.77406316 11.80503,7.84058947 12.59238,5.49743158 C13.63493,2.39827368 18.16618,2.00774737 20.74138,0.937852632 C20.99948,0.830273684 21.29383,0.721221053 21.55338,0.8288 C21.80858,0.934905263 21.94488,1.21195789 22.05798,1.46837895 C23.92993,5.70374737 25.69458,10.1115368 26.76758,14.6180632" id="Fill-58" fill="#FEFEFE" mask="url(#mask-4)"></path>
                </g>
                <g id="Group-63" transform="translate(33.000000, 144.329268)">
                    <mask id="mask-6" fill="white">
                        <use xlink:href="#path-5"></use>
                    </mask>
                    <g id="Clip-62"></g>
                    <path d="M0.377705263,21.8268571 C0.645915789,26.2082857 2.6796,29.8625714 7.36002105,31.0011429 C10.2587579,31.7054286 13.3667579,31.2025714 16.1137053,30.0582857 C21.8537053,27.664 29.3370737,19.844 27.2341263,13.254 C25.6454947,8.28542857 21.7446526,3.58971429 17.0450737,1.08542857 C16.3436,0.712571429 15.6082316,0.372571429 14.8198105,0.242571429 C12.2953895,-0.177428571 9.96991579,1.57114286 8.15581053,3.32685714 C3.0436,8.27971429 -0.0555578947,14.7254286 0.377705263,21.8268571" id="Fill-61" fill="#FEFEFE" mask="url(#mask-6)"></path>
                </g>
                <path d="M96.2875109,159.329268 C96.0565489,159.329268 95.8284382,159.216812 95.6915718,159.007557 C93.9222884,156.314292 87.4325396,152.698599 87.3669578,152.663011 C87.0233661,152.472262 86.8979052,152.039518 87.0903736,151.695031 C87.2799906,151.351967 87.7148266,151.228122 88.0584183,151.418871 C88.3378539,151.574033 94.923124,155.243819 96.8834501,158.228902 C97.0987295,158.556307 97.0074853,158.997592 96.6781505,159.212541 C96.5569667,159.292257 96.4229517,159.329268 96.2875109,159.329268" id="Fill-64" fill="#DBDCDC"></path>
                <path d="M39.7380256,160.329268 C39.5799407,160.329268 39.4203783,160.279888 39.2859323,160.178222 C38.9653302,159.932772 38.9047557,159.47673 39.1529637,159.160114 C39.3790103,158.87545 44.6696833,152.155355 46.8016132,150.486586 C47.1192604,150.238232 47.586128,150.289065 47.8387683,150.602776 C48.0928861,150.916487 48.0411761,151.372529 47.7220514,151.622336 C45.7275224,153.183629 40.3762749,159.979248 40.3230874,160.047509 C40.176822,160.233412 39.9581625,160.329268 39.7380256,160.329268" id="Fill-66" fill="#DBDCDC"></path>
                <g id="Group-70" transform="translate(87.000000, 167.329268)">
                    <mask id="mask-8" fill="white">
                        <use xlink:href="#path-7"></use>
                    </mask>
                    <g id="Clip-69"></g>
                    <path d="M7.18506667,9.55062857 C7.01897143,9.55062857 6.84982857,9.49729524 6.7096381,9.38605714 C4.46049524,7.59405714 0.42392381,1.55977143 0.251733333,1.30377143 C0.0201142857,0.953295238 0.113066667,0.480914286 0.463542857,0.247771429 C0.809447619,0.0131047619 1.28335238,0.107580952 1.51954286,0.458057143 C1.56068571,0.519009524 5.59420952,6.55024762 7.66049524,8.19291429 C7.98811429,8.45500952 8.04144762,8.93500952 7.78087619,9.26415238 C7.63001905,9.45310476 7.40754286,9.55062857 7.18506667,9.55062857" id="Fill-68" fill="#DBDCDC" mask="url(#mask-8)"></path>
                </g>
                <path d="M46.7089143,174.329268 C46.3833169,174.329268 46.0875778,174.091481 46.0164867,173.745877 C45.9325991,173.347103 46.1771526,172.955713 46.5610448,172.870051 C49.0193762,172.319152 51.0923937,168.780401 51.6682319,167.708142 C51.8601779,167.350722 52.2952557,167.223705 52.6364931,167.424569 C52.9777306,167.622479 53.1014291,168.072946 52.9094831,168.427412 C52.0748732,169.976723 49.8184406,173.651352 46.8596275,174.311545 C46.8084419,174.323361 46.7586781,174.329268 46.7089143,174.329268" id="Fill-71" fill="#DBDCDC"></path>
                <g id="Group-75" transform="translate(47.000000, 141.329268)">
                    <mask id="mask-10" fill="white">
                        <use xlink:href="#path-9"></use>
                    </mask>
                    <g id="Clip-74"></g>
                    <path d="M37.5919286,1.97052174 C35.0200654,1.79756522 32.5882979,2.55886957 30.4632665,3.8346087 C29.3896906,4.4806087 28.3972227,5.23452174 27.4460462,6.0253913 C26.5863007,6.73791304 25.5702378,7.64556522 24.3226482,7.54356522 C23.0706345,7.514 22.1533759,6.50434783 21.3747384,5.70608696 C20.5105688,4.82208696 19.6036331,3.96765217 18.6008424,3.21373913 C16.6203308,1.72217391 14.2814689,0.709565217 11.7051817,0.613478261 C5.08233899,0.363652174 0.441482627,6.80443478 0.0565879617,12.3774783 C-0.182312175,15.8602609 0.419362244,19.1242609 1.63303393,22.1665217 C4.35826512,28.9886957 10.1729765,34.6903478 16.556919,39.1946087 C18.3604676,40.465913 20.308536,41.7845217 22.4851817,42.1851304 L22.4851817,42.1925217 C22.4955045,42.1925217 22.5058274,42.1910435 22.5146755,42.1910435 C22.5249984,42.1910435 22.5353212,42.194 22.5441694,42.1954783 L22.545644,42.188087 C24.7517836,42.0166087 26.8266755,40.9093913 28.7526235,39.8332174 C35.5701256,36.0207826 41.9466947,30.9592174 45.3665059,24.4593043 C46.8913376,21.5604348 47.8292419,18.3762609 47.953116,14.8875652 C48.1521995,9.30565217 44.2044484,2.414 37.5919286,1.97052174" id="Fill-73" fill="#D6002A" mask="url(#mask-10)"></path>
                </g>
            </g>
        </g>
    </g>
</svg>