<?xml version="1.0" encoding="UTF-8"?>
<svg width="483px" height="541px" viewBox="0 0 483 541" version="1.1" xmlns="http://www.w3.org/2000/svg" xmlns:xlink="http://www.w3.org/1999/xlink">
    <title>heart-characters-hover</title>
    <defs>
        <rect id="path-1" x="0" y="0" width="483" height="541"></rect>
    </defs>
    <g id="R4" stroke="none" stroke-width="1" fill="none" fill-rule="evenodd">
        <g id="D---Homepage---Hover-Full-Layout---1440" transform="translate(-507.000000, -1879.000000)">
            <g id="ABOUT-BG" transform="translate(-400.000000, 1879.000000)">
                <g id="heart-characters-hover" transform="translate(907.000000, 0.000000)">
                    <mask id="mask-2" fill="white">
                        <use xlink:href="#path-1"></use>
                    </mask>
                    <g id="Rectangle"></g>
                    <g id="Characters" mask="url(#mask-2)">
                        <g transform="translate(11.442014, 46.601775)">
                            <path d="M411.401941,327.680745 C409.951291,322.909845 408.477841,318.144645 407.021491,313.373745 C400.782841,292.967745 394.490041,272.581695 388.123141,252.215595 C387.932191,251.599995 387.744091,250.981545 387.553141,250.365945 C386.572741,247.242345 385.583791,244.121595 384.600541,241.000845 C384.420991,241.077795 384.241441,241.151895 384.059041,241.231695 C384.030541,241.126245 383.999191,241.023645 383.964991,240.921045 C381.559591,233.035095 379.159891,225.143445 376.737391,217.263195 C376.435291,216.277095 376.138891,215.290995 375.836791,214.307745 C373.787641,207.650145 371.670091,187.777095 365.992891,184.331445 C362.322091,182.097045 357.864691,182.507445 353.729341,182.980545 L313.424641,187.603245 L313.396141,187.440795 C312.960091,187.546245 312.526891,187.651695 312.090841,187.754295 C311.646241,187.805595 311.201641,187.856895 310.757041,187.908195 L310.782691,188.067795 C297.635641,191.228445 284.488591,194.389095 271.338691,197.549745 C267.294541,198.524445 262.965391,199.667295 260.280691,203.024595 C256.133941,208.208745 260.958991,227.602995 261.318091,234.559845 C261.369391,235.588695 261.429241,236.614695 261.483391,237.643545 C261.913741,245.877195 262.361191,254.113695 262.805791,262.347345 L262.822891,262.669395 C262.629091,262.657995 262.432441,262.652295 262.238641,262.640895 C262.383991,265.909845 262.526491,269.178795 262.677541,272.447745 C262.706041,273.091845 262.745941,273.738795 262.777291,274.382895 C263.777641,295.695195 264.857791,317.004645 265.997791,338.311245 C266.265691,343.293045 266.516491,348.274845 266.792941,353.253795 C267.770491,371.012145 269.526091,390.486195 282.057541,403.066095 C296.028241,417.085245 318.246841,417.469995 337.894741,415.765695 C342.155491,415.398045 346.478941,414.924945 350.790991,414.300795 L350.802391,414.372045 C351.244141,414.286545 351.680191,414.189645 352.116241,414.104145 C352.560841,414.035745 353.002591,413.975895 353.444341,413.904645 L353.430091,413.833395 C357.696541,412.941345 361.920241,411.901095 366.047041,410.786745 C385.090741,405.648195 405.830191,397.668195 414.143641,379.707495 C421.602091,363.593595 416.571841,344.698095 411.401941,327.680745" id="Fill-1" stroke="none" fill="#FEFEFE" fill-rule="evenodd"></path>
                            <path d="M395.223061,91.45365 C393.313561,86.03295 390.990811,80.7576 388.217761,75.72165 C384.202111,68.4228 379.285861,61.64265 373.614361,55.55505 C362.533561,43.66485 352.490161,32.31045 345.325261,17.3166 C344.162461,14.87985 342.768811,12.54 341.494861,10.16025 C340.508761,8.3106 339.608161,6.3726 338.488111,4.6113 C337.519111,3.08655 336.752461,1.3566 335.524111,0 C334.894261,2.1546 333.939511,4.0926 333.081661,6.1332 C332.087011,8.5044 331.365961,10.9896 330.305761,13.33515 C323.263411,28.90755 309.235711,37.60575 293.543611,42.6588 C279.741061,47.0991 265.274461,49.27935 251.699911,54.44355 C223.493461,65.17095 198.601561,96.40695 195.782911,126.8991 C193.488661,151.72545 201.870511,177.61485 219.836911,194.8545 C234.597061,209.01615 253.834561,216.77955 273.508111,218.7375 C280.832611,219.46425 288.214111,219.42435 295.518661,218.70615 C301.512211,218.1162 307.636861,217.23555 313.701661,216.11265 C313.727311,216.1098 313.752961,216.1041 313.778611,216.0984 C313.801411,216.09555 313.824211,216.0927 313.849861,216.08415 C319.937461,215.061 325.988011,213.78705 331.824811,212.2851 C338.929861,210.4554 345.878161,207.9645 352.510111,204.7668 C370.316911,196.17975 385.726861,182.2917 394.732861,163.92345 C400.977211,151.19535 403.000711,136.75155 401.798011,122.67255 C400.894561,112.1418 398.777011,101.54265 395.223061,91.45365" id="Fill-3" stroke="none" fill="#FEFEFE" fill-rule="evenodd"></path>
                            <path d="M354.955696,109.78656 C350.820346,104.76771 345.325546,100.71216 339.064096,97.69686 C333.529396,95.03211 327.393346,93.17676 321.069196,92.18781 C312.678796,90.87396 303.250996,90.85971 294.008446,92.24481 C294.002746,92.24196 293.997046,92.24481 293.991346,92.24481 C293.985646,92.24766 293.979946,92.24766 293.977096,92.24766 C293.749096,92.29326 293.529646,92.34456 293.307346,92.39301 C293.082196,92.42436 292.857046,92.45001 292.631896,92.48706 C292.626196,92.48706 292.620496,92.48706 292.614796,92.48991 C292.609096,92.48991 292.603396,92.48991 292.594846,92.49276 C283.440646,94.36236 274.591396,97.61136 267.158596,101.72106 C261.558346,104.81901 256.431196,108.66651 252.144796,113.06976 C247.299796,118.04871 243.526396,123.74016 241.363246,129.87336 C234.999196,147.90531 237.609796,170.80791 252.882946,183.91221 C262.162546,191.87511 274.386196,196.11021 286.963246,196.99941 C291.642946,197.33286 296.371096,197.21886 301.056496,196.72011 C308.295496,195.94491 315.842296,194.62536 322.887496,192.77286 C329.109046,191.13981 335.145346,188.79711 340.728496,185.68491 C349.879846,180.58341 357.691696,173.36151 362.670646,164.49516 C372.520246,146.95056 367.119496,124.54386 354.955696,109.78656" id="Fill-5" stroke="none" fill="#FAD9CB" fill-rule="evenodd"></path>
                            <path d="M282.186076,159.59886 C277.215676,160.47951 272.299426,156.28146 271.233526,150.24516 C270.164776,144.20886 273.339676,138.58011 278.312926,137.70231 C283.286176,136.82451 288.196726,141.01971 289.265476,147.05601 C290.331376,153.09231 287.156476,158.71821 282.186076,159.59886" id="Fill-7" stroke="none" fill="#160403" fill-rule="evenodd"></path>
                            <path d="M287.535526,147.36267 C286.634926,142.27257 282.642076,138.72432 278.620726,139.43397 C274.596526,140.14647 272.062876,144.84897 272.966326,149.93907 C273.864076,155.02917 277.856926,158.58027 281.881126,157.86777 C285.902476,157.15812 288.433276,152.45277 287.535526,147.36267" id="Fill-9" stroke="none" fill="#231916" fill-rule="evenodd"></path>
                            <path d="M326.803681,151.708635 C321.833281,152.589285 316.917031,148.391235 315.851131,142.354935 C314.782381,136.318635 317.957281,130.689885 322.933381,129.812085 C327.903781,128.934285 332.817181,133.129485 333.883081,139.165785 C334.951831,145.202085 331.776931,150.827985 326.803681,151.708635" id="Fill-11" stroke="none" fill="#160403" fill-rule="evenodd"></path>
                            <path d="M332.152846,139.47216 C331.252246,134.38206 327.259396,130.83381 323.238046,131.54346 C319.213846,132.25596 316.683046,136.95846 317.583646,142.04856 C318.484246,147.13866 322.474246,150.68976 326.498446,149.97726 C330.522646,149.26476 333.050596,144.56226 332.152846,139.47216" id="Fill-13" stroke="none" fill="#231916" fill-rule="evenodd"></path>
                            <path d="M285.097351,88.898625 C283.250551,90.255225 281.446501,91.683075 279.548401,92.971275 C274.717651,96.254475 267.700951,99.047475 262.291651,96.265875 C258.213301,94.168275 257.976751,98.007225 259.361851,100.666275 C261.014851,103.846875 264.058651,106.608525 267.162301,108.418275 C276.250951,113.716425 287.499901,116.355525 298.446751,114.656925 C308.857801,113.040975 325.952101,105.431475 323.569501,92.831625 C322.982401,89.727975 320.927551,87.057525 318.294151,85.244925 C314.036251,82.312275 308.085451,81.018375 302.727451,81.799275 C298.010701,82.486125 293.311051,83.822775 289.152901,86.208225 C287.742151,87.017625 286.408351,87.941025 285.097351,88.898625" id="Fill-15" stroke="none" fill="#231916" fill-rule="evenodd"></path>
                            <path d="M310.705456,148.140435 C310.172506,145.130835 306.470356,143.269785 302.431906,143.985135 C298.393456,144.697635 295.552006,147.715785 296.082106,150.725385 C296.617906,153.734985 300.320056,155.596035 304.358506,154.883535 C308.394106,154.168185 311.238406,151.150035 310.705456,148.140435" id="Fill-17" stroke="none" fill="#F2A078" fill-rule="evenodd"></path>
                            <path d="M281.598976,145.008 C281.895376,146.6895 281.245576,148.2114 280.145476,148.40235 C279.045376,148.599 277.916776,147.39345 277.620376,145.71195 C277.321126,144.03045 277.973776,142.5114 279.071026,142.3176 C280.168276,142.12095 281.302576,143.3265 281.598976,145.008" id="Fill-19" stroke="none" fill="#FEFEFE" fill-rule="evenodd"></path>
                            <path d="M279.686911,153.257325 C279.940561,154.696575 279.384811,156.001875 278.441461,156.167175 C277.498111,156.335325 276.529111,155.300775 276.275461,153.858675 C276.018961,152.419425 276.574711,151.116975 277.518061,150.948825 C278.458561,150.783525 279.430411,151.815225 279.686911,153.257325" id="Fill-21" stroke="none" fill="#FEFEFE" fill-rule="evenodd"></path>
                            <path d="M286.015906,151.012665 C286.192606,152.021565 285.679606,152.959215 284.861656,153.101715 C284.046556,153.247065 283.237156,152.545965 283.060456,151.537065 C282.880906,150.525315 283.399606,149.587665 284.214706,149.445165 C285.029806,149.299815 285.839206,150.003765 286.015906,151.012665" id="Fill-23" stroke="none" fill="#FEFEFE" fill-rule="evenodd"></path>
                            <path d="M326.366776,137.09127 C326.663176,138.77277 326.016226,140.29182 324.916126,140.48562 C323.816026,140.68227 322.684576,139.47672 322.388176,137.79522 C322.088926,136.11372 322.741576,134.59467 323.838826,134.40087 C324.938926,134.20422 326.070376,135.40977 326.366776,137.09127" id="Fill-25" stroke="none" fill="#FEFEFE" fill-rule="evenodd"></path>
                            <path d="M324.454711,145.340595 C324.708361,146.779845 324.152611,148.085145 323.209261,148.250445 C322.265911,148.418595 321.299761,147.384045 321.043261,145.941945 C320.786761,144.502695 321.345361,143.200245 322.285861,143.032095 C323.229211,142.866795 324.198211,143.898495 324.454711,145.340595" id="Fill-27" stroke="none" fill="#FEFEFE" fill-rule="evenodd"></path>
                            <path d="M330.786271,143.095935 C330.962971,144.104835 330.447121,145.042485 329.632021,145.184985 C328.814071,145.330335 328.004671,144.629235 327.827971,143.617485 C327.648421,142.608585 328.167121,141.670935 328.982221,141.528435 C329.800171,141.383085 330.606721,142.087035 330.786271,143.095935" id="Fill-29" stroke="none" fill="#FEFEFE" fill-rule="evenodd"></path>
                            <path d="M317.961271,166.700205 C315.806671,175.520955 300.698821,178.182855 295.657171,170.644605 C292.753021,166.306905 294.274921,162.228555 300.507871,160.498605 C301.995571,160.085355 303.517471,159.769005 305.045071,159.509655 C305.087821,159.501105 305.136271,159.495405 305.184721,159.484005 C305.230321,159.478305 305.275921,159.466905 305.321521,159.461205 C306.849121,159.179055 308.382421,158.953905 309.924271,158.831355 C316.370971,158.321205 319.201021,161.630055 317.961271,166.700205" id="Fill-31" stroke="none" fill="#231916" fill-rule="evenodd"></path>
                            <path d="M386.820691,204.82038 C389.263141,209.90193 391.429141,215.10603 393.301591,220.40703 C395.202541,225.77928 396.821341,231.34818 396.693091,237.04818 C396.561991,242.75103 394.490041,248.66478 389.989891,252.60633 C381.955741,259.64868 368.478091,256.21728 360.820141,250.81938 C347.826991,241.66518 331.174441,214.36788 344.187541,199.34553 C348.659191,194.18133 368.614891,184.20633 375.195541,187.78023 C378.370441,189.50448 380.328391,192.63093 382.044091,195.67188 C383.736991,198.67293 385.332991,201.72243 386.820691,204.82038" id="Fill-33" stroke="none" fill="#FEFEFE" fill-rule="evenodd"></path>
                            <path d="M344.663491,226.070265 C351.816991,232.209165 359.828341,237.347715 368.392591,241.280715" id="Stroke-35" stroke="#DBDCDC" stroke-width="2.79015" fill="none" stroke-linecap="round" stroke-linejoin="round"></path>
                            <path d="M346.773061,196.47786 C353.464861,200.57331 360.156661,204.67161 366.851311,208.76706" id="Stroke-37" stroke="#DBDCDC" stroke-width="2.79015" fill="none" stroke-linecap="round" stroke-linejoin="round"></path>
                            <path d="M341.969386,192.63264 C340.903486,192.57849 339.777736,192.68394 338.828686,192.16239 C338.121886,191.77479 337.617436,191.09079 337.124386,190.43244 C335.126536,187.77054 332.966236,185.16564 330.247336,183.33879 C327.528436,181.51194 324.151186,180.53439 321.061786,181.38369 C317.610436,182.33274 314.999836,185.44779 313.777186,188.95614 C312.557386,192.46449 312.551686,196.32909 312.916486,200.07114 C313.953886,210.70734 318.682036,221.92494 327.927436,226.57329 C330.820186,228.02964 333.986536,228.75639 337.147186,229.26369 C340.783786,229.84794 344.827936,230.05314 347.737786,227.76459 C351.727786,224.63244 351.761986,218.43939 351.203386,213.19824 C350.419636,205.79109 351.553936,193.10289 341.969386,192.63264" id="Fill-39" stroke="none" fill="#D6002A" fill-rule="evenodd"></path>
                            <path d="M249.822901,229.046805 C249.270001,234.658455 249.022051,240.290055 249.076201,245.910255 C249.136051,251.610255 249.526501,257.395755 251.601301,262.708155 C253.681801,268.017705 257.654701,272.862705 263.232151,275.023005 C273.195751,278.879055 284.675551,271.035855 290.019301,263.340855 C299.085151,250.285005 305.366551,218.932155 287.992951,209.282055 C282.019351,205.964655 259.852051,203.439555 254.898751,209.051205 C252.504751,211.764405 251.740951,215.369655 251.170951,218.815305 C250.606651,222.215355 250.159201,225.626805 249.822901,229.046805" id="Fill-41" stroke="none" fill="#FEFEFE" fill-rule="evenodd"></path>
                            <path d="M296.708821,234.55044 C292.097521,242.76984 286.331971,250.34229 279.637321,256.97709" id="Stroke-43" stroke="#DBDCDC" stroke-width="2.79015" fill="none" stroke-linecap="round" stroke-linejoin="round"></path>
                            <path d="M284.579506,207.47544 C279.697456,213.61719 274.815406,219.76179 269.933356,225.90639" id="Stroke-45" stroke="#DBDCDC" stroke-width="2.79015" fill="none" stroke-linecap="round" stroke-linejoin="round"></path>
                            <path d="M287.772076,202.21662 C288.755326,201.80337 289.849726,201.51267 290.562226,200.69757 C291.092326,200.09052 291.334576,199.27542 291.571126,198.48882 C292.534426,195.30252 293.668726,192.11622 295.598176,189.46572 C297.527626,186.81807 300.363376,184.74327 303.555376,184.47822 C307.123576,184.18467 310.643326,186.21957 312.994576,189.09522 C315.345826,191.97087 316.676776,195.60177 317.617276,199.24122 C320.287726,209.58672 319.692076,221.74767 312.604126,229.28307 C310.386826,231.64287 307.662226,233.41272 304.866376,234.97167 C301.648726,236.76717 297.923776,238.34892 294.401176,237.19752 C289.581826,235.62147 287.427226,229.81887 286.153276,224.70312 C284.349226,217.47552 278.928526,205.94727 287.772076,202.21662" id="Fill-47" stroke="none" fill="#D6002A" fill-rule="evenodd"></path>
                            <path d="M59.0872206,339.190755 C59.0872206,339.190755 53.0708706,329.871255 54.3476706,324.333705" id="Stroke-49" stroke="#160403" stroke-width="4.3206" fill="none" stroke-linecap="round" stroke-linejoin="round"></path>
                            <path d="M33.8604456,446.23533 C33.7179456,446.46048 33.5640456,446.64003 33.4015956,446.76258 C31.7770956,447.97098 28.0407456,446.75118 26.0913456,446.96778 C20.1547956,447.63183 14.4348456,451.84413 13.2406956,457.88328 C12.4312956,461.97873 13.7935956,466.35063 17.1765456,468.90993 C21.9844956,472.55223 29.2206456,473.92308 35.0973456,474.55008 C39.6658956,475.03458 44.5564956,474.86358 48.4638456,472.44393 C51.1029456,470.80803 52.8385956,467.91528 53.2974456,464.87148 C53.8531956,461.20638 51.6130956,458.53593 51.5104956,455.02473 C51.4335456,452.36853 52.0519956,449.71518 52.6504956,447.14733 C54.2749956,440.18193 55.8966456,433.21653 57.5211456,426.25113 C58.5243456,421.89348 52.7445456,417.89778 49.0024956,416.83758 C47.2725456,416.34453 45.4570956,416.25903 43.6587456,416.17353 C42.1681956,416.10513 40.6833456,416.27043 39.2127456,416.44713 C37.7563956,423.30708 37.3801956,430.44063 35.8668456,437.34333 C35.4963456,439.04478 35.0716956,444.31158 33.8604456,446.23533" id="Fill-51" stroke="none" fill="#AC0015" fill-rule="evenodd"></path>
                            <path d="M89.8806156,459.152385 C89.9119656,459.417435 89.9689656,459.642585 90.0630156,459.824985 C90.9978156,461.626185 94.8880656,462.164835 96.5439156,463.213635 C101.591266,466.405635 104.894416,472.701285 103.318366,478.654935 C102.252466,482.687685 99.1117656,486.022185 94.9536156,486.842985 C89.0341656,488.011485 81.9291156,486.076335 76.3744656,484.067085 C72.0510156,482.502435 67.7332656,480.208185 65.2765656,476.320785 C63.6207156,473.695935 63.3271656,470.335785 64.2477156,467.394585 C65.3535156,463.857735 68.5341156,462.438435 70.1643156,459.326235 C71.3983656,456.972135 72.0054156,454.315935 72.5896656,451.742385 C74.1799656,444.771285 75.7702656,437.800185 77.3577156,430.826235 C78.3637656,426.468585 85.3120656,425.408385 89.1396156,426.089535 C90.9094656,426.405885 92.5795656,427.124085 94.2325656,427.836585 C95.6062656,428.426535 96.8688156,429.227385 98.1114156,430.028235 C96.4185156,436.831185 93.6312156,443.411835 91.9696656,450.280335 C91.5621156,451.970385 89.6355156,456.895185 89.8806156,459.152385" id="Fill-53" stroke="none" fill="#AC0015" fill-rule="evenodd"></path>
                            <path d="M127.150636,403.556295 C128.723836,386.442045 130.217236,369.319245 131.630836,352.190745 C132.337636,343.623645 133.027336,335.056545 133.694236,326.486595 C134.013436,322.359795 137.627236,311.070945 134.731636,307.739295 C132.856336,305.584695 129.795436,304.649895 126.928336,303.834795 C117.620236,301.189995 108.314986,298.542345 99.0097356,295.897545 L99.0296856,295.803495 C98.7133356,295.746495 98.3998356,295.689495 98.0834856,295.635345 C97.7756856,295.546995 97.4678856,295.458645 97.1600856,295.373145 L97.1401356,295.467195 C87.6125856,293.771445 78.0850356,292.072845 68.5603356,290.377095 C65.6276856,289.852695 62.4670356,289.353945 59.8364856,290.471145 C55.7723856,292.198245 54.0794856,303.925995 52.5604356,307.779195 C49.4083356,315.776295 46.2761856,323.779095 43.1611356,331.790445 C36.9310356,347.810295 30.7778856,363.858645 24.6988356,379.932645 C20.6917356,390.534645 16.7473356,402.342195 21.7462356,413.001195 C27.3179856,424.885695 41.9327856,431.027445 55.3847856,435.268245 C58.3031856,436.188795 61.2899856,437.063745 64.3081356,437.850345 L64.2967356,437.893095 C64.6130856,437.961495 64.9265856,438.021345 65.2372356,438.086895 C65.5507356,438.166695 65.8585356,438.249345 66.1691856,438.326295 L66.1777356,438.280695 C69.2386356,438.896295 72.3052356,439.417845 75.3290856,439.868145 C89.2855356,441.945795 105.111586,442.820745 115.325986,434.578545 C124.485886,427.182795 126.113236,414.842295 127.150636,403.556295" id="Fill-55" stroke="none" fill="#AC0015" fill-rule="evenodd"></path>
                            <path d="M75.9452556,389.299455 C64.9100556,386.059005 53.5699056,381.427755 48.3686556,378.036255 L48.0238056,377.808255 C42.4948056,374.205855 29.5444056,365.767005 34.7342556,353.189955 L64.7476056,280.457955 C66.1013556,276.844155 68.9314056,273.780405 72.6364056,272.024805 C75.8854056,270.488655 79.6075056,270.089655 83.1215556,270.901905 C83.7457056,271.044405 84.3670056,271.226805 84.9683556,271.443405 C85.2334056,271.506105 86.1425556,271.717005 86.2679556,271.745505 C89.2804056,272.440905 94.6412556,273.595155 101.774806,275.088555 C102.022756,275.134155 102.678256,275.268105 102.740956,275.282355 C102.792256,275.293755 103.519006,275.476155 103.761256,275.547405 C110.832106,277.328655 116.155906,278.636805 119.168356,279.332205 C119.293756,279.360705 120.200056,279.571605 120.467956,279.628605 C121.103506,279.697005 121.739056,279.805305 122.366056,279.947805 C125.880106,280.760055 129.055006,282.746505 131.295106,285.545205 C133.862956,288.754305 135.065656,292.750005 134.683756,296.797005 C134.683756,296.797005 129.838756,375.109305 129.835906,375.117855 C128.995156,388.698105 113.656456,390.613305 107.110006,391.431255 L106.699606,391.482555 C100.609156,392.246355 88.6078056,391.476855 77.3845056,389.604405 C77.1080556,389.575905 76.8316056,389.533155 76.5551556,389.470455 C76.4155056,389.436255 75.9965556,389.316555 75.9452556,389.299455" id="Fill-57" stroke="none" fill="#D6002A" fill-rule="evenodd"></path>
                            <path d="M88.1800206,340.67817 C87.7753206,340.58697 87.3763206,340.46442 86.9830206,340.31622 C86.9801706,340.31337 86.6894706,340.20792 86.5498206,340.14807 C75.6685206,336.03552 67.3094706,328.20372 58.9988706,319.85892 C27.9367206,288.65997 8.91867056,257.21592 2.46912056,226.40457 C-1.05062944,209.60382 -0.805529437,192.91707 3.19302056,176.80602 C10.7483706,146.37087 41.8988706,118.74867 76.2356706,126.14442 L77.0821206,126.33252 C89.2658706,129.13977 100.714321,135.97977 110.196271,146.10867 C113.958271,150.13002 117.597721,154.75557 121.647571,160.67502 L122.095021,161.32767 C123.750871,163.76157 126.019471,167.09322 127.669621,167.47227 C127.732321,167.48652 128.239621,167.60337 128.239621,167.60337 C129.938221,167.99667 133.435171,165.99312 135.988771,164.52822 L136.669921,164.14347 C142.917121,160.58952 148.215271,158.02167 153.348121,156.05802 C166.307071,151.10187 179.596621,149.96757 191.777521,152.77767 L192.626821,152.98002 C226.729921,161.36757 242.644321,199.83972 236.106421,230.50857 C232.649371,246.74217 225.561421,261.85002 215.044921,275.41887 C195.753271,300.29367 164.887771,320.23227 123.300571,334.68462 C112.365121,338.48082 101.606371,341.81247 90.2519706,340.91472 C89.5537206,340.91472 88.8611706,340.83492 88.1800206,340.67817" id="Fill-59" stroke="none" fill="#D6002A" fill-rule="evenodd"></path>
                            <path d="M92.1546306,323.320815 C91.8439806,323.249565 91.5333306,323.155515 91.2312306,323.038665 C91.2283806,323.038665 91.0032306,322.958865 90.8949306,322.910415 C82.4874306,319.732665 76.0293306,313.684965 69.6111306,307.238265 C45.6141306,283.132965 30.9223806,258.842415 25.9377306,235.039215 C23.2216806,222.060315 23.4097806,209.166915 26.4991806,196.723815 C32.3359806,173.208465 56.3985306,151.870515 82.9263306,157.581915 L83.5818306,157.727265 C92.9925306,159.898965 101.838931,165.180015 109.163431,173.006115 C112.067581,176.112615 114.883381,179.689365 118.009831,184.260765 L118.354681,184.765215 C119.637181,186.643365 121.387081,189.216915 122.661031,189.510465 C122.712331,189.521865 123.099931,189.613065 123.099931,189.613065 C124.413781,189.915165 127.118431,188.367615 129.090631,187.236165 L129.615031,186.939765 C134.442931,184.192365 138.535531,182.208765 142.499881,180.692565 C152.511931,176.865015 162.777631,175.990065 172.188331,178.158915 L172.843831,178.315665 C199.192081,184.793715 211.484131,214.516365 206.436781,238.211265 C203.763481,250.748415 198.288631,262.422015 190.163281,272.904315 C175.260631,292.121865 151.414681,307.526115 119.289481,318.692415 C110.839231,321.625065 102.528631,324.195765 93.7534806,323.503215 C93.2176806,323.503215 92.6818806,323.443365 92.1546306,323.320815" id="Fill-61" stroke="none" fill="#AC0015" fill-rule="evenodd"></path>
                            <path d="M170.721721,249.58818 C171.337321,237.11088 165.814021,225.89043 158.005021,218.47188 C148.081321,209.04408 137.487871,208.36293 124.668571,209.40888 C122.437021,209.59128 120.370771,209.45448 118.390021,209.12958 C116.463421,208.55673 114.548221,207.77298 112.618771,206.63298 C101.552221,200.07798 91.7311206,196.05093 78.6809706,200.18343 C68.4124206,203.43243 58.5343206,211.10178 53.6237706,222.58728 C49.3601706,232.55943 49.5140706,243.87108 52.5521706,253.64373 C54.2251206,259.02453 57.3373206,264.10893 61.4299206,268.63758 C70.2022206,278.33328 84.4009206,285.60078 99.6284706,289.50813 L99.6227706,289.52808 C99.6940206,289.54518 99.7681206,289.55373 99.8422206,289.56798 C99.9134706,289.58793 99.9847206,289.61073 100.055971,289.63068 L100.061671,289.60788 C115.460221,292.76283 131.408821,292.44648 143.541271,287.56728 C149.201371,285.29013 154.228771,282.08103 158.087671,277.97703 C165.098671,270.52143 170.188771,260.41818 170.721721,249.58818" id="Fill-63" stroke="none" fill="#F09488" fill-rule="evenodd"></path>
                            <path d="M117.576346,252.56358 C118.405696,248.96688 115.165246,245.14788 110.340196,244.03638 C105.515146,242.92203 100.929496,244.93698 100.100146,248.53368 C99.2707956,252.13038 102.511246,255.94653 107.336296,257.06088 C112.164196,258.17523 116.746996,256.16028 117.576346,252.56358" id="Fill-65" stroke="none" fill="#D6002A" fill-rule="evenodd"></path>
                            <path d="M84.3085806,251.390235 C78.9904806,250.164735 75.7842306,244.296585 77.1636306,238.311585 C78.5458806,232.323735 83.9950806,228.453435 89.3160306,229.678935 C94.6341306,230.907285 97.8375306,236.772585 96.4581306,242.757585 C95.0758806,248.745435 89.6266806,252.615735 84.3085806,251.390235" id="Fill-67" stroke="none" fill="#160403" fill-rule="evenodd"></path>
                            <path d="M94.6372656,242.33949 C95.7886656,237.34914 93.2179656,232.49559 88.8945156,231.49809 C84.5710656,230.50344 80.1336156,233.73819 78.9850656,238.72854 C77.8336656,243.71889 80.4043656,248.57529 84.7278156,249.56994 C89.0512656,250.56744 93.4887156,247.32984 94.6372656,242.33949" id="Fill-69" stroke="none" fill="#231916" fill-rule="evenodd"></path>
                            <path d="M130.523896,262.045815 C125.205796,260.820315 122.002396,254.952165 123.381796,248.967165 C124.764046,242.982165 130.210396,239.109015 135.531346,240.334515 C140.849446,241.562865 144.052846,247.431015 142.676296,253.416015 C141.294046,259.401015 135.841996,263.274165 130.523896,262.045815" id="Fill-71" stroke="none" fill="#160403" fill-rule="evenodd"></path>
                            <path d="M140.855146,252.99621 C142.003696,248.00586 139.432996,243.15231 135.109546,242.15481 C130.788946,241.15731 126.351496,244.39491 125.200096,249.38526 C124.051546,254.37561 126.622246,259.22916 130.942846,260.22666 C135.266296,261.22416 139.703746,257.98371 140.855146,252.99621" id="Fill-73" stroke="none" fill="#231916" fill-rule="evenodd"></path>
                            <path d="M90.1171656,238.328685 C89.8036656,239.690985 88.7092656,240.602985 87.6775656,240.363585 C86.6401656,240.124185 86.0559156,238.827435 86.3722656,237.465135 C86.6857656,236.102835 87.7801656,235.190835 88.8118656,235.427385 C89.8464156,235.666785 90.4306656,236.966385 90.1171656,238.328685" id="Fill-75" stroke="none" fill="#FEFEFE" fill-rule="evenodd"></path>
                            <path d="M85.6056156,243.83802 C85.3377156,245.00652 84.4000656,245.78742 83.5137156,245.58222 C82.6273656,245.37987 82.1257656,244.26552 82.3965156,243.09702 C82.6672656,241.92852 83.6020656,241.14762 84.4884156,241.35282 C85.3747656,241.55802 85.8763656,242.66952 85.6056156,243.83802" id="Fill-77" stroke="none" fill="#FEFEFE" fill-rule="evenodd"></path>
                            <path d="M91.9485756,244.368405 C91.7604756,245.189205 90.9824256,245.707905 90.2157756,245.531205 C89.4462756,245.354505 88.9760256,244.545105 89.1641256,243.727155 C89.3550756,242.906355 90.1302756,242.387655 90.8997756,242.564355 C91.6664256,242.741055 92.1366756,243.547605 91.9485756,244.368405" id="Fill-79" stroke="none" fill="#FEFEFE" fill-rule="evenodd"></path>
                            <path d="M135.477766,248.78676 C135.164266,250.15191 134.069866,251.06106 133.038166,250.82166 C132.000766,250.58511 131.419366,249.28551 131.735716,247.92321 C132.046366,246.56091 133.140766,245.64891 134.175316,245.88831 C135.207016,246.12486 135.791266,247.42446 135.477766,248.78676" id="Fill-81" stroke="none" fill="#FEFEFE" fill-rule="evenodd"></path>
                            <path d="M130.966216,254.296095 C130.698316,255.464595 129.760666,256.245495 128.877166,256.040295 C127.987966,255.837945 127.486366,254.723595 127.757116,253.557945 C128.027866,252.389445 128.965516,251.608545 129.849016,251.810895 C130.738216,252.016095 131.236966,253.127595 130.966216,254.296095" id="Fill-83" stroke="none" fill="#FEFEFE" fill-rule="evenodd"></path>
                            <path d="M137.309176,254.82762 C137.121076,255.64557 136.343026,256.16712 135.576376,255.99042 C134.806876,255.81372 134.339476,255.00432 134.527576,254.18637 C134.715676,253.36557 135.490876,252.84687 136.260376,253.02357 C137.027026,253.20027 137.497276,254.00682 137.309176,254.82762" id="Fill-85" stroke="none" fill="#FEFEFE" fill-rule="evenodd"></path>
                            <path d="M112.847626,268.580865 C109.319326,273.309015 99.6122256,271.063215 98.5121256,265.274865 C97.8765756,261.946065 99.8231256,259.894065 103.989826,260.441265 C104.981626,260.572365 105.970576,260.769015 106.953826,261.002715 C106.979476,261.008415 107.010826,261.016965 107.042176,261.022665 C107.070676,261.031215 107.099176,261.036915 107.130526,261.045465 C108.113776,261.264915 109.088476,261.518565 110.043226,261.837765 C114.024676,263.168715 114.876826,265.864815 112.847626,268.580865" id="Fill-87" stroke="none" fill="#231916" fill-rule="evenodd"></path>
                            <path d="M147.487381,341.48415 C147.253681,346.2465 146.763481,350.9889 146.016781,355.6857 C145.264381,360.44805 144.218431,365.2389 141.821581,369.42555 C139.424731,373.6122 135.497431,377.17185 130.564081,378.2862 C121.746181,380.27835 113.113531,372.2898 109.599481,365.1876 C103.634431,353.14065 102.269281,326.12835 118.004131,320.21175 C123.413431,318.17685 142.274731,318.81525 145.720381,324.12765 C147.387631,326.69265 147.581431,329.802 147.629881,332.75745 C147.675481,335.67015 147.629881,338.58 147.487381,341.48415" id="Fill-89" stroke="none" fill="#D6002A" fill-rule="evenodd"></path>
                            <path d="M107.576266,340.272045 C110.414866,347.721945 114.296566,354.769995 119.076016,361.151145" id="Stroke-91" stroke="#AC0015" stroke-width="2.3598" fill="none" stroke-linecap="round" stroke-linejoin="round"></path>
                            <path d="M121.083271,319.12248 C124.406371,324.86808 127.729471,330.61368 131.049721,336.35928" id="Stroke-93" stroke="#AC0015" stroke-width="2.3598" fill="none" stroke-linecap="round" stroke-linejoin="round"></path>
                            <path d="M119.065471,314.326785 C118.293121,313.856535 117.415321,313.480335 116.919421,312.710835 C116.551771,312.135135 116.452021,311.422635 116.349421,310.735785 C115.939021,307.951335 115.386121,305.141235 114.100771,302.687385 C112.815421,300.233535 110.697871,298.144485 108.061621,297.528885 C105.111871,296.839185 101.914171,298.104585 99.5914206,300.219285 C97.2686706,302.333985 95.7040206,305.203935 94.4642706,308.133735 C90.9473706,316.458585 89.9327706,326.704335 94.9288206,333.892035 C96.4934706,336.140685 98.5568706,337.958985 100.700071,339.611985 C103.168171,341.512935 106.089421,343.299885 109.175971,342.769785 C113.405371,342.051585 115.927621,337.463085 117.631921,333.341985 C120.037321,327.516585 126.002371,318.541935 119.065471,314.326785" id="Fill-95" stroke="none" fill="#EE847D" fill-rule="evenodd"></path>
                            <path d="M33.5708856,314.452185 C31.6955856,318.838335 30.0625356,323.315685 28.6717356,327.864285 C27.2666856,332.475585 26.1095856,337.240785 26.4316356,342.054435 C26.7508356,346.868085 28.7230356,351.787185 32.6759856,354.950685 C39.7268856,360.602235 50.9843856,357.199335 57.2572356,352.354335 C67.8934356,344.134935 80.9492856,320.445735 69.3896856,308.236335 C65.4196356,304.041135 48.1856856,296.354685 42.7621356,299.620785 C40.1401356,301.196835 38.6039856,303.910035 37.2644856,306.543435 C35.9477856,309.142635 34.7137356,311.781735 33.5708856,314.452185" id="Fill-97" stroke="none" fill="#D6002A" fill-rule="evenodd"></path>
                            <path d="M69.9836256,330.83826 C64.1724756,336.29316 57.5918256,340.93296 50.5010256,344.57526" id="Stroke-99" stroke="#AC0015" stroke-width="2.3598" fill="none" stroke-linecap="round" stroke-linejoin="round"></path>
                            <path d="M67.1002806,305.91045 C61.5969306,309.62115 56.0964306,313.33185 50.5930806,317.04255" id="Stroke-101" stroke="#AC0015" stroke-width="2.3598" fill="none" stroke-linecap="round" stroke-linejoin="round"></path>
                            <path d="M71.0161806,302.48304 C71.9110806,302.39754 72.8686806,302.44314 73.6524306,301.96719 C74.2338306,301.61379 74.6385306,301.01529 75.0289806,300.44244 C76.6164306,298.11684 78.3435306,295.83684 80.5750806,294.19239 C82.8066306,292.54794 85.6224306,291.59604 88.2643806,292.19739 C91.2169806,292.86999 93.5368806,295.40649 94.7025306,298.32489 C95.8653306,301.24329 96.0135306,304.50939 95.8425306,307.68429 C95.3637306,316.71024 91.7841306,326.36604 84.1461306,330.63819 C81.7578306,331.97769 79.1073306,332.70729 76.4568306,333.25449 C73.4044806,333.88434 69.9958806,334.20924 67.4508306,332.38524 C63.9624306,329.88579 63.7059306,324.65604 63.9766806,320.20434 C64.3671306,313.91439 62.9335806,303.23829 71.0161806,302.48304" id="Fill-103" stroke="none" fill="#EE847D" fill-rule="evenodd"></path>
                        </g>
                    </g>
                    <g id="STARS" mask="url(#mask-2)">
                        <g transform="translate(0.000596, 1.245555)">
                            <path d="M10.8316844,351.33906 C10.4041844,351.33906 10.0450844,351.01131 10.0051844,350.58381 C9.40953438,344.16276 5.66463438,338.33736 0.460534379,335.74386 C0.118534379,335.57571 -0.0610156215,335.19666 0.0187843785,334.82616 C0.0957343785,334.45281 0.420634379,334.18206 0.796834379,334.17066 C3.35613438,334.07376 5.88123438,332.69151 7.54848438,330.47136 C8.95923438,328.59321 9.30408438,326.57826 9.70308438,324.24126 C9.79428438,323.69691 9.88833438,323.14686 9.99948438,322.58826 L9.99948438,322.51131 C9.99948438,322.08096 10.3215344,321.72471 10.7490344,321.68196 C10.7746844,321.67911 10.8031844,321.67911 10.8288344,321.67911 C11.0539844,321.67911 11.2591844,321.76746 11.4102344,321.91566 C11.5840844,322.05816 11.6923844,322.26621 11.6923844,322.51131 L11.6923844,322.58826 C11.8006844,323.14686 11.8947344,323.69691 11.9859344,324.24126 C12.3849344,326.57826 12.7297844,328.59321 14.1405344,330.47136 C15.8106344,332.69151 18.3328844,334.07376 20.8893344,334.17066 C21.2683844,334.18206 21.5904344,334.45281 21.6730844,334.82616 C21.7528844,335.19666 21.5704844,335.57571 21.2284844,335.74386 C16.0272344,338.33736 12.2823344,344.16276 11.6866844,350.58381 C11.6467844,351.01131 11.2876844,351.33906 10.8573344,351.33906 L10.8316844,351.33906 Z" id="Fill-108" fill="#F4A100"></path>
                            <path d="M143.863414,185.1624 C143.051164,185.1624 142.370014,184.54395 142.293064,183.7317 C141.164464,171.5337 134.048014,160.47 124.167064,155.5452 C123.520114,155.22315 123.175264,154.50495 123.326314,153.79815 C123.480214,153.0942 124.092964,152.5812 124.811164,152.55555 C129.670414,152.37315 134.458414,149.7483 137.627614,145.5303 C140.309464,141.96495 140.962114,138.13455 141.720214,133.69425 C141.896914,132.6654 142.073614,131.61945 142.281664,130.5564 L142.281664,130.4082 C142.281664,129.59595 142.900114,128.91765 143.706664,128.83785 C143.760814,128.83215 143.812114,128.8293 143.863414,128.8293 C144.285214,128.8293 144.678514,129.0003 144.966364,129.28245 C145.291264,129.55035 145.496464,129.9465 145.496464,130.4082 L145.496464,130.5564 C145.704514,131.61945 145.884064,132.6654 146.060764,133.69425 C146.816014,138.13455 147.471514,141.96495 150.150514,145.5303 C153.319714,149.7483 158.110564,152.37315 162.966964,152.55555 C163.688014,152.5812 164.300764,153.0942 164.454664,153.79815 C164.602864,154.50495 164.258014,155.22315 163.613914,155.5452 C153.732964,160.47 146.616514,171.5337 145.485064,183.7317 C145.410964,184.54395 144.729814,185.1624 143.917564,185.1624 L143.863414,185.1624 Z" id="Fill-110" fill="#5DA1D8"></path>
                            <path d="M420.241024,245.468685 C419.839174,245.468685 419.502874,245.163735 419.465824,244.761885 C418.907224,238.736985 415.393174,233.270685 410.511124,230.836785 C410.194774,230.680035 410.020924,230.323785 410.095024,229.976085 C410.171974,229.625535 410.474074,229.374735 410.830324,229.360485 C413.230024,229.269285 415.595524,227.972535 417.163024,225.889185 C418.485424,224.127885 418.807474,222.235485 419.183674,220.043835 C419.269174,219.533685 419.357524,219.017835 419.462974,218.493435 L419.462974,218.422185 C419.462974,218.020335 419.765074,217.684035 420.166924,217.644135 C420.189724,217.641285 420.215374,217.641285 420.241024,217.641285 C420.449074,217.641285 420.645724,217.723935 420.785374,217.863585 C420.947824,217.997535 421.047574,218.191335 421.047574,218.422185 L421.047574,218.493435 C421.150174,219.017835 421.241374,219.533685 421.326874,220.043835 C421.700224,222.235485 422.022274,224.127885 423.347524,225.889185 C424.912174,227.972535 427.280524,229.269285 429.680224,229.360485 C430.036474,229.374735 430.335724,229.625535 430.409824,229.976085 C430.489624,230.323785 430.315774,230.680035 429.996574,230.836785 C425.117374,233.270685 421.603324,238.736985 421.041874,244.761885 C421.007674,245.163735 420.668524,245.468685 420.266674,245.468685 L420.241024,245.468685 Z" id="Fill-112" fill="#5DA1D8"></path>
                            <path d="M353.366059,113.242935 C352.818859,113.242935 352.357159,112.823985 352.308709,112.276785 C351.544909,104.054535 346.751209,96.598935 340.087909,93.278685 C339.651859,93.059235 339.418159,92.577585 339.523609,92.101635 C339.626209,91.625685 340.036609,91.277985 340.523959,91.263735 C343.798609,91.141185 347.024809,89.371335 349.162309,86.527035 C350.969209,84.124485 351.408109,81.539535 351.921109,78.549885 C352.037959,77.854485 352.160509,77.150535 352.300159,76.432335 L352.300159,76.335435 C352.300159,75.785385 352.713409,75.329385 353.260609,75.275235 C353.297659,75.272385 353.329009,75.269535 353.366059,75.269535 C353.651059,75.269535 353.913259,75.383535 354.109909,75.574485 C354.329359,75.756885 354.469009,76.021935 354.469009,76.335435 L354.469009,76.432335 C354.608659,77.150535 354.728359,77.854485 354.848059,78.549885 C355.355359,81.539535 355.799959,84.124485 357.604009,86.527035 C359.738659,89.371335 362.970559,91.141185 366.245209,91.263735 C366.729709,91.277985 367.142959,91.625685 367.245559,92.101635 C367.345309,92.577585 367.114459,93.059235 366.678409,93.278685 C360.017959,96.598935 355.221409,104.054535 354.460459,112.276785 C354.409159,112.823985 353.950309,113.242935 353.403109,113.242935 L353.366059,113.242935 Z" id="Fill-114" fill="#5DA1D8"></path>
                            <path d="M408.910564,99.72225 C408.377614,99.72225 407.933014,99.31755 407.887414,98.78745 C407.149264,90.83595 402.512314,83.62545 396.068464,80.4135 C395.649514,80.2026 395.424364,79.7352 395.524114,79.27635 C395.621014,78.8175 396.020014,78.4812 396.490264,78.46695 C399.656614,78.34725 402.780214,76.6344 404.843614,73.887 C406.593514,71.5614 407.018164,69.0648 407.514064,66.17205 C407.628064,65.49945 407.744914,64.8183 407.881714,64.1229 L407.881714,64.02885 C407.881714,63.49875 408.280714,63.05415 408.807964,63.00285 C408.842164,63 408.876364,63 408.907714,63 C409.187014,63 409.440664,63.1083 409.628764,63.29355 C409.839664,63.4674 409.973614,63.72675 409.973614,64.02885 L409.973614,64.1229 C410.110414,64.8183 410.227264,65.49945 410.341264,66.17205 C410.837164,69.0648 411.261814,71.5614 413.006014,73.887 C415.075114,76.6344 418.198714,78.34725 421.365064,78.46695 C421.832464,78.4812 422.234314,78.8175 422.331214,79.27635 C422.430964,79.7352 422.205814,80.2026 421.786864,80.4135 C415.343014,83.62545 410.706064,90.83595 409.967914,98.78745 C409.919464,99.31755 409.474864,99.72225 408.944764,99.72225 L408.910564,99.72225 Z" id="Fill-116" fill="#72BA2B"></path>
                            <path d="M24.9314894,146.745825 C24.5096894,146.745825 24.1534394,146.423775 24.1135394,146.001975 C23.5264394,139.663575 19.8299894,133.915125 14.6942894,131.355825 C14.3579894,131.187675 14.1812894,130.814325 14.2582394,130.446675 C14.3351894,130.081875 14.6572394,129.813975 15.0277394,129.802575 C17.5528394,129.705675 20.0437394,128.340525 21.6910394,126.148875 C23.0846894,124.299225 23.4238394,122.307075 23.8142894,120.001425 C23.9083394,119.465625 23.9995394,118.921275 24.1078394,118.368375 L24.1078394,118.294275 C24.1078394,117.869625 24.4270394,117.519075 24.8516894,117.476325 C24.8744894,117.473475 24.9029894,117.473475 24.9286394,117.473475 C25.1480894,117.473475 25.3504394,117.561825 25.5014894,117.707175 C25.6724894,117.846825 25.7779394,118.052025 25.7779394,118.294275 L25.7779394,118.368375 C25.8862394,118.921275 25.9802894,119.465625 26.0714894,120.001425 C26.4647894,122.307075 26.8039394,124.299225 28.1975894,126.148875 C29.8448894,128.340525 32.3357894,129.705675 34.8551894,129.802575 C35.2313894,129.813975 35.5505894,130.081875 35.6303894,130.446675 C35.7073394,130.814325 35.5306394,131.187675 35.1943394,131.355825 C30.0586394,133.915125 26.3621894,139.663575 25.7750894,146.001975 C25.7351894,146.423775 25.3789394,146.745825 24.9571394,146.745825 L24.9314894,146.745825 Z" id="Fill-118" fill="#72BA2B"></path>
                            <path d="M243.524209,367.867065 C242.934259,367.867065 242.441209,367.419615 242.389909,366.832515 C241.569109,358.020315 236.433409,350.028915 229.294159,346.469265 C228.826759,346.238415 228.575959,345.716865 228.687109,345.206715 C228.795409,344.699415 229.237159,344.328915 229.758709,344.308965 C233.267059,344.177865 236.729809,342.279765 239.018359,339.235965 C240.956359,336.656715 241.426609,333.889365 241.973809,330.685965 C242.102059,329.939265 242.230309,329.184015 242.381359,328.417365 L242.381359,328.309065 C242.381359,327.724815 242.825959,327.231765 243.410209,327.174765 C243.450109,327.171915 243.484309,327.169065 243.521359,327.169065 C243.826309,327.169065 244.111309,327.291615 244.319359,327.496815 C244.553059,327.690615 244.701259,327.975615 244.701259,328.309065 L244.701259,328.417365 C244.855159,329.184015 244.983409,329.939265 245.111659,330.685965 C245.656009,333.889365 246.129109,336.656715 248.064259,339.235965 C250.352809,342.279765 253.815559,344.177865 257.323909,344.308965 C257.845459,344.328915 258.287209,344.699415 258.398359,345.206715 C258.506659,345.716865 258.258709,346.238415 257.791309,346.469265 C250.652059,350.028915 245.510659,358.020315 244.695559,366.832515 C244.641409,367.419615 244.148359,367.867065 243.561259,367.867065 L243.524209,367.867065 Z" id="Fill-120" fill="#72BA2B"></path>
                            <path d="M195.174529,156.008325 C194.618779,156.008325 194.151379,155.583675 194.100079,155.025075 C193.324879,146.668875 188.451379,139.087875 181.679779,135.710625 C181.235179,135.491175 180.995779,134.998125 181.104079,134.513625 C181.209529,134.031975 181.625629,133.681425 182.118679,133.664325 C185.447479,133.538925 188.730679,131.737725 190.902379,128.850675 C192.740629,126.405375 193.188079,123.780525 193.703929,120.739575 C193.826479,120.032775 193.949029,119.317425 194.091529,118.587825 L194.091529,118.488075 C194.091529,117.929475 194.516179,117.464925 195.069079,117.410775 C195.106129,117.407925 195.140329,117.405075 195.174529,117.405075 C195.465229,117.405075 195.733129,117.521925 195.932629,117.715725 C196.154929,117.898125 196.294579,118.171725 196.294579,118.488075 L196.294579,118.587825 C196.437079,119.317425 196.559629,120.032775 196.679329,120.739575 C197.198029,123.780525 197.645479,126.405375 199.483729,128.850675 C201.652579,131.737725 204.938629,133.538925 208.267429,133.664325 C208.763329,133.681425 209.179429,134.031975 209.284879,134.513625 C209.387479,134.998125 209.150929,135.491175 208.709179,135.710625 C201.937579,139.087875 197.061229,146.668875 196.288879,155.025075 C196.234729,155.583675 195.770179,156.008325 195.211579,156.008325 L195.174529,156.008325 Z" id="Fill-122" fill="#F4A100"></path>
                            <path d="M382.406134,56.510265 C381.593884,56.510265 380.912734,55.891815 380.835784,55.079565 C379.707184,42.881565 372.590734,31.817865 362.709784,26.893065 C362.062834,26.571015 361.717984,25.852815 361.869034,25.146015 C362.022934,24.442065 362.635684,23.929065 363.353884,23.903415 C368.213134,23.721015 373.003984,21.096165 376.170334,16.878165 C378.852184,13.312815 379.504834,9.482415 380.262934,5.042115 C380.439634,4.013265 380.616334,2.967315 380.824384,1.904265 L380.824384,1.756065 C380.824384,0.943815 381.442834,0.265515 382.252234,0.185715 C382.303534,0.180015 382.354834,0.177165 382.406134,0.177165 C382.827934,0.177165 383.221234,0.345315 383.509084,0.630315 C383.833984,0.898215 384.039184,1.294365 384.039184,1.756065 L384.039184,1.904265 C384.247234,2.967315 384.426784,4.013265 384.603484,5.042115 C385.358734,9.482415 386.014234,13.312815 388.693234,16.878165 C391.862434,21.096165 396.653284,23.721015 401.509684,23.903415 C402.230734,23.929065 402.843484,24.442065 402.997384,25.146015 C403.145584,25.852815 402.800734,26.571015 402.156634,26.893065 C392.275684,31.817865 385.159234,42.881565 384.027784,55.079565 C383.953684,55.891815 383.272534,56.510265 382.460284,56.510265 L382.406134,56.510265 Z" id="Fill-105" fill="#F4A100"></path>
                        </g>
                    </g>
                </g>
            </g>
        </g>
    </g>
</svg>