<?xml version="1.0" encoding="UTF-8"?>
<svg width="483px" height="541px" viewBox="0 0 483 541" version="1.1" xmlns="http://www.w3.org/2000/svg" xmlns:xlink="http://www.w3.org/1999/xlink">
    <title>heart-characters</title>
    <defs>
        <rect id="path-1" x="0" y="0" width="483" height="541"></rect>
    </defs>
    <g id="R4" stroke="none" stroke-width="1" fill="none" fill-rule="evenodd">
        <g id="D---Homepage---1440" transform="translate(-507.000000, -1879.000000)">
            <g id="ABOUT-BG" transform="translate(-400.000000, 1879.000000)">
                <g id="heart-characters" transform="translate(907.000000, 0.000000)">
                    <mask id="mask-2" fill="white">
                        <use xlink:href="#path-1"></use>
                    </mask>
                    <g id="Rectangle"></g>
                    <g id="Right" mask="url(#mask-2)">
                        <g transform="translate(207.031292, 47.002280)">
                            <path d="M204.478068,303.591975 C203.326668,299.855625 202.155318,296.124975 200.992518,292.388625 C194.648418,271.939875 188.523768,251.425575 181.051068,231.367275 C178.195368,223.697925 176.186118,215.726475 174.558768,207.717975 C173.623968,203.129475 172.917168,194.180475 168.246018,191.572725 C164.977068,189.748725 160.918668,190.087875 157.150968,190.484025 C144.913068,191.772225 132.678018,193.060425 120.440118,194.345775 L120.417318,194.217525 C120.018318,194.300175 119.622168,194.388525 119.223168,194.474025 C118.818468,194.519625 118.413768,194.559525 118.009068,194.602275 L118.029018,194.736225 C106.004868,197.352525 93.9807181,199.968825 81.9622681,202.585125 C78.2572681,203.388825 74.2986181,204.335025 71.7649681,207.096675 C68.2024681,210.981225 70.2345181,219.602475 70.8102181,224.188125 C71.8248181,232.347675 71.9758681,240.113925 71.8476181,248.361825 C71.8276681,249.789675 71.8048681,251.217525 71.7820681,252.645375 C71.4742681,272.794875 71.9245681,292.947225 72.2922181,313.096725 C72.3663181,317.006925 72.4204681,320.917125 72.5002681,324.827325 C72.7795681,338.766675 73.7058181,354.051225 84.6384181,363.832425 C88.7139181,367.477575 93.6871681,369.897225 99.1563181,371.473275 L116.686668,468.518625 L147.218718,463.001025 L131.076318,373.647825 C132.336018,373.562325 133.587168,373.468275 134.829768,373.362825 C138.702918,373.040775 142.638768,372.636075 146.568918,372.111675 L146.580318,372.168675 C146.979318,372.097425 147.378318,372.017625 147.777318,371.946375 C148.182018,371.889375 148.586718,371.838075 148.985718,371.781075 L148.977168,371.724075 C152.875968,370.988775 156.740568,370.139475 160.519668,369.230325 C163.110318,368.609025 165.738018,367.927875 168.360018,367.189725 C170.731218,371.213925 172.811718,375.229575 173.541318,378.917475 C174.213918,382.317525 173.997318,386.589675 173.769318,391.115475 L173.661018,393.261525 C172.583718,414.653625 171.563418,434.857275 174.208218,456.750975 L205.011018,453.031725 C202.682568,433.771425 203.637318,414.853125 204.649068,394.826175 L204.757368,392.674425 C205.053768,386.754975 205.390068,380.048925 203.973618,372.892575 C202.582818,365.853075 199.692918,359.608725 196.643418,354.145275 C200.094768,351.377925 203.030268,348.183075 205.184868,344.435325 C212.495118,331.718625 208.584918,316.918575 204.478068,303.591975" id="Fill-28" fill="#FEFEFE"></path>
                            <path d="M225.839103,218.98146 C219.378153,220.12431 213.193653,220.04166 208.072203,219.97326 L169.819503,219.46026 L170.269803,185.95566 L208.522503,186.46866 C213.931803,186.54276 220.669203,186.63111 223.966653,184.68171 C229.797753,181.22751 231.544803,167.37081 232.385553,160.71036 L236.857203,125.18226 L270.102453,129.37176 L265.627953,164.89701 C264.123153,176.84421 260.991003,201.70476 241.032453,213.51516 C236.047803,216.46491 230.860803,218.09226 225.839103,218.98146" id="Fill-30" fill="#FEFEFE"></path>
                            <path d="M236.420868,113.038695 C237.401268,113.255295 238.450068,112.374645 238.951668,111.248895 C239.920668,109.082895 239.165418,106.634745 240.242718,104.502945 C245.934168,93.216945 260.275368,94.906995 266.967168,102.088995 C271.233618,106.671795 273.627618,113.517495 274.325868,120.556995 C275.505768,132.432945 271.438818,144.414345 267.477318,155.247195 C267.289218,155.763045 267.058368,156.327345 266.633718,156.543945 C266.246118,156.737745 265.818618,156.580995 265.439568,156.418545 C255.418968,152.152095 245.221668,150.382245 234.659568,148.447095 C234.462918,148.410045 234.257718,148.370145 234.106668,148.219095 C233.938518,148.048095 233.870118,147.774495 233.810268,147.515145 C231.652818,138.286845 229.794618,130.241295 229.937118,120.403095 C229.962768,118.396695 230.065368,116.290545 230.908968,114.526395 C231.758268,112.762245 233.596518,111.511095 235.069968,112.280595 C235.477518,112.494345 235.828068,112.839195 236.252718,112.990245 C236.309718,113.010195 236.363868,113.027295 236.420868,113.038695" id="Fill-32" fill="#D6002A"></path>
                            <path d="M56.3336431,316.26393 C50.8730431,299.20953 48.1484431,282.02403 48.4476931,266.56848 C48.8010931,248.40828 57.8954431,219.09033 61.7885431,207.32553 L93.6002431,217.85343 C88.3590931,233.68233 82.1660431,256.10898 81.9494431,267.22113 C81.7185931,279.03438 83.8959931,292.46073 88.2450931,306.04953 L56.3336431,316.26393 Z" id="Fill-35" fill="#FEFEFE"></path>
                            <path d="M97.0547281,334.478565 C96.0629281,334.626765 95.4017281,335.826615 95.3333281,337.057815 C95.2107781,339.426165 96.7896781,341.441115 96.5531281,343.818015 C95.2905781,356.395065 81.2999281,359.963265 72.4763281,355.662615 C66.8475781,352.915215 62.1564781,347.386215 58.9787281,341.067765 C53.6150281,330.405915 53.1105781,317.763315 52.9196281,306.229365 C52.9110781,305.682165 52.9224781,305.069415 53.2416781,304.716015 C53.5323781,304.396815 53.9883781,304.391115 54.4016281,304.405365 C65.2857781,304.790115 75.4374781,302.783715 85.9881781,300.797265 C86.1876781,300.760215 86.3928781,300.726015 86.5866781,300.811515 C86.8032781,300.911265 86.9685781,301.142115 87.1196281,301.361565 C92.4434281,309.201915 97.0661281,316.041915 100.463328,325.275915 C101.155878,327.159765 101.822778,329.163315 101.663178,331.112715 C101.506428,333.064965 100.238178,334.891815 98.5851781,334.700865 C98.1320281,334.649565 97.6788781,334.452915 97.2314281,334.464315 C97.1687281,334.464315 97.1145781,334.470015 97.0547281,334.478565" id="Fill-37" fill="#D6002A"></path>
                            <path d="M200.211333,91.6332 C198.296133,86.2011 195.970533,80.9172 193.191783,75.86985 C189.167583,68.5596 184.239933,61.76235 178.557033,55.66335 C167.456283,43.75035 157.390083,32.37315 150.213783,17.3508 C149.045283,14.90835 147.651633,12.5628 146.371983,10.17735 C145.383033,8.3277 144.482433,6.384 143.359533,4.617 C142.387683,3.09225 141.621033,1.35945 140.389833,-1.42108547e-14 C139.759983,2.15745 138.802383,4.10115 137.944533,6.1446 C136.947033,8.51865 136.223133,11.00955 135.160083,13.3608 C128.103483,28.96455 114.052983,37.6827 98.3266831,42.7443 C84.4956331,47.19315 70.0005331,49.37625 56.3974831,54.55185 C28.1368831,65.3049 3.19653314,96.60075 0.372183139,127.1556 C-1.92776686,152.03325 6.47118314,177.9711 24.4774831,195.24495 C39.2661331,209.4351 58.5435331,217.21275 78.2541331,219.17355 C85.5957331,219.906 92.9914831,219.86325 100.307433,219.1422 C106.318083,218.55225 112.451283,217.66875 118.533183,216.54585 C118.558833,216.543 118.578783,216.5373 118.604433,216.5316 C118.630083,216.5259 118.655733,216.52305 118.678533,216.51735 C124.774683,215.4885 130.839483,214.21455 136.687683,212.70975 C143.809833,210.87435 150.769533,208.37775 157.412883,205.17435 C175.256733,196.5702 190.695183,182.65365 199.721133,164.24835 C205.976883,151.4946 208.003233,137.0223 206.797683,122.9148 C205.894233,112.36125 203.770983,101.74215 200.211333,91.6332" id="Fill-39" fill="#FEFEFE"></path>
                            <path d="M156.835188,105.547755 C152.691288,100.517505 147.182238,96.456255 140.909388,93.435255 C135.363288,90.764805 129.218688,88.906605 122.877438,87.914805 C114.472788,86.598105 105.025038,86.586705 95.7653881,87.971805 C95.7568381,87.971805 95.7511381,87.971805 95.7454381,87.971805 C95.7397381,87.974655 95.7368881,87.974655 95.7311881,87.974655 C95.5031881,88.023105 95.2837381,88.071555 95.0614381,88.122855 C94.8362881,88.151355 94.6111381,88.179855 94.3831381,88.214055 L94.3660381,88.216905 C94.3603381,88.216905 94.3546381,88.219755 94.3489381,88.219755 C85.1747881,90.095055 76.3055881,93.349755 68.8613881,97.468005 C63.2468881,100.574505 58.1111881,104.427705 53.8190881,108.839505 C48.9598381,113.829855 45.1807381,119.532705 43.0118881,125.677305 C36.6392881,143.746305 39.2527381,166.694505 54.5543881,179.824455 C63.8567881,187.804455 76.1060881,192.045255 88.7059381,192.937305 C93.3970381,193.267905 98.1337381,193.156755 102.827688,192.655155 C110.080938,191.879955 117.641988,190.557555 124.704288,188.702205 C130.934388,187.066305 136.984938,184.715055 142.576638,181.600005 C151.747938,176.487105 159.576888,169.250955 164.564388,160.364655 C174.433938,142.783005 169.018938,120.333555 156.835188,105.547755" id="Fill-41" fill="#FAD9CB"></path>
                            <path d="M86.8349131,84.61935 C84.9824131,85.9788 83.1783631,87.4095 81.2745631,88.70055 C76.4381131,91.98945 69.4014631,94.78815 63.9836131,92.0037 C59.8995631,89.90325 59.6601631,93.74505 61.0481131,96.41265 C62.7039631,99.59895 65.7563131,102.3663 68.8628131,104.1789 C77.9742631,109.4856 89.2431631,112.13325 100.209963,110.42895 C110.643813,108.81015 127.769463,101.18355 125.381163,88.55805 C124.794063,85.45155 122.739213,82.7754 120.100113,80.9571 C115.830813,78.0216 109.868613,76.72485 104.496363,77.50575 C99.7739131,78.1926 95.0628631,79.5321 90.8990131,81.9261 C89.4854131,82.7355 88.1487631,83.6589 86.8349131,84.61935" id="Fill-43" fill="#231916"></path>
                            <path d="M112.496028,143.97972 C111.963078,140.96442 108.249528,139.10052 104.205378,139.81587 C100.158378,140.53122 97.3112281,143.55507 97.8441781,146.57037 C98.3771281,149.58567 102.090678,151.45242 106.137678,150.73422 C110.181828,150.01887 113.028978,146.99502 112.496028,143.97972" id="Fill-45" fill="#F2A078"></path>
                            <path d="M89.2785031,143.200245 C88.3779031,138.098745 84.3765031,134.544795 80.3437531,135.257295 C76.3138531,135.969795 73.7773531,140.683695 74.6808031,145.782345 C75.5814031,150.883845 79.5828031,154.440645 83.6127031,153.725295 C87.6426031,153.012795 90.1791031,148.301745 89.2785031,143.200245" id="Fill-47" fill="#231916"></path>
                            <path d="M133.985028,135.293205 C133.084428,130.191705 129.083028,126.634905 125.053128,127.350255 C121.020378,128.062755 118.486728,132.776655 119.387328,137.875305 C120.287928,142.976805 124.289328,146.530755 128.319228,145.818255 C132.351978,145.105755 134.885628,140.394705 133.985028,135.293205" id="Fill-49" fill="#231916"></path>
                            <path d="M98.6718181,163.06674 C105.417768,163.20639 111.910068,162.02079 118.151568,159.45009 C121.548768,158.05359 120.061068,152.44764 116.612568,153.86694 C110.809968,156.25524 104.953218,157.40949 98.6718181,157.27839 C94.9440181,157.19859 94.9440181,162.98979 98.6718181,163.06674" id="Fill-51" fill="#231916"></path>
                            <path d="M209.774508,451.993755 C216.101508,455.946705 222.722058,462.866505 218.344458,471.701505 C216.221208,475.982205 210.834708,477.977205 205.852908,478.926255 C197.938458,480.433905 186.202158,482.349105 179.242458,477.743505 C174.246408,474.152505 173.069358,467.911005 172.502208,462.370605 C171.809658,455.610405 171.923658,449.177955 170.826408,442.426305 C170.683908,441.545655 170.547108,440.616555 170.920458,439.787205 C171.561708,438.367905 173.391408,437.806455 175.010208,437.447355 C182.904708,435.700305 191.004408,434.782605 199.089858,434.725605 C200.466408,434.717055 201.860058,434.731305 203.185308,435.044805 C203.641308,435.150255 204.105858,435.307005 204.407958,435.634755 C204.755658,436.010955 204.824058,436.543905 204.872508,437.039805 C205.365558,441.953205 204.761358,448.858755 209.774508,451.993755" id="Fill-53" fill="#231916"></path>
                            <path d="M111.825138,468.92817 C106.945938,474.56832 102.653838,483.13257 109.439688,490.28322 C112.728588,493.74882 118.465638,494.07087 123.507288,493.51227 C131.512938,492.62307 143.291988,490.99857 148.587288,484.54617 C152.303688,479.64417 151.591188,473.33142 150.502488,467.86797 C149.174388,461.20467 147.170838,455.09142 146.230338,448.31697 C146.107788,447.43347 145.965288,446.50437 145.363938,445.82322 C144.332238,444.65472 142.417038,444.65757 140.766888,444.79152 C132.704238,445.44417 124.698588,446.95467 116.955138,449.27742 C115.635588,449.67642 114.307488,450.10107 113.133288,450.79077 C112.728588,451.02732 112.329588,451.31232 112.135788,451.71417 C111.916338,452.17872 112.010388,452.70312 112.110138,453.19332 C113.081988,458.03262 115.692588,464.45652 111.825138,468.92817" id="Fill-55" fill="#231916"></path>
                        </g>
                    </g>
                    <g id="LEFT" mask="url(#mask-2)">
                        <g transform="translate(10.999702, 171.932642)">
                            <path d="M16.8839832,331.216128 C18.7336332,330.956778 22.3274832,332.016978 23.8436832,330.819978 C23.9975832,330.700278 24.1400832,330.526428 24.2683332,330.306978 C25.3712832,328.440228 25.6334832,323.407128 25.9441332,321.776928 C27.1496832,315.415728 27.3605832,308.880678 28.4435832,302.542278 C22.9031832,298.971228 18.3232332,294.496728 15.8921832,288.677028 C11.4832332,278.112078 15.6299832,266.575278 19.7938332,256.226928 C26.1122832,240.529128 32.5019832,224.862678 38.9629332,209.221878 C42.1919832,201.401478 45.4409832,193.586778 48.7070832,185.783478 C50.2802832,182.021478 52.2781332,170.524578 56.2025832,168.894378 C58.7447832,167.839878 61.7372832,168.387078 64.5131832,168.951378 C73.5277332,170.781078 82.5422832,172.610778 91.5568332,174.440478 L91.5796332,174.346428 C91.8731832,174.440478 92.1610332,174.528828 92.4517332,174.622878 C92.7481332,174.682728 93.0502332,174.742578 93.3466332,174.802428 L93.3209832,174.896478 C102.096133,177.655278 110.874133,180.414078 119.646433,183.172878 C122.348233,184.022178 125.235283,184.994028 126.945283,187.142928 C129.595783,190.468878 125.782483,201.498378 125.340733,205.551078 C124.420183,213.961428 123.482533,222.371778 122.527783,230.779278 C120.615433,247.591428 118.628983,264.395028 116.568433,281.190078 C115.206133,292.265178 113.251033,304.366278 104.282083,311.477028 C101.420683,313.748478 98.1346332,315.256128 94.6034832,316.227978 C92.2835832,322.136028 89.1571332,327.781878 86.9512332,333.783978 C86.3783832,335.342928 84.0157332,339.794628 84.0014832,341.960628 C84.0014832,342.214278 84.0328332,342.436578 84.1012332,342.618978 C84.7852332,344.425878 88.4132832,345.360678 89.8667832,346.534878 C94.3013832,350.114478 96.7409832,356.438628 94.5977832,361.904928 C93.1471332,365.609928 89.8097832,368.425728 85.7798832,368.747778 C80.0428332,369.209478 73.5248832,366.598878 68.4803832,364.085178 C64.5587832,362.132928 60.7169832,359.485278 58.8160332,355.535178 C57.5335332,352.864728 57.6218832,349.649928 58.8160332,346.965228 C60.2495832,343.739028 63.4187832,342.738678 65.3026332,339.968478 C66.7276332,337.873728 67.5940332,335.425578 68.4290832,333.054378 C70.3015332,327.750528 72.1682832,322.449528 74.0407332,317.145678 C71.3332332,316.846428 68.6456832,316.444578 66.0293832,315.994278 C63.1622832,315.498378 60.2581332,314.936928 57.3682332,314.278578 L57.3539832,314.324178 C57.0632832,314.241528 56.7697332,314.156028 56.4790332,314.073378 C56.1826332,314.002128 55.8862332,313.939428 55.5898332,313.868178 L55.6012332,313.822578 C52.7512332,312.998928 49.9382832,312.089778 47.1908832,311.135028 C46.8773832,311.026728 46.5610332,310.909878 46.2503832,310.798728 C44.8994832,317.422128 43.5514332,324.045528 42.2033832,330.671778 C41.7017832,333.134178 41.1830832,335.679228 41.3312832,338.212878 C41.5250832,341.555928 43.7281332,344.041128 43.3006332,347.546628 C42.9415332,350.462178 41.3654832,353.266578 38.8916832,354.896778 C35.2322832,357.307878 30.5753832,357.604278 26.2063332,357.262278 C20.5918332,356.823378 13.6549332,355.711878 8.97238325,352.368828 C5.68063325,350.020428 4.26703325,345.887928 4.92823325,341.966328 C5.90008325,336.175128 11.2438332,332.005578 16.8839832,331.216128" id="Fill-1" stroke="none" fill="#AC0015" fill-rule="evenodd"></path>
                            <path d="M69.4171782,266.596938 C80.1844782,268.683138 91.8295782,269.686338 97.7404782,269.039388 L98.1309282,268.993788 C104.415178,268.306938 119.124028,266.696688 120.366628,253.361538 L127.548628,176.249088 C128.021728,172.481388 127.004278,168.531288 124.658728,165.339288 C122.601028,162.543438 119.637028,160.534188 116.308228,159.673488 C115.715428,159.522438 115.111228,159.405588 114.507028,159.325788 C114.250528,159.263088 113.392678,159.040788 113.272978,159.009438 C110.420128,158.274138 105.375628,156.894738 98.6866782,155.019438 C98.4529782,154.945338 97.8402282,154.768638 97.7775282,154.754388 C97.7319282,154.742988 97.0336782,154.577688 96.7999782,154.532088 C90.0312282,152.936088 84.9496782,151.704888 82.0968282,150.969588 C81.9771282,150.938238 81.1164282,150.715938 80.8684782,150.647538 C80.2984782,150.425238 79.7113782,150.234288 79.1185782,150.080388 C75.7869282,149.222538 72.2215782,149.547438 69.0780282,150.995238 C65.4727782,152.659638 62.6712282,155.623638 61.1835282,159.342888 C61.1835282,159.342888 30.2524782,230.108388 30.2496282,230.114088 C24.8859282,242.386188 36.9813282,250.910538 42.1483782,254.552838 L42.4675782,254.777988 C47.2698282,258.166638 57.7492782,262.849188 68.0634282,266.220738 C68.3085282,266.320488 68.5650282,266.405988 68.8243782,266.471538 C68.9583282,266.505738 69.3630282,266.588388 69.4171782,266.596938" id="Fill-3" stroke="none" fill="#D80029" fill-rule="evenodd"></path>
                            <path d="M52.3921332,191.474358 C51.8734332,191.576958 51.3632832,191.690958 50.8474332,191.813508 C51.7793832,191.588358 52.7113332,191.363208 53.6432832,191.138058 C49.5877332,192.158358 45.7202832,193.791408 42.0437832,195.769308 C42.8759832,195.321858 43.7081832,194.871558 44.5403832,194.424108 C41.0405832,196.342158 37.7345832,198.590808 34.7762832,201.278358 C35.4716832,200.631408 36.1613832,199.987308 36.8539332,199.343208 C35.0527332,201.021858 33.4225332,202.840158 32.0716332,204.903558 C32.5846332,204.091308 33.0947832,203.281908 33.6049332,202.469658 C32.7071832,203.903208 32.0089332,205.390908 31.4930832,207.001158 C31.7837832,206.052108 32.0716332,205.105908 32.3623332,204.156858 C31.4816832,207.103758 31.1510832,210.156108 31.0370832,213.222708 C31.0684332,212.230908 31.0940832,211.241958 31.1254332,210.247308 C30.8689332,219.244758 32.4392832,228.145308 33.7417332,237.008808 C34.5881832,242.751558 29.6975832,248.859108 23.8835832,249.212508 C17.6791332,249.591558 12.5833332,245.501808 11.6798832,239.354358 C10.0468332,228.250758 8.12308325,217.030308 9.42553325,205.775658 C10.1579832,199.440108 12.5434332,193.554858 16.5533832,188.590158 C20.2754832,183.978858 25.1774832,180.094308 30.2960832,177.133158 C36.5746332,173.505108 42.9187332,170.823258 50.0465832,169.409658 C52.7198832,168.879558 56.2738332,170.221908 58.2973332,171.900558 C60.3493332,173.602008 62.0849832,176.563158 62.2531332,179.270658 C62.4269832,182.174808 61.7743332,185.298408 59.7622332,187.521408 C57.7244832,189.770058 55.3675332,190.884408 52.3921332,191.474358" id="Fill-5" stroke="none" fill="#D80029" fill-rule="evenodd"></path>
                            <path d="M34.2652782,256.249158 C33.6012282,256.189308 32.9571282,256.753608 32.6949282,257.417658 C32.1876282,258.700158 32.8516782,260.033958 32.2731282,261.302208 C29.2122282,268.025358 19.5421782,267.979758 14.6116782,264.354558 C11.4709782,262.040358 9.43037825,258.332508 8.50697825,254.408058 C6.94802825,247.790358 8.88317825,240.776508 10.8154782,234.421008 C10.9123782,234.116058 11.0292282,233.782608 11.2971282,233.634408 C11.5422282,233.500458 11.8357782,233.563158 12.1008282,233.631558 C19.0576782,235.404258 25.9717782,235.754808 33.1366782,236.176608 C33.2706282,236.185158 33.4102782,236.193708 33.5214282,236.270658 C33.6439782,236.356158 33.7095282,236.507208 33.7636782,236.649708 C35.8014282,241.714158 37.5655782,246.131658 38.1099282,251.686308 C38.2210782,252.817758 38.2923282,254.014758 37.8420282,255.060708 C37.3917282,256.109508 36.2460282,256.933158 35.2143282,256.591158 C34.9293282,256.497108 34.6728282,256.323258 34.3792782,256.266258 C34.3422282,256.257708 34.3051782,256.252008 34.2652782,256.249158" id="Fill-7" stroke="none" fill="#F09488" fill-rule="evenodd"></path>
                            <path d="M88.4152782,215.983218 C88.8228282,216.074418 89.2332282,216.139968 89.6550282,216.177018 C89.6578782,216.177018 89.9656782,216.208368 90.1195782,216.216918 C101.721928,217.254318 112.677328,213.845718 123.809428,209.949768 C165.425128,195.377718 196.296328,175.327968 215.556628,150.370518 C226.058878,136.756068 233.121178,121.605468 236.549728,105.337668 C243.022078,74.6032682 226.990828,36.1083182 192.810778,27.7891682 L191.964328,27.5868182 C179.754928,24.8023682 166.448278,25.9708682 153.480778,30.9669182 C148.333678,32.9476682 143.032678,35.5326182 136.799728,39.1008182 L136.110028,39.4941182 C133.556428,40.9647182 130.056628,42.9768182 128.403628,42.6006182 C128.340928,42.5863682 127.833628,42.4695182 127.833628,42.4695182 C126.129328,42.0819182 123.852178,38.7474182 122.187778,36.3163682 L121.743178,35.6694182 C117.661978,29.7385682 114.005428,25.1130182 110.234878,21.1030682 C100.713028,10.9798682 89.2303782,4.15981821 77.0238282,1.37536821 L76.1688282,1.18726821 C41.7636282,-6.13723179 10.6273782,21.6018182 3.13472825,52.1053682 C-0.829621754,68.2477682 -1.03482175,84.9601682 2.52482825,101.786568 C9.05987825,132.626418 28.1833782,164.073318 59.3680782,195.252318 C67.5703782,203.448918 75.8182782,211.143918 86.4487782,215.290668 C87.0729282,215.592768 87.7341282,215.826468 88.4152782,215.983218" id="Fill-9" stroke="none" fill="#D80029" fill-rule="evenodd"></path>
                            <path d="M92.4089832,198.599358 C92.7196332,198.670608 93.0416832,198.721908 93.3637332,198.750408 C93.3665832,198.750408 93.6059832,198.776058 93.7228332,198.778908 C102.686083,199.582608 111.150583,196.949208 119.751883,193.939608 C151.902733,182.682108 175.748683,167.192358 190.631383,147.909258 C198.745333,137.392758 204.200233,125.687808 206.845033,113.122158 C211.846783,89.3759582 199.463533,59.6390582 173.058283,53.2094582 L172.402783,53.0584082 C162.972133,50.9066582 152.689333,51.8072582 142.674433,55.6661582 C138.698683,57.1966082 134.603233,59.1916082 129.783883,61.9504082 L129.253783,62.2553582 C127.278733,63.3925082 124.579783,64.9457582 123.300133,64.6522082 C123.251683,64.6436582 122.861233,64.5524582 122.861233,64.5524582 C121.544533,64.2532082 119.783233,61.6796582 118.497883,59.7986582 L118.155883,59.3027582 C115.003783,54.7199582 112.176583,51.1432082 109.263883,48.0452582 C101.910883,40.2248582 93.0388332,34.9580582 83.6053332,32.8063082 L82.9469832,32.6609582 C56.3678832,27.0037082 32.3138832,48.4328582 26.5255332,71.9966582 C23.4617832,84.4682582 23.3021832,97.3787582 26.0552832,110.377608 C31.1026332,134.203608 45.8770332,158.497008 69.9680832,182.585208 C76.3036332,188.915058 82.6762332,194.863008 90.8870832,198.066408 C91.3715832,198.300108 91.8788832,198.479658 92.4089832,198.599358" id="Fill-12" stroke="none" fill="#AC0015" fill-rule="evenodd"></path>
                            <path d="M53.7558582,97.8401732 C58.6464582,86.3233232 68.5217082,78.6169232 78.7988082,75.3365732 C91.8603582,71.1698732 101.707108,75.1798232 112.810708,81.7177232 C114.740158,82.8577232 116.661058,83.6329232 118.590508,84.2057732 C120.576958,84.5278232 122.646058,84.6589232 124.880458,84.4708232 C137.719708,83.3906732 148.333108,84.0490232 158.293858,93.4682732 C166.134208,100.878273 171.691708,112.104423 171.104608,124.601673 C170.594458,135.451623 165.524308,145.583373 158.519008,153.067473 C154.660108,157.188573 149.638408,160.414773 143.969758,162.706173 C131.831608,167.622423 115.857358,167.978673 100.427458,164.855073 L100.421758,164.875023 C100.350508,164.857923 100.279258,164.835123 100.208008,164.815173 C100.133908,164.800923 100.059808,164.792373 99.9885582,164.775273 L99.9914082,164.755323 C84.7325082,160.879323 70.4939082,153.634623 61.6845582,143.941773 C57.5748582,139.415973 54.4455582,134.334423 52.7555082,128.947923 C49.6889082,119.166723 49.5122082,107.837973 53.7558582,97.8401732" id="Fill-14" stroke="none" fill="#F09488" fill-rule="evenodd"></path>
                            <path d="M100.369033,123.714468 C101.189833,120.109218 105.775483,118.082868 110.614783,119.185818 C115.451233,120.288768 118.705933,124.104918 117.882283,127.710168 C117.058633,131.315418 112.472983,133.341768 107.636533,132.238818 C102.802933,131.135868 99.5482332,127.319718 100.369033,123.714468" id="Fill-16" stroke="none" fill="#D6002A" fill-rule="evenodd"></path>
                            <path d="M125.509738,124.509048 C126.649738,119.510148 131.087188,116.255448 135.419188,117.244398 C139.751188,118.230498 142.336138,123.084048 141.198988,128.085798 C140.056138,133.087548 135.621538,136.339398 131.286688,135.353298 C126.957538,134.364348 124.369738,129.510798 125.509738,124.509048" id="Fill-18" stroke="none" fill="#231916" fill-rule="evenodd"></path>
                            <path d="M79.1943882,113.946663 C80.3343882,108.944913 84.7718382,105.693063 89.1038382,106.679163 C93.4358382,107.668113 96.0207882,112.521663 94.8836382,117.523413 C93.7407882,122.525163 89.3061882,125.777013 84.9741882,124.790913 C80.6421882,123.801963 78.0572382,118.948413 79.1943882,113.946663" id="Fill-20" stroke="none" fill="#231916" fill-rule="evenodd"></path>
                            <path d="M117.112783,140.367588 C112.766533,141.795438 108.009883,140.780838 103.652233,139.375788 C101.058733,138.537888 98.4110832,137.503338 96.5500332,135.511188" id="Stroke-22" stroke="#231916" stroke-width="3.5625" fill="none" stroke-linecap="round" stroke-linejoin="round"></path>
                            <path d="M118.818793,196.485513 C131.088043,196.793313 143.462743,197.027013 155.481193,194.148513 C154.549243,194.373663 153.617293,194.598813 152.688193,194.823963 C157.769743,193.569963 162.697393,191.797263 167.322943,189.332013 C166.490743,189.779463 165.658543,190.229763 164.826343,190.680063 C168.337543,188.764863 171.600793,186.473463 174.541993,183.754563 C173.849443,184.398663 173.156893,185.042763 172.464343,185.686863 C175.083493,183.215913 177.369193,180.459963 179.318593,177.430413 C178.808443,178.242663 178.295443,179.052063 177.782443,179.864313 C178.651693,178.484913 179.441143,177.065613 180.165043,175.603563 C182.741443,170.413713 189.456043,167.375613 194.885293,170.174313 C200.103643,172.864713 203.076193,179.328513 200.317393,184.894563 C195.358393,194.892363 187.563643,203.328363 177.756793,208.703463 C167.074993,214.554513 155.313043,217.549863 143.177743,218.402013 C135.853243,218.917863 128.497393,218.732613 121.164343,218.547363 C118.046443,218.470413 115.418743,218.136963 112.913593,216.056463 C110.861593,214.355013 109.125943,211.396713 108.960643,208.689213 C108.783943,205.782213 109.439443,202.661463 111.451543,200.438463 C113.241343,198.460563 116.020093,196.414263 118.818793,196.485513" id="Fill-24" stroke="none" fill="#D80029" fill-rule="evenodd"></path>
                            <path d="M190.912108,158.813358 C191.427958,159.238008 192.277258,159.138258 192.870058,158.736408 C194.007208,157.961208 194.215258,156.490608 195.409408,155.766708 C201.733558,151.947708 209.687908,157.448208 211.705708,163.222308 C212.993908,166.907358 212.583508,171.119658 211.130008,174.878808 C208.676158,181.222908 203.121508,185.916858 197.934508,190.069308 C197.686558,190.268808 197.398708,190.476858 197.093758,190.445508 C196.814458,190.417008 196.609258,190.200408 196.429708,189.995208 C191.684458,184.605858 186.181108,180.410658 180.506758,176.013108 C180.401308,175.933308 180.290158,175.844958 180.241708,175.719558 C180.187558,175.579908 180.221758,175.420308 180.255958,175.269258 C181.433008,169.939758 182.473258,165.297108 185.160808,160.406508 C185.710858,159.409008 186.326458,158.383008 187.289758,157.773108 C188.250208,157.160358 189.663808,157.129008 190.322158,157.995408 C190.501708,158.231958 190.615708,158.519808 190.826608,158.733558 C190.852258,158.762058 190.880758,158.787708 190.912108,158.813358" id="Fill-26" stroke="none" fill="#F09488" fill-rule="evenodd"></path>
                        </g>
                    </g>
                </g>
            </g>
        </g>
    </g>
</svg>