<svg xmlns="http://www.w3.org/2000/svg" id="圖層_1" data-name="圖層 1" viewBox="0 0 2239.86 1935.68"><defs><style>.cls-1{fill:none;clip-rule:evenodd}.cls-5{fill:#fff;opacity:.15}</style><clipPath id="clip-path"><path d="M1679.66.07l-8.2-.07c-117.13 0-236.08 38.36-344 111-42.73 28.78-85.72 63.4-135.3 109.07l-5.35 4.94c-20.25 18.76-48 44.43-64.34 44.43h-5.44c-15.89 0-43.61-25.65-63.84-44.38l-5.46-5c-49.44-45.56-92.4-80.19-135.25-109C804.66 38.36 685.69 0 568.56 0l-8.17.07C231.33 4.85 5.05 322.92.14 617c-2.57 155.65 30.33 308.69 97.8 454.86 123.79 268 363.64 515.31 712.92 735 93.44 58.75 186.23 112.69 294.25 127.38 1.42.23 4.29.58 4.31.58a83.86 83.86 0 0 0 11.69.82 87 87 0 0 0 19.41-2.2c105.58-15.75 196.81-68.84 288.66-126.58 349.29-219.72 589.16-467 712.9-735 67.49-146.19 100.37-299.23 97.78-454.86C2235 322.92 2008.71 4.85 1679.66.07z" class="cls-1"/></clipPath><clipPath id="clip-path-2"><path d="M1539.38 242.73h-6.15c-87.87 0-177.11 28.78-258 83.24-32.06 21.59-64.31 47.56-101.5 81.83l-4 3.71c-15.19 14.07-36 33.33-48.27 33.33h-4.08c-11.92 0-32.71-19.24-47.89-33.3l-4.1-3.77c-37.09-34.18-69.32-60.17-101.47-81.8-80.91-54.46-170.17-83.24-258-83.24h-6.13C452.82 246.32 283.07 485 279.38 705.6c-1.93 116.79 22.76 231.6 73.37 341.26 92.87 201.06 272.81 386.62 534.85 551.44 70.1 44.08 139.71 84.56 220.75 95.58 1.06.17 3.22.43 3.23.43a63.29 63.29 0 0 0 8.77.62 65.15 65.15 0 0 0 14.56-1.66c79.21-11.81 147.65-51.65 216.56-95 262-164.84 442-350.38 534.83-551.44 50.63-109.67 75.3-224.49 73.35-341.26C1956 485 1786.24 246.32 1539.38 242.73z" class="cls-1"/></clipPath><clipPath id="clip-path-3"><path d="M1434.48 424.73h-4.62c-65.92 0-132.85 21.57-193.57 62.38-24 16.18-48.24 35.64-76.14 61.32l-3 2.78c-11.4 10.54-27 25-36.21 25h-3.06c-8.94 0-24.54-14.42-35.93-24.95l-3.07-2.83c-27.82-25.61-52-45.08-76.11-61.29-60.7-40.81-127.66-62.38-193.57-62.38h-4.61C619.4 427.42 492.06 606.24 489.3 771.58c-1.45 87.51 17.07 173.54 55 255.72C614 1178 749 1317 945.55 1440.51c52.58 33 104.8 63.36 165.59 71.62.8.13 2.41.32 2.43.32a47 47 0 0 0 6.58.46 48.61 48.61 0 0 0 10.91-1.24c59.42-8.85 110.76-38.7 162.46-71.16C1490.08 1317 1625.07 1178 1694.71 1027.3c38-82.19 56.49-168.22 55-255.72-2.71-165.34-130.05-344.16-315.23-346.85z" class="cls-1"/></clipPath><clipPath id="clip-path-4"><path d="M1357.48 560.51h-3.45c-49.41 0-99.57 16.19-145.07 46.81-18 12.14-36.15 26.75-57.06 46l-2.26 2.08c-8.54 7.91-20.24 18.75-27.14 18.75h-2.29c-6.7 0-18.39-10.83-26.92-18.73l-2.31-2.12c-20.85-19.23-39-33.84-57-46-45.49-30.62-95.67-46.81-145.07-46.81h-3.45c-138.78 2-234.21 136.21-236.28 260.29-1.09 65.67 12.79 130.23 41.25 191.9 52.21 113.06 153.36 217.41 300.67 310.09 39.41 24.79 78.55 47.55 124.1 53.75.6.09 1.81.24 1.82.24a35.75 35.75 0 0 0 4.93.35 36.86 36.86 0 0 0 8.19-.93c44.53-6.65 83-29 121.74-53.41 147.32-92.69 248.48-197 300.67-310.09 28.46-61.68 42.33-126.24 41.24-191.9-2.09-124.06-97.53-258.25-236.31-260.27z" class="cls-1"/></clipPath><clipPath id="clip-path-5"><path d="M1298.05 662.58h-2.59c-37.07 0-74.7 12.14-108.84 35.11-13.52 9.11-27.12 20.06-42.81 34.51l-1.69 1.56c-6.41 5.94-15.19 14.06-20.36 14.06H1120c-5 0-13.8-8.11-20.2-14l-1.73-1.59c-15.65-14.42-29.24-25.38-42.8-34.5-34.13-23-71.77-35.11-108.84-35.11h-2.58C839.77 664.1 768.17 764.74 766.61 857.8c-.81 49.25 9.6 97.68 30.95 143.93 39.17 84.79 115.06 163 225.59 232.57 29.56 18.59 58.92 35.66 93.1 40.3.45.08 1.36.19 1.37.19a27 27 0 0 0 3.69.26 27.33 27.33 0 0 0 6.14-.7c33.41-5 62.28-21.78 91.35-40 110.52-69.53 186.42-147.78 225.57-232.57 21.36-46.26 31.76-94.68 30.94-143.93-1.54-93.11-73.14-193.75-177.26-195.27z" class="cls-1"/></clipPath></defs><g clip-path="url(#clip-path)"><path fill="#df654f" d="M-5-5h2250v1945.68H-5z"/></g><g clip-path="url(#clip-path-2)"><path d="M274.28 237.68h1690.48v1462.24H274.28z" class="cls-5"/></g><g clip-path="url(#clip-path-3)"><path d="M484.22 419.69h1270.6v1098.22H484.22z" class="cls-5"/></g><g clip-path="url(#clip-path-4)"><path d="M644.08 555.48h954.73v826.65H644.08z" class="cls-5"/></g><g clip-path="url(#clip-path-5)"><path d="M761.57 657.56h718.79v622.49H761.57z" class="cls-5"/></g></svg>