<svg xmlns="http://www.w3.org/2000/svg" viewBox="0 0 2240 1936"><g fill="none" fill-rule="evenodd"><path fill="#F7C2C3" d="M1679.658.069L1671.461 0c-117.133 0-236.08 38.363-343.96 110.951-42.733 28.778-85.72 63.395-135.296 109.067l-5.35 4.942c-20.253 18.756-47.992 44.43-64.342 44.43h-5.442c-15.89 0-43.606-25.651-63.836-44.384l-5.466-5.034c-49.438-45.558-92.402-80.197-135.25-109.02C804.663 38.361 685.693 0 568.559 0l-8.174.069C231.329 4.85 5.054 322.924.14 617.025c-2.572 155.658 30.334 308.696 97.798 454.861 123.792 267.989 363.638 515.313 712.925 735.01 93.435 58.75 186.228 112.698 294.244 127.385 1.424.23 4.294.575 4.317.575 3.904.552 7.808.828 11.688.828a87.06 87.06 0 0 0 19.404-2.207c105.583-15.745 196.814-68.842 288.665-126.582 349.286-219.719 589.155-467.02 712.901-735.009 67.488-146.188 100.37-299.226 97.776-454.861-4.868-294.1-231.143-612.175-560.2-616.956z"/><path fill="#FEFEFE" d="M1539.383 242.734l-6.15-.051c-87.875 0-177.111 28.781-258.044 83.24-32.06 21.591-64.308 47.562-101.501 81.828l-4.014 3.707c-15.194 14.072-36.004 33.335-48.27 33.335h-4.083c-11.921 0-32.714-19.245-47.89-33.3l-4.101-3.777c-37.09-34.179-69.321-60.167-101.467-81.792-80.915-54.46-170.168-83.241-258.043-83.241l-6.133.051c-246.863 3.587-416.618 242.222-420.304 462.87-1.93 116.783 22.757 231.6 73.37 341.26 92.87 201.058 272.806 386.613 534.846 551.44 70.097 44.078 139.711 84.551 220.747 95.571 1.068.172 3.221.431 3.239.431 2.928.414 5.857.62 8.768.62 4.91 0 9.82-.568 14.557-1.655 79.21-11.812 147.652-51.648 216.56-94.967 262.04-164.844 441.994-350.382 534.83-551.44 50.63-109.678 75.3-224.494 73.352-341.26-3.652-220.648-173.407-459.283-420.27-462.87z" opacity=".15"/><path fill="#FEFEFE" d="M1434.477 424.734l-4.614-.04c-65.918 0-132.858 21.568-193.57 62.376-24.048 16.179-48.24 35.64-76.14 61.316l-3.01 2.779c-11.399 10.544-27.01 24.978-36.21 24.978h-3.063c-8.942 0-24.54-14.42-35.925-24.952l-3.076-2.83c-27.822-25.612-52-45.086-76.114-61.29-60.698-40.809-127.651-62.376-193.57-62.376l-4.6.039c-185.183 2.687-312.523 181.505-315.289 346.845-1.447 87.51 17.071 173.546 55.038 255.718 69.666 150.66 204.644 289.704 401.212 413.215 52.582 33.029 104.803 63.357 165.591 71.615.802.129 2.417.323 2.43.323 2.197.31 4.394.465 6.578.465 3.683 0 7.365-.427 10.92-1.24 59.418-8.852 110.76-38.703 162.45-71.163 196.568-123.524 331.559-262.554 401.2-413.215 37.98-82.185 56.485-168.221 55.024-255.718-2.74-165.34-130.08-344.158-315.262-346.845z" opacity=".15"/><path fill="#FEFEFE" d="M1357.483 560.51l-3.458-.028c-49.401 0-99.567 16.184-145.066 46.809-18.023 12.141-36.153 26.745-57.062 46.014l-2.256 2.085c-8.542 7.913-20.241 18.745-27.137 18.745h-2.295c-6.702 0-18.39-10.822-26.923-18.726l-2.305-2.123c-20.851-19.22-38.971-33.835-57.043-45.995-45.488-30.625-95.664-46.81-145.066-46.81l-3.447.03c-138.781 2.017-234.214 136.21-236.286 260.287-1.085 65.671 12.793 130.236 41.247 191.902 52.21 113.062 153.366 217.406 300.679 310.094 39.406 24.786 78.542 47.546 124.099 53.743.6.097 1.81.242 1.82.242 1.647.233 3.293.35 4.93.35 2.76 0 5.52-.32 8.183-.932 44.53-6.643 83.007-29.044 121.746-53.403 147.313-92.698 248.478-197.032 300.669-310.094 28.463-61.675 42.331-126.24 41.237-191.902-2.053-124.078-97.485-258.27-236.266-260.287z" opacity=".15"/><path fill="#FEFEFE" d="M1298.052 662.584l-2.594-.022c-37.064 0-74.701 12.14-108.837 35.107-13.522 9.106-27.123 20.06-42.81 34.51l-1.694 1.565c-6.408 5.934-15.185 14.058-20.359 14.058h-1.722c-5.028 0-13.798-8.116-20.2-14.044l-1.728-1.593c-15.644-14.415-29.239-25.375-42.797-34.496-34.128-22.968-71.773-35.107-108.836-35.107l-2.587.022c-104.121 1.513-175.72 102.157-177.275 195.216-.813 49.253 9.599 97.677 30.946 143.926 39.17 84.797 115.064 163.055 225.586 232.57 29.565 18.59 58.927 35.66 93.106 40.308.45.072 1.358.181 1.366.181 1.235.175 2.47.262 3.698.262 2.07 0 4.142-.24 6.14-.698 33.409-4.982 62.276-21.783 91.34-40.053 110.522-69.523 186.422-147.773 225.578-232.57 21.355-46.256 31.76-94.68 30.939-143.926-1.54-93.059-73.14-193.703-177.26-195.216z" opacity=".15"/></g></svg>