<svg xmlns="http://www.w3.org/2000/svg" viewBox="0 0 20 20"><path d="M16.5 10V6.6c0-.4 0-.7-.2-1.1-.4-1.2-1.5-2-2.9-2H6.5c-.3 0-.7 0-1 .2-1.3.4-2 1.5-2 2.9v6.8c0 .4 0 .7.2 1 .4 1.2 1.5 2 2.9 2h6.9c1 0 1.9-.4 2.5-1.2.4-.5.5-1.1.5-1.8V10M6.2 2.2h7.7c.2 0 .3 0 .5.1 1.8.4 2.9 1.5 3.4 3.2.1.2.1.5.1.7V14l-.3 1.2c-.8 1.7-2.1 2.6-4 2.6h-7c-.9 0-1.7-.2-2.5-.8-1.3-.9-1.9-2.1-1.9-3.6V6.6c0-.3 0-.6.1-.9.4-1.8 1.5-2.9 3.2-3.4.2-.1.4-.1.7-.1"/><path d="M12.7 10c0-1.5-1.2-2.6-2.7-2.6S7.3 8.6 7.3 10c0 1.5 1.2 2.6 2.7 2.6s2.7-1.2 2.7-2.6m1.4 0c0 2.2-1.8 4-4.1 4-2.2 0-4.1-1.8-4.1-4S7.7 6 10 6c2.2 0 4.1 1.8 4.1 4m.2-5.2c.6 0 1 .5 1 1 0 .6-.5 1-1.1 1s-1-.5-1-1c0-.6.5-1 1.1-1"/></svg>