<svg xmlns="http://www.w3.org/2000/svg" data-name="圖層 1" viewBox="0 0 18 22.5"><path fill="#fff" d="M14.48 15a3.37 3.37 0 0 0-2.37 1l-5.23-3.64a4 4 0 0 0 .17-1.11 3.94 3.94 0 0 0-.17-1.09l5.27-3.61a3.42 3.42 0 0 0 2.33 1A3.64 3.64 0 0 0 18 3.75 3.64 3.64 0 0 0 14.48 0 3.65 3.65 0 0 0 11 3.75a3.94 3.94 0 0 0 .17 1.09L5.85 8.45a3.42 3.42 0 0 0-2.33-.95A3.64 3.64 0 0 0 0 11.25 3.64 3.64 0 0 0 3.52 15a3.4 3.4 0 0 0 2.31-.93l5.27 3.65a3.88 3.88 0 0 0-.15 1 3.65 3.65 0 0 0 3.53 3.75A3.64 3.64 0 0 0 18 18.75 3.64 3.64 0 0 0 14.48 15z"/></svg>