<?xml version="1.0" encoding="utf-8"?>
<!-- Generator: Adobe Illustrator 25.0.1, SVG Export Plug-In . SVG Version: 6.00 Build 0)  -->
<svg version="1.1" id="圖層_1" xmlns="http://www.w3.org/2000/svg" xmlns:xlink="http://www.w3.org/1999/xlink" x="0px" y="0px"
	 viewBox="0 0 20 20" style="enable-background:new 0 0 20 20;" xml:space="preserve">
<style type="text/css">
	.st0{fill-rule:evenodd;clip-rule:evenodd;}
</style>
<g>
	<g>
		<g>
			<g>
				<path class="st0" d="M16.5,10V6.6c0-0.4,0-0.7-0.2-1.1c-0.4-1.2-1.5-2-2.9-2c-2.3,0-4.6,0-6.9,0c-0.3,0-0.7,0-1,0.2
					c-1.3,0.4-2,1.5-2,2.9c0,2.3,0,4.5,0,6.8c0,0.4,0,0.7,0.2,1c0.4,1.2,1.5,2,2.9,2c2.3,0,4.6,0,6.9,0c1,0,1.9-0.4,2.5-1.2
					c0.4-0.5,0.5-1.1,0.5-1.8V10 M6.2,2.2h7.7c0.2,0,0.3,0,0.5,0.1c1.8,0.4,2.9,1.5,3.4,3.2c0.1,0.2,0.1,0.5,0.1,0.7v7.6
					c0,0.1,0,0.1,0,0.2c-0.1,0.4-0.2,0.8-0.3,1.2c-0.8,1.7-2.1,2.6-4,2.6c-2.3,0-4.7,0-7,0c-0.9,0-1.7-0.2-2.5-0.8
					c-1.3-0.9-1.9-2.1-1.9-3.6c0-2.3,0-4.6,0-6.8c0-0.3,0-0.6,0.1-0.9c0.4-1.8,1.5-2.9,3.2-3.4C5.7,2.2,5.9,2.2,6.2,2.2"/>
				<path class="st0" d="M12.7,10c0-1.5-1.2-2.6-2.7-2.6c-1.5,0-2.7,1.2-2.7,2.6c0,1.5,1.2,2.6,2.7,2.6C11.5,12.6,12.7,11.4,12.7,10
					 M14.1,10c0,2.2-1.8,4-4.1,4c-2.2,0-4.1-1.8-4.1-4c0-2.2,1.8-4,4.1-4C12.2,6,14.1,7.8,14.1,10 M14.3,4.8c0.6,0,1,0.5,1,1
					c0,0.6-0.5,1-1.1,1c-0.6,0-1-0.5-1-1C13.2,5.2,13.7,4.8,14.3,4.8"/>
			</g>
		</g>
	</g>
</g>
</svg>
