<?xml version="1.0" encoding="utf-8"?>
<!-- Generator: Adobe Illustrator 22.0.0, SVG Export Plug-In . SVG Version: 6.00 Build 0)  -->
<svg version="1.1" id="圖層_1" xmlns="http://www.w3.org/2000/svg" xmlns:xlink="http://www.w3.org/1999/xlink" x="0px" y="0px"
	 viewBox="0 0 20 20" style="enable-background:new 0 0 20 20;" xml:space="preserve">
<path d="M6.7,17.2c6.8,0,10.5-5.5,10.5-10.3c0-0.2,0-0.3,0-0.5c0.7-0.5,1.3-1.2,1.8-1.9c-0.7,0.3-1.4,0.5-2.1,0.6
	c0.8-0.5,1.3-1.2,1.6-2C17.8,3.5,17,3.8,16.2,4c-1.1-1.2-3-1.5-4.4-0.7c-1.5,0.8-2.2,2.4-1.9,4c-3-0.1-5.7-1.5-7.6-3.8
	c-1,1.7-0.5,3.8,1.1,4.9c-0.6,0-1.2-0.2-1.7-0.5l0,0c0,1.7,1.2,3.2,3,3.6c-0.5,0.1-1.1,0.2-1.7,0.1C3.5,13,4.9,14,6.5,14.1
	c-1.3,1-2.9,1.6-4.6,1.6c-0.3,0-0.6,0-0.9-0.1C2.7,16.6,4.7,17.2,6.7,17.2"/>
</svg>
