<svg id="圖層_1" data-name="圖層 1" xmlns="http://www.w3.org/2000/svg" viewBox="0 0 1308 1104.21"><defs><style>.cls-1{fill:#fefefe;}</style></defs><path class="cls-1" d="M1271.77,313.09a638.75,638.75,0,0,0-68.59-141.46C1166.35,114.76,1132.08,59.85,1105,0H741.42q-10.75,1.88-21.63,3.36c-90.64,12.44-182.93,10.08-273,27.28-187,35.7-376,202.56-427.07,389.08C-21.81,571.6,1.83,741.8,94.54,868.77c76.15,104.3,187.16,173.73,307.25,207.54a705.75,705.75,0,0,0,136.81,24c37.91,2.93,76.92,4.18,115.86,3.88h.47a3.65,3.65,0,0,0,.47,0c39,.32,78-.93,115.87-3.86a705.79,705.79,0,0,0,136.8-24c120.09-33.81,231.11-103.24,307.26-207.54,52.78-72.3,81.23-159.89,89.22-248.77,6-66.48,4.45-134.72-6.54-201.37A663.77,663.77,0,0,0,1271.77,313.09Z"/></svg>