<svg id="圖層_1" data-name="圖層 1" xmlns="http://www.w3.org/2000/svg" xmlns:xlink="http://www.w3.org/1999/xlink" viewBox="0 0 1213.21 1085"><defs><style>.cls-1,.cls-2,.cls-4{fill:none;}.cls-2{clip-rule:evenodd;}.cls-3{clip-path:url(#clip-path);}.cls-4{stroke:#979797;stroke-miterlimit:10;}.cls-5{fill:#d8d8d8;}.cls-6{clip-path:url(#clip-path-3);}.cls-7{clip-path:url(#clip-path-5);}.cls-8{clip-path:url(#clip-path-6);}.cls-9{fill:#c80025;}.cls-10{clip-path:url(#clip-path-10);}.cls-11{clip-path:url(#clip-path-11);}.cls-12{fill:#ac0015;}.cls-13{clip-path:url(#clip-path-15);}.cls-14{clip-path:url(#clip-path-16);}.cls-15{fill:#680000;}.cls-16{clip-path:url(#clip-path-18);}.cls-17{clip-path:url(#clip-path-19);}.cls-18{clip-path:url(#clip-path-20);}.cls-19{clip-path:url(#clip-path-22);}.cls-20{clip-path:url(#clip-path-24);}.cls-21{clip-path:url(#clip-path-25);}.cls-22{clip-path:url(#clip-path-26);}.cls-23{clip-path:url(#clip-path-27);}.cls-24{clip-path:url(#clip-path-29);}.cls-25{clip-path:url(#clip-path-31);}.cls-26{clip-path:url(#clip-path-33);}.cls-27{fill:#fefefe;}.cls-28{clip-path:url(#clip-path-35);}.cls-29{fill:#160403;}.cls-30{clip-path:url(#clip-path-37);}.cls-31{clip-path:url(#clip-path-39);}.cls-32{clip-path:url(#clip-path-41);}.cls-33{fill:#fad9cb;}.cls-34{clip-path:url(#clip-path-43);}.cls-35{clip-path:url(#clip-path-45);}.cls-36{fill:#f2a079;}.cls-37{clip-path:url(#clip-path-47);}.cls-38{clip-path:url(#clip-path-49);}.cls-39{clip-path:url(#clip-path-51);}.cls-40{clip-path:url(#clip-path-53);}.cls-41{clip-path:url(#clip-path-55);}.cls-42{clip-path:url(#clip-path-57);}.cls-43{fill:#d80029;}.cls-44{clip-path:url(#clip-path-59);}.cls-45{clip-path:url(#clip-path-61);}.cls-46{clip-path:url(#clip-path-63);}.cls-47{clip-path:url(#clip-path-65);}.cls-48{clip-path:url(#clip-path-67);}.cls-49{clip-path:url(#clip-path-69);}.cls-50{clip-path:url(#clip-path-71);}.cls-51{clip-path:url(#clip-path-73);}.cls-52{clip-path:url(#clip-path-75);}.cls-53{clip-path:url(#clip-path-77);}.cls-54{clip-path:url(#clip-path-79);}.cls-55{clip-path:url(#clip-path-81);}.cls-56{fill:#f09488;}.cls-57{clip-path:url(#clip-path-83);}.cls-58{clip-path:url(#clip-path-85);}.cls-59{clip-path:url(#clip-path-87);}.cls-60{clip-path:url(#clip-path-89);}.cls-61{clip-path:url(#clip-path-91);}.cls-62{fill:#ed827a;}.cls-63{clip-path:url(#clip-path-93);}.cls-64{clip-path:url(#clip-path-95);}.cls-65{clip-path:url(#clip-path-97);}.cls-66{clip-path:url(#clip-path-99);}.cls-67{fill:#d6002a;}.cls-68{clip-path:url(#clip-path-101);}.cls-69{clip-path:url(#clip-path-103);}.cls-70{clip-path:url(#clip-path-105);}.cls-71{clip-path:url(#clip-path-107);}.cls-72{clip-path:url(#clip-path-109);}.cls-73{clip-path:url(#clip-path-111);}.cls-74{clip-path:url(#clip-path-113);}.cls-75{clip-path:url(#clip-path-115);}.cls-76{clip-path:url(#clip-path-117);}.cls-77{clip-path:url(#clip-path-119);}.cls-78{clip-path:url(#clip-path-121);}.cls-79{clip-path:url(#clip-path-123);}.cls-80{clip-path:url(#clip-path-125);}.cls-81{clip-path:url(#clip-path-127);}.cls-82{clip-path:url(#clip-path-129);}.cls-83{clip-path:url(#clip-path-131);}.cls-84{clip-path:url(#clip-path-133);}.cls-85{clip-path:url(#clip-path-135);}.cls-86{clip-path:url(#clip-path-137);}.cls-87{clip-path:url(#clip-path-139);}.cls-88{clip-path:url(#clip-path-141);}.cls-89{clip-path:url(#clip-path-143);}.cls-90{clip-path:url(#clip-path-145);}.cls-91{clip-path:url(#clip-path-147);}.cls-92{clip-path:url(#clip-path-149);}.cls-93{clip-path:url(#clip-path-151);}.cls-94{clip-path:url(#clip-path-153);}.cls-95{clip-path:url(#clip-path-155);}.cls-96{clip-path:url(#clip-path-157);}.cls-97{clip-path:url(#clip-path-159);}.cls-98{clip-path:url(#clip-path-161);}.cls-99{clip-path:url(#clip-path-163);}.cls-100{clip-path:url(#clip-path-165);}.cls-101{clip-path:url(#clip-path-167);}.cls-102{clip-path:url(#clip-path-169);}</style><clipPath id="clip-path"><rect class="cls-1" x="-66.79" width="1280" height="1084"/></clipPath><clipPath id="clip-path-3"><rect class="cls-1" x="-197.99" y="-42.18" width="1627.73" height="1150.91"/></clipPath><clipPath id="clip-path-5"><rect class="cls-1" x="-499.79" y="-556" width="2232" height="2178"/></clipPath><clipPath id="clip-path-6"><path class="cls-2" d="M615.57,1622a872.86,872.86,0,0,1-160.77-15c-176.53-32.44-302.35-106.12-381.63-158.74C-68.25,1354.38-186.3,1243-277.72,1117c-71.58-98.59-126.67-205.61-163.72-318.11a1112.51,1112.51,0,0,1-55.76-366.4,1013.23,1013.23,0,0,1,57.27-319.45A1020.5,1020.5,0,0,1-287.62-169.8C-206.76-275.6-107.91-362.38,6.2-427.73c143.3-82.08,299.54-125,464.35-127.54,4.94-.08,10-.13,15.05-.13a978.42,978.42,0,0,1,130.27,8.78,978.46,978.46,0,0,1,130.28-8.78c5,0,10.07,0,15.11.13,164.77,2.54,321,45.46,464.33,127.57,114.09,65.34,212.93,152.11,293.76,257.9a1020.44,1020.44,0,0,1,152.34,282.9A1013.36,1013.36,0,0,1,1729,432.51c3,187.54-40,367.92-127.58,536.13-98.09,188.35-247.07,349.71-442.82,479.6-79.91,53-206.74,127.22-384.88,159.3A871.69,871.69,0,0,1,620.09,1622h-4.52"/></clipPath><clipPath id="clip-path-10"><rect class="cls-1" x="-375.79" y="-432" width="1984" height="1930"/></clipPath><clipPath id="clip-path-11"><path class="cls-2" d="M615.57,1497.79a747.21,747.21,0,0,1-138.05-12.9c-154.25-28.29-265.45-93.51-335.7-140.12C12.79,1259.15-94.56,1158-177.25,1044.1c-64-88.18-113.23-183.73-146.26-284a988.89,988.89,0,0,1-49.55-325.6,889.34,889.34,0,0,1,50.32-280.37A896,896,0,0,1-189-94.4C-118.19-187-31.78-262.9,67.9-320c124.88-71.53,261-108.92,404.57-111.14,4.28-.07,8.71-.1,13.13-.1a854.07,854.07,0,0,1,130.27,10.06,854.11,854.11,0,0,1,130.28-10.06c4.33,0,8.76,0,13.18.1C902.87-428.91,1039-391.51,1163.88-320,1263.54-262.88,1350-187,1420.7-94.41a896.42,896.42,0,0,1,133.8,248.55,889.18,889.18,0,0,1,50.3,280.33c2.62,166.68-35.57,327.11-113.54,476.82-88.28,169.51-223.32,315.36-401.36,433.49-70.79,47-182.88,112.64-338.49,140.62a748.3,748.3,0,0,1-131.88,12.39h-4"/></clipPath><clipPath id="clip-path-15"><rect class="cls-1" x="-250.79" y="-308" width="1734" height="1682"/></clipPath><clipPath id="clip-path-16"><path class="cls-2" d="M615.57,1373.63a622.73,622.73,0,0,1-115.35-10.81c-132-24.14-228.54-80.89-289.75-121.5C93.83,1163.91-2.82,1073-76.78,971.15c-56.46-77.77-99.79-161.85-128.8-249.9A864.74,864.74,0,0,1-248.9,436.44a765.11,765.11,0,0,1,43.33-241.28A772.54,772.54,0,0,1-90.31-19C-29.64-98.41,44.36-163.42,129.6-212.24c106.45-61,222.46-92.85,344.78-94.75,3.67-.05,7.45-.08,11.22-.08a728.12,728.12,0,0,1,130.27,11.8,728.23,728.23,0,0,1,130.28-11.8c3.72,0,7.5,0,11.27.08,122.29,1.9,238.28,33.78,344.75,94.76C1187.41-163.41,1261.39-98.4,1322.05-19a772.71,772.71,0,0,1,115.27,214.18,765.62,765.62,0,0,1,43.33,241.27c2.3,145.82-31.18,286.3-99.52,417.51-78.46,150.66-199.54,281-359.87,387.39-61.67,40.92-159,98.05-292.12,121.92A622.94,622.94,0,0,1,619,1373.63h-3.39"/></clipPath><clipPath id="clip-path-18"><rect class="cls-1" x="-125.55" y="-42.18" width="1482.12" height="1150.91"/></clipPath><clipPath id="clip-path-19"><rect class="cls-1" x="-126.79" y="-183" width="1486" height="1433"/></clipPath><clipPath id="clip-path-20"><path class="cls-2" d="M615.21,1249.47a497.66,497.66,0,0,1-92.65-8.72c-109.72-20-191.75-68.27-243.94-102.89C174.3,1068.67,88.33,988,23.08,898.21c-48.93-67.36-86.4-140-111.4-215.8a740.59,740.59,0,0,1-37.13-244,641.34,641.34,0,0,1,36.39-202.2A649.24,649.24,0,0,1,7.72,56.36c50.6-66.17,112.18-120.3,183-160.86,88.06-50.42,184-76.77,285.13-78.34,3,0,6.17-.07,9.29-.07a602.28,602.28,0,0,1,130.34,14.29,602.12,602.12,0,0,1,130.33-14.29c3.12,0,6.25,0,9.36.07,101.09,1.57,197,27.92,285.08,78.35,70.85,40.57,132.43,94.68,183,160.85a648.63,648.63,0,0,1,96.78,179.84,641.51,641.51,0,0,1,36.39,202.19c2,125-26.81,245.48-85.53,358.2-68.69,131.81-175.86,246.64-318.55,341.28-52.56,34.86-135.21,83.47-245.84,103.23a498.9,498.9,0,0,1-88.52,8.37h-2.83"/></clipPath><clipPath id="clip-path-22"><rect class="cls-1" y="-41.27" width="1232.93" height="1150.86"/></clipPath><clipPath id="clip-path-24"><rect class="cls-1" x="-1.79" y="-58" width="1237" height="1185"/></clipPath><clipPath id="clip-path-25"><path class="cls-2" d="M616.16,1126.17a373.71,373.71,0,0,1-69.91-6.62c-86.36-15.65-151.07-53.25-197.84-84.29-91.86-61-167.08-131.32-223.56-209.12C83.51,769.19,51.92,708.06,31,644.45A617.12,617.12,0,0,1,.08,441.23a517.68,517.68,0,0,1,29.4-163.11,524.73,524.73,0,0,1,78.2-145.46c40.47-53,89.59-96.21,146-128.51C323.25-35.71,399-56.55,478.83-57.78c2.46,0,4.91-.06,7.38-.06A478.07,478.07,0,0,1,616.46-39.73,478.14,478.14,0,0,1,746.72-57.84c2.47,0,4.95,0,7.42.06,79.79,1.23,155.54,22.07,225.13,61.94,56.39,32.3,105.5,75.53,146,128.5a524.84,524.84,0,0,1,78.19,145.46,518,518,0,0,1,29.41,163.11c1.64,104.11-22.4,204.68-71.46,298.89-58.82,113-152,212.26-276.89,295.16-47.08,31.24-112.26,69.06-199.32,84.53a373.76,373.76,0,0,1-66.91,6.36h-2.11"/></clipPath><clipPath id="clip-path-26"><rect class="cls-1" x="-0.79" width="1214" height="1084"/></clipPath><clipPath id="clip-path-27"><path class="cls-2" d="M568.74,996.47C504.86,985,456.17,956.86,416.92,930.79,337.5,878,273,817.9,225.3,752.1c-33.76-46.55-59.46-96.22-76.37-147.64A493.71,493.71,0,0,1,124.27,442,394,394,0,0,1,146.7,317.92a401,401,0,0,1,59.63-111.15c30.36-39.78,67-72.14,109-96.18A339.06,339.06,0,0,1,480.58,65c1.83,0,3.64,0,5.46,0A358.4,358.4,0,0,1,616.21,89.76,358.32,358.32,0,0,1,746.38,65c1.81,0,3.63,0,5.45,0a339.13,339.13,0,0,1,165.29,45.55c41.94,24,78.61,56.41,109,96.18a401,401,0,0,1,59.63,111.15A394,394,0,0,1,1108.14,442c1.31,83.28-18,163.91-57.41,239.65-49,94.15-128.12,178-235.25,249.14C776,957,727,985.32,662.6,996.66a248.42,248.42,0,0,1-45.19,4.34H615.9A248.07,248.07,0,0,1,568.74,996.47Z"/></clipPath><clipPath id="clip-path-29"><path class="cls-2" d="M615.4,877A124.35,124.35,0,0,1,591,874.58c-43.91-7.67-77.72-28.19-106.16-47-67.17-44.51-121-94.32-160.09-148-52.73-72.55-78.8-151.6-77.49-235,.9-56.82,21.56-115.74,56.68-161.64,20.3-26.53,44.58-48,72.16-63.76A217.38,217.38,0,0,1,481.8,190q1.77,0,3.54,0c45.2,0,90,13.51,130.37,39.18C656.07,203.51,700.86,190,746.07,190q1.77,0,3.54,0a217.35,217.35,0,0,1,105.71,29.11c27.58,15.77,51.86,37.23,72.16,63.76,35.13,45.9,55.79,104.82,56.68,161.64,1.61,101.83-38.31,251-237.58,383C718,846.47,684,867.11,639.8,874.69A123.81,123.81,0,0,1,616.31,877h-.91"/></clipPath><clipPath id="clip-path-31"><path class="cls-2" d="M872.17,454.46c-.94-59.87-44.69-131.41-112.12-132.45-26.21-.4-50.5,9.1-71.43,24a251,251,0,0,0-29.49,25.13c-8.35,8.11-18.2,18.4-30.92,18-12.73.39-22.58-9.9-30.93-18A250.27,250.27,0,0,0,567.78,346c-20.92-14.86-45.2-24.36-71.42-24-67.42,1-111.18,72.58-112.12,132.45-1.92,121.29,84.62,213.24,181.85,277.77,19,12.6,39.48,25.62,61.82,28.68V761l.3,0,.3,0v-.09c22.33-3.06,42.82-16.08,61.81-28.68,97.22-64.53,183.76-156.48,181.85-277.77"/></clipPath><clipPath id="clip-path-33"><rect class="cls-1" x="848.76" y="593.69" width="60.9" height="17.62" transform="matrix(0.01, -1, 1, 0.01, 271.46, 1478.09)"/></clipPath><clipPath id="clip-path-35"><path class="cls-2" d="M889.61,632.53c3.23,2.58,6.41,6.78,3.37,11.26-1.48,2.18-4.61,2.89-7.44,3.06-4.49.27-11.13.5-14.67-2.47-2.52-2.29-2.73-5.75-2.65-8.79.09-3.71.6-7.19.47-10.92a2.48,2.48,0,0,1,.23-1.42,3.2,3.2,0,0,1,2.44-1,66.61,66.61,0,0,1,13.54.18,10,10,0,0,1,2.25.46,1.29,1.29,0,0,1,.63.4,1.23,1.23,0,0,1,.16.8c-.07,2.69-.89,6.39,1.67,8.43"/></clipPath><clipPath id="clip-path-37"><path class="cls-2" d="M899.06,551.86l-.33-6.48q-.69-13.83-1.5-27.69l0-.84c-.08-1.41-.17-2.83-.26-4.24l-.46,0c-.15-3.35-.29-6.71-.45-10.06,0-.47,0-.93-.06-1.4-.14-3.15,1.35-12.07-1-14.27-1.5-1.42-3.7-1.79-5.76-2.09l-20-2.95v-.08l-.67,0-.66-.1v.08q-10.11-.37-20.25-.73c-2.08-.09-4.32-.12-6,1-2.65,1.75-2.78,10.79-3.49,13.86-.1.46-.21.91-.31,1.36q-1.12,4.91-2.24,9.82l-.45-.14c-.33,1.38-.68,2.76-1,4.14-.06.27-.13.54-.2.81q-3.25,13.49-6.42,27c-.5,2.11-1,4.21-1.49,6.31-1.74,7.5-3.32,15.81,1.17,22.54,5,7.5,15.68,10.32,25.39,12,2.11.35,4.26.68,6.42.93v0l.67.05.67.07v0c2.17.14,4.34.22,6.47.25,9.85.14,20.87-.7,27.14-7.17,5.61-5.81,5.54-14.27,5.17-22"/></clipPath><clipPath id="clip-path-39"><path class="cls-2" d="M930,442.6a57.44,57.44,0,0,0-1.45-9.43,56.59,56.59,0,0,0-4.87-12.92c-4.19-8-7.91-15.5-9.57-24.56-.27-1.48-.67-2.93-1-4.39-.26-1.13-.47-2.3-.8-3.41a19.8,19.8,0,0,0-.92-2.89,30.13,30.13,0,0,1-2.2,2.92c-.88,1.12-1.62,2.35-2.53,3.45-6,7.31-14.79,9.91-23.91,10.34-8,.36-16.07-.58-24.07.21-16.64,1.63-34.48,14.71-40.42,30.61-4.84,13-4.12,28,3,39.85A49.82,49.82,0,0,0,846.49,493a62.36,62.36,0,0,0,11.76,3.19c3.29.55,6.69,1,10.1,1.25h.08c3.4.34,6.82.54,10.16.58a61.06,61.06,0,0,0,12.14-1,49.8,49.8,0,0,0,28.51-15.7,43.6,43.6,0,0,0,9.77-21,69.94,69.94,0,0,0,1-17.65"/></clipPath><clipPath id="clip-path-41"><path class="cls-2" d="M903.42,446.06a25.44,25.44,0,0,0-6.74-8.6,35.76,35.76,0,0,0-8.82-5.45,51.07,51.07,0,0,0-14.48-3.84h0l-.38,0-.37,0h0a51.4,51.4,0,0,0-14.94,1.22,36.37,36.37,0,0,0-9.68,3.8,25.74,25.74,0,0,0-8.21,7.28c-6,8.54-8,20.92-1.7,30,3.8,5.5,9.72,9.46,16.32,11.72A44.39,44.39,0,0,0,862,484,85.09,85.09,0,0,0,874.21,485a43.57,43.57,0,0,0,10.56-1.17,31.36,31.36,0,0,0,14.81-8c7.82-7.8,8.2-20.31,3.84-29.79"/></clipPath><clipPath id="clip-path-43"><path class="cls-2" d="M870,425.4c-1.2.45-2.39.94-3.6,1.35-3.09,1-7.3,1.51-9.82-.73-1.89-1.69-2.59.3-2.24,1.89a11.19,11.19,0,0,0,3.08,5.2,27.39,27.39,0,0,0,16,7.76c5.88.64,16.24-.92,16.81-7.89a6.55,6.55,0,0,0-1.74-4.74,12.74,12.74,0,0,0-7.91-4,22,22,0,0,0-8,.37c-.88.23-1.74.52-2.59.83"/></clipPath><clipPath id="clip-path-45"><path class="cls-2" d="M875.2,459.87c.15-1.68-1.52-3.21-3.72-3.41s-4.12,1-4.27,2.67,1.52,3.21,3.72,3.41,4.12-1,4.27-2.67"/></clipPath><clipPath id="clip-path-47"><path class="cls-2" d="M862.18,456.36c.25-2.76-1.32-5.15-3.52-5.35s-4.17,1.88-4.43,4.63,1.32,5.15,3.52,5.35,4.18-1.88,4.43-4.63"/></clipPath><clipPath id="clip-path-49"><path class="cls-2" d="M888.18,458.36c.25-2.75-1.32-5.14-3.52-5.35s-4.17,1.88-4.43,4.64,1.32,5.14,3.52,5.34,4.18-1.88,4.43-4.63"/></clipPath><clipPath id="clip-path-51"><path class="cls-2" d="M837.66,632c-1.88-10.58-5.41-20.43-9.14-30.87l-.4-1.13a44.43,44.43,0,0,1-2.77-10.62c-.6-5.84.78-11.31,1.88-15.72L830.91,559l16.29,4.29-3.68,14.64c-.85,3.38-1.72,6.88-1.44,9.67a30.4,30.4,0,0,0,1.84,6.49l.4,1.13c4,11.15,7.75,21.68,9.89,33.71Z"/></clipPath><clipPath id="clip-path-53"><path class="cls-2" d="M834.44,631.34c-2.68,3.11-5,7.83-1.29,11.77,1.81,1.9,5,2.08,7.73,1.77,4.41-.5,10.89-1.4,13.8-5,2-2.7,1.64-6.17,1-9.19-.74-3.66-1.84-7-2.36-10.76a2.57,2.57,0,0,0-.48-1.37,3.06,3.06,0,0,0-2.53-.57,63.65,63.65,0,0,0-13.1,2.49,9.52,9.52,0,0,0-2.09.84,1.24,1.24,0,0,0-.56.5,1.43,1.43,0,0,0,0,.82c.54,2.66,2,6.2-.15,8.66"/></clipPath><clipPath id="clip-path-55"><path class="cls-2" d="M931.8,541a85.36,85.36,0,0,1-23.2-14.82c-7.3-6.75-16-21.12-19.39-27L905.07,490c4.57,7.9,11.5,18.57,16,22.7a66.65,66.65,0,0,0,18.18,11.52Z"/></clipPath><clipPath id="clip-path-57"><path class="cls-2" d="M955.38,531.06a1.41,1.41,0,0,0,.43,1.66c.92.92,2.33,1,3.21,2,4.7,5.14,1.08,12.24-3.91,14.32-3.17,1.31-7.15,1.22-10.89.22-6.34-1.69-11.71-6.13-16.51-10.28a1.31,1.31,0,0,1-.5-.69.75.75,0,0,1,.3-.6c4.11-4.36,7-9.3,10-14.39.06-.09.12-.2.23-.24a.74.74,0,0,1,.42,0c5.16.67,9.64,1.27,14.67,3.25a7.85,7.85,0,0,1,2.83,1.65c.74.79,1,2,.36,2.59a4.85,4.85,0,0,0-.6.48l0,.07"/></clipPath><clipPath id="clip-path-59"><path class="cls-2" d="M809.71,532l-6.5-17.39a67.92,67.92,0,0,0,19-10.59c4.75-3.9,12.38-14.3,17.47-22l15.49,10.24C851.42,498,841.78,512,834,518.38A86.59,86.59,0,0,1,809.71,532"/></clipPath><clipPath id="clip-path-61"><path class="cls-2" d="M787.55,521a1.4,1.4,0,0,1-.53,1.61c-1,.86-2.38.86-3.32,1.77-5,4.8-1.76,12,3.07,14.36,3.09,1.48,7.06,1.62,10.86.85,6.4-1.31,12-5.38,17-9.19a1.3,1.3,0,0,0,.54-.66.79.79,0,0,0-.26-.6c-3.86-4.55-6.44-9.59-9.16-14.79a.52.52,0,0,0-.21-.25.82.82,0,0,0-.42,0c-5.17.36-9.68.7-14.8,2.36a7.8,7.8,0,0,0-2.92,1.46c-.78.73-1.14,1.89-.5,2.54a4.53,4.53,0,0,1,.57.5.35.35,0,0,0,0,.08"/></clipPath><clipPath id="clip-path-63"><path class="cls-2" d="M874,466.28a2.44,2.44,0,0,1,2.21,2c.48,4.2-6.71,3.35-8.72,1.84a3,3,0,0,1-1-3.64c.64-1,1.92-.91,2.92-.61,1.6.49,2.92.23,4.54.42"/></clipPath><clipPath id="clip-path-65"><path class="cls-2" d="M441.8,676.89a20.22,20.22,0,0,1,3.52,1.59,7.6,7.6,0,0,1,3.76,7.78,5.65,5.65,0,0,1-3.94,4.44c-2.91.76-6.49-.05-9.3-.93a10.42,10.42,0,0,1-5.71-3.7,5.71,5.71,0,0,1-.75-4.56c1.49-6,7.41-6.3,12.42-4.62"/></clipPath><clipPath id="clip-path-67"><path class="cls-2" d="M438.6,685l-8-4.83,3-4.91c.91-1.49,2.61-4.29,2.2-5.85-.29-1.09-1.74-2.29-3.27-3.57a26,26,0,0,1-4.28-4.16l7.44-5.68a18.6,18.6,0,0,0,2.84,2.67c2.36,2,5.28,4.39,6.34,8.36,1.42,5.4-1.5,10.2-3.25,13.08Z"/></clipPath><clipPath id="clip-path-69"><path class="cls-2" d="M404.43,679a19.22,19.22,0,0,0-3.74.62,7.37,7.37,0,0,0-5.48,6.49,5.74,5.74,0,0,0,2.71,5.31c2.6,1.48,6.21,1.64,9.12,1.52a10.06,10.06,0,0,0,6.35-2.07,5.65,5.65,0,0,0,1.82-4.2c0-6.17-5.59-8-10.78-7.67"/></clipPath><clipPath id="clip-path-71"><path class="cls-2" d="M405.85,687c-1.81-6.61-2.31-14.24-2.64-21.5l8.71-.5c.31,6.69.76,13.68,2.29,19.27Z"/></clipPath><clipPath id="clip-path-73"><path class="cls-2" d="M440.9,635q-4.15-12.53-8.41-25-2.13-6.25-4.29-12.5c-.69-2-1.36-8-3.33-9a7.5,7.5,0,0,0-4.29-.22l-14.11,2v-.05l-.47.12-.46.06v0l-13.83,3.49a7.55,7.55,0,0,0-3.9,1.84c-1.46,1.65.16,7.5.27,9.62q.3,6.6.65,13.2.69,13.2,1.5,26.38c.35,5.81,1,12.16,5.38,16.13,4.9,4.43,12.69,4.31,19.58,3.53,1.49-.16,3-.37,4.52-.62v0l.46-.1.47-.08v0c1.49-.34,3-.73,4.42-1.14,6.67-1.89,13.95-4.73,16.85-10.7,2.59-5.35.83-11.48-1-17"/></clipPath><clipPath id="clip-path-75"><path class="cls-2" d="M415.38,639.31c-5.62.75-11.65.9-14.68.39l-.19,0c-3.22-.56-10.75-1.86-11-8.87l-1.31-40.5a8.15,8.15,0,0,1,1.83-5.61,7.77,7.77,0,0,1,4.48-2.7,7.55,7.55,0,0,1,.94-.12l.65-.13c1.49-.29,4.13-.86,7.64-1.63l.48-.1.5-.09c3.54-.62,6.19-1.11,7.69-1.4l.64-.13a7.79,7.79,0,0,1,.92-.24,7.7,7.7,0,0,1,5.15.8,8.1,8.1,0,0,1,3.81,4.6l13.74,37.94c2.38,6.58-4.12,10.66-6.89,12.4l-.17.1c-2.58,1.62-8.12,3.74-13.54,5.17a3.45,3.45,0,0,1-.4.11l-.31,0"/></clipPath><clipPath id="clip-path-77"><path class="cls-2" d="M409.48,608.87c-.21,0-.42.06-.63.08h-.24c-5.85.34-11.31-1.56-16.85-3.72-20.71-8-35.92-18.67-45.22-31.61a56.12,56.12,0,0,1-9.83-23.11C334,534.87,342.63,515.65,360,512l.43-.08a33.1,33.1,0,0,1,19.31,2.32,60.63,60.63,0,0,1,8.27,4.39l.34.21c1.26.78,3,1.86,3.83,1.7l.29-.07c.86-.16,2.06-1.81,2.94-3l.23-.33a60.92,60.92,0,0,1,6-7.18,33.31,33.31,0,0,1,17-9.44l.43-.08c17.43-3.15,32.66,11.39,35.93,26.93a56.1,56.1,0,0,1-.49,25.14c-3.78,15.49-13.9,31.09-30.1,46.35-4.26,4-8.53,7.78-13.94,9.7a5.06,5.06,0,0,1-1,.32"/></clipPath><clipPath id="clip-path-79"><path class="cls-2" d="M408,599.9l-.48.06h-.19c-4.54.26-8.76-1.2-13.05-2.86-16.06-6.2-27.84-14.4-35-24.37a43.21,43.21,0,0,1-7.63-17.81c-2.13-12,4.6-26.86,18-29.68l.33-.07a25.83,25.83,0,0,1,15,1.8,47.12,47.12,0,0,1,6.41,3.38l.25.16c1,.6,2.32,1.44,3,1.31l.23-.05c.67-.12,1.6-1.4,2.28-2.33l.18-.24a47.16,47.16,0,0,1,4.67-5.54,25.79,25.79,0,0,1,13.19-7.27l.34-.07c13.51-2.42,25.3,8.78,27.84,20.76a43,43,0,0,1-.38,19.37c-2.93,11.94-10.78,24-23.32,35.72-3.3,3.09-6.62,6-10.82,7.48a3.84,3.84,0,0,1-.77.24"/></clipPath><clipPath id="clip-path-81"><path class="cls-2" d="M428.82,549.91a20.52,20.52,0,0,0-12.27-11.86c-6.52-2.34-11.55-.46-17.25,2.69a12.73,12.73,0,0,1-3,1.17,12.48,12.48,0,0,1-3.18,0c-6.45-.75-11.82-.59-17,4a20.76,20.76,0,0,0-7,15.65,23.32,23.32,0,0,0,5.88,14.7,20.63,20.63,0,0,0,7.19,5.14c6,2.7,14.09,3.14,21.92,1.8h0l.11,0h.12v0c7.76-1.72,15.06-5.18,19.66-10a20.82,20.82,0,0,0,4.75-7.49,23.44,23.44,0,0,0,0-15.85"/></clipPath><clipPath id="clip-path-83"><path class="cls-2" d="M406.16,561.64c-.36-1.84-2.64-2.94-5.11-2.46s-4.16,2.36-3.8,4.19,2.64,2.93,5.1,2.45,4.17-2.35,3.81-4.18"/></clipPath><clipPath id="clip-path-85"><path class="cls-2" d="M393.11,561.75a4.31,4.31,0,0,0-4.78-3.69,4.25,4.25,0,0,0-3,5.19,4.31,4.31,0,0,0,4.78,3.69,4.25,4.25,0,0,0,3-5.19"/></clipPath><clipPath id="clip-path-87"><path class="cls-2" d="M416.11,557.75a4.3,4.3,0,0,0-4.78-3.69,4.25,4.25,0,0,0-3,5.19,4.31,4.31,0,0,0,4.79,3.69,4.26,4.26,0,0,0,3-5.19"/></clipPath><clipPath id="clip-path-89"><path class="cls-2" d="M432.26,605.9A74,74,0,0,0,464,592.67c2.68-1.92,4.27-5.5,2.29-8.53-1.72-2.59-5.82-4.28-8.69-2.23a78.9,78.9,0,0,1-14.13,8c-.66.28-.65.28.05,0l-1,.39c-.65.25-1.31.49-2,.73-1.17.41-2.35.79-3.53,1.12a58.11,58.11,0,0,1-8.16,1.76c-3.3.48-5.41,4.74-4.44,7.66,1.17,3.53,4.28,4.85,7.82,4.35"/></clipPath><clipPath id="clip-path-91"><path class="cls-2" d="M466.44,575.48a1,1,0,0,0,1.06.47c.8-.09,1.31-.77,2.14-.82,4.37-.25,7,4.59,6.5,8a9.53,9.53,0,0,1-3.51,5.68c-3,2.54-7.24,3.43-11.1,4.15a.77.77,0,0,1-.54,0,.64.64,0,0,1-.22-.4,61.12,61.12,0,0,0-4.5-11.17.31.31,0,0,1-.06-.22.46.46,0,0,1,.13-.22,30.51,30.51,0,0,1,6.65-6.16,4.11,4.11,0,0,1,1.84-.75,1.37,1.37,0,0,1,1.53.9,4.43,4.43,0,0,0,.06.51l0,.06"/></clipPath><clipPath id="clip-path-93"><path class="cls-2" d="M384.38,601.76q-.72.65-1.47,1.26l-.76.6c-.55.45-.24.24.13-.08a29.09,29.09,0,0,1-3.23,2.25,66.6,66.6,0,0,1-7.12,4.05c-1.2.58-2.42,1.12-3.64,1.66-.84.37,1-.39.14-.06l-.92.37-1.86.69a78.5,78.5,0,0,1-7.76,2.32,6.25,6.25,0,0,0-4.43,7.64,6.49,6.49,0,0,0,7.81,4.34,76.17,76.17,0,0,0,32.09-16.25,6.16,6.16,0,0,0,0-8.79,6.61,6.61,0,0,0-9,0"/></clipPath><clipPath id="clip-path-95"><path class="cls-2" d="M346.92,619.11a1,1,0,0,1-.29,1.12c-.58.56-1.45.5-2,1.1-3,3.18-.81,8.49,2.23,10.39a9.92,9.92,0,0,0,6.72,1.13c3.93-.63,7.3-3.25,10.31-5.74a.53.53,0,0,0,.15-.88,65.68,65.68,0,0,1-6-11,.36.36,0,0,0-.13-.19.47.47,0,0,0-.26,0,30.41,30.41,0,0,0-9.09,1,3.9,3.9,0,0,0-1.77.91,1.39,1.39,0,0,0-.25,1.78,4.38,4.38,0,0,1,.36.39l0,.06"/></clipPath><clipPath id="clip-path-97"><path class="cls-2" d="M405.47,572.4c-2,1.24-5.27,1.46-6.51.19s-1.07-3.29.55-3.85c1-.35,2.16-.06,3.21-.31.76-.18,1.42-.75,2.18-.86a2.23,2.23,0,0,1,2.31,2.26,3.18,3.18,0,0,1-1.74,2.57"/></clipPath><clipPath id="clip-path-99"><polygon class="cls-2" points="516.53 548 515.21 556 538.87 556 540.21 548 516.53 548"/></clipPath><clipPath id="clip-path-101"><path class="cls-2" d="M538.82,556H515.21l1.38-8h23.62Zm-22.94-.52h22.45l1.21-7H517.09Z"/></clipPath><clipPath id="clip-path-103"><polygon class="cls-2" points="515.33 573 514.21 581 534.08 581 535.21 573 515.33 573"/></clipPath><clipPath id="clip-path-105"><path class="cls-2" d="M534,581H514.21l1.16-8h19.84Zm-19.18-.52h18.68l1-7h-18.7Z"/></clipPath><clipPath id="clip-path-107"><path class="cls-2" d="M556.21,521.08c-5.61-.26-17.59-.18-23.72,4.83a24.94,24.94,0,0,0-8.59,15.89c-3,21.07-4.67,38.15-4.69,38.32l9.28.88c0-.17,1.62-17,4.64-37.85a15.62,15.62,0,0,1,5.25-10c2.55-2.07,9.55-2.92,15.89-2.78Z"/></clipPath><clipPath id="clip-path-109"><path class="cls-2" d="M572.18,556.47a13.36,13.36,0,0,0-4.62-6.17,12.23,12.23,0,0,0-7.37-2.3,15.54,15.54,0,0,0-7.87,2.1,17.59,17.59,0,0,0-6,5.8,20.55,20.55,0,0,0-3,8.35,17.32,17.32,0,0,0,.81,8.34,12.79,12.79,0,0,0,4.64,6.16,12.65,12.65,0,0,0,7.45,2.25,14.72,14.72,0,0,0,7.72-2.19,18.39,18.39,0,0,0,6-5.86,19.7,19.7,0,0,0,3-8.2,16.91,16.91,0,0,0-.86-8.28m-20.39,8.28a9.85,9.85,0,0,1,1.42-4,9,9,0,0,1,2.83-2.92,6.22,6.22,0,0,1,3.4-1,4.7,4.7,0,0,1,3,1,5.68,5.68,0,0,1,1.85,2.66,8.28,8.28,0,0,1,.32,3.78,10,10,0,0,1-1.39,4,8.74,8.74,0,0,1-2.81,2.89,6.21,6.21,0,0,1-3.39,1,4.78,4.78,0,0,1-3-1,5.35,5.35,0,0,1-1.87-2.63,8.25,8.25,0,0,1-.35-3.8"/></clipPath><clipPath id="clip-path-111"><path class="cls-2" d="M600.43,548a15.09,15.09,0,0,0-7.76,1.74,11.29,11.29,0,0,0-2.07,1.63l.41-3H578.59l-1.1,8.17h5.44l-2.18,16.28H575.3L574.21,581h19.38l1.1-8.15h-5.91l.67-5A29.42,29.42,0,0,1,591,561a5.78,5.78,0,0,1,2.66-3,13.15,13.15,0,0,1,6-1.08H602l1.19-8.86Z"/></clipPath><clipPath id="clip-path-113"><polygon class="cls-2" points="565.44 482 554.2 482 553.2 489.52 557.06 489.52 555.07 504.5 551.2 504.5 550.21 512 565.21 512 566.21 504.5 562.44 504.5 565.44 482"/></clipPath><clipPath id="clip-path-115"><path class="cls-2" d="M566.37,471.38a3.33,3.33,0,0,0-2.78-1.38,4,4,0,0,0-2.86,1.28,5.16,5.16,0,0,0-1.48,3,4.42,4.42,0,0,0,.78,3.28,3.29,3.29,0,0,0,2.74,1.42,4.09,4.09,0,0,0,2.88-1.26,5.22,5.22,0,0,0,1.51-3,4.37,4.37,0,0,0-.79-3.32"/></clipPath><clipPath id="clip-path-117"><path class="cls-2" d="M544.3,480.64a14.78,14.78,0,0,0,2.7-6.7c.7-4.7-.4-8.21-3.29-10.5S536.06,460,529.42,460H510.24l-1,6.74H516l-6,40.52-.75,6.74h11.91q11.36,0,17.66-4a16.09,16.09,0,0,0,7.44-11.73,12.42,12.42,0,0,0-1.24-8.12,11.43,11.43,0,0,0-6.3-5,13.47,13.47,0,0,0,5.62-4.44m-6.42,17.45a9.51,9.51,0,0,1-2.86,6,11.2,11.2,0,0,1-5.5,2.58,45.92,45.92,0,0,1-8.13.59h-3.25l2.68-18.06h5.24q6.74,0,9.61,2.21c1.91,1.46,2.65,3.7,2.21,6.68m.92-23.72q-1.21,8.13-11.53,8.14h-5.45l2.34-15.77h5.39c3.3,0,5.77.64,7.38,1.92s2.24,3.18,1.87,5.71"/></clipPath><clipPath id="clip-path-119"><path class="cls-2" d="M521.59,514H509.21l.8-7,6-39.68h-6.79l1.1-7.3H530c6.74,0,11.65,1.17,14.61,3.47s4.16,5.92,3.44,10.67a14.92,14.92,0,0,1-2.77,6.77,14.19,14.19,0,0,1-5.1,4.17,11.54,11.54,0,0,1,5.79,4.84,12.42,12.42,0,0,1,1.29,8.22A16.27,16.27,0,0,1,539.56,510C535.29,512.64,529.24,514,521.59,514ZM510,513.34h11.63c7.52,0,13.45-1.32,17.61-3.93a15.58,15.58,0,0,0,7.34-11.36,11.77,11.77,0,0,0-1.21-7.81,11.2,11.2,0,0,0-6.16-4.83l-.77-.28.75-.32a13.54,13.54,0,0,0,5.53-4.29,14.28,14.28,0,0,0,2.66-6.47c.67-4.51-.4-7.89-3.21-10.07s-7.61-3.32-14.18-3.32h-19l-.91,6h6.78l-6.11,40.41Zm11.9-6h-3.68L521,488.85h5.58c4.57,0,7.89.76,9.88,2.25s2.82,3.84,2.35,6.91a9.66,9.66,0,0,1-3,6.12,11.73,11.73,0,0,1-5.71,2.63A49.38,49.38,0,0,1,521.86,507.34Zm-2.89-.65h2.89a46.81,46.81,0,0,0,8.12-.58,11.13,11.13,0,0,0,5.39-2.47,9.11,9.11,0,0,0,2.77-5.74c.43-2.84-.25-4.9-2.1-6.29s-5-2.11-9.47-2.11h-5Zm8.82-23.81H521.9l2.45-16.22h5.72c3.4,0,6,.65,7.65,1.95s2.41,3.34,2,6C538.9,480.08,534.88,482.88,527.79,482.88Zm-5.12-.65h5.12c6.8,0,10.48-2.54,11.28-7.76.35-2.4-.22-4.15-1.76-5.34s-4-1.83-7.24-1.83h-5.14Z"/></clipPath><clipPath id="clip-path-121"><path class="cls-2" d="M521.59,514H509.21l.8-7,6-39.68h-6.79l1.1-7.3H530c6.74,0,11.65,1.17,14.61,3.47s4.16,5.92,3.44,10.67a14.87,14.87,0,0,1-2.77,6.77,14.19,14.19,0,0,1-5.1,4.17,11.54,11.54,0,0,1,5.79,4.84,12.42,12.42,0,0,1,1.29,8.22A16.27,16.27,0,0,1,539.56,510C535.29,512.64,529.24,514,521.59,514ZM510,513.34h11.63c7.52,0,13.45-1.32,17.61-3.93a15.58,15.58,0,0,0,7.34-11.36,11.77,11.77,0,0,0-1.21-7.81,11.2,11.2,0,0,0-6.16-4.83l-.77-.28.75-.32a13.54,13.54,0,0,0,5.53-4.29,14.39,14.39,0,0,0,2.66-6.47c.67-4.51-.4-7.89-3.21-10.07s-7.61-3.32-14.18-3.32h-19l-.91,6h6.78l-6.11,40.41Zm11.9-6h-3.67l2.8-18.49h5.58c4.57,0,7.89.76,9.88,2.25s2.82,3.84,2.35,6.91a9.62,9.62,0,0,1-3,6.12,11.73,11.73,0,0,1-5.71,2.63A49.38,49.38,0,0,1,521.86,507.34Zm-2.89-.65h2.89a46.81,46.81,0,0,0,8.12-.58,11.13,11.13,0,0,0,5.39-2.47,9.11,9.11,0,0,0,2.77-5.74c.43-2.84-.25-4.9-2.1-6.29s-5-2.11-9.47-2.11h-5Zm8.82-23.81H521.9l2.45-16.22h5.72c3.4,0,6,.65,7.65,1.95s2.41,3.34,2,6C538.9,480.08,534.88,482.88,527.79,482.88Zm-5.12-.65h5.12c6.8,0,10.48-2.54,11.28-7.76.35-2.39-.22-4.15-1.76-5.34s-4-1.83-7.24-1.83h-5.14Z"/></clipPath><clipPath id="clip-path-123"><path class="cls-2" d="M521.73,513H509.21l.82-7.43L515.87,466h-6.65l1.18-8h19.54c6.69,0,11.6,1.2,14.56,3.57s4.23,6.14,3.49,11a15.2,15.2,0,0,1-2.78,6.95,14,14,0,0,1-4.52,4,11.54,11.54,0,0,1,5.23,4.74,13,13,0,0,1,1.3,8.48,16.64,16.64,0,0,1-7.66,12.13C535.32,511.61,529.32,513,521.73,513Zm-11.79-.67h11.79c7.46,0,13.34-1.34,17.48-4a20.69,20.69,0,0,0,1.75-1.28,20.69,20.69,0,0,1-1.75,1.28c-4.14,2.66-10,4-17.48,4H509.94l.13-1.09Zm.74-.66h11.05c7.33,0,13.09-1.31,17.11-3.9a15.38,15.38,0,0,0,7.07-11.2,11.84,11.84,0,0,0-1.14-7.66,10.83,10.83,0,0,0-5.88-4.7l-1.52-.56,1.48-.66a13,13,0,0,0,5.29-4.2,14.31,14.31,0,0,0,2.55-6.37c.65-4.41-.37-7.72-3-9.83s-7.34-3.27-13.73-3.27h-18.4l-.79,5.38h6.66l-6.07,41Zm28.44-28.08h0a13.74,13.74,0,0,1,3.5,1.89,12.57,12.57,0,0,0-2.81-1.61l-.65-.28.63-.32c.17-.08.33-.16.5-.26C539.91,483.22,539.52,483.41,539.12,483.59Zm8-9.75a14.55,14.55,0,0,1-2.12,4.92A14.55,14.55,0,0,0,547.09,473.84ZM510,465.36h0Zm20.68-6.69c6.17.07,10.68,1.22,13.43,3.41a9.68,9.68,0,0,1,1.18,1.12,9.68,9.68,0,0,0-1.18-1.12C541.34,459.89,536.83,458.74,530.66,458.67ZM522,506.3h-4L520.86,487h5.76c4.57,0,7.91.78,9.91,2.33s2.92,4.05,2.44,7.26a10.16,10.16,0,0,1-3,6.36,11.83,11.83,0,0,1-5.77,2.72A46.13,46.13,0,0,1,522,506.3Zm-3.23-.66H522c1.24,0,2.42,0,3.52-.09-1.1.06-2.28.09-3.52.09Zm.76-.66H522a44.26,44.26,0,0,0,7.9-.58A10.38,10.38,0,0,0,535,502a8.89,8.89,0,0,0,2.62-5.56c.4-2.74-.23-4.71-1.93-6s-4.84-2-9.11-2H522ZM538,498.14a8.61,8.61,0,0,1-2.51,4.35c-.22.2-.46.39-.7.57.24-.18.48-.37.7-.57A8.61,8.61,0,0,0,538,498.14Zm-3.81-9.34a7.85,7.85,0,0,1,2,1.08l.29.23-.29-.23A7.85,7.85,0,0,0,534.18,488.8Zm-6.36-7.11h-6.17l2.51-17h5.91c3.4,0,6,.68,7.71,2s2.51,3.54,2.1,6.3C539,478.78,535,481.69,527.82,481.69Zm-5.4-.66h0Zm.76-.66h4.64c6.48,0,10-2.46,10.75-7.52.34-2.29-.19-4-1.61-5.07s-3.79-1.77-6.89-1.77H525.3Zm13.27-13.72a6.22,6.22,0,0,1,.93.61l0,0,0,0A6.22,6.22,0,0,0,536.45,466.65Z"/></clipPath><clipPath id="clip-path-125"><path class="cls-2" d="M504.21,514c-2.32,0-4.66,0-7-.21l.52-6.79c4.08.27,8.13.19,12.41.11,2,0,4-.07,6.07-.08v6.82c-2,0-4,0-5.91.07s-4,.08-6.09.08"/></clipPath><clipPath id="clip-path-127"><path class="cls-2" d="M503.69,513c-2.73,0-5-.07-7.15-.22l-.33,0,.58-7.76.33,0c4.15.29,8.24.21,12.58.12,1.9,0,4.06-.08,6.17-.08h.33v7.78h-.34c-2,0-4,0-6,.07S505.77,513,503.69,513Zm-6.76-.84c2,.14,4.19.19,6.76.19,2.07,0,4.15,0,6.17-.07,1.86,0,3.78-.08,5.67-.08v-6.5c-2,0-4,.05-5.81.08-4.23.08-8.24.16-12.31-.09Z"/></clipPath><clipPath id="clip-path-129"><path class="cls-2" d="M503.69,513c-2.73,0-5-.07-7.15-.22l-.33,0,.58-7.76.33,0c4.15.29,8.24.21,12.58.12,1.9,0,4.06-.08,6.17-.08h.33v7.78h-.34c-2,0-4,0-6,.07S505.77,513,503.69,513Zm-6.76-.84c2,.14,4.19.19,6.76.19,2.07,0,4.15,0,6.17-.07,1.86,0,3.78-.08,5.67-.08v-6.5c-2,0-4,.05-5.81.08-4.24.08-8.24.16-12.31-.09Z"/></clipPath><clipPath id="clip-path-131"><path class="cls-2" d="M504.16,515c-2.77,0-5.08-.08-7.28-.23l-.67,0,.64-8.73.68.05c4.18.29,8.31.21,12.7.12h.11c1.91,0,4.08-.09,6.19-.09h.68v8.75h-.68c-2,0-4.08,0-6.09.09S506.26,515,504.16,515Zm0-.66c2.09,0,4.18-.05,6.2-.09l1.18,0h-1.1C508.33,514.29,506.25,514.34,504.16,514.34Zm-7-.21,1,.06-.91-.06Zm-.22,0,.55-7.4.26,0-.26,0Zm.73-.62c2,.12,4,.18,6.5.18,2.08,0,4.16,0,6.17-.08h.21c1.74,0,3.54-.08,5.31-.09v-6.08c-1.89,0-3.78,0-5.49.08h-.12c-4.17.09-8.12.17-12.13-.08Zm18.87-6.74v0Zm-6.3.09.13.33v-.34l1.51,0-1.5,0-.13-.33v.33c-4.23.09-8.24.17-12.28-.08C502,507,506,506.92,510.23,506.84Zm6.23-.09h0Z"/></clipPath><clipPath id="clip-path-133"><path class="cls-2" d="M649.93,443.63c-7.86-5.16-22.38-2.83-29.32,7.9-4.36,6.74-5.39,13-6.26,19.59-1,.08-2,.15-2.78.18-4.66.21-9.7.13-14.57.06l-3.53,0-1.26,8.93,4.67.06c5,.07,10.17.15,15.09-.08l1.08-.05c-.39,2.53-.78,5.05-1.16,7.58-.64,4.22-1.31,8.58-2,12.85l-.86,5.17,5.2,0c4.55,0,10.89.07,17.4.1,5.62,0,11.36,0,16.17.08l1.28-8.93c-5.06,0-11.3-.07-17.4-.1-4.31,0-8.52,0-12.2-.06.4-2.62.81-5.23,1.19-7.8.51-3.31,1-6.63,1.54-9.94,10.59-1.75,23.16-6.06,29.83-16.4a19.3,19.3,0,0,0,2.93-7l.19-1.3a11.47,11.47,0,0,0-5.22-10.87m-5.34,14.26c-4.47,6.92-13.27,10.29-21.09,11.93.72-4.84,1.71-9,4.55-13.4a14.79,14.79,0,0,1,12.23-6.49,8.84,8.84,0,0,1,4.8,1.19c.67.44,2.73,1.79-.49,6.77"/></clipPath><clipPath id="clip-path-135"><path class="cls-2" d="M686.11,481.27a14.56,14.56,0,0,0-4.93-6.75,12.93,12.93,0,0,0-7.89-2.52,16.2,16.2,0,0,0-8.39,2.3,18.81,18.81,0,0,0-6.35,6.32,22.74,22.74,0,0,0-3.16,9.08,19.43,19.43,0,0,0,.86,9.1,14,14,0,0,0,5,6.74,13.34,13.34,0,0,0,8,2.46,15.62,15.62,0,0,0,8.25-2.38,20,20,0,0,0,6.4-6.39,21.78,21.78,0,0,0,3.2-8.93,19,19,0,0,0-.92-9m-8.42,8.43a10.82,10.82,0,0,1-1.44,4.2,9.07,9.07,0,0,1-2.87,3,6.36,6.36,0,0,1-3.46,1.07,4.8,4.8,0,0,1-3-1,5.67,5.67,0,0,1-1.88-2.73,8.8,8.8,0,0,1-.36-4,11,11,0,0,1,1.46-4.16,9.47,9.47,0,0,1,2.91-3.08,6.23,6.23,0,0,1,3.45-1.1,4.64,4.64,0,0,1,3,1,5.82,5.82,0,0,1,1.87,2.76,9,9,0,0,1,.33,4"/></clipPath><clipPath id="clip-path-137"><path class="cls-2" d="M745.77,476.15a12.39,12.39,0,0,0-7.4-3.13,14.16,14.16,0,0,0-8.16,2.28,17.93,17.93,0,0,0-6.15,6.21,20.05,20.05,0,0,0-2.77,8.59,20.3,20.3,0,0,0,1.3,9.17,16,16,0,0,0,5,7.11,12.15,12.15,0,0,0,7.53,2.62,15.87,15.87,0,0,0,8.36-2.52,21.52,21.52,0,0,0,6.74-6.43c1.24-1.84,2.53-3.9,2.79-6a21.07,21.07,0,0,0-.2-6.46l-6.79,4a9.35,9.35,0,0,1-1.93,4.35,11.32,11.32,0,0,1-3.62,3.44,6.48,6.48,0,0,1-5.42.92,6.71,6.71,0,0,1-3.65-2.86l20.22-12.19-.47-1.12a21.27,21.27,0,0,0-5.41-7.94M730,486.4a8.21,8.21,0,0,1,3.38-4.25,6.17,6.17,0,0,1,4.86-.82,6.42,6.42,0,0,1,3.27,2l-12.19,7.34a11,11,0,0,1,.68-4.31"/></clipPath><clipPath id="clip-path-139"><path class="cls-2" d="M637.77,602.15a12.39,12.39,0,0,0-7.4-3.13,14.16,14.16,0,0,0-8.16,2.28,17.93,17.93,0,0,0-6.15,6.21,20.37,20.37,0,0,0-1.47,17.76,16,16,0,0,0,5,7.11,12.15,12.15,0,0,0,7.53,2.62,15.87,15.87,0,0,0,8.36-2.52,21.52,21.52,0,0,0,6.74-6.43c1.24-1.85,2.53-3.9,2.79-6a21.07,21.07,0,0,0-.2-6.46l-6.79,4a9.45,9.45,0,0,1-1.93,4.35,11.46,11.46,0,0,1-3.62,3.45,6.51,6.51,0,0,1-5.42.91,6.65,6.65,0,0,1-3.64-2.86l20.21-12.19-.48-1.12a21.14,21.14,0,0,0-5.4-7.94M622,612.4a8.16,8.16,0,0,1,3.38-4.25,6.18,6.18,0,0,1,4.86-.82,6.46,6.46,0,0,1,3.27,2l-12.19,7.34a11,11,0,0,1,.68-4.31"/></clipPath><clipPath id="clip-path-141"><polygon class="cls-2" points="711.67 473 702.8 492.14 699.06 473 690.21 473 697.02 507 704.46 507 720.21 473 711.67 473"/></clipPath><clipPath id="clip-path-143"><path class="cls-2" d="M592.87,516.92c.23-.79.37-2.32.55-3.14l.26-1.17c.09-.47.18-.94.23-1.43l2.12-15.9h5.05l.95-7H590.16l-.23,1.76a9.62,9.62,0,0,0-1.52-1,9,9,0,0,0-4.32-1.05,11.06,11.06,0,0,0-6.1,1.87,15.24,15.24,0,0,0-4.72,4.89,17,17,0,0,0-2.36,6.64,14.29,14.29,0,0,0,.58,6.57,10.65,10.65,0,0,0,3.5,5,9.16,9.16,0,0,0,5.75,1.89,11.43,11.43,0,0,0,4.75-1.12,13.42,13.42,0,0,0,1.25-.65c-.28.94-.51,2.93-1,4.07.1-.24-4.39-.94-4.75-1a14,14,0,0,0-12.48,4.14c-.38.42-.77.88-1.19,1.43a11.48,11.48,0,0,0-.67,1c-.22.4-.4.78-.56,1.14a11.62,11.62,0,0,0-.93,4.74,10,10,0,0,0,1.37,5,8.62,8.62,0,0,0,3.68,3.3A10.94,10.94,0,0,0,575,538a13.54,13.54,0,0,0,9.19-3.91,19.71,19.71,0,0,0,4.16-5.81,26.56,26.56,0,0,0,1.2-2.94c1,0,1.91,0,2.84-.05A46.15,46.15,0,0,0,608.21,521l-3.54-6.89c-3.09,1.8-6.65,2.14-11.8,2.81m-10.63,7.72a11.81,11.81,0,0,1-2.61,3.49,8,8,0,0,1-1.61,1.14,5.91,5.91,0,0,1-1.68.62,4.52,4.52,0,0,1-3-.31,1.38,1.38,0,0,1-.5-.38,1.88,1.88,0,0,1-.11-.67,2.93,2.93,0,0,1,.23-1l.26-.41a9.89,9.89,0,0,1,.68-.77,6.75,6.75,0,0,1,5.29-2.07,17.32,17.32,0,0,1,1.81.11c.44,0,.89.1,1.34.16,0,0,0,.08-.07.13m6.25-23.37a8.66,8.66,0,0,1-1.17,3.3A7.35,7.35,0,0,1,585,507a5.36,5.36,0,0,1-2.93.87,3.88,3.88,0,0,1-2.45-.77,4.18,4.18,0,0,1-1.43-2.12,7.64,7.64,0,0,1-.22-3.24,8.51,8.51,0,0,1,1.15-3.3,7.52,7.52,0,0,1,2.3-2.42,5.21,5.21,0,0,1,2.81-.85,3.8,3.8,0,0,1,2.46.82,4.84,4.84,0,0,1,1.54,2.25,6.54,6.54,0,0,1,.3,3"/></clipPath><clipPath id="clip-path-145"><path class="cls-2" d="M611.21,625.85h-4.46c.8-6.15,5.6-24.85-5.14-24.85a15,15,0,0,0-7.91,2.64l.29-2.24H581.76l-1.07,8.17h4.43L583,625.85h-4.73L577.21,634h17.17l1-8.15h-4.62l1.75-13.47c3.68-2.66,5.71-3.23,6.78-3.23.64,0,1,.16,1.2.47a6.29,6.29,0,0,1,.08,3.17L597.85,634h12.29Z"/></clipPath><clipPath id="clip-path-147"><path class="cls-2" d="M571.63,601.76a20.1,20.1,0,0,0-7.07-9.3A18.9,18.9,0,0,0,553.32,589a24.08,24.08,0,0,0-12.08,3.19,26.7,26.7,0,0,0-9.18,8.8,30.82,30.82,0,0,0-4.58,12.7,25.93,25.93,0,0,0,1.23,12.64,19.19,19.19,0,0,0,7.09,9.28A19.42,19.42,0,0,0,547.17,639,23,23,0,0,0,559,635.69a28.31,28.31,0,0,0,9.27-8.9,29.68,29.68,0,0,0,4.64-12.47,25.28,25.28,0,0,0-1.31-12.56m-9.34,12.41a15.76,15.76,0,0,1-2.48,6.62,14.93,14.93,0,0,1-4.92,4.74,12.24,12.24,0,0,1-6.29,1.75,10.07,10.07,0,0,1-9.81-6.72,13.74,13.74,0,0,1-.66-6.72,16.14,16.14,0,0,1,2.44-6.75,14.19,14.19,0,0,1,4.87-4.67,12.71,12.71,0,0,1,6.42-1.7,10,10,0,0,1,6,1.84,10.68,10.68,0,0,1,3.75,4.94,13.57,13.57,0,0,1,.7,6.67"/></clipPath><clipPath id="clip-path-149"><polygon class="cls-2" points="708.62 523 707.27 532.54 712.31 532.69 706.21 577.88 714.91 578 722.21 523.19 708.62 523"/></clipPath><clipPath id="clip-path-151"><polygon class="cls-2" points="649.29 528 635.96 528 634.77 537.03 639.36 537.03 636.98 555.01 632.39 555.01 631.21 564 649.02 564 650.21 555.01 645.73 555.01 649.29 528"/></clipPath><clipPath id="clip-path-153"><path class="cls-2" d="M649.27,515.53a3.75,3.75,0,0,0-3.13-1.53,4.43,4.43,0,0,0-3.21,1.42,5.62,5.62,0,0,0-1.67,3.37,4.85,4.85,0,0,0,.87,3.63,3.73,3.73,0,0,0,3.08,1.58,4.54,4.54,0,0,0,3.24-1.41,5.58,5.58,0,0,0,1.7-3.38,4.83,4.83,0,0,0-.88-3.68"/></clipPath><clipPath id="clip-path-155"><path class="cls-2" d="M752.24,553.39a13.83,13.83,0,0,0-4.51-7,11.84,11.84,0,0,0-7.55-2.43,14.32,14.32,0,0,0-7.7,2.3,18.69,18.69,0,0,0-6.05,6.36,23.16,23.16,0,0,0-3,9.13,20.13,20.13,0,0,0,.86,9.31,12.89,12.89,0,0,0,12.68,8.9,16.83,16.83,0,0,0,8.25-2.18,13,13,0,0,0,4.93-4,23.55,23.55,0,0,0,2.72-6l-7.22-.12a8.37,8.37,0,0,1-3.47,3,9.19,9.19,0,0,1-4.44,1.15,5.75,5.75,0,0,1-4.75-2.16,8.11,8.11,0,0,1-1.64-4.65h21.6l.13-1.28a26.46,26.46,0,0,0-.8-10.3m-17.2.68a6.62,6.62,0,0,1,4.61-2A5.37,5.37,0,0,1,743.9,554a7.62,7.62,0,0,1,1.71,3.68h-13a10.91,10.91,0,0,1,2.46-3.58"/></clipPath><clipPath id="clip-path-157"><path class="cls-2" d="M669.21,548.93h6.85l1.15-8h-6.86l1.7-11.94h-8.62l-1.7,11.94h-5.36l-1.16,8h5.38l-2.76,19.26c-.55,3.87-.24,6.56,1,8.25s3.43,2.56,6.6,2.56a20,20,0,0,0,5.64-.75l.55-.15,1.1-8.49-1.26.42a11.08,11.08,0,0,1-3.52.6c-.68,0-1.12-.15-1.3-.46-.08-.15-.32-.82,0-3.26Z"/></clipPath><clipPath id="clip-path-159"><path class="cls-2" d="M695.21,548.93h6.85l1.15-8h-6.86L698.06,529h-8.62l-1.71,11.94h-5.36l-1.16,8h5.38l-2.76,19.26c-.55,3.87-.23,6.56,1,8.25s3.43,2.56,6.6,2.56a20,20,0,0,0,5.64-.75l.55-.15,1.1-8.49-1.25.42a11.17,11.17,0,0,1-3.52.6c-.68,0-1.13-.15-1.31-.46-.08-.15-.32-.82,0-3.26Z"/></clipPath><clipPath id="clip-path-161"><polygon class="cls-2" points="614.26 571 612.21 580 646.99 580 648.21 571 614.26 571"/></clipPath><clipPath id="clip-path-163"><path class="cls-2" d="M646.94,581H612.21l2.16-10h33.84Zm-33.87-.68h33.25l1.1-8.65H614.94Z"/></clipPath><clipPath id="clip-path-165"><polygon class="cls-2" points="610.46 577.83 610.21 580 619.75 580 628.21 523 618.59 523 610.46 577.83"/></clipPath><clipPath id="clip-path-167"><path class="cls-2" d="M619.55,581H609.21l.3-2.58L617.77,523h10.44Zm-9.54-.7h8.92l8.44-56.6h-9l-8.18,54.81Z"/></clipPath><clipPath id="clip-path-169"><path class="cls-2" d="M731.31,586a9.77,9.77,0,0,1-2.5,4c-1.08,1-2.06,2.27-3.2,3.23a23.87,23.87,0,0,1-9.84,5c-11.67,2.74-21.69,1.84-33.16-1.4-5.47-1.55-11.13-2.95-16.75-2.22-6.49.84-12.57,5.17-14.19,11.76-.06.27-.12.55-.18.85l-.12.71a9.62,9.62,0,0,0,.13,4c.75,2.6,2.77,4.12,4.85,5.38a26.11,26.11,0,0,0,4.54,2c.84.31,1.71.63,2.54,1,1.55.67,2.54,1.21,2.34,2.6a4.21,4.21,0,0,1-1.32,2.7,4.3,4.3,0,0,1-2.88.9c-2,0-3.34-1.12-4.36-3.53l.62-3.51h-7.51l-2.11,14h7.5l.13-1a11,11,0,0,0,5.59,1.46,12.51,12.51,0,0,0,8.4-2.92,12,12,0,0,0,4.11-7.76,13.91,13.91,0,0,0,0-4.33,7.63,7.63,0,0,0-2.4-4.19,13.28,13.28,0,0,0-5.59-2.89c-3.43-1-6.15-3.89-2.63-7,6.52-5.7,17.11.83,24.17,2.24,13.1,2.62,27.66,1.64,39.79-4.29,6.47-3.15,13.54-9.37,15-16.9Z"/></clipPath></defs><g class="cls-3"><rect class="cls-4" x="-66.79" width="1280" height="1085"/></g><g class="cls-3"><rect class="cls-5" x="-71.79" y="-5" width="1290" height="1095"/><rect class="cls-4" x="-66.79" width="1280" height="1085"/></g><g class="cls-6"><g class="cls-3"><g class="cls-7"><g class="cls-8"><g class="cls-3"><rect class="cls-9" x="-502.34" y="-560.4" width="2236.43" height="2187.35"/></g></g></g></g></g><g class="cls-6"><g class="cls-3"><g class="cls-10"><g class="cls-11"><g class="cls-3"><rect class="cls-12" x="-378.18" y="-436.23" width="1988.11" height="1939.02"/></g></g></g></g></g><g class="cls-6"><g class="cls-3"><g class="cls-13"><g class="cls-14"><g class="cls-3"><rect class="cls-15" x="-254.01" y="-312.07" width="1739.77" height="1690.7"/></g></g></g></g></g><g class="cls-16"><g class="cls-17"><g class="cls-18"><g class="cls-3"><rect class="cls-9" x="-130.55" y="-187.91" width="1492.12" height="1442.38"/></g></g></g></g><g class="cls-19"><g class="cls-3"><g class="cls-20"><g class="cls-21"><g class="cls-22"><rect class="cls-12" x="-5" y="-62.84" width="1242.93" height="1194.01"/></g></g></g></g></g><g class="cls-23"><g class="cls-3"><rect class="cls-15" x="119.21" y="60" width="994" height="946"/></g></g><g class="cls-24"><g class="cls-3"><rect class="cls-9" x="242.21" y="185" width="747" height="697"/></g></g><g class="cls-25"><g class="cls-3"><rect class="cls-15" x="379.21" y="317" width="498" height="449"/></g></g><g class="cls-26"><g class="cls-3"><rect class="cls-27" x="865.21" y="567" width="28" height="71"/></g></g><g class="cls-28"><g class="cls-3"><rect class="cls-29" x="863.21" y="617" width="36" height="35"/></g></g><g class="cls-30"><g class="cls-3"><rect class="cls-27" x="819.21" y="476" width="85" height="110"/></g></g><g class="cls-31"><g class="cls-3"><rect class="cls-27" x="810.21" y="380" width="125" height="123"/></g></g><g class="cls-32"><g class="cls-3"><rect class="cls-33" x="829.21" y="423" width="82" height="67"/></g></g><g class="cls-34"><g class="cls-3"><rect class="cls-29" x="849.21" y="419" width="46" height="27"/></g></g><g class="cls-35"><g class="cls-3"><rect class="cls-36" x="862.21" y="451.43" width="18" height="16.13"/></g></g><g class="cls-37"><g class="cls-3"><rect class="cls-29" x="849.21" y="446" width="18" height="20"/></g></g><g class="cls-38"><g class="cls-3"><rect class="cls-29" x="875.21" y="448" width="18" height="20"/></g></g><g class="cls-39"><g class="cls-3"><rect class="cls-27" x="820.21" y="554" width="39" height="83"/></g></g><g class="cls-40"><g class="cls-3"><rect class="cls-29" x="826.21" y="613" width="35" height="37"/></g></g><g class="cls-41"><g class="cls-3"><rect class="cls-27" x="884.21" y="485" width="60" height="61"/></g></g><g class="cls-42"><g class="cls-3"><rect class="cls-43" x="922.21" y="518" width="44" height="37"/></g></g><g class="cls-44"><g class="cls-3"><rect class="cls-27" x="798.21" y="477" width="62" height="60"/></g></g><g class="cls-45"><g class="cls-3"><rect class="cls-43" x="776.21" y="509" width="44" height="36"/></g></g><g class="cls-46"><g class="cls-3"><rect class="cls-29" x="861.21" y="460.65" width="20" height="15.69"/></g></g><g class="cls-47"><g class="cls-3"><rect class="cls-12" x="424.21" y="671" width="30" height="25"/></g></g><g class="cls-48"><g class="cls-3"><rect class="cls-12" x="423.21" y="651" width="27" height="39"/></g></g><g class="cls-49"><g class="cls-3"><rect class="cls-12" x="390.21" y="674" width="30" height="24"/></g></g><g class="cls-50"><g class="cls-3"><rect class="cls-12" x="398.21" y="660" width="21" height="32"/></g></g><g class="cls-51"><g class="cls-3"><rect class="cls-12" x="382.21" y="583" width="66" height="87"/></g></g><g class="cls-52"><g class="cls-3"><rect class="cls-43" x="383.21" y="573" width="59" height="72"/></g></g><g class="cls-53"><g class="cls-3"><rect class="cls-43" x="331.21" y="495" width="130" height="119"/></g></g><g class="cls-54"><g class="cls-3"><rect class="cls-12" x="346.21" y="511" width="103" height="94"/></g></g><g class="cls-55"><g class="cls-3"><rect class="cls-56" x="364.21" y="532" width="71" height="57"/></g></g><g class="cls-57"><g class="cls-3"><rect class="cls-43" x="392.21" y="554.07" width="19" height="16.86"/></g></g><g class="cls-58"><g class="cls-3"><rect class="cls-29" x="380.21" y="553" width="18" height="19"/></g></g><g class="cls-59"><g class="cls-3"><rect class="cls-29" x="403.21" y="549" width="18" height="19"/></g></g><g class="cls-60"><g class="cls-3"><rect class="cls-43" x="419.21" y="576" width="53" height="35"/></g></g><g class="cls-61"><g class="cls-3"><rect class="cls-62" x="451.21" y="569" width="30" height="29"/></g></g><g class="cls-63"><g class="cls-3"><rect class="cls-43" x="348.21" y="595" width="52" height="37"/></g></g><g class="cls-64"><g class="cls-3"><rect class="cls-62" x="338.21" y="610" width="31" height="28"/></g></g><g class="cls-65"><g class="cls-3"><rect class="cls-29" x="393.21" y="562.56" width="19" height="15.88"/></g></g><g class="cls-66"><g class="cls-3"><rect class="cls-67" x="510.21" y="543" width="35" height="18"/></g></g><g class="cls-68"><g class="cls-3"><rect class="cls-67" x="510.21" y="543" width="35" height="18"/></g></g><g class="cls-69"><g class="cls-3"><rect class="cls-67" x="509.21" y="568" width="31" height="18"/></g></g><g class="cls-70"><g class="cls-3"><rect class="cls-67" x="509.21" y="568" width="31" height="18"/></g></g><g class="cls-71"><g class="cls-3"><rect class="cls-67" x="514.21" y="516" width="47" height="70"/></g></g><g class="cls-72"><g class="cls-3"><rect class="cls-67" x="538.21" y="543" width="40" height="43"/></g></g><g class="cls-73"><g class="cls-3"><rect class="cls-67" x="569.21" y="543" width="39" height="43"/></g></g><g class="cls-74"><g class="cls-3"><rect class="cls-67" x="545.21" y="477" width="26" height="40"/></g></g><g class="cls-75"><g class="cls-3"><rect class="cls-67" x="554.21" y="465" width="18" height="19"/></g></g><g class="cls-76"><g class="cls-3"><rect class="cls-67" x="504.21" y="455" width="48" height="64"/></g></g><g class="cls-77"><g class="cls-3"><rect class="cls-67" x="504.21" y="455" width="49" height="64"/></g></g><g class="cls-78"><g class="cls-3"><rect class="cls-67" x="504.21" y="455" width="49" height="64"/></g></g><g class="cls-79"><g class="cls-3"><rect class="cls-67" x="504.21" y="453" width="49" height="65"/></g></g><g class="cls-80"><g class="cls-3"><rect class="cls-67" x="492.21" y="502" width="29" height="17"/></g></g><g class="cls-81"><g class="cls-3"><rect class="cls-67" x="491.21" y="500" width="30" height="18"/></g></g><g class="cls-82"><g class="cls-3"><rect class="cls-67" x="491.21" y="500" width="30" height="18"/></g></g><g class="cls-83"><g class="cls-3"><rect class="cls-67" x="491.21" y="501" width="31" height="19"/></g></g><g class="cls-84"><g class="cls-3"><rect class="cls-67" x="587.21" y="436" width="73" height="75"/></g></g><g class="cls-85"><g class="cls-3"><rect class="cls-67" x="650.21" y="467" width="42" height="46"/></g></g><g class="cls-86"><g class="cls-3"><rect class="cls-67" x="716.21" y="468" width="42" height="46"/></g></g><g class="cls-87"><g class="cls-3"><rect class="cls-67" x="608.21" y="594" width="42" height="46"/></g></g><g class="cls-88"><g class="cls-3"><rect class="cls-67" x="685.21" y="468" width="40" height="44"/></g></g><g class="cls-89"><g class="cls-3"><rect class="cls-67" x="560.21" y="483" width="53" height="60"/></g></g><g class="cls-90"><g class="cls-3"><rect class="cls-67" x="572.21" y="596" width="44" height="43"/></g></g><g class="cls-91"><g class="cls-3"><rect class="cls-67" x="522.21" y="584" width="56" height="60"/></g></g><g class="cls-92"><g class="cls-3"><rect class="cls-67" x="701.21" y="518" width="26" height="65"/></g></g><g class="cls-93"><g class="cls-3"><rect class="cls-67" x="626.21" y="523" width="29" height="46"/></g></g><g class="cls-94"><g class="cls-3"><rect class="cls-67" x="636.21" y="509" width="19" height="20"/></g></g><g class="cls-95"><g class="cls-3"><rect class="cls-67" x="718.21" y="539" width="40" height="46"/></g></g><g class="cls-96"><g class="cls-3"><rect class="cls-67" x="650.21" y="524" width="32" height="60"/></g></g><g class="cls-97"><g class="cls-3"><rect class="cls-67" x="676.21" y="524" width="32" height="60"/></g></g><g class="cls-98"><g class="cls-3"><rect class="cls-67" x="607.21" y="566" width="46" height="19"/></g></g><g class="cls-99"><g class="cls-3"><rect class="cls-67" x="607.21" y="566" width="46" height="20"/></g></g><g class="cls-100"><g class="cls-3"><rect class="cls-67" x="605.21" y="518" width="28" height="67"/></g></g><g class="cls-101"><g class="cls-3"><rect class="cls-67" x="604.21" y="518" width="29" height="68"/></g></g><g class="cls-102"><g class="cls-3"><rect class="cls-67" x="643.21" y="581" width="104" height="58"/></g></g><rect class="cls-1" x="-198.79" y="-43" width="1629" height="1153"/></svg>