<?xml version="1.0" encoding="UTF-8"?>
<svg width="234px" height="320px" viewBox="0 0 234 320" version="1.1" xmlns="http://www.w3.org/2000/svg" xmlns:xlink="http://www.w3.org/1999/xlink">
    <title>kv-characters-hover</title>
    <defs>
        <polygon id="path-1" points="0.118665603 0.410001838 126.962205 0.410001838 126.962205 132.385679 0.118665603 132.385679"></polygon>
    </defs>
    <g id="R4" stroke="none" stroke-width="1" fill="none" fill-rule="evenodd">
        <g id="kv-characters-hover">
            <path d="M202.535687,185.368633 C201.907947,183.055696 201.266518,180.746709 200.632912,178.433772 C197.167631,165.77286 193.837285,153.076396 189.681686,140.636704 C188.089848,135.876517 187.022103,130.952391 186.185117,126.010487 C185.706,123.178077 185.445909,117.677198 182.657258,115.990393 C180.707548,114.807259 178.237656,114.939596 175.94181,115.111437 C168.48911,115.666463 161.034455,116.223464 153.58371,116.77849 L153.571977,116.695533 C153.329485,116.742937 153.085038,116.788366 152.842547,116.833795 L152.103339,116.8891 L152.113117,116.970083 C144.764063,118.344809 137.415008,119.719535 130.065954,121.092286 C127.803353,121.51695 125.38235,122.022596 123.790511,123.665947 C121.555288,125.98086 122.628899,131.303973 122.887035,134.128482 C123.352462,139.151368 123.293795,143.915505 123.063037,148.971969 C123.02197,149.844999 122.980903,150.720004 122.941791,151.59501 C122.374674,163.945818 122.265162,176.310452 122.108716,188.673112 C122.077426,191.070982 122.038315,193.470827 122.012892,195.868697 C121.917069,204.423207 122.192805,213.811243 128.64425,220.017262 C135.836859,226.934347 148.057253,227.396539 158.93221,226.821762 C161.290635,226.697325 163.690127,226.523509 166.083752,226.276612 L166.089618,226.312165 C166.334065,226.276612 166.576557,226.235133 166.821004,226.197604 C167.067406,226.171927 167.313809,226.148225 167.558256,226.120572 L167.554345,226.085019 C169.934281,225.709735 172.296616,225.261369 174.610063,224.777449 C185.275774,222.543519 196.97794,218.962516 202.193461,210.427758 C206.873154,202.76998 204.776777,193.618965 202.535687,185.368633" id="Fill-1" fill="#FEFEFE"></path>
            <path d="M158.643861,287 C154.643836,275.849864 148.890901,265.765752 142.801101,255.08984 L142.147542,253.943473 C140.350254,250.788514 138.30889,247.21028 137.134904,242.920711 C135.418302,236.667621 136.029501,230.488996 136.521688,225.521405 L138.155586,209 L157.504167,210.802834 L155.870269,227.328158 C155.49306,231.145463 155.101731,235.090142 155.916663,238.060898 C156.477433,240.100844 157.774466,242.379861 159.152185,244.794091 L159.803727,245.936539 C166.309062,257.339463 172.451308,268.109436 177,280.784142 L158.643861,287 Z" id="Fill-3" fill="#FEFEFE"></path>
            <path d="M155.409553,289.580495 C153.005551,293.456456 151.235939,299.042804 156.006625,302.717774 C158.316353,304.4991 161.804512,304.146382 164.785946,303.326656 C169.527171,302.02416 176.470101,299.915733 179.04694,295.50971 C180.820481,292.191399 179.789352,288.443521 178.612884,285.24541 C177.179125,281.343833 175.389872,277.840296 174.178051,273.834283 C174.020926,273.312103 173.844162,272.764306 173.417962,272.409617 C172.68537,271.802705 171.53247,271.985961 170.550443,272.22439 C165.754224,273.390922 161.073884,275.067812 156.627266,277.213679 C155.869142,277.578221 155.112981,277.962467 154.468771,278.492529 C154.248797,278.671844 154.03668,278.882687 153.958117,279.144763 C153.869735,279.446248 153.975794,279.755616 154.081853,280.043308 C155.128693,282.874907 157.314685,286.508496 155.409553,289.580495" id="Fill-5" fill="#160403"></path>
            <polygon id="Fill-7" fill="#FEFEFE" points="197.64143 280 175 217.233029 193.35857 211 216 273.766971"></polygon>
            <path d="M194.401596,279.593108 C192.000931,283.469313 190.238741,289.057114 195.014532,292.72454 C197.326792,294.501134 200.81581,294.144633 203.797978,293.321334 C208.536442,292.013508 215.479117,289.89814 218.052661,285.492109 C219.820744,282.173305 218.785433,278.427095 217.606711,275.232377 C216.166705,271.334506 214.373082,267.832528 213.155069,263.830268 C212.997906,263.310289 212.821098,262.762736 212.392829,262.408205 C211.660056,261.801563 210.506873,261.986707 209.524604,262.227 C204.729169,263.396952 200.049641,265.079005 195.605857,267.229826 C194.84951,267.596174 194.091199,267.980249 193.448795,268.510076 C193.226803,268.691281 193.014633,268.90203 192.938016,269.163989 C192.847647,269.46534 192.955696,269.77457 193.061781,270.060164 C194.114773,272.890503 196.303268,276.520506 194.401596,279.593108" id="Fill-9" fill="#160403"></path>
            <g id="Group-13" transform="translate(79.000000, 0.000000)">
                <mask id="mask-2" fill="white">
                    <use xlink:href="#path-1"></use>
                </mask>
                <g id="Clip-12"></g>
                <path d="M123.804164,57.7643311 C122.792133,54.4113834 121.524117,51.1372822 119.972336,47.9932777 C117.726023,43.4379207 114.91218,39.1703535 111.614148,35.3049035 C105.174852,27.7514081 99.3546797,20.5546931 95.4037891,11.2271513 C94.7608516,9.71132719 93.9770234,8.24675332 93.2666172,6.76246782 C92.7149609,5.60933765 92.2208516,4.40495725 91.5858516,3.30110615 C91.0361797,2.34509224 90.6174766,1.27080858 89.9031016,0.409410489 C89.4566172,1.70249321 88.8156641,2.85365222 88.2322578,4.06985959 C87.5516172,5.4851544 87.0376641,6.97338223 86.3193203,8.37093657 C81.5568203,17.6413147 72.7144453,22.527827 62.9572734,25.1475022 C54.3768359,27.4498202 45.4550859,28.3585262 36.9897422,31.1082981 C19.4061953,36.8207276 3.25338281,55.0993192 0.641945312,73.5671423 C-1.48530469,88.6051425 2.89421094,104.593243 13.3975078,115.598244 C22.0235859,124.639967 33.5786016,129.91677 45.5681953,131.677018 C50.0330391,132.331444 54.5554297,132.520676 59.0480547,132.293992 C62.7389922,132.108703 66.5112891,131.74798 70.2617578,131.241391 C70.2756484,131.23942 70.2915234,131.237449 70.3054141,131.235478 C70.3212891,131.233507 70.3371641,131.231535 70.3510547,131.229564 C74.1074766,130.780139 77.8519922,130.182877 81.4695078,129.435806 C85.8748203,128.529071 90.1987734,127.212335 94.3540547,125.459971 C105.508227,120.750863 115.346758,112.745972 121.399102,101.833615 C125.590102,94.2722352 127.251023,85.5439268 126.921617,76.943744 C126.675555,70.5138113 125.687336,64.0050322 123.804164,57.7643311" id="Fill-11" fill="#FEFEFE" mask="url(#mask-2)"></path>
            </g>
            <path d="M176.088658,65.6963927 C173.689351,62.5316149 170.424459,59.9136415 166.658963,57.9014801 C163.332244,56.1233824 159.608631,54.8212799 155.745408,54.0384449 C150.617712,53 144.815897,52.7186401 139.087876,53.2929814 C139.083888,53.2929814 139.079899,53.2929814 139.077904,53.2929814 C139.073915,53.2929814 139.069927,53.2949483 139.067932,53.2949483 C138.928322,53.3165845 138.790705,53.3401875 138.651095,53.3637906 C138.511484,53.3755921 138.373868,53.3854267 138.234258,53.4011621 C138.230269,53.4011621 138.22628,53.4011621 138.222291,53.403129 C138.218302,53.403129 138.216308,53.403129 138.212319,53.403129 C132.522192,54.2744756 126.979654,55.9896317 122.284751,58.2712614 C118.746621,59.9923184 115.47774,62.1775689 112.713452,64.7267001 C109.584181,67.610208 107.097119,70.9579096 105.585336,74.6183518 C101.143727,85.379383 102.081112,99.3543652 111.095964,107.749189 C116.576675,112.851385 123.978027,115.772265 131.690512,116.675082 C134.562501,117.011426 137.476372,117.080268 140.374288,116.911113 C144.851797,116.651479 149.536728,116.065336 153.926482,115.146783 C157.801672,114.334445 161.587112,113.083482 165.111281,111.356524 C170.895146,108.524156 175.913147,104.366083 179.235878,99.1281691 C185.811534,88.7605223 183.140984,75.0038685 176.088658,65.6963927" id="Fill-14" fill="#FAD9CB"></path>
            <path d="M134.072282,51.8564921 C132.929107,52.624387 131.814947,53.4374522 130.644692,54.1641047 C127.667795,56.0141226 123.398782,57.5067061 120.249732,55.6645439 C117.876338,54.2760485 117.624878,56.5954446 118.377323,58.2471061 C119.274841,60.2228153 121.011848,61.9844566 122.814621,63.1706676 C128.089473,66.6409242 134.728011,68.5655713 141.310454,67.8526663 C147.571803,67.1711841 157.989974,63.0508682 156.924172,55.3463879 C156.663041,53.4492358 155.512129,51.7720433 153.991764,50.5976158 C151.533261,48.6984997 148.018627,47.7420679 144.796074,48.0602238 C141.962316,48.3410652 139.116952,49.0166556 136.567536,50.3423054 C135.704836,50.7920444 134.880822,51.3144486 134.072282,51.8564921" id="Fill-16" fill="#231916"></path>
            <path d="M146.977025,88.3213938 C146.714559,86.1438114 144.273624,84.6843432 141.524291,85.0585062 C138.774958,85.4326692 136.76053,87.5010239 137.022996,89.6786062 C137.285462,91.8561886 139.728585,93.3156568 142.475731,92.9414938 C145.222877,92.5673308 147.239492,90.4989761 146.977025,88.3213938" id="Fill-18" fill="#F2A078"></path>
            <path d="M133.934779,87.9449889 C133.492891,84.9230436 130.924281,82.7214495 128.198942,83.0286043 C125.473603,83.3338513 123.623333,86.0333796 124.065221,89.0553249 C124.507109,92.0772703 127.075719,94.2769565 129.801058,93.9717095 C132.526397,93.6645547 134.376667,90.9669343 133.934779,87.9449889" id="Fill-20" fill="#231916"></path>
            <path d="M161.934719,82.9448478 C161.492834,79.9229887 158.924239,77.7214575 156.198917,78.0286035 C153.473594,78.3338418 151.623335,81.033293 152.06522,84.0551522 C152.509282,87.0770113 155.077877,89.2785425 157.8032,88.9713965 C160.528523,88.6661582 162.376605,85.966707 161.934719,82.9448478" id="Fill-22" fill="#231916"></path>
            <path d="M139.933796,100.931011 C144.288226,101.195521 148.506841,100.698891 152.620983,99.4501174 C155.048933,98.7141688 154.004204,95.3637136 151.55327,96.1068597 C147.746278,97.2602656 143.958092,97.7083125 139.933796,97.4635961 C137.349137,97.3052502 137.361674,100.774465 139.933796,100.931011" id="Fill-24" fill="#231916"></path>
            <path d="M120.616741,150 C94.1411829,139.425352 79.3010837,121.914899 71,91.4504037 L90.4234127,86 C97.0166457,110.196727 107.552264,122.806926 128,130.972707 L120.616741,150 Z" id="Fill-26" fill="#FEFEFE"></path>
            <path d="M84.9290725,68.0092207 C84.3701111,68.2638424 83.6274629,67.8730277 83.1791087,67.26312 C82.3199279,66.090676 82.4562117,64.5254435 81.5338267,63.3865543 C76.661185,57.3585342 68.2807151,60.2245084 65.1975397,65.3919467 C63.2303118,68.6901857 62.6772758,73.1016543 63.1690828,77.4104846 C63.9966616,84.6800322 67.986421,91.3337506 71.7608914,97.3143993 C71.9426032,97.6006019 72.1519668,97.9085165 72.4363853,97.9835213 C72.693152,98.0506309 72.9281923,97.9006213 73.1355807,97.7525854 C78.5928605,93.9016793 84.4767681,91.5252103 90.5641138,89.0007055 C90.674721,88.953334 90.7932287,88.9020149 90.8643334,88.7914814 C90.9433385,88.6691051 90.9492639,88.4954097 90.951239,88.3315834 C91.0519706,82.5246301 91.1270254,77.4618037 89.7701122,71.5857671 C89.4955694,70.3856897 89.1617727,69.1362671 88.4270249,68.1888376 C87.6883269,67.2394343 86.4262198,66.7282171 85.6401187,67.3815487 C85.4248297,67.5591917 85.2589189,67.8118396 85.0238787,67.9579016 C84.9922766,67.9776397 84.9626497,67.9934302 84.9290725,68.0092207" id="Fill-28" fill="#D6002A"></path>
            <path d="M206.550728,183 C201.048925,162.733128 183.354722,141.538743 169.135751,124.507293 L169,124.341171 L184.367039,111 L184.504729,111.166122 C200.011398,129.740132 219.309404,152.858763 226,177.510067 L206.550728,183 Z" id="Fill-30" fill="#FEFEFE"></path>
            <path d="M212.076756,199.994354 C212.633687,199.737761 213.378237,200.130545 213.824572,200.738471 C214.685644,201.912874 214.551348,203.476112 215.471667,204.614987 C220.345804,210.64293 228.725449,207.773045 231.806346,202.603699 C233.771405,199.305502 234.322411,194.89409 233.830653,190.585314 C232.999206,183.31586 229.009839,176.6642 225.231791,170.683628 C225.052072,170.399403 224.840754,170.089518 224.556363,170.016488 C224.299622,169.949379 224.06658,170.099387 223.859212,170.245447 C218.402469,174.098278 212.519141,176.478664 206.436345,179.005111 C206.323774,179.052481 206.205277,179.1038 206.13418,179.212358 C206.055182,179.336707 206.049258,179.5104 206.047283,179.674224 C205.948536,185.481103 205.875464,190.541891 207.234218,196.419827 C207.510709,197.617915 207.842498,198.869295 208.579148,199.816713 C209.317773,200.76413 210.579756,201.275341 211.36578,200.622018 C211.581048,200.444377 211.746942,200.189758 211.981959,200.045672 C212.013558,200.025934 212.043182,200.00817 212.076756,199.994354" id="Fill-32" fill="#D6002A"></path>
            <path d="M93.4341942,221.439834 C102.8824,229.608022 109.615492,239.835085 114.440191,251.382598 C116.000893,255.120247 121.374475,255.866589 124.507599,254.059135 C128.322432,251.857723 128.689656,247.542006 127.15044,243.851869 C121.897964,231.284817 114.1218,219.778877 103.84148,210.890083 C96.6727978,204.691683 86.2127725,215.195902 93.4341942,221.439834" id="Fill-34" fill="#D6002A"></path>
            <path d="M121.633305,262.863171 C122.010862,262.61357 122.594546,262.714912 122.984349,262.99454 C123.737423,263.535031 123.812935,264.480888 124.606826,264.989474 C128.8069,267.686295 134.562102,264.522176 136.221315,260.933922 C137.282558,258.644346 137.19072,255.947525 136.358052,253.494676 C134.949864,249.356548 131.32327,246.136128 127.925251,243.274158 C127.761983,243.139035 127.574225,242.994529 127.361976,243 C127.168095,243.00579 127.015031,243.135282 126.880335,243.259144 C123.353743,246.487071 119.351632,248.924907 115.222988,251.482852 C115.147477,251.529769 115.067884,251.58044 115.029107,251.657385 C114.984209,251.743713 115.000535,251.846932 115.016862,251.94452 C115.588301,255.384515 116.094432,258.381607 117.729155,261.607658 C118.063854,262.264503 118.443453,262.941993 119.080199,263.371758 C119.721026,263.801522 120.692472,263.880344 121.188399,263.358621 C121.325136,263.214115 121.419015,263.035828 121.572079,262.908212 C121.590447,262.893199 121.612896,262.876308 121.633305,262.863171" id="Fill-36" fill="#ED827A"></path>
            <path d="M67.2181114,304.913481 C67.1587495,305.04387 67.0894939,305.152528 67.0103447,305.229576 C66.2267677,305.994129 64.1332714,305.614816 63.1063105,305.871642 C59.9720022,306.657927 57.2077165,309.3309 57.0118222,312.651866 C56.8752898,314.902062 57.9259955,317.144356 59.922534,318.268467 C62.7699264,319.868694 66.7511311,320.074156 69.9448013,319.981303 C72.4320648,319.910182 75.0400309,319.461723 76.959399,317.881251 C78.2554671,316.812457 78.9737461,315.139133 78.9994696,313.473711 C79.0311293,311.472439 77.6361246,310.206086 77.3234853,308.333227 C77.0880164,306.916729 77.2265275,305.452817 77.3591025,304.032369 C77.7231888,300.185896 78.0833176,296.339423 78.4474039,292.49295 C78.667043,290.086682 75.2754998,288.367919 73.1938759,288.071581 C72.2282557,287.935265 71.2487843,288.020215 70.2792066,288.107141 C69.4738635,288.178262 68.6883077,288.375821 67.9166031,288.577331 C67.6336447,292.354659 67.9522202,296.201132 67.6455171,300.008093 C67.5703253,300.944522 67.726645,303.797273 67.2181114,304.913481" id="Fill-38" fill="#AC0015"></path>
            <path d="M108.607212,304.736893 C108.671067,304.865905 108.744596,304.969115 108.825866,305.042553 C109.628885,305.770976 111.652881,305.282714 112.670684,305.489134 C115.770533,306.118317 118.601419,308.660852 118.961326,311.98143 C119.205135,314.234184 118.289886,316.536557 116.393599,317.765151 C113.696227,319.515749 109.818514,319.924619 106.69351,319.994087 C104.261232,320.049662 101.69157,319.732093 99.737233,318.245474 C98.417572,317.239178 97.6319674,315.59576 97.5255431,313.926539 C97.397834,311.919901 98.6962101,310.578173 98.9071236,308.684669 C99.0657925,307.249656 98.8606839,305.786855 98.6575103,304.369704 C98.1137791,300.529107 97.5681128,296.686525 97.0243815,292.845927 C96.6876938,290.442329 99.9152517,288.544856 101.935378,288.143925 C102.868042,287.955369 103.82973,287.99308 104.779808,288.030791 C105.573153,288.060563 106.347148,288.219348 107.115337,288.382102 C107.575864,292.1572 107.455895,296.033524 107.945447,299.83641 C108.067351,300.773238 108.055741,303.641281 108.607212,304.736893" id="Fill-40" fill="#AC0015"></path>
            <path d="M114.389365,261.154777 C111.290326,252.050794 108.149354,242.960675 104.966449,233.882438 C103.374997,229.3453 101.775557,224.810142 100.164137,220.276965 C99.3873804,218.094544 98.6126207,211.511634 96.4321113,210.460032 C95.0203712,209.780749 93.3011234,209.992653 91.7076742,210.220401 C86.5279659,210.965039 81.3482577,211.707695 76.1685494,212.450352 L76.1585654,212.396881 L75.6553709,212.525608 C75.4836458,212.549373 75.3119207,212.575119 75.1401956,212.598884 L75.1501797,212.652355 C70.0782988,213.929725 65.0064179,215.207094 59.934537,216.486445 C58.3710399,216.880548 56.6997154,217.336044 55.6593808,218.498549 C54.051954,220.296769 55.8730387,226.675696 55.9988374,228.986844 C56.256425,233.785397 56.5259935,238.58197 56.805546,243.378543 C57.3666478,252.973669 57.9696824,262.562854 58.6166467,272.152039 C59.0439627,278.473534 59.7747928,285.397076 64.6509869,289.722309 C70.0842892,294.542647 78.6645538,294.392135 86.2464166,293.530653 C87.8897859,293.342514 89.5591136,293.118726 91.2224509,292.841468 L91.2284414,292.865233 C91.3981697,292.829585 91.5659011,292.789977 91.7336326,292.752349 C91.9053577,292.722643 92.0770828,292.694917 92.2468111,292.665211 L92.2408207,292.639465 C93.88419,292.265166 95.5135817,291.839376 97.105034,291.389821 C104.445284,289.308402 112.432498,286.193204 115.593438,279.679609 C118.426902,273.833414 116.434092,267.157424 114.389365,261.154777" id="Fill-42" fill="#AC0015"></path>
            <path d="M85.0689091,267.209012 C78.9023393,268.044496 72.2728316,268.241544 68.9471967,267.687839 L68.7256196,267.6504 C65.1882995,267.063196 56.9068554,265.6878 56.629884,258.123123 L55.0194933,214.38632 C54.8711158,212.244407 55.5734361,210.049291 57.001817,208.323149 C58.25808,206.81179 60.0010213,205.771376 61.9141022,205.391073 C62.2563597,205.324076 62.6025739,205.278755 62.9468097,205.253139 C63.0932089,205.225552 63.5878006,205.127028 63.6550651,205.113235 C65.2951313,204.790076 68.1973956,204.169374 72.0472977,203.324038 C72.1798483,203.29054 72.533976,203.20975 72.5695866,203.203839 C72.5953054,203.197927 72.9949355,203.12896 73.1294645,203.109256 C77.0149772,202.425499 79.9330685,201.891498 81.5711563,201.566369 C81.6423775,201.552575 82.1369692,201.454051 82.28139,201.424494 C82.6078206,201.316118 82.9461213,201.227446 83.2883788,201.16045 C85.2014597,200.782117 87.2114805,201.077689 88.9465083,201.995934 C90.9367455,203.048171 92.4284342,204.809781 93.1525165,206.953665 C93.1525165,206.953665 108.421553,247.864797 108.421553,247.868738 C111.068608,254.962471 103.944508,259.388172 100.90178,261.279834 L100.711857,261.396092 C97.8867486,263.155732 91.7973351,265.465136 85.8483857,267.041521 C85.7039649,267.088813 85.5575657,267.128222 85.4091882,267.157779 C85.3320319,267.171573 85.100563,267.207041 85.0689091,267.209012" id="Fill-44" fill="#D6002A"></path>
            <path d="M80.2718884,233.847772 C80.0480895,233.891534 79.818349,233.921371 79.5886085,233.935296 C79.586628,233.935296 79.4163032,233.947231 79.3311408,233.951209 C72.9399986,234.345067 66.972688,232.294223 60.916254,229.970861 C38.2729542,221.286104 21.6187508,209.744885 11.4170858,195.671441 C5.85776254,187.997187 2.20964236,179.525272 0.577692826,170.494398 C-2.50795932,153.433207 6.89159465,132.435429 25.8016118,128.373525 L26.2709953,128.276055 C33.0245729,126.927391 40.3168522,127.776771 47.3655274,130.732692 C50.1620234,131.906307 53.0357598,133.414105 56.406607,135.480863 L56.778945,135.709618 C58.1593683,136.558998 60.0507662,137.724657 60.965767,137.541653 C61.0014164,137.535685 61.2806699,137.477999 61.2806699,137.477999 C62.223398,137.291016 63.526581,135.48683 64.4772312,134.169994 L64.7307379,133.819898 C67.0657725,130.611352 69.1473004,128.112942 71.2803218,125.958661 C76.6673396,120.518256 83.0822481,116.931765 89.8318646,115.583102 L90.3052091,115.493588 C109.322174,111.982687 126.004105,127.772793 129.652225,144.72259 C131.583234,153.693789 131.438655,162.919603 129.222452,172.149395 C125.158423,189.071344 114.164549,206.128557 96.5517732,222.855567 C91.919334,227.251653 87.2670895,231.371243 81.3651361,233.495687 C81.0165644,233.652832 80.6481874,233.772183 80.2718884,233.847772" id="Fill-46" fill="#D6002A"></path>
            <path d="M77.8890686,223.883931 C77.7151347,223.919373 77.5392243,223.941032 77.3613373,223.950877 C77.3593608,223.950877 77.2289104,223.960722 77.1656617,223.962691 C72.2362168,224.263947 67.636851,222.69466 62.9663305,220.920597 C45.5077152,214.277214 32.6682309,205.452187 24.8056279,194.69164 C20.5165761,188.822072 17.7039858,182.344085 16.4449416,175.438826 C14.0671861,162.390309 21.3150908,146.33317 35.8939141,143.226099 L36.2556176,143.153247 C41.459799,142.121494 47.0849794,142.771262 52.5184373,145.031666 C54.6748224,145.929527 56.8905031,147.083357 59.4876525,148.662489 L59.7762246,148.83773 C60.8415698,149.487497 62.2982662,150.377482 63.0038844,150.239653 C63.0295792,150.233746 63.2469966,150.190428 63.2469966,150.190428 C63.97238,150.046691 64.9784295,148.666427 65.711719,147.660272 L65.9073946,147.392489 C67.7080058,144.937154 69.3109648,143.0292 70.9554308,141.381153 C75.1100792,137.22067 80.0553363,134.477863 85.2595177,133.446111 L85.6251741,133.377196 C100.287011,130.693458 113.148237,142.767324 115.960828,155.729205 C117.449148,162.589177 117.338463,169.646048 115.630749,176.704888 C112.495985,189.643142 104.020661,202.687721 90.4419573,215.4783 C86.8684062,218.839371 83.282996,221.991729 78.7310668,223.616148 C78.4622599,223.736257 78.1796173,223.826831 77.8890686,223.883931" id="Fill-48" fill="#AC0015"></path>
            <path d="M100.467437,170.6371 C97.9747443,164.332921 92.7021194,160.015738 87.1422545,158.085291 C80.0773307,155.632258 74.6394444,157.650453 68.4795233,161.019961 C67.4072918,161.608845 66.3468646,161.998835 65.2864375,162.279627 C64.1964993,162.423923 63.0672133,162.462922 61.8493943,162.326426 C54.8572642,161.548397 49.0554094,161.743392 43.4719358,166.690407 C39.0807049,170.580551 35.8758146,176.568839 36.0036955,183.339055 C36.1158371,189.216195 38.7305082,194.773544 42.4410196,198.928881 C44.483178,201.218119 47.176545,203.03742 50.2338804,204.365333 C56.7853136,207.206406 65.4989164,207.643194 73.9685619,206.186584 L73.9705293,206.198284 C74.0118447,206.188534 74.0492252,206.176834 74.0905406,206.169034 C74.1298885,206.161235 74.1712039,206.157335 74.2105518,206.149535 L74.206617,206.139785 C82.5955993,204.273686 90.4789604,200.568787 95.4348343,195.457975 C97.7484936,193.07319 99.532923,190.370564 100.538263,187.482692 C102.36204,182.237335 102.633541,176.110601 100.467437,170.6371" id="Fill-50" fill="#F09488"></path>
            <path d="M74.9458219,181.968471 C74.5413552,179.835433 71.9992817,178.567484 69.2671089,179.135729 C66.5369584,179.703974 64.6501211,181.89638 65.0545878,184.029418 C65.4610769,186.164576 68.001128,187.432525 70.7333008,186.86428 C73.4654737,186.293915 75.3482663,184.103629 74.9458219,181.968471" id="Fill-52" fill="#D6002A"></path>
            <path d="M61.8727708,182.151983 C61.254359,179.431419 58.5738329,177.605367 55.8821842,178.073085 C53.1927601,178.540804 51.5110358,181.126899 52.1272232,183.849412 C52.7434105,186.569976 55.4283856,188.396028 58.1200342,187.92636 C60.8072339,187.458642 62.4889581,184.872547 61.8727708,182.151983" id="Fill-54" fill="#231916"></path>
            <path d="M87.8727708,177.151983 C87.2565835,174.431419 84.5738329,172.605367 81.8821842,173.073085 C79.1927601,173.540804 77.5110358,176.126899 78.1272232,178.849412 C78.745635,181.569976 81.4283856,183.396028 84.1200342,182.92636 C86.8072339,182.458642 88.4889581,179.872547 87.8727708,177.151983" id="Fill-56" fill="#231916"></path>
            <path d="M67,190.429168 C69.2652672,191.44076 71.8091603,190.945058 74.1469466,190.198139 C75.5400763,189.751782 76.9675573,189.184303 78,188" id="Stroke-58" stroke="#160403" stroke-width="1.614" stroke-linecap="round" stroke-linejoin="round"></path>
            <path d="M60.7709197,226.79795 C49.3924935,223.182118 39.4530159,216.584703 30.8769619,208.174274 C23.9087939,201.34029 13.3015169,212.189826 20.285585,219.040124 C30.7358496,229.288041 42.9410749,237.217175 56.7899612,241.61817 C66.019902,244.550808 69.9650856,229.720391 60.7709197,226.79795" id="Fill-60" fill="#D6002A"></path>
            <path d="M20.7857905,199.519799 C20.5637435,199.905784 20.0220255,200.032467 19.5702748,199.911723 C18.7031432,199.678152 18.2571351,198.789397 17.3670331,198.601353 C12.6619348,197.601751 8.98093234,202.8749 9,206.988115 C9.0115595,209.612813 10.177306,212.190005 11.8866847,214.244633 C14.7675524,217.71454 19.1912637,219.440586 23.2761619,220.907329 C23.4694959,220.978587 23.6915428,221.045887 23.8695632,220.958793 C24.0341842,220.877638 24.1145805,220.693552 24.1796633,220.523323 C25.9158407,216.041938 28.3794134,212.144479 30.9023261,208.084708 C30.9501811,208.009491 30.9961218,207.928335 31,207.839261 C31.0018644,207.738311 30.9482669,207.6433 30.8946693,207.556206 C29.0130128,204.442593 27.3668027,201.73476 24.6562985,199.238723 C24.1030954,198.730015 23.5039514,198.217347 22.7803846,198.047118 C22.0568179,197.876889 21.1858578,198.171821 20.9714677,198.868573 C20.9102133,199.060576 20.9044707,199.270394 20.8221602,199.45052 C20.8125892,199.476252 20.7991899,199.498026 20.7857905,199.519799" id="Fill-62" fill="#ED827A"></path>
        </g>
    </g>
</svg>