<svg xmlns="http://www.w3.org/2000/svg" id="圖層_1" data-name="圖層 1" viewBox="0 0 800 564"><defs><style>.cls-1{fill:#fff}.cls-1,.cls-12,.cls-2,.cls-3,.cls-5,.cls-8,.cls-9{fill-rule:evenodd}.cls-2{fill:#fefefe}.cls-3{fill:#160403}.cls-5{fill:#231916}.cls-8{fill:#d80029}.cls-9{fill:#ac0015}.cls-12{fill:#ed827a}</style><mask id="mask" width="44.02" height="34.67" x="755.98" y="257.98" maskUnits="userSpaceOnUse"><g id="mask-6"><path id="path-5" d="M755.98 257.98H800v34.67h-44.02v-34.67z" class="cls-1"/></g></mask><mask id="mask-2" width="153.95" height="139.12" x="0" y="228.75" maskUnits="userSpaceOnUse"><g id="mask-8"><path id="path-7" d="M0 228.75h153.94v139.12H0V228.75z" class="cls-1"/></g></mask></defs><g id="R4"><g id="D---Loading-Hover---1440"><g id="loading-characters-hover"><path id="Fill-4" d="M705.76 399.22l-22.03-.13.47-77.67 22.03.13-.47 77.67z" class="cls-2"/><path id="Fill-6" d="M709.22 398.91c4.1 3.35 8.15 8.82 4.27 14.65-1.88 2.83-5.85 3.76-9.44 4-5.72.35-14.16.66-18.65-3.21-3.2-3-3.47-7.48-3.38-11.44.12-4.82.78-9.35.61-14.2a3.17 3.17 0 0 1 .3-1.85c.58-.94 1.92-1.18 3.09-1.28a81.82 81.82 0 0 1 17.21.23 12 12 0 0 1 2.86.59 1.8 1.8 0 0 1 .81.52 1.69 1.69 0 0 1 .2 1c-.09 3.5-1.14 8.32 2.12 11" class="cls-3"/><path id="Fill-8" d="M722 296.26c-.14-2.78-.29-5.55-.43-8.32q-.9-17.81-1.93-35.61l-.06-1.07c-.1-1.82-.22-3.64-.33-5.46l-.6.06-.57-12.93-.09-1.8c-.18-4 1.75-15.51-1.23-18.33-1.93-1.84-4.78-2.31-7.45-2.7l-25.94-3.8v-.09h-.87l-.86-.12v.09l-26.21-.94c-2.69-.09-5.58-.14-7.81 1.32-3.44 2.24-3.6 13.86-4.52 17.81-.13.59-.26 1.17-.4 1.76q-1.45 6.3-2.89 12.61l-.58-.17q-.66 2.66-1.31 5.31c-.09.35-.17.7-.25 1q-4.23 17.33-8.32 34.67c-.64 2.7-1.29 5.4-1.92 8.11-2.26 9.64-4.31 20.32 1.5 29 6.47 9.64 20.3 13.27 32.86 15.38 2.72.46 5.51.87 8.3 1.2l.86.06.86.1c2.81.18 5.62.27 8.38.31 12.74.18 27-.89 35.1-9.21 7.27-7.47 7.17-18.34 6.69-28.23" class="cls-2"/><path id="Fill-10" d="M759.42 155a74.1 74.1 0 0 0-1.85-12 71.54 71.54 0 0 0-6.22-16.45c-5.35-10.17-10.09-19.77-12.19-31.32-.34-1.88-.86-3.73-1.29-5.59-.33-1.44-.58-2.93-1-4.34a23.59 23.59 0 0 0-1.16-3.69 39.4 39.4 0 0 1-2.81 3.72c-1.11 1.44-2.07 3-3.23 4.4-7.68 9.31-18.86 12.64-30.5 13.17-10.23.47-20.5-.73-30.71.28-21.22 2.08-44 18.76-51.56 39-6.17 16.5-5.26 35.71 3.8 50.79 7.43 12.39 19.11 21.26 32.16 26.24a78.4 78.4 0 0 0 15 4.06c4.2.71 8.53 1.24 12.88 1.61h.1c4.34.43 8.7.69 13 .75a79.07 79.07 0 0 0 15.5-1.29c13.73-2.56 26.81-9.17 36.36-20a55.48 55.48 0 0 0 12.47-26.81 89.6 89.6 0 0 0 1.3-22.5" class="cls-2"/><path id="Fill-12" fill="#fad9cb" fill-rule="evenodd" d="M727.6 160a33 33 0 0 0-8.6-11.21 45.61 45.61 0 0 0-11.25-7.09 64.35 64.35 0 0 0-18.46-5h-.49l-.47-.07a64.21 64.21 0 0 0-19 1.58 45.31 45.31 0 0 0-12.34 5 32.86 32.86 0 0 0-10.47 9.46c-7.68 11.11-10.15 27.21-2.17 39 4.85 7.15 12.4 12.31 20.81 15.25a56.9 56.9 0 0 0 9.66 2.42 107.5 107.5 0 0 0 15.61 1.36 53.94 53.94 0 0 0 13.48-1.53 39.8 39.8 0 0 0 18.89-10.37c10-10.14 10.44-26.42 4.89-38.73"/><g id="Group-10"><path id="Fill-4-2" d="M691.57 191.38c-3 4.83-13.83 3.82-15.93-1.49-1.21-3 .56-5.19 5.12-5.15 1.09 0 2.18.09 3.27.19h.2c1.09.1 2.18.23 3.26.42 4.49.8 5.83 3.23 4.08 6" class="cls-5" data-name="Fill-4"/><path id="Fill-6-2" d="M666.05 178l.37-.62c.27-.41-.36.41 0 0l.23-.25c.16-.17.33-.32.5-.47s-.46.31-.11.09l.33-.21.23-.13.18-.08c.17-.08.08 0-.28.11.2 0 .41-.14.61-.19s.5-.08.06 0 0 0 .06 0h.38c.1 0 .5.05 0 0l.29.08c.1 0 .2.08.29.09-.49-.07-.4-.18-.18-.06a4.42 4.42 0 0 1 .6.34c.07.05.39.29.06 0s0 0 0 .06a5.1 5.1 0 0 1 .46.47s.33.39.06.06 0 0 .05.09a6.84 6.84 0 0 1 .37.65c.11.22 0 .33-.05-.14a2.74 2.74 0 0 0 .15.4 2.39 2.39 0 0 0 4.61-1.27 7.85 7.85 0 0 0-6.16-5.53 7.45 7.45 0 0 0-7.35 4 2.39 2.39 0 0 0 4.13 2.42" class="cls-5" data-name="Fill-6"/><path id="Fill-8-2" d="M708 180a7.6 7.6 0 0 0-6.48-5.47c-2.9-.27-5.69 1.74-7 4.17a2.39 2.39 0 1 0 4.13 2.41c.11-.2.24-.4.37-.6.27-.42-.37.4 0 0l.23-.26c.15-.16.33-.31.49-.46s-.45.31-.11.08l.33-.22c.19-.11.4-.18.58-.3-.13.08-.53.2-.16.08l.3-.1.31-.07c.47-.1-.16.06-.2 0a4 4 0 0 0 .68 0c.26 0 .28.15-.21 0a2.65 2.65 0 0 0 .3.06l.3.09c.07 0 .46.18.06 0l.33.19.26.18c.21.14-.46-.41-.14-.09.16.15.32.29.46.45s.33.4.07.07 0 0 0 .08.26.43.37.65l.06.12c.07.17 0 .09-.11-.25a1.47 1.47 0 0 0 .14.4A2.39 2.39 0 0 0 708 180" class="cls-5" data-name="Fill-8"/></g><path id="Fill-14" d="M683.85 132.78c-1.52.58-3 1.22-4.54 1.75-3.9 1.34-9.21 1.94-12.38-.95-2.39-2.19-3.26.38-2.81 2.45a14.46 14.46 0 0 0 3.88 6.73 34.09 34.09 0 0 0 20.17 10.06c7.4.83 20.46-1.19 21.17-10.22a8.63 8.63 0 0 0-2.18-6.15 16 16 0 0 0-10-5.24 26.88 26.88 0 0 0-10.07.49 31.1 31.1 0 0 0-3.26 1.08" class="cls-3"/><path id="Fill-16" fill="#f2a079" fill-rule="evenodd" d="M690.32 177.92c.19-2.15-2-4.11-4.87-4.37s-5.39 1.27-5.58 3.42 2 4.11 4.87 4.37 5.38-1.27 5.58-3.42"/><path id="Fill-22" d="M642.15 397.44c-2.46-13.55-7.08-26.19-12-39.58l-.53-1.42a56.32 56.32 0 0 1-3.62-13.6c-.78-7.51 1-14.52 2.47-20.16l4.82-18.77 21.34 5.49-4.81 18.76c-1.12 4.34-2.28 8.82-1.89 12.39a37.74 37.74 0 0 0 2.39 8.33l.52 1.41c5.23 14.3 10.17 27.8 13 43.22z" class="cls-2"/><path id="Fill-24" d="M638.7 397.75c-3.46 4-6.5 10.09-1.67 15.17 2.34 2.46 6.41 2.68 10 2.28 5.69-.64 14.05-1.8 17.81-6.39 2.63-3.49 2.12-8 1.35-11.85-.95-4.73-2.38-9.07-3.06-13.88a3.22 3.22 0 0 0-.61-1.77c-.74-.83-2.1-.83-3.27-.73a81.83 81.83 0 0 0-16.91 3.21 12 12 0 0 0-2.71 1.07 1.68 1.68 0 0 0-.71.66 1.64 1.64 0 0 0 0 1.05c.7 3.44 2.56 8-.19 11.18" class="cls-3"/><path id="Fill-26" d="M763.58 281.39a110.86 110.86 0 0 1-30.13-19.24c-9.47-8.75-20.77-27.41-25.18-35l20.59-11.93c5.94 10.24 14.93 24.11 20.73 29.46a86.94 86.94 0 0 0 23.6 15z" class="cls-2"/><g id="Group-30" mask="url(#mask)"><path id="Fill-28" d="M792.45 268.34a1.83 1.83 0 0 0 .56 2.13c1.2 1.18 3 1.29 4.16 2.54 6.09 6.6 1.39 15.72-5.06 18.38-4.11 1.69-9.26 1.58-14.11.29-8.2-2.18-15.15-7.87-21.37-13.21a1.65 1.65 0 0 1-.65-.88 1 1 0 0 1 .38-.77c5.34-5.6 9.06-11.94 13-18.48a.67.67 0 0 1 .29-.31 1 1 0 0 1 .54 0c6.67.86 12.49 1.63 19 4.18a10 10 0 0 1 3.66 2.12c1 1 1.34 2.53.46 3.32a9.38 9.38 0 0 0-.77.61l-.07.1" class="cls-8"/></g><path id="Fill-31" d="M607.17 270.21l-8.34-22.29a86.3 86.3 0 0 0 24.42-13.57c6.1-5 15.89-18.32 22.43-28.21l19.86 13.12c-4.86 7.35-17.23 25.33-27.19 33.49a110.79 110.79 0 0 1-31.18 17.46" class="cls-2"/><path id="Fill-33" d="M579.1 255.5a1.83 1.83 0 0 1-.68 2.1c-1.26 1.11-3.08 1.11-4.3 2.29-6.47 6.24-2.3 15.61 4 18.64 4 1.93 9.15 2.12 14.07 1.11 8.31-1.7 15.58-7 22.1-11.94.31-.24.65-.51.7-.85a1 1 0 0 0-.33-.78c-5-5.9-8.35-12.45-11.88-19.2a.73.73 0 0 0-.27-.33 1.09 1.09 0 0 0-.54-.06c-6.72.48-12.57.91-19.21 3.08a10.09 10.09 0 0 0-3.79 1.89c-1 1-1.48 2.46-.64 3.3a9.13 9.13 0 0 1 .73.65l.06.1" class="cls-8"/><path id="Fill-37" d="M134.55 456.71a26.33 26.33 0 0 1 4.5 2c3.31 1.87 5.62 5.76 4.82 9.59a7.06 7.06 0 0 1-5 5.48c-3.73.94-8.31-.05-11.9-1.14-2.8-.85-5.63-2.17-7.31-4.55a6.94 6.94 0 0 1-1-5.64c1.91-7.43 9.49-7.78 15.89-5.7" class="cls-9"/><path id="Fill-39" d="M131.27 465.27L121 459.06l3.82-6.3c1.16-1.92 3.34-5.51 2.8-7.52-.36-1.41-2.22-2.95-4.18-4.59a34.21 34.21 0 0 1-5.47-5.34l9.51-7.31a25.55 25.55 0 0 0 3.64 3.44c3 2.51 6.76 5.64 8.11 10.75 1.82 6.93-1.92 13.1-4.16 16.8z" class="cls-9"/><path id="Fill-41" d="M87.79 458.53a25.48 25.48 0 0 0-4.85.76c-3.68 1-6.89 4.15-7.09 8.06a7.06 7.06 0 0 0 3.5 6.58c3.37 1.85 8.05 2 11.81 1.9 2.92-.12 6-.68 8.22-2.57a6.86 6.86 0 0 0 2.34-5.21c0-7.67-7.22-9.92-13.93-9.52" class="cls-9"/><path id="Fill-43" d="M88.81 467.65c-2.49-8.34-3.16-18-3.64-27.12l12-.62c.44 8.42 1 17.24 3.15 24.3z" class="cls-9"/><path id="Fill-45" d="M134.68 402q-5.38-16.06-10.9-32.08-2.76-8-5.56-16c-.9-2.57-1.77-10.31-4.32-11.55-1.66-.81-3.68-.56-5.56-.3l-18.29 2.59v-.06l-.6.14-.6.09v.06l-17.92 4.47c-1.85.46-3.81 1-5 2.36-1.91 2.11.19 9.61.32 12.32q.41 8.46.85 16.92.9 16.93 1.9 33.84c.46 7.43 1.27 15.57 7 20.66 6.35 5.68 16.45 5.53 25.37 4.53 1.94-.21 3.9-.47 5.86-.8l.59-.13.61-.1q2.91-.66 5.73-1.46c8.64-2.42 18.06-6.07 21.82-13.72 3.38-6.86 1.08-14.71-1.28-21.77" class="cls-9"/><path id="Fill-47" d="M101.21 406.92c-7.26 1-15.06 1.16-19 .5l-.26-.05c-4.16-.71-13.89-2.37-14.18-11.31l-1.69-51.65a10.19 10.19 0 0 1 2.36-7.15 10 10 0 0 1 7-3.6l.84-.16c1.93-.38 5.34-1.1 9.88-2.08l.61-.14.66-.11c4.57-.79 8-1.4 9.94-1.78l.83-.16a9.91 9.91 0 0 1 1.19-.31 10.06 10.06 0 0 1 6.65 1 10.34 10.34 0 0 1 4.92 5.88l17.77 48.38c3.08 8.39-5.32 13.59-8.9 15.81l-.23.13c-3.33 2.07-10.5 4.77-17.51 6.6l-.51.14-.4.05" class="cls-8"/><g id="Group-51" mask="url(#mask-2)"><path id="Fill-49" d="M94 367.71a7 7 0 0 1-.8.1h-.3c-7.51.43-14.51-2-21.62-4.74-26.57-10.26-46.08-23.84-58-40.35A71.44 71.44 0 0 1 .65 293.23c-3.55-20 7.59-44.49 29.83-49.16L31 244a42.68 42.68 0 0 1 24.77 3 79.4 79.4 0 0 1 10.61 5.6l.43.26c1.62 1 3.84 2.38 4.91 2.17l.37-.07c1.11-.22 2.65-2.32 3.77-3.86l.3-.41a79.25 79.25 0 0 1 7.73-9.16 42.69 42.69 0 0 1 21.85-12.05l.55-.11c22.36-4 41.89 14.53 46.1 34.38a71.47 71.47 0 0 1-.63 32.08c-4.85 19.77-17.85 39.68-38.62 59.16-5.46 5.12-11 9.92-17.89 12.38a6.26 6.26 0 0 1-1.29.41" class="cls-8"/></g><path id="Fill-52" d="M91.77 356.4a4.2 4.2 0 0 1-.62.08h-.23c-5.8.33-11.21-1.54-16.7-3.66-20.52-7.93-35.6-18.42-44.81-31.17a55.26 55.26 0 0 1-9.75-22.79c-2.74-15.44 5.87-34.38 23.05-38l.42-.09a33 33 0 0 1 19.14 2.3 60.13 60.13 0 0 1 8.19 4.32l.34.21c1.25.77 3 1.83 3.79 1.67l.29-.06c.85-.16 2-1.79 2.91-3L78 266a61 61 0 0 1 6-7.08 33 33 0 0 1 16.88-9.31l.43-.08c17.27-3.11 32.36 11.22 35.61 26.55a55.13 55.13 0 0 1-.49 24.79c-3.75 15.28-13.78 30.65-29.83 45.71-4.22 4-8.46 7.66-13.82 9.56a4.3 4.3 0 0 1-1 .31" class="cls-9"/><path id="Fill-54" fill="#f09488" fill-rule="evenodd" d="M118.8 292.16a26.26 26.26 0 0 0-15.7-15.05c-8.35-3-14.79-.57-22.09 3.42a16.21 16.21 0 0 1-3.78 1.47 16.22 16.22 0 0 1-4.07 0c-8.26-1-15.13-.76-21.75 5.12A26.24 26.24 0 0 0 42.5 307a29.46 29.46 0 0 0 7.5 18.65 26.39 26.39 0 0 0 9.2 6.52c7.73 3.42 18 4 28.06 2.28H87.55c9.93-2.19 19.28-6.57 25.16-12.65a26.18 26.18 0 0 0 6.07-9.49 29.41 29.41 0 0 0 0-20.1"/><g id="Group-10-2" data-name="Group-10"><path id="Fill-4-3" d="M91.5 318.83c-1.31 4.23-9.94 5.9-12.75 2.48-1.61-2-.7-3.94 2.86-4.94.86-.23 1.73-.42 2.6-.59h.16c.87-.17 1.75-.32 2.63-.42 3.68-.42 5.26 1.06 4.5 3.5" class="cls-5" data-name="Fill-4"/><path id="Fill-6-3" d="M64.76 312.43a11.31 11.31 0 0 1 .43-1.28c-.18.5-.08.17 0 0l.18-.27.19-.26c.23-.3-.25.25-.06.08a4.68 4.68 0 0 1 .46-.43 2.35 2.35 0 0 0 .25-.19c-.2.27-.32.2-.1.07s.43-.17.61-.29c-.06 0-.48.14-.19.07l.36-.08.3-.05h-.14c.21 0 .41 0 .62.05s.45 0 .1 0h.09a6.32 6.32 0 0 1 .61.22c.42.17-.41-.24 0 0l.23.14a6.36 6.36 0 0 1 .59.43c.21.15-.36-.37 0 0l.23.24a7 7 0 0 1 .48.6 2.14 2.14 0 0 0 3 .19 2.19 2.19 0 0 0 .18-3 7.31 7.31 0 0 0-7.05-3 7.05 7.05 0 0 0-5.4 5.33 2.35 2.35 0 0 0 .11 1.65 2.18 2.18 0 0 0 1.21 1.06 2.15 2.15 0 0 0 2.71-1.31" class="cls-5" data-name="Fill-6"/><path id="Fill-8-3" d="M104.27 302.45a7 7 0 0 0-7-2.92 7.33 7.33 0 0 0-5.35 5.47 2.38 2.38 0 0 0 .11 1.66 2.21 2.21 0 0 0 1.21 1.06 2.16 2.16 0 0 0 2.76-1.34 5 5 0 0 1 .19-.66l.15-.39c.1-.26 0 0-.07.12.14-.19.24-.43.38-.63s.13-.17.2-.26c.22-.3-.25.24-.07.06l.47-.44c.06-.05.22-.13.25-.2-.27.18-.33.22-.2.14l.11-.07c.2-.12.4-.21.61-.31s-.12.06-.19.06a2.25 2.25 0 0 0 .35-.09h.3c.28 0 .19.1-.14 0a3.08 3.08 0 0 0 .61 0c.09 0 .45.09.1 0s0 0 .09 0a6 6 0 0 1 .59.22c.42.15-.41-.25 0 0l.22.13.33.22c.06.05.35.3.1.07l.09.09.23.24a5.2 5.2 0 0 1 .46.59 2.16 2.16 0 0 0 1.44.72 2.24 2.24 0 0 0 1.57-.53 2.12 2.12 0 0 0 .71-1.44 2.44 2.44 0 0 0-.53-1.57" class="cls-5" data-name="Fill-8"/></g><path id="Fill-56" d="M89 307c-.45-2.35-3.37-3.75-6.52-3.14s-5.32 3-4.86 5.35 3.37 3.75 6.52 3.14 5.32-3 4.86-5.35" class="cls-8"/><path id="Fill-62" d="M122 363.54c14.69-2.16 28.91-8.65 40.86-17.35 3.44-2.51 5.48-7.21 2.92-11.17-2.19-3.4-7.47-5.61-11.16-2.92a101.72 101.72 0 0 1-18.15 10.47c-.86.37-.84.36.05 0l-1.26.51c-.85.33-1.71.65-2.57 1q-2.23.81-4.53 1.48a76.65 76.65 0 0 1-10.49 2.3c-4.24.63-6.94 6.2-5.7 10 1.5 4.63 5.49 6.37 10 5.7" class="cls-8"/><path id="Fill-64" d="M166.48 325.4a1.24 1.24 0 0 0 1.3.62c1-.11 1.64-1 2.67-1.06 5.42-.33 8.73 6 8.07 10.42a12.63 12.63 0 0 1-4.36 7.4c-3.76 3.29-9 4.45-13.78 5.39a1 1 0 0 1-.68 0 .86.86 0 0 1-.28-.53c-1.25-5.13-3.4-9.74-5.6-14.54a.58.58 0 0 1-.07-.28.56.56 0 0 1 .16-.29c2.59-3.07 4.85-5.74 8.28-8a5 5 0 0 1 2.28-1 1.71 1.71 0 0 1 1.9 1.18 4.62 4.62 0 0 0 .08.65v.08" class="cls-12"/><path id="Fill-66" d="M61.08 359.43c-.63.56-1.25 1.11-1.9 1.64l-1 .8c-.71.59-.32.31.16-.1a40.31 40.31 0 0 1-4.14 3 86.89 86.89 0 0 1-9.13 5.23c-1.54.77-3.1 1.46-4.67 2.18-1.08.49 1.28-.51.18-.08l-1.19.48c-.8.32-1.6.62-2.4.91a98.6 98.6 0 0 1-10 3c-4.14 1-7 5.91-5.7 10a8.33 8.33 0 0 0 10 5.7A97.33 97.33 0 0 0 72.62 371c3.19-2.85 3.12-8.68 0-11.54a8.35 8.35 0 0 0-11.54 0" class="cls-8"/><path id="Fill-68" d="M13.69 381.56a1.26 1.26 0 0 1-.36 1.39c-.74.7-1.83.62-2.53 1.36-3.74 3.95-1 10.53 2.81 12.88a12.59 12.59 0 0 0 8.47 1.41c4.94-.77 9.18-4 13-7.11a1 1 0 0 0 .4-.55.85.85 0 0 0-.22-.55c-3.13-4.25-5.29-8.86-7.56-13.63a.5.5 0 0 0-.17-.23.59.59 0 0 0-.33-.06c-4 0-7.51 0-11.45 1.2a5.07 5.07 0 0 0-2.23 1.12 1.72 1.72 0 0 0-.31 2.21c.14.17.33.3.45.48v.08" class="cls-12"/></g></g></g></svg>