<svg xmlns="http://www.w3.org/2000/svg" xmlns:xlink="http://www.w3.org/1999/xlink" viewBox="0 0 1440 864"><defs><path id="a" d="M.001 0h1440v864H.001z"/></defs><g fill="none" fill-rule="evenodd"><mask id="b" fill="#fff"><use xlink:href="#a"/></mask><path fill="#F2F0EB" d="M-.149 506.719C-18.238 141.796-18.189-49.41.001-66.898c52.62-50.593 579.937 87.144 574.332 40.14-5.605-47.004 435.21-365.472 756.127-171.091C1547.276-66.523 1593.79 476.093 1470 1430H-.148V506.719z" mask="url(#b)"/><path fill="#FEFEFE" d="M1500-220c1.876 49.2 3.357 94.21 4.445 135.035l.3 11.55c.048 1.906.096 3.802.142 5.69l.268 11.208.246 10.98c2.83 130.396 1.029 211.566-5.4 243.51-8.17 40.596-65.12 48.466-128 54.317l-6.204.57-15.614 1.411c-33.406 3.039-67.091 6.491-94.87 14.791C1168.5 295 1117 322.085 1063 407c-32.4 50.949-51.48 103.837-67.12 153.042l-1.552 4.908-1.532 4.882-1.514 4.855-2.24 7.23-4.4 14.25-1.45 4.684-1.447 4.649-1.445 4.612a1814.38 1814.38 0 0 1-1.444 4.575l-1.447 4.536c-3.622 11.29-7.286 22.203-11.147 32.652C940.526 721.533 798.774 992 440.001 992c-236.79 0-382.906 77.623-438.348 232.87l-1.652 4.727L-75 1102.542l15.026-277.817C4.783 718.46 117.188 661.075 277.242 652.574l4.865-.243c264.406-12.338 335.742-86.444 423.5-229.875l7.778-12.709 5.06-8.255c79.402-129.357 125.165-195.136 291.759-273.036 134.834-63.049 288.187-186.442 357.938-313.918L1500.001-220z" mask="url(#b)" opacity=".501"/><path fill="#FEFEFE" d="M1.654 1224.87C57.095 1069.622 203.21 992 440.002 992c358.773 0 500.525-270.467 526.262-340.125 3.585-9.703 7-19.806 10.37-30.239l.777-2.413 1.446-4.536.723-2.283.722-2.292 1.444-4.612 1.447-4.649 1.45-4.684 4.4-14.25 2.24-7.23 1.514-4.855 1.533-4.882 1.552-4.908 1.417-4.438 1.438-4.458 1.459-4.475.985-2.993.997-3 1.008-3.008 1.02-3.014 1.031-3.021 1.045-3.027 1.058-3.034.534-1.518 1.078-3.042 1.093-3.047c.367-1.017.737-2.034 1.108-3.052l1.124-3.057.567-1.53 1.148-3.064c12.517-33.211 27.95-67.147 49.01-100.264 54-84.915 105.5-112 192.311-137.938 16.578-4.953 35.26-8.18 54.73-10.623l3.164-.389 3.176-.377c1.591-.185 3.187-.365 4.786-.542l3.203-.349 1.604-.17 3.214-.334 3.221-.326 4.84-.475 3.232-.308 4.85-.453 4.85-.445 15.615-1.41 6.203-.57 3.765-.355 3.75-.36 3.73-.368c1.24-.124 2.478-.25 3.71-.377l3.689-.388c55.14-5.905 102.003-15.933 109.357-52.47 20.196-100.345 82.358 438.983 53.999 421.25-55.729-34.848-214.87 52.569-216.75 53.66-81.938 47.58-97.125 42.14-165.25 166.73-41.01 75-109 217.39-306.593 267.658-120.799 30.732-286.254 56.941-410.407 157.057-57.047 46.002-142.703 166.79-172.5 218.34-154.696 267.627-390.495 49.234-280.847-257.799z" mask="url(#b)" opacity=".25"/><path fill="#FEFEFE" d="M1330.066-197.724c11.175 6.769 21.879 14.437 32.112 23.004l.003.014C1289.8-51.25 1141.474 66.801 1010.598 128 835.237 210 793.758 278.569 706 422c-87.758 143.431-159.093 217.536-423.5 229.875C106.23 660.1-12.937 726.91-75 852.303V703.205l6.456-196.361C-15.67 390.186 76.785 331.856 208.821 331.856c198.055 0 250.184-41.048 304.946-128.588 46.292-74.003 65.777-182.896 60.172-229.9-5.605-47.005 435.21-365.472 756.127-171.092z" mask="url(#b)" opacity=".75"/><path fill="#FEFEFE" d="M-.003 407.233v-801.336l16.727-.544 16.423-.52 16.122-.5 15.821-.476c240.283-7.14 374.41-6.46 402.384 2.04 21.507 6.535 42.017 93.41 58.05 170.364l1.615 7.788 1.583 7.699 1.55 7.588 5.16 25.383 1.395 6.83c5.963 29.117 10.884 51.852 14.466 60.48 10.19 24.544 17.647 50.687 22.904 77.995l-.022.012c-.274 1.226-.354 2.34-.236 3.331 5.605 47.005-13.88 155.898-60.172 229.9-54.214 86.665-105.848 127.764-299.048 128.577l-5.898.012c-86.658 0-156.266 25.126-208.824 75.377z" mask="url(#b)"/></g></svg>