<svg xmlns="http://www.w3.org/2000/svg" data-name="圖層 1" viewBox="0 0 800 564"><defs><mask id="a" width="625.7" height="562.82" x="61.25" y="1" maskUnits="userSpaceOnUse"><path fill="#fff" fill-rule="evenodd" d="M61.25 1h625.7v562.82H61.25V1z"/></mask></defs><g mask="url(#a)"><path fill="#00bfd5" fill-rule="evenodd" d="M686.91 170.82C685.7 94.07 629.6 2.35 543.15 1c-33.61-.5-64.76 11.69-91.58 30.73C438 41.35 425.6 52.42 413.75 64c-10.7 10.35-23.33 23.53-39.65 23-16.32.49-29-12.69-39.65-23.09-11.85-11.53-24.26-22.6-37.82-32.22C269.81 12.69 238.66.5 205.05 1 118.6 2.35 62.5 94.07 61.29 170.82c-2.45 155.5 108.51 273.38 233.17 356.1 24.34 16.16 50.62 32.85 79.25 36.77v.13l.39-.07.39.07v-.13c28.63-3.92 54.91-20.61 79.25-36.77 124.66-82.72 235.62-200.6 233.17-356.1"/></g></svg>