<svg id="圖層_1" data-name="圖層 1" xmlns="http://www.w3.org/2000/svg" xmlns:xlink="http://www.w3.org/1999/xlink" viewBox="0 0 800 564"><defs><style>.cls-1{fill:#fff;}.cls-1,.cls-3{fill-rule:evenodd;}.cls-2{mask:url(#mask);}.cls-3{fill:#00bfd5;}</style><mask id="mask" x="61.25" y="1" width="625.7" height="562.82" maskUnits="userSpaceOnUse"><g id="mask-2"><polygon id="path-1" class="cls-1" points="61.25 1 686.95 1 686.95 563.82 61.25 563.82 61.25 1"/></g></mask></defs><g class="cls-2"><path id="Fill-1" class="cls-3" d="M686.91,170.82C685.7,94.07,629.6,2.35,543.15,1,509.54.5,478.39,12.69,451.57,31.73,438,41.35,425.6,52.42,413.75,64,403.05,74.35,390.42,87.53,374.1,87c-16.32.49-29-12.69-39.65-23.09-11.85-11.53-24.26-22.6-37.82-32.22C269.81,12.69,238.66.5,205.05,1,118.6,2.35,62.5,94.07,61.29,170.82,58.84,326.32,169.8,444.2,294.46,526.92c24.34,16.16,50.62,32.85,79.25,36.77v.13l.39-.07.39.07v-.13c28.63-3.92,54.91-20.61,79.25-36.77,124.66-82.72,235.62-200.6,233.17-356.1"/></g></svg>