<svg width="499px" height="144px" viewBox="0 0 499 144">
        <g
          id="Symbols"
          stroke="none"
          stroke-width="1"
          fill="none"
          fill-rule="evenodd"
        >
          <g id="logo">
            <path
              d="M269.70858,40 L308.29142,40 C309.78772,40 311,38.7307344 311,37.1640979 L311,34.8359021 C311,33.2692656 309.78772,32 308.29142,32 L269.70858,32 C268.21228,32 267,33.2692656 267,34.8359021 L267,37.1640979 C267,38.7307344 268.21228,40 269.70858,40"
              id="Fill-1"
              fill="#000000"
            />
            <path
              d="M157.843662,134.021536 C157.566717,133.692831 157.084876,133.663361 156.749389,133.933126 C156.100931,134.449986 155.303868,134.808161 154.378464,134.808161 C152.201175,134.808161 150.793931,133.026353 150.793931,129.956928 C150.793931,126.953245 152.428586,125.171437 154.418992,125.171437 C155.24983,125.171437 155.914049,125.454803 156.521978,125.899122 C156.855214,126.14395 157.319042,126.096345 157.582478,125.776707 L158.570926,124.579768 C158.841117,124.251063 158.80284,123.759139 158.471856,123.491641 C157.438376,122.650609 156.035635,122 154.355948,122 C150.440431,122 147,124.942477 147,130.08161 C147,135.304619 150.316594,138 154.23211,138 C155.981597,138 157.512679,137.417399 158.742047,136.268065 C159.048264,135.982431 159.091044,135.508643 158.820853,135.186738 L157.843662,134.021536 Z"
              id="Fill-3"
              fill="#000000"
            />
            <path
              d="M176.490022,122 C175.631929,122 175,122.596138 175,123.501207 C175,124.38214 175.631929,125 176.490022,125 C177.345898,125 178,124.38214 178,123.501207 C178,122.596138 177.345898,122 176.490022,122"
              id="Fill-5"
              fill="#000000"
            />
            <path
              d="M167.302901,125.969805 C165.662387,125.969805 164.456966,126.844771 163.408464,127.824732 L163.496434,125.500823 L163.496434,121 L161,121 L161,138 L163.496434,138 L163.496434,129.681993 C164.568711,128.636701 165.334284,128.081389 166.449358,128.081389 C167.871136,128.081389 168.484546,128.891024 168.484546,130.918611 L168.484546,138 L171,138 L171,130.619956 C171,127.633407 169.863528,125.969805 167.302901,125.969805"
              id="Fill-7"
              fill="#000000"
            />
            <polygon
              id="Fill-9"
              fill="#000000"
              points="175 139 177 139 177 127 175 127"
            />
            <path
              d="M184.22716,137.025925 C183.908642,137.025925 183.590123,136.794086 183.590123,136.144477 L183.590123,122 L181,122 L181,136.018228 C181,137.886713 181.703704,139 183.590123,139 C184.22716,139 184.681481,138.915069 185,138.809479 L184.659259,136.984607 C184.432099,137.025925 184.340741,137.025925 184.22716,137.025925"
              id="Fill-11"
              fill="#000000"
            />
            <path
              d="M195.672679,135.6 C194.863176,136.566509 194.073471,137.007292 193.140783,137.007292 C191.400792,137.007292 190.408711,135.558677 190.408711,132.934639 C190.408711,130.436867 191.66476,128.905604 193.222173,128.905604 C194.053674,128.905604 194.843379,129.176502 195.672679,129.95476 L195.672679,135.6 Z M195.672679,126.281567 L195.773867,128.191627 C194.863176,127.392708 194.053674,126.889939 192.777827,126.889939 C190.287725,126.889939 188,129.217826 188,132.975962 C188,136.796084 189.801584,139 192.595249,139 C193.851298,139 195.00396,138.30898 195.83326,137.425118 L195.894853,137.425118 L196.097228,138.726806 L198,138.726806 L198,122 L195.672679,122 L195.672679,126.281567 Z"
              id="Fill-12"
              fill="#000000"
            />
            <path
              d="M233.358188,131.99109 C233.589204,129.97327 234.874657,128.872227 236.327081,128.872227 C238.010522,128.872227 238.916285,130.016493 238.916285,131.99109 L233.358188,131.99109 Z M236.283623,127 C233.568618,127 231,129.309005 231,133.030711 C231,136.79564 233.506862,139 236.642726,139 C238.156908,139 239.483532,138.501801 240.558554,137.794313 L239.716834,136.274692 C238.872827,136.816114 237.989936,137.127773 236.958371,137.127773 C234.959286,137.127773 233.568618,135.817441 233.378774,133.633555 L240.894785,133.633555 C240.958829,133.362844 241,132.885118 241,132.427867 C241,129.183886 239.357731,127 236.283623,127 L236.283623,127 Z"
              id="Fill-13"
              fill="#000000"
            />
            <path
              d="M246.22716,137.027954 C245.908642,137.027954 245.590123,136.796084 245.590123,136.146388 L245.590123,122 L243,122 L243,136.020122 C243,137.888859 243.703704,139 245.590123,139 C246.22716,139 246.681481,138.917353 247,138.811749 L246.659259,136.986631 C246.432099,137.027954 246.340741,137.027954 246.22716,137.027954"
              id="Fill-14"
              fill="#000000"
            />
            <path
              d="M250.51696,125.007831 L250.51696,126.456252 L249,126.582501 L249,128.386713 L250.51696,128.386713 L250.51696,138 L252.842965,138 L252.842965,128.386713 L255.089824,128.386713 L255.089824,126.456252 L252.842965,126.456252 L252.842965,124.987173 C252.842965,123.58007 253.328832,122.909803 254.320352,122.909803 C254.705088,122.909803 255.131595,123.015393 255.536118,123.203619 L256,121.399406 C255.494347,121.167567 254.786432,121 254.036746,121 C251.548053,121 250.51696,122.636646 250.51696,125.007831"
              id="Fill-15"
              fill="#000000"
            />
            <path
              d="M264.669604,135.776493 C263.757709,136.629573 262.96696,137.107299 261.993392,137.107299 C261,137.107299 260.251101,136.650047 260.251101,135.526256 C260.251101,134.238673 261.365639,133.385592 264.669604,132.969289 L264.669604,135.776493 Z M262.947137,127 C261.162996,127 259.601322,127.748436 258.444934,128.496872 L259.317181,130.118863 C260.270925,129.495545 261.365639,128.954123 262.54185,128.954123 C264.182819,128.954123 264.64978,130.118863 264.669604,131.449668 C260.026432,131.970616 258,133.24 258,135.694597 C258,137.710142 259.356828,139 261.284141,139 C262.621145,139 263.817181,138.315261 264.832599,137.418957 L264.89207,137.418957 L265.094714,138.729289 L267,138.729289 L267,131.845498 C267,128.808531 265.722467,127 262.947137,127 L262.947137,127 Z"
              id="Fill-16"
              fill="#000000"
            />
            <path
              d="M272.29108,128.404189 L272.225352,128.404189 L272.030516,126.297905 L270,126.297905 L270,138 L272.464789,138 L272.464789,130.703646 C273.220657,128.851047 274.387324,128.19007 275.359155,128.19007 C275.833333,128.19007 276.13615,128.255237 276.546948,128.383243 L277,126.256012 C276.633803,126.086113 276.244131,126 275.661972,126 C274.387324,126 273.133803,126.893716 272.29108,128.404189"
              id="Fill-17"
              fill="#000000"
            />
            <path
              d="M280.358188,131.99109 C280.589204,129.97327 281.874657,128.872227 283.327081,128.872227 C285.010522,128.872227 285.916285,130.016493 285.916285,131.99109 L280.358188,131.99109 Z M283.283623,127 C280.568618,127 278,129.309005 278,133.030711 C278,136.79564 280.504575,139 283.642726,139 C285.156908,139 286.483532,138.501801 287.558554,137.794313 L286.716834,136.274692 C285.872827,136.816114 284.989936,137.127773 283.958371,137.127773 C281.959286,137.127773 280.568618,135.817441 280.378774,133.633555 L287.894785,133.633555 C287.958829,133.362844 288,132.885118 288,132.427867 C288,129.183886 286.357731,127 283.283623,127 L283.283623,127 Z"
              id="Fill-18"
              fill="#000000"
            />
            <path
              d="M228.205078,122 L226.218266,122 C225.822293,122 225.486527,122.294031 225.430951,122.689209 L224.502383,129.289621 C224.312501,130.945604 224.099463,132.646281 223.907266,134.365775 L223.800747,134.365775 C223.481189,132.646281 223.203314,130.924434 222.883756,129.289621 L221.364702,122.623346 C221.281339,122.258747 220.959467,122 220.588965,122 L218.66236,122 C218.289543,122 217.96767,122.2611 217.886623,122.625698 L216.404619,129.289621 C216.085062,130.945604 215.765505,132.667451 215.466788,134.365775 L215.38111,134.365775 L214.741995,129.289621 L213.836583,122.691561 C213.781008,122.296383 213.445242,122 213.049269,122 L210.793843,122 C210.298298,122 209.923166,122.453984 210.013475,122.945604 L212.620877,137.34137 C212.68803,137.722435 213.019165,138 213.401245,138 L216.798276,138 C217.175724,138 217.502228,137.729491 217.576329,137.355484 L218.833717,131.032637 C219.069911,129.807116 219.259793,128.515731 219.45199,127.311379 L219.558509,127.311379 C219.709025,128.515731 219.922064,129.807116 220.176783,131.032637 L221.473537,137.360188 C221.549953,137.731844 221.876457,138 222.251589,138 L225.731983,138 C226.118694,138 226.447514,137.720082 226.514667,137.334313 L228.987762,122.938547 C229.07344,122.44928 228.698308,122 228.205078,122"
              id="Fill-19"
              fill="#000000"
            />
            <path
              d="M341.223205,141.406608 C339.284481,141.406608 338.089282,140.734862 338.089282,139.602293 C338.089282,139.017667 338.388082,138.430748 339.09223,137.926365 C339.580964,138.031827 340.116024,138.093729 340.669615,138.093729 L342.43925,138.093729 C343.866077,138.093729 344.635081,138.387188 344.635081,139.352394 C344.635081,140.420769 343.270794,141.406608 341.223205,141.406608 M340.945252,127.698854 C342.182144,127.698854 343.164245,128.599865 343.164245,130.149697 C343.164245,131.681187 342.161297,132.623466 340.945252,132.623466 C339.731522,132.623466 338.728574,131.681187 338.728574,130.149697 C338.728574,128.579231 339.710676,127.698854 340.945252,127.698854 M342.779743,136.16561 L340.625605,136.16561 C339.133923,136.16561 338.666035,135.725421 338.666035,135.033041 C338.666035,134.489683 338.920825,134.152664 339.305327,133.817937 C339.817225,134.049494 340.412508,134.17559 340.945252,134.17559 C343.398189,134.17559 345.336913,132.728928 345.336913,130.213891 C345.336913,129.333513 345.017267,128.558597 344.570225,128.095482 L346.807749,128.095482 L346.807749,126.293459 L342.652348,126.293459 C342.20299,126.126096 341.607707,126 340.945252,126 C338.515477,126 336.405348,127.529198 336.405348,130.149697 C336.405348,131.511531 337.15119,132.602832 337.94104,133.210384 L337.94104,133.295212 C337.301748,133.756035 336.639292,134.530951 336.639292,135.431962 C336.639292,136.376534 337.109497,136.984086 337.70478,137.339447 L337.70478,137.444909 C336.618446,138.093729 336,138.99474 336,139.959946 C336,141.972893 338.047589,143 340.859549,143 C344.611918,143 347,141.195684 347,138.974107 C347,137.00472 345.550011,136.16561 342.779743,136.16561"
              id="Fill-20"
              fill="#000000"
            />
            <path
              d="M314.358188,131.99109 C314.589204,129.97327 315.874657,128.872227 317.327081,128.872227 C319.010522,128.872227 319.916285,130.014218 319.916285,131.99109 L314.358188,131.99109 Z M317.283623,127 C314.568618,127 312,129.30673 312,133.030711 C312,136.79564 314.506862,139 317.642726,139 C319.156908,139 320.483532,138.501801 321.558554,137.794313 L320.716834,136.274692 C319.872827,136.816114 318.989936,137.127773 317.958371,137.127773 C315.959286,137.127773 314.568618,135.817441 314.378774,133.633555 L321.894785,133.633555 C321.958829,133.365118 322,132.885118 322,132.427867 C322,129.183886 320.357731,127 317.283623,127 L317.283623,127 Z"
              id="Fill-21"
              fill="#000000"
            />
            <path
              d="M331.669604,135.776493 C330.757709,136.629573 329.96696,137.107299 328.993392,137.107299 C328,137.107299 327.251101,136.650047 327.251101,135.526256 C327.251101,134.238673 328.365639,133.385592 331.669604,132.969289 L331.669604,135.776493 Z M329.947137,127 C328.162996,127 326.601322,127.748436 325.447137,128.496872 L326.317181,130.118863 C327.270925,129.495545 328.365639,128.954123 329.539648,128.954123 C331.182819,128.954123 331.64978,130.118863 331.669604,131.449668 C327.026432,131.970616 325,133.24 325,135.694597 C325,137.710142 326.359031,139 328.284141,139 C329.621145,139 330.817181,138.315261 331.832599,137.418957 L331.89207,137.418957 L332.094714,138.729289 L334,138.729289 L334,131.845498 C334,128.808531 332.72467,127 329.947137,127 L329.947137,127 Z"
              id="Fill-22"
              fill="#000000"
            />
            <path
              d="M357.467688,135.141442 C356.455242,136.377113 355.682145,136.890033 354.559598,136.890033 C353.128291,136.890033 352.532312,136.102001 352.532312,134.075967 L352.532312,127 L350,127 L350,134.374393 C350,137.358656 351.122547,139 353.700335,139 C355.375778,139 356.565342,138.190985 357.666348,136.952982 L357.733365,136.952982 L357.929631,138.722557 L360,138.722557 L360,127 L357.467688,127 L357.467688,135.141442 Z"
              id="Fill-23"
              fill="#000000"
            />
            <path
              d="M364.358188,131.99109 C364.589204,129.97327 365.874657,128.872227 367.327081,128.872227 C369.010522,128.872227 369.916285,130.014218 369.916285,131.99109 L364.358188,131.99109 Z M367.283623,127 C364.568618,127 362,129.30673 362,133.030711 C362,136.79564 364.506862,139 367.642726,139 C369.156908,139 370.483532,138.501801 371.558554,137.794313 L370.716834,136.274692 C369.872827,136.816114 368.989936,137.127773 367.958371,137.127773 C365.959286,137.127773 364.568618,135.817441 364.378774,133.633555 L371.894785,133.633555 C371.958829,133.365118 372,132.885118 372,132.427867 C372,129.183886 370.357731,127 367.283623,127 L367.283623,127 Z"
              id="Fill-24"
              fill="#000000"
            />
            <path
              d="M309.201486,134.775066 L304.621634,134.775066 C304.180594,134.775066 303.825441,134.415172 303.825441,133.972949 L303.825441,122.802117 C303.825441,122.359894 303.467967,122 303.026927,122 L300.796193,122 C300.357474,122 300,122.359894 300,122.802117 L300,137.197883 C300,137.642458 300.357474,138 300.796193,138 L309.201486,138 C309.642526,138 310,137.642458 310,137.197883 L310,135.577183 C310,135.13496 309.642526,134.775066 309.201486,134.775066"
              id="Fill-25"
              fill="#000000"
            />
            <path
              d="M393.215283,122 L384.784717,122 C384.350034,122 384,122.359894 384,122.802117 L384,137.197883 C384,137.640106 384.350034,138 384.784717,138 L386.983299,138 C387.417982,138 387.768016,137.640106 387.768016,137.197883 L387.768016,132.695678 C387.768016,132.251103 388.120339,131.893561 388.555022,131.893561 L392.332189,131.893561 C392.764585,131.893561 393.116907,131.533667 393.116907,131.091444 L393.116907,129.491914 C393.116907,129.047339 392.764585,128.689797 392.332189,128.689797 L388.555022,128.689797 C388.120339,128.689797 387.768016,128.329903 387.768016,127.885328 L387.768016,125.98471 C387.768016,125.542488 388.120339,125.182593 388.555022,125.182593 L393.215283,125.182593 C393.649966,125.182593 394,124.825051 394,124.380476 L394,122.802117 C394,122.359894 393.649966,122 393.215283,122"
              id="Fill-26"
              fill="#000000"
            />
            <path
              d="M401.5,137.045877 C399.675126,137.045877 398.528523,135.44436 398.528523,133.030711 C398.528523,130.598863 399.675126,128.976872 401.5,128.976872 C403.347945,128.976872 404.494547,130.598863 404.494547,133.030711 C404.494547,135.44436 403.347945,137.045877 401.5,137.045877 M401.5,127 C398.611577,127 396,129.20436 396,133.030711 C396,136.816114 398.611577,139 401.5,139 C404.388423,139 407,136.816114 407,133.030711 C407,129.20436 404.388423,127 401.5,127"
              id="Fill-27"
              fill="#000000"
            />
            <path
              d="M416.467688,135.141442 C415.452848,136.377113 414.682145,136.890033 413.559598,136.890033 C412.128291,136.890033 411.532312,136.09967 411.532312,134.075967 L411.532312,127 L409,127 L409,134.374393 C409,137.358656 410.122547,139 412.700335,139 C414.375778,139 415.565342,138.190985 416.666348,136.952982 L416.733365,136.952982 L416.929631,138.722557 L419,138.722557 L419,127 L416.467688,127 L416.467688,135.141442 Z"
              id="Fill-28"
              fill="#000000"
            />
            <path
              d="M428.301402,126 C426.661279,126 425.434752,126.87277 424.319943,127.915438 L424.253387,127.915438 L424.058474,126.297905 L422,126.297905 L422,138 L424.49584,138 L424.49584,129.70287 C425.565486,128.660202 426.333254,128.106284 427.448063,128.106284 C428.869503,128.106284 429.482767,128.916214 429.482767,130.936385 L429.482767,138 L432,138 L432,130.638479 C432,127.659426 430.861421,126 428.301402,126"
              id="Fill-29"
              fill="#000000"
            />
            <path
              d="M442.672679,135.6 C441.863176,136.566509 441.073471,137.007292 440.140783,137.007292 C438.400792,137.007292 437.408711,135.558677 437.408711,132.934639 C437.408711,130.436867 438.66256,128.905604 440.222173,128.905604 C441.051474,128.905604 441.843379,129.176502 442.672679,129.95476 L442.672679,135.6 Z M442.672679,126.281567 L442.773867,128.191627 C441.863176,127.392708 441.051474,126.889939 439.777827,126.889939 C437.287725,126.889939 435,129.220122 435,132.975962 C435,136.796084 436.801584,139 439.595249,139 C440.849098,139 442.00396,138.30898 442.83326,137.425118 L442.894853,137.425118 L443.097228,138.726806 L445,138.726806 L445,122 L442.672679,122 L442.672679,126.281567 Z"
              id="Fill-30"
              fill="#000000"
            />
            <path
              d="M454.669604,135.776493 C453.757709,136.629573 452.96696,137.107299 451.993392,137.107299 C451,137.107299 450.251101,136.650047 450.251101,135.526256 C450.251101,134.238673 451.365639,133.385592 454.669604,132.969289 L454.669604,135.776493 Z M452.947137,127 C451.162996,127 449.601322,127.748436 448.447137,128.496872 L449.317181,130.118863 C450.270925,129.495545 451.365639,128.954123 452.539648,128.954123 C454.182819,128.954123 454.64978,130.118863 454.669604,131.449668 C450.026432,131.970616 448,133.24 448,135.694597 C448,137.710142 449.359031,139 451.284141,139 C452.621145,139 453.817181,138.315261 454.832599,137.418957 L454.89207,137.418957 L455.094714,138.729289 L457,138.729289 L457,131.845498 C457,128.808531 455.722467,127 452.947137,127 L452.947137,127 Z"
              id="Fill-31"
              fill="#000000"
            />
            <path
              d="M465.197735,137.070216 C463.912152,137.070216 463.39547,136.356586 463.39547,134.972923 L463.39547,129.119321 L466.617998,129.119321 L466.617998,127.189536 L463.39547,127.189536 L463.39547,124 L461.208754,124 L460.914907,127.189536 L459,127.315741 L459,129.119321 L460.802265,129.119321 L460.802265,134.952272 C460.802265,137.38458 461.771962,139 464.565963,139 C465.467095,139 466.302112,138.791189 467,138.580083 L466.527395,136.797155 C466.167432,136.946306 465.626263,137.070216 465.197735,137.070216"
              id="Fill-32"
              fill="#000000"
            />
            <polygon
              id="Fill-33"
              fill="#000000"
              points="470 139 472 139 472 127 470 127"
            />
            <path
              d="M471.490022,122 C470.631929,122 470,122.596138 470,123.501207 C470,124.38214 470.631929,125 471.490022,125 C472.348115,125 473,124.38214 473,123.501207 C473,122.596138 472.348115,122 471.490022,122"
              id="Fill-34"
              fill="#000000"
            />
            <path
              d="M480.5,137.045877 C478.675126,137.045877 477.528523,135.44436 477.528523,133.030711 C477.528523,130.598863 478.675126,128.976872 480.5,128.976872 C482.347945,128.976872 483.494547,130.598863 483.494547,133.030711 C483.494547,135.44436 482.347945,137.045877 480.5,137.045877 M480.5,127 C477.611577,127 475,129.20436 475,133.030711 C475,136.816114 477.611577,139 480.5,139 C483.388423,139 486,136.816114 486,133.030711 C486,129.20436 483.388423,127 480.5,127"
              id="Fill-35"
              fill="#000000"
            />
            <path
              d="M495.302901,126 C493.662387,126 492.435568,126.87277 491.320495,127.915438 L491.253923,127.915438 L491.056586,126.297905 L489,126.297905 L489,138 L491.494056,138 L491.494056,129.70287 C492.566334,128.660202 493.334284,128.106284 494.449358,128.106284 C495.871136,128.106284 496.484546,128.916214 496.484546,130.936385 L496.484546,138 L499,138 L499,130.638479 C499,127.659426 497.863528,126 495.302901,126"
              id="Fill-36"
              fill="#000000"
            />
            <path
              d="M481.122566,100.91445 C481.122566,101.670218 480.519205,102.281364 479.773065,102.281364 L472.47056,102.281364 C471.726722,102.281364 471.121059,101.670218 471.121059,100.91445 L471.121059,82.087883 C471.121059,81.3321145 471.726722,80.7186357 472.47056,80.7186357 L479.773065,80.7186357 C480.519205,80.7186357 481.122566,81.3321145 481.122566,82.087883 L481.122566,100.91445 Z M463.500753,100.91445 C463.500753,101.670218 462.897393,102.281364 462.151252,102.281364 L454.848748,102.281364 C454.10491,102.281364 453.499247,101.670218 453.499247,100.91445 L453.499247,82.087883 C453.499247,81.3321145 454.10491,80.7186357 454.848748,80.7186357 L462.151252,80.7186357 C462.897393,80.7186357 463.500753,81.3321145 463.500753,82.087883 L463.500753,100.91445 Z M445.878941,100.91445 C445.878941,101.670218 445.275581,102.281364 444.52944,102.281364 L437.229238,102.281364 C436.483098,102.281364 435.877434,101.670218 435.877434,100.91445 L435.877434,82.087883 C435.877434,81.3321145 436.483098,80.7186357 437.229238,80.7186357 L444.52944,80.7186357 C445.275581,80.7186357 445.878941,81.3321145 445.878941,82.087883 L445.878941,100.91445 Z M496.300998,102.281364 L491.441873,102.281364 C489.951895,102.281364 488.742871,101.056739 488.742871,99.547535 L488.742871,75.7361619 C488.742871,74.2246249 487.533847,73 486.041566,73 L430.958434,73 C429.466153,73 428.257129,74.2246249 428.257129,75.7361619 L428.257129,99.547535 C428.257129,101.056739 427.050408,102.281364 425.558127,102.281364 L420.699002,102.281364 C419.209024,102.281364 418,103.505989 418,105.017526 L418,107.266171 C418,108.775375 419.209024,110 420.699002,110 L496.300998,110 C497.793279,110 499,108.775375 499,107.266171 L499,105.017526 C499,103.505989 497.793279,102.281364 496.300998,102.281364 L496.300998,102.281364 Z"
              id="Fill-37"
              fill="#000000"
            />
            <path
              d="M431.606897,54.6137697 C431.606897,53.8744295 432.211494,53.276568 432.954023,53.276568 L444.045977,53.276568 C444.790805,53.276568 445.393103,53.8744295 445.393103,54.6137697 L445.393103,58.1119442 C445.393103,58.8512844 444.790805,59.4514278 444.045977,59.4514278 L432.954023,59.4514278 C432.211494,59.4514278 431.606897,58.8512844 431.606897,58.1119442 L431.606897,54.6137697 Z M431.606897,40.8880558 C431.606897,40.1509975 432.211494,39.5508541 432.954023,39.5508541 L444.045977,39.5508541 C444.790805,39.5508541 445.393103,40.1509975 445.393103,40.8880558 L445.393103,44.3885122 C445.393103,45.1278524 444.790805,45.7257139 444.045977,45.7257139 L432.954023,45.7257139 C432.211494,45.7257139 431.606897,45.1278524 431.606897,44.3885122 L431.606897,40.8880558 Z M426.696552,67 L450.305747,67 C451.793103,67 453,65.804277 453,64.3255966 L453,34.6766854 C453,33.198005 451.793103,32 450.305747,32 L426.696552,32 C425.206897,32 424,33.198005 424,34.6766854 L424,64.3255966 C424,65.804277 425.206897,67 426.696552,67 L426.696552,67 Z"
              id="Fill-38"
              fill="#000000"
            />
            <path
              d="M466.539108,52.7728961 C466.539108,52.035316 467.150961,51.4388777 467.9024,51.4388777 L483.938529,51.4388777 C484.692294,51.4388777 485.301821,52.035316 485.301821,52.7728961 L485.301821,54.8240061 C485.301821,55.5615862 484.692294,56.1580244 483.938529,56.1580244 L467.9024,56.1580244 C467.150961,56.1580244 466.539108,55.5615862 466.539108,54.8240061 L466.539108,52.7728961 Z M466.539108,40.8691729 C466.539108,40.1315928 467.150961,39.5328781 467.9024,39.5328781 L483.938529,39.5328781 C484.692294,39.5328781 485.301821,40.1315928 485.301821,40.8691729 L485.301821,42.5742578 C485.301821,43.3072849 484.692294,43.9059996 483.938529,43.9059996 L467.9024,43.9059996 C467.150961,43.9059996 466.539108,43.3072849 466.539108,42.5742578 L466.539108,40.8691729 Z M457.531145,67.7680814 L459.548166,68.7287567 C460.902152,69.3752775 462.53531,68.8266454 463.193692,67.501733 L464.722161,64.4398651 C464.950152,63.9822922 465.424745,63.6909026 465.945867,63.6909026 L483.938529,63.6909026 C484.692294,63.6909026 485.301821,64.2873408 485.301821,65.0249209 L485.301821,66.2314562 C485.301821,67.7043399 486.5232,68.8994928 488.030731,68.8994928 L490.273416,68.8994928 C491.778621,68.8994928 493,67.7043399 493,66.2314562 L493,34.6703131 C493,33.1951529 491.778621,32 490.273416,32 L461.569839,32 C460.062308,32 458.840929,33.1951529 458.840929,34.6703131 L458.840929,58.4390592 C458.840929,58.8442729 458.745545,59.2426572 458.564083,59.6091708 L456.277195,64.2008345 C455.616487,65.5234704 456.177159,67.1215606 457.531145,67.7680814 L457.531145,67.7680814 Z"
              id="Fill-39"
              fill="#000000"
            />
            <path
              d="M301.47823,56.8567754 C301.47823,58.323593 300.28484,59.5119868 298.814128,59.5119868 L280.185872,59.5119868 C278.71516,59.5119868 277.52177,58.323593 277.52177,56.8567754 L277.52177,55.1432246 C277.52177,53.6786706 278.71516,52.4902768 280.185872,52.4902768 L298.814128,52.4902768 C300.28484,52.4902768 301.47823,53.6786706 301.47823,55.1432246 L301.47823,56.8567754 Z M306.333625,45 L272.664102,45 C271.19339,45 270,46.1883939 270,47.6552114 L270,64.3470522 C270,65.8116061 271.19339,67 272.664102,67 L306.333625,67 C307.80661,67 309,65.8116061 309,64.3470522 L309,47.6552114 C309,46.1883939 307.80661,45 306.333625,45 L306.333625,45 Z"
              id="Fill-40"
              fill="#000000"
            />
            <path
              d="M305.403878,86.2726012 C305.403878,87.0283697 304.802432,87.6395158 304.05866,87.6395158 L294.644427,87.6395158 C293.900654,87.6395158 293.296913,87.0283697 293.296913,86.2726012 L293.296913,82.0855504 C293.296913,81.3297819 293.900654,80.7186357 294.644427,80.7186357 L304.05866,80.7186357 C304.802432,80.7186357 305.403878,81.3297819 305.403878,82.0855504 L305.403878,86.2726012 Z M305.403878,100.91445 C305.403878,101.667886 304.802432,102.281364 304.05866,102.281364 L294.644427,102.281364 C293.900654,102.281364 293.296913,101.667886 293.296913,100.91445 L293.296913,96.7273988 C293.296913,95.9716303 293.900654,95.3581516 294.644427,95.3581516 L304.05866,95.3581516 C304.802432,95.3581516 305.403878,95.9716303 305.403878,96.7273988 L305.403878,100.91445 Z M285.703087,86.2726012 C285.703087,87.0283697 285.099346,87.6395158 284.355573,87.6395158 L274.94134,87.6395158 C274.197568,87.6395158 273.596122,87.0283697 273.596122,86.2726012 L273.596122,82.0855504 C273.596122,81.3297819 274.197568,80.7186357 274.94134,80.7186357 L284.355573,80.7186357 C285.099346,80.7186357 285.703087,81.3297819 285.703087,82.0855504 L285.703087,86.2726012 Z M285.703087,100.91445 C285.703087,101.667886 285.099346,102.281364 284.355573,102.281364 L274.94134,102.281364 C274.197568,102.281364 273.596122,101.667886 273.596122,100.91445 L273.596122,96.7273988 C273.596122,95.9716303 274.197568,95.3581516 274.94134,95.3581516 L284.355573,95.3581516 C285.099346,95.3581516 285.703087,95.9716303 285.703087,96.7273988 L285.703087,100.91445 Z M313,107.263838 L313,75.7338293 C313,74.2246249 311.794813,73 310.309563,73 L268.690437,73 C267.205187,73 266,74.2246249 266,75.7338293 L266,107.263838 C266,108.775375 267.205187,110 268.690437,110 L310.309563,110 C311.794813,110 313,108.775375 313,107.263838 L313,107.263838 Z"
              id="Fill-41"
              fill="#000000"
            />
            <path
              d="M250.536345,106.300998 L250.536345,70.6796975 L258.569612,80.8769511 C259.365054,81.8879254 261,81.3306229 261,80.0456032 L261,72.5243226 C261,71.923265 260.795922,71.3360248 260.422551,70.8616268 L251.380488,59.3816564 L259.45086,49.1337389 C260.846941,47.3628067 259.57377,44.7720411 257.308037,44.7720411 L250.536345,44.7720411 L250.536345,30.7059108 C250.536345,29.2113269 249.316513,28 247.811435,28 L245.587445,28 C244.082367,28 242.862535,29.2113269 242.862535,30.7059108 L242.862535,44.7720411 L234.717953,44.7720411 C233.217513,44.7720411 232,45.981065 232,47.4710431 L232,49.6910414 C232,51.1833224 233.217513,52.3923464 234.717953,52.3923464 L244.353699,52.3923464 C245.487725,52.3923464 246.123151,53.6865778 245.42511,54.5731953 L232.577449,70.8846558 C232.201759,71.3590538 232,71.946294 232,72.5473517 L232,80.0686322 C232,81.3536519 233.632627,81.9109544 234.430388,80.8999801 L242.862535,70.193785 L242.862535,106.300998 C242.862535,107.793279 244.080048,109 245.582807,109 L247.818393,109 C249.318832,109 250.536345,107.793279 250.536345,106.300998"
              id="Fill-42"
              fill="#000000"
            />
            <path
              d="M406,65.2314434 L406,61.1782143 C406,60.2010352 405.20623,59.4096577 404.226096,59.4096577 L398.386708,59.4096577 C396.909605,59.4096577 396.079023,57.7122103 396.990133,56.5515234 L403.44383,48.3257852 C404.046635,47.5573462 403.910889,46.44483 403.140126,45.8438419 L399.937436,43.3458417 C399.164373,42.7448535 398.050794,42.8801906 397.447989,43.6486296 L394.420158,47.5068815 C393.808149,48.2867898 392.671563,48.4129514 391.9008,47.7844371 L391.235874,47.2407952 C390.488119,46.6329255 390.366178,45.541054 390.95978,44.7840842 L400.719702,32.3445477 C402.104774,30.5805788 400.841644,28 398.593779,28 L395.77762,28 C394.949338,28 394.164771,28.3807787 393.653997,29.0322315 L380.376177,45.9539466 C379.782575,46.7109164 379.904516,47.8027879 380.64997,48.4106576 L387.269323,53.8149629 C388.017078,54.4228326 388.136719,55.5147042 387.543117,56.2716739 L381.370115,64.1418657 C380.459005,65.3025526 381.289588,67 382.766691,67 L404.226096,67 C405.20623,67 406,66.2086225 406,65.2314434"
              id="Fill-43"
              fill="#000000"
            />
            <path
              d="M387.952261,109 C389.454632,109 390.671831,107.796468 390.671831,106.313259 L390.671831,95.5410781 C390.671831,94.8006196 391.279271,94.1977076 392.030456,94.1977076 L402.28043,94.1977076 C403.782801,94.1977076 405,92.994176 405,91.5109665 L405,74.6890335 C405,73.2035316 403.782801,72 402.28043,72 L400.045421,72 C398.545368,72 397.328169,73.2035316 397.328169,74.6890335 L397.328169,85.2686493 C397.328169,86.0114002 396.720729,86.6120198 395.969544,86.6120198 L392.030456,86.6120198 C391.279271,86.6120198 390.671831,86.0114002 390.671831,85.2686493 L390.671831,74.6890335 C390.671831,73.2035316 389.454632,72 387.952261,72 L385.717252,72 C384.217199,72 383,73.2035316 383,74.6890335 L383,106.313259 C383,107.796468 384.217199,109 385.717252,109 L387.952261,109 Z"
              id="Fill-44"
              fill="#000000"
            />
            <path
              d="M378.226096,59.4096577 L372.386708,59.4096577 C370.909605,59.4096577 370.079023,57.7122103 370.990133,56.5515234 L377.44383,48.3257852 C378.046635,47.5573462 377.910889,46.44483 377.140126,45.8438419 L373.937436,43.3458417 C373.164373,42.7448535 372.050794,42.8801906 371.445688,43.6486296 L368.420158,47.5068815 C367.808149,48.2867898 366.669262,48.4129514 365.9008,47.7844371 L365.233573,47.2407952 C364.488119,46.6329255 364.366178,45.541054 364.95978,44.7840842 L374.719702,32.3468415 C376.104774,30.5805788 374.841644,28 372.593779,28 L369.77762,28 C368.947037,28 368.164771,28.3807787 367.651696,29.0322315 L354.376177,45.9539466 C353.782575,46.7109164 353.904516,47.8027879 354.64997,48.4106576 L361.269323,53.8149629 C362.014777,54.4228326 362.136719,55.5147042 361.543117,56.2739678 L355.370115,64.1418657 C354.459005,65.3025526 355.287287,67 356.766691,67 L378.226096,67 C379.20623,67 380,66.2086225 380,65.2314434 L380,61.1782143 C380,60.2010352 379.20623,59.4096577 378.226096,59.4096577"
              id="Fill-45"
              fill="#000000"
            />
            <path
              d="M376.280717,72 L374.045943,72 C372.546048,72 371.328978,73.2035316 371.328978,74.686741 L371.328978,85.2686493 C371.328978,86.0114002 370.719283,86.6120198 369.968177,86.6120198 L366.029505,86.6120198 C365.280717,86.6120198 364.671022,86.0114002 364.671022,85.2686493 L364.671022,74.686741 C364.671022,73.2035316 363.453952,72 361.954057,72 L359.719283,72 C358.217071,72 357,73.2035316 357,74.686741 L357,91.5086741 C357,92.994176 358.217071,94.1977076 359.719283,94.1977076 L366.567334,94.1977076 C367.612856,94.1977076 368.266596,95.3141264 367.747313,96.2104709 L362.665753,104.974473 C361.627187,106.767162 362.934668,109 365.023393,109 L367.598946,109 C368.574921,109 369.474394,108.484201 369.958904,107.64746 L378.638356,92.6755266 C378.874816,92.2674721 379,91.8066914 379,91.336741 L379,74.686741 C379,73.2035316 377.782929,72 376.280717,72"
              id="Fill-46"
              fill="#000000"
            />
            <path
              d="M344.284715,47.8876123 C344.284715,48.6321287 343.673834,49.2341759 342.918394,49.2341759 L338.259845,49.2341759 C337.504404,49.2341759 336.893523,48.6321287 336.893523,47.8876123 L336.893523,40.950282 C336.893523,40.2057656 337.504404,39.6037184 338.259845,39.6037184 L342.918394,39.6037184 C343.673834,39.6037184 344.284715,40.2057656 344.284715,40.950282 L344.284715,47.8876123 Z M344.284715,65.1240861 C344.284715,65.8686025 343.673834,66.4706497 342.918394,66.4706497 L338.259845,66.4706497 C337.504404,66.4706497 336.893523,65.8686025 336.893523,65.1240861 L336.893523,58.1844579 C336.893523,57.4422394 337.504404,56.8378943 338.259845,56.8378943 L342.918394,56.8378943 C343.673834,56.8378943 344.284715,57.4422394 344.284715,58.1844579 L344.284715,65.1240861 Z M344.284715,82.4478797 C344.284715,83.0591184 343.867358,83.5945268 343.268135,83.7507834 L338.611917,84.9686651 C337.74456,85.1961563 336.893523,84.552747 336.893523,83.6680593 L336.893523,75.4209317 C336.893523,74.6764153 337.504404,74.0743681 338.259845,74.0743681 L342.918394,74.0743681 C343.673834,74.0743681 344.284715,74.6764153 344.284715,75.4209317 L344.284715,82.4478797 Z M352,106.306873 L352,34.6931272 C352,33.2063923 350.775907,32 349.265026,32 L327.732642,32 C326.224093,32 325,33.2063923 325,34.6931272 L325,36.9082933 C325,38.3973261 326.224093,39.6037184 327.732642,39.6037184 L329.178238,39.6037184 L329.178238,87.4365991 L327.030829,87.9995822 C325.832383,88.3120953 325,89.3806142 325,90.6030917 L325,92.896386 C325,94.6634635 326.699741,95.9525799 328.434456,95.4998956 L344.284715,91.3522039 L344.284715,106.306873 C344.284715,107.793608 345.508808,109 347.017358,109 L349.265026,109 C350.775907,109 352,107.793608 352,106.306873 L352,106.306873 Z"
              id="Fill-47"
              fill="#000000"
            />
            <path
              d="M220,106.328743 L220,104.094684 C220,102.620571 218.803017,101.425715 217.323987,101.425715 L194.026389,101.425715 C192.547358,101.425715 191.350375,100.228571 191.350375,98.754458 L191.350375,75.0358908 L207.067082,75.0358908 C208.601146,75.0358908 209.846283,73.7952555 209.846283,72.2616288 L209.846283,36.9676135 C209.846283,35.5072346 208.660766,34.3261131 207.20008,34.3261131 L186.342309,34.3261131 C184.918312,34.3261131 183.762605,35.4774777 183.762605,36.8989436 L183.762605,39.3252784 C183.762605,40.7467444 184.918312,41.9003979 186.342309,41.9003979 L199.612309,41.9003979 C201.072995,41.9003979 202.258512,43.0815194 202.258512,44.5418982 L202.258512,49.5525085 C202.258512,50.2918539 201.655435,50.8938596 200.914773,50.8938596 L186.578495,50.8938596 C185.023793,50.8938596 183.762605,52.1528069 183.762605,53.7024566 L183.762605,55.6572584 C183.762605,57.2114861 185.023793,58.4681444 186.578495,58.4681444 L200.914773,58.4681444 C201.655435,58.4681444 202.258512,59.0678611 202.258512,59.8094955 L202.258512,64.687344 C202.258512,66.2209707 201.013375,67.4616061 199.479311,67.4616061 L159.985755,67.4616061 C158.451691,67.4616061 157.206553,66.2209707 157.206553,64.687344 L157.206553,59.8094955 C157.206553,59.0678611 157.809631,58.4681444 158.550293,58.4681444 L172.886571,58.4681444 C174.441272,58.4681444 175.702461,57.2114861 175.702461,55.6572584 L175.702461,53.7024566 C175.702461,52.1528069 174.441272,50.8938596 172.886571,50.8938596 L158.550293,50.8938596 C157.809631,50.8938596 157.206553,50.2918539 157.206553,49.5525085 L157.206553,44.0955442 C157.206553,42.8434639 158.050403,41.7493242 159.263438,41.4288649 L173.799213,37.5741972 C174.920524,37.2789168 175.702461,36.264892 175.702461,35.1066605 L175.702461,32.5544309 C175.702461,30.8788865 174.11107,29.6565631 172.487576,30.0868942 L151.675667,35.6033724 C150.462633,35.9238317 149.618783,37.0179714 149.618783,38.2700517 L149.618783,72.2616288 C149.618783,73.7952555 150.86392,75.0358908 152.397984,75.0358908 L168.022968,75.0358908 L147.463296,104.916433 C146.273193,106.646913 147.513744,109 149.61649,109 L152.485121,109 C153.347316,109 154.152183,108.576536 154.638314,107.869236 L177.227353,75.0358908 L183.762605,75.0358908 L183.762605,106.328743 C183.762605,107.802856 184.959587,109 186.438618,109 L217.323987,109 C218.803017,109 220,107.802856 220,106.328743"
              id="Fill-48"
              fill="#000000"
            />
            <path
              d="M75.253194,39.961297 C86.1255344,41.1273926 96.802577,46.4521778 96.802577,53.4510608 C96.802577,60.4545619 86.1071534,64.0798493 75.2256225,63.5095015 L75.2210273,63.5095015 C63.960389,62.9299174 52.6423102,57.8983879 42.4638512,49.1676798 C51.6543334,42.1803424 63.2274481,38.6797463 75.253194,39.961297 M120.16708,102.29315 L117.092864,101.196327 C115.700506,100.69987 114.170291,101.52191 113.572909,103.069007 C112.87673,104.870106 112.067968,106.634258 111.151217,108.340683 C103.582855,122.426195 89.3766674,131.845015 72.7648709,132.747873 C47.5140212,134.11717 24.9353041,114.450563 24.0691012,87.8197092 C23.694589,76.3134625 27.4856629,65.777038 34.0086077,57.4850589 C46.7879731,68.1323203 61.0584943,74.0805626 75.1773725,74.4638732 C75.1934558,74.4638732 75.2141344,74.4638732 75.2302178,74.4661823 L75.2302178,74.4638732 C93.8340513,74.9695662 106.367571,66.4374407 106.367571,54.2107548 C106.367571,41.9863779 93.8317537,31.4568807 75.2256225,29.0023071 C60.0061841,27.0026263 45.1727459,31.1751705 33.3606787,39.9890062 C28.1404848,33.858345 23.4510413,26.6932068 19.5358959,18.6644652 L32.1728088,24.3563974 C34.3164888,25.3216013 36.6370855,24.5849983 37.3723241,22.7261726 L38.9301108,18.7868475 C39.6584566,16.9441855 38.5555987,14.6466307 36.4509783,13.6444812 L9.7066752,0.882084039 C6.51528027,-0.641922139 2.83219454,-0.189338486 0.975717147,2.2259804 C-0.134033573,3.66685896 -0.262700324,5.65037609 0.415097736,7.54845652 C6.12008954,23.5297395 14.4834283,37.3681774 24.4068514,48.2694398 C14.9889048,59.0136833 9.4608298,73.2285046 10.1593064,88.8957499 C11.6964146,123.421417 42.1238034,147.339078 74.3042767,143.619117 C93.7720155,141.370054 110.062145,129.718334 118.790806,113.048939 C119.932723,110.866839 120.934486,108.610848 121.786903,106.308675 C122.39807,104.657668 121.64445,102.819625 120.16708,102.29315"
              id="Fill-49"
              fill="#DB0032"
            />
            <path
              d="M83.9717642,112.952769 C88.4248454,112.640872 92.7763096,110.771716 96.2832239,107.4411 C97.1955184,106.574471 97.2361652,105.028352 96.4096805,104.146129 L94.9938175,102.628972 C94.271208,101.855912 93.1082583,101.773482 92.2908063,102.504213 C89.9490998,104.59838 87.0609199,105.825918 83.9717642,105.98855 C80.8329291,106.151182 77.8024855,105.197668 75.2778685,103.257222 C74.381381,102.566592 73.0919747,102.760414 72.2812971,103.647093 L70.6780073,105.407085 C69.7295823,106.447485 69.7747454,108.102768 70.8225292,108.915928 C74.7472021,111.963609 79.4148079,113.273577 83.9717642,112.952769"
              id="Fill-50"
              fill="#000000"
            />
            <path
              d="M102.579979,92.9991205 C105.593678,92.9360555 108,89.354864 108,84.9988738 C108,80.645136 105.593678,77.0639445 102.579979,77.0008795 C99.5175975,76.9355621 97,80.5167536 97,84.9988738 C97,89.4832464 99.5175975,93.0644379 102.579979,92.9991205"
              id="Fill-51"
              fill="#000000"
            />
            <path
              d="M62.6043141,76.0011783 C58.9813632,75.9209341 56,79.9491964 56,85 C56,90.0508036 58.9813632,94.0790659 62.6043141,93.9988217 C66.1622088,93.9208701 69,89.8926077 69,85 C69,80.1096849 66.1622088,76.0814226 62.6043141,76.0011783"
              id="Fill-52"
              fill="#000000"
            />
          </g>
        </g>
      </svg>