<svg viewBox="0 0 499 144"><g fill="none" fill-rule="evenodd"><path fill="#000" d="M269.709 40h38.582c1.497 0 2.709-1.27 2.709-2.836v-2.328c0-1.567-1.212-2.836-2.709-2.836H269.71c-1.497 0-2.709 1.27-2.709 2.836v2.328c0 1.567 1.212 2.836 2.709 2.836M157.844 134.022a.78.78 0 0 0-1.095-.089c-.648.517-1.445.875-2.37.875-2.178 0-3.585-1.782-3.585-4.851 0-3.004 1.635-4.786 3.625-4.786.83 0 1.495.284 2.103.728a.775.775 0 0 0 1.06-.122l.989-1.197a.772.772 0 0 0-.1-1.088c-1.033-.841-2.435-1.492-4.115-1.492-3.916 0-7.356 2.942-7.356 8.082 0 5.223 3.317 7.918 7.232 7.918 1.75 0 3.28-.583 4.51-1.732a.787.787 0 0 0 .079-1.081l-.977-1.165zM176.49 122c-.858 0-1.49.596-1.49 1.501 0 .881.632 1.499 1.49 1.499.856 0 1.51-.618 1.51-1.499 0-.905-.654-1.501-1.51-1.501M167.303 125.97c-1.64 0-2.846.875-3.895 1.855l.088-2.324V121H161v17h2.496v-8.318c1.073-1.045 1.838-1.6 2.953-1.6 1.422 0 2.036.809 2.036 2.837V138H171v-7.38c0-2.987-1.136-4.65-3.697-4.65M175 139h2v-12h-2zM184.227 137.026c-.318 0-.637-.232-.637-.882V122H181v14.018c0 1.869.704 2.982 2.59 2.982.637 0 1.091-.085 1.41-.19l-.34-1.825c-.228.04-.32.04-.433.04M195.673 135.6c-.81.967-1.6 1.407-2.532 1.407-1.74 0-2.732-1.448-2.732-4.072 0-2.498 1.256-4.03 2.813-4.03.832 0 1.621.272 2.45 1.05v5.645zm0-9.318l.1 1.91c-.91-.8-1.72-1.302-2.995-1.302-2.49 0-4.778 2.328-4.778 6.086 0 3.82 1.802 6.024 4.595 6.024 1.256 0 2.409-.691 3.238-1.575h.062l.202 1.302H198V122h-2.327v4.282zM233.358 131.991c.231-2.018 1.517-3.119 2.97-3.119 1.683 0 2.588 1.144 2.588 3.12h-5.558zm2.926-4.991c-2.715 0-5.284 2.309-5.284 6.03 0 3.766 2.507 5.97 5.643 5.97 1.514 0 2.84-.498 3.916-1.206l-.842-1.52c-.844.542-1.727.854-2.759.854-1.999 0-3.39-1.31-3.58-3.494h7.517c.064-.271.105-.749.105-1.206 0-3.244-1.642-5.428-4.716-5.428zM246.227 137.028c-.318 0-.637-.232-.637-.882V122H243v14.02c0 1.869.704 2.98 2.59 2.98.637 0 1.091-.083 1.41-.188l-.34-1.825c-.228.041-.32.041-.433.041M250.517 125.008v1.448l-1.517.127v1.804h1.517V138h2.326v-9.613h2.247v-1.93h-2.247v-1.47c0-1.407.486-2.077 1.477-2.077.385 0 .812.105 1.216.294l.464-1.805c-.506-.231-1.214-.399-1.963-.399-2.489 0-3.52 1.637-3.52 4.008M264.67 135.776c-.912.854-1.703 1.331-2.677 1.331-.993 0-1.742-.457-1.742-1.58 0-1.288 1.115-2.141 4.419-2.558v2.807zM262.947 127c-1.784 0-3.346.748-4.502 1.497l.872 1.622c.954-.623 2.049-1.165 3.225-1.165 1.64 0 2.108 1.165 2.128 2.496-4.644.52-6.67 1.79-6.67 4.245 0 2.015 1.357 3.305 3.284 3.305 1.337 0 2.533-.685 3.549-1.581h.06l.202 1.31H267v-6.884c0-3.036-1.278-4.845-4.053-4.845zM272.291 128.404h-.066l-.194-2.106H270V138h2.465v-7.296c.756-1.853 1.922-2.514 2.894-2.514.474 0 .777.065 1.188.193l.453-2.127c-.366-.17-.756-.256-1.338-.256-1.275 0-2.528.894-3.37 2.404M280.358 131.991c.231-2.018 1.517-3.119 2.97-3.119 1.683 0 2.588 1.144 2.588 3.12h-5.558zm2.926-4.991c-2.715 0-5.284 2.309-5.284 6.03 0 3.766 2.505 5.97 5.643 5.97 1.514 0 2.84-.498 3.916-1.206l-.842-1.52c-.844.542-1.727.854-2.759.854-1.999 0-3.39-1.31-3.58-3.494h7.517c.064-.271.105-.749.105-1.206 0-3.244-1.642-5.428-4.716-5.428zM228.205 122h-1.987a.798.798 0 0 0-.787.69l-.929 6.6c-.19 1.656-.403 3.356-.595 5.076h-.106c-.32-1.72-.598-3.442-.917-5.076l-1.52-6.667a.798.798 0 0 0-.775-.623h-1.927a.797.797 0 0 0-.775.626l-1.482 6.664c-.32 1.656-.64 3.377-.938 5.076h-.086l-.639-5.076-.905-6.598a.8.8 0 0 0-.788-.692h-2.255a.799.799 0 0 0-.78.946l2.607 14.395a.796.796 0 0 0 .78.659h3.397c.378 0 .704-.27.778-.645l1.258-6.322c.236-1.226.426-2.517.618-3.722h.107c.15 1.205.363 2.496.618 3.722l1.297 6.327c.076.372.402.64.778.64h3.48c.387 0 .716-.28.783-.666l2.473-14.395a.799.799 0 0 0-.783-.939M341.223 141.407c-1.939 0-3.134-.672-3.134-1.805 0-.584.3-1.171 1.003-1.676a7.524 7.524 0 0 0 1.578.168h1.77c1.426 0 2.195.293 2.195 1.258 0 1.069-1.364 2.055-3.412 2.055m-.278-13.708c1.237 0 2.22.9 2.22 2.45 0 1.532-1.004 2.474-2.22 2.474-1.213 0-2.216-.942-2.216-2.473 0-1.57.982-2.451 2.216-2.451m1.835 8.467h-2.154c-1.492 0-1.96-.44-1.96-1.133 0-.543.255-.88.64-1.215a4.114 4.114 0 0 0 1.64.358c2.452 0 4.39-1.447 4.39-3.962 0-.88-.319-1.655-.766-2.119h2.238v-1.802h-4.156a4.982 4.982 0 0 0-1.707-.293c-2.43 0-4.54 1.53-4.54 4.15 0 1.362.746 2.453 1.536 3.06v.085c-.64.461-1.302 1.236-1.302 2.137 0 .945.47 1.552 1.066 1.907v.106c-1.087.649-1.705 1.55-1.705 2.515 0 2.013 2.048 3.04 4.86 3.04 3.752 0 6.14-1.804 6.14-4.026 0-1.97-1.45-2.808-4.22-2.808M314.358 131.991c.231-2.018 1.517-3.119 2.97-3.119 1.683 0 2.588 1.142 2.588 3.12h-5.558zm2.926-4.991c-2.715 0-5.284 2.307-5.284 6.03 0 3.766 2.507 5.97 5.643 5.97 1.514 0 2.84-.498 3.916-1.206l-.842-1.52c-.844.542-1.727.854-2.759.854-1.999 0-3.39-1.31-3.58-3.494h7.517c.064-.269.105-.749.105-1.206 0-3.244-1.642-5.428-4.716-5.428zM331.67 135.776c-.912.854-1.703 1.331-2.677 1.331-.993 0-1.742-.457-1.742-1.58 0-1.288 1.115-2.141 4.419-2.558v2.807zM329.947 127c-1.784 0-3.346.748-4.5 1.497l.87 1.622c.954-.623 2.049-1.165 3.223-1.165 1.643 0 2.11 1.165 2.13 2.496-4.644.52-6.67 1.79-6.67 4.245 0 2.015 1.359 3.305 3.284 3.305 1.337 0 2.533-.685 3.549-1.581h.06l.202 1.31H334v-6.884c0-3.036-1.275-4.845-4.053-4.845zM357.468 135.141c-1.013 1.236-1.786 1.749-2.908 1.749-1.432 0-2.028-.788-2.028-2.814V127H350v7.374c0 2.985 1.123 4.626 3.7 4.626 1.676 0 2.865-.809 3.966-2.047h.067l.197 1.77H360V127h-2.532v8.141zM364.358 131.991c.231-2.018 1.517-3.119 2.97-3.119 1.683 0 2.588 1.142 2.588 3.12h-5.558zm2.926-4.991c-2.715 0-5.284 2.307-5.284 6.03 0 3.766 2.507 5.97 5.643 5.97 1.514 0 2.84-.498 3.916-1.206l-.842-1.52c-.844.542-1.727.854-2.759.854-1.999 0-3.39-1.31-3.58-3.494h7.517c.064-.269.105-.749.105-1.206 0-3.244-1.642-5.428-4.716-5.428zM309.201 134.775h-4.58a.799.799 0 0 1-.796-.802v-11.17a.8.8 0 0 0-.798-.803h-2.23a.8.8 0 0 0-.797.802v14.396c0 .444.357.802.796.802h8.405a.8.8 0 0 0 .799-.802v-1.62a.8.8 0 0 0-.799-.803M393.215 122h-8.43a.793.793 0 0 0-.785.802v14.396c0 .442.35.802.785.802h2.198c.435 0 .785-.36.785-.802v-4.502c0-.445.352-.802.787-.802h3.777c.433 0 .785-.36.785-.803v-1.6a.793.793 0 0 0-.785-.801h-3.777a.796.796 0 0 1-.787-.805v-1.9c0-.443.352-.802.787-.802h4.66a.792.792 0 0 0 .785-.803v-1.578a.793.793 0 0 0-.785-.802M401.5 137.046c-1.825 0-2.971-1.602-2.971-4.015 0-2.432 1.146-4.054 2.971-4.054 1.848 0 2.995 1.622 2.995 4.054 0 2.413-1.147 4.015-2.995 4.015m0-10.046c-2.888 0-5.5 2.204-5.5 6.03 0 3.786 2.612 5.97 5.5 5.97s5.5-2.184 5.5-5.97c0-3.826-2.612-6.03-5.5-6.03M416.468 135.141c-1.015 1.236-1.786 1.749-2.908 1.749-1.432 0-2.028-.79-2.028-2.814V127H409v7.374c0 2.985 1.123 4.626 3.7 4.626 1.676 0 2.865-.809 3.966-2.047h.067l.197 1.77H419V127h-2.532v8.141zM428.301 126c-1.64 0-2.866.873-3.981 1.915h-.067l-.195-1.617H422V138h2.496v-8.297c1.07-1.043 1.837-1.597 2.952-1.597 1.422 0 2.035.81 2.035 2.83V138H432v-7.362c0-2.979-1.139-4.638-3.699-4.638M442.673 135.6c-.81.967-1.6 1.407-2.532 1.407-1.74 0-2.732-1.448-2.732-4.072 0-2.498 1.254-4.03 2.813-4.03.83 0 1.621.272 2.45 1.05v5.645zm0-9.318l.1 1.91c-.91-.8-1.722-1.302-2.995-1.302-2.49 0-4.778 2.33-4.778 6.086 0 3.82 1.802 6.024 4.595 6.024 1.254 0 2.409-.691 3.238-1.575h.062l.202 1.302H445V122h-2.327v4.282zM454.67 135.776c-.912.854-1.703 1.331-2.677 1.331-.993 0-1.742-.457-1.742-1.58 0-1.288 1.115-2.141 4.419-2.558v2.807zM452.947 127c-1.784 0-3.346.748-4.5 1.497l.87 1.622c.954-.623 2.049-1.165 3.223-1.165 1.643 0 2.11 1.165 2.13 2.496-4.644.52-6.67 1.79-6.67 4.245 0 2.015 1.359 3.305 3.284 3.305 1.337 0 2.533-.685 3.549-1.581h.06l.202 1.31H457v-6.884c0-3.036-1.278-4.845-4.053-4.845zM465.198 137.07c-1.286 0-1.803-.713-1.803-2.097v-5.854h3.223v-1.93h-3.223V124h-2.186l-.294 3.19-1.915.126v1.803h1.802v5.833c0 2.433.97 4.048 3.764 4.048.901 0 1.736-.209 2.434-.42l-.473-1.783a3.87 3.87 0 0 1-1.33.273M470 139h2v-12h-2zM471.49 122c-.858 0-1.49.596-1.49 1.501 0 .881.632 1.499 1.49 1.499s1.51-.618 1.51-1.499c0-.905-.652-1.501-1.51-1.501M480.5 137.046c-1.825 0-2.971-1.602-2.971-4.015 0-2.432 1.146-4.054 2.971-4.054 1.848 0 2.995 1.622 2.995 4.054 0 2.413-1.147 4.015-2.995 4.015m0-10.046c-2.888 0-5.5 2.204-5.5 6.03 0 3.786 2.612 5.97 5.5 5.97s5.5-2.184 5.5-5.97c0-3.826-2.612-6.03-5.5-6.03M495.303 126c-1.64 0-2.867.873-3.983 1.915h-.066l-.197-1.617H489V138h2.494v-8.297c1.072-1.043 1.84-1.597 2.955-1.597 1.422 0 2.036.81 2.036 2.83V138H499v-7.362c0-2.979-1.136-4.638-3.697-4.638M481.123 100.914c0 .756-.604 1.367-1.35 1.367h-7.302c-.744 0-1.35-.61-1.35-1.367V82.088c0-.756.606-1.37 1.35-1.37h7.302c.746 0 1.35.614 1.35 1.37v18.826zm-17.622 0c0 .756-.604 1.367-1.35 1.367h-7.302c-.744 0-1.35-.61-1.35-1.367V82.088c0-.756.606-1.37 1.35-1.37h7.302c.746 0 1.35.614 1.35 1.37v18.826zm-17.622 0c0 .756-.603 1.367-1.35 1.367h-7.3a1.36 1.36 0 0 1-1.352-1.367V82.088c0-.756.606-1.37 1.352-1.37h7.3c.747 0 1.35.614 1.35 1.37v18.826zm50.422 1.367h-4.86c-1.49 0-2.698-1.224-2.698-2.733V75.736c0-1.511-1.21-2.736-2.701-2.736h-55.084c-1.492 0-2.7 1.225-2.7 2.736v23.812c0 1.509-1.208 2.733-2.7 2.733H420.7c-1.49 0-2.699 1.225-2.699 2.737v2.248c0 1.51 1.209 2.734 2.699 2.734h75.602c1.492 0 2.699-1.225 2.699-2.734v-2.248c0-1.512-1.207-2.737-2.699-2.737zM431.607 54.614c0-.74.604-1.337 1.347-1.337h11.092c.745 0 1.347.597 1.347 1.337v3.498c0 .74-.602 1.34-1.347 1.34h-11.092c-.743 0-1.347-.6-1.347-1.34v-3.498zm0-13.726c0-.737.604-1.337 1.347-1.337h11.092c.745 0 1.347.6 1.347 1.337v3.5c0 .74-.602 1.338-1.347 1.338h-11.092a1.343 1.343 0 0 1-1.347-1.337v-3.5zM426.697 67h23.609A2.684 2.684 0 0 0 453 64.326v-29.65A2.686 2.686 0 0 0 450.306 32h-23.61A2.686 2.686 0 0 0 424 34.677v29.649A2.684 2.684 0 0 0 426.697 67zM466.54 52.773c0-.738.611-1.334 1.362-1.334h16.037c.753 0 1.363.596 1.363 1.334v2.051c0 .738-.61 1.334-1.363 1.334h-16.037c-.751 0-1.363-.596-1.363-1.334v-2.051zm0-11.904c0-.737.611-1.336 1.362-1.336h16.037c.753 0 1.363.599 1.363 1.336v1.705c0 .733-.61 1.332-1.363 1.332h-16.037c-.751 0-1.363-.599-1.363-1.332V40.87zm-9.009 26.9l2.017.96c1.354.646 2.987.098 3.646-1.227l1.528-3.062a1.365 1.365 0 0 1 1.224-.75h17.993c.753 0 1.363.597 1.363 1.335v1.206c0 1.473 1.221 2.668 2.729 2.668h2.242c1.506 0 2.727-1.195 2.727-2.668v-31.56c0-1.476-1.221-2.671-2.727-2.671H461.57c-1.508 0-2.73 1.195-2.73 2.67v23.77c0 .404-.094.803-.276 1.17l-2.287 4.59c-.66 1.323-.1 2.922 1.254 3.568zM301.478 56.857a2.66 2.66 0 0 1-2.664 2.655h-18.628a2.66 2.66 0 0 1-2.664-2.655v-1.714a2.66 2.66 0 0 1 2.664-2.653h18.628a2.66 2.66 0 0 1 2.664 2.653v1.714zM306.334 45h-33.67A2.66 2.66 0 0 0 270 47.655v16.692A2.66 2.66 0 0 0 272.664 67h33.67A2.66 2.66 0 0 0 309 64.347V47.655A2.66 2.66 0 0 0 306.334 45zM305.404 86.273c0 .755-.602 1.367-1.345 1.367h-9.415a1.357 1.357 0 0 1-1.347-1.367v-4.187c0-.756.604-1.367 1.347-1.367h9.415c.743 0 1.345.61 1.345 1.367v4.187zm0 14.641c0 .754-.602 1.367-1.345 1.367h-9.415a1.359 1.359 0 0 1-1.347-1.367v-4.187c0-.755.604-1.369 1.347-1.369h9.415c.743 0 1.345.614 1.345 1.37v4.186zm-19.7-14.641c0 .755-.605 1.367-1.348 1.367h-9.415a1.355 1.355 0 0 1-1.345-1.367v-4.187c0-.756.602-1.367 1.345-1.367h9.415c.743 0 1.347.61 1.347 1.367v4.187zm0 14.641c0 .754-.605 1.367-1.348 1.367h-9.415a1.357 1.357 0 0 1-1.345-1.367v-4.187c0-.755.602-1.369 1.345-1.369h9.415a1.36 1.36 0 0 1 1.347 1.37v4.186zm27.296 6.35v-31.53c0-1.51-1.205-2.734-2.69-2.734h-41.62c-1.485 0-2.69 1.225-2.69 2.734v31.53c0 1.511 1.205 2.736 2.69 2.736h41.62c1.485 0 2.69-1.225 2.69-2.736zM250.536 106.301V70.68l8.034 10.197c.795 1.01 2.43.454 2.43-.831v-7.522c0-.6-.204-1.188-.577-1.662l-9.043-11.48 8.07-10.248c1.397-1.771.124-4.362-2.142-4.362h-6.772V30.706A2.715 2.715 0 0 0 247.811 28h-2.224a2.715 2.715 0 0 0-2.724 2.706v14.066h-8.145A2.71 2.71 0 0 0 232 47.471v2.22a2.71 2.71 0 0 0 2.718 2.701h9.636c1.134 0 1.77 1.295 1.071 2.181l-12.848 16.312a2.68 2.68 0 0 0-.577 1.662v7.522c0 1.285 1.633 1.842 2.43.831l8.433-10.706V106.3a2.708 2.708 0 0 0 2.72 2.699h2.235c1.5 0 2.718-1.207 2.718-2.699M406 65.231v-4.053a1.77 1.77 0 0 0-1.774-1.768h-5.84c-1.476 0-2.307-1.698-1.396-2.858l6.454-8.226a1.766 1.766 0 0 0-.304-2.482l-3.203-2.498a1.778 1.778 0 0 0-2.489.303l-3.028 3.858a1.777 1.777 0 0 1-2.52.277l-.664-.543a1.763 1.763 0 0 1-.276-2.457l9.76-12.44c1.385-1.763.122-4.344-2.126-4.344h-2.816a2.7 2.7 0 0 0-2.124 1.032l-13.278 16.922a1.764 1.764 0 0 0 .274 2.457l6.62 5.404c.747.608.867 1.7.273 2.457l-6.173 7.87c-.911 1.16-.08 2.858 1.397 2.858h21.46A1.77 1.77 0 0 0 406 65.231M387.952 109c1.503 0 2.72-1.204 2.72-2.687V95.541c0-.74.607-1.343 1.358-1.343h10.25c1.503 0 2.72-1.204 2.72-2.687V74.689c0-1.485-1.217-2.689-2.72-2.689h-2.235c-1.5 0-2.717 1.204-2.717 2.689v10.58a1.35 1.35 0 0 1-1.358 1.343h-3.94a1.35 1.35 0 0 1-1.358-1.343v-10.58c0-1.485-1.217-2.689-2.72-2.689h-2.235c-1.5 0-2.717 1.204-2.717 2.689v31.624c0 1.483 1.217 2.687 2.717 2.687h2.235zM378.226 59.41h-5.84c-1.476 0-2.307-1.698-1.396-2.858l6.454-8.226a1.766 1.766 0 0 0-.304-2.482l-3.203-2.498a1.78 1.78 0 0 0-2.491.303l-3.026 3.858c-.612.78-1.75.906-2.52.277l-.666-.543a1.764 1.764 0 0 1-.274-2.457l9.76-12.437c1.385-1.766.122-4.347-2.126-4.347h-2.816c-.831 0-1.613.38-2.126 1.032l-13.276 16.922a1.764 1.764 0 0 0 .274 2.457l6.62 5.404c.745.608.867 1.7.273 2.459l-6.173 7.868c-.911 1.16-.083 2.858 1.397 2.858h21.46A1.77 1.77 0 0 0 380 65.231v-4.053a1.77 1.77 0 0 0-1.774-1.768M376.28 72h-2.234c-1.5 0-2.717 1.204-2.717 2.687v10.582c0 .742-.61 1.343-1.36 1.343h-3.94c-.748 0-1.358-.6-1.358-1.343V74.687c0-1.483-1.217-2.687-2.717-2.687h-2.235c-1.502 0-2.719 1.204-2.719 2.687v16.822c0 1.485 1.217 2.689 2.72 2.689h6.847c1.046 0 1.7 1.116 1.18 2.012l-5.081 8.764c-1.039 1.793.269 4.026 2.357 4.026h2.576c.976 0 1.875-.516 2.36-1.353l8.68-14.971c.236-.409.361-.87.361-1.34v-16.65c0-1.482-1.217-2.686-2.72-2.686M344.285 47.888c0 .744-.611 1.346-1.367 1.346h-4.658a1.355 1.355 0 0 1-1.366-1.346V40.95c0-.744.61-1.346 1.366-1.346h4.658c.756 0 1.367.602 1.367 1.346v6.938zm0 17.236c0 .745-.611 1.347-1.367 1.347h-4.658a1.355 1.355 0 0 1-1.366-1.347v-6.94c0-.742.61-1.346 1.366-1.346h4.658c.756 0 1.367.604 1.367 1.346v6.94zm0 17.324c0 .611-.418 1.147-1.017 1.303l-4.656 1.218c-.867.227-1.718-.416-1.718-1.3V75.42c0-.745.61-1.347 1.366-1.347h4.658c.756 0 1.367.602 1.367 1.347v7.027zM352 106.307V34.693c0-1.487-1.224-2.693-2.735-2.693h-21.532c-1.509 0-2.733 1.206-2.733 2.693v2.215c0 1.49 1.224 2.696 2.733 2.696h1.445v47.833l-2.147.563A2.697 2.697 0 0 0 325 90.603v2.293c0 1.767 1.7 3.057 3.434 2.604l15.85-4.148v14.955c0 1.487 1.225 2.693 2.733 2.693h2.248c1.51 0 2.735-1.206 2.735-2.693zM220 106.329v-2.234a2.672 2.672 0 0 0-2.676-2.67h-23.298a2.674 2.674 0 0 1-2.676-2.67v-23.72h15.717c1.534 0 2.78-1.24 2.78-2.773V36.968a2.643 2.643 0 0 0-2.647-2.642h-20.858a2.576 2.576 0 0 0-2.58 2.573v2.426a2.578 2.578 0 0 0 2.58 2.575h13.27a2.643 2.643 0 0 1 2.647 2.642v5.01c0 .74-.604 1.342-1.344 1.342h-14.337a2.814 2.814 0 0 0-2.815 2.808v1.955a2.813 2.813 0 0 0 2.815 2.811h14.337c.74 0 1.344.6 1.344 1.341v4.878a2.776 2.776 0 0 1-2.78 2.775h-39.493a2.776 2.776 0 0 1-2.78-2.775V59.81c0-.741.604-1.34 1.344-1.34h14.337a2.813 2.813 0 0 0 2.815-2.812v-1.955a2.814 2.814 0 0 0-2.815-2.808H158.55c-.74 0-1.343-.602-1.343-1.341v-5.457c0-1.253.843-2.347 2.056-2.667l14.536-3.855a2.553 2.553 0 0 0 1.903-2.467v-2.553a2.557 2.557 0 0 0-3.214-2.467l-20.812 5.516a2.759 2.759 0 0 0-2.057 2.667v33.992a2.776 2.776 0 0 0 2.779 2.774h15.625l-20.56 29.88c-1.19 1.73.05 4.084 2.153 4.084h2.87c.861 0 1.666-.423 2.152-1.13l22.59-32.834h6.535v31.293a2.674 2.674 0 0 0 2.676 2.671h30.885a2.674 2.674 0 0 0 2.676-2.671"/><path fill="#DB0032" d="M75.253 39.961c10.873 1.166 21.55 6.491 21.55 13.49 0 7.004-10.696 10.629-21.577 10.059h-.005c-11.26-.58-22.579-5.612-32.757-14.342 9.19-6.988 20.763-10.488 32.79-9.207m44.913 62.332l-3.074-1.097c-1.392-.496-2.923.326-3.52 1.873a46.797 46.797 0 0 1-2.422 5.272c-7.568 14.085-21.774 23.504-38.386 24.407-25.251 1.37-47.83-18.297-48.696-44.928-.374-11.507 3.417-22.043 9.94-30.335 12.779 10.647 27.05 16.596 41.168 16.979.016 0 .037 0 .053.002v-.002c18.604.506 31.138-8.027 31.138-20.253 0-12.225-12.536-22.754-31.142-25.209-15.22-2-30.053 2.173-41.865 10.987-5.22-6.13-9.91-13.296-13.825-21.325l12.637 5.692c2.143.966 4.464.229 5.2-1.63l1.557-3.94c.728-1.842-.374-4.14-2.479-5.142L9.707.882C6.515-.642 2.832-.189.976 2.226-.134 3.666-.263 5.65.416 7.548 6.12 23.53 14.482 37.368 24.405 48.27 14.99 59.014 9.462 73.23 10.16 88.896c1.537 34.525 31.965 58.443 64.145 54.723 19.468-2.249 35.758-13.9 44.487-30.57a57.943 57.943 0 0 0 2.996-6.74c.611-1.651-.143-3.49-1.62-4.016"/><path fill="#000" d="M83.972 112.953c4.453-.312 8.804-2.181 12.311-5.512.913-.867.953-2.413.127-3.295l-1.416-1.517c-.723-.773-1.886-.856-2.703-.125-2.342 2.094-5.23 3.322-8.32 3.485-3.138.162-6.169-.791-8.693-2.732-.897-.69-2.186-.497-2.997.39l-1.603 1.76c-.948 1.04-.903 2.696.145 3.509 3.924 3.048 8.592 4.358 13.149 4.037M102.58 93c3.014-.064 5.42-3.645 5.42-8.001 0-4.354-2.406-7.935-5.42-7.998-3.062-.065-5.58 3.516-5.58 7.998 0 4.484 2.518 8.065 5.58 8M62.604 76.001C58.981 75.921 56 79.95 56 85c0 5.05 2.981 9.08 6.604 8.999C66.162 93.92 69 89.893 69 85c0-4.89-2.838-8.919-6.396-8.999"/></g></svg>