<svg xmlns="http://www.w3.org/2000/svg" id="圖層_1" data-name="圖層 1" viewBox="0 0 375 1060.5"><defs><style>.cls-1{fill:#fff}</style><mask id="mask" width="981" height="1068" x="-545" y="-7.5" maskUnits="userSpaceOnUse"><g id="_059hzb9npb" data-name="059hzb9npb"><path id="dc9upqapta" d="M0 156.5h375v904H0z" class="cls-1"/></g></mask><mask id="mask-2" width="999" height="1044" x="-582" y="16.5" maskUnits="userSpaceOnUse"><g id="_059hzb9npb-2" data-name="059hzb9npb"><path id="dc9upqapta-2" d="M0 156.5h375v904H0z" class="cls-1" data-name="dc9upqapta"/></g></mask><mask id="mask-3" width="1003" height="1014" x="-551" y="156.5" maskUnits="userSpaceOnUse"><g id="_059hzb9npb-3" data-name="059hzb9npb"><path id="dc9upqapta-3" d="M0 156.5h375v904H0z" class="cls-1" data-name="dc9upqapta"/></g></mask><mask id="mask-4" width="958" height="1068" x="-583" y="-7.5" maskUnits="userSpaceOnUse"><g id="_059hzb9npb-4" data-name="059hzb9npb"><path id="dc9upqapta-4" d="M0 156.5h375v904H0z" class="cls-1" data-name="dc9upqapta"/></g></mask></defs><g mask="url(#mask)"><path fill="#f2f0eb" d="M-536.38 477.07q-17.25-46 0-62.62 49.9-48 132.39-47.95c125.25 0 158.22-25.94 192.85-81.26 29.27-46.76 41.59-115.57 38-145.27S102.14-91 305.08 31.85q205.67 124.49 88.24 1028.65h-929.7z"/></g><g mask="url(#mask-2)"><path d="M412.77 16.5q1.77 46.68 2.81 85.42l.19 7.31.09 3.6.16 7.09.16 6.94q2.69 123.73-3.41 154.05c-5.16 25.68-41.13 30.65-80.85 34.36l-3.91.36-9.87.89c-21.09 1.92-42.37 4.11-59.92 9.36-54.83 16.4-87.35 33.54-121.46 87.25-20.46 32.23-32.51 65.69-42.39 96.87l-1 3.1-1 3.09-1 3.07-1.41 4.57-2.78 9-.92 3-.91 2.94-.91 2.92c-.31 1-.61 1.93-.91 2.89l-.92 2.87c-2.29 7.15-4.6 14-7 20.66C59.41 612.1-30.13 783.2-256.73 783.2q-224.32 0-276.86 147.31l-1 3-47.41-80.38 9.49-175.75q61.35-100.83 213-108.9l3.07-.15c167-7.81 212.05-54.69 267.48-145.42l4.91-8 3.2-5.22C-30.7 327.86-1.8 286.25 103.42 236.97c85.16-39.88 182-117.94 226.08-198.58z" style="isolation:isolate" fill="#fefefe" opacity=".5"/></g><g mask="url(#mask-3)"><path d="M-533.23 931.33q52.53-147.17 276.9-147.16c226.64 0 316.19-170.93 332.45-214.95 2.26-6.13 4.42-12.52 6.55-19.11l.49-1.52.91-2.87.46-1.44.46-1.45.91-2.92.91-2.93.92-3 2.78-9 1.41-4.57 1-3.07 1-3.08 1-3.1.89-2.81.91-2.81.92-2.83.63-1.89.63-1.9.63-1.9.65-1.91.65-1.91.66-1.91.67-1.91.33-1 .68-1.93.69-1.92.7-1.93.71-1.93.36-1 .73-1.94c7.91-21 17.65-42.43 31-63.36 34.11-53.66 66.64-70.78 121.48-87.17 10.47-3.13 22.28-5.17 34.58-6.71l2-.25 2-.24 3-.34 2-.22 1-.11 2-.21 2-.21 3.05-.3 2-.19 3.06-.29 3.06-.28 9.87-.89 3.92-.36 2.37-.22 2.37-.23 2.36-.23 2.34-.24 2.33-.25c34.84-3.73 64.44-10.07 69.08-33.16C426 219 465.31 559.79 447.4 548.59c-35.21-22-135.74 33.22-136.93 33.91-51.76 30.07-61.35 26.63-104.39 105.37-25.9 47.39-68.85 137.38-193.67 169.13-76.31 19.42-180.83 36-259.26 99.25-36 29.07-90.15 105.4-109 138-97.72 169.13-246.68 31.12-177.41-162.92z" style="isolation:isolate" fill="#fefefe" opacity=".25"/></g><g mask="url(#mask-4)"><path d="M304.71 31.86A163.74 163.74 0 0 1 325 46.4c-45.73 78-139.44 152.65-222.13 191.32-110.79 51.83-137 95.17-192.44 185.82S-190.08 561-357.13 568.83Q-524.18 576.62-583 695.5v-94.23l4.08-124.11q50.1-110.6 175.24-110.59c125.13 0 158.06-25.95 192.66-81.27 29.25-46.78 41.56-115.6 38-145.31S102-91 304.71 31.86z" style="isolation:isolate" fill="#fefefe" opacity=".75"/></g><path fill="#eb6851" d="M198 236.28c84.28-.33 139.22-8.37 179-24.58V-.5H.77v300.67q72.41-63.89 191.79-63.88z"/></svg>