<?xml version="1.0" encoding="UTF-8"?>
<svg width="375px" height="59px" viewBox="0 0 375 59" version="1.1" xmlns="http://www.w3.org/2000/svg" xmlns:xlink="http://www.w3.org/1999/xlink">
    <title>mobile-character-bg-top</title>
    <defs>
        <rect id="path-1" x="0" y="0.219204656" width="375" height="57"></rect>
    </defs>
    <g id="R4" stroke="none" stroke-width="1" fill="none" fill-rule="evenodd">
        <g id="M---Homepage---375" transform="translate(0.000000, -4193.000000)">
            <g id="CHARACTER" transform="translate(-374.000000, 4021.780795)">
                <g id="mobile-character-bg-top" transform="translate(374.000000, 172.000000)">
                    <mask id="mask-2" fill="white">
                        <use xlink:href="#path-1"></use>
                    </mask>
                    <g id="Rectangle"></g>
                    <path d="M773.316768,305.103603 C758.043968,260.184933 737.195433,217.253731 711.439488,177.485277 C661.111488,99.7733983 616.053702,26.1001553 590.765584,-65.1163076 C586.653799,-79.9426855 581.170357,-94.4632992 576.39343,-109.076279 C572.685822,-120.427774 569.566975,-132.19014 565.028735,-143.194466 C561.104717,-152.708191 558.530077,-163.164689 552.976621,-172 C547.327689,-160.533843 540.052502,-150.609247 533.222865,-140.015792 C525.279353,-127.696044 518.771148,-114.474928 510.499839,-102.368577 C455.589044,-21.9748924 368.337719,12.9108899 275.354717,25.6765446 C193.583651,36.9038232 110.326359,34.773029 29.0867702,50.2841912 C-139.661926,82.4913519 -310.164178,233.032437 -356.195808,401.307844 C-393.67607,538.325233 -372.350161,691.879369 -288.710969,806.426277 C-220.010416,900.528389 -119.863615,963.162271 -11.5250681,993.668618 C28.8194405,1005.02967 70.2364505,1012.11958 111.888965,1015.33647 C146.094438,1017.98006 181.283302,1019.10438 216.418064,1018.83365 C216.561276,1018.83683 216.701306,1018.83046 216.841336,1018.83046 C216.981366,1018.83046 217.124578,1018.83683 217.264608,1018.82091 C252.39937,1019.10438 287.591417,1017.98006 321.796889,1015.33647 C363.446222,1012.11958 404.856867,1005.02967 445.204558,993.668618 C553.546287,963.162271 653.696271,900.528389 722.400006,806.426277 C770.01652,741.206139 795.683354,662.178838 802.885344,581.992181 C808.270128,522.01781 806.901654,460.450918 796.984995,400.32048 C791.654314,368.005028 783.857197,336.119557 773.316768,305.103603 Z" id="Fill-1" fill="#F5F5F5" mask="url(#mask-2)"></path>
                </g>
            </g>
        </g>
    </g>
</svg>