<svg id="圖層_1" data-name="圖層 1" xmlns="http://www.w3.org/2000/svg" xmlns:xlink="http://www.w3.org/1999/xlink" viewBox="0 0 375 1057.5"><defs><style>.cls-1,.cls-2{fill:none;}.cls-2{clip-rule:evenodd;}.cls-3{clip-path:url(#clip-path);}.cls-4{clip-path:url(#clip-path-2);}.cls-5{isolation:isolate;}.cls-6{clip-path:url(#clip-path-3);}.cls-7{clip-path:url(#clip-path-4);}.cls-8{fill:#f2f0eb;}.cls-9{clip-path:url(#clip-path-6);}.cls-10,.cls-12,.cls-14{fill:#fefefe;}.cls-10{opacity:0.5;}.cls-11{clip-path:url(#clip-path-8);}.cls-12{opacity:0.25;}.cls-13{clip-path:url(#clip-path-10);}.cls-14{opacity:0.75;}.cls-15{clip-path:url(#clip-path-12);}.cls-16{clip-path:url(#clip-path-14);}.cls-17{clip-path:url(#clip-path-15);}.cls-18{fill:#eb6851;}</style><clipPath id="clip-path"><rect class="cls-1" y="157" width="375" height="904"/></clipPath><clipPath id="clip-path-2"><rect class="cls-1" y="-479" width="375" height="5598"/></clipPath><clipPath id="clip-path-3"><rect class="cls-1" x="-583" y="-12" width="1041" height="1188"/></clipPath><clipPath id="clip-path-4"><path class="cls-2" d="M-536.38,477.57q-17.25-46,0-62.62Q-486.46,367-404,367c125.25,0,158.22-25.94,192.85-81.26,29.27-46.76,41.59-115.57,38-145.27S102.14-90.48,305.08,32.35Q510.75,156.84,393.32,1061h-929.7Z"/></clipPath><clipPath id="clip-path-6"><path class="cls-2" d="M412.77,17q1.77,46.68,2.81,85.42l.19,7.31.09,3.6.17,7.09.15,6.94q2.69,123.73-3.41,154.05c-5.16,25.68-41.13,30.65-80.85,34.36l-3.91.36-9.87.89c-21.09,1.92-42.37,4.11-59.92,9.36-54.83,16.4-87.35,33.54-121.46,87.25-20.46,32.23-32.51,65.69-42.39,96.82l-1,3.1-1,3.09-1,3.07-1.41,4.57-2.78,9-.92,3-.91,2.94-.91,2.92c-.31,1-.61,1.93-.91,2.89l-.92,2.87c-2.29,7.15-4.6,14-7,20.66C59.41,612.6-30.12,783.7-256.73,783.7q-224.32,0-276.86,147.31l-1,3L-582,853.63l9.49-175.75q61.35-100.83,213-108.9l3.07-.15C-189.45,561-144.4,514.14-89,423.41l4.91-8,3.2-5.22c50.15-81.83,79.05-123.44,184.27-172.72,85.17-39.88,182-117.94,226.08-198.58Z"/></clipPath><clipPath id="clip-path-8"><path class="cls-2" d="M-533.23,931.83q52.53-147.17,276.9-147.16c226.64,0,316.19-170.93,332.45-214.95,2.26-6.13,4.42-12.51,6.55-19.11l.49-1.52.91-2.87.46-1.44.46-1.45.91-2.92.91-2.93.92-3,2.78-9,1.41-4.57,1-3.07,1-3.08,1-3.1.89-2.81.91-2.81.92-2.83.63-1.89.62-1.9.64-1.9.65-1.91.65-1.91.66-1.91.67-1.92.33-1,.68-1.92.69-1.92c.24-.65.47-1.29.7-1.93l.71-1.93.36-1,.73-1.94c7.91-21,17.65-42.43,31-63.36,34.11-53.66,66.64-70.78,121.48-87.17,10.48-3.13,22.28-5.17,34.58-6.71l2-.25,2-.24,3-.34,2-.22,1-.11,2-.21,2-.21,3.05-.3,2-.19,3.06-.29,3.06-.28,9.87-.89,3.92-.36,2.37-.22,2.37-.23,2.36-.23,2.34-.24,2.33-.25C379,312.3,408.64,306,413.28,282.87c12.76-63.41,52,277.42,34.12,266.22-35.21-22-135.74,33.22-136.93,33.91-51.76,30.07-61.35,26.63-104.39,105.36-25.9,47.4-68.85,137.39-193.67,169.15-76.31,19.43-180.83,36-259.26,99.26-36,29.07-90.15,105.4-109,138C-453.54,1263.88-602.5,1125.87-533.23,931.83Z"/></clipPath><clipPath id="clip-path-10"><path class="cls-2" d="M304.71,32.36A163.74,163.74,0,0,1,325,46.9c-45.73,78-139.44,152.65-222.13,191.32C-7.92,290.05-34.12,333.39-89.57,424S-190.08,561.53-357.13,569.33Q-524.18,577.12-583,696V601.77l4.08-124.11q50.1-110.6,175.24-110.59c125.13,0,158.06-25.95,192.66-81.27,29.25-46.78,41.56-115.6,38-145.31S102-90.49,304.71,32.36Z"/></clipPath><clipPath id="clip-path-12"><rect class="cls-1" width="375" height="300"/></clipPath><clipPath id="clip-path-14"><rect class="cls-1" x="-1" y="-388" width="534" height="688"/></clipPath><clipPath id="clip-path-15"><path class="cls-2" d="M-.23,299.67V-379.46l15.36-.46,15.09-.44,14.8-.42,14.53-.41q331-9.07,369.57,1.73c19.76,5.54,38.6,79.17,53.32,144.39l1.48,6.6,1.46,6.52,1.42,6.43L491.54-194l1.28,5.79c5.48,24.68,10,43.95,13.29,51.26a319.21,319.21,0,0,1,21,66.1h0a7.78,7.78,0,0,0-.21,2.82c5.15,39.84-12.75,132.12-55.27,194.84-49.79,73.45-97.21,108.28-274.66,109h-5.42Q72.18,235.79-.23,299.67Z"/></clipPath></defs><g class="cls-3"><g class="cls-4"><g class="cls-5"><g class="cls-6"><g class="cls-7"><g class="cls-3"><rect class="cls-8" x="-550" y="-12" width="991" height="1078"/></g></g><g class="cls-9"><g class="cls-3"><rect class="cls-10" x="-587" y="12" width="1009" height="927"/></g></g><g class="cls-11"><g class="cls-3"><rect class="cls-12" x="-556" y="270" width="1013" height="906"/></g></g><g class="cls-13"><g class="cls-3"><rect class="cls-14" x="-588" y="-12" width="918" height="713"/></g></g></g></g></g></g><g class="cls-15"><g class="cls-4"><g class="cls-5"><g class="cls-16"><g class="cls-17"><g class="cls-15"><rect class="cls-18" x="-5.23" y="-390.33" width="538" height="695"/></g></g></g></g></g></g></svg>