<svg xmlns="http://www.w3.org/2000/svg" id="圖層_1" data-name="圖層 1" viewBox="0 0 375.01 660"><defs><style>.cls-5,.cls-6{fill:none}.cls-5{opacity:.5}.cls-5,.cls-6{stroke:#fff;stroke-linecap:square;stroke-linejoin:bevel}</style><clipPath id="clip-path"><path fill="none" d="M187 0a936.26 936.26 0 0 1 188 19v641H0V18.78A935.83 935.83 0 0 1 187 0z"/></clipPath></defs><path fill="#f2f0eb" fill-rule="evenodd" d="M187 0a936.26 936.26 0 0 1 188 19v641H0V18.78A935.83 935.83 0 0 1 187 0z"/><g clip-path="url(#clip-path)" opacity=".5"><path d="M21.79-4.89v77.38M47.58-4.89v77.38" class="cls-5"/><path d="M73.38-4.89v77.38" class="cls-6"/><path d="M73.38 20.9H-4M73.38 46.7H-4" class="cls-5"/><path d="M73.38 72.49H-4" class="cls-6"/><path d="M99.17-4.89v77.38" class="cls-5"/><path d="M73.38-4.89v77.38" class="cls-6"/><path d="M124.96-4.89v77.38" class="cls-5"/><path d="M150.75-4.89v77.38" class="cls-6"/><path d="M150.75 20.9H73.38M150.75 46.7H73.38" class="cls-5"/><path d="M150.75 72.49H73.38" class="cls-6"/><path d="M176.55-4.89v77.38" class="cls-5"/><path d="M150.75-4.89v77.38" class="cls-6"/><path d="M202.34-4.89v77.38" class="cls-5"/><path d="M228.13-4.89v77.38" class="cls-6"/><path d="M228.13 20.9h-77.38M228.13 46.7h-77.38" class="cls-5"/><path d="M228.13 72.49h-77.38" class="cls-6"/><path d="M253.92-4.89v77.38" class="cls-5"/><path d="M228.13-4.89v77.38" class="cls-6"/><path d="M279.72-4.89v77.38" class="cls-5"/><path d="M305.51-4.89v77.38" class="cls-6"/><path d="M305.51 20.9h-77.38M305.51 46.7h-77.38" class="cls-5"/><path d="M305.51 72.49h-77.38" class="cls-6"/><path d="M331.3-4.89v77.38" class="cls-5"/><path d="M305.51-4.89v77.38" class="cls-6"/><path d="M357.09-4.89v77.38M382.88 20.9h-77.37M382.88 46.7h-77.37" class="cls-5"/><path d="M382.88 72.49h-77.37" class="cls-6"/><path d="M21.79 72.49v77.38M47.58 72.49v77.38" class="cls-5"/><path d="M73.38 72.49v77.38" class="cls-6"/><path d="M73.38 98.28H-4" class="cls-5"/><path d="M73.38 72.49H-4" class="cls-6"/><path d="M73.38 124.07H-4" class="cls-5"/><path d="M73.38 149.87H-4" class="cls-6"/><path d="M99.17 72.49v77.38" class="cls-5"/><path d="M73.38 72.49v77.38" class="cls-6"/><path d="M124.96 72.49v77.38" class="cls-5"/><path d="M150.75 72.49v77.38" class="cls-6"/><path d="M150.75 98.28H73.38" class="cls-5"/><path d="M150.75 72.49H73.38" class="cls-6"/><path d="M150.75 124.07H73.38" class="cls-5"/><path d="M150.75 149.87H73.38" class="cls-6"/><path d="M176.55 72.49v77.38" class="cls-5"/><path d="M150.75 72.49v77.38" class="cls-6"/><path d="M202.34 72.49v77.38" class="cls-5"/><path d="M228.13 72.49v77.38" class="cls-6"/><path d="M228.13 98.28h-77.38" class="cls-5"/><path d="M228.13 72.49h-77.38" class="cls-6"/><path d="M228.13 124.07h-77.38" class="cls-5"/><path d="M228.13 149.87h-77.38" class="cls-6"/><path d="M253.92 72.49v77.38" class="cls-5"/><path d="M228.13 72.49v77.38" class="cls-6"/><path d="M279.72 72.49v77.38" class="cls-5"/><path d="M305.51 72.49v77.38" class="cls-6"/><path d="M305.51 98.28h-77.38" class="cls-5"/><path d="M305.51 72.49h-77.38" class="cls-6"/><path d="M305.51 124.07h-77.38" class="cls-5"/><path d="M305.51 149.87h-77.38" class="cls-6"/><path d="M331.3 72.49v77.38" class="cls-5"/><path d="M305.51 72.49v77.38" class="cls-6"/><path d="M357.09 72.49v77.38M382.88 98.28h-77.37" class="cls-5"/><path d="M382.88 72.49h-77.37" class="cls-6"/><path d="M382.88 124.07h-77.37" class="cls-5"/><path d="M382.88 149.87h-77.37" class="cls-6"/><path d="M21.79 149.87v77.37M47.58 149.87v77.37" class="cls-5"/><path d="M73.38 149.87v77.37" class="cls-6"/><path d="M73.38 175.66H-4" class="cls-5"/><path d="M73.38 149.87H-4" class="cls-6"/><path d="M73.38 201.45H-4" class="cls-5"/><path d="M73.38 227.24H-4" class="cls-6"/><path d="M99.17 149.87v77.37" class="cls-5"/><path d="M73.38 149.87v77.37" class="cls-6"/><path d="M124.96 149.87v77.37" class="cls-5"/><path d="M150.75 149.87v77.37" class="cls-6"/><path d="M150.75 175.66H73.38" class="cls-5"/><path d="M150.75 149.87H73.38" class="cls-6"/><path d="M150.75 201.45H73.38" class="cls-5"/><path d="M150.75 227.24H73.38" class="cls-6"/><path d="M176.55 149.87v77.37" class="cls-5"/><path d="M150.75 149.87v77.37" class="cls-6"/><path d="M202.34 149.87v77.37" class="cls-5"/><path d="M228.13 149.87v77.37" class="cls-6"/><path d="M228.13 175.66h-77.38" class="cls-5"/><path d="M228.13 149.87h-77.38" class="cls-6"/><path d="M228.13 201.45h-77.38" class="cls-5"/><path d="M228.13 227.24h-77.38" class="cls-6"/><path d="M253.92 149.87v77.37" class="cls-5"/><path d="M228.13 149.87v77.37" class="cls-6"/><path d="M279.72 149.87v77.37" class="cls-5"/><path d="M305.51 149.87v77.37" class="cls-6"/><path d="M305.51 175.66h-77.38" class="cls-5"/><path d="M305.51 149.87h-77.38" class="cls-6"/><path d="M305.51 201.45h-77.38" class="cls-5"/><path d="M305.51 227.24h-77.38" class="cls-6"/><path d="M331.3 149.87v77.37" class="cls-5"/><path d="M305.51 149.87v77.37" class="cls-6"/><path d="M357.09 149.87v77.37M382.88 175.66h-77.37" class="cls-5"/><path d="M382.88 149.87h-77.37" class="cls-6"/><path d="M382.88 201.45h-77.37" class="cls-5"/><path d="M382.88 227.24h-77.37" class="cls-6"/><path d="M21.79 227.24v77.38M47.58 227.24v77.38" class="cls-5"/><path d="M73.38 227.24v77.38" class="cls-6"/><path d="M73.38 253.04H-4" class="cls-5"/><path d="M73.38 227.24H-4" class="cls-6"/><path d="M73.38 278.83H-4" class="cls-5"/><path d="M73.38 304.62H-4" class="cls-6"/><path d="M99.17 227.24v77.38" class="cls-5"/><path d="M73.38 227.24v77.38" class="cls-6"/><path d="M124.96 227.24v77.38" class="cls-5"/><path d="M150.75 227.24v77.38" class="cls-6"/><path d="M150.75 253.04H73.38" class="cls-5"/><path d="M150.75 227.24H73.38" class="cls-6"/><path d="M150.75 278.83H73.38" class="cls-5"/><path d="M150.75 304.62H73.38" class="cls-6"/><path d="M176.55 227.24v77.38" class="cls-5"/><path d="M150.75 227.24v77.38" class="cls-6"/><path d="M202.34 227.24v77.38" class="cls-5"/><path d="M228.13 227.24v77.38" class="cls-6"/><path d="M228.13 253.04h-77.38" class="cls-5"/><path d="M228.13 227.24h-77.38" class="cls-6"/><path d="M228.13 278.83h-77.38" class="cls-5"/><path d="M228.13 304.62h-77.38" class="cls-6"/><path d="M253.92 227.24v77.38" class="cls-5"/><path d="M228.13 227.24v77.38" class="cls-6"/><path d="M279.72 227.24v77.38" class="cls-5"/><path d="M305.51 227.24v77.38" class="cls-6"/><path d="M305.51 253.04h-77.38" class="cls-5"/><path d="M305.51 227.24h-77.38" class="cls-6"/><path d="M305.51 278.83h-77.38" class="cls-5"/><path d="M305.51 304.62h-77.38" class="cls-6"/><path d="M331.3 227.24v77.38" class="cls-5"/><path d="M305.51 227.24v77.38" class="cls-6"/><path d="M357.09 227.24v77.38M382.88 253.04h-77.37" class="cls-5"/><path d="M382.88 227.24h-77.37" class="cls-6"/><path d="M382.88 278.83h-77.37" class="cls-5"/><path d="M382.88 304.62h-77.37" class="cls-6"/><path d="M21.79 304.62V382M47.58 304.62V382" class="cls-5"/><path d="M73.38 304.62V382" class="cls-6"/><path d="M73.38 330.41H-4" class="cls-5"/><path d="M73.38 304.62H-4" class="cls-6"/><path d="M73.38 356.2H-4" class="cls-5"/><path d="M73.38 382H-4" class="cls-6"/><path d="M99.17 304.62V382" class="cls-5"/><path d="M73.38 304.62V382" class="cls-6"/><path d="M124.96 304.62V382" class="cls-5"/><path d="M150.75 304.62V382" class="cls-6"/><path d="M150.75 330.41H73.38" class="cls-5"/><path d="M150.75 304.62H73.38" class="cls-6"/><path d="M150.75 356.2H73.38" class="cls-5"/><path d="M150.75 382H73.38" class="cls-6"/><path d="M176.55 304.62V382" class="cls-5"/><path d="M150.75 304.62V382" class="cls-6"/><path d="M202.34 304.62V382" class="cls-5"/><path d="M228.13 304.62V382" class="cls-6"/><path d="M228.13 330.41h-77.38" class="cls-5"/><path d="M228.13 304.62h-77.38" class="cls-6"/><path d="M228.13 356.2h-77.38" class="cls-5"/><path d="M228.13 382h-77.38" class="cls-6"/><path d="M253.92 304.62V382" class="cls-5"/><path d="M228.13 304.62V382" class="cls-6"/><path d="M279.72 304.62V382" class="cls-5"/><path d="M305.51 304.62V382" class="cls-6"/><path d="M305.51 330.41h-77.38" class="cls-5"/><path d="M305.51 304.62h-77.38" class="cls-6"/><path d="M305.51 356.2h-77.38" class="cls-5"/><path d="M305.51 382h-77.38" class="cls-6"/><path d="M331.3 304.62V382" class="cls-5"/><path d="M305.51 304.62V382" class="cls-6"/><path d="M357.09 304.62V382M382.88 330.41h-77.37" class="cls-5"/><path d="M382.88 304.62h-77.37" class="cls-6"/><path d="M382.88 356.2h-77.37" class="cls-5"/><path d="M382.88 382h-77.37" class="cls-6"/><path d="M21.79 382v77.37M47.58 382v77.37" class="cls-5"/><path d="M73.38 382v77.37" class="cls-6"/><path d="M73.38 407.79H-4" class="cls-5"/><path d="M73.38 382H-4" class="cls-6"/><path d="M73.38 433.58H-4" class="cls-5"/><path d="M73.38 459.37H-4" class="cls-6"/><path d="M99.17 382v77.37" class="cls-5"/><path d="M73.38 382v77.37" class="cls-6"/><path d="M124.96 382v77.37" class="cls-5"/><path d="M150.75 382v77.37" class="cls-6"/><path d="M150.75 407.79H73.38" class="cls-5"/><path d="M150.75 382H73.38" class="cls-6"/><path d="M150.75 433.58H73.38" class="cls-5"/><path d="M150.75 459.37H73.38" class="cls-6"/><path d="M176.55 382v77.37" class="cls-5"/><path d="M150.75 382v77.37" class="cls-6"/><path d="M202.34 382v77.37" class="cls-5"/><path d="M228.13 382v77.37" class="cls-6"/><path d="M228.13 407.79h-77.38" class="cls-5"/><path d="M228.13 382h-77.38" class="cls-6"/><path d="M228.13 433.58h-77.38" class="cls-5"/><path d="M228.13 459.37h-77.38" class="cls-6"/><path d="M253.92 382v77.37" class="cls-5"/><path d="M228.13 382v77.37" class="cls-6"/><path d="M279.72 382v77.37" class="cls-5"/><path d="M305.51 382v77.37" class="cls-6"/><path d="M305.51 407.79h-77.38" class="cls-5"/><path d="M305.51 382h-77.38" class="cls-6"/><path d="M305.51 433.58h-77.38" class="cls-5"/><path d="M305.51 459.37h-77.38" class="cls-6"/><path d="M331.3 382v77.37" class="cls-5"/><path d="M305.51 382v77.37" class="cls-6"/><path d="M357.09 382v77.37M382.88 407.79h-77.37" class="cls-5"/><path d="M382.88 382h-77.37" class="cls-6"/><path d="M382.88 433.58h-77.37" class="cls-5"/><path d="M382.88 459.37h-77.37" class="cls-6"/><path d="M21.79 459.37v77.38M47.58 459.37v77.38" class="cls-5"/><path d="M73.38 459.37v77.38" class="cls-6"/><path d="M73.38 485.17H-4" class="cls-5"/><path d="M73.38 459.37H-4" class="cls-6"/><path d="M73.38 510.96H-4" class="cls-5"/><path d="M73.38 536.75H-4" class="cls-6"/><path d="M99.17 459.37v77.38" class="cls-5"/><path d="M73.38 459.37v77.38" class="cls-6"/><path d="M124.96 459.37v77.38" class="cls-5"/><path d="M150.75 459.37v77.38" class="cls-6"/><path d="M150.75 485.17H73.38" class="cls-5"/><path d="M150.75 459.37H73.38" class="cls-6"/><path d="M150.75 510.96H73.38" class="cls-5"/><path d="M150.75 536.75H73.38" class="cls-6"/><path d="M176.55 459.37v77.38" class="cls-5"/><path d="M150.75 459.37v77.38" class="cls-6"/><path d="M202.34 459.37v77.38" class="cls-5"/><path d="M228.13 459.37v77.38" class="cls-6"/><path d="M228.13 485.17h-77.38" class="cls-5"/><path d="M228.13 459.37h-77.38" class="cls-6"/><path d="M228.13 510.96h-77.38" class="cls-5"/><path d="M228.13 536.75h-77.38" class="cls-6"/><path d="M253.92 459.37v77.38" class="cls-5"/><path d="M228.13 459.37v77.38" class="cls-6"/><path d="M279.72 459.37v77.38" class="cls-5"/><path d="M305.51 459.37v77.38" class="cls-6"/><path d="M305.51 485.17h-77.38" class="cls-5"/><path d="M305.51 459.37h-77.38" class="cls-6"/><path d="M305.51 510.96h-77.38" class="cls-5"/><path d="M305.51 536.75h-77.38" class="cls-6"/><path d="M331.3 459.37v77.38" class="cls-5"/><path d="M305.51 459.37v77.38" class="cls-6"/><path d="M357.09 459.37v77.38M382.88 485.17h-77.37" class="cls-5"/><path d="M382.88 459.37h-77.37" class="cls-6"/><path d="M382.88 510.96h-77.37" class="cls-5"/><path d="M382.88 536.75h-77.37" class="cls-6"/><path d="M21.79 536.75v77.38M47.58 536.75v77.38" class="cls-5"/><path d="M73.38 536.75v77.38" class="cls-6"/><path d="M73.38 562.54H-4" class="cls-5"/><path d="M73.38 536.75H-4" class="cls-6"/><path d="M73.38 588.34H-4" class="cls-5"/><path d="M73.38 614.13H-4" class="cls-6"/><path d="M99.17 536.75v77.38" class="cls-5"/><path d="M73.38 536.75v77.38" class="cls-6"/><path d="M124.96 536.75v77.38" class="cls-5"/><path d="M150.75 536.75v77.38" class="cls-6"/><path d="M150.75 562.54H73.38" class="cls-5"/><path d="M150.75 536.75H73.38" class="cls-6"/><path d="M150.75 588.34H73.38" class="cls-5"/><path d="M150.75 614.13H73.38" class="cls-6"/><path d="M176.55 536.75v77.38" class="cls-5"/><path d="M150.75 536.75v77.38" class="cls-6"/><path d="M202.34 536.75v77.38" class="cls-5"/><path d="M228.13 536.75v77.38" class="cls-6"/><path d="M228.13 562.54h-77.38" class="cls-5"/><path d="M228.13 536.75h-77.38" class="cls-6"/><path d="M228.13 588.34h-77.38" class="cls-5"/><path d="M228.13 614.13h-77.38" class="cls-6"/><path d="M253.92 536.75v77.38" class="cls-5"/><path d="M228.13 536.75v77.38" class="cls-6"/><path d="M279.72 536.75v77.38" class="cls-5"/><path d="M305.51 536.75v77.38" class="cls-6"/><path d="M305.51 562.54h-77.38" class="cls-5"/><path d="M305.51 536.75h-77.38" class="cls-6"/><path d="M305.51 588.34h-77.38" class="cls-5"/><path d="M305.51 614.13h-77.38" class="cls-6"/><path d="M331.3 536.75v77.38" class="cls-5"/><path d="M305.51 536.75v77.38" class="cls-6"/><path d="M357.09 536.75v77.38M382.88 562.54h-77.37" class="cls-5"/><path d="M382.88 536.75h-77.37" class="cls-6"/><path d="M382.88 588.34h-77.37" class="cls-5"/><path d="M382.88 614.13h-77.37" class="cls-6"/><path d="M21.79 614.13v77.38M47.58 614.13v77.38" class="cls-5"/><path d="M73.38 614.13v77.38" class="cls-6"/><path d="M73.38 639.92H-4" class="cls-5"/><path d="M73.38 614.13H-4" class="cls-6"/><path d="M99.17 614.13v77.38" class="cls-5"/><path d="M73.38 614.13v77.38" class="cls-6"/><path d="M124.96 614.13v77.38" class="cls-5"/><path d="M150.75 614.13v77.38" class="cls-6"/><path d="M150.75 639.92H73.38" class="cls-5"/><path d="M150.75 614.13H73.38" class="cls-6"/><path d="M176.55 614.13v77.38" class="cls-5"/><path d="M150.75 614.13v77.38" class="cls-6"/><path d="M202.34 614.13v77.38" class="cls-5"/><path d="M228.13 614.13v77.38" class="cls-6"/><path d="M228.13 639.92h-77.38" class="cls-5"/><path d="M228.13 614.13h-77.38" class="cls-6"/><path d="M253.92 614.13v77.38" class="cls-5"/><path d="M228.13 614.13v77.38" class="cls-6"/><path d="M279.72 614.13v77.38" class="cls-5"/><path d="M305.51 614.13v77.38" class="cls-6"/><path d="M305.51 639.92h-77.38" class="cls-5"/><path d="M305.51 614.13h-77.38" class="cls-6"/><path d="M331.3 614.13v77.38" class="cls-5"/><path d="M305.51 614.13v77.38" class="cls-6"/><path d="M357.09 614.13v77.38M382.88 639.92h-77.37" class="cls-5"/><path d="M382.88 614.13h-77.37" class="cls-6"/></g></svg>