<svg id="圖層_1" data-name="圖層 1" xmlns="http://www.w3.org/2000/svg" xmlns:xlink="http://www.w3.org/1999/xlink" viewBox="0 0 375.01 660"><defs><style>.cls-1,.cls-5,.cls-6{fill:none;}.cls-2{fill:#00bfd5;fill-rule:evenodd;}.cls-3,.cls-5{opacity:0.5;}.cls-4{clip-path:url(#clip-path);}.cls-5,.cls-6{stroke:#fff;stroke-linecap:square;stroke-linejoin:bevel;}</style><clipPath id="clip-path"><path class="cls-1" d="M187,0A936.26,936.26,0,0,1,375,19V660H0V18.78A935.83,935.83,0,0,1,187,0Z"/></clipPath></defs><path class="cls-2" d="M187,0A936.26,936.26,0,0,1,375,19V660H0V18.78A935.83,935.83,0,0,1,187,0Z"/><g class="cls-3"><g class="cls-4"><line class="cls-5" x1="21.79" y1="-4.89" x2="21.79" y2="72.49"/><line class="cls-5" x1="47.58" y1="-4.89" x2="47.58" y2="72.49"/><line class="cls-6" x1="73.38" y1="-4.89" x2="73.38" y2="72.49"/><line class="cls-5" x1="73.38" y1="20.9" x2="-4" y2="20.9"/><line class="cls-5" x1="73.38" y1="46.7" x2="-4" y2="46.7"/><line class="cls-6" x1="73.38" y1="72.49" x2="-4" y2="72.49"/><line class="cls-5" x1="99.17" y1="-4.89" x2="99.17" y2="72.49"/><line class="cls-6" x1="73.38" y1="-4.89" x2="73.38" y2="72.49"/><line class="cls-5" x1="124.96" y1="-4.89" x2="124.96" y2="72.49"/><line class="cls-6" x1="150.75" y1="-4.89" x2="150.75" y2="72.49"/><line class="cls-5" x1="150.75" y1="20.9" x2="73.38" y2="20.9"/><line class="cls-5" x1="150.75" y1="46.7" x2="73.38" y2="46.7"/><line class="cls-6" x1="150.75" y1="72.49" x2="73.38" y2="72.49"/><line class="cls-5" x1="176.55" y1="-4.89" x2="176.55" y2="72.49"/><line class="cls-6" x1="150.75" y1="-4.89" x2="150.75" y2="72.49"/><line class="cls-5" x1="202.34" y1="-4.89" x2="202.34" y2="72.49"/><line class="cls-6" x1="228.13" y1="-4.89" x2="228.13" y2="72.49"/><line class="cls-5" x1="228.13" y1="20.9" x2="150.75" y2="20.9"/><line class="cls-5" x1="228.13" y1="46.7" x2="150.75" y2="46.7"/><line class="cls-6" x1="228.13" y1="72.49" x2="150.75" y2="72.49"/><line class="cls-5" x1="253.92" y1="-4.89" x2="253.92" y2="72.49"/><line class="cls-6" x1="228.13" y1="-4.89" x2="228.13" y2="72.49"/><line class="cls-5" x1="279.72" y1="-4.89" x2="279.72" y2="72.49"/><line class="cls-6" x1="305.51" y1="-4.89" x2="305.51" y2="72.49"/><line class="cls-5" x1="305.51" y1="20.9" x2="228.13" y2="20.9"/><line class="cls-5" x1="305.51" y1="46.7" x2="228.13" y2="46.7"/><line class="cls-6" x1="305.51" y1="72.49" x2="228.13" y2="72.49"/><line class="cls-5" x1="331.3" y1="-4.89" x2="331.3" y2="72.49"/><line class="cls-6" x1="305.51" y1="-4.89" x2="305.51" y2="72.49"/><line class="cls-5" x1="357.09" y1="-4.89" x2="357.09" y2="72.49"/><line class="cls-5" x1="382.88" y1="20.9" x2="305.51" y2="20.9"/><line class="cls-5" x1="382.88" y1="46.7" x2="305.51" y2="46.7"/><line class="cls-6" x1="382.88" y1="72.49" x2="305.51" y2="72.49"/><line class="cls-5" x1="21.79" y1="72.49" x2="21.79" y2="149.87"/><line class="cls-5" x1="47.58" y1="72.49" x2="47.58" y2="149.87"/><line class="cls-6" x1="73.38" y1="72.49" x2="73.38" y2="149.87"/><line class="cls-5" x1="73.38" y1="98.28" x2="-4" y2="98.28"/><line class="cls-6" x1="73.38" y1="72.49" x2="-4" y2="72.49"/><line class="cls-5" x1="73.38" y1="124.07" x2="-4" y2="124.07"/><line class="cls-6" x1="73.38" y1="149.87" x2="-4" y2="149.87"/><line class="cls-5" x1="99.17" y1="72.49" x2="99.17" y2="149.87"/><line class="cls-6" x1="73.38" y1="72.49" x2="73.38" y2="149.87"/><line class="cls-5" x1="124.96" y1="72.49" x2="124.96" y2="149.87"/><line class="cls-6" x1="150.75" y1="72.49" x2="150.75" y2="149.87"/><line class="cls-5" x1="150.75" y1="98.28" x2="73.38" y2="98.28"/><line class="cls-6" x1="150.75" y1="72.49" x2="73.38" y2="72.49"/><line class="cls-5" x1="150.75" y1="124.07" x2="73.38" y2="124.07"/><line class="cls-6" x1="150.75" y1="149.87" x2="73.38" y2="149.87"/><line class="cls-5" x1="176.55" y1="72.49" x2="176.55" y2="149.87"/><line class="cls-6" x1="150.75" y1="72.49" x2="150.75" y2="149.87"/><line class="cls-5" x1="202.34" y1="72.49" x2="202.34" y2="149.87"/><line class="cls-6" x1="228.13" y1="72.49" x2="228.13" y2="149.87"/><line class="cls-5" x1="228.13" y1="98.28" x2="150.75" y2="98.28"/><line class="cls-6" x1="228.13" y1="72.49" x2="150.75" y2="72.49"/><line class="cls-5" x1="228.13" y1="124.07" x2="150.75" y2="124.07"/><line class="cls-6" x1="228.13" y1="149.87" x2="150.75" y2="149.87"/><line class="cls-5" x1="253.92" y1="72.49" x2="253.92" y2="149.87"/><line class="cls-6" x1="228.13" y1="72.49" x2="228.13" y2="149.87"/><line class="cls-5" x1="279.72" y1="72.49" x2="279.72" y2="149.87"/><line class="cls-6" x1="305.51" y1="72.49" x2="305.51" y2="149.87"/><line class="cls-5" x1="305.51" y1="98.28" x2="228.13" y2="98.28"/><line class="cls-6" x1="305.51" y1="72.49" x2="228.13" y2="72.49"/><line class="cls-5" x1="305.51" y1="124.07" x2="228.13" y2="124.07"/><line class="cls-6" x1="305.51" y1="149.87" x2="228.13" y2="149.87"/><line class="cls-5" x1="331.3" y1="72.49" x2="331.3" y2="149.87"/><line class="cls-6" x1="305.51" y1="72.49" x2="305.51" y2="149.87"/><line class="cls-5" x1="357.09" y1="72.49" x2="357.09" y2="149.87"/><line class="cls-5" x1="382.88" y1="98.28" x2="305.51" y2="98.28"/><line class="cls-6" x1="382.88" y1="72.49" x2="305.51" y2="72.49"/><line class="cls-5" x1="382.88" y1="124.07" x2="305.51" y2="124.07"/><line class="cls-6" x1="382.88" y1="149.87" x2="305.51" y2="149.87"/><line class="cls-5" x1="21.79" y1="149.87" x2="21.79" y2="227.24"/><line class="cls-5" x1="47.58" y1="149.87" x2="47.58" y2="227.24"/><line class="cls-6" x1="73.38" y1="149.87" x2="73.38" y2="227.24"/><line class="cls-5" x1="73.38" y1="175.66" x2="-4" y2="175.66"/><line class="cls-6" x1="73.38" y1="149.87" x2="-4" y2="149.87"/><line class="cls-5" x1="73.38" y1="201.45" x2="-4" y2="201.45"/><line class="cls-6" x1="73.38" y1="227.24" x2="-4" y2="227.24"/><line class="cls-5" x1="99.17" y1="149.87" x2="99.17" y2="227.24"/><line class="cls-6" x1="73.38" y1="149.87" x2="73.38" y2="227.24"/><line class="cls-5" x1="124.96" y1="149.87" x2="124.96" y2="227.24"/><line class="cls-6" x1="150.75" y1="149.87" x2="150.75" y2="227.24"/><line class="cls-5" x1="150.75" y1="175.66" x2="73.38" y2="175.66"/><line class="cls-6" x1="150.75" y1="149.87" x2="73.38" y2="149.87"/><line class="cls-5" x1="150.75" y1="201.45" x2="73.38" y2="201.45"/><line class="cls-6" x1="150.75" y1="227.24" x2="73.38" y2="227.24"/><line class="cls-5" x1="176.55" y1="149.87" x2="176.55" y2="227.24"/><line class="cls-6" x1="150.75" y1="149.87" x2="150.75" y2="227.24"/><line class="cls-5" x1="202.34" y1="149.87" x2="202.34" y2="227.24"/><line class="cls-6" x1="228.13" y1="149.87" x2="228.13" y2="227.24"/><line class="cls-5" x1="228.13" y1="175.66" x2="150.75" y2="175.66"/><line class="cls-6" x1="228.13" y1="149.87" x2="150.75" y2="149.87"/><line class="cls-5" x1="228.13" y1="201.45" x2="150.75" y2="201.45"/><line class="cls-6" x1="228.13" y1="227.24" x2="150.75" y2="227.24"/><line class="cls-5" x1="253.92" y1="149.87" x2="253.92" y2="227.24"/><line class="cls-6" x1="228.13" y1="149.87" x2="228.13" y2="227.24"/><line class="cls-5" x1="279.72" y1="149.87" x2="279.72" y2="227.24"/><line class="cls-6" x1="305.51" y1="149.87" x2="305.51" y2="227.24"/><line class="cls-5" x1="305.51" y1="175.66" x2="228.13" y2="175.66"/><line class="cls-6" x1="305.51" y1="149.87" x2="228.13" y2="149.87"/><line class="cls-5" x1="305.51" y1="201.45" x2="228.13" y2="201.45"/><line class="cls-6" x1="305.51" y1="227.24" x2="228.13" y2="227.24"/><line class="cls-5" x1="331.3" y1="149.87" x2="331.3" y2="227.24"/><line class="cls-6" x1="305.51" y1="149.87" x2="305.51" y2="227.24"/><line class="cls-5" x1="357.09" y1="149.87" x2="357.09" y2="227.24"/><line class="cls-5" x1="382.88" y1="175.66" x2="305.51" y2="175.66"/><line class="cls-6" x1="382.88" y1="149.87" x2="305.51" y2="149.87"/><line class="cls-5" x1="382.88" y1="201.45" x2="305.51" y2="201.45"/><line class="cls-6" x1="382.88" y1="227.24" x2="305.51" y2="227.24"/><line class="cls-5" x1="21.79" y1="227.24" x2="21.79" y2="304.62"/><line class="cls-5" x1="47.58" y1="227.24" x2="47.58" y2="304.62"/><line class="cls-6" x1="73.38" y1="227.24" x2="73.38" y2="304.62"/><line class="cls-5" x1="73.38" y1="253.04" x2="-4" y2="253.04"/><line class="cls-6" x1="73.38" y1="227.24" x2="-4" y2="227.24"/><line class="cls-5" x1="73.38" y1="278.83" x2="-4" y2="278.83"/><line class="cls-6" x1="73.38" y1="304.62" x2="-4" y2="304.62"/><line class="cls-5" x1="99.17" y1="227.24" x2="99.17" y2="304.62"/><line class="cls-6" x1="73.38" y1="227.24" x2="73.38" y2="304.62"/><line class="cls-5" x1="124.96" y1="227.24" x2="124.96" y2="304.62"/><line class="cls-6" x1="150.75" y1="227.24" x2="150.75" y2="304.62"/><line class="cls-5" x1="150.75" y1="253.04" x2="73.38" y2="253.04"/><line class="cls-6" x1="150.75" y1="227.24" x2="73.38" y2="227.24"/><line class="cls-5" x1="150.75" y1="278.83" x2="73.38" y2="278.83"/><line class="cls-6" x1="150.75" y1="304.62" x2="73.38" y2="304.62"/><line class="cls-5" x1="176.55" y1="227.24" x2="176.55" y2="304.62"/><line class="cls-6" x1="150.75" y1="227.24" x2="150.75" y2="304.62"/><line class="cls-5" x1="202.34" y1="227.24" x2="202.34" y2="304.62"/><line class="cls-6" x1="228.13" y1="227.24" x2="228.13" y2="304.62"/><line class="cls-5" x1="228.13" y1="253.04" x2="150.75" y2="253.04"/><line class="cls-6" x1="228.13" y1="227.24" x2="150.75" y2="227.24"/><line class="cls-5" x1="228.13" y1="278.83" x2="150.75" y2="278.83"/><line class="cls-6" x1="228.13" y1="304.62" x2="150.75" y2="304.62"/><line class="cls-5" x1="253.92" y1="227.24" x2="253.92" y2="304.62"/><line class="cls-6" x1="228.13" y1="227.24" x2="228.13" y2="304.62"/><line class="cls-5" x1="279.72" y1="227.24" x2="279.72" y2="304.62"/><line class="cls-6" x1="305.51" y1="227.24" x2="305.51" y2="304.62"/><line class="cls-5" x1="305.51" y1="253.04" x2="228.13" y2="253.04"/><line class="cls-6" x1="305.51" y1="227.24" x2="228.13" y2="227.24"/><line class="cls-5" x1="305.51" y1="278.83" x2="228.13" y2="278.83"/><line class="cls-6" x1="305.51" y1="304.62" x2="228.13" y2="304.62"/><line class="cls-5" x1="331.3" y1="227.24" x2="331.3" y2="304.62"/><line class="cls-6" x1="305.51" y1="227.24" x2="305.51" y2="304.62"/><line class="cls-5" x1="357.09" y1="227.24" x2="357.09" y2="304.62"/><line class="cls-5" x1="382.88" y1="253.04" x2="305.51" y2="253.04"/><line class="cls-6" x1="382.88" y1="227.24" x2="305.51" y2="227.24"/><line class="cls-5" x1="382.88" y1="278.83" x2="305.51" y2="278.83"/><line class="cls-6" x1="382.88" y1="304.62" x2="305.51" y2="304.62"/><line class="cls-5" x1="21.79" y1="304.62" x2="21.79" y2="382"/><line class="cls-5" x1="47.58" y1="304.62" x2="47.58" y2="382"/><line class="cls-6" x1="73.38" y1="304.62" x2="73.38" y2="382"/><line class="cls-5" x1="73.38" y1="330.41" x2="-4" y2="330.41"/><line class="cls-6" x1="73.38" y1="304.62" x2="-4" y2="304.62"/><line class="cls-5" x1="73.38" y1="356.2" x2="-4" y2="356.2"/><line class="cls-6" x1="73.38" y1="382" x2="-4" y2="382"/><line class="cls-5" x1="99.17" y1="304.62" x2="99.17" y2="382"/><line class="cls-6" x1="73.38" y1="304.62" x2="73.38" y2="382"/><line class="cls-5" x1="124.96" y1="304.62" x2="124.96" y2="382"/><line class="cls-6" x1="150.75" y1="304.62" x2="150.75" y2="382"/><line class="cls-5" x1="150.75" y1="330.41" x2="73.38" y2="330.41"/><line class="cls-6" x1="150.75" y1="304.62" x2="73.38" y2="304.62"/><line class="cls-5" x1="150.75" y1="356.2" x2="73.38" y2="356.2"/><line class="cls-6" x1="150.75" y1="382" x2="73.38" y2="382"/><line class="cls-5" x1="176.55" y1="304.62" x2="176.55" y2="382"/><line class="cls-6" x1="150.75" y1="304.62" x2="150.75" y2="382"/><line class="cls-5" x1="202.34" y1="304.62" x2="202.34" y2="382"/><line class="cls-6" x1="228.13" y1="304.62" x2="228.13" y2="382"/><line class="cls-5" x1="228.13" y1="330.41" x2="150.75" y2="330.41"/><line class="cls-6" x1="228.13" y1="304.62" x2="150.75" y2="304.62"/><line class="cls-5" x1="228.13" y1="356.2" x2="150.75" y2="356.2"/><line class="cls-6" x1="228.13" y1="382" x2="150.75" y2="382"/><line class="cls-5" x1="253.92" y1="304.62" x2="253.92" y2="382"/><line class="cls-6" x1="228.13" y1="304.62" x2="228.13" y2="382"/><line class="cls-5" x1="279.72" y1="304.62" x2="279.72" y2="382"/><line class="cls-6" x1="305.51" y1="304.62" x2="305.51" y2="382"/><line class="cls-5" x1="305.51" y1="330.41" x2="228.13" y2="330.41"/><line class="cls-6" x1="305.51" y1="304.62" x2="228.13" y2="304.62"/><line class="cls-5" x1="305.51" y1="356.2" x2="228.13" y2="356.2"/><line class="cls-6" x1="305.51" y1="382" x2="228.13" y2="382"/><line class="cls-5" x1="331.3" y1="304.62" x2="331.3" y2="382"/><line class="cls-6" x1="305.51" y1="304.62" x2="305.51" y2="382"/><line class="cls-5" x1="357.09" y1="304.62" x2="357.09" y2="382"/><line class="cls-5" x1="382.88" y1="330.41" x2="305.51" y2="330.41"/><line class="cls-6" x1="382.88" y1="304.62" x2="305.51" y2="304.62"/><line class="cls-5" x1="382.88" y1="356.2" x2="305.51" y2="356.2"/><line class="cls-6" x1="382.88" y1="382" x2="305.51" y2="382"/><line class="cls-5" x1="21.79" y1="382" x2="21.79" y2="459.37"/><line class="cls-5" x1="47.58" y1="382" x2="47.58" y2="459.37"/><line class="cls-6" x1="73.38" y1="382" x2="73.38" y2="459.37"/><line class="cls-5" x1="73.38" y1="407.79" x2="-4" y2="407.79"/><line class="cls-6" x1="73.38" y1="382" x2="-4" y2="382"/><line class="cls-5" x1="73.38" y1="433.58" x2="-4" y2="433.58"/><line class="cls-6" x1="73.38" y1="459.37" x2="-4" y2="459.37"/><line class="cls-5" x1="99.17" y1="382" x2="99.17" y2="459.37"/><line class="cls-6" x1="73.38" y1="382" x2="73.38" y2="459.37"/><line class="cls-5" x1="124.96" y1="382" x2="124.96" y2="459.37"/><line class="cls-6" x1="150.75" y1="382" x2="150.75" y2="459.37"/><line class="cls-5" x1="150.75" y1="407.79" x2="73.38" y2="407.79"/><line class="cls-6" x1="150.75" y1="382" x2="73.38" y2="382"/><line class="cls-5" x1="150.75" y1="433.58" x2="73.38" y2="433.58"/><line class="cls-6" x1="150.75" y1="459.37" x2="73.38" y2="459.37"/><line class="cls-5" x1="176.55" y1="382" x2="176.55" y2="459.37"/><line class="cls-6" x1="150.75" y1="382" x2="150.75" y2="459.37"/><line class="cls-5" x1="202.34" y1="382" x2="202.34" y2="459.37"/><line class="cls-6" x1="228.13" y1="382" x2="228.13" y2="459.37"/><line class="cls-5" x1="228.13" y1="407.79" x2="150.75" y2="407.79"/><line class="cls-6" x1="228.13" y1="382" x2="150.75" y2="382"/><line class="cls-5" x1="228.13" y1="433.58" x2="150.75" y2="433.58"/><line class="cls-6" x1="228.13" y1="459.37" x2="150.75" y2="459.37"/><line class="cls-5" x1="253.92" y1="382" x2="253.92" y2="459.37"/><line class="cls-6" x1="228.13" y1="382" x2="228.13" y2="459.37"/><line class="cls-5" x1="279.72" y1="382" x2="279.72" y2="459.37"/><line class="cls-6" x1="305.51" y1="382" x2="305.51" y2="459.37"/><line class="cls-5" x1="305.51" y1="407.79" x2="228.13" y2="407.79"/><line class="cls-6" x1="305.51" y1="382" x2="228.13" y2="382"/><line class="cls-5" x1="305.51" y1="433.58" x2="228.13" y2="433.58"/><line class="cls-6" x1="305.51" y1="459.37" x2="228.13" y2="459.37"/><line class="cls-5" x1="331.3" y1="382" x2="331.3" y2="459.37"/><line class="cls-6" x1="305.51" y1="382" x2="305.51" y2="459.37"/><line class="cls-5" x1="357.09" y1="382" x2="357.09" y2="459.37"/><line class="cls-5" x1="382.88" y1="407.79" x2="305.51" y2="407.79"/><line class="cls-6" x1="382.88" y1="382" x2="305.51" y2="382"/><line class="cls-5" x1="382.88" y1="433.58" x2="305.51" y2="433.58"/><line class="cls-6" x1="382.88" y1="459.37" x2="305.51" y2="459.37"/><line class="cls-5" x1="21.79" y1="459.37" x2="21.79" y2="536.75"/><line class="cls-5" x1="47.58" y1="459.37" x2="47.58" y2="536.75"/><line class="cls-6" x1="73.38" y1="459.37" x2="73.38" y2="536.75"/><line class="cls-5" x1="73.38" y1="485.17" x2="-4" y2="485.17"/><line class="cls-6" x1="73.38" y1="459.37" x2="-4" y2="459.37"/><line class="cls-5" x1="73.38" y1="510.96" x2="-4" y2="510.96"/><line class="cls-6" x1="73.38" y1="536.75" x2="-4" y2="536.75"/><line class="cls-5" x1="99.17" y1="459.37" x2="99.17" y2="536.75"/><line class="cls-6" x1="73.38" y1="459.37" x2="73.38" y2="536.75"/><line class="cls-5" x1="124.96" y1="459.37" x2="124.96" y2="536.75"/><line class="cls-6" x1="150.75" y1="459.37" x2="150.75" y2="536.75"/><line class="cls-5" x1="150.75" y1="485.17" x2="73.38" y2="485.17"/><line class="cls-6" x1="150.75" y1="459.37" x2="73.38" y2="459.37"/><line class="cls-5" x1="150.75" y1="510.96" x2="73.38" y2="510.96"/><line class="cls-6" x1="150.75" y1="536.75" x2="73.38" y2="536.75"/><line class="cls-5" x1="176.55" y1="459.37" x2="176.55" y2="536.75"/><line class="cls-6" x1="150.75" y1="459.37" x2="150.75" y2="536.75"/><line class="cls-5" x1="202.34" y1="459.37" x2="202.34" y2="536.75"/><line class="cls-6" x1="228.13" y1="459.37" x2="228.13" y2="536.75"/><line class="cls-5" x1="228.13" y1="485.17" x2="150.75" y2="485.17"/><line class="cls-6" x1="228.13" y1="459.37" x2="150.75" y2="459.37"/><line class="cls-5" x1="228.13" y1="510.96" x2="150.75" y2="510.96"/><line class="cls-6" x1="228.13" y1="536.75" x2="150.75" y2="536.75"/><line class="cls-5" x1="253.92" y1="459.37" x2="253.92" y2="536.75"/><line class="cls-6" x1="228.13" y1="459.37" x2="228.13" y2="536.75"/><line class="cls-5" x1="279.72" y1="459.37" x2="279.72" y2="536.75"/><line class="cls-6" x1="305.51" y1="459.37" x2="305.51" y2="536.75"/><line class="cls-5" x1="305.51" y1="485.17" x2="228.13" y2="485.17"/><line class="cls-6" x1="305.51" y1="459.37" x2="228.13" y2="459.37"/><line class="cls-5" x1="305.51" y1="510.96" x2="228.13" y2="510.96"/><line class="cls-6" x1="305.51" y1="536.75" x2="228.13" y2="536.75"/><line class="cls-5" x1="331.3" y1="459.37" x2="331.3" y2="536.75"/><line class="cls-6" x1="305.51" y1="459.37" x2="305.51" y2="536.75"/><line class="cls-5" x1="357.09" y1="459.37" x2="357.09" y2="536.75"/><line class="cls-5" x1="382.88" y1="485.17" x2="305.51" y2="485.17"/><line class="cls-6" x1="382.88" y1="459.37" x2="305.51" y2="459.37"/><line class="cls-5" x1="382.88" y1="510.96" x2="305.51" y2="510.96"/><line class="cls-6" x1="382.88" y1="536.75" x2="305.51" y2="536.75"/><line class="cls-5" x1="21.79" y1="536.75" x2="21.79" y2="614.13"/><line class="cls-5" x1="47.58" y1="536.75" x2="47.58" y2="614.13"/><line class="cls-6" x1="73.38" y1="536.75" x2="73.38" y2="614.13"/><line class="cls-5" x1="73.38" y1="562.54" x2="-4" y2="562.54"/><line class="cls-6" x1="73.38" y1="536.75" x2="-4" y2="536.75"/><line class="cls-5" x1="73.38" y1="588.34" x2="-4" y2="588.34"/><line class="cls-6" x1="73.38" y1="614.13" x2="-4" y2="614.13"/><line class="cls-5" x1="99.17" y1="536.75" x2="99.17" y2="614.13"/><line class="cls-6" x1="73.38" y1="536.75" x2="73.38" y2="614.13"/><line class="cls-5" x1="124.96" y1="536.75" x2="124.96" y2="614.13"/><line class="cls-6" x1="150.75" y1="536.75" x2="150.75" y2="614.13"/><line class="cls-5" x1="150.75" y1="562.54" x2="73.38" y2="562.54"/><line class="cls-6" x1="150.75" y1="536.75" x2="73.38" y2="536.75"/><line class="cls-5" x1="150.75" y1="588.34" x2="73.38" y2="588.34"/><line class="cls-6" x1="150.75" y1="614.13" x2="73.38" y2="614.13"/><line class="cls-5" x1="176.55" y1="536.75" x2="176.55" y2="614.13"/><line class="cls-6" x1="150.75" y1="536.75" x2="150.75" y2="614.13"/><line class="cls-5" x1="202.34" y1="536.75" x2="202.34" y2="614.13"/><line class="cls-6" x1="228.13" y1="536.75" x2="228.13" y2="614.13"/><line class="cls-5" x1="228.13" y1="562.54" x2="150.75" y2="562.54"/><line class="cls-6" x1="228.13" y1="536.75" x2="150.75" y2="536.75"/><line class="cls-5" x1="228.13" y1="588.34" x2="150.75" y2="588.34"/><line class="cls-6" x1="228.13" y1="614.13" x2="150.75" y2="614.13"/><line class="cls-5" x1="253.92" y1="536.75" x2="253.92" y2="614.13"/><line class="cls-6" x1="228.13" y1="536.75" x2="228.13" y2="614.13"/><line class="cls-5" x1="279.72" y1="536.75" x2="279.72" y2="614.13"/><line class="cls-6" x1="305.51" y1="536.75" x2="305.51" y2="614.13"/><line class="cls-5" x1="305.51" y1="562.54" x2="228.13" y2="562.54"/><line class="cls-6" x1="305.51" y1="536.75" x2="228.13" y2="536.75"/><line class="cls-5" x1="305.51" y1="588.34" x2="228.13" y2="588.34"/><line class="cls-6" x1="305.51" y1="614.13" x2="228.13" y2="614.13"/><line class="cls-5" x1="331.3" y1="536.75" x2="331.3" y2="614.13"/><line class="cls-6" x1="305.51" y1="536.75" x2="305.51" y2="614.13"/><line class="cls-5" x1="357.09" y1="536.75" x2="357.09" y2="614.13"/><line class="cls-5" x1="382.88" y1="562.54" x2="305.51" y2="562.54"/><line class="cls-6" x1="382.88" y1="536.75" x2="305.51" y2="536.75"/><line class="cls-5" x1="382.88" y1="588.34" x2="305.51" y2="588.34"/><line class="cls-6" x1="382.88" y1="614.13" x2="305.51" y2="614.13"/><line class="cls-5" x1="21.79" y1="614.13" x2="21.79" y2="691.51"/><line class="cls-5" x1="47.58" y1="614.13" x2="47.58" y2="691.51"/><line class="cls-6" x1="73.38" y1="614.13" x2="73.38" y2="691.51"/><line class="cls-5" x1="73.38" y1="639.92" x2="-4" y2="639.92"/><line class="cls-6" x1="73.38" y1="614.13" x2="-4" y2="614.13"/><line class="cls-5" x1="99.17" y1="614.13" x2="99.17" y2="691.51"/><line class="cls-6" x1="73.38" y1="614.13" x2="73.38" y2="691.51"/><line class="cls-5" x1="124.96" y1="614.13" x2="124.96" y2="691.51"/><line class="cls-6" x1="150.75" y1="614.13" x2="150.75" y2="691.51"/><line class="cls-5" x1="150.75" y1="639.92" x2="73.38" y2="639.92"/><line class="cls-6" x1="150.75" y1="614.13" x2="73.38" y2="614.13"/><line class="cls-5" x1="176.55" y1="614.13" x2="176.55" y2="691.51"/><line class="cls-6" x1="150.75" y1="614.13" x2="150.75" y2="691.51"/><line class="cls-5" x1="202.34" y1="614.13" x2="202.34" y2="691.51"/><line class="cls-6" x1="228.13" y1="614.13" x2="228.13" y2="691.51"/><line class="cls-5" x1="228.13" y1="639.92" x2="150.75" y2="639.92"/><line class="cls-6" x1="228.13" y1="614.13" x2="150.75" y2="614.13"/><line class="cls-5" x1="253.92" y1="614.13" x2="253.92" y2="691.51"/><line class="cls-6" x1="228.13" y1="614.13" x2="228.13" y2="691.51"/><line class="cls-5" x1="279.72" y1="614.13" x2="279.72" y2="691.51"/><line class="cls-6" x1="305.51" y1="614.13" x2="305.51" y2="691.51"/><line class="cls-5" x1="305.51" y1="639.92" x2="228.13" y2="639.92"/><line class="cls-6" x1="305.51" y1="614.13" x2="228.13" y2="614.13"/><line class="cls-5" x1="331.3" y1="614.13" x2="331.3" y2="691.51"/><line class="cls-6" x1="305.51" y1="614.13" x2="305.51" y2="691.51"/><line class="cls-5" x1="357.09" y1="614.13" x2="357.09" y2="691.51"/><line class="cls-5" x1="382.88" y1="639.92" x2="305.51" y2="639.92"/><line class="cls-6" x1="382.88" y1="614.13" x2="305.51" y2="614.13"/></g></g></svg>