<svg width="190px" height="55px" viewBox="0 0 190 55" >
    <g id="Symbols" stroke="none" stroke-width="1" fill="none" fill-rule="evenodd">
        <g id="ATOMS/HEADER" transform="translate(-40.000000, -9.000000)">
            <g id="Combined-Shape">
                <use fill="black" fill-opacity="1" filter="url(#filter-2)" xlink:href="#path-1"></use>
                <use fill="#FEFEFE" fill-rule="evenodd" xlink:href="#path-1"></use>
            </g>
            <g id="logo" transform="translate(40.000000, 9.000000)">
                <path d="M102.69465,15.2348225 L117.38551,15.2348225 C117.955244,15.2348225 118.416834,14.7513965 118.416834,14.1547108 L118.416834,13.2679696 C118.416834,12.6712839 117.955244,12.187858 117.38551,12.187858 L102.69465,12.187858 C102.124916,12.187858 101.663327,12.6712839 101.663327,13.2679696 L101.663327,14.1547108 C101.663327,14.7513965 102.124916,15.2348225 102.69465,15.2348225" id="Fill-1" fill="#000000"></path>
                <path d="M60.1007933,51.0448576 C59.995343,50.9196635 59.8118767,50.9084392 59.6841362,51.0111847 C59.4372282,51.2080416 59.1337372,51.3444599 58.781379,51.3444599 C57.9523513,51.3444599 57.4165268,50.6658218 57.4165268,49.4967682 C57.4165268,48.3527535 58.0389406,47.6741153 58.7968108,47.6741153 C59.1131615,47.6741153 59.3660707,47.7820413 59.5975469,47.9512691 C59.7244302,48.0445171 59.9010379,48.0263855 60.0013443,47.9046451 L60.3777074,47.448766 C60.4805857,47.323572 60.4660113,47.1362126 60.3399854,47.0343305 C59.9464758,46.7140064 59.412366,46.4662085 58.7728058,46.4662085 C57.2819277,46.4662085 55.9719439,47.5869112 55.9719439,49.5442556 C55.9719439,51.5335461 57.2347751,52.5601375 58.7256533,52.5601375 C59.3917903,52.5601375 59.9747674,52.3382418 60.4428637,51.9004943 C60.5594591,51.7917049 60.5757482,51.6112528 60.4728698,51.488649 L60.1007933,51.0448576 Z" id="Fill-3" fill="#000000"></path>
                <path d="M67.2006096,46.4662085 C66.8738808,46.4662085 66.6332665,46.69326 66.6332665,47.0379739 C66.6332665,47.3734955 66.8738808,47.6088202 67.2006096,47.6088202 C67.5264942,47.6088202 67.7755511,47.3734955 67.7755511,47.0379739 C67.7755511,46.69326 67.5264942,46.4662085 67.2006096,46.4662085" id="Fill-5" fill="#000000"></path>
                <path d="M63.7025072,47.9781904 C63.0778628,47.9781904 62.6188849,48.311439 62.2196557,48.6846776 L62.2531511,47.7995691 L62.2531511,46.0853379 L61.3026052,46.0853379 L61.3026052,52.5601375 L62.2531511,52.5601375 L62.2531511,49.3920534 C62.6614332,48.9939323 62.9529339,48.7824305 63.3775111,48.7824305 C63.9188696,48.7824305 64.1524323,49.0907966 64.1524323,49.8630449 L64.1524323,52.5601375 L65.1102204,52.5601375 L65.1102204,49.749296 C65.1102204,48.6118072 64.6774957,47.9781904 63.7025072,47.9781904" id="Fill-7" fill="#000000"></path>
                <polygon id="Fill-9" fill="#000000" points="66.6332665 52.941008 67.3947896 52.941008 67.3947896 48.3705613 66.6332665 48.3705613"></polygon>
                <path d="M70.1466142,52.1891409 C70.0253346,52.1891409 69.904055,52.1008403 69.904055,51.8534235 L69.904055,46.4662085 L68.9178357,46.4662085 L68.9178357,51.805339 C68.9178357,52.51699 69.185779,52.941008 69.904055,52.941008 C70.1466142,52.941008 70.3196022,52.9086602 70.4408818,52.8684441 L70.3111408,52.1734042 C70.2246468,52.1891409 70.1898612,52.1891409 70.1466142,52.1891409" id="Fill-11" fill="#000000"></path>
                <path d="M74.5046274,51.6460481 C74.1963998,52.014163 73.8957105,52.1820443 73.5405787,52.1820443 C72.878057,52.1820443 72.5003108,51.6303092 72.5003108,50.6308905 C72.5003108,49.6795627 72.978566,49.0963499 73.571569,49.0963499 C73.8881723,49.0963499 74.1888617,49.199527 74.5046274,49.4959425 L74.5046274,51.6460481 Z M74.5046274,48.0969311 L74.5431558,48.824417 C74.1963998,48.5201321 73.8881723,48.3286424 73.4023789,48.3286424 C72.4542442,48.3286424 71.5831663,49.2152658 71.5831663,50.6466294 C71.5831663,52.1016012 72.2691401,52.941008 73.3328602,52.941008 C73.8111154,52.941008 74.2500046,52.677819 74.5657703,52.3411819 L74.5892224,52.3411819 L74.6662793,52.8369565 L75.3907816,52.8369565 L75.3907816,46.4662085 L74.5046274,46.4662085 L74.5046274,48.0969311 Z" id="Fill-12" fill="#000000"></path>
                <path d="M88.8538193,50.2715206 C88.9417811,49.5029924 89.4312321,49.0836376 89.9842595,49.0836376 C90.6252487,49.0836376 90.9701287,49.5194546 90.9701287,50.2715206 L88.8538193,50.2715206 Z M89.9677122,48.3705613 C88.9339429,48.3705613 87.9559118,49.2499932 87.9559118,50.6674815 C87.9559118,52.1014321 88.9104284,52.941008 90.1044449,52.941008 C90.6809869,52.941008 91.1861142,52.7512587 91.5954416,52.4817973 L91.274947,51.9030184 C90.9535815,52.10923 90.6174105,52.2279317 90.2246304,52.2279317 C89.4634557,52.2279317 88.9339429,51.7288649 88.8616574,50.8970869 L91.7234652,50.8970869 C91.7478507,50.7939811 91.7635271,50.6120297 91.7635271,50.4378761 C91.7635271,49.2023393 91.1382142,48.3705613 89.9677122,48.3705613 L89.9677122,48.3705613 Z" id="Fill-13" fill="#000000"></path>
                <path d="M93.7538286,52.1899138 C93.632549,52.1899138 93.5112695,52.1016012 93.5112695,51.8541511 L93.5112695,46.4662085 L92.5250501,46.4662085 L92.5250501,51.80606 C92.5250501,52.5178071 92.7929934,52.941008 93.5112695,52.941008 C93.7538286,52.941008 93.9268166,52.9095303 94.0480962,52.8693087 L93.9183552,52.1741749 C93.8318613,52.1899138 93.7970756,52.1899138 93.7538286,52.1899138" id="Fill-14" fill="#000000"></path>
                <path d="M95.3872192,47.6118029 L95.3872192,48.1634636 L94.8096192,48.2115481 L94.8096192,48.8987196 L95.3872192,48.8987196 L95.3872192,52.5601375 L96.2728724,52.5601375 L96.2728724,48.8987196 L97.1283899,48.8987196 L97.1283899,48.1634636 L96.2728724,48.1634636 L96.2728724,47.6039346 C96.2728724,47.0680107 96.4578718,46.8127256 96.8354045,46.8127256 C96.9818972,46.8127256 97.1442949,46.8529417 97.2983215,46.9246314 L97.4749499,46.2374599 C97.2824166,46.1491592 97.01287,46.0853379 96.7274184,46.0853379 C95.7798197,46.0853379 95.3872192,46.7086882 95.3872192,47.6118029" id="Fill-15" fill="#000000"></path>
                <path d="M100.776001,51.7132691 C100.428787,52.0381823 100.1277,52.2201338 99.757003,52.2201338 C99.3787575,52.2201338 99.0936057,52.0459803 99.0936057,51.6179612 C99.0936057,51.1275587 99.5179787,50.8026455 100.776001,50.6440878 L100.776001,51.7132691 Z M100.120152,48.3705613 C99.44082,48.3705613 98.8461946,48.6556185 98.4058867,48.9406758 L98.7380046,49.5584442 C99.1011538,49.3210409 99.5179787,49.1148293 99.9658348,49.1148293 C100.590653,49.1148293 100.768453,49.5584442 100.776001,50.0653089 C99.0080602,50.2637226 98.2364729,50.7471936 98.2364729,51.6820774 C98.2364729,52.4497391 98.7531009,52.941008 99.4869475,52.941008 C99.9960273,52.941008 100.451431,52.680211 100.838064,52.3388354 L100.860708,52.3388354 L100.937867,52.8379022 L101.663327,52.8379022 L101.663327,50.2160687 C101.663327,49.0593774 101.176891,48.3705613 100.120152,48.3705613 L100.120152,48.3705613 Z" id="Fill-16" fill="#000000"></path>
                <path d="M103.677966,48.9053756 L103.65294,48.9053756 L103.578754,48.1031541 L102.805611,48.1031541 L102.805611,52.5601375 L103.744108,52.5601375 L103.744108,49.7811711 C104.031914,49.0755707 104.476135,48.8238238 104.846171,48.8238238 C105.02672,48.8238238 105.142021,48.848644 105.298437,48.8973978 L105.470942,48.0871983 C105.331508,48.0224887 105.183136,47.9896907 104.961472,47.9896907 C104.476135,47.9896907 103.998843,48.3300809 103.677966,48.9053756" id="Fill-17" fill="#000000"></path>
                <path d="M106.749611,50.2715206 C106.837573,49.5029924 107.327024,49.0836376 107.880051,49.0836376 C108.52104,49.0836376 108.86592,49.5194546 108.86592,50.2715206 L106.749611,50.2715206 Z M107.863504,48.3705613 C106.829734,48.3705613 105.851703,49.2499932 105.851703,50.6674815 C105.851703,52.1014321 106.805349,52.941008 108.000237,52.941008 C108.576778,52.941008 109.081906,52.7512587 109.491233,52.4817973 L109.170739,51.9030184 C108.849373,52.10923 108.513202,52.2279317 108.120422,52.2279317 C107.359247,52.2279317 106.829734,51.7288649 106.757449,50.8970869 L109.619257,50.8970869 C109.643642,50.7939811 109.659319,50.6120297 109.659319,50.4378761 C109.659319,49.2023393 109.034006,48.3705613 107.863504,48.3705613 L107.863504,48.3705613 Z" id="Fill-18" fill="#000000"></path>
                <path d="M86.8917131,46.4662085 L86.1352116,46.4662085 C85.9844403,46.4662085 85.8565933,46.5781963 85.8354324,46.7287079 L85.4818693,49.2426104 C85.4095696,49.8733258 85.3284529,50.5210633 85.2552715,51.1759681 L85.2147132,51.1759681 C85.0930381,50.5210633 84.9872337,49.8652627 84.8655586,49.2426104 L84.2871611,46.7036226 C84.2554198,46.5647578 84.132863,46.4662085 83.9917905,46.4662085 L83.2582132,46.4662085 C83.1162589,46.4662085 82.9937021,46.5656537 82.9628425,46.7045185 L82.3985523,49.2426104 C82.2768772,49.8733258 82.1552022,50.5291264 82.0414624,51.1759681 L82.0088394,51.1759681 L81.7654892,49.2426104 L81.4207432,46.7296038 C81.3995823,46.5790922 81.2717353,46.4662085 81.120964,46.4662085 L80.2621848,46.4662085 C80.0735003,46.4662085 79.9306643,46.6391177 79.9650508,46.8263613 L80.9578489,52.3092847 C80.9834183,52.454421 81.1095019,52.5601375 81.2549829,52.5601375 L82.5484419,52.5601375 C82.6921596,52.5601375 82.8164798,52.4571087 82.8446943,52.3146602 L83.3234592,49.9064742 C83.413393,49.439709 83.4856927,48.9478585 83.5588741,48.4891564 L83.5994324,48.4891564 C83.6567431,48.9478585 83.7378599,49.439709 83.8348472,49.9064742 L84.3286012,52.316452 C84.3576974,52.4580046 84.4820176,52.5601375 84.6248535,52.5601375 L85.9500538,52.5601375 C86.0972983,52.5601375 86.2225002,52.4535251 86.2480696,52.306597 L87.1897289,46.8236736 C87.2223519,46.6373259 87.079516,46.4662085 86.8917131,46.4662085" id="Fill-19" fill="#000000"></path>
                <path d="M129.924667,53.8576142 C129.186476,53.8576142 128.73139,53.6017658 128.73139,53.1704036 C128.73139,52.9477368 128.845161,52.7241969 129.113274,52.5320922 C129.299365,52.5722596 129.503095,52.595836 129.713881,52.595836 L130.387691,52.595836 C130.930971,52.595836 131.223778,52.707606 131.223778,53.0752244 C131.223778,53.482137 130.70431,53.8576142 129.924667,53.8576142 M129.818833,48.6367341 C130.289794,48.6367341 130.663741,48.9799028 130.663741,49.570188 C130.663741,50.1534875 130.281857,50.5123739 129.818833,50.5123739 C129.356692,50.5123739 128.974808,50.1534875 128.974808,49.570188 C128.974808,48.972044 129.348754,48.6367341 129.818833,48.6367341 M130.517337,51.8614724 L129.697124,51.8614724 C129.129149,51.8614724 128.950995,51.6938174 128.950995,51.4301102 C128.950995,51.2231611 129.04801,51.0948003 129.194413,50.9673126 C129.389324,51.0555061 129.615985,51.1035323 129.818833,51.1035323 C130.752817,51.1035323 131.491009,50.5525412 131.491009,49.5946377 C131.491009,49.2593277 131.3693,48.9641852 131.199084,48.7877982 L132.051047,48.7877982 L132.051047,48.1014607 L130.46883,48.1014607 C130.297732,48.0377169 130.071071,47.9896907 129.818833,47.9896907 C128.893669,47.9896907 128.090213,48.5721171 128.090213,49.570188 C128.090213,50.0888705 128.3742,50.5045151 128.674945,50.7359139 L128.674945,50.7682224 C128.431527,50.9437361 128.17929,51.2388787 128.17929,51.5820475 C128.17929,51.9418071 128.358325,52.1732058 128.584986,52.3085523 L128.584986,52.3487196 C128.171352,52.595836 127.935872,52.9390048 127.935872,53.3066232 C127.935872,54.0732954 128.715515,54.4644903 129.786201,54.4644903 C131.214959,54.4644903 132.124248,53.7772796 132.124248,52.931146 C132.124248,52.1810647 131.572148,51.8614724 130.517337,51.8614724" id="Fill-20" fill="#000000"></path>
                <path d="M119.695503,50.2715206 C119.783464,49.5029924 120.272915,49.0836376 120.825943,49.0836376 C121.466932,49.0836376 121.811812,49.5185882 121.811812,50.2715206 L119.695503,50.2715206 Z M120.809396,48.3705613 C119.775626,48.3705613 118.797595,49.2491268 118.797595,50.6674815 C118.797595,52.1014321 119.752112,52.941008 120.946128,52.941008 C121.52267,52.941008 122.027798,52.7512587 122.437125,52.4817973 L122.11663,51.9030184 C121.795265,52.10923 121.459094,52.2279317 121.066314,52.2279317 C120.305139,52.2279317 119.775626,51.7288649 119.703341,50.8970869 L122.565149,50.8970869 C122.589534,50.7948475 122.60521,50.6120297 122.60521,50.4378761 C122.60521,49.2023393 121.979898,48.3705613 120.809396,48.3705613 L120.809396,48.3705613 Z" id="Fill-21" fill="#000000"></path>
                <path d="M126.287023,51.7132691 C125.939809,52.0381823 125.638722,52.2201338 125.268025,52.2201338 C124.88978,52.2201338 124.604628,52.0459803 124.604628,51.6179612 C124.604628,51.1275587 125.029001,50.8026455 126.287023,50.6440878 L126.287023,51.7132691 Z M125.631174,48.3705613 C124.951842,48.3705613 124.357217,48.6556185 123.917747,48.9406758 L124.249027,49.5584442 C124.612176,49.3210409 125.029001,49.1148293 125.476018,49.1148293 C126.101675,49.1148293 126.279475,49.5584442 126.287023,50.0653089 C124.519082,50.2637226 123.747495,50.7471936 123.747495,51.6820774 C123.747495,52.4497391 124.264962,52.941008 124.99797,52.941008 C125.507049,52.941008 125.962454,52.680211 126.349086,52.3388354 L126.37173,52.3388354 L126.448889,52.8379022 L127.174349,52.8379022 L127.174349,50.2160687 C127.174349,49.0593774 126.688752,48.3705613 125.631174,48.3705613 L125.631174,48.3705613 Z" id="Fill-22" fill="#000000"></path>
                <path d="M136.109941,51.4713967 C135.724441,51.9420275 135.430075,52.1373837 135.002653,52.1373837 C134.457666,52.1373837 134.23074,51.8372456 134.23074,51.0655886 L134.23074,48.3705613 L133.266533,48.3705613 L133.266533,51.1792504 C133.266533,52.3158682 133.693956,52.941008 134.675478,52.941008 C135.313422,52.941008 135.766363,52.632878 136.185583,52.1613592 L136.211101,52.1613592 L136.285832,52.8353381 L137.074148,52.8353381 L137.074148,48.3705613 L136.109941,48.3705613 L136.109941,51.4713967 Z" id="Fill-23" fill="#000000"></path>
                <path d="M138.733579,50.2715206 C138.821541,49.5029924 139.310992,49.0836376 139.864019,49.0836376 C140.505008,49.0836376 140.849888,49.5185882 140.849888,50.2715206 L138.733579,50.2715206 Z M139.847472,48.3705613 C138.813702,48.3705613 137.835671,49.2491268 137.835671,50.6674815 C137.835671,52.1014321 138.790188,52.941008 139.984204,52.941008 C140.560746,52.941008 141.065874,52.7512587 141.475201,52.4817973 L141.154706,51.9030184 C140.833341,52.10923 140.49717,52.2279317 140.10439,52.2279317 C139.343215,52.2279317 138.813702,51.7288649 138.741417,50.8970869 L141.603225,50.8970869 C141.62761,50.7948475 141.643287,50.6120297 141.643287,50.4378761 C141.643287,49.2023393 141.017974,48.3705613 139.847472,48.3705613 L139.847472,48.3705613 Z" id="Fill-24" fill="#000000"></path>
                <path d="M117.732029,51.3318551 L115.988197,51.3318551 C115.820266,51.3318551 115.685038,51.194782 115.685038,51.0263523 L115.685038,46.7717112 C115.685038,46.6032816 115.548925,46.4662085 115.380994,46.4662085 L114.531617,46.4662085 C114.364569,46.4662085 114.228457,46.6032816 114.228457,46.7717112 L114.228457,52.2546347 C114.228457,52.4239603 114.364569,52.5601375 114.531617,52.5601375 L117.732029,52.5601375 C117.89996,52.5601375 118.036072,52.4239603 118.036072,52.2546347 L118.036072,51.6373579 C118.036072,51.4689282 117.89996,51.3318551 117.732029,51.3318551" id="Fill-25" fill="#000000"></path>
                <path d="M149.72125,46.4662085 L146.511215,46.4662085 C146.345704,46.4662085 146.212425,46.6032816 146.212425,46.7717112 L146.212425,52.2546347 C146.212425,52.4230644 146.345704,52.5601375 146.511215,52.5601375 L147.34835,52.5601375 C147.513861,52.5601375 147.647141,52.4230644 147.647141,52.2546347 L147.647141,50.5398773 C147.647141,50.3705517 147.781291,50.2343745 147.946802,50.2343745 L149.385002,50.2343745 C149.549641,50.2343745 149.683792,50.0973014 149.683792,49.9288717 L149.683792,49.319658 C149.683792,49.1503324 149.549641,49.0141553 149.385002,49.0141553 L147.946802,49.0141553 C147.781291,49.0141553 147.647141,48.8770822 147.647141,48.7077566 L147.647141,47.9838674 C147.647141,47.8154377 147.781291,47.6783646 147.946802,47.6783646 L149.72125,47.6783646 C149.88676,47.6783646 150.02004,47.5421874 150.02004,47.3728618 L150.02004,46.7717112 C150.02004,46.6032816 149.88676,46.4662085 149.72125,46.4662085" id="Fill-26" fill="#000000"></path>
                <path d="M152.875752,52.19674 C152.18091,52.19674 151.744328,51.5867695 151.744328,50.6674815 C151.744328,49.7412621 152.18091,49.1234936 152.875752,49.1234936 C153.579378,49.1234936 154.01596,49.7412621 154.01596,50.6674815 C154.01596,51.5867695 153.579378,52.19674 152.875752,52.19674 M152.875752,48.3705613 C151.775951,48.3705613 150.781563,49.2101372 150.781563,50.6674815 C150.781563,52.10923 151.775951,52.941008 152.875752,52.941008 C153.975552,52.941008 154.96994,52.10923 154.96994,50.6674815 C154.96994,49.2101372 153.975552,48.3705613 152.875752,48.3705613" id="Fill-27" fill="#000000"></path>
                <path d="M158.574871,51.4713967 C158.188459,51.9420275 157.895005,52.1373837 157.467582,52.1373837 C156.922596,52.1373837 156.69567,51.8363576 156.69567,51.0655886 L156.69567,48.3705613 L155.731463,48.3705613 L155.731463,51.1792504 C155.731463,52.3158682 156.158886,52.941008 157.140408,52.941008 C157.778352,52.941008 158.231293,52.632878 158.650513,52.1613592 L158.676031,52.1613592 L158.750761,52.8353381 L159.539078,52.8353381 L159.539078,48.3705613 L158.574871,48.3705613 L158.574871,51.4713967 Z" id="Fill-28" fill="#000000"></path>
                <path d="M163.080694,47.9896907 C162.456198,47.9896907 161.989184,48.322103 161.564708,48.7192248 L161.539366,48.7192248 L161.46515,48.1031541 L160.681363,48.1031541 L160.681363,52.5601375 L161.631683,52.5601375 L161.631683,49.4000051 C162.038963,49.0028832 162.331299,48.7919123 162.755775,48.7919123 C163.297005,48.7919123 163.530512,49.1003908 163.530512,49.8698144 L163.530512,52.5601375 L164.488978,52.5601375 L164.488978,49.756351 C164.488978,48.6217172 164.055451,47.9896907 163.080694,47.9896907" id="Fill-29" fill="#000000"></path>
                <path d="M168.552724,51.6460481 C168.244496,52.014163 167.943807,52.1820443 167.588675,52.1820443 C166.926153,52.1820443 166.548407,51.6303092 166.548407,50.6308905 C166.548407,49.6795627 167.025825,49.0963499 167.619665,49.0963499 C167.935431,49.0963499 168.236958,49.199527 168.552724,49.4959425 L168.552724,51.6460481 Z M168.552724,48.0969311 L168.591252,48.824417 C168.244496,48.5201321 167.935431,48.3286424 167.450475,48.3286424 C166.50234,48.3286424 165.631263,49.2161402 165.631263,50.6466294 C165.631263,52.1016012 166.317236,52.941008 167.380956,52.941008 C167.858374,52.941008 168.298101,52.677819 168.613867,52.3411819 L168.637319,52.3411819 L168.714376,52.8369565 L169.438878,52.8369565 L169.438878,46.4662085 L168.552724,46.4662085 L168.552724,48.0969311 Z" id="Fill-30" fill="#000000"></path>
                <path d="M173.120691,51.7132691 C172.773476,52.0381823 172.47239,52.2201338 172.101692,52.2201338 C171.723447,52.2201338 171.438295,52.0459803 171.438295,51.6179612 C171.438295,51.1275587 171.862668,50.8026455 173.120691,50.6440878 L173.120691,51.7132691 Z M172.464842,48.3705613 C171.785509,48.3705613 171.190884,48.6556185 170.751415,48.9406758 L171.082694,49.5584442 C171.445843,49.3210409 171.862668,49.1148293 172.309685,49.1148293 C172.935342,49.1148293 173.113143,49.5584442 173.120691,50.0653089 C171.35275,50.2637226 170.581162,50.7471936 170.581162,51.6820774 C170.581162,52.4497391 171.098629,52.941008 171.831637,52.941008 C172.340717,52.941008 172.796121,52.680211 173.182753,52.3388354 L173.205398,52.3388354 L173.282556,52.8379022 L174.008016,52.8379022 L174.008016,50.2160687 C174.008016,49.0593774 173.521581,48.3705613 172.464842,48.3705613 L172.464842,48.3705613 Z" id="Fill-31" fill="#000000"></path>
                <path d="M177.129398,52.20601 C176.639897,52.20601 176.443165,51.9342093 176.443165,51.4072131 L176.443165,49.1777482 L177.67018,49.1777482 L177.67018,48.4427502 L176.443165,48.4427502 L176.443165,47.2279496 L175.610548,47.2279496 L175.498662,48.4427502 L174.769539,48.4908178 L174.769539,49.1777482 L175.455772,49.1777482 L175.455772,51.3993475 C175.455772,52.3257421 175.824996,52.941008 176.888843,52.941008 C177.23196,52.941008 177.549902,52.8614779 177.815631,52.7810738 L177.635682,52.1020091 C177.498621,52.1588163 177.292565,52.20601 177.129398,52.20601" id="Fill-32" fill="#000000"></path>
                <polygon id="Fill-33" fill="#000000" points="178.957916 52.941008 179.719439 52.941008 179.719439 48.3705613 178.957916 48.3705613"></polygon>
                <path d="M179.525259,46.4662085 C179.19853,46.4662085 178.957916,46.69326 178.957916,47.0379739 C178.957916,47.3734955 179.19853,47.6088202 179.525259,47.6088202 C179.851988,47.6088202 180.1002,47.3734955 180.1002,47.0379739 C180.1002,46.69326 179.851988,46.4662085 179.525259,46.4662085" id="Fill-34" fill="#000000"></path>
                <path d="M182.955912,52.19674 C182.26107,52.19674 181.824488,51.5867695 181.824488,50.6674815 C181.824488,49.7412621 182.26107,49.1234936 182.955912,49.1234936 C183.659538,49.1234936 184.09612,49.7412621 184.09612,50.6674815 C184.09612,51.5867695 183.659538,52.19674 182.955912,52.19674 M182.955912,48.3705613 C181.856112,48.3705613 180.861723,49.2101372 180.861723,50.6674815 C180.861723,52.10923 181.856112,52.941008 182.955912,52.941008 C184.055712,52.941008 185.0501,52.10923 185.0501,50.6674815 C185.0501,49.2101372 184.055712,48.3705613 182.955912,48.3705613" id="Fill-35" fill="#000000"></path>
                <path d="M188.592287,47.9896907 C187.967642,47.9896907 187.500517,48.322103 187.07594,48.7192248 L187.050592,48.7192248 L186.975454,48.1031541 L186.192385,48.1031541 L186.192385,52.5601375 L187.142025,52.5601375 L187.142025,49.4000051 C187.550307,49.0028832 187.842713,48.7919123 188.267291,48.7919123 C188.808649,48.7919123 189.042212,49.1003908 189.042212,49.8698144 L189.042212,52.5601375 L190,52.5601375 L190,49.756351 C190,48.6217172 189.567275,47.9896907 188.592287,47.9896907" id="Fill-36" fill="#000000"></path>
                <path d="M183.192961,38.4353431 C183.192961,38.723193 182.963224,38.9559606 182.679123,38.9559606 L179.89861,38.9559606 C179.615385,38.9559606 179.384772,38.723193 179.384772,38.4353431 L179.384772,31.2648581 C179.384772,30.9770081 179.615385,30.7433521 179.89861,30.7433521 L182.679123,30.7433521 C182.963224,30.7433521 183.192961,30.9770081 183.192961,31.2648581 L183.192961,38.4353431 Z M176.483253,38.4353431 C176.483253,38.723193 176.253516,38.9559606 175.969415,38.9559606 L173.188902,38.9559606 C172.905677,38.9559606 172.675064,38.723193 172.675064,38.4353431 L172.675064,31.2648581 C172.675064,30.9770081 172.905677,30.7433521 173.188902,30.7433521 L175.969415,30.7433521 C176.253516,30.7433521 176.483253,30.9770081 176.483253,31.2648581 L176.483253,38.4353431 Z M169.773545,38.4353431 C169.773545,38.723193 169.543808,38.9559606 169.259707,38.9559606 L166.480071,38.9559606 C166.195969,38.9559606 165.965356,38.723193 165.965356,38.4353431 L165.965356,31.2648581 C165.965356,30.9770081 166.195969,30.7433521 166.480071,30.7433521 L169.259707,30.7433521 C169.543808,30.7433521 169.773545,30.9770081 169.773545,31.2648581 L169.773545,38.4353431 Z M188.972324,38.9559606 L187.122156,38.9559606 C186.55483,38.9559606 186.09448,38.489537 186.09448,37.9147255 L186.09448,28.8456745 C186.09448,28.2699745 185.63413,27.803551 185.065927,27.803551 L164.09239,27.803551 C163.524187,27.803551 163.063837,28.2699745 163.063837,28.8456745 L163.063837,37.9147255 C163.063837,38.489537 162.604364,38.9559606 162.036161,38.9559606 L160.185993,38.9559606 C159.618666,38.9559606 159.158317,39.4223842 159.158317,39.9980841 L159.158317,40.8545266 C159.158317,41.4293382 159.618666,41.8957617 160.185993,41.8957617 L188.972324,41.8957617 C189.540527,41.8957617 190,41.4293382 190,40.8545266 L190,39.9980841 C190,39.4223842 189.540527,38.9559606 188.972324,38.9559606 L188.972324,38.9559606 Z" id="Fill-37" fill="#000000"></path>
                <path d="M164.339299,20.8007771 C164.339299,20.5191842 164.569507,20.2914764 164.852233,20.2914764 L169.075623,20.2914764 C169.359224,20.2914764 169.588556,20.5191842 169.588556,20.8007771 L169.588556,22.1331288 C169.588556,22.4147217 169.359224,22.6432987 169.075623,22.6432987 L164.852233,22.6432987 C164.569507,22.6432987 164.339299,22.4147217 164.339299,22.1331288 L164.339299,20.8007771 Z M164.339299,15.5730568 C164.339299,15.292333 164.569507,15.063756 164.852233,15.063756 L169.075623,15.063756 C169.359224,15.063756 169.588556,15.292333 169.588556,15.5730568 L169.588556,16.9062776 C169.588556,17.1878705 169.359224,17.4155783 169.075623,17.4155783 L164.852233,17.4155783 C164.569507,17.4155783 164.339299,17.1878705 164.339299,16.9062776 L164.339299,15.5730568 Z M162.469629,25.5183276 L171.459102,25.5183276 C172.02543,25.5183276 172.48497,25.0629119 172.48497,24.4997261 L172.48497,13.2073286 C172.48497,12.6441428 172.02543,12.187858 171.459102,12.187858 L162.469629,12.187858 C161.902426,12.187858 161.442886,12.6441428 161.442886,13.2073286 L161.442886,24.4997261 C161.442886,25.0629119 161.902426,25.5183276 162.469629,25.5183276 L162.469629,25.5183276 Z" id="Fill-38" fill="#000000"></path>
                <path d="M177.640141,20.0996425 C177.640141,19.81872 177.873111,19.5915542 178.15923,19.5915542 L184.265171,19.5915542 C184.552176,19.5915542 184.78426,19.81872 184.78426,20.0996425 L184.78426,20.88085 C184.78426,21.1617725 184.552176,21.3889383 184.265171,21.3889383 L178.15923,21.3889383 C177.873111,21.3889383 177.640141,21.1617725 177.640141,20.88085 L177.640141,20.0996425 Z M177.640141,15.5658648 C177.640141,15.2849423 177.873111,15.0569095 178.15923,15.0569095 L184.265171,15.0569095 C184.552176,15.0569095 184.78426,15.2849423 184.78426,15.5658648 L184.78426,16.2152815 C184.78426,16.4944699 184.552176,16.7225027 184.265171,16.7225027 L178.15923,16.7225027 C177.873111,16.7225027 177.640141,16.4944699 177.640141,16.2152815 L177.640141,15.5658648 Z M174.210256,25.8108672 L174.978259,26.1767601 C175.493805,26.4230009 176.115649,26.2140431 176.366336,25.709423 L176.948318,24.5432476 C177.035128,24.3689716 177.215835,24.2579898 177.414258,24.2579898 L184.265171,24.2579898 C184.552176,24.2579898 184.78426,24.4851556 184.78426,24.7660781 L184.78426,25.2256119 C184.78426,25.7865899 185.249315,26.2417885 185.823324,26.2417885 L186.677253,26.2417885 C187.250377,26.2417885 187.715431,25.7865899 187.715431,25.2256119 L187.715431,13.2049016 C187.715431,12.6430565 187.250377,12.187858 186.677253,12.187858 L175.748035,12.187858 C175.174025,12.187858 174.708971,12.6430565 174.708971,13.2049016 L174.708971,22.2577173 C174.708971,22.4120513 174.672652,22.5637841 174.603559,22.7033783 L173.7328,24.4522079 C173.481228,24.9559609 173.69471,25.5646265 174.210256,25.8108672 L174.210256,25.8108672 Z" id="Fill-39" fill="#000000"></path>
                <path d="M114.79131,21.655072 C114.79131,22.2137396 114.336913,22.6663638 113.776923,22.6663638 L106.683999,22.6663638 C106.124009,22.6663638 105.669612,22.2137396 105.669612,21.655072 L105.669612,21.0024309 C105.669612,20.4446254 106.124009,19.9920012 106.683999,19.9920012 L113.776923,19.9920012 C114.336913,19.9920012 114.79131,20.4446254 114.79131,21.0024309 L114.79131,21.655072 Z M116.640058,17.1391753 L103.819999,17.1391753 C103.260008,17.1391753 102.805611,17.5917995 102.805611,18.1504671 L102.805611,24.5078979 C102.805611,25.0657034 103.260008,25.5183276 103.819999,25.5183276 L116.640058,25.5183276 C117.200913,25.5183276 117.655311,25.0657034 117.655311,24.5078979 L117.655311,18.1504671 C117.655311,17.5917995 117.200913,17.1391753 116.640058,17.1391753 L116.640058,17.1391753 Z" id="Fill-40" fill="#000000"></path>
                <path d="M116.286046,32.858694 C116.286046,33.146544 116.057038,33.3793116 115.773838,33.3793116 L112.189261,33.3793116 C111.906061,33.3793116 111.676179,33.146544 111.676179,32.858694 L111.676179,31.2639696 C111.676179,30.9761197 111.906061,30.7433521 112.189261,30.7433521 L115.773838,30.7433521 C116.057038,30.7433521 116.286046,30.9761197 116.286046,31.2639696 L116.286046,32.858694 Z M116.286046,38.4353431 C116.286046,38.7223046 116.057038,38.9559606 115.773838,38.9559606 L112.189261,38.9559606 C111.906061,38.9559606 111.676179,38.7223046 111.676179,38.4353431 L111.676179,36.8406187 C111.676179,36.5527687 111.906061,36.3191127 112.189261,36.3191127 L115.773838,36.3191127 C116.057038,36.3191127 116.286046,36.5527687 116.286046,36.8406187 L116.286046,38.4353431 Z M108.784742,32.858694 C108.784742,33.146544 108.554861,33.3793116 108.271661,33.3793116 L104.687083,33.3793116 C104.403883,33.3793116 104.174876,33.146544 104.174876,32.858694 L104.174876,31.2639696 C104.174876,30.9761197 104.403883,30.7433521 104.687083,30.7433521 L108.271661,30.7433521 C108.554861,30.7433521 108.784742,30.9761197 108.784742,31.2639696 L108.784742,32.858694 Z M108.784742,38.4353431 C108.784742,38.7223046 108.554861,38.9559606 108.271661,38.9559606 L104.687083,38.9559606 C104.403883,38.9559606 104.174876,38.7223046 104.174876,38.4353431 L104.174876,36.8406187 C104.174876,36.5527687 104.403883,36.3191127 104.687083,36.3191127 L108.271661,36.3191127 C108.554861,36.3191127 108.784742,36.5527687 108.784742,36.8406187 L108.784742,38.4353431 Z M119.178357,40.8536382 L119.178357,28.8447861 C119.178357,28.2699745 118.719468,27.803551 118.153942,27.803551 L102.30698,27.803551 C101.741454,27.803551 101.282565,28.2699745 101.282565,28.8447861 L101.282565,40.8536382 C101.282565,41.4293382 101.741454,41.8957617 102.30698,41.8957617 L118.153942,41.8957617 C118.719468,41.8957617 119.178357,41.4293382 119.178357,40.8536382 L119.178357,40.8536382 Z" id="Fill-41" fill="#000000"></path>
                <path d="M95.3946005,40.4869207 L95.3946005,26.9198161 L98.4533593,30.8036497 C98.756233,31.1887001 99.3787575,30.97644 99.3787575,30.4870138 L99.3787575,27.6223795 C99.3787575,27.3934543 99.3010523,27.1697918 99.1588871,26.9891076 L95.7160174,22.6167248 L98.7889045,18.7135947 C99.3204786,18.0390988 98.8357042,17.0523524 97.973,17.0523524 L95.3946005,17.0523524 L95.3946005,11.6949775 C95.3946005,11.1257345 94.9301354,10.6643757 94.3570596,10.6643757 L93.5102496,10.6643757 C92.9371738,10.6643757 92.4727087,11.1257345 92.4727087,11.6949775 L92.4727087,17.0523524 L89.3715652,17.0523524 C88.8002554,17.0523524 88.3366733,17.512834 88.3366733,18.0803228 L88.3366733,18.9258548 C88.3366733,19.4942207 88.8002554,19.9547024 89.3715652,19.9547024 L93.0404864,19.9547024 C93.47228,19.9547024 93.7142257,20.447637 93.4484387,20.7853235 L88.5565437,26.9978787 C88.4134955,27.1785629 88.3366733,27.4022254 88.3366733,27.6311505 L88.3366733,30.4957849 C88.3366733,30.9852111 88.9583149,31.1974712 89.2620715,30.8124208 L92.4727087,26.7347463 L92.4727087,40.4869207 C92.4727087,41.0552867 92.9362908,41.5148912 93.5084836,41.5148912 L94.3597086,41.5148912 C94.9310184,41.5148912 95.3946005,41.0552867 95.3946005,40.4869207" id="Fill-42" fill="#000000"></path>
                <path d="M154.589178,24.8447364 L154.589178,23.3009808 C154.589178,22.9288021 154.286941,22.6273897 153.913744,22.6273897 L151.69033,22.6273897 C151.127906,22.6273897 150.811652,21.9808819 151.158568,21.5388104 L153.615887,18.4058689 C153.845412,18.1131931 153.793725,17.6894685 153.500249,17.4605698 L152.280787,16.509155 C151.986435,16.2802564 151.562427,16.3318022 151.332901,16.624478 L150.18002,18.0939726 C149.946991,18.3910167 149.514222,18.439068 149.220746,18.1996854 L148.967567,17.9926282 C148.682851,17.7611085 148.63642,17.3452468 148.862441,17.0569393 L152.578644,12.319086 C153.106026,11.6472422 152.625075,10.6643757 151.769174,10.6643757 L150.696889,10.6643757 C150.381511,10.6643757 150.082778,10.8094031 149.888295,11.0575223 L144.832612,17.5025054 C144.606592,17.7908129 144.653022,18.2066747 144.936862,18.4381943 L147.457257,20.4965351 C147.741974,20.7280548 147.787528,21.1439165 147.561507,21.432224 L145.211066,24.4297484 C144.86415,24.8718199 145.180404,25.5183276 145.742828,25.5183276 L153.913744,25.5183276 C154.286941,25.5183276 154.589178,25.2169152 154.589178,24.8447364" id="Fill-43" fill="#000000"></path>
                <path d="M147.717294,41.5148912 C148.289339,41.5148912 148.752801,41.0565014 148.752801,40.4915906 L148.752801,36.388784 C148.752801,36.1067652 148.984091,35.8771337 149.270114,35.8771337 L153.172909,35.8771337 C153.744954,35.8771337 154.208417,35.418744 154.208417,34.8538332 L154.208417,28.4468541 C154.208417,27.8810702 153.744954,27.4226804 153.172909,27.4226804 L152.321904,27.4226804 C151.750741,27.4226804 151.287279,27.8810702 151.287279,28.4468541 L151.287279,32.4763183 C151.287279,32.7592103 151.055989,32.9879686 150.769967,32.9879686 L149.270114,32.9879686 C148.984091,32.9879686 148.752801,32.7592103 148.752801,32.4763183 L148.752801,28.4468541 C148.752801,27.8810702 148.289339,27.4226804 147.717294,27.4226804 L146.866288,27.4226804 C146.295126,27.4226804 145.831663,27.8810702 145.831663,28.4468541 L145.831663,40.4915906 C145.831663,41.0565014 146.295126,41.5148912 146.866288,41.5148912 L147.717294,41.5148912 Z" id="Fill-44" fill="#000000"></path>
                <path d="M144.013944,22.6273897 L141.79053,22.6273897 C141.228106,22.6273897 140.911852,21.9808819 141.258768,21.5388104 L143.716087,18.4058689 C143.945613,18.1131931 143.893926,17.6894685 143.600449,17.4605698 L142.380988,16.509155 C142.086635,16.2802564 141.662627,16.3318022 141.432226,16.624478 L140.28022,18.0939726 C140.047191,18.3910167 139.613547,18.439068 139.320946,18.1996854 L139.066892,17.9926282 C138.783051,17.7611085 138.736621,17.3452468 138.962642,17.0569393 L142.678845,12.3199597 C143.206227,11.6472422 142.725275,10.6643757 141.869375,10.6643757 L140.79709,10.6643757 C140.480836,10.6643757 140.182979,10.8094031 139.98762,11.0575223 L134.932813,17.5025054 C134.706792,17.7908129 134.753223,18.2066747 135.037063,18.4381943 L137.557458,20.4965351 C137.841298,20.7280548 137.887729,21.1439165 137.661708,21.4330977 L135.311266,24.4297484 C134.964351,24.8718199 135.279729,25.5183276 135.843028,25.5183276 L144.013944,25.5183276 C144.387142,25.5183276 144.689379,25.2169152 144.689379,24.8447364 L144.689379,23.3009808 C144.689379,22.9288021 144.387142,22.6273897 144.013944,22.6273897" id="Fill-45" fill="#000000"></path>
                <path d="M143.273219,27.4226804 L142.422303,27.4226804 C141.851201,27.4226804 141.387787,27.8810702 141.387787,28.445981 L141.387787,32.4763183 C141.387787,32.7592103 141.155639,32.9879686 140.869647,32.9879686 L139.369952,32.9879686 C139.084842,32.9879686 138.852694,32.7592103 138.852694,32.4763183 L138.852694,28.445981 C138.852694,27.8810702 138.38928,27.4226804 137.818178,27.4226804 L136.967262,27.4226804 C136.395277,27.4226804 135.931864,27.8810702 135.931864,28.445981 L135.931864,34.8529601 C135.931864,35.418744 136.395277,35.8771337 136.967262,35.8771337 L139.574736,35.8771337 C139.972831,35.8771337 140.22175,36.3023448 140.024027,36.643736 L138.089165,39.9816866 C137.693718,40.664469 138.191557,41.5148912 138.986863,41.5148912 L139.967535,41.5148912 C140.339148,41.5148912 140.681633,41.3184384 140.866116,40.9997484 L144.170917,35.2973798 C144.260952,35.1419639 144.308617,34.9664661 144.308617,34.7874758 L144.308617,28.445981 C144.308617,27.8810702 143.845204,27.4226804 143.273219,27.4226804" id="Fill-46" fill="#000000"></path>
                <path d="M131.090372,18.2389818 C131.090372,18.5225461 130.857773,18.7518482 130.57013,18.7518482 L128.796334,18.7518482 C128.508691,18.7518482 128.276091,18.5225461 128.276091,18.2389818 L128.276091,15.5967569 C128.276091,15.3131925 128.508691,15.0838905 128.796334,15.0838905 L130.57013,15.0838905 C130.857773,15.0838905 131.090372,15.3131925 131.090372,15.5967569 L131.090372,18.2389818 Z M131.090372,24.8038472 C131.090372,25.0874116 130.857773,25.3167137 130.57013,25.3167137 L128.796334,25.3167137 C128.508691,25.3167137 128.276091,25.0874116 128.276091,24.8038472 L128.276091,22.1607471 C128.276091,21.878058 128.508691,21.6478807 128.796334,21.6478807 L130.57013,21.6478807 C130.857773,21.6478807 131.090372,21.878058 131.090372,22.1607471 L131.090372,24.8038472 Z M131.090372,31.4019702 C131.090372,31.6347731 130.931459,31.8386944 130.703298,31.8982079 L128.930389,32.3620632 C128.600133,32.4487079 128.276091,32.2036522 128.276091,31.8667007 L128.276091,28.7256126 C128.276091,28.4420482 128.508691,28.2127461 128.796334,28.2127461 L130.57013,28.2127461 C130.857773,28.2127461 131.090372,28.4420482 131.090372,28.7256126 L131.090372,31.4019702 Z M134.028056,40.4891583 L134.028056,13.2135908 C134.028056,12.6473373 133.561968,12.187858 132.986683,12.187858 L124.78798,12.187858 C124.213583,12.187858 123.747495,12.6473373 123.747495,13.2135908 L123.747495,14.0572824 C123.747495,14.6244111 124.213583,15.0838905 124.78798,15.0838905 L125.338407,15.0838905 L125.338407,33.3020266 L124.520757,33.5164503 C124.064435,33.6354773 123.747495,34.0424447 123.747495,34.5080504 L123.747495,35.3814987 C123.747495,36.0545265 124.394691,36.545513 125.055204,36.3730988 L131.090372,34.7933652 L131.090372,40.4891583 C131.090372,41.0554119 131.55646,41.5148912 132.130858,41.5148912 L132.986683,41.5148912 C133.561968,41.5148912 134.028056,41.0554119 134.028056,40.4891583 L134.028056,40.4891583 Z" id="Fill-47" fill="#000000"></path>
                <path d="M83.7675351,40.4974879 L83.7675351,39.6466005 C83.7675351,39.0851544 83.31177,38.6300691 82.7486121,38.6300691 L73.8777833,38.6300691 C73.3146254,38.6300691 72.8588604,38.174112 72.8588604,37.6126658 L72.8588604,28.5789619 L78.8431773,28.5789619 C79.42729,28.5789619 79.9013904,28.1064404 79.9013904,27.5223271 L79.9013904,14.0798757 C79.9013904,13.5236604 79.4499909,13.073806 78.8938179,13.073806 L70.9519814,13.073806 C70.4097782,13.073806 69.9697292,13.5123268 69.9697292,14.0537214 L69.9697292,14.9778409 C69.9697292,15.5192354 70.4097782,15.9586281 70.9519814,15.9586281 L76.0046868,15.9586281 C76.5608598,15.9586281 77.0122592,16.4084825 77.0122592,16.9646978 L77.0122592,18.8730917 C77.0122592,19.1546866 76.7826305,19.3839729 76.500615,19.3839729 L71.0419121,19.3839729 C70.4499414,19.3839729 69.9697292,19.8634688 69.9697292,20.4536848 L69.9697292,21.1982112 C69.9697292,21.7901708 70.4499414,22.268795 71.0419121,22.268795 L76.500615,22.268795 C76.7826305,22.268795 77.0122592,22.4972094 77.0122592,22.7796761 L77.0122592,24.637505 C77.0122592,25.2216183 76.5381588,25.6941398 75.9540462,25.6941398 L60.9164198,25.6941398 C60.3323071,25.6941398 59.8582067,25.2216183 59.8582067,24.637505 L59.8582067,22.7796761 C59.8582067,22.4972094 60.0878355,22.268795 60.369851,22.268795 L65.8285539,22.268795 C66.4205246,22.268795 66.9007368,21.7901708 66.9007368,21.1982112 L66.9007368,20.4536848 C66.9007368,19.8634688 66.4205246,19.3839729 65.8285539,19.3839729 L60.369851,19.3839729 C60.0878355,19.3839729 59.8582067,19.1546866 59.8582067,18.8730917 L59.8582067,16.7946947 C59.8582067,16.3178141 60.1795123,15.9010885 60.6413892,15.779035 L66.1760529,14.3109056 C66.6030052,14.198442 66.9007368,13.8122298 66.9007368,13.3710935 L66.9007368,12.3990244 C66.9007368,11.7608588 66.2947963,11.2953119 65.6766322,11.4592123 L57.752258,13.5602764 C57.2903812,13.6823299 56.9690756,14.0990555 56.9690756,14.5759361 L56.9690756,27.5223271 C56.9690756,28.1064404 57.443176,28.5789619 58.0272886,28.5789619 L63.9766811,28.5789619 L56.1483493,39.9595806 C55.6952036,40.6186696 56.1675578,41.5148912 56.9682025,41.5148912 L58.0604669,41.5148912 C58.3887574,41.5148912 58.6952201,41.3536062 58.8803201,41.0842166 L67.481357,28.5789619 L69.9697292,28.5789619 L69.9697292,40.4974879 C69.9697292,41.0589341 70.4254942,41.5148912 70.9886522,41.5148912 L82.7486121,41.5148912 C83.31177,41.5148912 83.7675351,41.0589341 83.7675351,40.4974879" id="Fill-48" fill="#000000"></path>
                <path d="M28.6535207,15.2200816 C32.7932896,15.6642131 36.8586967,17.6922671 36.8586967,20.3579355 C36.8586967,23.0253629 32.7862909,24.4061282 28.6430226,24.1888995 L28.6412729,24.1888995 C24.3536551,23.968153 20.0441662,22.0517915 16.1686007,18.7265218 C19.6679827,16.0652507 24.0745794,14.7319767 28.6535207,15.2200816 M45.7550005,38.9604493 L44.5844572,38.5427019 C44.0543009,38.3536162 43.4716538,38.6667069 43.2441939,39.2559507 C42.9791157,39.941936 42.6711701,40.6138498 42.3221068,41.2637768 C39.4403657,46.6285336 34.031196,50.2158848 27.7060631,50.5597569 C18.0915111,51.0812817 9.49440438,43.59085 9.16458763,33.4479419 C9.02198781,29.0655513 10.4654829,25.0525374 12.9491692,21.8943667 C17.8150599,25.9495951 23.2487253,28.2151054 28.6246508,28.3610972 C28.6307748,28.3610972 28.6386484,28.3610972 28.6447723,28.3619767 L28.6447723,28.3610972 C35.7283963,28.5537007 40.5006785,25.3040653 40.5006785,20.6472806 C40.5006785,15.9913753 35.7275214,11.9809998 28.6430226,11.046125 C22.848046,10.2845054 17.2000435,11.8737047 12.7024628,15.2306352 C10.7148138,12.8956469 8.92925419,10.1666567 7.43851747,7.10874534 L12.2501677,9.27663474 C13.0663985,9.64425249 13.9499925,9.3637021 14.2299431,8.65573011 L14.8230883,7.15535716 C15.1004143,6.45354145 14.6804885,5.57847047 13.87913,5.19678122 L3.69592843,0.335959843 C2.48076804,-0.244489245 1.07839071,-0.0721134556 0.371515547,0.847810403 C-0.0510348276,1.39659863 -0.100026175,2.15206191 0.158053246,2.87498487 C2.33029461,8.96178508 5.51473222,14.2324387 9.29318992,18.3844086 C5.70719823,22.4765747 3.60231996,27.8905816 3.868273,33.8577742 C4.45354463,47.0075844 16.0391235,56.1171172 28.2922096,54.7002938 C35.7047754,53.8436916 41.90743,49.4058945 45.2309681,43.0570127 C45.6657663,42.2259152 46.0471989,41.3666746 46.3717666,40.4898447 C46.6044755,39.8610249 46.3175262,39.1609681 45.7550005,38.9604493" id="Fill-49" fill="#DB0032"></path>
                <path d="M31.9732168,43.0203845 C33.6687788,42.901592 35.3256489,42.1896858 36.660947,40.921152 C37.0083136,40.5910787 37.0237903,40.0022075 36.7090968,39.6661946 L36.1699906,39.0883541 C35.8948487,38.7939185 35.4520422,38.7625234 35.140788,39.0408371 C34.2491562,39.8384436 33.1494485,40.3059768 31.9732168,40.3679186 C30.7780692,40.4298604 29.6241929,40.0666949 28.6629158,39.3276361 C28.3215679,39.0645956 27.8306116,39.1384167 27.5219368,39.4761267 L26.9114657,40.1464555 C26.5503419,40.5427132 26.5675383,41.1731618 26.9664941,41.4828707 C28.4608585,42.6436427 30.2381032,43.142571 31.9732168,43.0203845" id="Fill-50" fill="#000000"></path>
                <path d="M39.058509,35.4206272 C40.2060095,35.3966076 41.1222445,34.0326372 41.1222445,32.3735688 C41.1222445,30.7153582 40.2060095,29.3513878 39.058509,29.3273682 C37.892472,29.3024907 36.9338677,30.6664612 36.9338677,32.3735688 C36.9338677,34.0815343 37.892472,35.4455047 39.058509,35.4206272" id="Fill-51" fill="#000000"></path>
                <path d="M23.837314,28.9466115 C22.4578337,28.9160488 21.3226453,30.4502953 21.3226453,32.3739977 C21.3226453,34.2977001 22.4578337,35.8319466 23.837314,35.801384 C25.1920234,35.7716945 26.2725451,34.237448 26.2725451,32.3739977 C26.2725451,30.5114207 25.1920234,28.9771741 23.837314,28.9466115" id="Fill-52" fill="#000000"></path>
            </g>
        </g>
    </g>
</svg>