<svg xmlns="http://www.w3.org/2000/svg" id="圖層_1" data-name="圖層 1" viewBox="0 0 1440 1695"><defs><style>.cls-1{fill:none;clip-rule:evenodd}</style><clipPath id="clip-path"><path d="M595.24 2496.49c253.82 0 496.6 47.29 720 133.52v636.48h-1440V2630c223.41-86.22 466.18-133.51 720-133.51z" class="cls-1"/></clipPath><clipPath id="clip-path-4"><path d="M282.52 5C370 5 471.86 18.62 529.41 31.25c100.75 22.1 185.38 48.33 238 67 60.09 21.35 148.12 45.14 196.58 55.19 43.65 9.05 157.31 27.57 235 27.57 62.29 0 134.68-9.87 185.4-21.25 14.92-3.34 34.67-10.44 55.6-19.08V1695H0V27.41l21.42-3.16C146.46 5.83 193.42 5 267.89 5z" class="cls-1"/></clipPath><clipPath id="clip-path-5"><path fill="none" d="M.02-3865h1440v6846H.02z"/></clipPath></defs><g clip-path="url(#clip-path-4)"><g clip-path="url(#clip-path-5)"><path fill="#f9df8d" d="M-5 0h1450.02v1700H-5z"/></g></g></svg>