<svg id="圖層_1" data-name="圖層 1" xmlns="http://www.w3.org/2000/svg" xmlns:xlink="http://www.w3.org/1999/xlink" viewBox="0 0 1440 1695"><defs><style>.cls-1,.cls-2,.cls-3{fill:none;}.cls-1{clip-rule:evenodd;}.cls-2{fill-rule:evenodd;}.cls-4{clip-path:url(#clip-path);}.cls-5{clip-path:url(#clip-path-4);}.cls-6{clip-path:url(#clip-path-5);}.cls-7{fill:#f9df8d;}</style><clipPath id="clip-path"><path class="cls-1" d="M595.24,2496.49c253.82,0,496.6,47.29,720,133.52v636.48h-1440V2630C98.65,2543.78,341.42,2496.49,595.24,2496.49Z"/></clipPath><clipPath id="clip-path-4"><path class="cls-1" d="M282.52,5C370,5,471.86,18.62,529.41,31.25c100.75,22.1,185.38,48.33,238,67,60.09,21.35,148.12,45.14,196.58,55.19,43.65,9.05,157.31,27.57,235,27.57,62.29,0,134.68-9.87,185.4-21.25,14.92-3.34,34.67-10.44,55.6-19.08V1695H0L0,27.41l21.42-3.16C146.46,5.83,193.42,5,267.89,5Z"/></clipPath><clipPath id="clip-path-5"><rect class="cls-3" x="0.02" y="-3865" width="1440" height="6846"/></clipPath></defs><g class="cls-5"><g class="cls-6"><rect class="cls-7" x="-5" width="1450.02" height="1700"/></g></g></svg>