<svg width="89px" height="95px" viewBox="0 0 89 95">
    <g id="Symbols" stroke="none" stroke-width="1" fill="none" fill-rule="evenodd">
        <g id="ATOMS/LOGO---MOBILE">
            <path d="M40.6601,90.8447 C40.7761,90.1597 41.2301,89.8087 41.7211,89.8357 C42.2881,89.8667 42.5701,90.2757 42.5331,90.9487 L40.6601,90.8447 Z M41.7421,89.1967 C40.8271,89.1457 39.9161,89.8847 39.8451,91.1547 C39.7721,92.4397 40.5761,93.2387 41.6331,93.2987 C42.1431,93.3257 42.5991,93.1817 42.9751,92.9597 L42.7211,92.4267 C42.4271,92.5957 42.1231,92.6847 41.7741,92.6647 C41.1001,92.6267 40.6581,92.1547 40.6361,91.4057 L43.1691,91.5467 C43.1951,91.4557 43.2191,91.2937 43.2271,91.1387 C43.2901,90.0307 42.7771,89.2537 41.7421,89.1967 L41.7421,89.1967 Z" id="Fill-1" fill="#000000"></path>
            <path d="M45.3036,92.6864 C44.9556,92.6994 44.6876,92.5524 44.6736,92.1694 C44.6576,91.7294 45.0376,91.4234 46.1896,91.2404 L46.2236,92.1984 C45.9146,92.5004 45.6446,92.6744 45.3036,92.6864 M45.5116,89.2254 C44.8866,89.2474 44.3506,89.5234 43.9546,89.7934 L44.2796,90.3354 C44.6056,90.1104 44.9826,89.9124 45.3936,89.8974 C45.9686,89.8764 46.1466,90.2684 46.1696,90.7224 C44.5516,90.9584 43.8576,91.4174 43.8876,92.2544 C43.9126,92.9424 44.4046,93.3654 45.0786,93.3414 C45.5466,93.3244 45.9566,93.0744 46.3006,92.7564 L46.3226,92.7564 L46.4096,93.2004 L47.0756,93.1764 L46.9916,90.8274 C46.9536,89.7914 46.4836,89.1894 45.5116,89.2254" id="Fill-3" fill="#000000"></path>
            <path d="M50.1093,94.0693 C49.4663,94.1543 49.0423,93.9813 48.9923,93.6003 C48.9653,93.4033 49.0383,93.1933 49.2493,92.9923 C49.4153,93.0073 49.5933,93.0053 49.7783,92.9793 L50.3633,92.9023 C50.8353,92.8403 51.1013,92.9043 51.1443,93.2283 C51.1933,93.5893 50.7863,93.9793 50.1093,94.0693 M49.4043,89.4703 C49.8123,89.4173 50.1773,89.6763 50.2473,90.1983 C50.3163,90.7133 50.0263,91.0743 49.6253,91.1283 C49.2223,91.1813 48.8483,90.9073 48.7813,90.3933 C48.7113,89.8643 48.9963,89.5253 49.4043,89.4703 M50.3883,92.2383 L49.6763,92.3343 C49.1833,92.3983 49.0083,92.2713 48.9773,92.0393 C48.9543,91.8553 49.0223,91.7313 49.1343,91.6013 C49.3143,91.6563 49.5173,91.6733 49.6943,91.6493 C50.5053,91.5423 51.0823,90.9693 50.9683,90.1243 C50.9293,89.8283 50.7903,89.5823 50.6213,89.4453 L51.3613,89.3473 L51.2813,88.7403 L49.9063,88.9233 C49.7503,88.8863 49.5473,88.8713 49.3293,88.9003 C48.5253,89.0073 47.8943,89.6133 48.0123,90.4963 C48.0733,90.9543 48.3693,91.2883 48.6573,91.4583 L48.6613,91.4853 C48.4693,91.6693 48.2863,91.9593 48.3263,92.2613 C48.3683,92.5793 48.5493,92.7623 48.7633,92.8563 L48.7673,92.8913 C48.4373,93.1573 48.2733,93.4883 48.3163,93.8123 C48.4073,94.4893 49.1303,94.7453 50.0593,94.6223 C51.3003,94.4573 52.0093,93.7463 51.9113,92.9983 C51.8233,92.3363 51.3053,92.1163 50.3883,92.2383" id="Fill-5" fill="#000000"></path>
            <path d="M54.248,88.0605 L54.874,90.7045 C54.651,91.1805 54.448,91.4045 54.095,91.4885 C53.645,91.5935 53.398,91.3825 53.242,90.7255 L52.698,88.4265 L51.902,88.6165 L52.469,91.0105 C52.698,91.9805 53.178,92.4285 53.988,92.2375 C54.514,92.1125 54.825,91.7605 55.076,91.2785 L55.098,91.2735 L55.295,91.8315 L55.946,91.6775 L55.044,87.8715 L54.248,88.0605 Z" id="Fill-8" fill="#000000"></path>
            <path d="M57.7089,87.5732 C58.2469,87.3872 58.6639,87.6572 58.8839,88.2962 L57.1089,88.9082 C56.9579,88.2312 57.2449,87.7332 57.7089,87.5732 M58.8309,90.1732 C58.1929,90.3922 57.6039,90.1222 57.2989,89.4372 L59.6989,88.6092 C59.6889,88.5152 59.6489,88.3562 59.5979,88.2082 C59.2359,87.1592 58.4679,86.6352 57.4869,86.9722 C56.6199,87.2722 56.0569,88.3022 56.4719,89.5042 C56.8929,90.7212 57.9379,91.1582 58.9389,90.8122 C59.4229,90.6452 59.7909,90.3382 60.0549,89.9912 L59.6169,89.5942 C59.4079,89.8602 59.1609,90.0592 58.8309,90.1732" id="Fill-10" fill="#000000"></path>
            <path d="M38.7177,91.9169 L37.2107,91.6859 C37.0657,91.6629 36.9667,91.5269 36.9887,91.3819 L37.5517,87.7309 C37.5727,87.5869 37.4747,87.4509 37.3287,87.4289 L36.5957,87.3159 C36.4497,87.2929 36.3157,87.3929 36.2927,87.5369 L35.5677,92.2429 C35.5447,92.3869 35.6447,92.5229 35.7887,92.5449 L38.5557,92.9709 C38.6987,92.9939 38.8357,92.8949 38.8577,92.7499 L38.9397,92.2199 C38.9607,92.0749 38.8627,91.9389 38.7177,91.9169" id="Fill-12" fill="#000000"></path>
            <path d="M5.4423,62.8417 C5.2553,62.3417 4.8463,62.0767 4.4203,61.8707 L5.1573,61.6277 L6.5633,61.1037 L6.2803,60.3437 L0.9683,62.3217 L1.2523,63.0817 L3.8513,62.1137 C4.2983,62.3187 4.5593,62.4877 4.6853,62.8267 C4.8473,63.2607 4.6633,63.5407 4.0303,63.7777 L1.8183,64.6017 L2.1033,65.3677 L4.4093,64.5097 C5.3413,64.1607 5.7333,63.6207 5.4423,62.8417" id="Fill-14" fill="#000000"></path>
            <polygon id="Fill-16" fill="#000000" points="6.2245 64.9706 2.6755 66.6136 3.0155 67.3486 6.5645 65.7066"></polygon>
            <path d="M7.7197,65.3056 C7.9847,65.1836 8.0627,64.8966 7.9377,64.6236 C7.8117,64.3536 7.5437,64.2346 7.2807,64.3566 C7.0227,64.4766 6.9347,64.7606 7.0597,65.0316 C7.1857,65.3026 7.4607,65.4256 7.7197,65.3056" id="Fill-18" fill="#000000"></path>
            <path d="M4.7441,68.8407 L8.9911,66.6217 L8.6161,65.9037 L4.4071,68.1027 C3.8471,68.3957 3.6141,68.7657 3.8871,69.2877 C3.9791,69.4637 4.0701,69.5767 4.1481,69.6497 L4.6471,69.2687 C4.6011,69.2107 4.5881,69.1867 4.5721,69.1547 C4.5251,69.0677 4.5491,68.9427 4.7441,68.8407" id="Fill-20" fill="#000000"></path>
            <path d="M8.4765,71.0595 L6.8535,72.0705 C6.4265,72.0015 6.1525,71.8465 5.9795,71.5685 C5.6565,71.0505 5.8885,70.4955 6.6425,70.0255 C7.3605,69.5775 8.0335,69.6775 8.3225,70.1415 C8.4775,70.3895 8.5455,70.6735 8.4765,71.0595 L8.4765,71.0595 Z M10.7625,69.6345 L9.5315,70.4015 L9.0015,70.7735 C9.0615,70.3595 9.0565,70.0285 8.8195,69.6485 C8.3565,68.9065 7.2625,68.6425 6.1835,69.3155 C5.0855,69.9985 4.7865,70.9305 5.3055,71.7635 C5.5385,72.1365 5.9515,72.3565 6.3595,72.4465 L6.3705,72.4635 L6.0345,72.7575 L6.3875,73.3245 L11.1945,70.3285 L10.7625,69.6345 Z" id="Fill-22" fill="#000000"></path>
            <path d="M1.4091,60.9277 L1.7141,60.5037 C1.8001,60.3837 1.7691,60.2207 1.6511,60.1317 C1.4241,59.9607 1.2381,59.7257 1.1601,59.4177 C0.9751,58.6937 1.4491,58.0737 2.4691,57.8147 C3.4691,57.5607 4.2001,57.9537 4.3681,58.6157 C4.4381,58.8927 4.4001,59.1377 4.3041,59.3777 C4.2511,59.5097 4.3051,59.6587 4.4331,59.7207 L4.9161,59.9477 C5.0481,60.0097 5.2081,59.9547 5.2691,59.8227 C5.4621,59.4067 5.5581,58.8857 5.4181,58.3267 C5.0861,57.0247 3.8171,56.1297 2.1071,56.5637 C0.3701,57.0057 -0.2449,58.3357 0.0861,59.6387 C0.2341,60.2207 0.5551,60.6807 1.0421,60.9917 C1.1641,61.0697 1.3251,61.0447 1.4091,60.9277" id="Fill-24" fill="#000000"></path>
            <path d="M17.6181,80.5868 C18.0591,80.9448 18.0501,81.4408 17.6241,81.9658 L16.1671,80.7818 C16.6631,80.2958 17.2371,80.2758 17.6181,80.5868 L17.6181,80.5868 Z M17.7881,82.8228 C17.8621,82.7648 17.9771,82.6468 18.0751,82.5248 C18.7751,81.6658 18.8161,80.7348 18.0101,80.0818 C17.2991,79.5028 16.1281,79.5668 15.3251,80.5548 C14.5131,81.5538 14.6941,82.6718 15.5151,83.3408 C15.9131,83.6628 16.3691,83.8138 16.8021,83.8548 L16.9091,83.2728 C16.5721,83.2358 16.2731,83.1308 16.0021,82.9108 C15.4781,82.4838 15.3971,81.8418 15.8181,81.2218 L17.7881,82.8228 Z" id="Fill-26" fill="#000000"></path>
            <path d="M18.7675,84.5624 L21.5225,80.6394 L20.8585,80.1734 L18.1285,84.0614 C17.7645,84.5804 17.7285,85.0144 18.2105,85.3534 C18.3735,85.4684 18.5075,85.5284 18.6095,85.5554 L18.8765,84.9884 C18.8115,84.9584 18.7885,84.9424 18.7585,84.9214 C18.6775,84.8654 18.6405,84.7434 18.7675,84.5624" id="Fill-28" fill="#000000"></path>
            <path d="M22.666,84.2411 L23.013,83.6861 L22.343,83.2671 L22.607,82.8451 C22.86,82.4411 23.126,82.3401 23.421,82.5231 C23.536,82.5951 23.643,82.7041 23.73,82.8351 L24.193,82.4021 C24.084,82.2421 23.903,82.0611 23.68,81.9231 C22.937,81.4591 22.336,81.7361 21.91,82.4191 L21.65,82.8351 L21.175,82.5881 L20.851,83.1061 L21.303,83.3891 L19.576,86.1511 L20.269,86.5861 L21.996,83.8221 L22.666,84.2411 Z" id="Fill-30" fill="#000000"></path>
            <path d="M23.8984,87.4677 C23.4794,87.5747 23.1584,87.5907 22.8554,87.4307 C22.5474,87.2677 22.3874,87.0067 22.5674,86.6667 C22.7734,86.2767 23.2564,86.2017 24.3474,86.6177 L23.8984,87.4677 Z M24.7674,84.5297 C24.2144,84.2377 23.6114,84.2087 23.1324,84.2447 L23.1434,84.8787 C23.5394,84.8467 23.9644,84.8627 24.3294,85.0557 C24.8384,85.3237 24.7964,85.7537 24.5904,86.1587 C23.0664,85.5547 22.2364,85.6057 21.8424,86.3477 C21.5204,86.9587 21.7364,87.5707 22.3334,87.8867 C22.7484,88.1067 23.2284,88.0947 23.6864,87.9897 L23.7064,88.0007 L23.5584,88.4307 L24.1494,88.7417 L25.2514,86.6607 C25.7364,85.7427 25.6294,84.9867 24.7674,84.5297 L24.7674,84.5297 Z" id="Fill-32" fill="#000000"></path>
            <path d="M29.0683,86.6093 C28.9793,86.5093 28.8733,86.4333 28.6963,86.3583 C28.3113,86.1933 27.8153,86.3063 27.3623,86.6613 L27.3423,86.6533 L27.5593,85.9813 L26.9453,85.7193 L25.4123,89.3133 L26.1573,89.6313 L27.1133,87.3893 C27.5843,86.9193 28.0243,86.8663 28.3183,86.9923 C28.4613,87.0533 28.5453,87.1123 28.6523,87.2043 L29.0683,86.6093 Z" id="Fill-34" fill="#000000"></path>
            <path d="M31.2099,89.0527 L29.4329,88.4557 C29.7269,87.8277 30.2559,87.6097 30.7209,87.7657 C31.2599,87.9467 31.4259,88.4127 31.2099,89.0527 M30.9109,87.1547 C30.0419,86.8637 28.9709,87.3337 28.5649,88.5397 C28.1559,89.7587 28.7189,90.7417 29.7219,91.0777 C30.2059,91.2407 30.6849,91.2217 31.1059,91.1087 L30.9999,90.5267 C30.6719,90.6117 30.3559,90.6167 30.0249,90.5057 C29.3869,90.2907 29.0839,89.7177 29.2609,88.9907 L31.6639,89.7977 C31.7139,89.7167 31.7789,89.5667 31.8289,89.4177 C32.1829,88.3677 31.8949,87.4847 30.9109,87.1547" id="Fill-36" fill="#000000"></path>
            <path d="M17.038,77.6991 L16.581,77.2191 C16.488,77.1231 16.342,77.1091 16.233,77.1851 L14.439,78.4681 C14,78.7991 13.544,79.1351 13.088,79.4811 L13.062,79.4551 C13.4,78.9851 13.75,78.5261 14.067,78.0761 L15.313,76.1871 C15.383,76.0851 15.37,75.9481 15.285,75.8591 L14.842,75.3921 C14.756,75.3031 14.619,75.2851 14.513,75.3471 L12.576,76.5111 C12.105,76.8101 11.621,77.1261 11.144,77.4411 L11.126,77.4211 L12.193,76.1091 L13.564,74.3851 C13.647,74.2811 13.641,74.1331 13.55,74.0371 L13.03,73.4921 C12.917,73.3721 12.722,73.3851 12.624,73.5181 L9.776,77.4311 C9.701,77.5361 9.711,77.6781 9.8,77.7701 L10.581,78.5921 C10.668,78.6831 10.808,78.7011 10.915,78.6331 L12.719,77.4951 C13.065,77.2711 13.419,77.0241 13.752,76.7961 L13.775,76.8221 C13.521,77.1321 13.262,77.4771 13.027,77.8191 L11.81,79.5761 C11.738,79.6781 11.75,79.8191 11.837,79.9101 L12.637,80.7511 C12.726,80.8441 12.87,80.8601 12.976,80.7881 L16.992,78.1021 C17.13,78.0111 17.151,77.8181 17.038,77.6991" id="Fill-38" fill="#000000"></path>
            <path d="M85.8144,57.3593 L88.1084,57.9203 L88.3024,57.1253 L85.9124,56.5423 C84.9444,56.3053 84.3174,56.5323 84.1214,57.3413 C83.9944,57.8593 84.1824,58.3153 84.4354,58.7513 L84.4304,58.7713 L83.8904,58.7063 L83.7314,59.3543 L87.5324,60.2823 L87.7244,59.4953 L85.0294,58.8383 C84.7734,58.4163 84.6524,58.1303 84.7384,57.7773 C84.8484,57.3293 85.1594,57.1993 85.8144,57.3593" id="Fill-40" fill="#000000"></path>
            <path d="M69.3408,84.7685 C68.8378,85.1175 68.2118,84.8845 67.7428,84.2065 C67.2698,83.5225 67.2718,82.8485 67.7738,82.5005 C68.2818,82.1495 68.9128,82.3875 69.3848,83.0725 C69.8538,83.7485 69.8488,84.4175 69.3408,84.7685 M67.3898,81.9475 C66.5948,82.4965 66.3038,83.6125 67.0478,84.6875 C67.7828,85.7505 68.9258,85.8685 69.7208,85.3175 C70.5158,84.7685 70.8108,83.6585 70.0748,82.5945 C69.3308,81.5185 68.1838,81.3965 67.3898,81.9475" id="Fill-42" fill="#000000"></path>
            <path d="M71.4228,78.9052 L73.1898,80.9682 C73.2098,81.4932 73.1318,81.7852 72.8568,82.0212 C72.5058,82.3212 72.1888,82.2472 71.7498,81.7342 L70.2138,79.9412 L69.5928,80.4732 L71.1928,82.3422 C71.8408,83.0972 72.4728,83.2772 73.1038,82.7362 C73.5148,82.3842 73.6298,81.9292 73.6318,81.3852 L73.6478,81.3712 L74.0808,81.7772 L74.5878,81.3432 L72.0438,78.3742 L71.4228,78.9052 Z" id="Fill-44" fill="#000000"></path>
            <path d="M74.1913,76.0546 C73.8253,76.4426 73.7613,76.9296 73.7653,77.4316 L73.7513,77.4486 L73.3163,77.1226 L72.8563,77.6076 L75.6913,80.2926 L76.2473,79.7056 L74.2383,77.8006 C74.2253,77.3096 74.2603,77.0016 74.5103,76.7406 C74.8283,76.4046 75.1603,76.4466 75.6503,76.9096 L77.3613,78.5316 L77.9223,77.9376 L76.1403,76.2486 C75.4183,75.5656 74.7613,75.4516 74.1913,76.0546" id="Fill-46" fill="#000000"></path>
            <path d="M79.5234,74.2314 C79.6104,74.6564 79.5604,74.9674 79.3614,75.2264 C78.9894,75.7124 78.3884,75.6904 77.6824,75.1504 C77.0114,74.6364 76.8664,73.9704 77.1994,73.5354 C77.3774,73.3044 77.6184,73.1404 78.0054,73.0694 L79.5234,74.2314 Z M75.8654,71.4314 L77.0174,72.3124 L77.5524,72.6774 C77.1434,72.7674 76.8354,72.8894 76.5624,73.2454 C76.0314,73.9394 76.1694,75.0574 77.1794,75.8304 C78.2084,76.6174 79.1844,76.5684 79.7814,75.7904 C80.0484,75.4394 80.1084,74.9754 80.0484,74.5624 L80.0614,74.5454 L80.4554,74.7564 L80.8614,74.2264 L76.3624,70.7824 L75.8654,71.4314 Z" id="Fill-48" fill="#000000"></path>
            <path d="M81.8564,71.6923 C81.6724,71.9883 81.4024,72.1303 81.0764,71.9283 C80.7014,71.6963 80.6594,71.2123 81.1464,70.1513 L81.9614,70.6553 C82.0424,71.0813 82.0354,71.4023 81.8564,71.6923 M79.0954,69.5923 C78.7664,70.1253 78.6964,70.7243 78.7004,71.2043 L79.3334,71.2343 C79.3274,70.8383 79.3714,70.4163 79.5874,70.0643 C79.8914,69.5753 80.3154,69.6453 80.7054,69.8793 C80.0014,71.3553 79.9964,72.1883 80.7094,72.6293 C81.2944,72.9913 81.9194,72.8183 82.2754,72.2453 C82.5224,71.8453 82.5434,71.3653 82.4704,70.9023 L82.4814,70.8843 L82.8994,71.0593 L83.2504,70.4913 L81.2504,69.2543 C80.3684,68.7103 79.6074,68.7643 79.0954,69.5923" id="Fill-50" fill="#000000"></path>
            <path d="M84.0253,67.8007 C83.8403,68.1617 83.5493,68.1967 83.1323,67.9817 L81.3683,67.0727 L81.8343,66.1687 L81.2523,65.8687 L80.7873,66.7727 L79.8253,66.2797 L79.5093,66.8917 L80.4283,67.4687 L80.1893,68.0267 L80.7333,68.3057 L80.9933,67.7997 L82.7533,68.7057 C83.4853,69.0827 84.1123,69.0617 84.5163,68.2787 C84.6463,68.0257 84.7033,67.7577 84.7413,67.5297 L84.1353,67.3857 C84.1283,67.5097 84.0873,67.6807 84.0253,67.8007" id="Fill-52" fill="#000000"></path>
            <path d="M80.4199,64.7685 C80.6789,64.8835 80.9509,64.7635 81.0709,64.4915 C81.1929,64.2185 81.1049,63.9295 80.8449,63.8145 C80.5789,63.6965 80.3109,63.8255 80.1899,64.0985 C80.0669,64.3705 80.1529,64.6495 80.4199,64.7685" id="Fill-54" fill="#000000"></path>
            <polygon id="Fill-56" fill="#000000" points="81.5751 65.1591 85.1431 66.7501 85.4731 66.0101 81.9051 64.4191"></polygon>
            <path d="M86.0224,63.0497 C85.8174,63.6247 85.1724,63.8017 84.3974,63.5247 C83.6154,63.2447 83.2214,62.6967 83.4264,62.1217 C83.6344,61.5407 84.2864,61.3657 85.0684,61.6457 C85.8434,61.9227 86.2304,62.4677 86.0224,63.0497 M85.3494,60.8567 C84.1204,60.4167 83.1174,60.9867 82.7924,61.8957 C82.4664,62.8047 82.8814,63.8807 84.1134,64.3207 C85.3294,64.7557 86.3264,64.1837 86.6504,63.2747 C86.9744,62.3637 86.5674,61.2917 85.3494,60.8567" id="Fill-58" fill="#000000"></path>
            <path d="M65.7519,84.455 C65.6819,84.327 65.5199,84.279 65.3919,84.35 L64.2729,84.966 C64.1449,85.036 63.9829,84.988 63.9139,84.86 L63.6099,84.309 C63.5399,84.182 63.5869,84.019 63.7149,83.95 L65.0949,83.19 C65.2229,83.12 65.2699,82.959 65.1989,82.83 L64.9469,82.373 C64.8769,82.245 64.7159,82.198 64.5869,82.267 L62.0919,83.641 C61.9639,83.712 61.9169,83.873 61.9879,84.001 L64.2819,88.173 C64.3529,88.301 64.5139,88.348 64.6429,88.276 L65.2929,87.919 C65.4219,87.849 65.4689,87.686 65.3979,87.559 L64.6799,86.254 C64.6089,86.126 64.6559,85.965 64.7849,85.893 L65.9019,85.278 C66.0309,85.208 66.0779,85.047 66.0069,84.919 L65.7519,84.455 Z" id="Fill-60" fill="#000000"></path>
            <path d="M47.747,22.4208 C53.877,23.0748 59.897,26.0628 59.897,29.9878 C59.897,33.9188 53.867,35.9528 47.73,35.6328 L47.728,35.6328 C41.379,35.3078 34.997,32.4838 29.258,27.5868 C34.439,23.6658 40.967,21.7008 47.747,22.4208 M73.985,59.6468 C74.331,58.7198 73.906,57.6888 73.072,57.3928 L71.339,56.7768 C70.554,56.4988 69.69,56.9598 69.353,57.8278 C68.962,58.8388 68.505,59.8288 67.987,60.7868 C63.721,68.6888 55.711,73.9738 46.344,74.4798 C32.105,75.2478 19.375,64.2138 18.886,49.2728 C18.674,42.8168 20.811,36.9038 24.49,32.2528 C31.695,38.2258 39.743,41.5638 47.704,41.7778 C47.714,41.7788 47.725,41.7788 47.733,41.7788 C58.224,42.0628 65.291,37.2748 65.291,30.4158 C65.291,23.5568 58.223,17.6488 47.73,16.2718 C39.149,15.1498 30.786,17.4898 24.125,22.4368 C21.182,18.9958 18.538,14.9758 16.33,10.4718 L23.456,13.6658 C24.664,14.2068 25.972,13.7948 26.387,12.7498 L27.265,10.5408 C27.676,9.5068 27.054,8.2178 25.868,7.6538 L10.788,0.4958 C8.987,-0.3602 6.911,-0.1062 5.863,1.2488 C5.237,2.0578 5.166,3.1698 5.548,4.2348 C8.765,13.2008 13.48,20.9658 19.077,27.0818 C13.766,33.1098 10.648,41.0858 11.043,49.8758 C11.909,69.2478 29.066,82.6678 47.212,80.5798 C58.188,79.3168 67.374,72.7798 72.296,63.4288 C72.939,62.2038 73.506,60.9378 73.985,59.6468" id="Fill-62" fill="#DB0032"></path>
            <path d="M52.1962,64.3632 C54.7772,64.1782 57.3002,63.0822 59.3312,61.1262 C59.8612,60.6162 59.8832,59.7082 59.4052,59.1892 L58.5842,58.2982 C58.1662,57.8432 57.4912,57.7952 57.0172,58.2252 C55.6612,59.4542 53.9862,60.1762 52.1962,60.2722 C50.3772,60.3682 48.6202,59.8072 47.1582,58.6672 C46.6382,58.2602 45.8902,58.3762 45.4222,58.8972 L44.4912,59.9302 C43.9422,60.5412 43.9682,61.5132 44.5752,61.9922 C46.8502,63.7822 49.5542,64.5502 52.1962,64.3632" id="Fill-65" fill="#000000"></path>
            <path d="M62.8525,53.0497 C64.5525,53.0127 65.9125,50.9327 65.9125,48.4027 C65.9125,45.8707 64.5525,43.7897 62.8525,43.7527 C61.1235,43.7147 59.7025,45.7957 59.7025,48.4027 C59.7025,51.0067 61.1235,53.0877 62.8525,53.0497" id="Fill-67" fill="#000000"></path>
            <path d="M40.4199,43.2646 C38.3079,43.2186 36.5669,45.5186 36.5669,48.4016 C36.5669,51.2846 38.3079,53.5846 40.4199,53.5386 C42.4959,53.4936 44.1509,51.1936 44.1509,48.4016 C44.1509,45.6096 42.4959,43.3096 40.4199,43.2646" id="Fill-69" fill="#000000"></path>
        </g>
    </g>
</svg>