<svg viewBox="0 0 89 95"><g fill="none" fill-rule="evenodd"><path fill="#000" d="M40.66 90.845c.116-.685.57-1.036 1.061-1.01.567.032.85.44.812 1.114l-1.873-.104zm1.082-1.648c-.915-.051-1.826.688-1.897 1.958-.073 1.285.731 2.084 1.788 2.144.51.027.966-.117 1.342-.34l-.254-.532a1.653 1.653 0 0 1-.947.238c-.674-.038-1.116-.51-1.138-1.26l2.533.142a2.09 2.09 0 0 0 .058-.408c.063-1.108-.45-1.885-1.485-1.942zM45.304 92.686c-.348.013-.616-.134-.63-.517-.016-.44.364-.746 1.516-.929l.034.958c-.31.302-.58.476-.92.488m.208-3.46c-.625.021-1.161.297-1.557.567l.325.542c.326-.225.703-.423 1.114-.438.575-.02.753.371.776.825-1.618.236-2.312.695-2.282 1.532.025.688.517 1.111 1.19 1.087.469-.017.879-.267 1.223-.585h.022l.087.444.666-.024-.084-2.349c-.038-1.036-.508-1.638-1.48-1.602M50.11 94.07c-.644.084-1.068-.089-1.118-.47-.027-.197.046-.407.257-.608.166.015.344.013.53-.013l.584-.077c.472-.062.738.002.781.326.05.361-.358.751-1.035.841m-.705-4.599c.408-.053.773.206.843.728.07.515-.22.876-.622.93-.403.053-.777-.22-.844-.735-.07-.529.215-.868.623-.923m.984 2.768l-.712.096c-.493.064-.668-.063-.699-.295-.023-.184.045-.308.157-.438.18.055.383.072.56.048.811-.107 1.388-.68 1.274-1.525-.039-.296-.178-.542-.347-.679l.74-.098-.08-.607-1.375.183a1.628 1.628 0 0 0-.577-.023c-.804.107-1.435.713-1.317 1.596.061.458.357.792.645.962l.004.027c-.192.184-.375.474-.335.776a.717.717 0 0 0 .437.595l.004.035c-.33.266-.494.597-.45.921.09.677.813.933 1.742.81 1.241-.165 1.95-.876 1.852-1.624-.088-.662-.606-.882-1.523-.76M54.248 88.06l.626 2.644c-.223.477-.426.7-.779.785-.45.105-.697-.107-.853-.764l-.544-2.298-.796.19.567 2.393c.229.97.709 1.418 1.519 1.227.526-.124.837-.477 1.088-.959l.022-.005.197.559.651-.154-.902-3.806-.796.189zM57.709 87.573c.538-.186.955.084 1.175.723l-1.775.612c-.151-.677.136-1.175.6-1.335m1.122 2.6c-.638.22-1.227-.05-1.532-.736l2.4-.828a2.123 2.123 0 0 0-.101-.4c-.362-1.05-1.13-1.574-2.111-1.237-.867.3-1.43 1.33-1.015 2.532.42 1.217 1.466 1.654 2.467 1.308a2.372 2.372 0 0 0 1.116-.82l-.438-.398a1.673 1.673 0 0 1-.786.58M38.718 91.917l-1.507-.231a.267.267 0 0 1-.222-.304l.563-3.651a.266.266 0 0 0-.223-.302l-.733-.113a.265.265 0 0 0-.303.22l-.725 4.707a.264.264 0 0 0 .22.302l2.768.426a.264.264 0 0 0 .302-.221l.082-.53a.266.266 0 0 0-.222-.303M5.442 62.842c-.187-.5-.596-.765-1.022-.971l.737-.243 1.406-.524-.283-.76-5.312 1.978.284.76 2.6-.968c.446.205.707.374.833.713.162.434-.022.714-.655.95l-2.212.825.285.766 2.306-.858c.932-.35 1.324-.89 1.033-1.668M6.224 64.971l-3.549 1.643.34.735 3.549-1.642zM7.72 65.306c.265-.122.343-.41.218-.682-.126-.27-.394-.39-.657-.267-.258.12-.346.404-.221.675.126.27.4.394.66.274M4.744 68.84l4.247-2.218-.375-.718-4.209 2.199c-.56.293-.793.663-.52 1.185.092.176.183.289.261.362l.5-.381a.553.553 0 0 1-.076-.114c-.047-.087-.023-.212.172-.314M8.476 71.06l-1.623 1.01c-.426-.069-.7-.223-.873-.501-.324-.519-.092-1.073.662-1.544.718-.448 1.391-.348 1.68.116.155.248.224.532.155.918zm2.286-1.425l-1.23.766-.53.373c.06-.415.054-.746-.183-1.126-.463-.742-1.557-1.005-2.636-.332-1.098.683-1.396 1.614-.877 2.447.232.373.646.593 1.053.683l.011.017-.335.294.353.567 4.806-2.995-.432-.694zM1.41 60.928l.304-.424a.269.269 0 0 0-.063-.372 1.286 1.286 0 0 1-.49-.714c-.186-.724.288-1.344 1.308-1.603 1-.254 1.731.139 1.9.8.07.278.031.523-.065.763a.267.267 0 0 0 .13.343l.482.227a.265.265 0 0 0 .353-.125 2.24 2.24 0 0 0 .15-1.496c-.333-1.302-1.602-2.197-3.312-1.763-1.737.442-2.352 1.772-2.02 3.075.147.582.468 1.042.955 1.353a.27.27 0 0 0 .367-.064M17.618 80.587c.441.358.432.854.006 1.379l-1.457-1.184c.496-.486 1.07-.506 1.451-.195zm.17 2.236c.074-.058.19-.176.287-.298.7-.86.741-1.79-.065-2.443-.71-.58-1.882-.515-2.685.473-.812.999-.63 2.117.19 2.786.398.322.854.473 1.287.514l.107-.582a1.671 1.671 0 0 1-.907-.362c-.524-.427-.605-1.07-.184-1.69l1.97 1.602zM18.767 84.562l2.756-3.923-.665-.466-2.73 3.888c-.363.52-.4.953.082 1.292.163.115.297.175.4.202l.267-.567a.627.627 0 0 1-.118-.067c-.082-.056-.119-.178.008-.359M22.666 84.241l.347-.555-.67-.419.264-.422c.253-.404.519-.505.814-.322.115.072.222.181.309.312l.463-.433a1.758 1.758 0 0 0-.513-.479c-.743-.464-1.344-.187-1.77.496l-.26.416-.475-.247-.324.518.452.283-1.727 2.762.693.435 1.727-2.764.67.42zM23.898 87.468c-.419.107-.74.123-1.043-.037-.308-.163-.468-.424-.288-.764.206-.39.69-.465 1.78-.05l-.449.85zm.87-2.938c-.554-.292-1.157-.321-1.636-.285l.011.634c.396-.032.821-.016 1.186.177.51.268.467.698.261 1.103-1.524-.604-2.354-.553-2.748.189-.322.61-.106 1.223.491 1.539.415.22.895.208 1.353.103l.02.01-.148.43.591.312 1.102-2.081c.485-.918.378-1.674-.484-2.131zM29.068 86.61a.964.964 0 0 0-.372-.252c-.385-.165-.88-.052-1.334.303l-.02-.008.217-.672-.614-.262-1.533 3.594.745.318.956-2.242c.471-.47.911-.523 1.205-.397.143.061.227.12.334.212l.416-.595zM31.21 89.053l-1.777-.597c.294-.628.823-.846 1.288-.69.539.18.705.647.489 1.287m-.3-1.898c-.868-.291-1.94.179-2.345 1.385-.41 1.219.154 2.202 1.157 2.538.484.163.963.144 1.384.03L31 90.528c-.328.085-.644.09-.975-.021-.638-.215-.941-.788-.764-1.515l2.403.807a2.09 2.09 0 0 0 .165-.38c.354-1.05.066-1.933-.918-2.263M17.038 77.7l-.457-.48a.268.268 0 0 0-.348-.035l-1.794 1.283c-.439.331-.895.667-1.351 1.013l-.026-.026c.338-.47.688-.929 1.005-1.379l1.246-1.889a.261.261 0 0 0-.028-.328l-.443-.467a.27.27 0 0 0-.329-.045l-1.937 1.164c-.471.3-.955.615-1.432.93l-.018-.02 1.067-1.312 1.371-1.724a.265.265 0 0 0-.014-.348l-.52-.545a.265.265 0 0 0-.406.026l-2.848 3.913a.265.265 0 0 0 .024.34l.781.821a.266.266 0 0 0 .334.041l1.804-1.138c.346-.224.7-.47 1.033-.699l.023.026c-.254.31-.513.655-.748.997l-1.217 1.757a.265.265 0 0 0 .027.334l.8.841a.265.265 0 0 0 .339.037l4.016-2.686a.265.265 0 0 0 .046-.403M85.814 57.36l2.294.56.194-.795-2.39-.583c-.968-.237-1.595-.01-1.79.8-.128.517.06.973.313 1.41l-.005.02-.54-.066-.159.648 3.801.928.192-.787-2.695-.657c-.256-.422-.377-.708-.29-1.06.11-.449.42-.579 1.075-.419M69.34 84.769c-.502.349-1.128.115-1.597-.563-.473-.684-.471-1.358.03-1.706.509-.35 1.14-.112 1.612.573.469.676.464 1.345-.044 1.696m-1.951-2.822c-.795.55-1.086 1.665-.342 2.74.735 1.064 1.878 1.181 2.673.63.795-.548 1.09-1.658.354-2.722-.744-1.076-1.891-1.198-2.685-.647M71.423 78.905l1.767 2.063c.02.525-.058.817-.333 1.053-.351.3-.668.226-1.107-.287l-1.536-1.793-.621.532 1.6 1.87c.648.754 1.28.934 1.91.393.412-.352.527-.807.529-1.35l.016-.015.433.406.507-.434-2.544-2.969-.621.531zM74.191 76.055c-.366.388-.43.875-.426 1.377l-.014.017-.435-.326-.46.485 2.835 2.685.556-.587-2.009-1.905c-.013-.491.022-.8.272-1.06.318-.336.65-.294 1.14.169l1.711 1.622.561-.594-1.782-1.69c-.722-.682-1.379-.796-1.949-.193M79.523 74.231c.087.425.037.736-.162.995-.372.486-.973.464-1.679-.076-.67-.514-.816-1.18-.483-1.615.178-.23.42-.395.806-.466l1.518 1.162zm-3.658-2.8l1.152.881.535.365c-.409.09-.717.212-.99.568-.53.694-.393 1.812.617 2.585 1.03.787 2.005.738 2.602-.04.267-.35.327-.815.267-1.228l.013-.017.394.211.406-.53-4.499-3.444-.497.65zM81.856 71.692c-.184.296-.454.438-.78.236-.375-.232-.417-.716.07-1.777l.815.504c.081.426.074.747-.105 1.037m-2.76-2.1c-.33.533-.4 1.132-.396 1.612l.633.03c-.006-.396.038-.818.254-1.17.304-.489.728-.419 1.118-.185-.704 1.476-.709 2.31.004 2.75.585.362 1.21.19 1.566-.384.247-.4.268-.88.195-1.343l.011-.018.418.175.351-.568-2-1.237c-.882-.544-1.643-.49-2.155.338M84.025 67.8c-.185.362-.476.397-.893.182l-1.764-.91.466-.903-.582-.3-.465.904-.962-.493-.316.612.92.577-.24.558.544.279.26-.506 1.76.906c.732.377 1.36.356 1.763-.427.13-.253.187-.521.225-.75l-.606-.143a1.144 1.144 0 0 1-.11.415M80.42 64.769c.259.114.53-.006.65-.278.123-.272.035-.562-.225-.676-.266-.118-.534.01-.655.284-.123.272-.037.55.23.67M81.575 65.159l3.568 1.591.33-.74-3.568-1.591zM86.022 63.05c-.205.575-.85.752-1.625.475-.782-.28-1.176-.828-.97-1.403.207-.581.86-.756 1.641-.476.775.277 1.162.822.954 1.404m-.673-2.193c-1.229-.44-2.232.13-2.557 1.039-.326.909.09 1.985 1.321 2.425 1.216.435 2.213-.137 2.537-1.046.324-.911-.083-1.983-1.3-2.418M65.752 84.455a.265.265 0 0 0-.36-.105l-1.12.616a.265.265 0 0 1-.358-.106l-.304-.551a.265.265 0 0 1 .105-.359l1.38-.76a.264.264 0 0 0 .104-.36l-.252-.457a.267.267 0 0 0-.36-.106l-2.495 1.374a.265.265 0 0 0-.104.36l2.294 4.172a.265.265 0 0 0 .36.103l.65-.357a.264.264 0 0 0 .106-.36l-.718-1.305a.266.266 0 0 1 .105-.361l1.117-.615a.263.263 0 0 0 .105-.359l-.255-.464z"/><path fill="#DB0032" d="M47.747 22.42c6.13.655 12.15 3.643 12.15 7.568 0 3.93-6.03 5.965-12.167 5.645h-.002c-6.349-.325-12.731-3.15-18.47-8.046 5.181-3.921 11.709-5.886 18.489-5.166m26.238 37.226c.346-.927-.079-1.958-.913-2.254l-1.733-.616c-.785-.278-1.649.183-1.986 1.05a25.771 25.771 0 0 1-1.366 2.96c-4.266 7.902-12.276 13.187-21.643 13.693-14.239.768-26.969-10.266-27.458-25.207a25.91 25.91 0 0 1 5.604-17.02c7.205 5.973 15.253 9.31 23.214 9.525h.029c10.491.285 17.558-4.503 17.558-11.362 0-6.86-7.068-12.767-17.561-14.144-8.581-1.122-16.944 1.218-23.605 6.165-2.943-3.441-5.587-7.461-7.795-11.965l7.126 3.194c1.208.54 2.516.129 2.931-.916l.878-2.21c.411-1.033-.211-2.322-1.397-2.886L10.788.496c-1.801-.856-3.877-.602-4.925.753-.626.809-.697 1.92-.315 2.986 3.217 8.966 7.932 16.73 13.529 22.847-5.311 6.028-8.429 14.004-8.034 22.794.866 19.372 18.023 32.792 36.169 30.704 10.976-1.263 20.162-7.8 25.084-17.151a32.405 32.405 0 0 0 1.689-3.782"/><path fill="#000" d="M52.196 64.363c2.581-.185 5.104-1.28 7.135-3.237.53-.51.552-1.418.074-1.937l-.82-.89a1.091 1.091 0 0 0-1.568-.074c-1.356 1.23-3.03 1.951-4.82 2.047-1.82.096-3.577-.465-5.039-1.605-.52-.407-1.268-.29-1.736.23l-.93 1.033c-.55.611-.524 1.583.083 2.062 2.275 1.79 4.98 2.558 7.621 2.371M62.852 53.05c1.7-.037 3.06-2.117 3.06-4.647 0-2.532-1.36-4.613-3.06-4.65-1.728-.038-3.15 2.043-3.15 4.65 0 2.604 1.422 4.685 3.15 4.647M40.42 43.265c-2.112-.046-3.853 2.254-3.853 5.137 0 2.883 1.74 5.183 3.853 5.137 2.076-.045 3.73-2.345 3.73-5.137 0-2.792-1.654-5.092-3.73-5.137"/></g></svg>