<?xml version="1.0" encoding="UTF-8"?>
<svg width="234px" height="418px" viewBox="0 0 234 418" version="1.1" xmlns="http://www.w3.org/2000/svg" xmlns:xlink="http://www.w3.org/1999/xlink">
    <title>about-right-puff-hover</title>
    <defs>
        <polygon id="path-1" points="0.99151462 0.0128774476 40.8056669 0.0128774476 40.8056669 39.436056 0.99151462 39.436056"></polygon>
        <polygon id="path-3" points="0.883142662 0.514028592 177.969481 0.514028592 177.969481 175.970367 0.883142662 175.970367"></polygon>
        <polygon id="path-5" points="0 0.0569367532 52.4448041 0.0569367532 52.4448041 38.2913034 0 38.2913034"></polygon>
    </defs>
    <g id="R4" stroke="none" stroke-width="1" fill="none" fill-rule="evenodd">
        <g id="D---Homepage---Hover-Full-Layout---1440" transform="translate(-1126.000000, -2956.000000)">
            <g id="ABOUT-NEW" transform="translate(100.000000, 2382.000000)">
                <g id="about-right-puff-hover" transform="translate(1026.000000, 574.000000)">
                    <path d="M198.311823,264.453568 C198.04257,261.108303 197.756998,257.767117 197.483666,254.425931 C195.978296,236.116722 194.668747,217.795274 192.147559,199.604374 C191.184776,192.648669 190.988955,185.603214 191.115423,178.594475 C191.188855,174.576077 192.265867,166.94724 188.83901,163.895705 C186.44021,161.757999 182.976637,161.288846 179.7456,160.917603 C169.261048,159.714123 158.776497,158.514723 148.283786,157.311243 L148.291945,157.197015 C147.9411,157.197015 147.590255,157.192935 147.24349,157.192935 C146.896725,157.152139 146.54996,157.111343 146.203194,157.074627 L146.199115,157.188856 C135.641131,157.1399 125.083146,157.090945 114.529242,157.04199 C111.277807,157.025672 107.785676,157.082786 105.15026,158.922682 C101.441911,161.509143 101.539821,169.109423 101.164499,173.058468 C100.495445,180.079446 99.1736576,186.606793 97.5336617,193.493145 C97.2480902,194.684386 96.9625188,195.875626 96.6810269,197.066867 C92.6667084,213.887025 89.2888062,230.845889 85.8456306,247.788435 C85.1765775,251.076586 84.4952856,254.360657 83.8303121,257.648809 C81.4682284,269.377636 79.3998752,282.346659 86.730902,292.574196 C94.9023248,303.976655 111.738801,307.82779 126.988316,309.908382 C130.288706,310.357137 133.662528,310.752858 137.04859,311.046588 L137.04859,311.095543 C137.395355,311.111862 137.7462,311.115941 138.092965,311.13226 C138.44381,311.160817 138.790576,311.193454 139.137341,311.217931 L139.14142,311.168976 C142.539721,311.283205 145.933941,311.287284 149.271047,311.234249 C164.655189,310.973156 181.830271,309.141419 191.294925,298.791494 C199.784556,289.502263 199.266447,276.378215 198.311823,264.453568" id="Fill-1" fill="#FEFEFE"></path>
                    <polygon id="Fill-3" fill="#FEFEFE" points="157.507744 394.749617 155.194615 300.976115 181.797634 300.319301 184.110763 394.092803"></polygon>
                    <g id="Group-7" transform="translate(145.505448, 377.528163)">
                        <mask id="mask-2" fill="white">
                            <use xlink:href="#path-1"></use>
                        </mask>
                        <g id="Clip-6"></g>
                        <path d="M7.82316161,16.9305788 C2.94804917,21.0672851 -1.81691429,27.7618955 2.98884509,34.7216795 C5.3264513,38.0914225 10.1403699,39.1194797 14.4892149,39.3071409 C21.3959642,39.6090307 31.5949442,39.7803736 36.9351301,35.0072509 C40.7291507,31.3396977 40.9576078,25.897522 40.7536282,21.1203198 C40.5047731,15.298742 39.6113425,9.85248665 39.7051731,3.98603336 C39.7174119,3.22314965 39.7174119,2.41131084 39.2972139,1.75857612 C38.5792057,0.632608733 36.9555281,0.379674029 35.5358301,0.277684229 C28.616842,-0.232264771 21.6285009,-0.0038076192 14.758468,0.946737317 C13.5876251,1.109921 12.408623,1.29350264 11.3193719,1.72593939 C10.9481291,1.8728047 10.5728066,2.06046593 10.3565882,2.37867411 C10.1077331,2.7417578 10.1158923,3.1986721 10.1322107,3.63110885 C10.3239515,7.85756616 11.6906148,13.6505868 7.82316161,16.9305788" id="Fill-5" fill="#231916" mask="url(#mask-2)"></path>
                    </g>
                    <polygon id="Fill-8" fill="#FEFEFE" points="103.744025 394.398772 101.430896 300.62527 128.033915 299.968456 130.347044 393.741958"></polygon>
                    <path d="M99.5689701,394.107897 C94.6897781,398.248683 89.9248146,404.943294 94.7346536,411.898998 C97.0681802,415.268741 101.886178,416.296798 106.235023,416.484459 C113.137693,416.786349 123.336673,416.957692 128.676859,412.188649 C132.47088,408.521096 132.699337,403.07484 132.495357,398.301718 C132.246502,392.47606 131.353071,387.029805 131.446902,381.163352 C131.459141,380.400468 131.459141,379.592709 131.038943,378.935895 C130.320935,377.809927 128.697257,377.556993 127.281639,377.455003 C120.358571,376.949133 113.374309,377.173511 106.500197,378.128135 C105.329354,378.287239 104.150352,378.474901 103.061101,378.903258 C102.689858,379.054203 102.314536,379.237784 102.098317,379.555993 C101.849462,379.919076 101.861701,380.38007 101.878019,380.808427 C102.06568,385.034885 103.432344,390.827905 99.5689701,394.107897" id="Fill-10" fill="#231916"></path>
                    <g id="Group-14" transform="translate(55.754424, 0.845835)">
                        <mask id="mask-4" fill="white">
                            <use xlink:href="#path-3"></use>
                        </mask>
                        <g id="Clip-13"></g>
                        <path d="M177.441174,88.2786992 C176.935305,83.3995072 176.054113,78.5611111 174.756803,73.8287844 C172.876111,66.9750698 170.142784,60.3702104 166.646574,54.1937081 C159.817337,42.1181158 153.734665,30.6993378 150.776961,16.8328046 C150.295569,14.5808698 149.606118,12.3574921 149.018657,10.1300349 C148.569902,8.40028789 148.206818,6.61342659 147.627516,4.9285551 C147.125726,3.46806116 146.836075,1.88109987 146.08135,0.510356959 C145.134885,2.1748305 143.955883,3.59452851 142.842154,5.11621633 C141.540765,6.88675926 140.447434,8.8041675 139.101168,10.5379941 C130.158703,22.0628415 116.78988,26.4932784 102.760163,27.5662111 C90.4275563,28.5045173 77.9888803,27.4356642 65.69299,29.0226254 C40.1547441,32.3189358 13.2865512,53.2880387 4.88259169,78.0307641 C-1.96296368,98.179869 -0.151624836,121.331554 11.3283471,139.208326 C20.7644433,153.894857 35.1858011,164.16727 51.1206874,169.703276 C57.0524142,171.76347 63.1881206,173.195407 69.39318,174.052121 C74.4845108,174.75789 79.7431049,175.243362 85.001699,175.520774 C85.0220969,175.520774 85.0424949,175.520774 85.0628929,175.520774 C85.0832908,175.524854 85.1036888,175.524854 85.1281663,175.524854 C90.3826808,175.883858 95.6575933,176.034803 100.797879,175.945052 C107.060053,175.838982 113.322227,175.153611 119.457933,173.819584 C135.943564,170.233623 151.494969,161.772549 162.620016,148.322134 C170.334525,139.000267 174.88735,127.418305 176.68645,115.493657 C178.036795,106.575669 178.37948,97.359871 177.441174,88.2786992" id="Fill-12" fill="#FEFEFE" mask="url(#mask-4)"></path>
                    </g>
                    <path d="M195.144428,93.070724 C192.708911,88.0854626 188.955687,83.6264685 184.357986,79.8814031 C180.294713,76.5646948 175.574625,73.8068906 170.52409,71.7303782 C163.82132,68.9684945 155.996663,67.083723 148.053697,66.3901923 L148.041458,66.3901923 C148.033299,66.3901923 148.02922,66.3901923 148.02514,66.3901923 C147.82932,66.3820331 147.633499,66.3820331 147.445838,66.3779535 C147.250018,66.3575556 147.058277,66.3371576 146.862456,66.3208393 L146.846138,66.3208393 C146.842058,66.3167597 146.837979,66.3167597 146.833899,66.3167597 C138.862376,66.0515862 130.870456,66.9817332 123.886194,68.9195394 C118.62352,70.3759537 113.605622,72.5503762 109.171106,75.3489763 C104.157287,78.5188193 99.8941136,82.4923419 96.8833747,87.151236 C88.0143417,100.850506 85.6277804,120.375433 95.6921338,134.286842 C101.811522,142.743836 111.117071,148.683722 121.373165,151.926998 C125.195743,153.134557 129.136629,153.979033 133.12647,154.497141 C139.290734,155.292661 145.814001,155.696541 152.031299,155.561914 C157.514271,155.443606 162.993163,154.697041 168.243598,153.228388 C176.855617,150.813269 184.774105,146.374673 190.665036,140.00643 C202.332669,127.40457 202.304112,107.736857 195.144428,93.070724" id="Fill-15" fill="#FAD9CB"></path>
                    <path d="M141.324818,61.8463427 C139.521638,62.6010673 137.742936,63.4292244 135.9112,64.1227551 C131.248226,65.8851388 124.867744,66.8071266 120.935017,63.4251449 C117.965074,60.8713203 117.00637,64.0085265 117.626468,66.492998 C118.364874,69.462941 120.339397,72.3594513 122.558695,74.4767596 C129.049326,80.681819 137.857165,85.1081763 147.281022,85.8751396 C156.239806,86.6053866 171.942156,83.6884783 172.468423,72.7592513 C172.59897,70.0667206 171.428127,67.443543 169.60047,65.4159857 C166.650925,62.1359938 161.971633,59.8799794 157.365774,59.4597814 C153.314739,59.0926181 149.149476,59.263961 145.224908,60.4184855 C143.894961,60.8101264 142.60173,61.3119162 141.324818,61.8463427" id="Fill-17" fill="#231916"></path>
                    <path d="M150.794775,116.100021 C150.9498,113.497241 148.24911,111.216749 144.756979,111.00461 C141.260769,110.796551 138.303064,112.734357 138.14396,115.337137 C137.988936,117.943996 140.693705,120.224488 144.185836,120.432548 C147.677967,120.644686 150.639751,118.702801 150.794775,116.100021" id="Fill-19" fill="#F2A078"></path>
                    <path d="M131.719419,110.847138 C131.984592,106.441179 129.381813,102.704273 125.897841,102.496213 C122.422029,102.284075 119.382733,105.682375 119.117559,110.088334 C118.852386,114.490214 121.455165,118.2312 124.939137,118.439259 C128.419029,118.651398 131.458325,115.249018 131.719419,110.847138" id="Fill-21" fill="#231916"></path>
                    <path d="M170.316439,113.172098 C170.581612,108.770218 167.978832,105.029232 164.494861,104.821173 C161.014969,104.609034 157.979752,108.011414 157.714579,112.413294 C157.449405,116.819253 160.052185,120.556159 163.536157,120.764218 C167.011969,120.976357 170.055345,117.578057 170.316439,113.172098" id="Fill-23" fill="#231916"></path>
                    <path d="M42.3070009,219.336952 L38.4191497,190.85732 C50.5436971,189.196926 61.7462568,185.921014 70.802951,181.372269 C79.3170595,177.100936 94.3952315,164.009525 104.716599,154.100196 L124.629088,174.836763 C116.955375,182.200426 97.6140296,200.081278 83.6985413,207.065539 C71.843247,213.013585 57.5279586,217.25636 42.3070009,219.336952" id="Fill-25" fill="#FEFEFE"></path>
                    <g id="Group-29" transform="translate(0.000000, 188.177403)">
                        <mask id="mask-6" fill="white">
                            <use xlink:href="#path-5"></use>
                        </mask>
                        <g id="Clip-28"></g>
                        <path d="M13.1526046,6.369092 C13.4055393,7.19316958 12.7242474,8.1518737 11.7941005,8.65366352 C10.0072392,9.628686 7.86137378,9.14729415 6.10714922,10.2120677 C-3.1616838,15.837825 -0.750644928,27.9909296 5.84197574,33.2291257 C10.0480351,36.5703116 16.0654333,38.1572729 22.1317866,38.2837402 C32.3674829,38.495879 42.3380058,34.2082278 51.3375857,30.0919195 C51.7700225,29.9001787 52.235096,29.6594827 52.3901205,29.2841603 C52.5329062,28.9414745 52.3697225,28.58655 52.2024592,28.2724214 C47.8821713,19.9867701 45.6832712,11.3869902 43.3211874,2.48124082 C43.2763119,2.31805714 43.2232772,2.14263468 43.0845711,2.02840611 C42.9295466,1.89377957 42.6888507,1.85298365 42.4644731,1.82034692 C34.4276769,0.592389725 27.4189378,-0.456065419 19.0149783,0.327216245 C17.3056293,0.486320333 15.5065292,0.714777485 14.0541944,1.55517344 C12.6018597,2.39964898 11.6553943,4.05596333 12.4141985,5.26760216 C12.6222576,5.59804911 12.9404658,5.87546136 13.0995699,6.23038587 C13.1199679,6.27526138 13.1362862,6.32421648 13.1526046,6.369092" id="Fill-27" fill="#D6002A" mask="url(#mask-6)"></path>
                    </g>
                    <path d="M154.350531,126.0001 L136.647254,126.0001 C135.73673,126.0001 135.0001,126.543516 135.0001,127.212521 C135.0001,131.190324 139.709703,134.426667 145.498892,134.426667 C151.288082,134.426667 156.0001,131.190324 156.0001,127.212521 C156.0001,126.543516 155.261055,126.0001 154.350531,126.0001" id="Fill-1" fill="#231916"></path>
                    <path d="M158.958039,266.122937 L145.262848,240.849865 L172.269747,226.212289 C177.332521,223.466723 187.866028,217.755294 188.808413,212.015308 C189.34284,208.772033 187.172497,203.419608 185.426432,199.115638 L173.110143,168.694121 L199.753959,157.9036 L212.074326,188.325118 C214.999394,195.550075 219.017792,205.455324 217.177896,216.674202 C213.946859,236.313358 195.050189,246.561293 185.964938,251.481281 L158.958039,266.122937 Z" id="Fill-32" fill="#FEFEFE"></path>
                    <path d="M135.416753,244.280801 C135.894065,244.99473 135.514663,246.108459 134.776257,246.859104 C133.340241,248.307359 131.1495,248.466463 129.778757,249.99223 C122.533401,258.057584 128.3509,268.99497 136.175557,272.107699 C141.164898,274.09446 147.386276,273.874162 153.228252,272.242325 C163.088626,269.484521 171.398754,262.504339 178.827691,255.964753 C179.182616,255.654704 179.562018,255.29162 179.598734,254.883661 C179.635451,254.516498 179.374357,254.226847 179.129581,253.969832 C172.598154,247.287461 168.008613,239.69126 163.174297,231.850285 C163.080466,231.703419 162.986636,231.552474 162.819372,231.479042 C162.631711,231.39745 162.386936,231.425953 162.162558,231.458644 C154.117603,232.609089 147.104784,233.624907 139.284206,236.802909 C137.689086,237.451564 136.032771,238.185891 134.886406,239.413848 C133.74412,240.637726 133.311683,242.49802 134.392775,243.436326 C134.686506,243.69334 135.074067,243.868763 135.327002,244.162493 C135.355559,244.19921 135.388196,244.240006 135.416753,244.280801" id="Fill-34" fill="#D6002A"></path>
                </g>
            </g>
        </g>
    </g>
</svg>