<?xml version="1.0" encoding="UTF-8"?>
<svg width="525px" height="353px" viewBox="0 0 525 353" version="1.1" xmlns="http://www.w3.org/2000/svg" xmlns:xlink="http://www.w3.org/1999/xlink">
    <title>bulbs-right</title>
    <defs>
        <polygon id="path-1" points="0.714164724 0.816163909 145.592117 0.816163909 145.592117 146.551453 0.714164724 146.551453"></polygon>
        <polygon id="path-3" points="0 0.174281457 158.120102 0.174281457 158.120102 137.410554 0 137.410554"></polygon>
    </defs>
    <g id="R4" stroke="none" stroke-width="1" fill="none" fill-rule="evenodd">
        <g id="D---Homepage---1440" transform="translate(-918.000000, -4413.000000)">
            <g id="ABOUT" transform="translate(-100.000000, 4013.000000)">
                <g id="bulbs-right" transform="translate(1019.000000, 400.000000)">
                    <g id="RIGHT" transform="translate(291.093259, 0.000000)">
                        <path d="M160.963444,202.684697 C160.575148,199.951286 160.175883,197.217875 159.785392,194.484463 C158.11155,182.787296 156.402607,171.096673 154.641014,159.410413 C154.588363,159.054829 154.537907,158.701427 154.485256,158.348025 C154.215423,156.554838 153.936815,154.763832 153.660401,152.972826 C153.465156,153.012093 153.263329,153.046997 153.068084,153.086263 C152.491124,148.836714 151.914164,144.589347 151.326235,140.339798 C151.245065,139.750794 151.168284,139.15961 151.084921,138.568425 C150.529898,134.574111 151.420567,123.055826 148.197926,120.523112 C146.109462,118.882629 143.226855,118.666661 140.539492,118.520501 C131.814889,118.044935 123.090286,117.56937 114.367876,117.093804 L114.367876,117 C114.078299,117.01527 113.788723,117.030541 113.499146,117.047993 C113.209569,117.030541 112.922185,117.01527 112.634802,117 L112.634802,117.093804 C103.908005,117.56937 95.1855956,118.044935 86.4587986,118.520501 C83.7714366,118.666661 80.8888294,118.882629 78.8025589,120.523112 C75.5777244,123.055826 76.468393,134.574111 75.9133705,138.568425 C75.8322012,139.15961 75.7532256,139.750794 75.6720563,140.339798 C75.0863211,144.589347 74.5093609,148.836714 73.930207,153.086263 C73.7349619,153.046997 73.5353293,153.012093 73.3400842,152.972826 C73.0636698,154.763832 72.7850616,156.554838 72.5152286,158.348025 C72.4603844,158.701427 72.4121216,159.054829 72.3572775,159.410413 C70.597878,171.096673 68.8867413,182.787296 67.2150924,194.484463 C66.8246022,197.217875 66.4231433,199.951286 66.0370406,202.684697 C64.66155,212.435972 63.5866052,223.195098 70.1503499,231.240445 C77.4621685,240.208565 91.5614959,242.55367 104.259008,243.515708 C107.012183,243.725132 109.820202,243.884381 112.634802,243.960733 L112.634802,244 C112.924379,243.995637 113.209569,243.986911 113.499146,243.980367 C113.788723,243.986911 114.078299,243.995637 114.367876,244 L114.367876,243.960733 C117.182477,243.884381 119.986109,243.725132 122.739284,243.515708 C135.436795,242.55367 149.538316,240.208565 156.852329,231.240445 C163.411686,223.195098 162.338935,212.435972 160.963444,202.684697" id="Fill-1" fill="#FEFEFE"></path>
                        <path d="M43.3711392,170 C39.8782796,170 36.1652275,169.776255 32.5773829,168.968165 L31.4548323,168.714007 C27.6575888,167.85161 24.3762869,167.106517 21,166.841498 L22.8198273,143.352584 C27.8799402,143.750112 32.316174,144.75588 36.6056128,145.729064 L37.6979409,145.976704 C40.6360013,146.639251 45.0420126,146.443745 48.9277649,146.272135 L50.5079708,146.202622 C60.0820325,145.81161 69.5006642,144.060749 78.5026569,141 L86,163.322397 C74.8845898,167.102172 63.2618731,169.263596 51.4599801,169.745843 L49.9574892,169.811011 C47.9261043,169.902247 45.6961142,170 43.3711392,170" id="Fill-3" fill="#FEFEFE"></path>
                        <path d="M14.1753436,143.699806 C14.1862113,144.394366 13.4298184,144.986028 12.5843103,145.170386 C10.9541533,145.524097 9.37398771,144.66876 7.75252484,145.099644 C-0.832968885,147.389118 -1.70455951,157.372341 2.29475908,162.926674 C4.84649823,166.46807 9.22401326,169.055519 13.9732041,170.515381 C21.9914032,172.978495 30.8246808,171.891638 38.8537476,170.719032 C39.2341175,170.661152 39.6579584,170.583979 39.8644449,170.324591 C40.0535431,170.088784 40.0078987,169.777947 39.9470395,169.497122 C38.4299067,162.088486 38.6603023,154.91137 38.8254915,147.462004 C38.8298386,147.322663 38.8298386,147.179035 38.747244,147.054701 C38.6559552,146.91536 38.4755511,146.829612 38.3060148,146.752439 C32.2505248,143.995637 26.9731631,141.603265 20.1743215,140.323475 C18.7854277,140.061943 17.3182863,139.834711 15.9837311,140.162697 C14.6470023,140.490684 13.5232808,141.566822 13.8471386,142.67726 C13.9362539,142.981666 14.1231785,143.268922 14.1666494,143.577615 C14.17317,143.618346 14.1753436,143.659076 14.1753436,143.699806" id="Fill-5" fill="#D6002A"></path>
                        <g id="Group-9" transform="translate(37.000000, 0.000000)">
                            <mask id="mask-2" fill="white">
                                <use xlink:href="#path-1"></use>
                            </mask>
                            <g id="Clip-8"></g>
                            <path d="M144.484396,70.8533907 C143.828834,66.8993846 142.87371,62.997348 141.577781,59.2014156 C139.702266,53.7056503 137.142969,48.4502436 133.980208,43.5846075 C127.802295,34.0742052 122.271261,25.0575124 119.164939,13.8949159 C118.661328,12.0803173 117.986229,10.3046957 117.400131,8.51608181 C116.944276,7.12590006 116.562227,5.68807968 116.006519,4.34120577 C115.522445,3.1762248 115.207688,1.89647805 114.526077,0.81594737 C113.831442,2.21912148 112.93927,3.43390646 112.101366,4.72881096 C111.126706,6.23808928 110.325704,7.85563721 109.311971,9.33676543 C102.567496,19.1741419 91.8570876,23.4442952 80.4390196,25.0077083 C70.4015392,26.380567 60.1795463,26.1207199 50.2050173,28.0176034 C29.4853481,31.9586171 8.55294693,50.3817734 2.90035202,70.9746526 C-1.70160697,87.741284 0.916299888,106.534722 11.1860489,120.551306 C19.6215266,132.066861 31.9187425,139.732349 45.2188381,143.465485 C50.1724562,144.855667 55.2584892,145.723989 60.370571,146.118091 C64.570944,146.440734 68.8907074,146.579319 73.2039586,146.546838 C73.2213244,146.546838 73.2386903,146.544673 73.2560562,146.544673 C73.2734221,146.544673 73.290788,146.546838 73.3081538,146.544673 C77.621405,146.579319 81.9411684,146.440734 86.1415414,146.118091 C91.2557939,145.723989 96.3396562,144.855667 101.295445,143.465485 C114.595541,139.732349 126.892757,132.066861 135.326063,120.551306 C141.174025,112.56967 144.323762,102.899029 145.209422,93.0854718 C145.871496,85.7469578 145.702179,78.2113932 144.484396,70.8533907" id="Fill-7" fill="#FEFEFE" mask="url(#mask-2)"></path>
                        </g>
                        <path d="M148.860387,78.4864116 C146.62415,74.5305398 143.331732,71.0715933 139.385176,68.2354307 C135.894995,65.7291049 131.891936,63.7045145 127.65417,62.2549685 C122.032066,60.3301971 115.538505,59.1735983 109.001479,59.00217 C108.997132,59 108.994959,59 108.990612,59 L108.977573,59 C108.816755,59.00434 108.660284,59.0130199 108.501639,59.0195298 C108.340822,59.0130199 108.182177,59.00434 108.023532,59 L108.010493,59 C108.006147,59 108.0018,59 107.997454,59.00217 C101.460428,59.1735983 94.9668659,60.3301971 89.3447626,62.2549685 C85.1091696,63.7045145 81.1061103,65.7291049 77.6181027,68.2354307 C73.6693738,71.0715933 70.3791286,74.5305398 68.1385455,78.4864116 C61.5580551,90.1196691 60.5670698,106.192704 69.4924575,117.066468 C74.9189716,123.676225 82.8251222,128.076942 91.3810637,130.218711 C94.5691678,131.017264 97.8376809,131.514189 101.127926,131.739867 C106.208899,132.091403 111.570217,132.100083 116.65119,131.683447 C121.134529,131.314551 125.583097,130.437879 129.805651,128.975313 C136.736029,126.579656 142.99923,122.563025 147.508648,117.066468 C156.434036,106.192704 155.440877,90.1196691 148.860387,78.4864116" id="Fill-10" fill="#FAD9CB"></path>
                        <path d="M103.212074,54.7437437 C101.786862,55.447625 100.385332,56.2054849 98.9321324,56.8597059 C95.2399293,58.5222476 90.109597,59.584547 86.7532445,57.02596 C84.2257538,55.0978435 83.6014163,57.695295 84.2236009,59.6838676 C84.9685002,62.0610864 86.7123396,64.3195522 88.6133398,65.9345927 C94.1807084,70.6609613 101.537127,73.8305863 109.214326,73.9946814 C116.516922,74.1479807 129.102706,71.0064246 128.999368,62.0934736 C128.973533,59.897623 127.892783,57.8226846 126.312563,56.2616227 C123.761391,53.7397412 119.853899,52.1333372 116.101415,52.0167434 C112.801038,51.9152636 109.431768,52.2628859 106.305774,53.394278 C105.242247,53.7764467 104.221778,54.2471403 103.212074,54.7437437" id="Fill-12" fill="#231916"></path>
                        <path d="M114,100 C114,97.7912458 111.761974,96 108.998954,96 C106.238026,96 104,97.7912458 104,100 C104,102.208754 106.238026,104 108.998954,104 C111.761974,104 114,102.208754 114,100" id="Fill-14" fill="#F2A078"></path>
                        <path d="M97,96.5 C97,92.9114134 94.7623846,90 92,90 C89.2397145,90 87,92.9114134 87,96.5 C87,100.090743 89.2397145,103 92,103 C94.7623846,103 97,100.090743 97,96.5" id="Fill-16" fill="#231916"></path>
                        <path d="M130,96.5 C130,92.9114134 127.762385,90 125,90 C122.239715,90 120,92.9114134 120,96.5 C120,100.090743 122.239715,103 125,103 C127.762385,103 130,100.090743 130,96.5" id="Fill-18" fill="#231916"></path>
                        <path d="M132.987922,323 C131.108686,316.652906 127.404781,309.852604 123.486979,302.651641 C113.082432,283.524971 98.8321085,257.328703 124.298913,233 L139.413554,248.921376 C127.332754,260.463936 130.936259,270.441068 142.728953,292.116209 C147.022165,300.004646 151.457248,308.160192 154,316.731725 L132.987922,323 Z" id="Fill-20" fill="#FEFEFE"></path>
                        <path d="M130.128294,324.226873 C127.191649,328.530926 124.885665,334.826794 130.115423,339.286728 C132.650933,341.447414 136.632242,341.228748 140.068695,340.449342 C145.527979,339.210952 153.531354,337.171507 156.695379,332.267744 C158.883383,328.565566 157.909506,324.224708 156.740426,320.503045 C155.313933,315.96517 153.464856,311.860299 152.29792,307.214174 C152.145618,306.607969 151.976155,305.971454 151.508523,305.544946 C150.7084,304.811005 149.387017,304.960392 148.256549,305.179058 C142.743637,306.257236 137.331545,307.926464 132.163995,310.143441 C131.284504,310.520154 130.402867,310.920682 129.641356,311.492246 C129.381798,311.687098 129.128676,311.916589 129.025711,312.211032 C128.909876,312.550939 129.014986,312.910332 129.120096,313.24591 C130.164761,316.541065 132.455729,320.812642 130.128294,324.226873" id="Fill-22" fill="#231916"></path>
                        <path d="M65.4200756,307 C64.0627418,301.511833 61.0189585,295.829939 57.7987864,289.81563 C55.7853722,286.057788 53.7052743,282.174463 51.9392347,278.132636 L50.9002613,275.779307 C46.9852892,266.971381 41.6226378,254.909741 43.3241449,243.532746 C45.5591208,228.589433 61.3566787,222.192075 72.89294,217.520638 C75.1472756,216.607045 77.2789994,215.746285 78.8320817,215 L88,235.019813 C85.8446142,236.052284 83.4138898,237.038525 80.8411938,238.079802 C76.3776954,239.887177 65.9277313,244.118327 64.6306279,247.066043 C63.9487344,251.748487 67.928239,260.699505 70.5633164,266.623555 L71.6603691,269.108971 C73.0714799,272.331866 74.8547282,275.662631 76.7433796,279.187122 C80.4712074,286.152449 84.3302514,293.355531 86.3630254,301.573473 L65.4200756,307 Z" id="Fill-24" fill="#FEFEFE"></path>
                        <path d="M61.569384,307.192575 C58.3813832,311.325784 55.7562295,317.44961 60.9273866,322.0687 C63.4360134,324.30547 67.5210516,324.254099 71.0718249,323.624807 C76.7156855,322.625217 84.995693,320.936403 88.4409325,316.220992 C90.8374296,312.655003 90.0173439,308.327014 88.977396,304.602631 C87.706593,300.060597 85.9828739,295.92953 84.978104,291.293316 C84.8483854,290.689709 84.7010778,290.053995 84.2415659,289.613063 C83.4522609,288.855344 82.0913144,288.947383 80.9260451,289.118619 C75.2360134,289.957675 69.6229335,291.385355 64.2407088,293.365271 C63.3238837,293.701322 62.4026614,294.058777 61.6023633,294.593889 C61.3275356,294.775827 61.0593039,294.992013 60.9405783,295.278833 C60.8042638,295.610603 60.8988045,295.970198 60.9933452,296.304108 C61.923362,299.602541 64.0934011,303.917688 61.569384,307.192575" id="Fill-26" fill="#231916"></path>
                        <path d="M103.074656,111.674304 C102.858643,111.045343 103.125876,110.287931 103.689291,109.929157 C104.025558,109.718765 104.426407,109.647896 104.818348,109.585886 C107.97169,109.087589 111.178479,108.905988 114.367452,109.045511 C115.28495,109.085375 116.246987,109.167317 117.01528,109.663399 C117.783573,110.161696 118.269045,111.211441 117.839247,112.017575 C117.494071,112.664254 116.71687,112.934442 116.006478,113.120472 C113.859711,113.68078 111.643909,113.977543 109.423653,113.99969 C107.893747,114.015192 103.684837,113.45267 103.074656,111.674304" id="Fill-28" fill="#231916"></path>
                        <path d="M143.419566,201 C142.577303,201 141.810821,200.984885 141.128783,200.97193 C134.646168,200.846695 128.592264,199.948456 122.737559,199.076128 C118.677805,198.473704 114.843233,197.901508 111,197.603535 L112.82743,174.255807 C117.48911,174.618557 121.919113,175.274962 126.201882,175.911934 C131.556426,176.708689 136.612172,177.46226 141.58131,177.557266 C144.956859,177.622043 146.673864,177.432031 147.54211,177.231222 C147.559432,176.326506 147.373224,174.584009 146.559109,171.243684 L141.897429,152.112928 C141.421085,150.158827 140.717394,148.092446 139.972565,145.905148 C138.913781,142.793701 137.712094,139.267683 136.971595,135.400506 L160.03749,131 C160.47486,133.273667 161.319289,135.75246 162.211352,138.378081 C163.088259,140.95188 163.995478,143.614208 164.718656,146.585305 L169.37817,165.709584 C170.633987,170.855023 173.574331,182.903513 165.978803,192.196829 C159.435564,200.209723 149.551417,201 143.419566,201" id="Fill-95" fill="#FEFEFE"></path>
                        <path d="M129.462438,199.256782 C135.512698,200.106782 141.480339,200.130782 147.536955,199.330782 C148.348317,199.224782 148.003011,198.062782 147.198005,198.168782 C141.382891,198.936782 135.608028,198.910782 129.801388,198.094782 C128.9985,197.980782 128.651076,199.142782 129.462438,199.256782" id="Fill-101" fill="#A29892"></path>
                        <path d="M128.62535,177 C132.493485,176.936221 139.767729,176.668744 142.165974,173.028092 C143.251201,171.385023 142.991176,168.977734 142.924558,167.139364 C142.825706,164.356336 142.357231,161.766484 140.981894,159.314617 C140.577889,158.594978 139.460428,159.238195 139.862284,159.959957 C141.454666,162.800302 143.395181,170.756665 140.040648,173.282832 C137.208313,175.414152 131.954095,175.664646 128.62535,175.71984 C127.7937,175.734699 127.789403,177.012642 128.62535,177" id="Fill-103" fill="#A29892"></path>
                        <path d="M104.177055,172.699216 C104.187923,173.395917 103.429381,173.985432 102.586074,174.16979 C100.953797,174.5235 99.3736825,173.668166 97.7522724,174.101192 C89.1670582,176.388513 88.295496,186.371696 92.2946844,191.926008 C94.8463404,195.46739 99.2237129,198.054829 103.974923,199.514684 C111.992861,201.977789 120.823677,200.89308 128.852482,199.718335 C129.23284,199.660456 129.65884,199.583283 129.86532,199.323896 C130.054412,199.090233 130.006596,198.779397 129.947912,198.49643 C128.430829,191.087823 128.659043,183.910736 128.826401,176.461399 C128.828574,176.322059 128.830748,176.178431 128.745982,176.054097 C128.654696,175.914757 128.474298,175.829009 128.304767,175.751836 C122.251648,172.995046 116.972285,170.604827 110.173665,169.322898 C108.784816,169.061367 107.319896,168.834136 105.983211,169.164265 C104.646525,169.49225 103.52284,170.56624 103.846688,171.676674 C103.9358,171.981079 104.124892,172.268334 104.166188,172.579169 C104.172708,172.619899 104.174882,172.658486 104.177055,172.699216" id="Fill-105" fill="#D6002A"></path>
                    </g>
                    <g id="LEFT" transform="translate(42.093259, 72.000000)">
                        <path d="M115.970569,179.071704 C114.140812,167.711497 112.261545,156.359986 110.330614,145.014998 C109.366224,139.344678 108.388919,133.672184 107.398698,128.004038 C106.920809,125.275414 107.314745,117.343923 104.970504,115.678484 C103.452882,114.597906 101.397097,114.513112 99.48554,114.471802 C93.2708263,114.337001 87.0582652,114.202201 80.8457041,114.065226 L80.8457041,114 C80.6390493,114.019568 80.4323944,114.034787 80.2278922,114.052181 C80.0233901,114.047832 79.8167352,114.043484 79.6100804,114.039136 L79.612233,114.104362 C73.4190458,114.621822 67.2258586,115.139282 61.0348241,115.656742 C59.1275721,115.815459 57.0825503,116.028531 55.6338138,117.198252 C53.3929004,119.009362 54.2647255,126.897369 53.9525906,129.654257 C53.3067942,135.370236 52.6739137,141.090562 52.0539492,146.813063 C50.8097149,158.25589 49.6214496,169.700892 48.4805426,181.15459 C47.7314189,188.705595 47.2190871,197.026268 52.0690178,203.087944 C57.4786387,209.845365 67.5595201,211.345565 76.6092799,211.810844 C78.5703482,211.910858 80.5701643,211.971735 82.5721331,211.969561 L82.5721331,212 C82.7787879,211.991303 82.9832901,211.976084 83.1877923,211.965213 C83.3944471,211.963039 83.6011019,211.965213 83.8056041,211.960864 L83.8056041,211.930426 C85.8032676,211.810844 87.794473,211.628211 89.7469307,211.406443 C98.7536375,210.384568 108.724733,208.26472 113.712434,201.187691 C118.189956,194.83902 117.178208,186.564006 115.970569,179.071704" id="Fill-30" fill="#AC0015"></path>
                        <path d="M82.6295475,177.993108 C75.2406603,177.769213 67.4360135,176.701405 63.6467853,175.398938 L63.3947446,175.310672 C59.368555,173.92855 49.9353372,170.688529 51.0986022,161.745639 L57.8153808,110.017246 C58.0652673,107.472591 59.3211627,105.02912 61.3331804,103.278863 C63.1017741,101.746042 65.348599,100.865531 67.6643581,100.794488 C68.0758093,100.781571 68.493723,100.79664 68.9008658,100.833239 C69.0775097,100.828933 69.6763758,100.81171 69.7582352,100.809557 C71.7422484,100.749278 75.2643564,100.587815 79.9411127,100.34885 C80.1048315,100.33378 80.5335162,100.310099 80.5766001,100.310099 C80.608913,100.307946 81.0892984,100.305793 81.250863,100.310099 C85.9383903,100.264889 89.4626525,100.208916 91.4466657,100.146483 C91.5285251,100.144331 92.1273912,100.127108 92.3018809,100.120649 C92.7090237,100.056064 93.122629,100.017313 93.5340802,100.004396 C95.8541477,99.9355052 98.1483649,100.678234 100.000972,102.096955 C102.125008,103.7245 103.525234,106.086164 103.951765,108.747071 C103.951765,108.747071 113.789971,159.827461 113.792126,159.831766 C115.496093,168.688542 106.280449,172.496913 102.342582,174.124458 L102.099158,174.223489 C98.4413353,175.739087 90.8542622,177.261143 83.5730847,177.947899 C83.3964408,177.975885 83.2176426,177.993108 83.0366903,178 C82.9440599,178.00172 82.6661688,177.995261 82.6295475,177.993108" id="Fill-32" fill="#D6002A"></path>
                        <g id="Group-36">
                            <mask id="mask-4" fill="white">
                                <use xlink:href="#path-3"></use>
                            </mask>
                            <g id="Clip-35"></g>
                            <path d="M81.9393943,137.407654 C81.6645521,137.416353 81.3897099,137.40548 81.1126865,137.375035 C81.1105052,137.375035 80.9054642,137.357638 80.805125,137.342415 C73.1553513,136.544321 66.4871567,132.951808 59.7687925,129.024401 C34.6490907,114.332504 17.1922503,97.4681384 7.88469836,78.9010259 C2.80884336,68.7737076 0.156398283,58.0896805 0.00370818801,47.1468707 C-0.282040418,26.466004 15.0000568,3.62789015 38.2067699,2.58406091 L38.7826297,2.56231447 C47.0497076,2.31005574 55.5261892,4.75218122 63.2915711,9.62120967 C66.3737298,11.5544684 69.4820638,13.8965602 73.0702811,16.9932536 L73.465094,17.3346728 C74.9331002,18.6090143 76.9442469,20.3509043 78.0654284,20.31611 C78.1068729,20.31611 78.449335,20.3052368 78.449335,20.3052368 C79.6054171,20.2704425 81.5053181,18.4067724 82.8926167,17.0454451 L83.2612542,16.6844542 C86.6618808,13.3681217 89.619706,10.8433597 92.5731687,8.73178018 C100.028808,3.39737786 108.339512,0.446385625 116.604408,0.194126893 L117.182449,0.178904383 C140.410975,-0.190785137 157.06074,21.6774373 158.040137,42.334383 C158.557102,53.2663196 156.565587,64.0916986 152.120124,74.5104191 C143.964292,93.6103195 127.57192,111.503292 103.398896,127.695693 C97.0426259,131.949297 90.7168934,135.876705 83.3026987,137.209762 C82.8598974,137.327193 82.4018271,137.392432 81.9393943,137.407654" id="Fill-34" fill="#D6002A" mask="url(#mask-4)"></path>
                        </g>
                        <path d="M81.2229764,125.997618 C81.0094838,126.004141 80.7981697,125.997618 80.5846771,125.973701 C80.5824986,125.973701 80.4256469,125.958482 80.3493996,125.947611 C74.4456758,125.330128 69.3000687,122.555802 64.1152486,119.522743 C44.7353496,108.175404 31.2678884,95.1495558 24.0832091,80.8082943 C20.1684521,72.9853927 18.1228445,64.7341666 18.0030272,56.2807365 C17.7829992,40.3066237 29.5751971,22.667046 47.4802544,21.8604044 L47.9246675,21.8430105 C54.3033033,21.6495035 60.8431478,23.5345662 66.8361899,27.2959947 C69.2129288,28.7896949 71.6114528,30.5986594 74.3781425,32.9903191 L74.6853104,33.2534017 C75.8181282,34.2361564 77.3670388,35.5841828 78.2340801,35.558092 C78.2667575,35.5559178 78.532534,35.5472208 78.532534,35.5472208 C79.4213603,35.52113 80.887488,34.0817857 81.959308,33.0294554 L82.2425124,32.7511532 C84.8654214,30.1920772 87.1484851,28.2396132 89.4271917,26.6089361 C95.1784207,22.4887586 101.591912,20.2079849 107.96837,20.0144779 L108.412783,20.0036067 C126.335268,19.7166076 139.181858,36.6082481 139.937796,52.564967 C140.338639,61.0075259 138.800621,69.369638 135.36949,77.416486 C129.077994,92.1686781 116.429648,105.988123 97.7817232,118.496503 C92.8757506,121.783948 87.9959199,124.817008 82.2730114,125.845421 C81.9309875,125.936739 81.5780712,125.986747 81.2229764,125.997618" id="Fill-37" fill="#AC0015"></path>
                        <path d="M119.439056,65.5429498 C117.739558,57.468676 112.336808,51.2305536 106.116907,47.8022 C98.2105487,43.4481473 91.3451869,44.7920445 83.3518976,47.6148821 C81.9566578,48.104958 80.6200964,48.3641537 79.3009212,48.4904844 C77.9773994,48.444744 76.6277983,48.2683167 75.2043061,47.8631872 C67.0545413,45.5347819 60.1196348,44.6134391 52.4914549,49.444499 C46.493228,53.2453103 41.481666,59.8036157 40.2776741,67.9650141 C39.2323309,75.0504234 41.2252201,82.2512729 44.798077,87.9840726 C46.7692334,91.1401617 49.6031783,93.8649841 52.9717477,96.0692369 C60.1870062,100.791391 70.4557098,103.047919 80.8156908,102.986931 L80.8156908,103 C80.8635027,102.997822 80.9113147,102.991288 80.9612999,102.989109 C81.0112851,102.989109 81.0590971,102.991288 81.1090823,102.991288 L81.1090823,102.978219 C91.4516771,102.405375 101.561732,99.5237278 108.479252,94.3703069 C111.704386,91.9634894 114.370989,89.0709521 116.142205,85.8016009 C119.362992,79.8597022 120.914707,72.5521251 119.439056,65.5429498" id="Fill-39" fill="#F09488"></path>
                        <path d="M89.9984303,76.3158051 C89.9234086,73.8325025 87.1762883,71.9017847 83.8642982,72.0038686 C80.5523082,72.1059526 77.9265466,74.2008923 78.0015684,76.6841949 C78.0787967,79.1674975 80.825917,81.0982153 84.137907,80.9961314 C87.449897,80.8940474 90.0734521,78.7991077 89.9984303,76.3158051" id="Fill-41" fill="#D6002A"></path>
                        <path d="M73.9964341,73.8410101 C73.8903196,70.528899 71.3413142,67.914636 68.3046336,68.0021338 C65.2702108,68.0896316 62.8973102,70.8468788 63.0034247,74.1589899 C63.111797,77.471101 65.6585447,80.085364 68.6929675,79.9978662 C71.729648,79.9103684 74.1048064,77.1531212 73.9964341,73.8410101" id="Fill-43" fill="#231916"></path>
                        <path d="M104.996434,72.8410101 C104.888063,69.528899 102.341348,66.914636 99.3047067,67.0021338 C96.2703228,67.0896316 93.895195,69.8468788 94.0035659,73.1589899 C94.109679,76.471101 96.6586517,79.085364 99.6930356,78.9978662 C102.729677,78.9103684 105.104805,76.1531212 104.996434,72.8410101" id="Fill-45" fill="#231916"></path>
                        <path d="M113.146917,221.983619 C114.794647,222.48767 116.366694,223.150896 117.754939,223.904761 C121.158517,225.750738 123.593351,229.721246 122.87328,233.716072 C122.384584,236.422031 120.531428,238.774269 117.897655,239.523714 C114.148097,240.591506 109.481691,239.674045 105.807816,238.632781 C102.951319,237.823646 100.060223,236.530357 98.2914003,234.098532 C97.0934444,232.455944 96.7388149,230.260669 97.1864266,228.282047 C98.9336257,220.539999 106.61222,219.987312 113.146917,221.983619" id="Fill-47" fill="#AC0015"></path>
                        <path d="M110.004647,232 L99.5977198,225.894181 L103.259456,219.371858 C104.377609,217.376564 106.466676,213.654195 105.888395,211.610926 C105.487226,210.18042 103.596609,208.647423 101.59503,207.022839 C99.7790995,205.550901 97.7199064,203.880523 96,201.699874 L105.337854,194 C106.225548,195.120854 107.599766,196.237346 109.057205,197.419259 C112.129991,199.911741 115.953902,203.014805 117.42201,208.213474 C119.406518,215.243888 115.815199,221.648456 113.668517,225.475496 L110.004647,232 Z" id="Fill-49" fill="#AC0015"></path>
                        <path d="M59.5582983,227.616785 C60.8424211,228.739196 61.9948944,229.972357 62.9401814,231.205518 C65.2645516,234.229851 65.8343136,238.710975 63.5423163,241.903563 C61.990578,244.067452 59.3446375,245.351728 56.651217,244.915117 C52.8182723,244.293212 48.9702202,241.556404 46.0739298,239.124159 C43.8207799,237.232886 41.7316524,234.902872 41.1295175,232.044664 C40.7216197,230.112925 41.3021726,228.049137 42.5193916,226.505023 C47.2846742,220.462747 54.4628127,223.163349 59.5582983,227.616785" id="Fill-51" fill="#AC0015"></path>
                        <path d="M53.0440604,234 L46,224.119208 L52.1034074,219.83416 C53.9738764,218.521313 57.4525586,216.078556 57.7776691,214.001674 C58.003079,212.551085 56.9020382,210.375202 55.7381426,208.072338 C54.6826173,205.980391 53.4818759,203.610809 52.8099809,200.929156 L64.6375002,198 C64.9842847,199.379566 65.7840565,200.963592 66.6336786,202.640163 C68.4217862,206.176242 70.6455419,210.577509 69.8240961,215.852574 C68.7100509,223.00006 62.7193484,227.205476 59.1409657,229.717104 L53.0440604,234 Z" id="Fill-53" fill="#AC0015"></path>
                        <path d="M101.489294,125.662838 C117.477826,146.232437 144.413402,143.76528 160.248177,124.032296 C166.184052,116.635094 155.618151,106.085652 149.621639,113.559685 C140.786043,124.572253 124.894962,131.604503 114.465493,118.188805 C108.663885,110.723309 95.6053929,118.092765 101.489294,125.662838" id="Fill-55" fill="#D6002A"></path>
                        <path d="M158.342783,102.88833 C158.640233,103.241124 159.228522,103.276184 159.678001,103.07897 C160.548316,102.699881 160.872206,101.73134 161.773367,101.391694 C166.534762,99.6014271 171.241074,104.295124 171.891056,108.438813 C172.305282,111.081483 171.505473,113.870968 170.049072,116.22439 C167.594564,120.19716 163.247395,122.675485 159.210895,124.833884 C159.019206,124.936874 158.798873,125.042055 158.593963,124.982891 C158.408883,124.9303 158.296514,124.75719 158.20177,124.597227 C155.656925,120.374653 152.446674,116.864241 149.146087,113.198248 C149.084393,113.130319 149.0227,113.058007 149.005074,112.968165 C148.985244,112.865176 149.027107,112.762186 149.06897,112.66577 C150.531981,109.216713 151.814319,106.216867 154.246794,103.252081 C154.742543,102.64729 155.286766,102.031544 156.016068,101.737914 C156.74537,101.446475 157.706021,101.599864 158.045334,102.263818 C158.137874,102.447885 158.18194,102.656055 158.296514,102.824783 C158.309734,102.846696 158.325157,102.868609 158.342783,102.88833" id="Fill-57" fill="#EE847D"></path>
                        <path d="M77.0035327,86.9947162 C77.0035327,87.0028653 77.00129,87.0110144 77.00129,87.0191635 C76.8913945,89.891719 83.8349942,88.915865 85.6538764,88.498224 C86.5958376,88.2802357 87.5445271,87.9705702 88.2240848,87.3756863 C88.9013997,86.7828398 89.2378144,85.8497685 88.8094464,85.108201 C88.1433452,83.9591788 86.2526946,83.9225079 84.7477994,84.0508561 L82.0205975,84.2871798 C80.9350993,84.3808944 79.822688,84.4807208 78.8425998,84.8902128 C77.8759682,85.2976674 77.0506308,86.0820177 77.0035327,86.9947162" id="Fill-59" fill="#231916"></path>
                        <path d="M47.0364057,130.135043 C49.404857,156.151326 74.3037949,167.812836 97.9128112,159.192246 C106.881865,155.917409 103.005629,141.517569 93.9330364,144.831035 C80.5290687,149.723976 63.5292827,146.893367 62.0063987,130.135043 C61.1457319,120.666772 46.1671107,120.576639 47.0364057,130.135043" id="Fill-97" fill="#D6002A"></path>
                        <path d="M107.000568,142.1841 C107.065187,142.62708 107.534752,142.95878 108.012933,143.02726 C108.930524,143.15566 109.701644,142.52008 110.625697,142.69984 C115.508743,143.65428 116.986365,149.960856 115.375197,153.731534 C114.347754,156.136893 112.236865,158.039352 109.807189,159.246312 C105.708187,161.285731 100.810063,161.112391 96.3405788,160.834191 C96.1273359,160.819211 95.8903994,160.795671 95.7503915,160.641591 C95.6254613,160.504631 95.6211534,160.303471 95.6233074,160.119431 C95.7030042,155.315134 94.8564946,150.756936 94.018601,146.023258 C94.0013692,145.935518 93.9862914,145.843498 94.0207549,145.760039 C94.0552184,145.665879 94.1435311,145.601679 94.2275359,145.541759 C97.2323217,143.43172 99.8558551,141.599881 103.412057,140.386501 C104.137944,140.138261 104.909065,139.907141 105.667262,140.037681 C106.423305,140.168221 107.140576,140.786681 107.075957,141.514281 C107.058725,141.713301 106.987644,141.90804 106.994106,142.10706 C106.994106,142.13274 106.998414,142.15842 107.000568,142.1841" id="Fill-99" fill="#EE847D"></path>
                    </g>
                    <g id="Bulbs-Right" transform="translate(0.000000, 148.697818)">
                        <path d="M522.784474,167.935646 C514.534631,165.676467 500.117706,157.706993 494.275092,151.320941 C473.410799,128.515999 467.461012,115.519722 451.837527,88.5326637 C441.046207,69.892394 418.415655,47.4947621 408.414566,38.988789 C398.609719,30.649721 385.450488,24.7889336 375.034915,19.8579859 C369.463345,17.2202895 345.064884,6.23990442 337.057122,4.83287429 C327.246832,3.10912488 310.222667,-2.43149824 278.022042,1.22120885 C245.821417,4.87391594 219.797238,18.3699474 194.496768,35.0480834 C174.66238,48.1229635 165.202654,59.2185707 150.286242,73.7386572 C140.46168,83.3021817 125.724838,96.1097502 111.420431,108.644534 C97.1160231,121.179317 76.8287768,134.775226 65.0932592,143.302182 C57.4940354,148.823731 35.2598772,162.607224 0.355312786,176.079558" id="Path" stroke="#000000" stroke-width="2.5"></path>
                        <path d="M306.162076,1.33515431 C306.765705,12.9850848 306.740864,24.6200796 306.095006,36.2700101 C306.018,37.6483718 308.512007,37.6441045 308.591497,36.2700101 C309.237355,24.6200796 309.259712,12.9850848 308.658567,1.33515431 C308.586529,-0.0389400556 306.092522,-0.0453411163 306.162076,1.33515431" id="Fill-63" fill="#160403"></path>
                        <path d="M327.091875,40.0738183 C327.217215,50.5668625 318.815166,59.1754502 308.320571,59.3007974 C297.830225,59.4261445 289.222108,51.023636 289.094643,40.5305918 C288.969303,30.0375477 297.373476,21.4289599 307.863823,21.3036128 C318.358417,21.1761411 326.96441,29.5807742 327.091875,40.0738183" id="Fill-65" fill="#ED7D77"></path>
                        <path d="M112.162105,107.335154 C112.763499,118.985085 112.741133,130.62008 112.095007,142.27001 C112.017969,143.648372 114.513008,143.644104 114.592532,142.27001 C115.236172,130.62008 115.261023,118.985085 114.657144,107.335154 C114.587561,105.96106 112.092522,105.954659 112.162105,107.335154" id="Fill-67" fill="#160403"></path>
                        <path d="M134.091828,146.073818 C134.219293,156.566862 125.81512,165.17545 115.322649,165.300797 C104.830179,165.426145 96.222062,157.023636 96.0945972,146.530592 C95.9713814,136.037548 104.37343,127.42896 114.865901,127.303613 C125.358371,127.176141 133.966488,135.580774 134.091828,146.073818" id="Fill-69" fill="#ED7D77"></path>
                        <path d="M243.162076,10.3351543 C243.763221,21.9850848 243.740864,33.6222132 243.095006,45.2700101 C243.018,46.6483718 245.512007,46.6441045 245.591497,45.2700101 C246.237355,33.6222132 246.259712,21.9850848 245.658567,10.3351543 C245.586529,8.96105994 243.092522,8.95465888 243.162076,10.3351543" id="Fill-71" fill="#160403"></path>
                        <path d="M244.320571,63.3007974 C233.830225,63.4261445 225.219984,55.023636 225.094643,44.5305918 C224.969303,34.0375477 233.371352,25.4289599 243.863823,25.3036128 C254.358418,25.1761411 262.96441,33.5807742 263.091875,44.0738183 C263.217215,54.5668625 254.815166,63.1754502 244.320571,63.3007974 Z" id="Fill-73" fill="#F4A867"></path>
                        <path d="M181.159758,44.3351543 C181.763864,55.9850848 181.739004,67.6222132 181.095121,79.2700101 C181.015568,80.6483718 183.511547,80.6441045 183.5911,79.2700101 C184.237469,67.6222132 184.259843,55.9850848 183.658223,44.3351543 C183.588614,42.9610599 181.090149,42.9546589 181.159758,44.3351543" id="Fill-75" fill="#160403"></path>
                        <path d="M202.091875,78.0738183 C202.217215,88.5668625 193.815166,97.1754502 183.320571,97.3007974 C172.830225,97.4261445 164.222108,89.023636 164.094643,78.5305918 C163.969303,68.0375477 172.373476,59.4289599 182.863823,59.3036128 C193.358417,59.1761411 201.96441,67.5807742 202.091875,78.0738183" id="Fill-77" fill="#57BEC2"></path>
                        <path d="M365.162242,17.3351543 C365.763863,28.9850848 365.741489,40.6200796 365.095119,52.2700101 C365.015566,53.6483718 367.514033,53.6441045 367.5911,52.2700101 C368.237469,40.6200796 368.259843,28.9850848 367.658223,17.3351543 C367.588614,15.9610599 365.090147,15.9546589 365.162242,17.3351543" id="Fill-79" fill="#160403"></path>
                        <path d="M387.091828,51.0737953 C387.219293,61.5668265 378.81513,70.1754037 368.322672,70.3007507 C357.830214,70.4282222 349.222108,62.0235995 349.094643,51.5305682 C348.969303,41.037537 357.373466,32.4289598 367.863799,32.3036128 C378.358382,32.1761413 386.964364,40.580764 387.091828,51.0737953" id="Fill-81" fill="#57BEC2"></path>
                        <path d="M420.162242,53.3351543 C420.763863,64.9850848 420.741489,76.6222132 420.095119,88.2700101 C420.015566,89.6483718 422.514033,89.6441045 422.5911,88.2700101 C423.237469,76.6200796 423.259843,64.9850848 422.658223,53.3351543 C422.588614,51.9610599 420.090147,51.9546589 420.162242,53.3351543" id="Fill-83" fill="#160403"></path>
                        <path d="M441.091828,87.0738183 C441.219293,97.5668625 432.81513,106.17545 422.322672,106.300797 C411.830214,106.426145 403.222108,98.023636 403.094643,87.5305918 C402.969303,77.0375477 411.373466,68.4289599 421.865924,68.3036128 C432.358382,68.1761411 440.964364,76.5807742 441.091828,87.0738183" id="Fill-85" fill="#F4A867"></path>
                        <path d="M55.162076,149.335169 C55.7632211,160.985268 55.7408644,172.62043 55.0950061,184.268395 C55.018,185.64891 57.5120065,185.644643 57.5914968,184.268395 C58.237355,172.62043 58.2597117,160.985268 57.6585667,149.335169 C57.5865286,147.961055 55.0925221,147.954654 55.162076,149.335169" id="Fill-87" fill="#160403"></path>
                        <path d="M76.0918749,184.073795 C76.2172152,194.566827 67.8151661,203.175404 57.3205713,203.300751 C46.8302253,203.428222 38.2199838,195.023599 38.0946435,184.530568 C37.9693032,174.037537 46.3713523,165.42896 56.8638227,165.303613 C67.3584175,165.176141 75.9644102,173.580764 76.0918749,184.073795" id="Fill-89" fill="#F4A867"></path>
                        <path d="M456.095839,97.3329333 C456.852363,108.974209 457.052032,120.609083 456.692628,132.267431 C456.648257,133.648165 458.877895,133.646031 458.917829,132.267431 C459.279452,120.609083 459.082001,108.974209 458.325477,97.3329333 C458.236735,95.9628693 456.007097,95.9543331 456.095839,97.3329333" id="Fill-91" fill="#160403"></path>
                        <path d="M477.084557,130.730738 C477.398972,141.21958 469.154079,149.979048 458.663667,150.29348 C448.175381,150.607911 439.4185,142.362581 439.101961,131.873739 C438.787546,121.384898 447.03244,112.625429 457.522851,112.310998 C468.011138,111.994442 476.770143,120.241896 477.084557,130.730738" id="Fill-93" fill="#ED7D77"></path>
                    </g>
                </g>
            </g>
        </g>
    </g>
</svg>