<?xml version="1.0" encoding="UTF-8"?>
<svg width="1440px" height="375px" viewBox="0 0 1440 375" version="1.1" xmlns="http://www.w3.org/2000/svg" xmlns:xlink="http://www.w3.org/1999/xlink">
    <title>character-bg</title>
    <defs>
        <rect id="path-1" x="0" y="0" width="1440" height="375"></rect>
        <polygon id="path-3" points="0.26270667 0.573984436 215.620398 0.573984436 215.620398 191 0.26270667 191"></polygon>
    </defs>
    <g id="R4" stroke="none" stroke-width="1" fill="none" fill-rule="evenodd">
        <g id="D---Homepage---1440" transform="translate(0.000000, -6249.000000)">
            <g id="Characters" transform="translate(-593.000000, 5044.000000)">
                <g id="character-bg" transform="translate(593.000000, 1205.000000)">
                    <mask id="mask-2" fill="white">
                        <use xlink:href="#path-1"></use>
                    </mask>
                    <g id="Rectangle"></g>
                    <g id="Pattern-BG" mask="url(#mask-2)">
                        <g transform="translate(-61.000000, 0.000000)">
                            <path d="M287.802051,209.952217 C283.596759,206.425952 279.128253,203.232006 274.408776,200.444225 C267.559108,196.413329 260.225861,193.243999 252.62328,191.016236 C237.760907,186.671484 224.006479,182.259037 210.83969,173.440297 C208.691134,172.000252 206.414033,170.76329 204.210386,169.427863 C202.496439,168.393985 200.819219,167.243179 199.044059,166.338535 C197.507627,165.563126 196.03853,164.516939 194.367431,164 C194.9061,166.080066 195.077495,168.141669 195.365193,170.240197 C195.707983,172.677197 196.332349,175.077272 196.607805,177.52658 C198.431935,193.785554 191.208871,207.816765 180.827246,219.669447 C171.706597,230.082082 160.927092,238.968516 152.345113,249.873475 C134.501696,272.520343 129.365974,310.416922 141.932882,336.879294 C152.161475,358.418435 171.639264,375.600514 194.746948,380.972991 C213.722794,385.385438 233.249553,382.339188 250.297208,374.308166 C256.644935,371.311149 262.668236,367.661803 268.287535,363.489364 C272.902951,360.067717 277.481639,356.338369 281.901175,352.442862 C281.919539,352.424399 281.937902,352.405937 281.956266,352.393629 L282.011357,352.350551 C286.485984,348.522738 290.819823,344.50415 294.859842,340.411713 C299.781319,335.420787 304.249825,329.962153 308.112328,324.085045 C318.500074,308.293778 324.327495,289.314718 322.742094,269.794103 C321.64027,256.267523 316.253578,243.393271 308.400026,232.402156 C302.529757,224.186512 295.631118,216.50627 287.802051,209.952217" id="Fill-1" stroke="none" fill="#F7C8C8" fill-rule="evenodd"></path>
                            <path d="M820.80255,99.9522174 C816.597294,96.4321064 812.122705,93.2320056 807.40327,90.4503795 C800.55366,86.4133292 793.226598,83.2439985 785.624083,81.02239 C770.755717,76.6714837 757.001408,72.2590369 743.834732,63.4402975 C741.692317,62.0064062 739.409113,60.7632901 737.211607,59.4278634 C735.497674,58.3939846 733.820469,57.2431791 732.045324,56.3446893 C730.508906,55.5631262 729.039821,54.5169394 727.368737,54 C727.907401,56.0862196 728.072673,58.147823 728.360369,60.2401967 C728.703156,62.6833506 729.327517,65.0772722 729.60297,67.5265801 C731.433206,83.7917081 724.204083,97.8167654 713.822548,109.669447 C704.701978,120.082082 693.928687,128.968516 685.34066,139.873475 C667.503518,162.520343 662.367842,200.416922 674.928519,226.879294 C685.163146,248.418435 704.634645,265.600514 727.74825,270.972991 C746.723933,275.385438 766.250523,272.339188 783.298031,264.308166 C789.645703,261.317303 795.662831,257.661803 801.288203,253.489364 C805.903579,250.067717 810.482227,246.338369 814.901725,242.442862 L814.956816,242.393629 C814.975179,242.381321 814.993543,242.369013 815.011906,242.350551 C819.486495,238.522738 823.814175,234.510304 827.854159,230.411713 C832.781715,225.420787 837.250182,219.968307 841.112652,214.085045 C851.494187,198.293778 857.327679,179.314718 855.742291,159.794103 C854.640477,146.267523 849.247711,133.393271 841.400348,122.402156 C835.530128,114.186512 828.625428,106.50627 820.80255,99.9522174" id="Fill-3" stroke="none" fill="#F7C8C8" fill-rule="evenodd"></path>
                            <path d="M187.802051,70.9522174 C183.596759,67.4321064 179.128253,64.2320056 174.408776,61.4503795 C167.559108,57.4133292 160.231982,54.2439985 152.62328,52.02239 C137.760907,47.6714837 124.006479,43.2590369 110.83969,34.4402975 C108.697256,33.0064062 106.414033,31.7632901 104.216507,30.4340174 C102.496439,29.3939846 100.819219,28.2431791 99.0440589,27.3446893 C97.5076275,26.5631262 96.0385297,25.5169394 94.3674309,25 C94.9061001,27.0800656 95.0774948,29.147823 95.3651932,31.2401967 C95.7079827,33.6833506 96.3323492,36.0772722 96.6078051,38.5265801 C98.4380561,54.7917081 91.2088706,68.8167654 80.8272462,80.6694467 C71.7065973,91.0820825 60.9332135,99.9685164 52.3451126,110.873475 C34.5016955,133.520343 29.3659744,171.416922 41.9328819,197.879294 C52.1614753,219.418435 71.6392637,236.600514 94.7469478,241.972991 C113.722794,246.385438 133.249553,243.339188 150.297208,235.308166 C156.644935,232.317303 162.668236,228.661803 168.287535,224.489364 C172.902951,221.067717 177.481639,217.338369 181.901175,213.442862 L181.956266,213.393629 C181.97463,213.381321 181.992994,213.369013 182.011357,213.350551 C186.485984,209.522738 190.819823,205.510304 194.859842,201.411713 C199.781319,196.420787 204.255946,190.968307 208.112328,185.085045 C218.500074,169.293778 224.327495,150.314718 222.742094,130.794103 C221.64027,117.267523 216.253578,104.393271 208.406148,93.4021556 C202.529757,85.1865121 195.631118,77.5062701 187.802051,70.9522174" id="Fill-5" stroke="none" fill="#F7C8C8" fill-rule="evenodd"></path>
                            <path d="M910.530934,232.968878 C910.154619,232.938141 909.784473,232.876666 909.414327,232.796749 C909.408158,232.796749 909.136717,232.735274 909.000997,232.704536 C898.741787,230.417669 890.253107,224.50378 881.74592,218.110387 C849.956556,194.239671 828.913762,168.610772 819.197432,141.949093 C813.904345,127.410272 811.985755,112.496453 813.503354,97.6133721 C816.378154,69.5008855 840.739923,40.8965994 872.412075,43.121992 L873.19555,43.1773194 C884.460324,44.1363283 895.589377,48.7776857 905.367398,56.6034446 C909.247761,59.7079287 913.097279,63.3779822 917.483508,68.136142 L917.964697,68.6648264 C919.759905,70.6258767 922.215206,73.3061838 923.745143,73.4352811 C923.794495,73.4414286 924.269516,73.4783136 924.269516,73.4783136 C925.836467,73.6135585 928.711267,71.3758709 930.814929,69.7467852 L931.370148,69.3164607 C936.509007,65.3513275 940.926082,62.3882358 945.269127,59.9784184 C956.237784,53.9108426 967.983747,51.2059456 979.25469,52.158807 L980.038166,52.232577 C1011.63629,55.3677985 1030.79751,87.6605805 1028.86658,115.852985 C1027.84868,130.766803 1023.43777,145.151937 1015.75725,158.596505 C1001.66086,183.241805 976.583471,204.960899 941.20986,223.151332 C931.900691,227.927934 922.696396,232.268064 912.418678,232.913551 C911.795599,233.005763 911.166351,233.024206 910.530934,232.968878" id="Fill-7" stroke="none" fill="#F8E4DE" fill-rule="evenodd"></path>
                            <g id="Group-11" stroke="none" stroke-width="1" fill="none" fill-rule="evenodd" transform="translate(536.000000, 274.000000)">
                                <mask id="mask-4" fill="white">
                                    <use xlink:href="#path-3"></use>
                                </mask>
                                <g id="Clip-10"></g>
                                <path d="M97.4982392,190.969194 C97.1230432,190.938387 96.7601487,190.882935 96.3849528,190.796677 C96.3849528,190.796677 96.1081688,190.741226 95.979003,190.704258 C85.7441487,188.412258 77.2868623,182.485097 68.8049729,176.083516 C37.1101387,152.153065 16.1299176,126.472806 6.43632965,99.7512903 C1.15898291,85.1798387 -0.747750754,70.2263871 0.765334673,55.3160645 C3.62543518,27.1404839 27.9147618,-1.53416129 59.4988824,0.696225806 L60.2800281,0.75783871 C71.5113045,1.71283871 82.6011136,6.3646129 92.356209,14.2079355 C96.2250332,17.3193871 100.063104,20.9976774 104.430139,25.7726774 L104.916048,26.2963871 C106.699767,28.2618387 109.153918,30.9481613 110.673154,31.0775484 C110.728511,31.0837097 111.202119,31.1268387 111.202119,31.1268387 C112.758259,31.2562258 115.630661,29.0196774 117.721918,27.3869355 L118.281636,26.9494839 C123.405214,22.9754516 127.809154,20.0057097 132.139284,17.5966452 C143.069174,11.5092903 154.780209,8.80448387 166.017636,9.75332258 L166.804933,9.82725806 C198.309093,12.9756774 217.407184,45.3347742 215.488149,73.5904516 C214.473274,88.5439032 210.069335,102.955161 202.411646,116.429903 C188.363325,141.130516 163.35436,162.898355 128.085938,181.129613 C118.810601,185.916935 109.633676,190.266806 99.3803698,190.913742 C98.7591437,191.006161 98.1317668,191.024645 97.4982392,190.969194" id="Fill-9" fill="#F8E4DE" mask="url(#mask-4)"></path>
                            </g>
                            <path d="M924.53097,415.973175 C924.154655,415.942437 923.78451,415.880963 923.408195,415.801046 C923.408195,415.801046 923.130585,415.739571 923.001034,415.708834 C912.735658,413.421981 904.25315,407.501982 895.745966,401.114777 C863.956612,377.244212 842.913823,351.615474 833.191327,324.953964 C827.904412,310.415234 825.985823,295.50151 827.50342,280.618522 C830.378219,252.506213 854.733812,223.902107 886.412123,226.121338 L887.195598,226.182813 C898.460368,227.141816 909.583249,231.783144 919.367437,239.608853 C923.247798,242.713318 927.097315,246.377201 931.483542,251.147626 L931.964732,251.670159 C933.75377,253.62505 936.215239,256.311487 937.739006,256.440584 C937.794528,256.440584 938.269548,256.483616 938.269548,256.483616 C939.83033,256.61886 942.711298,254.381187 944.808791,252.752111 L945.370178,252.321789 C950.509036,248.356681 954.926109,245.387461 959.269153,242.983806 C970.231637,236.916268 981.983766,234.211388 993.248536,235.164244 L994.038181,235.238013 C1025.63629,238.373215 1044.79751,270.665793 1042.86658,298.85802 C1041.84868,313.771744 1037.43161,328.156788 1029.75108,341.601271 C1015.66086,366.246416 990.583487,387.959225 955.203718,406.149543 C945.900721,410.932262 936.696429,415.272365 926.412545,415.917848 C925.789466,416.003912 925.160218,416.022354 924.53097,415.973175" id="Fill-12" stroke="none" fill="#F8E4DE" fill-rule="evenodd"></path>
                            <path d="M271.845727,88.4191227 C272.12837,88.1784522 272.435591,87.9562949 272.748956,87.7526507 C272.748956,87.7526507 272.988588,87.5983747 273.105332,87.5243223 C281.95329,81.890165 292.110009,80.0882221 302.616959,78.6071731 C341.873629,73.0655815 374.807695,76.3670865 400.491351,88.4252937 C414.500619,94.9974487 426.390062,104.235492 435.834029,115.867897 C453.683555,137.855304 456.749619,175.387554 432.866276,196.214805 L432.264123,196.727002 C423.661942,204.021168 412.546694,208.593907 400.128831,209.957706 C395.194865,210.494586 389.898379,210.618007 383.440599,210.334139 L382.727847,210.303284 C380.079604,210.179863 376.454399,210.019416 375.293104,211.006782 C375.243949,211.043808 374.893717,211.346189 374.893717,211.346189 C373.689412,212.358239 373.240869,215.980638 372.915215,218.621842 L372.829194,219.31917 C372.011986,225.774075 370.998158,231.000944 369.640242,235.783498 C366.205514,247.847876 359.839899,258.079456 351.231574,265.367451 L350.629421,265.873476 C326.156214,285.99723 289.84272,276.629595 271.274296,255.253121 C261.449376,243.941609 254.395587,230.612168 250.303407,215.63506 C242.801076,188.180115 245.11752,155.02313 257.179008,117.089763 C260.35567,107.111195 263.771965,97.521403 270.5554,89.789093 C270.930209,89.289239 271.360318,88.8264112 271.845727,88.4191227" id="Fill-14" stroke="none" fill="#F8E4DE" fill-rule="evenodd"></path>
                            <path d="M622.293157,313.049706 C622.213329,312.685779 622.164203,312.309516 622.139641,311.933253 C622.139641,311.927084 622.115078,311.649513 622.108937,311.507643 C621.359776,301.021621 624.589768,291.189433 628.261889,281.196871 C641.992428,243.866631 660.481986,216.313065 683.208607,199.319541 C695.60048,190.048663 709.324879,183.905088 723.99494,181.067694 C751.707785,175.701318 786.046414,190.76418 792.997653,221.741124 L793.163451,222.512155 C795.472343,233.571824 794.219646,245.569068 789.534315,257.190048 C787.673692,261.803898 785.27269,266.547281 781.969009,272.123377 L781.600569,272.734034 C780.243481,275.016286 778.382858,278.143588 778.696032,279.642472 C778.708313,279.697986 778.800423,280.160605 778.800423,280.160605 C779.125879,281.702667 782.079541,283.812208 784.247198,285.35427 L784.81828,285.761374 C790.080835,289.536343 794.182802,292.910374 797.73211,296.37693 C806.679067,305.123506 812.629376,315.597192 814.944409,326.656862 L815.097926,327.427893 C821.152627,358.596052 795.748673,386.266815 768.226189,392.558428 C753.660519,395.889282 738.634298,395.809095 723.577374,392.336371 C695.96278,385.96457 668.004308,368.212351 640.469542,339.591679 C633.235832,332.060247 626.450391,324.497975 622.888802,314.838498 C622.624754,314.271019 622.422112,313.672699 622.293157,313.049706" id="Fill-16" stroke="none" fill="#F1AFAD" fill-rule="evenodd"></path>
                            <path d="M579.519727,246.223644 C579.157302,246.113112 578.807161,245.984159 578.463164,245.830644 C578.463164,245.830644 578.205166,245.713972 578.08231,245.652565 C568.542529,241.335703 561.478299,233.819573 554.493926,225.849037 C528.380847,196.036283 513.09754,166.702499 509.067857,138.652105 C506.881018,123.361939 508.054294,108.384945 512.575401,94.1448267 C521.107762,67.2427312 550.691527,44.2215131 581.116857,52.8368156 L581.86628,53.0517376 C592.653052,56.2755678 602.549116,63.0732441 610.485624,72.7201722 C613.636885,76.545784 616.640719,80.9117712 619.939407,86.4628998 L620.301832,87.0769627 C621.647107,89.3551361 623.496093,92.4745756 624.958081,92.9167009 C625.013366,92.9289821 625.461791,93.064076 625.461791,93.064076 C626.966779,93.5123419 630.222468,91.9157784 632.605878,90.7490589 L633.232444,90.4420274 C639.049684,87.6050568 643.96393,85.6032118 648.68775,84.1356015 C660.617084,80.4266616 672.620132,80.1748958 683.406903,83.398726 L684.156326,83.6259292 C714.317515,93.1193416 726.406562,128.593755 718.771051,155.766038 C714.729083,170.147391 707.492855,183.3129 697.258936,194.894126 C678.498799,216.128421 649.621457,232.265994 611.419331,242.858579 C601.381982,245.640284 591.516632,248.016707 581.368713,246.555238 C580.742146,246.512253 580.121722,246.401722 579.519727,246.223644" id="Fill-18" stroke="none" fill="#F2B9B2" fill-rule="evenodd"></path>
                            <path d="M327.516472,464.223644 C327.160189,464.113112 326.810048,463.984159 326.46605,463.830644 C326.459907,463.830644 326.208051,463.713972 326.085195,463.652565 C316.545392,459.335703 309.475004,451.819573 302.496758,443.849037 C276.377479,414.036283 261.094137,384.702499 257.070589,356.652105 C254.877601,341.361939 256.057023,326.384945 260.57814,312.144827 C269.11052,285.242731 298.694351,262.221513 329.119749,270.836816 L329.869173,271.051738 C340.655969,274.275568 350.552055,281.073244 358.488581,290.720172 C361.633706,294.545784 364.637546,298.911771 367.936241,304.4629 L368.304811,305.076963 C369.650089,307.355136 371.492935,310.474576 372.954927,310.916701 C373.010212,310.928982 373.458638,311.064076 373.458638,311.064076 C374.969773,311.512342 378.225468,309.915778 380.608883,308.749059 L381.235451,308.442027 C387.052704,305.605057 391.960819,303.603212 396.690792,302.135601 C408.614009,298.426662 420.623226,298.174896 431.403879,301.398726 L432.159446,301.625929 C462.320702,311.119342 474.409776,346.593755 466.768106,373.766038 C462.732272,388.147391 455.496027,401.3129 445.262086,412.894126 C426.495764,434.128421 397.618358,450.265994 359.416147,460.858579 C349.378776,463.640284 339.519547,466.016707 329.365462,464.555238 C328.738894,464.512253 328.124612,464.401722 327.516472,464.223644" id="Fill-20" stroke="none" fill="#F2B9B2" fill-rule="evenodd"></path>
                            <path d="M244.922907,266.345949 C244.561078,266.444446 244.19925,266.518319 243.819024,266.567568 C243.819024,266.567568 243.543053,266.610661 243.408134,266.622973 C233.0439,268.008093 223.084422,265.354818 212.959362,262.276772 C175.077779,250.76488 146.640527,233.909501 128.40806,212.184653 C118.466981,200.340332 111.555447,186.975457 107.851307,172.465549 C100.872313,145.046316 113.769346,109.784222 144.101597,100.98101 L144.849784,100.765547 C155.686235,97.7921549 167.663365,98.3277349 179.487178,102.323038 C184.178681,103.91131 189.029633,106.029006 194.751426,109.002398 L195.389225,109.334827 C197.738043,110.553733 200.945436,112.234346 202.41728,111.828044 C202.472474,111.815732 202.92016,111.69261 202.92016,111.69261 C204.4288,111.273996 206.34833,108.189794 207.746582,105.930508 L208.120675,105.339523 C211.554978,99.8421335 214.651983,95.5328692 217.883907,91.7838093 C226.02811,82.3034279 236.067312,75.7225658 246.903763,72.7430173 L247.664216,72.5460224 C278.235641,64.6231322 307.212569,88.3918027 315.0992,115.558636 C319.275557,129.939266 320.103469,144.972443 317.558405,160.251862 C312.879168,188.26208 296.934192,217.306521 270.171163,246.572582 C263.136976,254.26154 256.035329,261.507261 246.664589,265.65031 C246.112647,265.945803 245.536175,266.179734 244.922907,266.345949" id="Fill-22" stroke="none" fill="#F5C9BA" fill-rule="evenodd"></path>
                            <path d="M1400.26296,208.989568 C1399.88152,208.971082 1399.50007,208.921786 1399.11248,208.847842 C1399.11248,208.847842 1398.83562,208.798546 1398.69412,208.767736 C1388.17982,206.752766 1379.36355,200.96666 1370.50422,194.712243 C1337.39247,171.296692 1315.17031,145.755255 1304.44683,118.79656 C1298.59598,104.094059 1296.17196,88.8985981 1297.24862,73.6353557 C1299.27888,44.7910933 1323.15601,14.7637294 1355.46181,16.0392607 L1356.26161,16.0700707 C1367.75413,16.6924314 1379.2159,21.0859283 1389.41643,28.7822504 C1393.46465,31.8385961 1397.50057,35.4618446 1402.10865,40.2004128 L1402.6193,40.7180197 C1404.5019,42.6652077 1407.08588,45.3333482 1408.64241,45.419616 C1408.70393,45.419616 1409.17766,45.4442639 1409.17766,45.4442639 C1410.78342,45.5305318 1413.63809,43.1581667 1415.72372,41.4266483 L1416.28359,40.9644992 C1421.38385,36.7435379 1425.77661,33.5762765 1430.12629,30.9759179 C1441.08971,24.4195634 1452.95753,21.2831119 1464.4562,21.9054726 L1465.24985,21.9486065 C1497.50643,24.1607599 1518.03055,56.5789749 1516.96005,85.4725332 C1516.39403,100.760424 1512.35812,115.610813 1504.96919,129.598524 C1491.40949,155.250877 1466.57875,178.253575 1431.15988,197.978097 C1421.84528,203.160328 1412.61681,207.886572 1402.17633,208.87249 C1401.54879,208.983406 1400.9028,209.020378 1400.26296,208.989568" id="Fill-36" stroke="none" fill="#F5C9BA" fill-rule="evenodd"></path>
                            <path d="M1394,135.938519 C1397.37885,138.689519 1401.74119,139.130519 1405.86821,139.053519 C1408.32391,139.004519 1410.87615,138.780519 1413,137.352519" id="Stroke-48" stroke="#C0BEBD" stroke-width="0.595" fill="none" stroke-linecap="round" stroke-linejoin="round"></path>
                            <path d="M1089.45075,268.23776 C1090.42071,262.608881 1090.96095,256.91248 1090.99778,251.197663 C1091.05303,242.92315 1090.07693,234.660913 1088.10017,226.638072 C1084.25102,210.954554 1081.04646,196.240897 1082.09623,179.76553 C1082.26198,177.089203 1082.18831,174.382185 1082.23742,171.705859 C1082.27426,169.624954 1082.43387,167.507218 1082.31723,165.432452 C1082.21287,163.640049 1082.3909,161.773987 1081.97958,160 C1080.38958,161.565283 1078.62155,162.780679 1076.89035,164.137257 C1074.87676,165.708678 1073.04734,167.513357 1070.99077,169.035671 C1057.34377,179.133278 1040.96491,179.882159 1024.89914,176.659518 C1010.77943,173.829732 997.175404,168.710338 982.896084,166.611017 C953.238563,162.252779 916.508911,177.279493 899.289009,202.360845 C885.273666,222.78318 880.000263,249.294771 887.238147,272.952023 C893.174562,292.386081 906.103301,308.431763 922.212044,319.658829 C928.20985,323.845193 934.637385,327.387028 941.31662,330.296613 C946.811027,332.690574 952.538717,334.894247 958.352352,336.864661 C958.370769,336.8708 958.395325,336.876938 958.419881,336.883076 C958.444437,336.895353 958.468993,336.901491 958.493549,336.90763 C964.264211,338.963982 970.126959,340.793214 975.922177,342.321666 C982.969752,344.175452 990.207636,345.378571 997.50691,345.820533 C1017.11488,346.999099 1037.20784,342.413742 1053.9182,330.855204 C1065.5025,322.838501 1074.25058,311.29224 1080.03352,298.493752 C1084.34924,288.930182 1087.64588,278.709808 1089.45075,268.23776" id="Fill-50" stroke="none" fill="#F7C8C8" fill-rule="evenodd"></path>
                            <path d="M1206.50631,234.943674 C1206.12969,234.900483 1205.76541,234.826443 1205.39495,234.733893 C1205.38878,234.733893 1205.11711,234.666023 1204.98746,234.629003 C1194.79381,232.00058 1186.50183,225.787383 1178.20368,219.105265 C1147.18438,194.122907 1126.96381,167.727617 1118.12232,140.672136 C1113.30025,125.913479 1111.87401,110.889512 1113.88063,96.0074548 C1117.66543,67.9030727 1142.96739,40.0023008 1174.57941,43.2600646 L1175.36354,43.3464447 C1186.60062,44.6668262 1197.57839,49.6892119 1207.11139,57.8583012 C1210.88384,61.0975549 1214.61307,64.8982793 1218.84859,69.8219449 L1219.31165,70.3649055 C1221.04043,72.3886678 1223.41134,75.159001 1224.93019,75.3379312 C1224.99194,75.3441012 1225.455,75.3996313 1225.455,75.3996313 C1227.02326,75.5847315 1229.97453,73.437569 1232.12934,71.8703873 L1232.69737,71.4569968 C1237.97015,67.6439324 1242.48351,64.8180692 1246.91043,62.5475066 C1258.07959,56.8094 1269.92175,54.4771374 1281.15266,55.8036889 L1281.93679,55.902409 C1313.44385,60.0795038 1331.55902,93.0952115 1328.70653,121.310654 C1327.20002,136.242071 1322.31621,150.525637 1314.18475,163.760302 C1299.29253,188.02694 1273.49663,208.992624 1237.50709,226.089713 C1228.04818,230.581479 1218.7004,234.635173 1208.39563,234.949844 C1207.76586,235.017714 1207.13609,235.017714 1206.50631,234.943674" id="Fill-52" stroke="none" fill="#F1AFAD" fill-rule="evenodd"></path>
                            <path d="M1473.83481,308.869668 C1473.46111,308.931208 1473.09353,308.968132 1472.71369,308.974286 C1472.71369,308.974286 1472.43188,308.986593 1472.2971,308.986593 C1461.85782,309.251214 1452.25172,305.558838 1442.51083,301.423377 C1406.10199,285.940016 1379.63007,266.161191 1363.81798,242.622296 C1355.19822,229.785137 1349.73965,215.766418 1347.60156,200.947684 C1343.55817,172.953323 1360.09929,139.272704 1391.15372,133.752602 L1391.91951,133.623369 C1403.00206,131.814105 1414.84428,133.629523 1426.15963,138.860389 C1430.65024,140.934273 1435.24499,143.562013 1440.62392,147.125156 L1441.21818,147.519009 C1443.41753,148.989806 1446.43169,150.995996 1447.93265,150.755992 C1447.98778,150.743684 1448.44726,150.663683 1448.44726,150.663683 C1449.99722,150.417524 1452.22721,147.549779 1453.85682,145.457433 L1454.29179,144.903577 C1458.28004,139.808098 1461.81493,135.857256 1465.41722,132.472579 C1474.50871,123.918575 1485.17467,118.447706 1496.25722,116.644595 L1497.02914,116.521516 C1528.2306,111.912201 1554.50647,138.620384 1559.47494,166.46705 C1562.10314,181.199629 1561.33122,196.233751 1557.18368,211.150948 C1549.5809,238.499144 1530.68113,265.66272 1501.00514,291.903202 C1493.20018,298.795637 1485.38297,305.244986 1475.63596,308.35889 C1475.05396,308.598894 1474.45358,308.771205 1473.83481,308.869668" id="Fill-54" stroke="none" fill="#F1AFAD" fill-rule="evenodd"></path>
                            <path d="M540.450788,288.237661 C541.420735,282.608787 541.960959,276.912391 541.997792,271.203719 C542.053042,262.923074 541.070817,254.660845 539.100229,246.638011 C535.251134,230.954507 532.040486,216.240864 533.090239,199.77165 C533.262129,197.095326 533.182323,194.38831 533.231434,191.705848 C533.274406,189.624945 533.427879,187.507211 533.317379,185.438585 C533.213017,183.646184 533.391046,181.773985 532.9736,180 C531.383623,181.565281 529.621757,182.786814 527.890586,184.143391 C525.877024,185.714811 524.04763,187.519488 521.991097,189.035663 C508.338169,199.133261 491.959567,199.882141 475.894049,196.665641 C461.780704,193.82972 448.170748,188.71033 433.897791,186.611011 C404.234596,182.252777 367.511658,197.285615 350.292026,222.366945 C336.270764,242.783122 331.003582,269.294689 338.235214,292.95192 C344.171536,312.38596 357.100073,328.437766 373.214702,339.664822 C379.212414,343.845043 385.63371,347.386876 392.318979,350.302596 C397.807161,352.696555 403.540899,354.894087 409.348305,356.8645 C409.366721,356.870638 409.391277,356.882915 409.415833,356.889054 C409.440388,356.895192 409.464944,356.907469 409.4895,356.913607 C415.260072,358.969957 421.128866,360.799187 426.917855,362.3215 C433.971458,364.181422 441.20309,365.378402 448.502249,365.820364 C468.109916,366.998929 488.202556,362.419714 504.912659,350.855048 C516.496776,342.844491 525.244717,331.292102 531.027567,318.499765 C535.349357,308.930065 538.645949,298.709699 540.450788,288.237661" id="Fill-56" stroke="none" fill="#F7C8C8" fill-rule="evenodd"></path>
                            <path d="M1381.67126,178.086219 C1379.8491,172.649075 1377.60835,167.359882 1374.91821,162.292612 C1371.02767,154.956784 1366.21989,148.120286 1360.6611,141.968053 C1349.7959,129.940994 1339.95258,118.47491 1333.03333,103.414886 C1331.90679,100.967555 1330.55249,98.6126927 1329.32131,96.2208429 C1328.36098,94.3591453 1327.493,92.4173084 1326.39724,90.6419148 C1325.45539,89.106939 1324.72283,87.3746972 1323.51627,86 C1322.85759,88.1391028 1321.8788,90.062446 1320.9985,92.0844221 C1319.97046,94.43312 1319.21328,96.9051092 1318.12369,99.2291488 C1310.89048,114.659046 1296.79342,123.135318 1281.08351,127.949841 C1267.27578,132.184894 1252.82784,134.151389 1239.22941,139.107697 C1210.97989,149.402514 1185.74061,180.200663 1182.49644,210.579622 C1179.8494,235.311842 1187.82747,261.258481 1205.48265,278.710355 C1219.97369,293.049125 1239.03242,301.069219 1258.60209,303.306955 C1265.88454,304.139171 1273.24087,304.206981 1280.52332,303.590525 C1286.50688,303.091195 1292.61355,302.302131 1298.68329,301.266485 C1298.70176,301.266485 1298.72638,301.260321 1298.751,301.254156 C1298.77563,301.254156 1298.80025,301.247991 1298.82488,301.241827 C1304.90077,300.304814 1310.95204,299.127382 1316.7817,297.709533 C1323.88563,295.983456 1330.84797,293.603935 1337.49637,290.503161 C1355.36085,282.199497 1370.91071,268.563487 1380.14459,250.371866 C1386.54674,237.765338 1388.76903,223.383416 1387.77177,209.322051 C1387.02691,198.80531 1385.06932,188.202264 1381.67126,178.086219" id="Fill-58" stroke="none" fill="#F7C8C8" fill-rule="evenodd"></path>
                            <path d="M1509.48932,280.598242 C1508.5932,275.142424 1507.28585,269.760752 1505.51816,264.527369 C1502.95256,256.946069 1499.45402,249.69842 1495.13301,242.988321 C1486.6874,229.870881 1479.13177,217.4331 1474.88441,202.041887 C1474.19698,199.539502 1473.27631,197.086547 1472.47226,194.621234 C1471.8462,192.705828 1471.32449,190.722457 1470.5634,188.862659 C1469.90666,187.25619 1469.47087,185.489074 1468.54407,184 C1467.59271,185.933942 1466.37742,187.614556 1465.22966,189.400209 C1463.89162,191.48244 1462.80522,193.706783 1461.41808,195.75812 C1452.19911,209.320429 1437.56046,215.208758 1421.95818,217.365134 C1408.2402,219.262004 1394.27057,218.903637 1380.63852,221.51724 C1352.32486,226.954521 1323.71044,252.361452 1315.98909,280.765067 C1309.69785,303.892048 1313.27618,329.805636 1327.30719,349.138877 C1338.83398,365.024388 1355.64541,375.596193 1373.81943,380.743074 C1380.58942,382.65848 1387.54354,383.857153 1394.53449,384.400881 C1400.2672,384.845749 1406.17176,385.03729 1412.07018,384.994039 C1412.09474,384.994039 1412.11929,384.98786 1412.14384,384.98786 C1412.16839,384.98786 1412.1868,384.994039 1412.21135,384.98786 C1418.10364,385.03729 1424.0082,384.845749 1429.75318,384.400881 C1436.738,383.857153 1443.68598,382.65848 1450.46211,380.743074 C1468.64227,375.596193 1485.44142,365.024388 1496.97435,349.138877 C1504.95962,338.134562 1509.26836,324.794687 1510.4775,311.257093 C1511.37976,301.136335 1511.15266,290.743714 1509.48932,280.598242" id="Fill-60" stroke="none" fill="#F8E4DE" fill-rule="evenodd"></path>
                            <path d="M529.486632,102.598242 C528.590516,97.1424245 527.289306,91.7607519 525.515488,86.5273689 C522.956033,78.946069 519.451359,71.7045991 515.130361,64.9883212 C506.684773,51.8708806 499.129164,39.4392788 494.881819,24.0418873 C494.194387,21.5395022 493.27372,19.086547 492.475808,16.6212343 C491.849754,14.7058285 491.328043,12.7224566 490.566958,10.8626593 C489.910215,9.25618993 489.474433,7.4952523 488.54149,6 C487.596272,7.94012076 486.374853,9.61455619 485.227088,11.4002087 C483.895189,13.4824402 482.808802,15.7129612 481.415525,17.7581204 C472.202715,31.3204295 457.557968,37.2087578 441.955726,39.365134 C428.237784,41.2620037 414.27433,40.9036374 400.636179,43.5172396 C372.322592,48.9545207 343.708253,74.3614524 335.993062,102.765067 C329.695697,125.892048 333.274024,151.805636 347.311131,171.138877 C358.837885,187.024388 375.64927,197.596193 393.817104,202.743074 C400.593215,204.664658 407.541184,205.857153 414.532117,206.400881 C420.270943,206.845749 426.175489,207.03729 432.06776,206.994039 L432.141413,206.994039 C432.165964,206.994039 432.184378,206.994039 432.208929,206.98786 C438.107337,207.03729 444.011883,206.845749 449.750709,206.400881 C456.741643,205.857153 463.689612,204.664658 470.459585,202.743074 C488.639695,197.596193 505.444941,187.024388 516.971695,171.138877 C524.963087,160.134562 529.27181,146.794687 530.474815,133.257093 C531.383207,123.136335 531.149971,112.749893 529.486632,102.598242" id="Fill-74" stroke="none" fill="#F1AFAD" fill-rule="evenodd"></path>
                            <path d="M1139.91657,88.2866702 C1138.1692,83.0752616 1136.01577,77.9990546 1133.42549,73.1440866 C1129.68466,66.1136014 1125.07015,59.5563219 1119.72962,53.6566141 C1109.28237,42.1337471 1099.81955,31.1332501 1093.16851,16.7035479 C1092.09179,14.3559558 1090.78742,12.0944012 1089.59995,9.80211882 C1088.67705,8.0199154 1087.84644,6.15167457 1086.79433,4.44936303 C1085.88989,2.98058158 1085.18233,1.32128874 1084.01947,0 C1083.38575,2.0526067 1082.45054,3.89626541 1081.59532,5.83210706 C1080.61089,8.08751622 1079.88487,10.4535449 1078.83892,12.6843719 C1071.88024,27.4766603 1058.33204,35.6071953 1043.23951,40.2224876 C1029.96203,44.2785367 1016.08159,46.1590686 1003.01329,50.9157081 C975.855367,60.7854277 951.595352,90.3146948 948.475944,119.438357 C945.934887,143.147808 953.607278,168.02491 970.570216,184.759185 C984.506035,198.506734 1002.81641,206.19479 1021.62515,208.333434 C1028.6269,209.138499 1035.70248,209.193809 1042.69808,208.609983 C1048.45083,208.130632 1054.32049,207.368586 1060.14708,206.379156 C1060.17169,206.379156 1060.1963,206.373011 1060.22091,206.366865 C1060.24552,206.366865 1060.27013,206.36072 1060.29474,206.354574 C1066.13363,205.457327 1071.94176,204.32655 1077.54685,202.968388 C1084.38248,201.321386 1091.07044,199.029104 1097.46308,196.066959 C1114.62905,188.096207 1129.57391,175.024667 1138.45223,157.583656 C1144.60491,145.501546 1146.73989,131.710978 1145.78007,118.233833 C1145.06636,108.14902 1143.18364,97.984315 1139.91657,88.2866702" id="Fill-88" stroke="none" fill="#F1AFAD" fill-rule="evenodd"></path>
                            <path d="M1183.90812,348.070192 C1183.74845,347.732257 1183.6072,347.388177 1183.49051,347.025665 C1183.49051,347.025665 1183.3984,346.761461 1183.35541,346.626286 C1180.0821,336.678698 1180.83134,326.387029 1181.97362,315.843445 C1186.23567,276.42789 1197.48649,245.300969 1215.40675,223.341313 C1225.17752,211.366112 1236.99949,202.08825 1250.54101,195.765786 C1276.11944,183.82745 1313.0838,190.008596 1327.33157,218.241561 L1327.68163,218.942009 C1332.61307,229.067782 1334.30193,240.956963 1332.57623,253.331543 C1331.89454,258.240822 1330.70928,263.414306 1328.86689,269.601596 L1328.65195,270.283611 C1327.89043,272.821198 1326.84027,276.292716 1327.50967,277.669035 C1327.54038,277.718189 1327.74304,278.142144 1327.74304,278.142144 C1328.42472,279.555329 1331.80857,280.86406 1334.27736,281.828712 L1334.93448,282.086772 C1340.95907,284.45232 1345.75541,286.70727 1350.03589,289.189559 C1360.8384,295.456725 1369.14755,304.126303 1374.079,314.252076 L1374.41677,314.958669 C1387.8416,343.591012 1369.91521,376.518207 1344.7421,389.304454 C1331.42781,396.069306 1316.84227,399.663709 1301.38467,399.977068 C1273.06108,400.55463 1241.63001,390.219951 1207.98194,369.274102 C1199.13235,363.768827 1190.71266,358.11609 1184.91529,349.655416 C1184.52839,349.170018 1184.18448,348.635466 1183.90812,348.070192" id="Fill-102" stroke="none" fill="#F1AFAD" fill-rule="evenodd"></path>
                            <path d="M1030.91426,399.070192 C1030.74845,398.732257 1030.6072,398.388177 1030.49051,398.025665 C1030.49051,398.025665 1030.3984,397.761461 1030.35541,397.626286 C1027.0821,387.678698 1027.83134,377.387029 1028.97362,366.843445 C1033.24181,327.42789 1044.49263,296.300969 1062.40675,274.341313 C1072.18366,262.366112 1083.99949,253.08825 1097.54101,246.765786 C1123.12558,234.82745 1160.0838,241.008596 1174.33771,269.241561 L1174.68777,269.942009 C1179.61307,280.067782 1181.30193,291.956963 1179.58237,304.331543 C1178.89454,309.240822 1177.70928,314.414306 1175.86689,320.601596 L1175.65809,321.283611 C1174.89043,323.821198 1173.84027,327.292716 1174.51581,328.669035 C1174.54038,328.718189 1174.74304,329.142144 1174.74304,329.142144 C1175.43086,330.555329 1178.80857,331.86406 1181.27736,332.828712 L1181.93448,333.086772 C1187.95907,335.45232 1192.75541,337.70727 1197.03589,340.189559 C1207.8384,346.456725 1216.14755,355.126303 1221.079,365.252076 L1221.41677,365.958669 C1234.8416,394.591012 1216.91521,427.518207 1191.7421,440.304454 C1178.42781,447.069306 1163.84227,450.663709 1148.38467,450.977068 C1120.06108,451.55463 1088.63001,441.219951 1054.98194,420.274102 C1046.1385,414.768827 1037.71266,409.11609 1031.91529,400.655416 C1031.52839,400.170018 1031.19062,399.635466 1030.91426,399.070192" id="Fill-104" stroke="none" fill="#F2B9B2" fill-rule="evenodd"></path>
                            <path d="M1138.5154,307.226049 C1138.15912,307.115516 1137.80898,306.986561 1137.46499,306.833044 C1137.45885,306.826903 1137.207,306.71637 1137.08414,306.654963 C1127.54448,302.338048 1120.48034,294.821825 1113.49606,286.851191 C1087.38331,257.03807 1072.09406,227.697783 1068.07057,199.653185 C1065.87762,184.362831 1067.05702,169.385652 1071.57807,155.145358 C1080.11032,128.242931 1109.69371,105.22143 1140.11865,113.836838 L1140.86806,114.051763 C1151.6547,117.275633 1161.55063,124.073393 1169.48704,133.72044 C1172.63212,137.546099 1175.63591,141.91214 1178.93456,147.463337 L1179.30312,148.077407 C1180.64838,150.355609 1182.49734,153.475087 1183.95317,153.911077 C1184.00845,153.929499 1184.45687,154.064594 1184.45687,154.064594 C1185.96798,154.512866 1189.22363,152.916282 1191.60701,151.749549 L1192.23357,151.436373 C1198.05073,148.605508 1202.95877,146.603638 1207.68868,145.13601 C1219.61171,141.427024 1231.62075,141.175255 1242.40124,144.399125 L1243.1568,144.626331 C1273.3176,154.11986 1285.40649,189.594711 1277.77108,216.767329 C1273.72916,231.148859 1266.49303,244.308389 1256.25924,255.895899 C1237.49934,277.130455 1208.61623,293.268227 1170.42074,303.860943 C1160.37737,306.642682 1150.51829,309.012994 1140.36436,307.557647 C1139.7378,307.514662 1139.12353,307.404129 1138.5154,307.226049" id="Fill-106" stroke="none" fill="#F8E4DE" fill-rule="evenodd"></path>
                            <path d="M525.808485,349.670698 C525.432703,349.58493 525.069241,349.474657 524.705779,349.33988 C524.699618,349.33988 524.434722,349.241859 524.305354,349.186723 C514.257786,345.461953 506.520357,338.3126 498.832211,330.69765 C470.081749,302.216637 452.43228,273.472195 446.364313,245.254611 C443.056192,229.865429 443.222522,214.568142 446.844822,199.791587 C453.688996,171.861938 482.297769,146.425679 513.968248,153.066552 L514.750616,153.238088 C525.987136,155.768236 536.570657,161.992522 545.349189,171.237059 C548.8298,174.912819 552.205685,179.139942 555.963512,184.549436 L556.376257,185.143684 C557.91019,187.367518 560.017038,190.412273 561.53865,190.755344 C561.600254,190.767596 562.062282,190.871743 562.062282,190.871743 C563.633177,191.227066 566.848892,189.370808 569.195994,188.023029 L569.824352,187.667705 C575.56582,184.384027 580.438675,182.013161 585.163681,180.19366 C597.084004,175.59896 609.336986,174.508485 620.573507,177.038633 L621.355874,177.222421 C652.8169,184.776108 667.632598,219.977635 661.7248,248.115577 C658.607651,263.008531 652.133099,276.884525 642.485954,289.36373 C624.805683,312.239209 596.437164,330.636388 558.156605,344.040659 C548.090555,347.563262 538.190836,350.657027 527.718201,349.878991 C527.077522,349.878991 526.443004,349.811602 525.808485,349.670698" id="Fill-108" stroke="none" fill="#F5C9BA" fill-rule="evenodd"></path>
                            <path d="M1138.97668,353.920063 C1138.97668,353.920063 1138.69927,353.889319 1138.56365,353.864723 C1128.15157,352.45661 1119.19435,347.273034 1110.18165,341.628285 C1076.51038,320.512744 1053.38065,296.747 1041.43974,270.99514 C1034.92988,256.950907 1031.76126,242.248735 1032.01401,227.294456 C1032.48252,199.02767 1054.30535,168.467321 1086.03475,168.006149 L1086.81766,168 C1098.11745,168 1109.58984,171.689378 1119.98959,178.662303 C1124.1199,181.435485 1128.26254,184.762075 1133.03397,189.133988 L1133.55796,189.619756 C1135.51215,191.421402 1138.18144,193.887137 1139.71644,193.887137 L1140.24043,193.887137 C1141.81858,193.887137 1144.49403,191.421402 1146.44206,189.619756 L1146.95989,189.140137 C1151.74365,184.755926 1155.89245,181.429337 1160.01043,178.662303 C1170.41018,171.689378 1181.87641,168 1193.1762,168 L1193.96527,168.006149 C1225.69468,168.467321 1247.5175,199.02767 1247.98602,227.294456 C1248.23877,242.248735 1245.06398,256.950907 1238.56028,270.99514 C1226.62554,296.747 1203.49581,320.512744 1169.81221,341.628285 C1160.95979,347.17465 1152.15668,352.27829 1141.97886,353.784786 C1141.36856,353.926212 1140.73977,354 1140.10481,354 C1139.72877,354 1139.35889,353.975404 1138.97668,353.920063 Z" id="Fill-122" stroke="none" fill="#F5C9BA" fill-rule="evenodd"></path>
                            <path d="M1135,267.003063 C1135,263.683002 1131.42009,261 1127.00609,261 C1122.57991,261 1119,263.683002 1119,267.003063 C1119,270.316998 1122.57991,273 1127.00609,273 C1131.42009,273 1135,270.316998 1135,267.003063" id="Fill-128" stroke="none" fill="#F5C9BA" fill-rule="evenodd"></path>
                            <path d="M912.294376,233.412946 C911.340956,227.955493 909.975413,222.578297 908.148538,217.343093 C905.503567,209.768098 901.917479,202.544999 897.507144,195.859002 C888.895612,182.795686 881.175988,170.405292 876.771804,155.014534 C876.045975,152.51423 875.098706,150.069489 874.268309,147.606227 C873.628595,145.692414 873.081147,143.704518 872.299958,141.852441 C871.623338,140.247308 871.168157,138.487835 870.220888,137 C869.285922,138.950854 868.080307,140.636244 866.942355,142.445106 C865.61987,144.537953 864.543428,146.785139 863.171734,148.847118 C854.031207,162.533966 839.3793,168.571736 823.712462,170.880659 C809.93401,172.91177 795.891061,172.68952 782.217177,175.436768 C753.79912,181.159685 725.288797,206.897379 717.790612,235.43171 C711.694877,258.6691 715.533161,284.604349 729.822153,303.847428 C741.558442,319.65799 758.553916,330.091356 776.871876,335.073443 C783.699591,336.931693 790.693386,338.067634 797.724087,338.543 C803.499965,338.931936 809.435771,339.067755 815.359275,338.968978 C815.38388,338.968978 815.408484,338.962804 815.433088,338.962804 L815.506902,338.962804 C821.430406,338.956631 827.360061,338.703513 833.129788,338.203453 C840.148187,337.592267 847.117377,336.326682 853.908185,334.344959 C872.133879,329.004805 888.920216,318.250412 900.367403,302.223774 C908.290013,291.117486 912.491211,277.70845 913.579954,264.132727 C914.391899,253.983346 914.05974,243.568501 912.294376,233.412946" id="Fill-136" stroke="none" fill="#F5C9BA" fill-rule="evenodd"></path>
                            <path d="M71.543251,371.825108 C71.1868313,371.714701 70.8365569,371.585894 70.4924276,371.432551 C70.4862824,371.432551 70.2343306,371.316011 70.1114273,371.254674 C60.5679846,366.942683 53.5010438,359.435035 46.5139901,351.473492 C20.3908896,321.694381 5.0955716,292.393698 1.07048791,264.374958 C-1.12333633,249.102046 0.0565355267,234.141952 4.57937766,219.917903 C13.1150132,193.046165 42.7101324,170.050925 73.1471393,178.656505 L73.8968495,178.871185 C84.6877609,182.091377 94.5876233,188.887516 102.527178,198.517425 C105.679648,202.33872 108.684634,206.705914 111.984588,212.244645 L112.347153,212.858014 C113.692944,215.133617 115.542639,218.249536 116.999043,218.691163 C117.060495,218.70343 117.502947,218.838372 117.502947,218.838372 C119.014658,219.286132 122.271596,217.69137 124.65592,216.525967 L125.282727,216.219282 C131.102199,213.385513 136.018332,211.385927 140.743965,209.919972 C152.677877,206.215218 164.685531,205.963736 175.476443,209.183928 L176.226153,209.410875 C206.398918,218.893575 218.492604,254.327958 210.854163,281.469579 C206.810644,295.834703 199.571638,308.985355 189.333792,320.553513 C170.566455,341.763846 141.671885,357.883209 103.461243,368.46384 C93.4138966,371.242406 83.5509052,373.616148 73.3929459,372.156328 C72.766139,372.113392 72.1516224,372.002985 71.543251,371.825108" id="Fill-150" stroke="none" fill="#F2B9B2" fill-rule="evenodd"></path>
                        </g>
                    </g>
                </g>
            </g>
        </g>
    </g>
</svg>