<?xml version="1.0" encoding="UTF-8"?>
<svg width="220px" height="167px" viewBox="0 0 220 167" version="1.1" xmlns="http://www.w3.org/2000/svg" xmlns:xlink="http://www.w3.org/1999/xlink">
    <title>event-character-02</title>
    <defs>
        <polygon id="path-1" points="0.252909748 0.244765957 64.6080188 0.244765957 64.6080188 69.1993617 0.252909748 69.1993617"></polygon>
        <polygon id="path-3" points="0.132460587 0.0203801449 43.9199156 0.0203801449 43.9199156 37.205 0.132460587 37.205"></polygon>
    </defs>
    <g id="R4" stroke="none" stroke-width="1" fill="none" fill-rule="evenodd">
        <g id="D---Homepage---Event---1440-Copy" transform="translate(-709.000000, -636.000000)">
            <g id="event-character-02" transform="translate(709.000000, 636.000000)">
                <g id="Group-3" transform="translate(141.000000, 97.000000)">
                    <mask id="mask-2" fill="white">
                        <use xlink:href="#path-1"></use>
                    </mask>
                    <g id="Clip-2"></g>
                    <path d="M63.5130116,59.8560638 C63.1698721,57.9224468 62.8176628,55.9888298 62.4715,54.0537021 C60.8555698,45.024617 59.0537093,36.0755957 57.4498721,27.0465106 C56.4915,21.6459787 55.5346395,16.2424255 54.5747558,10.8418936 C53.5695233,5.16944681 54.1620814,0.648106383 47.3038256,0.55293617 C41.5067326,0.471361702 35.7096395,0.391297872 29.9125465,0.311234043 L29.9110349,0.244765957 C29.7205698,0.264404255 29.528593,0.282531915 29.3381279,0.303680851 C29.1461512,0.300659574 28.9541744,0.297638298 28.7621977,0.294617021 L28.7652209,0.362595745 C22.9983605,0.957787234 17.2330116,1.55448936 11.4646395,2.14968085 C5.09312791,2.80831915 5.06289535,6.79489362 5.12638372,12.4144681 C5.20952326,19.786383 3.72661628,26.8758085 3.18394186,34.1631277 C2.62161628,41.7117872 1.78719767,49.2483617 1.12661628,56.7894681 C0.95277907,58.7457447 0.774406977,60.7035319 0.605104651,62.6598085 C0.00196511628,69.6419787 -0.366872093,77.3311277 4.23754651,82.8645957 C9.36801163,89.0310213 18.7869651,90.2848511 27.2324302,90.5945319 C29.0645233,90.6625106 30.9283605,90.6927234 32.7967326,90.6625106 L32.7982442,90.6912128 C32.9887093,90.6806383 33.180686,90.6640213 33.3711512,90.6519362 C33.5631279,90.6474043 33.753593,90.6458936 33.9455698,90.6398511 L33.9440581,90.6111489 C35.8078953,90.4751915 37.6611512,90.2788085 39.4796395,90.0491915 C47.8631279,88.9887234 57.1339419,86.9010213 61.6945233,80.3025532 C65.7880116,74.3823617 64.7359186,66.7566596 63.5130116,59.8560638" id="Fill-1" fill="#FEFEFE" mask="url(#mask-2)"></path>
                </g>
                <path d="M162,98.7879834 C161.561951,104.433962 159.931013,109.983963 157.24512,114.961139 C149.041929,115.274974 140.526496,113.673807 132.885645,110.671048 C126.166365,108.030875 119.392518,105.770045 112.95365,102.293487 C110.740668,101.100611 108.527686,99.9046868 106.314704,98.7102864 C101.370357,96.0411673 105.494688,89.2266869 108.091153,86.3122892 C111.127182,82.9042872 113.717584,83.6675456 117.171957,85.9984544 C125.581289,91.6718559 134.490815,95.6557295 144.497738,97.5798718 C150.256038,98.6859109 156.146208,99.1048651 162,98.7879834" id="Fill-4" fill="#FEFEFE"></path>
                <path d="M101.455422,73.0914761 C100.680701,72.9867291 99.8968486,72.9687725 99.1053854,73.0540665 C94.2531076,73.576305 89.3734329,78.5293407 90.0659632,84.2694753 C90.400813,87.0527522 91.9106811,89.6160604 93.9076035,91.5493904 C97.414394,94.9416961 102.125122,94.5197155 105.574075,97.9913297 C105.959152,98.3773971 113.937709,85.7508968 113.998591,84.0300536 C114.022944,83.3746368 113.727667,82.797032 113.421736,82.2762899 C110.930149,78.0250589 106.399023,73.7633532 101.455422,73.0914761" id="Fill-6" fill="#D6002A"></path>
                <path d="M219.250533,48.6199945 C218.801869,45.8758914 218.139555,43.168134 217.245279,40.5345825 C215.946594,36.7197946 214.17025,33.0715913 211.974237,29.6914378 C207.682931,23.0856002 203.840289,16.8235327 201.694636,9.07886207 C201.346693,7.81887655 200.879715,6.58615032 200.472255,5.34433766 C200.157885,4.38117564 199.892349,3.38166789 199.506253,2.44727958 C199.17357,1.63858695 198.955343,0.751145219 198.482261,0 C197.995445,0.972248449 197.371283,1.8127436 196.783746,2.71078617 C196.10312,3.75421169 195.543052,4.8748719 194.831904,5.90163895 C190.116351,12.7119213 182.641665,15.655926 174.680164,16.7205532 C167.680086,17.6564559 160.553344,17.4595831 153.597521,18.7589432 C139.1487,21.4591285 124.524382,34.201338 120.550498,48.4730971 C117.315232,60.0931319 119.109889,73.1291361 126.245787,82.868279 C132.105892,90.8673698 140.665613,96.2026211 149.931904,98.8134565 C153.382346,99.7857049 156.925878,100.39601 160.490775,100.67769 C163.416249,100.90788 166.428709,101.010859 169.435065,100.994201 L169.47169,100.994201 C169.485425,100.994201 169.496108,100.995715 169.508316,100.994201 C172.516198,101.024489 175.528658,100.936653 178.455658,100.718579 C182.020555,100.455072 185.56714,99.8614252 189.02216,98.9058352 C198.300659,96.3374032 206.884797,91.0415265 212.786105,83.069695 C216.872918,77.545143 219.087244,70.8423835 219.719037,64.0381587 C220.192118,58.9497556 220.088345,53.725056 219.250533,48.6199945" id="Fill-8" fill="#FEFEFE"></path>
                <path d="M198.472673,53.6813328 C196.929609,50.9141842 194.656738,48.492547 191.930203,46.5050923 C189.517743,44.7469592 186.750242,43.3282223 183.818875,42.3069763 C179.930112,40.9524495 175.434439,40.1345354 170.911456,40.0030576 C170.908422,40.0015288 170.905387,40.0030576 170.902353,40.0030576 C170.899318,40.0030576 170.896284,40.0015288 170.893249,40.0015288 C170.782488,40.0045864 170.673245,40.0107017 170.562484,40.0152881 C170.453241,40.0107017 170.343997,40.0045864 170.233237,40 C170.230202,40 170.227168,40.0015288 170.224133,40.0015288 C170.221098,40.0015288 170.218064,40 170.215029,40.0015288 C165.690529,40.1116032 161.19334,40.9096428 157.296989,42.2442951 C154.361071,43.2502529 151.587501,44.6567594 149.167455,46.4026619 C146.430299,48.3778862 144.14529,50.7888217 142.590088,53.5483262 C138.014,61.6647856 137.3024,72.8923762 143.462518,80.5027991 C147.208659,85.130511 152.675384,88.2171811 158.595773,89.7276468 C160.800367,90.2902493 163.062617,90.6434048 165.34004,90.8069876 C168.857072,91.0592414 172.569833,91.0745296 176.086866,90.7916995 C179.192718,90.5425032 182.272777,89.9355651 185.199592,88.9219632 C190.000235,87.2601452 194.342663,84.4624205 197.474309,80.6312192 C203.670841,73.0498437 203.010828,61.8191956 198.472673,53.6813328" id="Fill-10" fill="#FAD9CB"></path>
                <path d="M166.672381,37.8523608 C165.656256,38.3292368 164.657118,38.8447382 163.624006,39.2889311 C160.994125,40.4164976 157.345031,41.13404 154.962233,39.3825236 C153.166255,38.0633153 152.716874,39.8341444 153.156989,41.1919782 C153.683583,42.8157335 154.920538,44.3592666 156.270224,45.4645493 C160.22045,48.6972039 165.447781,50.8721148 170.908296,50.9954192 C176.101653,51.1127812 185.059924,48.9898661 185,42.9078404 C184.9858,41.4103607 184.221389,39.9916175 183.101798,38.9249603 C181.288833,37.2001846 178.513792,36.0978732 175.843761,36.0131942 C173.496481,35.9389145 171.09824,36.1691817 168.872957,36.9357487 C168.119356,37.1957278 167.390464,37.5136451 166.672381,37.8523608" id="Fill-12" fill="#231916"></path>
                <path d="M174,68.5077837 C174.002949,67.126528 172.43788,66.0028425 170.506644,66 C168.572455,65.9957664 167.002957,67.1109606 167,68.4922163 C166.997051,69.873472 168.560644,70.9957423 170.493356,71 C172.427545,71.0042336 173.995566,69.8890394 174,68.5077837" id="Fill-14" fill="#F2A078"></path>
                <path d="M163,65.5082817 C163.005909,63.0237619 161.442954,61.0045249 159.511111,61 C157.577787,60.9954903 156.005943,63.0056927 156,65.4917183 C155.994091,67.9762381 157.557046,69.9939693 159.49037,70 C161.423694,70.0045097 162.994057,67.9928016 163,65.5082817" id="Fill-16" fill="#231916"></path>
                <path d="M185,65.5090332 C185.00591,63.0240992 183.442624,61.0045257 181.511854,61 C179.578121,60.9954895 178.005944,63.006027 178,65.492467 C177.99409,67.9774009 179.555894,69.9954684 181.489627,70 C183.423361,70.0060106 184.994056,67.9939671 185,65.5090332" id="Fill-18" fill="#231916"></path>
                <path d="M174.980857,73.0256456 L164.022128,73 C163.45892,72.9985802 163,73.3205154 163,73.7165242 C162.994049,76.0697848 165.90396,77.9914245 169.488828,78 C173.073696,78.0085184 175.994036,76.0996992 176,73.745014 C176.001486,73.3490052 175.544066,73.0256456 174.980857,73.0256456" id="Fill-20" fill="#231916"></path>
                <path d="M42.5640664,139.866953 C42.4270059,140.24662 42.0610092,141.139064 42.4435737,140.273847 C42.2688592,140.670153 42.0866139,141.061921 41.8878009,141.447639 C41.509755,142.185796 41.0880304,142.901265 40.619615,143.584968 C40.4373697,143.849676 39.6375992,144.740608 40.4915914,143.780096 C40.2747045,144.023627 40.0728792,144.274722 39.8514738,144.512203 C39.3770337,145.029518 38.8604211,145.483304 38.3468208,145.958266 C37.5033717,146.737264 39.1270113,145.472715 38.2398835,146.036922 C37.9296147,146.233562 37.6313952,146.448354 37.316608,146.640457 C36.6900458,147.020124 36.0378789,147.342311 35.3736627,147.650885 C36.6493795,147.059452 34.8675932,147.783996 34.4097209,147.914081 C33.6988138,148.118284 32.9713389,148.204504 32.2604318,148.38753 C31.6233265,148.552406 33.3855327,148.310387 32.3824307,148.358791 C32.0104094,148.376942 31.6383881,148.414758 31.2663668,148.428371 C30.5102749,148.454086 29.754183,148.437447 29.0011034,148.38148 C28.618539,148.354253 28.2389869,148.3119 27.8579286,148.268034 C28.7209578,148.369379 28.4016521,148.342152 27.7344236,148.212067 C27.028035,148.072906 26.3261648,147.90198 25.6333316,147.700802 C24.9254368,147.493573 24.2401344,147.239453 23.5457951,146.994409 C22.4146696,146.595078 24.3018869,147.38769 23.3093281,146.893064 C22.9403191,146.708524 22.5652855,146.539111 22.1977826,146.350034 C20.6931297,145.569523 19.2758339,144.643801 17.9278215,143.616733 C15.7152737,141.927138 11.9137281,143.1932 10.6892207,145.521119 C9.21469094,148.324001 10.2253237,150.989234 12.5884874,152.790762 C19.0770209,157.740048 27.3865008,160.015026 35.4369214,158.571988 C43.8955111,157.057858 49.9578016,150.564188 52.7652822,142.691011 C53.700607,140.071156 51.7124769,136.760035 49.0706738,136.1565 C46.100528,135.477335 43.5641561,137.062559 42.5640664,139.866953" id="Fill-22" fill="#D6002A"></path>
                <path d="M9.93277672,139.210602 C9.80281774,139.499475 9.42190347,139.634183 9.08729643,139.587784 C8.44048907,139.497979 8.044637,138.915741 7.38737317,138.860361 C3.90536866,138.5655 1.68411568,142.572313 2.03664809,145.449075 C2.26220909,147.285593 3.31831256,148.9889 4.72396088,150.282096 C7.09309823,152.462867 10.4316997,153.292069 13.5029143,153.967106 C13.6493049,153.998538 13.8151147,154.028473 13.9376047,153.950641 C14.0496383,153.880294 14.0914642,153.744089 14.1258212,153.619859 C15.0056584,150.332985 16.4635891,147.394856 17.9484079,144.33549 C17.9767897,144.278613 18.0051716,144.218743 17.9991964,144.155879 C17.9932213,144.084035 17.9454203,144.024165 17.9006069,143.967288 C16.2828416,141.949663 14.8697243,140.195466 12.7037413,138.68075 C12.2645695,138.370922 11.7865595,138.065584 11.2502919,138.007211 C10.7125306,137.950334 10.1090429,138.233221 10.0119471,138.739124 C9.98356529,138.878322 9.99551554,139.025004 9.95219588,139.158215 C9.94622075,139.176176 9.94024563,139.194137 9.93277672,139.210602" id="Fill-24" fill="#EE847D"></path>
                <path d="M102.042521,79.0442987 C99.9526371,80.1849894 99.351417,83.3604255 100.77799,85.2888093 C102.204563,87.2156516 105.239437,87.5578588 107.127904,86.0980831 C109.016372,84.6383073 109.543386,81.6971752 108.400008,79.5822731 C107.345979,78.5649003 106.22986,77.5120737 104.829032,77.1236223 C103.42669,76.7351709 101.663919,77.2669793 101.152049,78.6512229" id="Fill-26" fill="#D6002A"></path>
                <path d="M183.441098,111.063959 C187.24095,108.999934 189.915589,104.961361 190.350331,100.63161 C190.464658,99.4881314 190.436076,98.3082554 190.818167,97.223922 C192.003553,93.8495978 196.25319,93.0200449 199.185064,91 C202.47496,96.7431756 204.158268,103.411447 203.988283,110.040288 C203.908555,113.1386 203.383556,116.355203 201.585921,118.868126 C199.962785,121.132336 197.468662,122.59884 194.932418,123.72412 C185.380136,127.956812 174.118973,128.094818 164.468911,124.097191 C162.253082,123.179678 159.965047,121.892127 159.008315,119.680997 C158.663831,118.881775 169.129221,111.218647 170.723775,111.129171 C175.408155,110.866807 178.397192,113.804365 183.441098,111.063959" id="Fill-28" fill="#FEFEFE"></path>
                <path d="M177.111176,126 C176.617966,126 176.120231,125.988725 175.614955,125.966174 C170.802013,125.755162 166.064484,124.574463 161.48231,123.434033 C160.803581,123.264902 159.670857,122.983016 159.0962,122.010107 C158.913698,121.70406 158.998162,121.296533 159.287753,121.101629 C159.574327,120.908336 159.955924,120.998539 160.138426,121.306198 C160.421984,121.781377 161.096188,121.984335 161.761343,122.148634 C166.287711,123.276177 170.969433,124.442379 175.664729,124.648559 C180.921108,124.886954 185.432393,123.864111 189.074905,121.626742 C189.369021,121.444725 189.747601,121.552647 189.916529,121.869969 C190.088474,122.185682 189.98591,122.588376 189.690286,122.770393 C186.195586,124.915948 181.970875,126 177.111176,126" id="Fill-30" fill="#DBDCDC"></path>
                <path d="M171.698913,111 C169.936845,111 168.179245,110.79541 166.469308,110.378539 C166.14162,110.298549 165.939049,109.958592 166.016503,109.620172 C166.093956,109.281753 166.432071,109.077163 166.749333,109.152539 C171.868716,110.401613 177.464736,109.644785 182.101523,107.074337 C182.397932,106.91128 182.768816,107.025112 182.926702,107.331228 C183.087567,107.637343 182.974365,108.020372 182.677957,108.183429 C179.331069,110.038582 175.510523,111 171.698913,111" id="Fill-32" fill="#DBDCDC"></path>
                <path d="M152.042854,103.324551 C151.336915,103.495645 150.644787,103.736665 149.971075,104.059513 C145.054051,106.407226 142.48044,112.148561 144.952764,117.062691 C146.212713,119.569596 148.525433,121.496268 151.09444,122.673101 C153.279784,123.674375 155.600177,123.701155 157.962006,123.802324 C159.671608,123.875225 162.851406,125.581706 164.316998,124.791696 C166.086451,123.838031 166.549916,117.747068 166.918232,115.967686 C167.300361,114.122842 168.42833,111.065459 167.826746,109.180444 C167.627241,108.557065 167.151499,108.109244 166.681896,107.717959 C162.882099,104.543041 157.124086,102.092671 152.042854,103.324551" id="Fill-34" fill="#D6002A"></path>
                <g id="Group-38" transform="translate(37.000000, 129.000000)">
                    <mask id="mask-4" fill="white">
                        <use xlink:href="#path-3"></use>
                    </mask>
                    <g id="Clip-37"></g>
                    <path d="M22.9359862,58.3751 C28.0399862,57.7451 33.3776414,56.4641 35.9175034,55.2581 L36.0859172,55.1786 C38.7850897,53.8976 45.110469,50.8991 43.7237103,44.3201 L35.7157103,6.2726 C35.3773655,4.3961 34.3486759,2.6561 32.8390207,1.4816 C31.5159862,0.4526 29.9031586,-0.0619 28.2933655,0.0311 C28.0081241,0.0461 27.7198483,0.0821 27.4406759,0.1361 C27.3177793,0.1451 26.9005379,0.1691 26.8444,0.1721 C25.4652276,0.2501 23.0164,0.3521 19.7604,0.4661 C19.6466069,0.4661 19.3477103,0.4751 19.3173655,0.4766 C19.2961241,0.4781 18.9608138,0.5051 18.8500552,0.5186 C15.6001241,0.7781 13.1573655,0.9566 11.7781931,1.0346 C11.7190207,1.0391 11.3032966,1.0631 11.1819172,1.0676 C10.8966759,1.0466 10.6084,1.0436 10.3216414,1.0616 C8.71184828,1.1531 7.16729655,1.8491 5.97777931,3.0191 C4.61226207,4.3631 3.79446897,6.2066 3.67157241,8.2136 C3.67157241,8.2136 0.171296552,46.8131 0.171296552,46.8161 C-0.434082759,53.5106 6.19626207,55.7651 9.02895172,56.7296 L9.20495172,56.7881 C11.8373655,57.6866 17.1901931,58.3436 22.2790207,58.4006 C22.4019172,58.4096 22.5278483,58.4111 22.6537793,58.4051 C22.7175034,58.4006 22.9117103,58.3781 22.9359862,58.3751" id="Fill-36" fill="#D6002A" mask="url(#mask-4)"></path>
                </g>
                <path d="M66.777104,141.25635 C71.7186308,148.173096 79.368072,152.814156 88.0873439,151.880775 C96.8626833,150.942834 104.007516,145.962777 109.22635,139.000427 C110.906863,136.759706 109.658222,132.936494 107.317021,131.69452 C104.519701,130.21236 101.828456,131.218709 100.034292,133.611446 C100.707103,132.71607 99.7736533,133.92156 99.705463,134.003649 C99.4569471,134.29856 99.2008544,134.587392 98.9417311,134.873182 C98.4280305,135.434123 97.8900845,135.975301 97.3309237,136.493677 C97.0551316,136.749065 96.7763089,136.999892 96.4899095,137.243118 C96.3595901,137.35409 95.1973236,138.19018 96.1732032,137.516747 C95.5716128,137.931752 94.9851759,138.360438 94.3623708,138.74504 C93.7516884,139.12052 93.1258525,139.470158 92.4848633,139.789392 C92.3121144,139.876041 90.9998292,140.444583 92.216648,139.95205 C91.8938803,140.082784 91.568082,140.208957 91.2422837,140.32449 C90.5922025,140.557075 89.9330291,140.756216 89.2662791,140.923434 C88.9359348,141.005523 88.6040751,141.081531 88.2707001,141.146898 C87.9691473,141.206185 86.7098989,141.279153 88.0873439,141.203145 C86.7341444,141.277633 85.4491352,141.289794 84.0989665,141.209225 C85.5536938,141.295874 83.4094863,141.034406 82.9685221,140.914313 C82.6457545,140.826144 82.3245022,140.728853 82.0077959,140.622442 C81.9714277,140.610281 80.7743084,140.148151 81.5077334,140.455224 C82.2320664,140.757737 81.1667817,140.280405 81.0273703,140.208957 C80.6561118,140.018937 80.29243,139.813715 79.9363248,139.597852 C79.6332566,139.413912 79.3407958,139.21477 79.048335,139.017149 C78.6225242,138.731358 78.3694623,138.462289 78.914985,138.93354 C78.3452168,138.439487 77.7875714,137.940873 77.2647787,137.395134 C76.9389804,137.054617 76.6343969,136.698899 76.3252673,136.343181 C75.594873,135.50253 76.6965259,136.885879 75.9676469,135.86737 C74.3507781,133.602325 71.2579672,132.288904 68.6864336,133.950443 C66.4467596,135.399159 65.0420386,138.828649 66.777104,141.25635" id="Fill-39" fill="#D6002A"></path>
                <path d="M106.500521,126.337625 C106.706443,126.587565 107.115259,126.612099 107.428685,126.472562 C108.034338,126.204221 108.25843,125.517269 108.885282,125.278063 C112.198206,124.008428 115.473277,127.332785 115.924489,130.267664 C116.212174,132.141448 115.654973,134.116434 114.642018,135.784746 C112.935589,138.598489 109.91035,140.354203 107.101632,141.881444 C106.969903,141.955046 106.816975,142.028648 106.674646,141.98878 C106.545945,141.950446 106.46721,141.829309 106.400588,141.714306 C104.63208,138.724225 102.398733,136.237092 100.101792,133.639555 C100.059397,133.59202 100.015487,133.539886 100.003374,133.477017 C99.9897464,133.404949 100.020029,133.331347 100.047283,133.262345 C101.066295,130.819679 101.959634,128.695955 103.649407,126.593698 C103.996144,126.165887 104.374677,125.730408 104.881912,125.523403 C105.390661,125.316397 106.05688,125.423733 106.291571,125.896013 C106.356678,126.024816 106.386961,126.173554 106.46721,126.293157 C106.476295,126.308491 106.488408,126.323824 106.500521,126.337625" id="Fill-41" fill="#EE847D"></path>
                <path d="M58.1399748,153.971002 C58.3159817,153.948201 58.4904714,153.914759 58.6649611,153.869156 C58.6664784,153.869156 58.795449,153.837235 58.8576584,153.817474 C63.6659869,152.549727 67.5684865,149.587092 71.470986,146.404045 C86.0613575,134.498781 95.5429747,121.955083 99.6548619,109.12105 C101.897434,102.122603 102.536217,95.0040697 101.551489,87.9661006 C99.6943117,74.6669233 87.6788009,61.5167137 72.7546231,63.1355986 L72.3859188,63.1781608 C67.0814327,63.8333152 61.9089518,66.2350411 57.4298777,70.1264452 C55.6516003,71.6708462 53.899117,73.479741 51.9129693,75.8206638 L51.6944779,76.0790773 C50.8827216,77.0412878 49.7705395,78.3576768 49.0513386,78.4473615 C49.0240272,78.4504017 48.8040185,78.4777631 48.8040185,78.4777631 C48.0635753,78.5689679 46.6661406,77.5596349 45.646514,76.8239164 L45.374917,76.6278261 C42.8759214,74.8356521 40.7365263,73.5071024 38.6411328,72.4415266 C33.3548543,69.7555457 27.7560117,68.6808494 22.4515255,69.3344836 L22.081304,69.3831262 C7.21326631,71.4352338 -1.26238002,87.1118158 0.153262304,100.464196 C0.901291957,107.531047 3.24248821,114.281721 7.11160711,120.529248 C14.2049917,131.981529 26.4405113,141.846846 43.4767728,149.854626 C47.9558469,151.958416 52.3818155,153.855476 57.2493188,153.978602 C57.5436753,154.009004 57.844101,154.007484 58.1399748,153.971002" id="Fill-43" fill="#D6002A"></path>
                <path d="M57.0305439,145.977006 C57.1674468,145.960357 57.3028286,145.934627 57.4366893,145.898302 C57.4382104,145.898302 57.5370848,145.874085 57.5857614,145.85895 C61.3095211,144.884229 64.3320335,142.604836 67.354546,140.155926 C78.6551223,130.999001 85.999204,121.350174 89.1844788,111.477344 C90.9201038,106.093677 91.4144755,100.617684 90.6539036,95.2037463 C89.2133806,84.97372 79.9085447,74.8587228 68.3478528,76.1043674 L68.063399,76.1376653 C63.9547899,76.640161 59.9496186,78.4881951 56.4798899,81.48198 C55.1017337,82.67011 53.7448736,84.0610545 52.2069973,85.8621688 L52.0381504,86.0604427 C51.409918,86.8005645 50.5474296,87.8146372 49.990691,87.8827466 C49.969395,87.8842601 49.7990269,87.9054497 49.7990269,87.9054497 C49.2255557,87.9750726 48.1440226,87.2001394 47.3530279,86.6340749 L47.14311,86.4827208 C45.2082153,85.1038845 43.5516898,84.0822441 41.9286295,83.2634182 C37.8337108,81.1959206 33.4969302,80.369527 29.3898423,80.8720228 L29.1038672,80.9098613 C17.5857674,82.488485 11.0220324,94.5468694 12.118777,104.819275 C12.6983327,110.254402 14.511536,115.447363 17.508189,120.251343 C23.00256,129.061668 32.4777639,136.650564 45.6721641,142.810678 C49.1418928,144.428653 52.5705507,145.887707 56.3414658,145.98306 C56.5681162,146.007277 56.8008512,146.005764 57.0305439,145.977006" id="Fill-45" fill="#AC0015"></path>
                <path d="M27.0251443,111.379587 C27.3192938,105.98113 30.1784885,101.399969 33.8454514,98.5594029 C38.5030734,94.9476289 43.0570573,95.1304452 48.4843452,96.1582108 C49.4292816,96.3379545 50.3163026,96.3717525 51.1789381,96.3210555 C52.0248086,96.1597471 52.8782995,95.9093348 53.7516037,95.5052955 C58.7704352,93.1824532 63.1445764,91.8919852 68.532238,94.2563068 C72.7737831,96.1167315 76.6495465,99.862161 78.233077,105.028642 C79.606283,109.511481 79.0377971,114.37378 77.3033815,118.443363 C76.3477765,120.684783 74.7932037,122.732633 72.8423672,124.496272 C68.6633098,128.2755 62.2758445,130.765796 55.600326,131.7613 L55.6018501,131.770517 C55.5698442,131.77359 55.5378383,131.77359 55.5058324,131.778199 C55.4738265,131.782807 55.4433446,131.790489 55.4113387,131.795098 L55.4098146,131.784344 C48.6946698,132.449549 41.8987481,131.595382 36.9363079,128.949923 C34.6196896,127.714761 32.6170341,126.107821 31.1523826,124.16751 C28.4913198,120.643304 26.769097,116.065215 27.0251443,111.379587" id="Fill-47" fill="#F09488"></path>
                <path d="M51.0169697,114.487755 C50.8152369,112.853535 52.4354527,111.309578 54.6338631,111.040375 C56.833862,110.771173 58.7812978,111.876488 58.9830306,113.510707 C59.1847633,115.14651 57.5645476,116.688884 55.3645487,116.95967 C53.1661383,117.228873 51.2187024,116.121974 51.0169697,114.487755" id="Fill-49" fill="#D6002A"></path>
                <path d="M62.0354838,111.424048 C61.7623837,109.227212 63.0954825,107.257423 65.0087263,107.022705 C66.9219701,106.789521 68.6932635,108.378852 68.9648207,110.575689 C69.2363779,112.772525 67.9063649,114.743848 65.9915782,114.977032 C64.0783344,115.211749 62.307041,113.620884 62.0354838,111.424048" id="Fill-51" fill="#231916"></path>
                <path d="M42.0351472,113.42404 C41.76359,111.227198 43.0951459,109.257405 45.0083896,109.022687 C46.9216333,108.789502 48.6929267,110.380371 48.9644839,112.575678 C49.237584,114.77252 47.9060281,116.743847 45.9912414,116.977032 C44.0779977,117.21175 42.3067044,115.620881 42.0351472,113.42404" id="Fill-53" fill="#231916"></path>
                <path d="M50.8586322,120.364951 L60.9524932,119.010906 C61.4720953,118.940064 61.9311756,119.221821 61.9784121,119.638822 C62.257403,122.111846 59.7996261,124.486657 56.4960196,124.927808 C53.1953654,125.372179 50.2814605,123.718667 50.0039458,121.245643 C49.9567092,120.828643 50.3390301,120.434183 50.8586322,120.364951" id="Fill-55" fill="#231916"></path>
                <path d="M92.7472445,57.7527329 C92.90916,57.6607725 93.0769632,57.5797227 93.2403506,57.4924384 C93.4258174,57.405154 93.4066819,57.4113886 93.1829442,57.5127008 C93.2683178,57.4768519 93.3522195,57.4410029 93.439065,57.4067126 C93.7393446,57.2882552 94.0455119,57.1853844 94.3560952,57.0996586 C94.6681504,57.0139329 94.9831495,56.9515869 95.2981486,56.8923582 C95.5056948,56.8596266 95.4791995,56.8627439 95.2230788,56.9032687 C95.3128682,56.8907995 95.4056016,56.8814476 95.4953911,56.8736544 C95.6573065,56.8596266 95.816278,56.848716 95.9767215,56.8440401 C96.3211598,56.8300122 96.6655981,56.8362468 97.0100364,56.8611852 C97.1469286,56.8705371 97.2838207,56.8861236 97.4207128,56.9001514 C97.628259,56.9266485 97.6032357,56.9235312 97.344171,56.8892409 C97.4354324,56.9048274 97.5252219,56.9204139 97.6164833,56.9391177 C97.9300105,56.999905 98.2435377,57.0778375 98.551177,57.1744738 C98.7263401,57.2290265 98.9029751,57.2898139 99.0751942,57.3552772 C99.1635117,57.3895675 99.7287438,57.6420687 99.2768525,57.431651 C100.148252,57.8369 101.278716,57.7340291 101.776238,56.7380519 C102.194274,55.9010569 102.054438,54.5263278 101.119745,54.0914646 C97.8166697,52.5577532 94.113222,52.6185405 90.9028805,54.4125464 C90.0579763,54.8848173 89.7297295,56.2065523 90.2493309,57.0591337 C90.8042593,57.9709438 91.84199,58.2577354 92.7472445,57.7527329" id="Fill-57" fill="#231916"></path>
                <path d="M86.8537992,49.7258555 C92.2780424,46.5240626 98.8116854,46.1547485 104.587315,48.534416 C105.544805,48.9278158 106.677222,48.1008733 106.92887,47.1422624 C107.225017,46.01184 106.560604,45.086949 105.600045,44.6903378 C98.9144928,41.9365391 91.1701772,42.6029102 84.9311467,46.2848113 C82.7967415,47.5452965 84.7132563,50.989552 86.8537992,49.7258555" id="Fill-59" fill="#231916"></path>
            </g>
        </g>
    </g>
</svg>