<?xml version="1.0" encoding="UTF-8"?>
<svg width="1440px" height="864px" viewBox="0 0 1440 864" version="1.1" xmlns="http://www.w3.org/2000/svg" xmlns:xlink="http://www.w3.org/1999/xlink">
    <title>event-popup-bg</title>
    <defs>
        <rect id="path-1" x="0" y="0" width="1440" height="864"></rect>
        <path d="M1364.0071,315.37753 C1358.09817,279.558095 1349.45527,244.215263 1337.77147,209.83623 C1320.84196,160.047002 1297.73189,112.460744 1269.18208,68.380173 C1213.39477,-17.7580504 1163.44936,-99.419727 1135.41812,-200.526845 C1130.86031,-216.960856 1124.78206,-233.055949 1119.48695,-249.253423 C1115.37716,-261.835767 1111.92,-274.873534 1106.88948,-287.071065 C1102.5398,-297.616369 1099.68588,-309.206671 1093.53002,-319 C1087.26832,-306.290561 1079.20396,-295.289835 1071.63348,-283.547726 C1062.8283,-269.89214 1055.61412,-255.23745 1046.44558,-241.818401 C985.578364,-152.707581 888.862488,-114.039112 785.793195,-99.8892701 C695.152047,-87.444611 602.863456,-89.8064485 512.811437,-72.6134017 C325.757797,-36.9139995 136.760385,129.950345 85.7354938,316.471954 C44.1895766,468.346221 67.8288049,638.550323 160.540722,765.51762 C236.693538,869.82328 347.703721,939.248591 467.794247,973.06276 C512.515109,985.655696 558.424811,993.514366 604.595565,997.080069 C642.511462,1000.0103 681.517423,1001.25653 720.463413,1000.95645 C720.622161,1000.95998 720.77738,1000.95292 720.9326,1000.95292 C721.087819,1000.95292 721.246566,1000.95998 721.401786,1000.94233 C760.347776,1001.25653 799.357265,1000.0103 837.273162,997.080069 C883.440388,993.514366 929.343035,985.655696 974.067425,973.06276 C1094.16148,939.248591 1205.17519,869.82328 1281.33153,765.51762 C1334.11323,693.225624 1362.56426,605.629346 1370.54748,516.748002 C1376.51638,450.270574 1374.99946,382.027947 1364.0071,315.37753" id="path-3"></path>
        <filter x="-3.6%" y="-3.3%" width="107.1%" height="107.0%" filterUnits="objectBoundingBox" id="filter-4">
            <feOffset dx="0" dy="3" in="SourceAlpha" result="shadowOffsetOuter1"></feOffset>
            <feGaussianBlur stdDeviation="15" in="shadowOffsetOuter1" result="shadowBlurOuter1"></feGaussianBlur>
            <feColorMatrix values="0 0 0 0 0.643137255   0 0 0 0 0.576470588   0 0 0 0 0.509803922  0 0 0 0.23 0" type="matrix" in="shadowBlurOuter1"></feColorMatrix>
        </filter>
    </defs>
    <g id="R4" stroke="none" stroke-width="1" fill="none" fill-rule="evenodd">
        <g id="event-popup-bg">
            <mask id="mask-2" fill="white">
                <use xlink:href="#path-1"></use>
            </mask>
            <g id="Rectangle"></g>
            <g id="Fill-1" mask="url(#mask-2)">
                <use fill="black" fill-opacity="1" filter="url(#filter-4)" xlink:href="#path-3"></use>
                <use fill="#FEFEFE" fill-rule="evenodd" xlink:href="#path-3"></use>
            </g>
        </g>
    </g>
</svg>