<?xml version="1.0" encoding="UTF-8"?>
<svg width="17px" height="30px" viewBox="0 0 17 30" version="1.1" xmlns="http://www.w3.org/2000/svg" xmlns:xlink="http://www.w3.org/1999/xlink">
    <title>event-character-01-hand</title>
    <g id="R4" stroke="none" stroke-width="1" fill="none" fill-rule="evenodd">
        <g id="D---Homepage---Event---1440-Copy" transform="translate(-566.000000, -771.000000)" fill="#D6002A">
            <path d="M567.584803,777.257503 C567.989832,776.214857 568.518661,775.23767 569.233957,774.382046 C571.483776,771.688936 576.312022,770.515376 579.271023,772.477544 C583.613234,775.353 581.346603,780.031655 581.756217,784.286395 C581.987006,786.66001 583.211263,788.927646 582.968245,791.299703 C582.68549,794.081648 579.702034,797.446477 577.635624,799.159283 C575.214624,801.169764 571.404299,800.789487 568.986355,798.880309 C566.887848,797.22361 566.695269,793.540844 566.282598,791.020729 C565.787393,788.00189 566.004428,784.903566 566.461422,781.878493 C566.696797,780.315305 567.016235,778.722505 567.584803,777.257503" id="event-character-01-hand"></path>
        </g>
    </g>
</svg>