<?xml version="1.0" encoding="UTF-8"?>
<svg width="150px" height="191px" viewBox="0 0 150 191" version="1.1" xmlns="http://www.w3.org/2000/svg" xmlns:xlink="http://www.w3.org/1999/xlink">
    <title>event-character-01</title>
    <defs>
        <polygon id="path-1" points="0.140915573 0.457574505 118.989321 0.457574505 118.989321 108.400729 0.140915573 108.400729"></polygon>
        <polygon id="path-3" points="0.524176168 0.225843243 110.921626 0.225843243 110.921626 114 0.524176168 114"></polygon>
    </defs>
    <g id="R4" stroke="none" stroke-width="1" fill="none" fill-rule="evenodd">
        <g id="D---Homepage---Event---1440-Copy" transform="translate(-449.000000, -612.000000)">
            <g id="event-character-01" transform="translate(449.000000, 612.000000)">
                <g id="Group-3" transform="translate(31.000000, 0.500000)">
                    <mask id="mask-2" fill="white">
                        <use xlink:href="#path-1"></use>
                    </mask>
                    <g id="Clip-2"></g>
                    <path d="M72.2883808,108.285359 C72.0839449,108.323739 71.8764577,108.348303 71.6689705,108.359049 C71.6674449,108.359049 71.5118295,108.368261 71.4355474,108.369796 C65.6365859,108.669162 60.2434449,106.750148 54.7740218,104.583965 C34.3197526,96.4841901 19.3257526,85.8451761 10.2054705,72.9662887 C5.23340641,65.9426972 2.00362436,58.2144437 0.606137179,49.9949225 C-2.03474744,34.4647254 6.68123974,15.4772324 23.8645346,11.9600634 L24.2901885,11.877162 C30.4263167,10.715007 37.0308167,11.5547676 43.395791,14.3058662 C45.9207269,15.3974014 48.5112654,16.7944437 51.5488167,18.7011761 L51.8844577,18.9130352 C53.1278551,19.6975282 54.8335218,20.7737113 55.6649962,20.6171197 C55.695509,20.6109789 55.950291,20.5618521 55.950291,20.5618521 C56.8077013,20.3991197 58.0053295,18.773331 58.8810474,17.5850775 L59.1129449,17.2703592 C61.2595218,14.3764859 63.1680987,12.1258662 65.1239705,10.1884296 C70.0563679,5.29724648 75.9072013,2.0978662 82.0418038,0.935711268 L82.470509,0.857415493 C99.7468679,-2.15466901 114.727137,12.3438662 117.880637,27.7758099 C119.549688,35.9415986 119.333047,44.3238521 117.239868,52.6892183 C113.398304,68.0229085 103.275676,83.418007 87.1511756,98.4507958 C82.9098936,102.400894 78.6548808,106.100754 73.2815731,107.976782 C72.9642397,108.116486 72.63165,108.22088 72.2883808,108.285359" id="Fill-1" fill="#D6002A" mask="url(#mask-2)"></path>
                </g>
                <path d="M101.849421,99.4119176 C101.690438,99.442478 101.531456,99.4608142 101.369416,99.4684543 C101.369416,99.4684543 101.247122,99.4760944 101.189032,99.4760944 C96.7008352,99.7068254 92.5260174,98.2322863 88.2915812,96.5667448 C72.4590699,90.3385364 60.8518229,82.1575187 53.7923909,72.2544227 C49.9431814,66.8528729 47.4422652,60.9104041 46.3599617,54.5905145 C44.3161201,42.6505682 51.0637019,28.0488116 64.3647234,25.3457446 L64.6949177,25.2800398 C69.4445182,24.3876763 74.5564152,25.0325006 79.4833423,27.1488079 C81.436992,27.9876908 83.4441453,29.0618887 85.7952511,30.5287876 L86.0551262,30.6907577 C87.0181929,31.2943255 88.3374415,32.1225122 88.9810146,32.0002706 C89.0054735,31.9956866 89.2026729,31.9590141 89.2026729,31.9590141 C89.8645901,31.8337165 90.794026,30.5837963 91.47123,29.6700405 L91.6500853,29.4286134 C93.3117576,27.2022886 94.7899885,25.4725703 96.3033791,23.982751 C100.122015,20.2207664 104.651486,17.7606546 109.398029,16.8682911 L109.729752,16.8071703 C123.10415,14.4922204 134.700697,25.6406525 137.141994,37.5057257 C138.433727,43.7858869 138.265572,50.2295461 136.646703,56.6609812 C133.671897,68.4527096 125.835897,80.2918065 113.354246,91.8497479 C110.072176,94.8874511 106.777876,97.7326239 102.618345,99.1750745 C102.373757,99.2820359 102.11541,99.3614929 101.849421,99.4119176" id="Fill-4" fill="#AC0015"></path>
                <path d="M122.684168,50.2682913 C120.477807,44.4260734 115.727982,40.3926343 110.6942,38.5593918 C104.298335,36.2292322 99.3404769,38.0425979 93.7129663,41.0944343 C92.7320241,41.628047 91.7662668,41.9797115 90.7989909,42.2274057 C89.8089378,42.3497237 88.7809225,42.3757163 87.6754644,42.2396375 C81.3327468,41.4568017 76.0575251,41.5837067 70.9402259,46.0957154 C66.9132,49.645998 63.9460776,55.1426673 64.0007432,61.3931219 C64.0478162,66.8194583 66.3711004,71.9736369 69.7011411,75.8434756 C71.5354726,77.9733394 73.9665693,79.6781478 76.731733,80.9319083 C82.6583854,83.6167904 90.5696995,84.0984179 98.2790549,82.8324256 L98.2805734,82.8446574 C98.317017,82.8354836 98.3534607,82.8247808 98.3883859,82.8186648 C98.4248296,82.81102 98.4627917,82.809491 98.4977169,82.8018461 L98.4961984,82.7911433 C106.135703,81.1474939 113.330292,77.8020941 117.881196,73.1310719 C120.00404,70.9507519 121.651597,68.4722815 122.59154,65.8164499 C124.296801,60.9925301 124.600498,55.3399052 122.684168,50.2682913" id="Fill-6" fill="#F09488"></path>
                <path d="M98.9556045,62.1422461 C98.6095239,60.2688087 96.3368251,59.1340138 93.875636,59.6075026 C91.4144468,60.0794131 89.699494,61.9828382 90.0440296,63.8562757 C90.3901101,65.7297132 92.6658989,66.8660864 95.1255431,66.3925976 C97.5867322,65.9191087 99.3016851,64.0156836 98.9556045,62.1422461" id="Fill-8" fill="#D6002A"></path>
                <path d="M85.9074993,62.2760672 C85.4370261,59.8234229 83.3085509,58.1600327 81.1498201,58.5591272 C78.9926022,58.9597109 77.6220275,61.2723742 78.0925007,63.7250185 C78.5614611,66.1776628 80.6914491,67.841053 82.8501799,67.4404693 C85.0073978,67.0413748 86.3779725,64.7287114 85.9074993,62.2760672" id="Fill-10" fill="#231916"></path>
                <path d="M109.908027,57.2760672 C109.437581,54.8234229 107.309229,53.1600327 105.150624,53.5591272 C102.993532,53.9597109 101.623036,56.2723742 102.09197,58.7250185 C102.562416,61.1776628 104.69228,62.841053 106.850885,62.4404693 C109.006465,62.0413748 110.37696,59.7287114 109.908027,57.2760672" id="Fill-12" fill="#231916"></path>
                <path d="M101.380131,70.2040472 C99.1230943,67.100906 92.194129,68.5013812 91.1468155,72.2657678 C90.5427129,74.431468 91.8131497,75.7815781 94.7683951,75.4501432 C95.4726755,75.3721585 96.1769559,75.2486827 96.8766827,75.104086 C96.8994504,75.1008367 96.9207003,75.094338 96.9404322,75.0910886 C96.9631999,75.0862146 96.9844498,75.0829652 97.0041818,75.0780911 C97.7069443,74.9416179 98.4036354,74.7807745 99.0881838,74.579314 C101.952359,73.7377291 102.676371,71.9863226 101.380131,70.2040472" id="Fill-14" fill="#231916"></path>
                <g id="Group-18" transform="translate(38.000000, 76.500000)">
                    <mask id="mask-4" fill="white">
                        <use xlink:href="#path-3"></use>
                    </mask>
                    <g id="Clip-17"></g>
                    <path d="M109.35406,52.5872757 C108.683595,49.5863027 107.782992,46.6361676 106.629238,43.784627 C104.959978,39.6528973 102.779814,35.7399243 100.157786,32.1489243 C95.0334027,25.1317622 90.424526,18.4658432 87.5708274,10.0467892 C87.1059507,8.67878919 86.5137315,7.34622162 85.9890192,6.00132973 C85.5824438,4.95684324 85.2264986,3.86922162 84.743211,2.86324865 C84.3258959,1.9913027 84.0282521,1.02384324 83.4621151,0.225843243 C82.9941699,1.33195135 82.3681973,2.30249189 81.7867178,3.33311351 C81.1116493,4.53165405 80.5731288,5.80722162 79.8658411,6.98727568 C75.1649096,14.8240054 67.1944986,18.5675189 58.5704986,20.2682757 C50.9882521,21.7641405 43.1927452,22.0152486 35.681074,23.908573 C20.0793205,27.8431135 4.94858082,42.8849514 1.55022466,58.9173568 C-1.21448767,71.9718973 1.60545753,86.2604108 10.0407452,96.5512216 C16.9694027,105.005708 26.6689096,110.339059 36.9621699,112.614438 C40.7947178,113.463276 44.7039781,113.90387 48.6163068,113.980897 C51.8290192,114.042519 55.1230466,113.957789 58.4078685,113.742114 C58.4216767,113.742114 58.4339507,113.740573 58.4462247,113.739032 C58.4600329,113.739032 58.4738411,113.739032 58.4876493,113.737492 C61.7724712,113.572654 65.0572932,113.27687 68.2393205,112.843978 C72.1163616,112.317114 75.9504438,111.428222 79.6602521,110.144951 C89.6251836,106.697222 98.6496219,100.27933 104.567211,91.0823027 C108.668252,84.7075459 110.642827,77.1558162 110.883704,69.5963838 C111.064745,63.9410595 110.604471,58.1732757 109.35406,52.5872757" id="Fill-16" fill="#FEFEFE" mask="url(#mask-4)"></path>
                </g>
                <path d="M124.216912,135.67129 C122.348824,132.744835 119.706312,130.245027 116.593342,128.250417 C113.840853,126.485303 110.7233,125.11449 107.449946,124.191887 C103.110422,122.967397 98.1415836,122.369784 93.1849649,122.523808 C93.1819099,122.523808 93.178855,122.523808 93.1758001,122.525348 L93.1651078,122.525348 C93.0444382,122.534589 92.9252961,122.548451 92.8061539,122.560773 C92.6839569,122.562314 92.5632872,122.563854 92.4426176,122.566934 C92.4395627,122.566934 92.4365078,122.566934 92.4319254,122.568475 C92.4288705,122.568475 92.427343,122.568475 92.4242881,122.568475 C87.4814165,122.98896 82.614918,124.158002 78.441888,125.878449 C75.2968408,127.17379 72.3549463,128.895778 69.8224119,130.967399 C66.958418,133.310103 64.6152891,136.099477 63.0939356,139.223082 C58.6184678,148.409069 58.5680615,160.743305 65.8036557,168.664756 C70.2012228,173.481084 76.3813398,176.498413 82.9524874,177.759869 C85.4010113,178.229642 87.8999414,178.466838 90.3988716,178.494563 C94.263354,178.53923 98.3233518,178.309734 102.151175,177.76757 C105.531452,177.290096 108.859794,176.422941 111.995677,175.118358 C117.135591,172.982046 121.704234,169.633566 124.879831,165.233103 C131.163815,156.52613 129.70967,144.276607 124.216912,135.67129" id="Fill-19" fill="#FAD9CB"></path>
                <path d="M87.7120144,121.137181 C86.6392722,121.735002 85.5881703,122.372373 84.4953335,122.932164 C81.7114592,124.354461 77.7914675,125.385816 75.0833344,123.592353 C73.0398687,122.23851 72.671983,124.238852 73.2423603,125.720474 C73.9240308,127.49264 75.3739331,129.129422 76.9165797,130.271823 C81.4316806,133.61536 87.2637504,135.699367 93.2102047,135.484882 C98.8645146,135.282566 108.460457,132.346702 107.982823,125.58509 C107.865347,123.919406 106.937905,122.392148 105.648759,121.275607 C103.562013,119.473018 100.468991,118.426451 97.5599116,118.504031 C95.0032609,118.570962 92.4110581,118.981679 90.0429874,119.976526 C89.2392036,120.314226 88.4694261,120.715816 87.7120144,121.137181" id="Fill-21" fill="#231916"></path>
                <path d="M97.9962592,154.268726 C97.9000587,152.615559 96.03501,151.379969 93.827053,151.509293 C91.6221992,151.637059 89.9076578,153.078321 90.0038583,154.72993 C90.0985072,156.383096 91.9635559,157.618686 94.1715129,157.49092 C96.3779182,157.363154 98.0909081,155.920334 97.9962592,154.268726" id="Fill-23" fill="#F2A078"></path>
                <path d="M99.5523098,162.183098 C97.5767017,159.657142 89.9695615,160.068344 88.3207232,162.787314 C87.3703928,164.351001 88.5380701,165.475513 91.7428121,165.49929 C92.5087725,165.504884 93.2777307,165.476911 94.0466889,165.433553 C94.070672,165.432155 94.0931561,165.430756 94.1171392,165.429357 C94.1411223,165.427959 94.1636065,165.427959 94.1875896,165.425162 C94.9565478,165.387398 95.7240071,165.331452 96.4854706,165.243337 C99.6647306,164.876892 100.68701,163.634894 99.5523098,162.183098" id="Fill-25" fill="#231916"></path>
                <path d="M85.9890976,152.272398 C85.82897,149.514288 83.912103,147.379176 81.7091827,147.505313 C79.5062625,147.631451 77.8505744,149.968076 78.010702,152.727724 C78.1723842,155.485834 80.0876966,157.619408 82.2906169,157.494809 C84.4950917,157.368671 86.1507798,155.030508 85.9890976,152.272398" id="Fill-27" fill="#231916"></path>
                <path d="M109.9893,151.27234 C109.827645,148.514263 107.912657,146.379177 105.708555,146.505313 C103.506008,146.631449 101.8506,148.969584 102.0107,151.72766 C102.172355,154.485737 104.087343,156.620823 106.289891,156.494687 C108.493993,156.368551 110.1494,154.030416 109.9893,151.27234" id="Fill-29" fill="#231916"></path>
                <path d="M118.584803,165.257503 C118.989832,164.214857 119.518661,163.23767 120.233957,162.382046 C122.483776,159.688936 127.312022,158.515376 130.271023,160.477544 C134.613234,163.353 132.346603,168.031655 132.756217,172.286395 C132.987006,174.66001 134.211263,176.927646 133.968245,179.299703 C133.68549,182.081648 130.702034,185.446477 128.635624,187.159283 C126.214624,189.169764 122.404299,188.789487 119.986355,186.880309 C117.887848,185.22361 117.695269,181.540844 117.282598,179.020729 C116.787393,176.00189 117.004428,172.903566 117.461422,169.878493 C117.696797,168.315305 118.016235,166.722505 118.584803,165.257503" id="Fill-31" fill="#D6002A"></path>
                <path d="M20.2318189,123.694061 C21.8994998,120.308528 21.9857051,116.328364 20.5641012,112.501106 C18.2600684,106.303047 12.523497,102.603982 6.68347926,99.7420327 C12.8996656,98.6686086 19.2318374,96.1819717 22.9088856,91.1469181 C26.0028725,86.9119128 25.9401777,81.7332211 22.4998022,78.2550184 C27.3993984,75.6401884 32.1594988,70.4275178 26.4370337,65.8450012 C24.9919193,64.689719 22.9167224,66.7099184 24.3743758,67.8791011 C25.385329,72.9357777 23.7286197,75.8193498 19.4058153,76.531362 C18.2349905,76.9560981 17.9450272,78.4666142 19.056292,79.158548 C23.2004163,85.2577587 22.4198664,89.8618982 16.7146424,92.9678777 C15.4497754,93.8019049 14.1018379,94.4737603 12.6708297,94.9818991 C8.99064678,96.5495615 5.50325023,97.2275948 1.47511129,97.4700805 C0.167925347,97.5488498 -0.686290886,99.5119029 0.73688038,100.148235 C9.35741118,104.006383 27.5326248,115.128292 14.9544867,125.810019 C13.6598397,126.909699 15.3118469,128.814062 16.7224792,128.068071 C21.3524879,124.503376 25.8069513,125.519654 30.0827346,131.11227 C30.1219188,132.959486 33.038793,132.965664 32.9996087,131.11227 C32.8381697,123.297126 26.2693252,122.178911 20.2318189,123.694061" id="Fill-1" fill="#231916"></path>
            </g>
        </g>
    </g>
</svg>