<?xml version="1.0" encoding="UTF-8"?>
<svg width="377px" height="302px" viewBox="0 0 377 302" version="1.1" xmlns="http://www.w3.org/2000/svg" xmlns:xlink="http://www.w3.org/1999/xlink">
    <title>mobile-event-bg-top</title>
    <defs>
        <rect id="path-1" x="0.23169684" y="0.329131414" width="375" height="300"></rect>
    </defs>
    <g id="R4" stroke="none" stroke-width="1" fill="none" fill-rule="evenodd">
        <g id="M---Homepage---375" transform="translate(1.000000, -478.000000)">
            <g id="KV-PART" transform="translate(-239.000000, 197.000000)">
                <g id="mobile-event-bg-top" transform="translate(238.768303, 281.670869)">
                    <mask id="mask-2" fill="white">
                        <use xlink:href="#path-1"></use>
                    </mask>
                    <g id="Rectangle"></g>
                    <path d="M0,300 L0,-379.127281 L15.3633308,-379.587702 L15.3633308,-379.587702 L30.4472048,-380.02933 L30.4472048,-380.02933 L45.2546188,-380.452166 L45.2546188,-380.452166 L59.7855727,-380.856209 C280.474005,-386.907459 403.664179,-386.33115 429.356095,-379.127281 C449.109546,-373.588524 467.94755,-299.962626 482.672828,-234.74453 L484.156011,-228.144145 L484.156011,-228.144145 L485.610092,-221.619606 L485.610092,-221.619606 L487.034323,-215.188791 L487.034323,-215.188791 L491.773274,-193.67713 L491.773274,-193.67713 L493.053933,-187.889313 C498.530414,-163.211978 503.050359,-143.944131 506.34015,-136.632087 C515.698564,-115.831636 522.548507,-93.6753705 527.376398,-70.5317399 L527.356686,-70.5217052 C527.104983,-69.4823093 527.031009,-68.5391339 527.139653,-67.6984268 C532.28761,-27.8626644 514.391704,64.4241438 471.87416,127.140421 C422.081406,200.588128 374.658166,235.41883 197.212901,236.108099 L191.795836,236.11854 C112.204097,236.11854 48.2721519,257.41236 0,300 Z" id="Path" fill="#EB6851" mask="url(#mask-2)"></path>
                </g>
            </g>
        </g>
    </g>
</svg>