<?xml version="1.0" encoding="UTF-8"?>
<svg width="375px" height="904px" viewBox="0 0 375 904" version="1.1" xmlns="http://www.w3.org/2000/svg" xmlns:xlink="http://www.w3.org/1999/xlink">
    <title>mobile-event-bg</title>
    <defs>
        <rect id="path-1" x="0" y="0" width="375" height="904"></rect>
    </defs>
    <g id="R4" stroke="none" stroke-width="1" fill="none" fill-rule="evenodd">
        <g id="M---Homepage---375" transform="translate(0.000000, -636.000000)">
            <g id="mobile-event-bg" transform="translate(0.000000, 636.000000)">
                <mask id="mask-2" fill="white">
                    <use xlink:href="#path-1"></use>
                </mask>
                <g id="Rectangle"></g>
                <path d="M-536.375819,320.573117 C-547.875889,289.876735 -547.874727,269.003128 -536.372334,257.952295 C-503.096095,225.982412 -458.964325,209.997471 -403.977022,209.997471 C-278.73004,209.997471 -245.764473,184.058541 -211.134296,128.741467 C-181.859631,81.9791065 -169.537737,13.1684379 -173.082267,-16.5338077 C-176.626797,-46.2360533 102.137842,-247.477425 305.080774,-124.64722 C442.19152,-41.6616194 471.605956,301.220787 393.324083,904 L-536.375819,904 L-536.375819,320.573117 Z" id="EVENT-BG" fill="#F2F0EB" mask="url(#mask-2)"></path>
                <path d="M412.770119,-140 C413.954486,-108.877076 414.890135,-80.4032028 415.577068,-54.578381 L415.766567,-47.2719435 C415.797022,-46.0662177 415.826913,-44.8664989 415.85624,-43.672787 L416.025435,-36.5825986 L416.181095,-29.6365762 C417.967797,52.8506957 416.830805,104.1981 412.770119,124.405638 C407.609664,150.08605 371.640967,155.064364 331.924898,158.765729 L328.007268,159.126364 L318.145004,160.018877 C297.046108,161.941026 275.77053,164.125205 258.224899,169.375718 C203.394802,185.783571 170.867415,202.91722 136.761029,256.633591 C116.297197,288.863413 104.246274,322.31985 94.3685117,353.446299 L93.3877482,356.551045 L92.4200859,359.639468 L91.4641381,362.710777 L90.0491479,367.283923 L87.2701616,376.29869 L86.3538579,379.261745 L85.4402558,382.202548 L84.5279687,385.12031 C84.2239381,386.088969 83.9198955,387.053656 83.6156099,388.014239 L82.7017928,390.883546 C80.4142717,398.025377 78.1000797,404.928964 75.6617207,411.538735 C59.4059945,455.603875 -30.1245206,626.698424 -256.725614,626.698424 C-406.282335,626.698424 -498.569103,675.801949 -533.585917,774.008999 L-534.629503,777 L-582,696.625994 L-572.509696,520.882173 C-531.609118,453.659173 -460.613913,417.358767 -359.52408,411.980954 L-356.45154,411.827455 C-189.452309,404.022308 -144.396927,357.144142 -88.9690466,266.411152 L-84.0563873,258.371539 L-80.8598691,253.1494 C-30.7100233,171.319324 -1.80585501,129.70857 103.414266,80.4298514 C188.575423,40.5455339 285.433165,-37.5116735 329.488246,-118.151701 L412.770119,-140 Z" id="Shape" fill="#FEFEFE" opacity="0.500676" mask="url(#mask-2)"></path>
                <path d="M-533.234984,774.832455 C-498.212123,676.722774 -405.909419,627.667933 -256.326871,627.667933 C-29.686647,627.667933 59.8593287,456.743019 76.1178621,412.721568 C78.3824435,406.590009 80.5399441,400.20536 82.6684382,393.61207 L83.1591498,392.086858 L84.0731247,389.220396 L84.5294786,387.777891 L84.9856411,386.329335 L85.8980858,383.414467 L86.8118456,380.476579 L87.7283075,377.516463 L90.5077737,368.510633 L91.9230083,363.942021 L92.8791212,360.873757 L93.8469506,357.788397 L94.8278834,354.686728 L95.7230726,351.881937 L96.6310099,349.065151 L97.5527063,346.236947 L98.1753138,344.345419 L98.8047853,342.449242 L99.4414205,340.548587 L100.085519,338.643625 L100.73738,336.734526 L101.397303,334.821461 L102.065589,332.904601 C102.177683,332.584817 102.290138,332.264882 102.402961,331.9448 L103.08435,330.022566 L103.774851,328.096962 C104.006569,327.454551 104.239856,326.811608 104.474762,326.168159 L105.184382,324.236328 C105.303478,323.914114 105.422991,323.59178 105.542928,323.269331 L106.267675,321.333277 C114.175214,300.344965 123.923934,278.89862 137.227721,257.970007 C171.339997,204.306894 203.873001,187.190233 258.712566,170.798647 C269.185154,167.668383 280.986353,165.629079 293.285724,164.085313 L295.284452,163.839222 L297.291127,163.601254 C298.29632,163.484207 299.304197,163.369995 300.314317,163.258299 L302.337415,163.038171 C302.675053,163.002011 303.012907,162.966107 303.350961,162.930447 L305.381552,162.71933 L307.416155,162.513514 L310.473861,162.213497 L312.515051,162.018467 L315.578948,161.731984 L318.643018,161.451083 L328.506986,160.559455 L332.425292,160.199178 L334.803953,159.97563 L337.172321,159.748089 L339.529094,159.515623 C340.312609,159.437211 341.093974,159.357822 341.872975,159.277302 L344.202664,159.032193 C379.035065,155.299991 408.639262,148.962609 413.284474,125.873153 C426.042455,62.458422 465.310666,403.293518 447.396234,392.086858 C412.19198,370.064273 311.661292,425.308332 310.473861,425.998129 C258.712566,456.067049 249.11868,452.62896 206.083466,531.364523 C180.177163,578.761693 137.227205,668.746922 12.4062147,700.514836 C-63.9034727,719.936246 -168.422815,736.499572 -246.851755,799.768834 C-282.888751,828.840171 -336.998213,905.173852 -355.821526,937.751629 C-453.544119,1106.88152 -602.500323,968.865727 -533.234984,774.832455 Z" id="Shape" fill="#FEFEFE" opacity="0.25" mask="url(#mask-2)"></path>
                <path d="M304.711396,-124.639974 C311.771552,-120.362066 318.534265,-115.515765 324.999534,-110.101073 C279.270823,-32.0661151 185.56035,42.5456147 102.873323,81.2245968 C-7.91870071,133.050414 -34.1241527,176.38749 -89.5690494,267.039111 C-145.013946,357.690732 -190.083159,404.526858 -357.133657,412.325005 C-468.500656,417.523771 -543.789398,459.748769 -582.999885,539 L-582.999885,539 L-583,444.769 L-578.920926,320.662339 C-545.516192,246.931669 -487.10384,210.066333 -403.683871,210.066333 C-278.553918,210.066333 -245.619153,184.122627 -211.021334,128.795368 C-181.774022,82.0243976 -169.463642,13.2010592 -173.00486,-16.5066554 C-176.546078,-46.2143699 101.958089,-247.492796 304.711396,-124.639974 Z" id="Combined-Shape" fill="#FEFEFE" opacity="0.75" mask="url(#mask-2)"></path>
            </g>
        </g>
    </g>
</svg>